<svg xmlns="http://www.w3.org/2000/svg" width="599" height="400" viewBox="0 0 599 400" fill="none"><g clip-path="url(#clip0_434_5062)"><path d="M37.5644 133.532C38.2327 137.97 42.3674 141.023 46.8002 140.354C47.132 140.306 47.4493 140.229 47.7666 140.143C49.0503 143.244 50.7763 146.09 52.8629 148.609C52.6369 148.845 52.4254 149.095 52.2234 149.364C49.5599 152.975 50.3244 158.057 53.9302 160.72C57.5361 163.384 62.6227 162.619 65.2815 159.009C65.4786 158.739 65.6517 158.461 65.8151 158.177C68.8344 159.432 72.0653 160.244 75.4067 160.557C75.4163 160.884 75.4403 161.211 75.4884 161.542C76.1567 165.98 80.2914 169.033 84.7242 168.365C89.157 167.696 92.21 163.562 91.5417 159.124C91.4936 158.792 91.4167 158.475 91.3302 158.158C94.4312 156.874 97.2774 155.143 99.7967 153.057C100.032 153.283 100.282 153.494 100.552 153.696C104.157 156.36 109.244 155.595 111.903 151.984C114.566 148.374 113.802 143.292 110.196 140.628C109.927 140.431 109.648 140.258 109.364 140.095C110.619 137.071 111.432 133.845 111.744 130.498C112.071 130.489 112.398 130.465 112.73 130.417C117.163 129.748 120.215 125.614 119.547 121.176C118.879 116.738 114.744 113.685 110.311 114.354C109.98 114.402 109.662 114.479 109.345 114.565C108.061 111.464 106.331 108.618 104.249 106.099C104.475 105.863 104.686 105.613 104.888 105.344C107.552 101.733 106.787 96.6514 103.181 93.9878C99.5756 91.3243 94.4889 92.0887 91.8302 95.6994C91.633 95.9686 91.46 96.2475 91.2965 96.5312C88.2772 95.2763 85.0464 94.4638 81.7049 94.1513C81.6953 93.8244 81.6713 93.4974 81.6232 93.1657C80.9549 88.7281 76.8202 85.6751 72.3874 86.3434C67.9546 87.0117 64.9016 91.1464 65.5699 95.584C65.618 95.9158 65.6949 96.2331 65.7815 96.5504C62.6804 97.8341 59.8342 99.5649 57.3149 101.651C57.0793 101.426 56.8293 101.214 56.5601 101.012C52.9542 98.3485 47.8676 99.113 45.2089 102.724C42.5453 106.334 43.3098 111.416 46.9156 114.08C47.1849 114.277 47.4637 114.45 47.7474 114.613C46.4973 117.637 45.68 120.863 45.3675 124.21C45.0406 124.219 44.7136 124.243 44.3819 124.291C39.9491 124.96 36.8962 129.094 37.5644 133.532ZM63.6516 129.599C62.4112 121.363 68.0844 113.681 76.3154 112.44C84.5511 111.2 92.2292 116.868 93.4696 125.109C94.71 133.349 89.0368 141.027 80.8059 142.268C72.5701 143.508 64.892 137.84 63.6516 129.599Z" fill="white"></path><path d="M83.5026 168.937C81.6804 168.937 79.9063 168.355 78.4159 167.254C76.5697 165.889 75.3629 163.889 75.0216 161.614C74.9927 161.422 74.9687 161.215 74.9543 160.994C71.8869 160.667 68.8868 159.922 66.0262 158.778C65.9108 158.965 65.7954 159.134 65.68 159.292C64.3146 161.143 62.3146 162.35 60.0405 162.691C57.7712 163.033 55.5019 162.47 53.6509 161.105C49.8383 158.287 49.0258 152.893 51.8383 149.076C51.9537 148.917 52.0835 148.758 52.2278 148.59C50.2902 146.191 48.6988 143.547 47.4825 140.705C47.2709 140.753 47.069 140.797 46.8719 140.826C44.6026 141.167 42.3333 140.604 40.4823 139.239C38.6361 137.873 37.4293 135.873 37.088 133.599C36.3812 128.907 39.6217 124.517 44.3141 123.811C44.5112 123.782 44.7132 123.758 44.9343 123.743C45.2613 120.676 46.0065 117.671 47.1507 114.81C46.9632 114.695 46.795 114.58 46.6363 114.464C42.8237 111.647 42.0112 106.253 44.8286 102.435C46.194 100.584 48.194 99.3774 50.4681 99.036C52.7422 98.6947 55.0067 99.2572 56.8577 100.623C57.0164 100.743 57.1798 100.868 57.3433 101.012C59.7424 99.0745 62.3867 97.4783 65.2233 96.2619C65.1752 96.0504 65.1319 95.8436 65.1031 95.6513C64.3963 90.9589 67.6368 86.5694 72.3244 85.8626C74.5985 85.5213 76.863 86.0838 78.714 87.4492C80.5602 88.8146 81.7669 90.8147 82.1083 93.0888C82.1371 93.2811 82.1612 93.4878 82.1756 93.709C85.243 94.0359 88.2431 94.7811 91.1037 95.9254C91.2191 95.7379 91.3345 95.5696 91.4499 95.4109C92.8153 93.5599 94.8153 92.3532 97.0894 92.0118C99.3587 91.6705 101.628 92.233 103.479 93.5984C107.292 96.4158 108.104 101.81 105.292 105.628C105.176 105.786 105.046 105.945 104.902 106.113C106.84 108.512 108.431 111.161 109.647 113.998C109.859 113.95 110.061 113.907 110.258 113.878C112.527 113.536 114.797 114.099 116.648 115.464C118.494 116.83 119.701 118.83 120.042 121.104C120.749 125.796 117.508 130.186 112.821 130.893C112.623 130.921 112.422 130.945 112.2 130.96C111.873 134.032 111.128 137.032 109.984 139.893C110.171 140.008 110.34 140.124 110.498 140.239C114.311 143.056 115.124 148.451 112.311 152.268C110.946 154.119 108.945 155.326 106.671 155.667C104.402 156.009 102.133 155.446 100.282 154.081C100.123 153.96 99.9597 153.835 99.7962 153.691C97.3971 155.629 94.7528 157.225 91.9162 158.441C91.9643 158.653 92.0076 158.855 92.0364 159.052C92.7432 163.744 89.5027 168.134 84.8151 168.841C84.3824 168.908 83.9449 168.937 83.517 168.937H83.5026ZM65.8243 157.696C65.8868 157.696 65.9493 157.706 66.007 157.735C69.0214 158.985 72.2042 159.773 75.4591 160.081C75.6995 160.105 75.887 160.302 75.8966 160.547C75.9062 160.898 75.9303 161.196 75.9735 161.475C76.2764 163.494 77.3486 165.273 78.988 166.485C80.6275 167.696 82.6468 168.196 84.6612 167.893C88.8248 167.264 91.7047 163.365 91.0749 159.201C91.0316 158.922 90.9691 158.624 90.8777 158.292C90.8152 158.057 90.9306 157.811 91.1566 157.72C94.1759 156.47 96.9837 154.778 99.4981 152.691C99.6856 152.537 99.9597 152.547 100.138 152.71C100.388 152.946 100.618 153.143 100.844 153.311C102.489 154.523 104.503 155.023 106.518 154.72C108.537 154.417 110.311 153.345 111.522 151.701C114.023 148.311 113.301 143.518 109.917 141.018C109.691 140.85 109.436 140.686 109.133 140.518C108.921 140.398 108.835 140.138 108.926 139.917C110.176 136.902 110.965 133.72 111.272 130.46C111.297 130.219 111.494 130.032 111.739 130.022C112.085 130.013 112.388 129.989 112.667 129.945C116.83 129.316 119.71 125.416 119.08 121.253C118.777 119.234 117.705 117.455 116.066 116.243C114.426 115.032 112.412 114.532 110.393 114.834C110.114 114.878 109.821 114.94 109.484 115.032C109.253 115.099 109.003 114.979 108.912 114.753C107.662 111.733 105.969 108.926 103.888 106.406C103.734 106.219 103.743 105.945 103.907 105.772C104.142 105.522 104.34 105.286 104.508 105.06C107.008 101.671 106.287 96.8773 102.902 94.3773C101.263 93.1657 99.2433 92.6657 97.2289 92.9686C95.2096 93.2715 93.4307 94.3436 92.2191 95.9879C92.0508 96.2138 91.8874 96.4687 91.7191 96.7716C91.5989 96.9831 91.3393 97.0696 91.1181 96.9783C88.1036 95.7283 84.9209 94.9398 81.666 94.6321C81.4256 94.608 81.2381 94.4109 81.2285 94.1657C81.2189 93.8148 81.1948 93.5167 81.1515 93.2378C80.8487 91.2185 79.7765 89.4396 78.1371 88.2281C76.4976 87.0165 74.4831 86.5165 72.4638 86.8194C68.3003 87.4492 65.4204 91.3483 66.0502 95.5119C66.0935 95.7908 66.156 96.084 66.2473 96.4206C66.3098 96.6562 66.1945 96.9014 65.9685 96.9927C62.9492 98.2427 60.1414 99.9351 57.6269 102.022C57.4394 102.176 57.1654 102.166 56.9923 102.002C56.7423 101.767 56.5115 101.57 56.2808 101.401C54.6413 100.19 52.6268 99.6899 50.6075 99.9928C48.5883 100.296 46.8142 101.368 45.6026 103.012C43.1026 106.402 43.8237 111.195 47.2084 113.695C47.4344 113.863 47.6892 114.027 47.9921 114.195C48.2036 114.315 48.2902 114.575 48.1988 114.796C46.9488 117.815 46.1603 120.993 45.8526 124.253C45.8286 124.493 45.6315 124.681 45.3863 124.69C45.0401 124.7 44.7372 124.724 44.4584 124.767C40.2948 125.397 37.4149 129.296 38.0447 133.46C38.3476 135.479 39.4198 137.258 41.0592 138.47C42.6987 139.681 44.718 140.181 46.7325 139.878C47.0113 139.835 47.3094 139.773 47.6411 139.676C47.8815 139.614 48.1219 139.729 48.2133 139.955C49.4633 142.979 51.1556 145.787 53.2374 148.302C53.3913 148.489 53.3817 148.763 53.2182 148.936C52.9826 149.186 52.7855 149.422 52.6172 149.648C50.1172 153.037 50.8383 157.831 54.223 160.331C55.8625 161.542 57.877 162.042 59.8962 161.739C61.9155 161.437 63.6944 160.364 64.906 158.72C65.0742 158.494 65.2377 158.239 65.406 157.936C65.4925 157.783 65.656 157.691 65.8243 157.691V157.696ZM78.5265 142.922C75.2283 142.922 72.0263 141.874 69.3195 139.878C65.9781 137.412 63.7954 133.787 63.1752 129.676C61.8963 121.19 67.7618 113.248 76.2428 111.969C80.3535 111.349 84.4545 112.368 87.8007 114.839C91.1422 117.306 93.3249 120.931 93.9451 125.041C95.224 133.527 89.3585 141.47 80.8775 142.749C80.0938 142.869 79.3054 142.927 78.5265 142.927V142.922ZM78.5938 112.748C77.863 112.748 77.1274 112.801 76.387 112.916C68.4301 114.118 62.93 121.57 64.1271 129.532C64.7088 133.388 66.7522 136.787 69.8917 139.104C73.0264 141.422 76.8822 142.374 80.7333 141.797C88.6902 140.6 94.1903 133.143 92.9932 125.181C92.4114 121.325 90.3681 117.926 87.2286 115.609C84.6901 113.734 81.6852 112.753 78.5938 112.753V112.748Z" fill="#123761"></path><path d="M10.0291 54.8571C7.83673 56.6312 7.50018 59.8428 9.27426 62.0351C9.40407 62.1986 9.54831 62.3477 9.69735 62.4919C8.42328 64.1746 7.43287 66.0208 6.73093 67.9536C6.529 67.9055 6.32707 67.8718 6.12034 67.8478C3.31739 67.5545 0.807711 69.5882 0.509627 72.3912C0.216351 75.1941 2.24525 77.7086 5.0482 78.0019C5.25493 78.0259 5.46167 78.0307 5.66841 78.0259C5.95207 80.0644 6.53862 82.0693 7.42806 83.9828C7.25498 84.0934 7.0819 84.2088 6.92324 84.3386C4.73088 86.1126 4.39434 89.3243 6.16842 91.5166C7.9425 93.709 11.1541 94.0455 13.3417 92.2715C13.5051 92.1368 13.6542 91.9974 13.7984 91.8484C15.4811 93.1224 17.3225 94.1128 19.2553 94.8148C19.2072 95.0167 19.1735 95.2186 19.1495 95.4254C18.8562 98.2283 20.8851 100.743 23.6881 101.036C26.491 101.329 29.0007 99.2957 29.2988 96.4927C29.3228 96.286 29.3276 96.0792 29.3228 95.8725C31.3565 95.5888 33.3662 95.0023 35.2797 94.108C35.3903 94.2811 35.5057 94.4542 35.6355 94.6177C37.4096 96.81 40.6212 97.1466 42.8087 95.3725C45.0011 93.5984 45.3376 90.3868 43.5635 88.1944C43.4337 88.031 43.2895 87.8819 43.1405 87.7377C44.4145 86.055 45.4049 84.2088 46.1069 82.276C46.3088 82.3241 46.5107 82.3578 46.7175 82.3818C49.5204 82.6751 52.0301 80.6414 52.3234 77.8384C52.6166 75.0355 50.5878 72.521 47.7848 72.2277C47.5781 72.2037 47.3713 72.1989 47.1646 72.2037C46.8809 70.1651 46.2944 68.1603 45.4001 66.2468C45.5732 66.1362 45.7463 66.0208 45.905 65.891C48.0973 64.1169 48.4339 60.9053 46.6598 58.713C44.8857 56.5206 41.6741 56.184 39.4865 57.9581C39.3231 58.0879 39.174 58.2322 39.0298 58.3812C37.3471 57.1071 35.5057 56.1167 33.5729 55.4148C33.621 55.2129 33.6547 55.0109 33.6787 54.8042C33.972 52.0013 31.9431 49.4868 29.1401 49.1935C26.3372 48.9002 23.8275 50.9339 23.5294 53.7369C23.5054 53.9436 23.5006 54.1503 23.5054 54.3571C21.4717 54.6407 19.462 55.2273 17.5485 56.1215C17.4379 55.9485 17.3225 55.7754 17.1927 55.6119C15.4186 53.4196 12.207 53.083 10.0195 54.8571H10.0291ZM20.4572 67.7516C24.5246 64.4583 30.4911 65.0881 33.7845 69.1555C37.0778 73.2229 36.448 79.1942 32.3806 82.4876C28.3132 85.7809 22.3467 85.1511 19.0533 81.0837C15.76 77.0163 16.3898 71.045 20.4572 67.7516Z" fill="white"></path><path d="M24.2315 101.551C24.0344 101.551 23.8373 101.541 23.6354 101.522C22.1546 101.363 20.818 100.642 19.8805 99.4832C18.9429 98.3245 18.5102 96.8677 18.6689 95.3821C18.6785 95.3004 18.6881 95.2138 18.7026 95.1273C16.9718 94.459 15.3419 93.5744 13.8371 92.483C13.7697 92.5407 13.7072 92.5984 13.6447 92.6513C12.4861 93.5888 11.0293 94.0215 9.54849 93.8628C8.06769 93.7042 6.73112 92.983 5.7936 91.8243C3.85605 89.43 4.22625 85.9059 6.62054 83.9684C6.68304 83.9155 6.75035 83.8626 6.82247 83.8145C6.06764 82.1174 5.53878 80.3337 5.25031 78.5019C5.16377 78.5019 5.07723 78.4923 4.9955 78.4827C1.93293 78.1605 -0.293089 75.4057 0.0290344 72.3431C0.182884 70.8575 0.908863 69.5257 2.06755 68.5882C3.22623 67.6507 4.68299 67.218 6.1638 67.3766C6.24553 67.3862 6.33207 67.3959 6.41861 67.4103C7.08209 65.6795 7.97153 64.0448 9.06291 62.5448C9.00521 62.4775 8.94752 62.415 8.89463 62.3525C6.95709 59.9582 7.33209 56.4341 9.72157 54.4965C10.8803 53.559 12.337 53.1263 13.8178 53.2849C15.2986 53.4436 16.6352 54.1648 17.5727 55.3234C17.6256 55.3859 17.6785 55.4533 17.7266 55.5254C19.4237 54.7705 21.2074 54.2417 23.0344 53.9532C23.0344 53.8667 23.044 53.7801 23.0536 53.6984C23.2075 52.2128 23.9335 50.881 25.0921 49.9435C26.2508 49.006 27.7076 48.5733 29.1884 48.7319C30.6692 48.8858 32.0058 49.6118 32.9433 50.7705C33.8808 51.9291 34.3135 53.3859 34.1549 54.8715C34.1452 54.9532 34.1356 55.0398 34.1212 55.1263C35.852 55.7946 37.4819 56.6793 38.9867 57.7706C39.054 57.7129 39.1165 57.6552 39.179 57.6023C40.3377 56.6648 41.7993 56.2321 43.2753 56.3908C44.7561 56.5494 46.0926 57.2706 47.0302 58.4293C48.9677 60.8236 48.5927 64.3477 46.2032 66.2852C46.1407 66.3381 46.0734 66.391 46.0013 66.4391C46.7561 68.1363 47.285 69.92 47.5734 71.7517C47.66 71.7517 47.7465 71.7613 47.8283 71.771C50.8908 72.0931 53.1168 74.848 52.7947 77.9105C52.6409 79.3961 51.9149 80.7279 50.7562 81.6654C49.5975 82.6029 48.1408 83.0357 46.66 82.877C46.5782 82.8674 46.4917 82.8578 46.4051 82.8433C45.7417 84.5741 44.8522 86.2088 43.7609 87.7088C43.8185 87.7761 43.8762 87.8386 43.9291 87.9012C45.8667 90.2954 45.4917 93.8196 43.1022 95.7571C41.9435 96.6946 40.4867 97.1273 39.0059 96.9687C37.5251 96.81 36.1886 96.0888 35.251 94.9302C35.1982 94.8677 35.1453 94.8004 35.0972 94.7282C33.4 95.4831 31.6163 96.0119 29.7894 96.3004C29.7894 96.3869 29.7797 96.4735 29.7701 96.5552C29.6115 98.0408 28.8903 99.3726 27.7316 100.31C26.7268 101.123 25.5008 101.555 24.2315 101.555V101.551ZM13.7986 91.3724C13.8996 91.3724 14.0005 91.406 14.0871 91.4685C15.7121 92.6993 17.5054 93.6705 19.4189 94.3677C19.6497 94.4494 19.7795 94.6898 19.7218 94.9254C19.6737 95.1321 19.6449 95.31 19.6257 95.4783C19.4958 96.7042 19.8516 97.911 20.6305 98.8726C21.4094 99.8341 22.5103 100.43 23.7363 100.56C24.9623 100.69 26.1691 100.334 27.1258 99.5553C28.0874 98.7764 28.6836 97.6754 28.8134 96.4446C28.8326 96.2764 28.8374 96.0937 28.8326 95.8821C28.8326 95.6369 29.0057 95.4302 29.2461 95.3965C31.2606 95.1177 33.2173 94.5359 35.0635 93.6753C35.2847 93.5696 35.5443 93.6513 35.6741 93.858C35.7847 94.0359 35.8905 94.185 35.9962 94.3196C36.7703 95.2811 37.8761 95.8773 39.1021 96.0071C40.3281 96.1369 41.5348 95.7812 42.4916 95.0023C44.4724 93.3965 44.7801 90.4829 43.1743 88.4973C43.0685 88.3627 42.9435 88.2329 42.7897 88.0839C42.6166 87.9156 42.5926 87.6415 42.7416 87.4492C43.9676 85.8242 44.9436 84.0309 45.6359 82.1174C45.7176 81.8866 45.9628 81.7568 46.1984 81.8145C46.4051 81.8625 46.583 81.8914 46.7513 81.9106C47.9821 82.0404 49.1841 81.6847 50.1408 80.9058C51.1024 80.1269 51.6985 79.0259 51.8284 77.7951C52.0928 75.2614 50.2514 72.9777 47.7177 72.7133C47.5494 72.6941 47.3667 72.6892 47.1552 72.6941C46.934 72.6989 46.7032 72.521 46.6696 72.2806C46.3907 70.2661 45.809 68.3093 44.9484 66.4583C44.8474 66.2372 44.9243 65.9776 45.1263 65.8477C45.3042 65.7372 45.4532 65.6314 45.5878 65.5256C47.5686 63.9198 47.8763 61.0063 46.2705 59.0207C45.4917 58.0591 44.3907 57.4629 43.1647 57.3331C41.9387 57.2033 40.7319 57.5591 39.7752 58.3379C39.6454 58.4437 39.5108 58.5687 39.3617 58.7226C39.1934 58.8956 38.9194 58.9197 38.7271 58.7706C37.102 57.5398 35.3087 56.5687 33.4 55.8715C33.1741 55.7898 33.0394 55.5494 33.0971 55.3138C33.1452 55.1023 33.1741 54.9292 33.1933 54.7609C33.3231 53.5349 32.9673 52.3282 32.1885 51.3666C31.4096 50.4051 30.3086 49.8089 29.0826 49.6791C27.8566 49.5493 26.6499 49.905 25.6931 50.6839C24.7316 51.4628 24.1354 52.5638 24.0056 53.7946C23.9863 53.9628 23.9815 54.1455 23.9863 54.3571C23.9863 54.6023 23.8133 54.809 23.5729 54.8427C21.5584 55.1215 19.6016 55.7033 17.7554 56.5639C17.5343 56.6696 17.2698 56.5879 17.1448 56.3812C17.0294 56.1985 16.9285 56.0542 16.8227 55.9196C16.0438 54.9581 14.9429 54.3619 13.7169 54.2321C12.4909 54.1023 11.2841 54.458 10.3274 55.2369C8.34654 56.8427 8.03884 59.7562 9.64465 61.7419C9.75042 61.8717 9.87542 62.0111 10.0293 62.1553C10.2024 62.3236 10.2264 62.5977 10.0774 62.79C8.85136 64.415 7.87538 66.2083 7.18305 68.1218C7.10132 68.3526 6.85612 68.4776 6.62535 68.4247C6.41861 68.3766 6.24072 68.3478 6.07245 68.3286C4.84646 68.1988 3.6397 68.5545 2.68294 69.3334C1.72138 70.1123 1.12521 71.2132 0.995404 72.444C0.730974 74.9778 2.57236 77.2615 5.10608 77.5259C5.27435 77.5451 5.45705 77.5499 5.66859 77.5451C5.90418 77.5644 6.12053 77.7182 6.15418 77.9586C6.43303 79.9731 7.01478 81.9299 7.87538 83.7809C7.97634 84.002 7.89942 84.2616 7.69749 84.3915C7.51479 84.5068 7.37056 84.6078 7.23594 84.7136C5.25512 86.3194 4.94742 89.2329 6.55323 91.2185C7.33209 92.1801 8.43308 92.7763 9.65907 92.9061C10.8851 93.0359 12.0918 92.6801 13.0486 91.9012C13.1784 91.7955 13.313 91.6705 13.462 91.5166C13.5534 91.4205 13.6832 91.3724 13.8082 91.3724H13.7986ZM26.4335 85.0838C26.0825 85.0838 25.7268 85.0645 25.371 85.0261C22.7267 84.7472 20.3468 83.4539 18.6737 81.3866C15.2217 77.1172 15.8804 70.8334 20.1497 67.3766C22.2171 65.7035 24.8085 64.9343 27.4576 65.2131C30.1019 65.492 32.4817 66.7853 34.1549 68.8526C37.6069 73.122 36.9482 79.4058 32.6789 82.8626C30.8904 84.3097 28.7028 85.0838 26.4335 85.0838ZM20.7603 68.1266C16.9044 71.2469 16.3083 76.9249 19.4285 80.7856C20.9382 82.6558 23.0873 83.8193 25.4768 84.0741C27.871 84.3241 30.2076 83.6318 32.0779 82.1174C35.9337 78.9971 36.5299 73.3191 33.4096 69.4584C31.9 67.5882 29.7509 66.4247 27.3614 66.1699C24.9671 65.9151 22.6257 66.6122 20.7603 68.1266Z" fill="#123761"></path><path d="M81.1504 224.135V7.79346C81.1504 3.7549 84.4245 0.480781 88.4583 0.480781H512.036C516.074 0.480781 519.344 3.7549 519.344 7.79346V216.52C519.344 220.722 515.94 224.13 511.738 224.13H81.1504V224.135Z" fill="white"></path><path d="M511.738 224.616H81.1507C80.8863 224.616 80.6699 224.4 80.6699 224.135V7.79346C80.6699 3.49528 84.1652 0 88.4586 0H512.036C516.329 0 519.825 3.49528 519.825 7.79346V216.52C519.825 220.981 516.195 224.611 511.738 224.611V224.616ZM81.6315 223.654H511.738C515.666 223.654 518.863 220.457 518.863 216.524V7.79346C518.863 4.02413 515.801 0.961562 512.036 0.961562H88.4586C84.6941 0.961562 81.6315 4.02894 81.6315 7.79346V223.654Z" fill="#123761"></path><path d="M343.806 241.102C343.681 241.102 343.561 241.054 343.465 240.963L322.272 219.784C322.181 219.693 322.133 219.573 322.133 219.443V9.62523C322.133 9.3608 322.349 9.14445 322.614 9.14445C322.878 9.14445 323.094 9.3608 323.094 9.62523V219.241L344.148 240.28C344.335 240.467 344.335 240.77 344.148 240.958C344.052 241.054 343.931 241.097 343.806 241.097V241.102Z" fill="#123761"></path><path d="M304.964 265.372C304.7 265.372 304.483 265.155 304.483 264.891V20.3995C304.483 20.1351 304.7 19.9187 304.964 19.9187C305.229 19.9187 305.445 20.1351 305.445 20.3995V264.891C305.445 265.155 305.229 265.372 304.964 265.372Z" fill="#123761"></path><path d="M269.67 213.217C269.406 213.217 269.189 213 269.189 212.736V41.9097C269.189 41.6452 269.406 41.4289 269.67 41.4289C269.935 41.4289 270.151 41.6452 270.151 41.9097V212.736C270.151 213 269.935 213.217 269.67 213.217Z" fill="#123761"></path><path d="M340.259 186.423C339.995 186.423 339.778 186.206 339.778 185.942V20.3995C339.778 20.1351 339.995 19.9187 340.259 19.9187C340.524 19.9187 340.74 20.1351 340.74 20.3995V185.942C340.74 186.206 340.524 186.423 340.259 186.423Z" fill="#123761"></path><path d="M357.909 217.683C357.644 217.683 357.428 217.467 357.428 217.202V41.9097C357.428 41.6452 357.644 41.4289 357.909 41.4289C358.173 41.4289 358.389 41.6452 358.389 41.9097V217.202C358.389 217.467 358.173 217.683 357.909 217.683Z" fill="#123761"></path><path d="M287.32 186.423C287.055 186.423 286.839 186.206 286.839 185.942V30.7892L266.449 15.7744C266.233 15.6158 266.19 15.3177 266.348 15.1013C266.507 14.885 266.805 14.8417 267.021 15.0004L287.608 30.1594C287.733 30.2507 287.805 30.395 287.805 30.5488V185.942C287.805 186.206 287.589 186.423 287.325 186.423H287.32Z" fill="#123761"></path><path d="M287.815 188.365C290.511 188.365 292.695 186.18 292.695 183.485C292.695 180.79 290.511 178.605 287.815 178.605C285.12 178.605 282.936 180.79 282.936 183.485C282.936 186.18 285.12 188.365 287.815 188.365Z" fill="#92DBAC"></path><path d="M345.164 246.898C347.859 246.892 350.039 244.703 350.034 242.008C350.028 239.313 347.839 237.132 345.144 237.138C342.448 237.144 340.268 239.333 340.274 242.028C340.28 244.723 342.469 246.904 345.164 246.898Z" fill="white"></path><path d="M345.143 247.395C342.186 247.395 339.782 244.991 339.782 242.035C339.782 239.078 342.186 236.674 345.143 236.674C348.1 236.674 350.504 239.078 350.504 242.035C350.504 244.991 348.1 247.395 345.143 247.395ZM345.143 237.64C342.715 237.64 340.744 239.612 340.744 242.039C340.744 244.467 342.72 246.439 345.143 246.439C347.566 246.439 349.542 244.467 349.542 242.039C349.542 239.612 347.566 237.64 345.143 237.64Z" fill="#123761"></path><path d="M264.79 213.77C264.79 216.462 266.978 218.649 269.67 218.649C272.362 218.649 274.55 216.467 274.55 213.77C274.55 211.072 272.362 208.89 269.67 208.89C266.978 208.89 264.79 211.072 264.79 213.77Z" fill="white"></path><path d="M269.67 219.13C266.713 219.13 264.31 216.726 264.31 213.77C264.31 210.813 266.713 208.409 269.67 208.409C272.627 208.409 275.031 210.813 275.031 213.77C275.031 216.726 272.627 219.13 269.67 219.13ZM269.67 209.37C267.242 209.37 265.271 211.342 265.271 213.77C265.271 216.198 267.247 218.169 269.67 218.169C272.093 218.169 274.069 216.198 274.069 213.77C274.069 211.342 272.093 209.37 269.67 209.37Z" fill="#123761"></path><path d="M322.613 15.611C325.308 15.611 327.493 13.4261 327.493 10.731C327.493 8.03592 325.308 5.8511 322.613 5.8511C319.918 5.8511 317.733 8.03592 317.733 10.731C317.733 13.4261 319.918 15.611 322.613 15.611Z" fill="white"></path><path d="M322.614 16.0869C319.657 16.0869 317.253 13.683 317.253 10.7262C317.253 7.76942 319.657 5.36551 322.614 5.36551C325.57 5.36551 327.974 7.76942 327.974 10.7262C327.974 13.683 325.57 16.0869 322.614 16.0869ZM322.614 6.33188C320.186 6.33188 318.214 8.30308 318.214 10.731C318.214 13.159 320.191 15.1302 322.614 15.1302C325.037 15.1302 327.013 13.159 327.013 10.731C327.013 8.30308 325.037 6.33188 322.614 6.33188Z" fill="#123761"></path><path d="M266.745 19.7783C269.44 19.7727 271.62 17.5833 271.615 14.8882C271.609 12.1931 269.42 10.0129 266.725 10.0185C264.03 10.0242 261.849 12.2135 261.855 14.9086C261.861 17.6038 264.05 19.784 266.745 19.7783Z" fill="white"></path><path d="M266.733 20.2697C263.776 20.2697 261.372 17.8658 261.372 14.909C261.372 11.9522 263.776 9.54831 266.733 9.54831C269.69 9.54831 272.093 11.9522 272.093 14.909C272.093 17.8658 269.69 20.2697 266.733 20.2697ZM266.733 10.5099C264.305 10.5099 262.334 12.4811 262.334 14.909C262.334 17.337 264.31 19.3082 266.733 19.3082C269.156 19.3082 271.132 17.337 271.132 14.909C271.132 12.4811 269.156 10.5099 266.733 10.5099Z" fill="#123761"></path><path d="M187.735 166.523C187.61 166.523 187.49 166.475 187.394 166.384C187.206 166.196 187.206 165.893 187.394 165.706L213.067 140.047C213.159 139.955 213.279 139.907 213.409 139.907H399.139C399.403 139.907 399.62 140.124 399.62 140.388C399.62 140.652 399.403 140.869 399.139 140.869H213.606L188.071 166.389C187.975 166.48 187.855 166.528 187.73 166.528L187.735 166.523Z" fill="#123761"></path><path d="M218.702 200.707H190.076C189.812 200.707 189.596 200.49 189.596 200.226C189.596 199.962 189.812 199.745 190.076 199.745H218.505L260.621 157.677C260.713 157.586 260.833 157.537 260.963 157.537H386.341C386.466 157.537 386.591 157.59 386.682 157.677L418.332 189.307C418.519 189.495 418.519 189.798 418.332 189.985C418.144 190.173 417.842 190.173 417.654 189.985L386.148 158.494H261.17L219.053 200.563C218.962 200.654 218.842 200.702 218.712 200.702L218.702 200.707Z" fill="#123761"></path><path d="M469.007 87.954H161.23C161.071 87.954 160.927 87.8771 160.836 87.7521L134.326 50.1358C134.172 49.9195 134.225 49.6166 134.441 49.4675C134.657 49.3137 134.96 49.3666 135.109 49.5829L161.475 86.9925H468.8L505.19 50.6214C505.378 50.4339 505.681 50.4339 505.868 50.6214C506.056 50.8089 506.056 51.1118 505.868 51.2993L469.334 87.8098C469.242 87.9012 469.122 87.9492 468.992 87.9492L469.007 87.954Z" fill="#123761"></path><path d="M158.715 145.003H131.128C130.864 145.003 130.647 144.787 130.647 144.523C130.647 144.258 130.864 144.042 131.128 144.042H158.514L197.707 104.719C197.798 104.628 197.918 104.579 198.048 104.579H257.684L369.749 105.589H472.54L493.901 84.2424C494.089 84.0549 494.392 84.0549 494.579 84.2424C494.767 84.4299 494.767 84.7328 494.579 84.9203L473.079 106.406C472.987 106.498 472.867 106.546 472.737 106.546H369.745L257.679 105.536H198.245L159.052 144.859C158.961 144.951 158.84 144.999 158.711 144.999L158.715 145.003Z" fill="#123761"></path><path d="M467.756 176.533C467.631 176.533 467.511 176.485 467.415 176.394L414.217 123.224H241.727C241.462 123.224 241.246 123.008 241.246 122.743C241.246 122.479 241.462 122.263 241.727 122.263H414.414C414.539 122.263 414.664 122.315 414.755 122.402L468.098 175.711C468.285 175.898 468.285 176.201 468.098 176.389C468.002 176.485 467.881 176.528 467.756 176.528V176.533Z" fill="#123761"></path><path d="M399.139 70.3142H241.727C241.462 70.3142 241.246 70.0978 241.246 69.8334C241.246 69.569 241.462 69.3526 241.727 69.3526H398.933L416.779 50.6262C416.962 50.4339 417.265 50.4291 417.457 50.6118C417.649 50.7945 417.659 51.0974 417.471 51.2897L399.485 70.1651C399.394 70.2613 399.269 70.3142 399.139 70.3142Z" fill="#123761"></path><path d="M417.89 54.7369C420.585 54.7369 422.77 52.5521 422.77 49.857C422.77 47.1619 420.585 44.977 417.89 44.977C415.195 44.977 413.01 47.1619 413.01 49.857C413.01 52.5521 415.195 54.7369 417.89 54.7369Z" fill="white"></path><path d="M417.89 55.2177C414.933 55.2177 412.529 52.8138 412.529 49.857C412.529 46.9002 414.933 44.4963 417.89 44.4963C420.847 44.4963 423.251 46.9002 423.251 49.857C423.251 52.8138 420.847 55.2177 417.89 55.2177ZM417.89 45.4578C415.462 45.4578 413.491 47.429 413.491 49.857C413.491 52.2849 415.467 54.2561 417.89 54.2561C420.313 54.2561 422.289 52.2849 422.289 49.857C422.289 47.429 420.313 45.4578 417.89 45.4578Z" fill="#123761"></path><path d="M506.084 55.8427C508.779 55.8427 510.964 53.6579 510.964 50.9628C510.964 48.2677 508.779 46.0828 506.084 46.0828C503.389 46.0828 501.204 48.2677 501.204 50.9628C501.204 53.6579 503.389 55.8427 506.084 55.8427Z" fill="white"></path><path d="M506.084 56.3187C503.128 56.3187 500.724 53.9148 500.724 50.958C500.724 48.0012 503.128 45.5972 506.084 45.5972C509.041 45.5972 511.445 48.0012 511.445 50.958C511.445 53.9148 509.041 56.3187 506.084 56.3187ZM506.084 46.5636C503.656 46.5636 501.685 48.5348 501.685 50.9628C501.685 53.3907 503.661 55.3619 506.084 55.3619C508.507 55.3619 510.484 53.3907 510.484 50.9628C510.484 48.5348 508.507 46.5636 506.084 46.5636Z" fill="#123761"></path><path d="M494.978 89.4509C497.673 89.4453 499.853 87.2559 499.847 84.5608C499.842 81.8657 497.652 79.6854 494.957 79.6911C492.262 79.6967 490.082 81.8861 490.087 84.5812C490.093 87.2763 492.282 89.4565 494.978 89.4509Z" fill="white"></path><path d="M494.964 89.9397C492.007 89.9397 489.604 87.5358 489.604 84.5789C489.604 81.6221 492.007 79.2182 494.964 79.2182C497.921 79.2182 500.325 81.6221 500.325 84.5789C500.325 87.5358 497.921 89.9397 494.964 89.9397ZM494.964 80.1846C492.536 80.1846 490.565 82.1558 490.565 84.5838C490.565 87.0117 492.541 88.9829 494.964 88.9829C497.387 88.9829 499.363 87.0117 499.363 84.5838C499.363 82.1558 497.387 80.1846 494.964 80.1846Z" fill="#123761"></path><path d="M472.668 175.532C472.674 172.837 470.494 170.648 467.799 170.642C465.104 170.636 462.914 172.817 462.909 175.512C462.903 178.207 465.083 180.396 467.778 180.402C470.473 180.407 472.663 178.227 472.668 175.532Z" fill="white"></path><path d="M467.756 180.87C464.799 180.87 462.396 178.466 462.396 175.509C462.396 172.552 464.799 170.148 467.756 170.148C470.713 170.148 473.117 172.552 473.117 175.509C473.117 178.466 470.713 180.87 467.756 180.87ZM467.756 171.115C465.328 171.115 463.357 173.086 463.357 175.514C463.357 177.942 465.333 179.913 467.756 179.913C470.179 179.913 472.155 177.942 472.155 175.514C472.155 173.086 470.179 171.115 467.756 171.115Z" fill="#123761"></path><path d="M190.097 205.097C192.792 205.091 194.972 202.902 194.966 200.207C194.961 197.512 192.771 195.331 190.076 195.337C187.381 195.343 185.201 197.532 185.207 200.227C185.212 202.922 187.402 205.102 190.097 205.097Z" fill="white"></path><path d="M190.077 205.587C187.12 205.587 184.716 203.183 184.716 200.226C184.716 197.269 187.12 194.865 190.077 194.865C193.033 194.865 195.437 197.269 195.437 200.226C195.437 203.183 193.033 205.587 190.077 205.587ZM190.077 195.827C187.649 195.827 185.677 197.798 185.677 200.226C185.677 202.654 187.653 204.625 190.077 204.625C192.5 204.625 194.476 202.654 194.476 200.226C194.476 197.798 192.5 195.827 190.077 195.827Z" fill="#123761"></path><path d="M192.624 166.059C192.629 163.364 190.449 161.175 187.754 161.169C185.059 161.164 182.869 163.344 182.864 166.039C182.858 168.734 185.038 170.924 187.733 170.929C190.429 170.935 192.618 168.755 192.624 166.059Z" fill="white"></path><path d="M187.736 171.398C184.779 171.398 182.375 168.994 182.375 166.038C182.375 163.081 184.779 160.677 187.736 160.677C190.693 160.677 193.096 163.081 193.096 166.038C193.096 168.994 190.693 171.398 187.736 171.398ZM187.736 161.643C185.308 161.643 183.337 163.614 183.337 166.042C183.337 168.47 185.313 170.442 187.736 170.442C190.159 170.442 192.135 168.47 192.135 166.042C192.135 163.614 190.159 161.643 187.736 161.643Z" fill="#123761"></path><path d="M313.877 181.418L305.377 176.764C262.694 153.388 253.136 110.233 249.059 61.8188L252.217 61.3236C281.035 59.3139 295.141 54.4869 313.882 33.4143C336.248 53.684 357.609 61.0784 378.557 61.0784L378.764 61.1217C374.898 109.921 365.167 153.475 322.113 176.932L313.887 181.413L313.877 181.418Z" fill="#92DBAC"></path><path d="M296.031 159.023C295.877 159.023 295.718 158.975 295.589 158.869C283.459 149.436 274.761 136.878 268.992 120.474C263.194 103.983 261.054 85.2953 259.838 70.8623C259.804 70.4873 260.073 70.1459 260.444 70.0882L263.045 69.6844C263.045 69.6844 263.083 69.6796 263.107 69.6796C285.704 68.1026 297.68 64.5977 313.378 46.9434C313.507 46.7992 313.685 46.7127 313.878 46.703C314.075 46.6934 314.257 46.7607 314.402 46.8906C331.176 62.088 348.431 69.4776 367.153 69.4776C367.201 69.4776 367.249 69.4824 367.302 69.4921L367.47 69.5257C367.86 69.6074 368.11 69.9873 368.028 70.3767C367.946 70.7661 367.566 71.0161 367.177 70.9344L367.081 70.9152C348.215 70.8959 330.835 63.54 313.974 48.4387C298.185 65.992 285.997 69.5209 263.242 71.1075L261.338 71.4056C264.593 109.373 271.872 138.59 296.478 157.725C296.791 157.97 296.848 158.422 296.603 158.739C296.459 158.922 296.247 159.018 296.031 159.018V159.023Z" fill="white"></path><path d="M313.916 169.97C313.661 169.97 313.411 169.836 313.281 169.595C313.089 169.244 313.219 168.807 313.57 168.615L320.344 164.927C345.008 151.489 358.508 129.133 364.124 92.4253C364.182 92.0311 364.557 91.7618 364.946 91.8195C365.34 91.882 365.61 92.2474 365.552 92.6417C359.864 129.835 346.133 152.518 321.036 166.192L314.262 169.879C314.152 169.937 314.036 169.966 313.916 169.966V169.97Z" fill="white"></path><path d="M334.623 101.401H293.189C291.632 101.401 290.372 102.661 290.372 104.214V116.618C290.372 127.21 298.978 135.797 309.598 135.797H318.214C328.835 135.797 337.44 127.21 337.44 116.618V104.214C337.44 102.661 336.176 101.401 334.623 101.401Z" fill="white"></path><path d="M330.705 98.1177C329.748 98.1177 328.974 97.3437 328.974 96.3917V90.5647C328.974 83.7424 323.407 78.1894 316.57 78.1894H311.248C304.406 78.1894 298.843 83.7424 298.843 90.5647V96.3917C298.843 97.3437 298.069 98.1177 297.113 98.1177C296.156 98.1177 295.382 97.3437 295.382 96.3917V90.5647C295.382 81.8385 302.497 74.7374 311.248 74.7374H316.57C325.32 74.7374 332.436 81.8385 332.436 90.5647V96.3917C332.436 97.3437 331.662 98.1177 330.705 98.1177Z" fill="white"></path><path d="M318.157 112.95C318.157 110.608 316.257 108.714 313.911 108.714C311.565 108.714 309.666 110.608 309.666 112.95C309.666 114.551 310.56 115.95 311.878 116.666V124.83C311.878 125.95 312.791 126.864 313.916 126.864C315.041 126.864 315.955 125.955 315.955 124.83V116.666C317.272 115.945 318.166 114.551 318.166 112.95H318.157Z" fill="#92DBAC"></path><path d="M490.819 43.352C493.69 41.251 496.872 41.6933 497.522 41.7991C497.43 41.352 497.315 40.6933 497.272 39.8952C496.858 32.6017 502.719 25.592 508.796 22.2073C510.983 20.9861 517.171 18.0293 524.748 19.8082C536.566 22.5823 540.84 34.3085 541.138 35.1739C542.061 34.9576 543.023 34.8422 544.013 34.8422C550.96 34.8422 556.595 40.4769 556.595 47.4242C556.595 54.3715 550.96 60.0062 544.013 60.0062H496.397C491.185 59.0831 487.473 55.1456 487.257 50.8666C487.132 48.3425 488.194 45.2655 490.815 43.352H490.819Z" fill="#BBDFD8"></path><path d="M134.459 72.3633C146.833 67.4642 152.892 53.4618 147.993 41.0881C143.094 28.7144 129.092 22.655 116.718 27.5541C104.344 32.4532 98.285 46.4556 103.184 58.8293C108.083 71.203 122.086 77.2624 134.459 72.3633Z" fill="white"></path><path d="M125.571 74.5451C121.975 74.5451 118.393 73.747 115.047 72.1556C109.119 69.3382 104.638 64.3862 102.436 58.1985C97.8875 45.4338 104.575 31.3469 117.34 26.7987C123.523 24.5967 130.196 24.9333 136.124 27.7459C142.052 30.5632 146.533 35.5153 148.735 41.7029C150.937 47.8858 150.6 54.559 147.788 60.487C144.97 66.4199 140.018 70.8959 133.831 73.0979C131.133 74.0595 128.345 74.5354 125.566 74.5354L125.571 74.5451ZM125.566 26.342C122.941 26.342 120.273 26.7843 117.662 27.7122C105.397 32.0825 98.9692 45.6165 103.34 57.8812C106.777 67.5353 115.898 73.5739 125.609 73.5739C128.234 73.5739 130.903 73.1316 133.513 72.2037C139.456 70.0882 144.216 65.7852 146.922 60.0832C149.629 54.3859 149.951 47.9723 147.836 42.0347C144.398 32.3806 135.278 26.342 125.566 26.342Z" fill="#123761"></path><path d="M107.406 65.3621C107.127 65.3621 106.848 65.3429 106.579 65.2996C106.32 65.2564 106.137 65.0112 106.18 64.7467C106.223 64.4871 106.469 64.3044 106.733 64.3477C108.695 64.665 110.887 63.5159 111.536 62.2803C112.209 61.0015 111.969 59.3476 110.964 58.3524C110.738 58.1264 110.469 57.9245 110.185 57.7081C109.555 57.2273 108.901 56.7321 108.618 55.934C108.113 54.5302 109.108 52.9965 110.353 52.208C111.094 51.7368 111.916 51.4435 112.709 51.1647C113.142 51.0108 113.589 50.8522 114.012 50.6695C117.935 48.9435 120.306 44.2511 119.411 39.9865C118.575 36.0009 115.228 32.5633 110.887 31.2171C110.632 31.1402 110.493 30.8709 110.57 30.6161C110.647 30.3613 110.916 30.2171 111.171 30.2988C115.839 31.746 119.445 35.4672 120.354 39.7894C121.339 44.4818 118.724 49.6454 114.402 51.5493C113.95 51.7464 113.488 51.9147 113.036 52.0734C112.257 52.3474 111.522 52.6118 110.873 53.0253C109.974 53.5974 109.199 54.6984 109.526 55.6167C109.719 56.1504 110.228 56.5398 110.772 56.9485C111.065 57.1744 111.373 57.4052 111.642 57.6745C112.945 58.9581 113.257 61.088 112.387 62.7323C111.575 64.2708 109.425 65.3621 107.406 65.3621Z" fill="#123761"></path><path d="M139.085 70.2228C139.085 70.2228 139.042 70.2228 139.018 70.2228C134.225 69.5546 128.902 67.1939 125.119 64.0592C122.845 62.1746 121.724 60.2515 121.777 58.3476C121.835 56.4389 123.138 54.5879 125.104 53.6359C126.633 52.8955 128.547 52.6551 130.792 52.9244C131.898 53.0542 132.994 53.2897 134.056 53.5157C134.777 53.6696 135.523 53.8282 136.258 53.9532C137.061 54.0878 138.056 54.1744 138.653 53.6551C139.364 53.0301 139.22 51.7609 138.758 50.7801C138.614 50.4724 138.446 50.1695 138.268 49.8522C137.821 49.0445 137.359 48.2127 137.263 47.2415C137.037 44.9145 139.037 43.0539 141.032 42.4914C142.869 41.9722 145.903 42.5587 147.912 42.953L148.47 43.0587C148.73 43.1068 148.903 43.3616 148.855 43.6212C148.807 43.8809 148.557 44.0539 148.292 44.0059L147.73 43.8953C145.811 43.5203 142.912 42.9578 141.297 43.4145C139.653 43.8809 138.052 45.4049 138.22 47.1502C138.297 47.9242 138.691 48.6358 139.109 49.3906C139.287 49.7079 139.47 50.0397 139.629 50.3762C140.196 51.5878 140.451 53.3619 139.287 54.3811C138.388 55.1696 137.114 55.0734 136.1 54.9052C135.345 54.7802 134.59 54.6167 133.859 54.4629C132.821 54.2417 131.744 54.0109 130.681 53.8859C128.619 53.6407 126.888 53.8523 125.527 54.5109C123.907 55.2946 122.787 56.8523 122.744 58.3812C122.695 59.9774 123.705 61.6409 125.739 63.3236C129.393 66.3526 134.532 68.6363 139.157 69.2757C139.422 69.3142 139.605 69.5546 139.566 69.819C139.532 70.0594 139.326 70.2325 139.09 70.2325L139.085 70.2228Z" fill="#123761"></path><path d="M136.647 37.0778C135.037 37.0778 133.426 36.2749 132.536 34.9095C132.171 34.3518 131.931 33.7316 131.695 33.1306C131.349 32.2508 131.022 31.419 130.363 30.8998C129.729 30.4046 128.839 30.2555 127.969 30.1738L127.671 30.145C126.796 30.0632 125.892 29.9815 125.06 29.5728C123.964 29.0344 122.93 28.1689 123.604 25.8516C123.676 25.5968 123.94 25.4525 124.2 25.5247C124.455 25.5968 124.604 25.866 124.527 26.1208C123.988 27.9718 124.82 28.3805 125.488 28.7074C126.161 29.0392 126.94 29.1113 127.762 29.1882L128.06 29.217C129.075 29.318 130.128 29.4959 130.955 30.145C131.82 30.8229 132.21 31.8181 132.589 32.7796C132.815 33.3614 133.032 33.9095 133.344 34.3806C134.272 35.7989 136.258 36.472 137.859 35.9143C139.469 35.3518 140.743 33.3806 140.59 31.6931C140.566 31.4286 140.758 31.1931 141.022 31.169C141.287 31.145 141.522 31.3373 141.546 31.6017C141.743 33.722 140.2 36.1114 138.176 36.823C137.686 36.9961 137.166 37.0778 136.652 37.0778H136.647Z" fill="#123761"></path><path d="M304.964 297.882C318.344 297.882 329.19 287.036 329.19 273.656C329.19 260.276 318.344 249.429 304.964 249.429C291.584 249.429 280.737 260.276 280.737 273.656C280.737 287.036 291.584 297.882 304.964 297.882Z" fill="white"></path><path d="M304.964 298.363C291.339 298.363 280.257 287.276 280.257 273.656C280.257 260.035 291.344 248.948 304.964 248.948C318.585 248.948 329.672 260.035 329.672 273.656C329.672 287.276 318.585 298.363 304.964 298.363ZM304.964 249.905C291.868 249.905 281.218 260.559 281.218 273.651C281.218 286.742 291.873 297.397 304.964 297.397C318.056 297.397 328.71 286.742 328.71 273.651C328.71 260.559 318.056 249.905 304.964 249.905Z" fill="#123761"></path><path d="M304.243 290.661C304.176 290.661 304.104 290.661 304.037 290.656C301.988 290.545 300.412 288.786 300.527 286.738C300.527 286.728 300.527 286.718 300.527 286.709C299.484 286.353 298.493 285.877 297.565 285.286C297.56 285.291 297.551 285.3 297.546 285.305C296.806 285.968 295.854 286.305 294.859 286.247C293.868 286.194 292.955 285.757 292.291 285.016C290.921 283.488 291.051 281.132 292.58 279.762C292.589 279.757 292.594 279.747 292.604 279.742C292.118 278.757 291.753 277.718 291.512 276.641C291.503 276.641 291.493 276.641 291.483 276.641C289.435 276.531 287.858 274.771 287.974 272.723C288.027 271.732 288.464 270.819 289.205 270.156C289.945 269.492 290.897 269.156 291.892 269.213C291.902 269.213 291.911 269.213 291.921 269.213C292.272 268.17 292.753 267.179 293.344 266.252C293.339 266.242 293.33 266.237 293.325 266.228C291.955 264.699 292.084 262.343 293.613 260.973C294.354 260.309 295.306 259.973 296.301 260.03C297.291 260.083 298.205 260.521 298.868 261.261C298.873 261.271 298.883 261.276 298.887 261.285C299.873 260.8 300.912 260.434 301.984 260.194C301.984 260.184 301.984 260.175 301.984 260.165C302.094 258.117 303.84 256.54 305.902 256.65C306.892 256.703 307.806 257.141 308.469 257.881C309.133 258.622 309.469 259.574 309.412 260.569C309.412 260.578 309.412 260.588 309.412 260.598C310.455 260.953 311.445 261.429 312.373 262.021C312.383 262.016 312.388 262.006 312.397 262.001C313.138 261.338 314.09 261.001 315.085 261.059C316.075 261.112 316.989 261.55 317.652 262.29C319.023 263.819 318.893 266.175 317.364 267.545C317.354 267.55 317.349 267.559 317.34 267.564C317.825 268.55 318.191 269.588 318.426 270.665C318.436 270.665 318.446 270.665 318.455 270.665C320.503 270.776 322.076 272.535 321.965 274.584C321.854 276.632 320.095 278.209 318.047 278.098C318.037 278.098 318.027 278.098 318.018 278.098C317.662 279.141 317.186 280.132 316.599 281.06C316.604 281.064 316.614 281.074 316.619 281.079C317.989 282.608 317.859 284.964 316.33 286.334C315.59 286.997 314.633 287.334 313.643 287.276C312.652 287.223 311.739 286.786 311.075 286.045C311.07 286.036 311.061 286.031 311.056 286.021C310.07 286.507 309.032 286.872 307.96 287.113C307.96 287.122 307.96 287.132 307.96 287.142C307.907 288.132 307.469 289.045 306.729 289.709C306.041 290.324 305.166 290.661 304.248 290.661H304.243ZM297.498 284.185C297.589 284.185 297.686 284.214 297.767 284.266C298.82 284.983 299.974 285.536 301.19 285.911C301.421 285.983 301.565 286.218 301.522 286.454C301.503 286.565 301.488 286.675 301.479 286.786C301.397 288.305 302.565 289.608 304.085 289.69C304.815 289.728 305.527 289.483 306.075 288.988C306.623 288.497 306.95 287.819 306.989 287.084C306.993 286.968 306.989 286.858 306.989 286.747C306.974 286.507 307.138 286.286 307.378 286.242C308.633 286.002 309.835 285.579 310.965 284.983C311.181 284.867 311.445 284.935 311.585 285.132C311.647 285.223 311.715 285.315 311.792 285.396C312.282 285.944 312.96 286.271 313.695 286.31C314.426 286.348 315.138 286.103 315.686 285.608C316.821 284.593 316.917 282.843 315.897 281.714C315.821 281.627 315.739 281.55 315.657 281.478C315.474 281.319 315.441 281.045 315.575 280.848C316.292 279.795 316.845 278.641 317.22 277.42C317.292 277.189 317.527 277.045 317.763 277.088C317.873 277.108 317.984 277.122 318.095 277.132C319.614 277.218 320.917 276.045 320.999 274.526C321.08 273.007 319.912 271.704 318.393 271.622C318.277 271.617 318.167 271.622 318.056 271.622C317.83 271.641 317.599 271.473 317.551 271.232C317.311 269.978 316.888 268.776 316.292 267.646C316.176 267.43 316.244 267.165 316.441 267.026C316.532 266.963 316.619 266.896 316.705 266.819C317.84 265.804 317.936 264.054 316.917 262.92C316.426 262.372 315.748 262.045 315.013 262.006C314.287 261.968 313.571 262.213 313.022 262.708C312.936 262.785 312.859 262.867 312.787 262.949C312.628 263.131 312.354 263.165 312.152 263.03C311.099 262.314 309.945 261.761 308.729 261.386C308.498 261.314 308.354 261.083 308.397 260.843C308.417 260.732 308.431 260.622 308.436 260.511C308.474 259.775 308.229 259.069 307.739 258.516C307.248 257.968 306.57 257.641 305.835 257.602C304.296 257.521 303.013 258.689 302.931 260.208C302.926 260.324 302.931 260.434 302.931 260.545C302.945 260.785 302.782 261.001 302.541 261.05C301.287 261.29 300.08 261.713 298.955 262.309C298.738 262.425 298.474 262.357 298.335 262.16C298.272 262.069 298.205 261.977 298.128 261.896C297.637 261.348 296.96 261.021 296.224 260.982C295.484 260.944 294.782 261.189 294.233 261.684C293.099 262.699 293.008 264.449 294.022 265.579C294.099 265.665 294.181 265.742 294.262 265.814C294.445 265.973 294.479 266.247 294.344 266.444C293.628 267.497 293.075 268.651 292.7 269.872C292.628 270.103 292.392 270.247 292.157 270.204C292.046 270.184 291.935 270.17 291.825 270.16C291.084 270.122 290.382 270.367 289.834 270.862C289.286 271.353 288.959 272.031 288.921 272.766C288.839 274.285 290.007 275.588 291.527 275.67C291.642 275.675 291.753 275.67 291.863 275.67C292.104 275.656 292.32 275.819 292.368 276.06C292.608 277.314 293.032 278.521 293.628 279.646C293.743 279.863 293.676 280.127 293.479 280.266C293.387 280.329 293.296 280.396 293.214 280.473C292.084 281.488 291.988 283.238 293.003 284.367C293.493 284.915 294.171 285.242 294.907 285.281C295.647 285.324 296.349 285.074 296.897 284.579C296.979 284.502 297.056 284.42 297.133 284.339C297.229 284.233 297.359 284.175 297.493 284.175L297.498 284.185ZM304.969 280.151C304.849 280.151 304.729 280.151 304.609 280.141C302.878 280.045 301.287 279.281 300.128 277.987C298.969 276.694 298.383 275.031 298.479 273.295C298.575 271.564 299.339 269.968 300.628 268.809C301.921 267.651 303.585 267.069 305.32 267.16C308.897 267.357 311.647 270.425 311.45 274.002C311.263 277.459 308.388 280.146 304.969 280.146V280.151ZM304.96 268.117C303.594 268.117 302.296 268.612 301.272 269.531C300.171 270.516 299.522 271.877 299.44 273.353C299.359 274.829 299.859 276.247 300.844 277.348C301.83 278.449 303.186 279.098 304.662 279.18C307.7 279.343 310.325 277.002 310.489 273.954C310.657 270.906 308.311 268.29 305.263 268.122C305.162 268.117 305.056 268.112 304.955 268.112L304.96 268.117Z" fill="#123761"></path><path d="M357.907 258.968C371.088 258.968 381.773 248.283 381.773 235.102C381.773 221.921 371.088 211.236 357.907 211.236C344.726 211.236 334.041 221.921 334.041 235.102C334.041 248.283 344.726 258.968 357.907 258.968Z" fill="white"></path><path d="M357.907 259.449C344.484 259.449 333.561 248.525 333.561 235.102C333.561 221.678 344.484 210.755 357.907 210.755C371.331 210.755 382.254 221.678 382.254 235.102C382.254 248.525 371.331 259.449 357.907 259.449ZM357.907 211.717C345.013 211.717 334.522 222.207 334.522 235.102C334.522 247.996 345.013 258.487 357.907 258.487C370.802 258.487 381.292 247.996 381.292 235.102C381.292 222.207 370.802 211.717 357.907 211.717Z" fill="#123761"></path><path d="M344.661 244.655C344.536 244.655 344.411 244.607 344.325 244.515C344.234 244.424 344.185 244.304 344.181 244.174L344.118 226.15C344.118 225.885 344.33 225.669 344.599 225.669L371.152 225.544C371.297 225.553 371.402 225.592 371.494 225.683C371.585 225.775 371.633 225.895 371.638 226.025L371.701 244.049C371.701 244.314 371.489 244.53 371.22 244.53L344.666 244.655H344.661ZM345.085 226.63L345.142 243.693L370.734 243.573L370.676 226.51L345.085 226.63Z" fill="#123761"></path><path d="M357.931 237.386C357.825 237.386 357.72 237.352 357.633 237.285L345.272 227.544C345.065 227.38 345.027 227.078 345.19 226.871C345.354 226.664 345.657 226.626 345.864 226.789L357.922 236.289L369.73 226.592C369.936 226.424 370.239 226.453 370.407 226.659C370.576 226.866 370.547 227.169 370.34 227.337L358.234 237.28C358.148 237.352 358.037 237.39 357.931 237.39V237.386Z" fill="#123761"></path><path d="M369.989 243.27C369.85 243.27 369.71 243.213 369.619 243.092L361.979 233.799C361.811 233.592 361.84 233.289 362.047 233.121C362.253 232.953 362.556 232.982 362.725 233.188L370.364 242.482C370.532 242.689 370.504 242.991 370.297 243.16C370.206 243.232 370.1 243.27 369.994 243.27H369.989Z" fill="#123761"></path><path d="M345.733 243.27C345.628 243.27 345.517 243.237 345.43 243.16C345.224 242.991 345.195 242.689 345.363 242.482L353.003 233.188C353.171 232.982 353.474 232.953 353.681 233.121C353.887 233.289 353.916 233.592 353.748 233.799L346.108 243.092C346.012 243.208 345.878 243.27 345.738 243.27H345.733Z" fill="#123761"></path><path d="M119.378 168.35C132.558 168.35 143.244 157.682 143.244 144.523C143.244 131.363 132.558 120.695 119.378 120.695C106.197 120.695 95.5117 131.363 95.5117 144.523C95.5117 157.682 106.197 168.35 119.378 168.35Z" fill="white"></path><path d="M119.378 168.831C105.955 168.831 95.0312 157.927 95.0312 144.523C95.0312 131.119 105.955 120.214 119.378 120.214C132.801 120.214 143.725 131.119 143.725 144.523C143.725 157.927 132.801 168.831 119.378 168.831ZM119.378 121.171C106.483 121.171 95.9928 131.647 95.9928 144.518C95.9928 157.388 106.483 167.865 119.378 167.865C132.273 167.865 142.763 157.388 142.763 144.518C142.763 131.647 132.273 121.171 119.378 121.171Z" fill="#123761"></path><path d="M119.556 142.21C123.695 142.21 127.051 138.859 127.051 134.724C127.051 130.59 123.695 127.239 119.556 127.239C115.416 127.239 112.061 130.59 112.061 134.724C112.061 138.859 115.416 142.21 119.556 142.21Z" fill="#BBDFD8"></path><path d="M119.556 144.316C112.277 144.316 106.089 144.196 103.781 150.677C106.089 157.153 112.277 161.792 119.556 161.792C126.835 161.792 133.022 157.153 135.33 150.677C133.022 144.201 126.835 144.316 119.556 144.316Z" fill="#BBDFD8"></path><path d="M422.765 216.462L419.966 214.923C405.908 207.197 402.759 192.928 401.413 176.923L402.452 176.759C411.942 176.096 416.591 174.499 422.765 167.533C430.13 174.235 437.169 176.677 444.068 176.677L444.135 176.692C442.861 192.822 439.654 207.221 425.476 214.976L422.765 216.457V216.462Z" fill="white"></path><path d="M422.764 216.943C422.683 216.943 422.606 216.923 422.534 216.885L419.736 215.347C406.182 207.899 402.418 194.615 400.937 176.966C400.918 176.716 401.091 176.49 401.341 176.451L402.379 176.288C411.408 175.653 416.168 174.254 422.404 167.216C422.49 167.119 422.611 167.062 422.736 167.052C422.865 167.042 422.99 167.091 423.087 167.177C429.76 173.249 436.625 176.197 444.068 176.197C444.102 176.197 444.135 176.197 444.164 176.206L444.231 176.221C444.467 176.269 444.63 176.49 444.611 176.73C443.207 194.5 439.457 207.88 425.702 215.399L422.99 216.88C422.918 216.919 422.841 216.938 422.76 216.938L422.764 216.943ZM401.927 177.331C403.408 194.452 407.129 207.322 420.192 214.505L422.76 215.919L425.24 214.563C438.486 207.322 442.202 194.375 443.611 177.163C436.226 177.048 429.409 174.12 422.798 168.22C416.495 175.197 411.591 176.61 402.485 177.245L401.927 177.331Z" fill="#123761"></path><path d="M416.885 209.303C416.784 209.303 416.678 209.269 416.592 209.202C408.231 202.678 405.803 192.783 404.721 179.937C404.702 179.687 404.875 179.461 405.125 179.423L405.981 179.288C413.394 178.769 417.298 177.62 422.414 171.85C422.5 171.754 422.621 171.696 422.746 171.687C422.871 171.682 423 171.725 423.097 171.812C428.573 176.793 434.203 179.216 440.309 179.216C440.342 179.216 440.371 179.216 440.405 179.225L440.462 179.235C440.722 179.288 440.89 179.543 440.837 179.802C440.785 180.062 440.53 180.23 440.27 180.177H440.26C434.058 180.163 428.347 177.764 422.813 172.846C417.63 178.557 413.582 179.716 406.091 180.24L405.716 180.298C406.793 192.678 409.192 202.207 417.178 208.438C417.39 208.601 417.423 208.904 417.26 209.111C417.164 209.231 417.024 209.293 416.88 209.293L416.885 209.303Z" fill="#123761"></path><path d="M422.774 212.923C422.606 212.923 422.438 212.832 422.351 212.673C422.222 212.443 422.308 212.149 422.544 212.02L424.775 210.798C432.823 206.394 437.236 199.058 439.073 187.009C439.111 186.745 439.357 186.567 439.621 186.605C439.885 186.644 440.063 186.889 440.025 187.154C438.756 195.485 435.929 205.798 425.241 211.645L423.01 212.866C422.938 212.904 422.856 212.923 422.779 212.923H422.774Z" fill="#123761"></path><path d="M422.822 202.87C422.673 202.87 422.529 202.798 422.437 202.678L414.548 192.298C414.389 192.086 414.427 191.783 414.639 191.625C414.85 191.466 415.153 191.505 415.312 191.716L422.783 201.543L434.534 182.932C434.678 182.706 434.971 182.639 435.197 182.783C435.423 182.923 435.49 183.221 435.346 183.447L423.226 202.644C423.144 202.779 423 202.861 422.841 202.87C422.836 202.87 422.827 202.87 422.822 202.87Z" fill="#123761"></path><path d="M256.411 255.958C256.983 256.362 257.565 256.756 258.146 257.15C271.94 237.193 280.782 218.226 280.782 218.226C291.787 212.524 286.585 207.918 286.585 207.918C289.061 201.947 284.109 200.649 284.109 200.649C283.738 192.952 274.286 197.635 274.286 197.635C280.911 190.452 287.859 175.197 269.608 189.202C258.935 197.389 244.468 213.289 231.415 227.563C237.103 238.972 246.036 248.631 256.406 255.958H256.411Z" fill="white"></path><path d="M258.146 257.631C258.055 257.631 257.958 257.602 257.877 257.549C257.29 257.155 256.708 256.756 256.132 256.352C245.126 248.573 236.429 238.693 230.987 227.78C230.9 227.602 230.929 227.385 231.064 227.241L231.972 226.246C244.574 212.467 258.858 196.846 269.319 188.822C275.949 183.735 279.863 182.014 281.286 183.572C283.055 185.509 279.536 192.024 275.945 196.457C277.767 195.846 280.531 195.259 282.464 196.394C283.709 197.125 284.416 198.437 284.575 200.303C285.2 200.543 286.541 201.207 287.277 202.678C287.969 204.072 287.926 205.798 287.152 207.813C287.599 208.318 288.483 209.568 288.262 211.322C287.95 213.827 285.56 216.27 281.151 218.582C280.286 220.404 271.565 238.592 258.545 257.429C258.454 257.564 258.3 257.636 258.151 257.636L258.146 257.631ZM231.996 227.64C237.376 238.294 245.91 247.948 256.689 255.564C257.132 255.876 257.574 256.179 258.021 256.482C271.478 236.929 280.262 218.207 280.348 218.02C280.392 217.924 280.469 217.847 280.565 217.799C284.709 215.649 287.041 213.371 287.31 211.197C287.531 209.414 286.286 208.284 286.272 208.274C286.118 208.14 286.07 207.918 286.147 207.731C286.921 205.861 287.012 204.303 286.416 203.101C285.651 201.563 284.012 201.12 283.998 201.115C283.796 201.063 283.651 200.885 283.637 200.673C283.555 198.976 282.998 197.817 281.983 197.216C279.387 195.687 274.56 198.038 274.512 198.062C274.305 198.168 274.055 198.106 273.916 197.918C273.776 197.731 273.791 197.476 273.949 197.303C278.315 192.572 281.848 185.596 280.584 184.211C280.228 183.822 278.411 183.057 269.916 189.577C259.526 197.548 245.271 213.135 232.693 226.89L232.006 227.64H231.996Z" fill="#123761"></path><path d="M260.199 220.275C259.776 220.275 259.338 220.207 258.91 220.063C258.66 219.976 258.526 219.707 258.607 219.452C258.694 219.202 258.963 219.068 259.218 219.15C260.872 219.712 262.603 218.712 263.579 217.683C264.526 216.688 265.165 215.467 265.843 214.178C266.011 213.856 266.18 213.534 266.353 213.217C267.151 211.755 268.305 209.962 270.122 209.068C270.987 208.644 271.92 208.457 272.819 208.279C273.218 208.202 273.627 208.12 274.016 208.019C275.026 207.76 276.329 207.221 276.805 206.106C277.415 204.692 276.281 202.938 274.863 202.317C273.314 201.639 271.492 201.846 269.752 202.173C264.925 203.072 260.785 204.644 257.453 206.842C257.232 206.991 256.934 206.928 256.785 206.707C256.641 206.486 256.699 206.188 256.92 206.039C260.357 203.769 264.617 202.154 269.569 201.231C271.463 200.88 273.459 200.659 275.242 201.442C277.079 202.245 278.536 204.519 277.685 206.491C277.05 207.962 275.468 208.64 274.247 208.952C273.834 209.058 273.411 209.14 273.002 209.221C272.122 209.394 271.29 209.558 270.54 209.928C268.963 210.702 267.92 212.337 267.189 213.673C267.016 213.986 266.853 214.303 266.684 214.621C266.007 215.914 265.305 217.25 264.261 218.342C263.333 219.318 261.814 220.265 260.184 220.265L260.199 220.275Z" fill="#123761"></path><path d="M272.718 212.726C272.406 212.726 272.089 212.693 271.771 212.606C270.569 212.279 269.487 211.044 269.795 209.717C269.858 209.457 270.117 209.298 270.372 209.356C270.632 209.418 270.79 209.673 270.733 209.933C270.555 210.683 271.266 211.467 272.021 211.673C272.752 211.87 273.617 211.741 274.752 211.265C278.718 209.592 281.743 205.938 282.637 201.726C282.695 201.466 282.949 201.303 283.209 201.356C283.469 201.409 283.632 201.668 283.579 201.928C282.618 206.442 279.382 210.361 275.127 212.154C274.497 212.419 273.632 212.726 272.718 212.726Z" fill="#123761"></path><path d="M277.478 214.322C277.069 214.322 276.694 214.265 276.338 214.154C275.271 213.813 274.497 212.89 274.463 211.909C274.454 211.645 274.66 211.419 274.925 211.414C275.189 211.404 275.41 211.611 275.42 211.875C275.444 212.529 276.045 213.053 276.622 213.241C277.213 213.428 277.92 213.404 278.848 213.159C281.454 212.471 283.737 210.755 285.117 208.443C285.252 208.217 285.545 208.14 285.776 208.274C286.002 208.409 286.079 208.707 285.944 208.933C284.439 211.457 281.939 213.337 279.098 214.087C278.492 214.246 277.958 214.327 277.473 214.327L277.478 214.322Z" fill="#123761"></path><path d="M280.593 217.347C279.863 217.347 279.127 217.053 278.617 216.524C277.935 215.808 277.69 214.702 278.016 213.77C278.103 213.52 278.377 213.385 278.627 213.476C278.877 213.563 279.012 213.837 278.92 214.087C278.709 214.688 278.863 215.399 279.305 215.861C279.747 216.323 280.454 216.505 281.06 216.323C281.315 216.246 281.584 216.39 281.661 216.645C281.738 216.899 281.593 217.169 281.339 217.246C281.093 217.318 280.839 217.356 280.584 217.356L280.593 217.347Z" fill="#123761"></path><path d="M72.1948 373.028C84.8201 373.572 111.763 377.658 131.408 377.322C143.922 377.105 152.086 373.759 153.711 361.35C155.639 346.609 159.692 325.469 168.207 301.695C180.938 304.695 210.655 305.839 230.79 289.411C243.848 278.757 258.757 261.626 269.392 239.477C258.877 237.535 248.814 230.64 239.165 219.111C239.165 219.111 219.309 238.636 207.323 249.251C202.866 253.198 196.986 255.141 191.058 254.641C176.592 253.424 149.5 251.16 144.12 250.833C129.691 249.963 104.306 249.275 81.9739 253.035C74.2525 254.333 67.6851 259.376 64.4302 266.492C58.4685 279.516 48.4298 301.945 41.6316 319.724C37.0738 331.647 39.944 343.003 57.1079 351.864C57.1079 351.864 63.8532 355.191 64.6273 365.648C65.1706 372.99 64.8437 372.706 72.1996 373.023L72.1948 373.028Z" fill="white"></path><path d="M129.076 377.822C116.917 377.822 102.286 376.322 90.392 375.105C83.0553 374.355 76.7138 373.706 72.1752 373.509L71.4204 373.475C64.8769 373.201 64.675 373.009 64.2086 366.538L64.1461 365.691C63.4057 355.658 56.9585 352.335 56.8912 352.302C41.2466 344.225 35.958 333.205 41.1792 319.561C48.0881 301.483 58.4345 278.435 63.9875 266.3C67.3145 259.03 74.007 253.896 81.887 252.569C104.604 248.746 130.643 249.544 144.143 250.362C149.456 250.684 175.841 252.886 191.096 254.17C196.875 254.66 202.674 252.737 207.005 248.9C218.842 238.414 238.631 218.972 238.833 218.775C238.929 218.678 239.059 218.63 239.194 218.635C239.328 218.64 239.453 218.702 239.54 218.808C249.175 230.323 259.252 237.121 269.488 239.011C269.637 239.039 269.762 239.131 269.829 239.265C269.896 239.4 269.896 239.554 269.829 239.693C257.127 266.151 240.112 282.435 231.097 289.791C222.261 297.002 210.395 301.68 196.784 303.32C182.793 305.007 172.062 303.06 168.519 302.262C159.922 326.388 155.98 347.73 154.187 361.417C153.393 367.494 151.009 371.716 146.898 374.317C143.336 376.576 138.412 377.682 131.412 377.802C130.643 377.817 129.864 377.822 129.076 377.822ZM121.84 250.645C109.527 250.645 95.219 251.299 82.0408 253.521C74.4733 254.795 68.0501 259.723 64.8529 266.704C59.3047 278.824 48.9679 301.858 42.0687 319.907C36.982 333.205 41.9725 343.523 57.3191 351.451C57.5979 351.585 64.3144 355.018 65.0981 365.624L65.1606 366.475C65.3769 369.466 65.4827 370.966 66.1943 371.648C66.9058 372.336 68.4251 372.398 71.454 372.523L72.2136 372.557C76.7859 372.754 83.137 373.403 90.4881 374.158C103.133 375.451 118.873 377.067 131.398 376.85C145.494 376.61 151.821 372.105 153.235 361.297C155.043 347.484 159.028 325.907 167.754 301.541C167.836 301.31 168.081 301.18 168.317 301.233C183.048 304.704 211.765 304.32 230.487 289.045C239.372 281.795 256.098 265.795 268.685 239.838C258.555 237.775 248.617 231.044 239.126 219.823C236.343 222.549 218.592 239.91 207.635 249.617C203.111 253.626 197.053 255.636 191.01 255.126C175.759 253.843 149.384 251.641 144.081 251.323C138.46 250.982 130.662 250.645 121.84 250.645Z" fill="#123761"></path><path d="M148.898 271.819L147.648 255.944L110.143 247.871L41.9727 399.394L108.046 399.288L148.898 271.819Z" fill="white"></path><path d="M103.166 247.871C74.0211 247.871 47.3907 254.573 32.4576 281.531C21.967 300.464 9.80806 323.82 0.634766 342.162V399.115H50.9052L112.772 248.41C112.161 248.251 103.791 247.871 103.166 247.871Z" fill="white"></path><path d="M50.9003 399.596C50.8378 399.596 50.7753 399.587 50.7176 399.558C50.4724 399.457 50.357 399.178 50.458 398.928L112.089 248.804C110.108 248.636 103.834 248.347 103.171 248.347C67.8478 248.347 45.5107 258.963 32.8806 281.757C23.2506 299.137 11.3513 321.806 1.05293 342.398C0.932737 342.633 0.644268 342.734 0.408686 342.614C0.173103 342.494 0.0769468 342.205 0.192334 341.97C10.5003 321.368 22.4044 298.685 32.0393 281.295C39.1067 268.54 49.006 259.66 62.2996 254.15C73.2662 249.602 86.6367 247.391 103.166 247.391C103.642 247.391 112.2 247.761 112.892 247.943C113.027 247.977 113.137 248.068 113.2 248.193C113.262 248.318 113.267 248.463 113.214 248.593L51.3474 399.298C51.2705 399.486 51.0926 399.596 50.9051 399.596H50.9003Z" fill="#123761"></path><path d="M124.364 347.177C129.71 348.681 135.052 350.186 140.398 351.691C140.701 344.979 140.898 338.104 140.985 331.075C141.158 316.681 140.831 302.897 140.124 289.786C141.956 286.872 143.783 283.954 145.615 281.04C142.518 276.261 139.427 271.482 136.331 266.704L124.35 278.146C126.431 282.175 128.518 286.209 130.6 290.238C129.576 307.825 127.633 326.902 124.364 347.181V347.177Z" fill="#92DBAC"></path><path d="M59.5928 399.394L169.595 337.638H378.447L494.589 399.288L59.5928 399.394Z" fill="white"></path><path d="M59.5932 399.875C59.425 399.875 59.2615 399.788 59.175 399.63C59.0452 399.399 59.1269 399.106 59.3577 398.976L169.36 337.22C169.432 337.181 169.514 337.157 169.596 337.157H378.442C378.519 337.157 378.596 337.176 378.668 337.215L494.815 398.865C495.051 398.99 495.137 399.279 495.012 399.514C494.887 399.75 494.599 399.837 494.363 399.712L378.322 338.119H169.721L59.8288 399.817C59.7567 399.861 59.675 399.88 59.5932 399.88V399.875Z" fill="#123761"></path><path d="M423.977 368.783H318.09L274.819 345.21H380.706L423.977 368.783Z" fill="white"></path><path d="M423.977 369.264H318.09C318.008 369.264 317.931 369.244 317.859 369.206L274.589 345.633C274.397 345.528 274.3 345.306 274.353 345.095C274.406 344.883 274.598 344.734 274.82 344.734H380.707C380.788 344.734 380.865 344.754 380.938 344.792L424.208 368.365C424.4 368.47 424.496 368.692 424.443 368.903C424.391 369.115 424.198 369.264 423.977 369.264ZM318.215 368.302H422.088L380.582 345.691H276.709L318.215 368.302Z" fill="#123761"></path><path d="M27.8187 312.243L12.7847 350.629C6.80382 365.893 17.982 382.418 34.367 382.533C58.2618 382.697 87.9837 382.875 110.561 382.851C112.96 366.893 120.066 351.523 124.355 343.186C91.4068 342.71 60.0503 341.696 60.0503 341.696L78.6228 296.19L27.8187 312.248V312.243Z" fill="white"></path><path d="M106.354 383.336C83.4736 383.336 54.5787 383.153 34.3571 383.014C26.3905 382.961 19.2606 379.144 14.7941 372.543C10.318 365.937 9.42379 357.884 12.3325 350.451L27.3665 312.065C27.4627 311.815 27.7463 311.695 27.9867 311.791C28.2319 311.887 28.3569 312.166 28.2608 312.416L13.2268 350.802C10.4334 357.932 11.294 365.663 15.5874 372.004C19.876 378.336 26.7175 382 34.3619 382.052C55.7134 382.202 86.743 382.394 110.138 382.37C112.407 367.768 118.604 353.393 123.566 343.653C91.2719 343.177 60.3385 342.181 60.026 342.172C59.8673 342.167 59.7231 342.085 59.6365 341.951C59.55 341.821 59.5356 341.652 59.5933 341.508L78.1658 296.002C78.2668 295.757 78.5456 295.637 78.7908 295.738C79.036 295.839 79.1562 296.118 79.0553 296.363L60.7423 341.229C65.5357 341.378 94.4595 342.268 124.345 342.701C124.513 342.701 124.662 342.792 124.749 342.936C124.835 343.08 124.84 343.253 124.763 343.403C119.734 353.172 113.263 367.961 111.018 382.918C110.984 383.153 110.782 383.327 110.542 383.327C109.167 383.327 107.763 383.327 106.34 383.327L106.354 383.336Z" fill="#123761"></path><path d="M48.6696 342.927C48.4148 342.927 48.1984 342.725 48.1888 342.465C48.1792 342.201 48.3859 341.975 48.6503 341.965L56.7419 341.648C57.0015 341.633 57.2323 341.845 57.2419 342.109C57.2515 342.374 57.0448 342.6 56.7803 342.609L48.6888 342.927C48.6888 342.927 48.6744 342.927 48.6696 342.927Z" fill="#123761"></path><path d="M109.845 382.855C109.845 382.855 109.229 367.398 109.383 358.162C109.532 348.931 115.128 343.177 115.128 343.177H123.571C140.552 343.177 154.254 357.057 154.033 374.038L153.399 382.798L109.845 382.855Z" fill="white"></path><path d="M106.96 383.336C106.696 383.336 106.479 383.12 106.479 382.855C106.479 382.591 106.696 382.375 106.96 382.375L152.952 382.317L153.553 374.004C153.654 365.951 150.586 358.331 144.908 352.581C139.23 346.83 131.653 343.662 123.571 343.662L114.119 343.508C113.855 343.508 113.643 343.287 113.648 343.018C113.648 342.753 113.869 342.547 114.129 342.547H114.138L123.581 342.701C131.913 342.701 139.735 345.97 145.596 351.908C151.457 357.845 154.625 365.706 154.519 374.047L153.88 382.836C153.86 383.086 153.654 383.283 153.399 383.283L106.965 383.341L106.96 383.336Z" fill="#123761"></path><path d="M131.206 378.894C131.206 378.894 131.158 378.894 131.134 378.889C130.87 378.85 130.692 378.605 130.73 378.346C131.047 376.163 130.533 373.735 129.283 371.509C128.23 369.634 126.667 367.865 124.514 366.1C124.11 365.768 123.672 365.427 123.191 365.216C122.946 365.11 122.836 364.826 122.941 364.581C123.047 364.336 123.331 364.225 123.576 364.331C124.172 364.591 124.667 364.975 125.119 365.35C127.369 367.192 129.004 369.052 130.119 371.033C131.475 373.447 132.028 376.091 131.677 378.48C131.644 378.721 131.437 378.894 131.201 378.894H131.206Z" fill="#123761"></path><path d="M141.178 378.322C140.942 378.322 140.735 378.149 140.702 377.908C140.327 375.278 139.793 372.206 138.649 369.336C137.466 366.379 135.735 363.965 133.644 362.355C133.432 362.191 133.394 361.893 133.557 361.682C133.716 361.47 134.019 361.432 134.23 361.595C136.461 363.307 138.298 365.865 139.543 368.98C140.726 371.942 141.274 375.086 141.658 377.774C141.697 378.038 141.514 378.278 141.25 378.317C141.226 378.317 141.207 378.317 141.182 378.317L141.178 378.322Z" fill="#123761"></path><path d="M149.168 378.322C149.168 378.322 149.13 378.322 149.11 378.322C148.846 378.288 148.658 378.052 148.692 377.788C150.029 366.6 142.711 359.648 142.634 359.581C142.437 359.398 142.427 359.095 142.61 358.903C142.793 358.711 143.096 358.696 143.288 358.879C143.365 358.951 151.038 366.24 149.644 377.903C149.615 378.149 149.408 378.326 149.168 378.326V378.322Z" fill="#123761"></path><path d="M105.806 380.788C105.585 380.788 105.383 380.634 105.335 380.403C104.128 374.6 104.138 368.475 105.359 362.696C106.691 356.408 109.475 350.383 113.417 345.278C113.58 345.066 113.879 345.028 114.09 345.191C114.302 345.354 114.34 345.657 114.177 345.864C110.321 350.859 107.6 356.749 106.297 362.893C105.099 368.543 105.09 374.528 106.273 380.206C106.325 380.466 106.157 380.721 105.898 380.774C105.864 380.778 105.83 380.783 105.801 380.783L105.806 380.788Z" fill="#123761"></path><path d="M238.621 389.918H113.753C113.013 389.918 112.272 389.731 111.666 389.307C110.239 388.327 109.743 386.572 110.306 385.062C111.777 381.976 114.82 380.889 119.321 380.889H246.814L245.16 385.384C244.141 388.11 241.535 389.918 238.621 389.918Z" fill="#123761"></path><path d="M239.328 389.918C241.823 389.918 244.069 388.399 244.996 386.077L267.103 330.623C267.689 329.152 267.507 327.484 266.617 326.176C265.728 324.864 264.247 324.08 262.66 324.08H185.918C181.293 324.08 177.173 326.993 175.629 331.349L154.879 389.918H239.328Z" fill="#123761"></path><path d="M241.122 381.913H165.038C164.774 381.913 164.558 381.697 164.558 381.432C164.558 381.168 164.774 380.951 165.038 380.951H241.122C241.386 380.951 241.603 381.168 241.603 381.432C241.603 381.697 241.386 381.913 241.122 381.913Z" fill="white"></path><path d="M146.239 287.617L135.921 271.204L125.44 289.055L102.281 259.054L112.772 248.41L141.407 250.621L150.138 261.949L146.239 287.617Z" fill="white"></path><path d="M125.441 289.536C125.292 289.536 125.152 289.469 125.061 289.348L101.902 259.348C101.752 259.155 101.772 258.886 101.94 258.718L112.426 248.073C112.527 247.972 112.661 247.919 112.806 247.929L141.446 250.141C141.58 250.15 141.705 250.218 141.787 250.328L150.518 261.651C150.6 261.756 150.633 261.886 150.614 262.016L146.715 287.69C146.686 287.887 146.537 288.045 146.34 288.089C146.138 288.132 145.941 288.045 145.835 287.872L143.455 284.084C143.316 283.858 143.383 283.565 143.604 283.42C143.83 283.281 144.124 283.348 144.268 283.569L145.96 286.262L149.633 262.074L141.157 251.083L112.955 248.905L102.921 259.093L125.388 288.199L127.445 284.69C127.58 284.459 127.873 284.382 128.104 284.516C128.335 284.651 128.412 284.944 128.277 285.175L125.859 289.3C125.777 289.44 125.633 289.526 125.474 289.536C125.465 289.536 125.455 289.536 125.445 289.536H125.441Z" fill="#123761"></path><path d="M147.825 241.4L136.33 266.704L117.046 248.746L127.921 225.659C127.921 225.659 141.599 231.751 147.825 241.405V241.4Z" fill="white"></path><path d="M136.33 267.179C136.209 267.179 136.089 267.136 136.003 267.05L116.714 249.093C116.56 248.948 116.517 248.727 116.608 248.535L127.483 225.448C127.594 225.212 127.873 225.106 128.113 225.212C128.253 225.275 141.993 231.477 148.229 241.136C148.316 241.275 148.33 241.448 148.263 241.597L136.767 266.901C136.705 267.04 136.575 267.141 136.426 267.175C136.392 267.18 136.363 267.184 136.33 267.184V267.179ZM117.632 248.626L136.171 265.891L147.282 241.438C141.758 233.083 130.483 227.4 128.152 226.289L117.632 248.626Z" fill="#123761"></path><path d="M116.248 216.183C114.262 212.856 112.483 209.188 112.603 205.313C112.724 201.438 115.334 197.399 119.18 196.885C118.123 192.423 119.906 187.418 123.546 184.625C127.185 181.836 132.484 181.413 136.517 183.591C140.931 178.528 148.811 177.134 154.96 179.831C161.109 182.528 165.321 188.86 166.071 195.534C166.393 198.399 166.105 201.423 164.677 203.933C162.682 207.447 158.71 209.471 154.72 210.096C152.446 210.452 149.864 210.539 148.321 212.245C147.364 213.303 147.032 214.77 146.575 216.121C144.96 220.904 141.263 224.948 136.638 226.981C132.873 228.635 126.373 229.621 122.647 227.231C121.205 226.308 120.935 224.544 120.233 223.058C119.099 220.659 117.613 218.448 116.257 216.178L116.248 216.183Z" fill="#123761"></path><path d="M160.6 218.808C162.432 225.135 163.081 232.357 159.624 237.962C156.614 242.847 150.576 245.669 144.898 244.847C139.22 244.025 134.229 239.607 132.724 234.068C127.344 234.015 122.214 230.188 120.633 225.044C120.037 223.111 120.07 220.664 121.695 219.467C123.556 218.097 126.138 219.183 128.272 220.082C130.402 220.981 132.008 222.573 133.138 220.553C132.335 215.457 128.421 206.793 135.912 204.269C138.7 203.327 154.287 200.649 154.287 200.649C154.287 200.649 159.619 215.399 160.605 218.808H160.6Z" fill="white"></path><path d="M146.859 245.467C146.181 245.467 145.498 245.419 144.825 245.323C139.094 244.491 134.017 240.083 132.359 234.539C126.878 234.323 121.791 230.438 120.176 225.188C119.546 223.14 119.541 220.462 121.416 219.082C123.498 217.548 126.248 218.707 128.46 219.64C128.96 219.851 129.412 220.087 129.854 220.318C131.455 221.154 132.065 221.371 132.638 220.462C132.489 219.577 132.253 218.587 131.998 217.534C130.835 212.673 129.238 206.015 135.758 203.813C138.546 202.87 153.566 200.284 154.205 200.178C154.431 200.139 154.662 200.269 154.739 200.49C154.955 201.091 160.085 215.294 161.066 218.678C163.403 226.746 163.057 233.323 160.037 238.217C157.292 242.669 152.08 245.472 146.864 245.472L146.859 245.467ZM123.82 219.294C123.152 219.294 122.527 219.452 121.983 219.851C120.512 220.938 120.584 223.251 121.094 224.904C122.628 229.885 127.522 233.534 132.729 233.587C132.945 233.587 133.133 233.736 133.186 233.943C134.638 239.289 139.479 243.578 144.965 244.371C150.446 245.165 156.306 242.424 159.215 237.708C162.085 233.049 162.398 226.736 160.143 218.938C159.258 215.885 154.811 203.519 153.975 201.188C151.527 201.611 138.542 203.885 136.066 204.721C130.378 206.64 131.739 212.308 132.936 217.308C133.21 218.443 133.465 219.515 133.614 220.476C133.633 220.582 133.614 220.693 133.556 220.784C132.45 222.755 130.83 221.909 129.402 221.164C128.979 220.943 128.541 220.717 128.085 220.52C126.686 219.933 125.166 219.289 123.82 219.289V219.294Z" fill="#123761"></path><path d="M130.604 227.707C130.469 227.707 130.335 227.65 130.238 227.544C129.08 226.207 127.258 225.472 125.503 225.626C125.219 225.654 125.003 225.453 124.983 225.188C124.959 224.924 125.157 224.688 125.421 224.669C127.488 224.486 129.613 225.352 130.969 226.914C131.142 227.116 131.123 227.419 130.921 227.592C130.83 227.669 130.719 227.707 130.604 227.707Z" fill="#123761"></path><path d="M154.538 217.851C155.129 220.851 157.663 222.876 160.192 222.376C162.72 221.876 164.293 219.039 163.701 216.044C163.11 213.048 160.576 211.02 158.047 211.52C155.518 212.02 153.946 214.856 154.538 217.851Z" fill="white"></path><path d="M159.422 222.928C156.941 222.928 154.639 220.861 154.066 217.943C153.422 214.688 155.167 211.596 157.956 211.044C159.321 210.774 160.725 211.145 161.903 212.092C163.062 213.015 163.865 214.385 164.177 215.947C164.821 219.202 163.076 222.294 160.288 222.847C159.999 222.904 159.711 222.933 159.427 222.933L159.422 222.928ZM158.821 211.923C158.595 211.923 158.365 211.947 158.139 211.991C155.874 212.438 154.465 215.024 155.009 217.76C155.547 220.491 157.826 222.351 160.1 221.904C162.365 221.457 163.773 218.871 163.23 216.135C162.966 214.798 162.283 213.63 161.302 212.846C160.547 212.241 159.687 211.928 158.821 211.928V211.923Z" fill="#123761"></path><path d="M145.061 225.751C142.412 225.751 139.999 223.722 139.431 220.832C138.787 217.577 140.725 214.447 143.744 213.851C146.763 213.255 149.744 215.419 150.383 218.669C150.691 220.236 150.422 221.827 149.614 223.14C148.802 224.467 147.542 225.361 146.071 225.65C145.734 225.717 145.398 225.751 145.061 225.751ZM144.749 214.717C144.475 214.717 144.201 214.741 143.927 214.798C141.427 215.294 139.835 217.919 140.374 220.65C140.912 223.38 143.383 225.203 145.883 224.712C147.085 224.477 148.119 223.741 148.792 222.645C149.47 221.534 149.701 220.193 149.436 218.861C148.956 216.428 146.946 214.721 144.749 214.721V214.717Z" fill="#123761"></path><path d="M149.907 219.246C149.82 219.246 149.739 219.222 149.657 219.178C149.431 219.039 149.359 218.746 149.493 218.52C150.219 217.318 151.094 216.645 152.104 216.515C153.619 216.318 154.816 217.462 154.864 217.51C155.056 217.698 155.056 218 154.873 218.188C154.691 218.375 154.383 218.38 154.196 218.198C154.176 218.178 153.268 217.327 152.219 217.467C151.518 217.558 150.878 218.082 150.316 219.015C150.224 219.164 150.066 219.246 149.902 219.246H149.907Z" fill="#123761"></path><path d="M139.902 221.222C139.902 221.222 139.869 221.222 139.849 221.222L130.561 220.217C130.296 220.188 130.104 219.952 130.133 219.688C130.162 219.424 130.402 219.231 130.662 219.26L139.95 220.265C140.215 220.294 140.407 220.529 140.378 220.794C140.349 221.039 140.143 221.222 139.902 221.222Z" fill="#123761"></path><path d="M483.176 136.494C483.955 131.979 491.431 128.633 495.363 126.272C504.143 120.993 510.955 116.262 521.186 116.892C532.912 117.618 542.893 126.532 548.076 137.051C551.504 144.013 553.245 151.97 551.932 159.619C551.735 160.759 551.461 161.884 551.12 162.994C552.942 163.196 554.75 163.533 556.5 163.961C559.764 164.754 563 165.802 566.101 167.091C569.404 168.461 572.639 170.254 575.135 172.855C577.197 175.004 578.62 177.629 579.293 180.528C579.918 183.23 579.909 186.053 579.462 188.783C578.49 194.759 575.601 200.51 571.649 205.077C569.519 207.543 566.961 209.678 564.009 211.101C561.187 212.462 558.057 213.068 554.927 212.967C548.355 212.755 542.288 209.572 537.687 205.01C535.134 202.476 532.98 199.558 531.196 196.437C529.619 193.673 528.331 190.716 527.576 187.62C527.008 185.288 526.778 182.841 526.946 180.437C523.114 180.216 519.297 179.192 515.859 177.495C508.796 174.004 504.816 168.446 499.998 162.571C495.633 157.244 495.013 156.384 488.979 152.408C485.897 150.379 482.007 143.229 483.171 136.498L483.176 136.494Z" fill="#123761"></path><path d="M451.56 399.529L470.488 317.705L553.677 334.59C567.216 352.456 574.894 379.774 579.14 399.529H451.564H451.56Z" fill="white"></path><path d="M579.183 400C578.962 400 578.76 399.846 578.712 399.62C572.524 370.821 564.009 349.09 553.399 335.027L470.844 318.272L451.925 399.615C451.867 399.875 451.603 400.034 451.348 399.976C451.088 399.918 450.93 399.659 450.987 399.399L470.012 317.599C470.07 317.344 470.324 317.186 470.574 317.238L553.764 334.123C553.879 334.147 553.98 334.21 554.052 334.306C564.793 348.48 573.409 370.389 579.644 399.423C579.702 399.683 579.534 399.938 579.274 399.995C579.24 400.005 579.207 400.005 579.173 400.005L579.183 400Z" fill="#123761"></path><path d="M525.523 167.427L546.043 208.88C546.043 208.88 524.066 297.411 506.35 296.272C488.633 295.132 490.397 215.505 503.599 209.293L513.061 207.846L505.34 175.514L525.528 167.432L525.523 167.427Z" fill="white"></path><path d="M509.552 208.967C509.326 208.967 509.124 208.803 509.081 208.572C509.033 208.313 509.206 208.063 509.465 208.015L512.47 207.462L504.864 175.624C504.802 175.365 504.96 175.105 505.22 175.043C505.48 174.985 505.739 175.139 505.802 175.398L513.523 207.731C513.552 207.861 513.528 207.995 513.461 208.106C513.388 208.217 513.273 208.293 513.143 208.317L509.638 208.962C509.61 208.967 509.581 208.971 509.552 208.971V208.967Z" fill="#123761"></path><path d="M488.628 154.143C487.734 158.999 487.71 164.11 489.354 168.764C490.998 173.418 494.46 177.567 499.08 179.331C503.085 180.86 507.672 180.495 511.628 178.841C515.585 177.192 518.956 174.341 521.706 171.057C525.932 172.557 531.081 170.807 533.514 167.047C534.918 164.879 535.413 161.994 534.264 159.682C533.115 157.369 530.1 155.985 527.759 157.086C526.427 157.715 525.475 158.994 524.119 159.571C522.605 160.211 520.797 159.831 519.432 158.917C518.066 158.004 517.085 156.619 516.306 155.177C513.845 150.633 513.109 145.181 514.282 140.152C514.172 140.628 511.638 141.345 511.186 141.499C510.052 141.883 508.883 142.162 507.696 142.35C505.359 142.71 502.965 142.686 500.638 142.282C499.455 142.076 498.292 141.777 497.162 141.374C496.263 141.056 495.099 140.21 494.143 140.2C492.142 140.176 491.546 143.816 491.065 145.22C490.061 148.138 489.176 151.105 488.613 154.143H488.628Z" fill="white"></path><path d="M504.527 180.778C502.561 180.778 500.652 180.447 498.907 179.783C494.44 178.076 490.695 174.019 488.897 168.927C487.378 164.624 487.128 159.624 488.152 154.057C488.637 151.403 489.426 148.547 490.618 145.061C490.7 144.826 490.787 144.518 490.878 144.181C491.378 142.402 492.128 139.72 494.128 139.72H494.152C494.888 139.729 495.638 140.109 496.364 140.475C496.715 140.652 497.041 140.821 497.325 140.922C498.417 141.306 499.561 141.604 500.724 141.806C503.018 142.205 505.34 142.225 507.628 141.869C508.792 141.686 509.941 141.407 511.037 141.037C511.104 141.013 511.21 140.979 511.349 140.936C513.128 140.383 513.691 140.1 513.845 139.955C513.936 139.744 514.167 139.624 514.398 139.676C514.657 139.739 514.816 139.994 514.758 140.253C513.614 145.157 514.335 150.508 516.734 154.941C517.653 156.634 518.595 157.768 519.705 158.513C521.056 159.417 522.682 159.653 523.936 159.124C524.576 158.855 525.129 158.403 525.715 157.922C526.283 157.456 526.864 156.98 527.561 156.648C530.042 155.48 533.379 156.792 534.701 159.465C535.85 161.788 535.552 164.792 533.922 167.307C531.446 171.129 526.206 172.98 521.864 171.615C518.811 175.197 515.431 177.778 511.816 179.283C509.436 180.274 506.941 180.774 504.527 180.774V180.778ZM489.099 154.23C488.109 159.629 488.344 164.465 489.806 168.605C491.512 173.437 495.041 177.278 499.248 178.884C502.912 180.278 507.354 180.105 511.441 178.403C514.994 176.923 518.326 174.35 521.335 170.754C521.465 170.6 521.677 170.543 521.864 170.61C525.864 172.028 530.807 170.35 533.11 166.792C534.533 164.59 534.821 161.889 533.836 159.898C532.754 157.715 529.956 156.586 527.965 157.523C527.379 157.802 526.864 158.22 526.321 158.667C525.71 159.167 525.076 159.691 524.307 160.013C522.754 160.667 520.782 160.403 519.167 159.316C517.922 158.48 516.878 157.239 515.883 155.403C513.556 151.109 512.739 145.989 513.58 141.176C513.114 141.374 512.479 141.59 511.628 141.854C511.499 141.893 511.398 141.926 511.34 141.946C510.191 142.335 508.989 142.624 507.772 142.816C505.383 143.186 502.955 143.162 500.556 142.749C499.34 142.537 498.142 142.225 497.003 141.821C496.662 141.701 496.301 141.518 495.926 141.326C495.301 141.008 494.652 140.676 494.142 140.672H494.128C492.854 140.672 492.219 142.936 491.801 144.431C491.7 144.792 491.609 145.114 491.522 145.364C490.344 148.802 489.57 151.614 489.089 154.22L489.099 154.23Z" fill="#123761"></path><path d="M523.124 167.11C523.057 167.11 522.984 167.095 522.922 167.062C522.682 166.951 522.581 166.663 522.691 166.422C523.778 164.115 526.321 162.586 528.874 162.715C529.138 162.73 529.345 162.956 529.331 163.22C529.316 163.485 529.081 163.687 528.826 163.677C526.667 163.571 524.489 164.865 523.561 166.831C523.48 167.004 523.307 167.105 523.124 167.105V167.11Z" fill="#123761"></path><path d="M490.345 290.954H553.5V215.313H490.345V290.954Z" fill="white"></path><path d="M565.86 343.96C574.528 339.45 580.005 330.614 584.158 321.782C593.913 301.031 598.644 278.031 598.572 255.112C598.534 243.746 598.207 226.664 591.548 217.443C584.341 207.462 546.975 205.039 544.085 206.635C538.441 209.755 500.123 309.137 497.906 307.743C496.426 306.81 512.315 211.51 512.315 207.293C502.695 207.428 485.161 208.818 478.281 212.875C470.891 217.231 455.607 255.362 451.376 279.781C450.242 286.319 450.088 313.806 455.612 318.902C457.401 320.551 459.098 322.027 460.583 323.267C463.401 325.628 467.093 326.614 470.737 326.114C490.8 323.359 539.33 339.056 543.436 342.378C549.619 347.379 558.951 347.556 565.865 343.965L565.86 343.96Z" fill="#92DBAC"></path><path d="M493.484 278.06C493.263 278.06 493.061 277.906 493.013 277.68L486.666 247.703C486.623 247.506 486.71 247.299 486.883 247.193L500.205 238.987L490.945 232.058C490.753 231.914 490.695 231.65 490.811 231.443L503.171 209.063C503.301 208.832 503.59 208.745 503.825 208.875C504.056 209.005 504.143 209.298 504.013 209.529L491.854 231.544L501.345 238.645C501.474 238.741 501.542 238.895 501.537 239.054C501.532 239.212 501.445 239.357 501.311 239.443L487.676 247.842L493.955 277.487C494.008 277.747 493.844 278.002 493.585 278.06C493.551 278.064 493.517 278.069 493.484 278.069V278.06Z" fill="#123761"></path><path d="M524.658 280.968C524.571 280.968 524.484 280.944 524.408 280.896C524.182 280.757 524.109 280.463 524.249 280.233L539.975 254.597L530.076 243.424C529.965 243.299 529.927 243.126 529.975 242.963C530.023 242.804 530.153 242.679 530.316 242.64L547.865 238.236V211.856C547.865 211.592 548.081 211.375 548.346 211.375C548.61 211.375 548.826 211.592 548.826 211.856V238.612C548.826 238.833 548.677 239.025 548.461 239.078L531.316 243.381L540.927 254.227C541.067 254.386 541.086 254.617 540.975 254.799L525.061 280.742C524.97 280.891 524.811 280.973 524.653 280.973L524.658 280.968Z" fill="#123761"></path><path d="M547.427 295.574C547.379 295.574 547.331 295.565 547.283 295.55C547.028 295.469 546.889 295.199 546.971 294.945C550.206 284.81 556.49 259.646 558.591 244.804C558.63 244.54 558.87 244.357 559.134 244.395C559.399 244.434 559.581 244.674 559.543 244.939C557.437 259.824 551.134 285.069 547.884 295.233C547.822 295.435 547.629 295.57 547.427 295.57V295.574Z" fill="#123761"></path><path d="M472.868 275.194C472.671 275.194 472.483 275.069 472.416 274.872C468.488 263.651 471.551 256.256 477.767 247.963C477.926 247.751 478.229 247.708 478.44 247.867C478.652 248.025 478.695 248.328 478.537 248.54C472.512 256.578 469.536 263.737 473.325 274.555C473.411 274.805 473.282 275.079 473.032 275.165C472.979 275.185 472.926 275.194 472.873 275.194H472.868Z" fill="#123761"></path><path d="M542.798 335.268C542.461 336.364 541.98 337.604 540.889 337.965C540.028 338.249 538.98 338.051 538.278 337.479C523.182 325.191 511.138 317.272 493.258 309.594C490.984 308.618 494.575 318.522 481.642 309.681C479.604 308.286 481.306 304.123 483.748 303.714C481.729 303.43 480.008 301.69 479.753 299.675C479.493 297.656 480.724 295.541 482.609 294.767C480.657 295.132 478.835 293.19 478.743 291.204C478.652 289.218 479.825 287.387 481.239 285.997C475.83 288.618 468.248 296.252 463.959 291.103C462.81 285.887 466.469 283.113 470.522 279.632C474.575 276.151 479.864 274.42 485.123 273.434C496.816 271.237 508.994 272.333 520.422 275.636C530.48 278.545 540.052 283.113 548.933 288.618C551.115 289.969 551.846 290.262 551.875 292.776C551.909 295.469 551.12 298.435 550.697 301.094C549.822 306.628 548.759 312.128 547.514 317.589C546.158 323.537 544.586 329.441 542.798 335.272V335.268Z" fill="white"></path><path d="M492.936 309.873C492.888 309.873 492.839 309.863 492.791 309.849L487.623 308.205C487.368 308.123 487.229 307.854 487.31 307.599C487.392 307.344 487.661 307.205 487.916 307.286L493.085 308.931C493.339 309.012 493.479 309.281 493.397 309.536C493.33 309.743 493.142 309.873 492.94 309.873H492.936Z" fill="#123761"></path><path d="M513.672 274.136C513.624 274.136 513.576 274.127 513.528 274.112C511.735 273.54 505.994 272.487 502.528 272.487C502.263 272.487 502.047 272.271 502.047 272.007C502.047 271.742 502.263 271.526 502.528 271.526C506.085 271.526 511.98 272.607 513.821 273.194C514.076 273.276 514.215 273.545 514.134 273.8C514.066 274.007 513.879 274.136 513.677 274.136H513.672Z" fill="#123761"></path><path d="M570.38 302.07C570.274 302.07 570.164 302.036 570.077 301.959C564.947 297.757 559.303 294.204 553.298 291.387C553.058 291.276 552.957 290.988 553.067 290.747C553.178 290.507 553.466 290.401 553.707 290.517C559.784 293.363 565.495 296.964 570.688 301.214C570.895 301.382 570.923 301.685 570.755 301.892C570.659 302.007 570.524 302.07 570.385 302.07H570.38Z" fill="#123761"></path><path d="M476.916 314.474C476.835 317.878 475.859 321.522 473.166 323.614C469.705 326.306 464.738 325.541 460.522 324.33C440.502 318.585 422.444 307.507 412.064 289.488C411.636 288.743 407.828 279.632 409.386 277.579C410.852 275.646 414.497 279.319 416.876 279.819C427.184 281.978 437.358 284.786 447.32 288.209C452.44 289.969 457.502 291.896 462.493 293.983C466.31 295.579 469.56 296.007 472.113 299.464C475.287 303.762 477.046 309.128 476.916 314.474Z" fill="white"></path><path d="M460.526 324.811C460.483 324.811 460.439 324.806 460.391 324.791C438.02 318.373 421.164 306.248 411.65 289.728C411.597 289.637 407.111 279.781 409.005 277.286C409.164 277.074 409.467 277.031 409.678 277.194C409.89 277.353 409.933 277.656 409.77 277.867C408.472 279.579 411.871 288.19 412.481 289.247C421.871 305.546 438.53 317.517 460.656 323.868C460.91 323.941 461.059 324.21 460.987 324.465C460.925 324.676 460.733 324.811 460.526 324.811Z" fill="#123761"></path><path d="M398.717 260.155H435.526C436.309 260.155 437.05 260.516 437.535 261.131L467.209 298.796C468.526 300.469 467.334 302.926 465.199 302.926H429.665C428.9 302.926 428.174 302.584 427.689 301.993L396.746 264.328C395.376 262.665 396.563 260.16 398.722 260.16L398.717 260.155Z" fill="#123761"></path><path d="M414.366 265.002C414.809 264.598 415.439 264.199 415.967 264.482C416.429 264.728 416.511 265.343 416.544 265.862C416.838 270.963 417.131 276.06 417.424 281.161C417.362 276.598 418.549 271.882 421.511 268.406C422.242 267.55 423.525 266.742 424.391 267.468C424.91 267.901 424.948 268.675 424.92 269.348C424.665 275.074 422.371 280.988 424.386 286.353C424.746 282.944 425.559 279.579 426.795 276.382C427.304 275.069 427.929 273.723 429.078 272.91C430.227 272.093 432.03 272.045 432.891 273.16C433.804 274.343 433.237 276.031 432.737 277.435C431.285 281.507 430.67 285.877 430.939 290.195C431.497 286.824 432.189 283.185 434.713 280.872C435.453 280.194 436.362 279.646 437.362 279.564C438.362 279.483 439.449 279.954 439.881 280.858C440.357 281.853 439.963 283.016 439.646 284.074C438.415 288.142 438.444 292.56 439.636 296.632C440.53 299.685 444.367 303.796 440.309 306.18C438.915 306.998 437.199 307.06 435.602 306.834C431.083 306.19 427.155 303.469 423.626 300.584C420.02 297.637 416.597 294.406 413.967 290.565C411.337 286.728 409.525 282.233 409.39 277.584C409.256 272.934 410.934 268.146 414.366 265.002Z" fill="white"></path><path d="M511.855 202.673L521.672 210.899L542.894 199.702L551.433 210.899L528.148 230.914L521.672 220.414L511.855 228.246L508.109 213.678L511.855 202.673Z" fill="white"></path><path d="M528.148 231.395C528.124 231.395 528.099 231.395 528.075 231.39C527.936 231.371 527.816 231.289 527.739 231.169L521.551 221.126L512.157 228.621C512.032 228.722 511.859 228.751 511.705 228.703C511.551 228.65 511.431 228.525 511.392 228.366L509.926 222.659C509.859 222.404 510.012 222.14 510.272 222.073C510.527 222.005 510.791 222.159 510.859 222.419L512.142 227.409L521.383 220.039C521.489 219.952 521.628 219.919 521.768 219.943C521.902 219.967 522.022 220.049 522.095 220.164L528.273 230.188L533.58 225.626C533.782 225.453 534.085 225.477 534.258 225.679C534.431 225.88 534.407 226.183 534.205 226.356L528.47 231.284C528.383 231.361 528.268 231.4 528.157 231.4L528.148 231.395Z" fill="#123761"></path><path d="M521.672 211.38C521.562 211.38 521.451 211.342 521.365 211.27L512.086 203.495L510.725 207.495C510.638 207.745 510.369 207.88 510.114 207.793C509.864 207.707 509.73 207.433 509.816 207.183L511.403 202.519C511.456 202.37 511.576 202.255 511.73 202.212C511.884 202.168 512.047 202.202 512.167 202.308L521.74 210.327L542.673 199.279C542.88 199.168 543.139 199.226 543.279 199.413L548.226 205.899C548.385 206.111 548.346 206.414 548.134 206.572C547.923 206.736 547.62 206.692 547.461 206.481L542.759 200.322L521.903 211.327C521.831 211.366 521.754 211.385 521.677 211.385L521.672 211.38Z" fill="#123761"></path></g><defs><clipPath id="clip0_434_5062"><rect width="598.572" height="400" fill="white"></rect></clipPath></defs></svg>