<svg xmlns="http://www.w3.org/2000/svg" xmlns:v="https://svgstorm.com"
viewBox = "0 0 512 512"
width="512"
height="512">
<g fill="None" fill-opacity="0.0" stroke="#000000" stroke-opacity="0.00" stroke-width="0.3"><path d="
M 0.00 237.00 
C 10.26 229.22 25.62 230.78 40.00 232.00 C 54.38 233.22 48.19 256.45 49.00 269.00 C 49.81 281.55 48.59 300.15 49.00 314.00 C 49.41 327.85 48.69 345.78 49.00 360.00
C 56.67 360.00 64.33 360.00 72.00 360.00
C 69.99 348.67 63.12 343.10 58.70 333.30 C 54.27 323.51 56.37 307.50 56.33 296.33 C 56.29 285.16 59.39 271.99 60.98 260.98 C 62.56 249.96 65.32 238.65 67.98 227.98 C 70.63 217.30 73.60 207.32 76.93 196.93 C 80.26 186.53 83.59 176.37 87.00 166.00
C 81.04 161.04 77.41 155.30 75.23 147.77 C 73.05 140.24 70.97 128.22 72.00 120.00 C 73.03 111.78 75.06 102.31 77.93 94.93 C 80.79 87.54 84.56 81.64 90.25 76.25 C 95.94 70.85 103.05 66.72 111.01 67.01 C 118.96 67.30 126.05 71.56 132.25 76.75 C 138.45 81.95 142.01 86.75 145.92 94.08 C 149.84 101.40 149.05 111.49 150.93 120.07 C 152.81 128.65 149.82 137.40 144.25 143.25 C 138.68 149.10 144.66 161.36 136.08 166.08 C 127.50 170.80 130.29 180.81 132.00 189.00 C 133.71 197.19 138.09 203.39 140.32 211.68 C 142.56 219.96 146.12 224.58 148.32 233.68 C 150.52 242.78 164.11 240.10 173.00 240.00 C 181.89 239.90 194.92 240.46 204.00 240.00 C 213.08 239.54 221.30 240.74 227.25 247.75 C 233.20 254.77 234.14 263.29 232.00 272.00
C 248.33 272.00 264.67 272.00 281.00 272.00
C 277.04 256.04 286.87 239.12 305.00 240.00 C 323.13 240.88 344.57 239.34 363.00 240.00
C 369.28 217.14 381.30 195.93 384.00 172.00
C 375.36 168.19 369.88 160.24 368.22 150.78 C 366.56 141.32 358.60 133.46 361.00 123.00 C 363.40 112.54 360.83 99.60 366.92 90.92 C 373.02 82.25 377.06 78.05 385.25 72.25 C 393.43 66.45 406.06 65.69 414.22 70.78 C 422.39 75.86 427.60 81.53 431.75 90.25 C 435.90 98.96 438.80 109.81 439.00 120.00 C 439.20 130.19 439.49 144.18 434.07 153.07 C 428.66 161.97 424.99 167.98 430.32 177.68 C 435.66 187.38 435.55 196.84 439.33 206.67 C 443.11 216.50 444.23 225.98 446.99 236.01 C 449.75 246.03 451.86 256.59 453.00 267.00 C 454.14 277.41 458.14 290.43 457.00 301.00 C 455.86 311.57 459.62 326.42 454.07 335.07 C 448.52 343.72 444.22 349.68 441.00 360.00
C 448.67 360.00 456.33 360.00 464.00 360.00
C 463.70 348.18 464.41 336.87 464.00 325.00 C 463.59 313.13 464.76 300.94 464.00 289.00 C 463.24 277.06 465.62 264.96 464.00 253.00 C 462.38 241.04 465.32 228.95 479.00 232.00 C 492.68 235.05 500.84 227.51 512.00 235.00
L 512.00 0.00
L 325.00 0.00
C 332.25 11.80 328.60 29.03 329.00 43.00 C 329.40 56.97 329.39 76.66 329.00 90.00 C 328.61 103.34 334.45 126.66 319.00 128.00 C 303.55 129.34 286.42 126.90 272.00 128.00 C 257.58 129.10 238.19 126.00 225.93 128.93 C 213.66 131.85 206.24 144.24 195.75 146.75 C 185.27 149.27 173.23 166.46 163.26 158.74 C 153.29 151.03 168.02 135.33 169.78 124.78 C 171.53 114.22 180.12 102.00 182.92 89.92 C 185.73 77.85 182.71 57.57 184.00 44.00 C 185.29 30.43 180.08 11.56 188.00 0.00
L 0.00 0.00
L 0.00 237.00 Z"/>
</g>
<g fill="None" fill-opacity="0.0" stroke="#472B3C" stroke-opacity="0.98" stroke-width="0.3"><path d="
M 325.00 0.00 
L 188.00 0.00
C 180.08 11.56 185.29 30.43 184.00 44.00 C 182.71 57.57 185.73 77.85 182.92 89.92 C 180.12 102.00 171.53 114.22 169.78 124.78 C 168.02 135.33 153.29 151.03 163.26 158.74 C 173.23 166.46 185.27 149.27 195.75 146.75 C 206.24 144.24 213.66 131.85 225.93 128.93 C 238.19 126.00 257.58 129.10 272.00 128.00 C 286.42 126.90 303.55 129.34 319.00 128.00 C 334.45 126.66 328.61 103.34 329.00 90.00 C 329.39 76.66 329.40 56.97 329.00 43.00 C 328.60 29.03 332.25 11.80 325.00 0.00
M 313.00 16.00 
C 313.00 48.00 313.00 80.00 313.00 112.00
C 289.34 110.81 261.21 113.58 238.00 112.00 C 214.79 110.42 203.30 125.28 184.00 134.00
C 187.99 115.21 199.56 104.12 201.00 84.00 C 202.44 63.88 199.92 36.76 201.00 16.00
C 238.33 16.00 275.67 16.00 313.00 16.00 Z"/>
</g>
<g fill="None" fill-opacity="0.0" stroke="#E4E2EA" stroke-opacity="1.00" stroke-width="0.3"><path d="
M 313.00 16.00 
C 275.67 16.00 238.33 16.00 201.00 16.00
C 199.92 36.76 202.44 63.88 201.00 84.00 C 199.56 104.12 187.99 115.21 184.00 134.00
C 203.30 125.28 214.79 110.42 238.00 112.00 C 261.21 113.58 289.34 110.81 313.00 112.00
C 313.00 80.00 313.00 48.00 313.00 16.00
M 288.00 58.00 
C 281.93 65.49 278.60 71.90 273.70 80.70 C 268.79 89.49 257.83 89.57 250.77 80.23 C 243.71 70.89 235.75 82.01 231.75 88.75 C 227.75 95.49 218.97 109.17 211.25 101.75 C 203.54 94.32 215.91 83.68 220.75 77.75 C 225.59 71.82 230.03 60.62 237.70 56.70 C 245.36 52.77 255.51 67.73 263.00 68.00
C 265.89 61.41 270.29 55.30 274.00 49.00
C 264.74 53.19 259.42 35.59 267.08 34.08 C 274.75 32.57 286.64 28.86 293.23 33.77 C 299.82 38.68 298.97 46.67 302.92 54.08 C 306.88 61.48 289.08 69.71 288.00 58.00 Z"/>
</g>
<g fill="None" fill-opacity="0.0" stroke="#482D3D" stroke-opacity="1.00" stroke-width="0.3"><path d="
M 288.00 58.00 
C 289.08 69.71 306.88 61.48 302.92 54.08 C 298.97 46.67 299.82 38.68 293.23 33.77 C 286.64 28.86 274.75 32.57 267.08 34.08 C 259.42 35.59 264.74 53.19 274.00 49.00
C 270.29 55.30 265.89 61.41 263.00 68.00
C 255.51 67.73 245.36 52.77 237.70 56.70 C 230.03 60.62 225.59 71.82 220.75 77.75 C 215.91 83.68 203.54 94.32 211.25 101.75 C 218.97 109.17 227.75 95.49 231.75 88.75 C 235.75 82.01 243.71 70.89 250.77 80.23 C 257.83 89.57 268.79 89.49 273.70 80.70 C 278.60 71.90 281.93 65.49 288.00 58.00 Z"/>
</g>
<g fill="None" fill-opacity="0.0" stroke="#472B3C" stroke-opacity="0.98" stroke-width="0.3"><path d="
M 0.00 237.00 
L 0.00 239.00
C 1.67 324.60 1.67 413.47 0.00 499.00
L 0.00 500.00
C 1.68 505.03 6.48 509.42 11.00 512.00
L 38.00 512.00
C 54.76 503.10 48.09 483.51 49.00 466.00 C 49.91 448.49 48.32 425.96 49.00 408.00
C 64.67 408.00 80.33 408.00 96.00 408.00
C 96.74 425.80 95.01 447.59 96.00 465.00 C 96.99 482.41 90.11 502.55 107.00 512.00
L 134.00 512.00
C 153.01 498.67 143.41 471.34 145.00 449.00 C 146.59 426.66 144.61 398.41 144.00 376.00
C 162.57 370.96 160.87 390.80 163.99 403.01 C 167.11 415.21 169.71 429.18 172.33 441.67 C 174.94 454.16 178.01 467.97 180.78 480.22 C 183.55 492.47 183.09 506.35 196.00 512.00
L 317.00 512.00
C 329.82 506.75 330.03 492.91 332.78 480.78 C 335.53 468.64 337.97 454.28 340.98 441.98 C 343.98 429.68 345.84 415.15 348.99 402.99 C 352.15 390.84 350.81 371.17 369.00 376.00
C 368.40 398.45 366.42 426.61 368.00 449.00 C 369.58 471.39 360.03 498.04 379.00 512.00
L 406.00 512.00
C 422.76 503.10 416.09 483.51 417.00 466.00 C 417.91 448.49 416.32 425.96 417.00 408.00
C 432.67 408.00 448.33 408.00 464.00 408.00
C 464.74 425.80 463.01 447.59 464.00 465.00 C 464.99 482.41 458.11 502.55 475.00 512.00
L 502.00 512.00
C 506.09 510.19 509.46 506.63 512.00 503.00
L 512.00 235.00
C 500.84 227.51 492.68 235.05 479.00 232.00 C 465.32 228.95 462.38 241.04 464.00 253.00 C 465.62 264.96 463.24 277.06 464.00 289.00 C 464.76 300.94 463.59 313.13 464.00 325.00 C 464.41 336.87 463.70 348.18 464.00 360.00
C 456.33 360.00 448.67 360.00 441.00 360.00
C 444.22 349.68 448.52 343.72 454.07 335.07 C 459.62 326.42 455.86 311.57 457.00 301.00 C 458.14 290.43 454.14 277.41 453.00 267.00 C 451.86 256.59 449.75 246.03 446.99 236.01 C 444.23 225.98 443.11 216.50 439.33 206.67 C 435.55 196.84 435.66 187.38 430.32 177.68 C 424.99 167.98 428.66 161.97 434.07 153.07 C 439.49 144.18 439.20 130.19 439.00 120.00 C 438.80 109.81 435.90 98.96 431.75 90.25 C 427.60 81.53 422.39 75.86 414.22 70.78 C 406.06 65.69 393.43 66.45 385.25 72.25 C 377.06 78.05 373.02 82.25 366.92 90.92 C 360.83 99.60 363.40 112.54 361.00 123.00 C 358.60 133.46 366.56 141.32 368.22 150.78 C 369.88 160.24 375.36 168.19 384.00 172.00
C 381.30 195.93 369.28 217.14 363.00 240.00
C 344.57 239.34 323.13 240.88 305.00 240.00 C 286.87 239.12 277.04 256.04 281.00 272.00
C 264.67 272.00 248.33 272.00 232.00 272.00
C 234.14 263.29 233.20 254.77 227.25 247.75 C 221.30 240.74 213.08 239.54 204.00 240.00 C 194.92 240.46 181.89 239.90 173.00 240.00 C 164.11 240.10 150.52 242.78 148.32 233.68 C 146.12 224.58 142.56 219.96 140.32 211.68 C 138.09 203.39 133.71 197.19 132.00 189.00 C 130.29 180.81 127.50 170.80 136.08 166.08 C 144.66 161.36 138.68 149.10 144.25 143.25 C 149.82 137.40 152.81 128.65 150.93 120.07 C 149.05 111.49 149.84 101.40 145.92 94.08 C 142.01 86.75 138.45 81.95 132.25 76.75 C 126.05 71.56 118.96 67.30 111.01 67.01 C 103.05 66.72 95.94 70.85 90.25 76.25 C 84.56 81.64 80.79 87.54 77.93 94.93 C 75.06 102.31 73.03 111.78 72.00 120.00 C 70.97 128.22 73.05 140.24 75.23 147.77 C 77.41 155.30 81.04 161.04 87.00 166.00
C 83.59 176.37 80.26 186.53 76.93 196.93 C 73.60 207.32 70.63 217.30 67.98 227.98 C 65.32 238.65 62.56 249.96 60.98 260.98 C 59.39 271.99 56.29 285.16 56.33 296.33 C 56.37 307.50 54.27 323.51 58.70 333.30 C 63.12 343.10 69.99 348.67 72.00 360.00
C 64.33 360.00 56.67 360.00 49.00 360.00
C 48.69 345.78 49.41 327.85 49.00 314.00 C 48.59 300.15 49.81 281.55 49.00 269.00 C 48.19 256.45 54.38 233.22 40.00 232.00 C 25.62 230.78 10.26 229.22 0.00 237.00
M 89.00 118.00 
C 91.91 105.77 92.48 97.23 102.75 87.75 C 113.02 78.28 125.81 90.94 115.70 100.70 C 105.58 110.45 99.31 110.20 89.00 118.00
M 422.00 118.00 
C 411.79 109.74 406.13 110.17 396.23 100.77 C 386.33 91.37 398.23 78.24 408.75 87.25 C 419.26 96.27 419.61 105.92 422.00 118.00
M 132.00 105.00 
C 131.75 112.83 139.17 125.67 131.75 131.75 C 124.33 137.84 129.53 149.27 122.75 155.75 C 115.98 162.23 105.70 160.88 98.77 155.23 C 91.84 149.58 89.76 141.35 95.77 134.77 C 101.78 128.19 107.90 124.62 115.69 121.69 C 123.49 118.77 127.42 110.79 132.00 105.00
M 380.00 105.00 
C 384.38 111.29 387.75 118.26 395.70 121.30 C 403.64 124.35 409.15 128.09 415.30 134.70 C 421.46 141.30 419.53 149.85 412.25 155.25 C 404.96 160.64 395.63 162.59 388.77 156.23 C 381.91 149.87 387.59 138.26 379.75 132.25 C 371.92 126.24 379.79 111.87 380.00 105.00
M 412.00 174.00 
C 426.38 221.41 443.39 269.68 440.00 321.00
C 432.76 318.39 426.02 317.11 418.78 314.22 C 411.54 311.33 403.89 311.01 396.78 307.22 C 389.66 303.43 393.66 291.11 393.00 282.00 C 392.34 272.89 382.95 270.68 374.00 272.00 C 365.05 273.32 353.86 271.14 345.00 272.00 C 336.14 272.86 324.24 271.02 316.00 272.00 C 307.76 272.98 294.69 272.39 297.00 262.00 C 299.31 251.61 312.33 257.29 320.00 256.00 C 327.67 254.71 341.26 257.16 349.00 256.00 C 356.74 254.84 369.63 259.18 374.75 252.75 C 379.87 246.32 379.82 239.12 382.93 231.93 C 386.03 224.73 388.60 218.55 390.92 210.92 C 393.25 203.30 397.30 197.56 397.98 188.98 C 398.65 180.39 400.69 172.78 412.00 174.00
M 172.00 280.00 
C 172.00 293.44 195.06 287.04 206.00 288.00 C 216.94 288.96 236.31 287.56 249.00 288.00 C 261.69 288.44 277.46 287.80 291.00 288.00 C 304.54 288.20 320.08 287.89 334.00 288.00 C 347.92 288.11 362.98 287.92 377.00 288.00
C 377.00 293.33 377.00 298.67 377.00 304.00
C 297.00 304.00 217.00 304.00 137.00 304.00
C 137.00 298.67 137.00 293.33 137.00 288.00
C 143.35 288.36 154.61 289.16 154.00 280.00
C 154.00 269.63 134.22 269.21 125.78 272.78 C 117.33 276.34 122.20 297.81 121.00 306.00
C 104.99 311.00 89.10 316.25 73.00 321.00
C 70.48 269.29 86.63 222.26 101.00 175.00
C 105.44 174.85 109.40 176.71 114.00 176.00
C 114.12 188.48 118.33 198.38 121.98 210.02 C 125.62 221.67 130.48 227.95 133.32 240.68 C 136.17 253.40 145.33 258.96 160.00 256.00 C 174.67 253.04 186.60 259.00 202.00 256.00 C 217.40 253.00 220.53 270.97 206.00 272.00 C 191.47 273.03 177.61 266.50 172.00 280.00
M 33.00 248.00 
C 32.62 261.07 33.51 272.79 33.00 286.00 C 32.49 299.21 33.97 310.30 33.00 324.00 C 32.03 337.70 35.09 347.11 33.00 362.00 C 30.91 376.89 45.28 376.53 57.00 376.00 C 68.72 375.47 85.33 375.25 96.00 376.00 C 106.67 376.75 123.89 370.84 128.30 381.70 C 132.72 392.55 127.43 407.02 129.00 419.00 C 130.57 430.98 128.20 444.58 129.00 457.00 C 129.80 469.42 128.40 483.43 129.00 496.00
C 123.67 496.00 118.33 496.00 113.00 496.00
C 111.45 479.75 115.06 454.33 113.00 439.00 C 110.94 423.67 121.40 393.82 102.00 392.00 C 82.60 390.18 64.84 391.99 45.00 392.00 C 25.16 392.01 34.52 422.23 33.00 438.00 C 31.48 453.77 34.14 479.34 33.00 496.00
C 27.67 496.00 22.33 496.00 17.00 496.00
C 17.00 413.33 17.00 330.67 17.00 248.00
C 22.33 248.00 27.67 248.00 33.00 248.00
M 497.00 248.00 
C 497.00 330.67 497.00 413.33 497.00 496.00
C 491.67 496.00 486.33 496.00 481.00 496.00
C 479.45 479.75 483.06 454.33 481.00 439.00 C 478.94 423.67 489.40 393.83 470.00 392.00 C 450.60 390.18 432.84 391.99 413.00 392.00 C 393.16 392.01 402.52 422.23 401.00 438.00 C 399.48 453.77 402.14 479.34 401.00 496.00
C 395.67 496.00 390.33 496.00 385.00 496.00
C 385.59 483.58 384.22 470.34 385.00 458.00 C 385.78 445.66 383.50 432.03 385.00 420.00 C 386.50 407.97 381.77 393.30 385.00 382.00 C 388.23 370.70 406.82 376.91 417.00 376.00 C 427.18 375.09 444.94 375.79 456.00 376.00 C 467.06 376.21 482.21 377.48 481.00 363.00 C 479.79 348.52 481.56 338.56 481.00 325.00 C 480.44 311.44 481.29 300.23 481.00 287.00 C 480.71 273.77 481.22 261.17 481.00 248.00
C 486.33 248.00 491.67 248.00 497.00 248.00
M 232.00 320.00 
C 232.00 368.67 232.00 417.33 232.00 466.00
C 218.74 464.16 221.37 447.31 219.02 435.98 C 216.68 424.64 215.49 410.31 213.22 398.78 C 210.95 387.24 209.61 372.32 208.00 361.00 C 206.39 349.68 202.46 339.28 191.92 334.08 C 181.39 328.87 171.85 324.83 161.00 321.00
C 183.76 318.67 208.48 320.66 232.00 320.00
M 273.00 364.00 
C 282.68 364.12 281.08 353.45 281.00 346.00 C 280.92 338.55 281.06 327.76 281.00 320.00
C 304.50 320.67 329.32 318.67 352.00 321.00
C 338.81 329.46 316.03 328.69 309.23 346.23 C 302.43 363.77 302.97 385.11 299.01 404.01 C 295.05 422.91 293.12 444.65 290.00 464.00
C 286.98 464.54 284.16 465.87 281.00 466.00
C 279.77 451.22 282.64 432.38 281.00 418.00 C 279.36 403.62 287.51 383.06 273.00 377.00
C 259.87 377.76 265.46 401.02 265.00 412.00 C 264.54 422.98 264.47 443.64 265.00 456.00 C 265.53 468.36 262.97 481.06 256.00 491.00
C 250.96 478.59 247.96 468.59 249.00 454.00 C 250.04 439.41 248.51 423.73 249.00 409.00 C 249.49 394.27 248.75 379.80 249.00 365.00 C 249.25 350.20 248.81 334.85 249.00 320.00
C 254.33 320.00 259.67 320.00 265.00 320.00
C 268.47 333.64 256.99 358.36 273.00 364.00
M 241.00 496.00 
C 230.22 495.35 216.48 496.86 206.00 496.00 C 195.52 495.14 198.51 478.98 195.67 470.33 C 192.83 461.68 191.33 451.12 189.07 441.93 C 186.82 432.73 185.21 421.22 183.01 411.99 C 180.81 402.77 178.59 392.31 176.67 383.33 C 174.76 374.35 172.88 364.50 162.77 361.23 C 152.66 357.96 139.68 360.92 129.00 360.00 C 118.32 359.08 104.81 361.95 95.31 357.69 C 85.80 353.44 81.87 344.86 82.00 335.00
C 93.21 330.13 103.69 330.31 115.02 325.02 C 126.35 319.74 134.03 327.98 145.23 331.77 C 156.43 335.56 163.02 341.48 175.23 344.77 C 187.44 348.06 191.96 358.82 192.78 371.22 C 193.60 383.62 196.24 397.18 198.00 409.00 C 199.76 420.83 202.02 434.95 204.00 446.00 C 205.97 457.05 204.52 472.86 214.23 478.77 C 223.94 484.68 240.97 479.87 241.00 496.00
M 432.00 335.00 
C 432.01 358.94 406.57 362.87 387.00 360.00 C 367.43 357.13 340.60 358.35 337.22 380.22 C 333.84 402.09 328.54 417.33 325.00 438.00 C 321.46 458.68 316.13 475.76 312.00 496.00
C 299.00 496.00 286.00 496.00 273.00 496.00
C 270.86 475.54 302.54 487.44 304.99 470.99 C 307.44 454.54 311.50 437.76 312.99 420.99 C 314.48 404.22 320.99 388.06 320.98 370.98 C 320.96 353.89 332.26 344.31 347.68 340.68 C 363.09 337.05 373.09 325.32 388.03 323.03 C 402.96 320.73 416.88 334.35 432.00 335.00 Z"/>
</g>
<g fill="None" fill-opacity="0.0" stroke="#656465" stroke-opacity="1.00" stroke-width="0.3"><path d="
M 89.00 118.00 
C 99.31 110.20 105.58 110.45 115.70 100.70 C 125.81 90.94 113.02 78.28 102.75 87.75 C 92.48 97.23 91.91 105.77 89.00 118.00 Z"/>
</g>
<g fill="None" fill-opacity="0.0" stroke="#656465" stroke-opacity="1.00" stroke-width="0.3"><path d="
M 422.00 118.00 
C 419.61 105.92 419.26 96.27 408.75 87.25 C 398.23 78.24 386.33 91.37 396.23 100.77 C 406.13 110.17 411.79 109.74 422.00 118.00 Z"/>
</g>
<g fill="None" fill-opacity="0.0" stroke="#FCD2BF" stroke-opacity="1.00" stroke-width="0.3"><path d="
M 132.00 105.00 
C 127.42 110.79 123.49 118.77 115.69 121.69 C 107.90 124.62 101.78 128.19 95.77 134.77 C 89.76 141.35 91.84 149.58 98.77 155.23 C 105.70 160.88 115.98 162.23 122.75 155.75 C 129.53 149.27 124.33 137.84 131.75 131.75 C 139.17 125.67 131.75 112.83 132.00 105.00 Z"/>
</g>
<g fill="None" fill-opacity="0.0" stroke="#FBD1BF" stroke-opacity="1.00" stroke-width="0.3"><path d="
M 380.00 105.00 
C 379.79 111.87 371.92 126.24 379.75 132.25 C 387.59 138.26 381.91 149.87 388.77 156.23 C 395.63 162.59 404.96 160.64 412.25 155.25 C 419.53 149.85 421.46 141.30 415.30 134.70 C 409.15 128.09 403.64 124.35 395.70 121.30 C 387.75 118.26 384.38 111.29 380.00 105.00 Z"/>
</g>
<g fill="None" fill-opacity="0.0" stroke="#7C8AC9" stroke-opacity="1.00" stroke-width="0.3"><path d="
M 412.00 174.00 
C 400.69 172.78 398.65 180.39 397.98 188.98 C 397.30 197.56 393.25 203.30 390.92 210.92 C 388.60 218.55 386.03 224.73 382.93 231.93 C 379.82 239.12 379.87 246.32 374.75 252.75 C 369.63 259.18 356.74 254.84 349.00 256.00 C 341.26 257.16 327.67 254.71 320.00 256.00 C 312.33 257.29 299.31 251.61 297.00 262.00 C 294.69 272.39 307.76 272.98 316.00 272.00 C 324.24 271.02 336.14 272.86 345.00 272.00 C 353.86 271.14 365.05 273.32 374.00 272.00 C 382.95 270.68 392.34 272.89 393.00 282.00 C 393.66 291.11 389.66 303.43 396.78 307.22 C 403.89 311.01 411.54 311.33 418.78 314.22 C 426.02 317.11 432.76 318.39 440.00 321.00
C 443.39 269.68 426.38 221.41 412.00 174.00 Z"/>
</g>
<g fill="None" fill-opacity="0.0" stroke="#7C8AC9" stroke-opacity="1.00" stroke-width="0.3"><path d="
M 154.00 280.00 
C 160.00 280.00 166.00 280.00 172.00 280.00
C 177.61 266.50 191.47 273.03 206.00 272.00 C 220.53 270.97 217.40 253.00 202.00 256.00 C 186.60 259.00 174.67 253.04 160.00 256.00 C 145.33 258.96 136.17 253.40 133.32 240.68 C 130.48 227.95 125.62 221.67 121.98 210.02 C 118.33 198.38 114.12 188.48 114.00 176.00
C 109.40 176.71 105.44 174.85 101.00 175.00
C 86.63 222.26 70.48 269.29 73.00 321.00
C 89.10 316.25 104.99 311.00 121.00 306.00
C 122.20 297.81 117.33 276.34 125.78 272.78 C 134.22 269.21 154.00 269.63 154.00 280.00 Z"/>
</g>
<g fill="None" fill-opacity="0.0" stroke="#462A3B" stroke-opacity="0.36" stroke-width="0.3"><path d="
M 0.00 499.00 
C 1.67 413.47 1.67 324.60 0.00 239.00
L 0.00 499.00 Z"/>
</g>
<g fill="None" fill-opacity="0.0" stroke="#FBD1BF" stroke-opacity="1.00" stroke-width="0.3"><path d="
M 33.00 248.00 
C 27.67 248.00 22.33 248.00 17.00 248.00
C 17.00 330.67 17.00 413.33 17.00 496.00
C 22.33 496.00 27.67 496.00 33.00 496.00
C 34.14 479.34 31.48 453.77 33.00 438.00 C 34.52 422.23 25.16 392.01 45.00 392.00 C 64.84 391.99 82.60 390.18 102.00 392.00 C 121.40 393.82 110.94 423.67 113.00 439.00 C 115.06 454.33 111.45 479.75 113.00 496.00
C 118.33 496.00 123.67 496.00 129.00 496.00
C 128.40 483.43 129.80 469.42 129.00 457.00 C 128.20 444.58 130.57 430.98 129.00 419.00 C 127.43 407.02 132.72 392.55 128.30 381.70 C 123.89 370.84 106.67 376.75 96.00 376.00 C 85.33 375.25 68.72 375.47 57.00 376.00 C 45.28 376.53 30.91 376.89 33.00 362.00 C 35.09 347.11 32.03 337.70 33.00 324.00 C 33.97 310.30 32.49 299.21 33.00 286.00 C 33.51 272.79 32.62 261.07 33.00 248.00 Z"/>
</g>
<g fill="None" fill-opacity="0.0" stroke="#FBD1BF" stroke-opacity="1.00" stroke-width="0.3"><path d="
M 497.00 248.00 
C 491.67 248.00 486.33 248.00 481.00 248.00
C 481.22 261.17 480.71 273.77 481.00 287.00 C 481.29 300.23 480.44 311.44 481.00 325.00 C 481.56 338.56 479.79 348.52 481.00 363.00 C 482.21 377.48 467.06 376.21 456.00 376.00 C 444.94 375.79 427.18 375.09 417.00 376.00 C 406.82 376.91 388.23 370.70 385.00 382.00 C 381.77 393.30 386.50 407.97 385.00 420.00 C 383.50 432.03 385.78 445.66 385.00 458.00 C 384.22 470.34 385.59 483.58 385.00 496.00
C 390.33 496.00 395.67 496.00 401.00 496.00
C 402.14 479.34 399.48 453.77 401.00 438.00 C 402.52 422.23 393.16 392.01 413.00 392.00 C 432.84 391.99 450.60 390.18 470.00 392.00 C 489.40 393.83 478.94 423.67 481.00 439.00 C 483.06 454.33 479.45 479.75 481.00 496.00
C 486.33 496.00 491.67 496.00 497.00 496.00
C 497.00 413.33 497.00 330.67 497.00 248.00 Z"/>
</g>
<g fill="None" fill-opacity="0.0" stroke="#E5E4EC" stroke-opacity="1.00" stroke-width="0.3"><path d="
M 172.00 280.00 
C 166.00 280.00 160.00 280.00 154.00 280.00
C 154.61 289.16 143.35 288.36 137.00 288.00
C 137.00 293.33 137.00 298.67 137.00 304.00
C 217.00 304.00 297.00 304.00 377.00 304.00
C 377.00 298.67 377.00 293.33 377.00 288.00
C 362.98 287.92 347.92 288.11 334.00 288.00 C 320.08 287.89 304.54 288.20 291.00 288.00 C 277.46 287.80 261.69 288.44 249.00 288.00 C 236.31 287.56 216.94 288.96 206.00 288.00 C 195.06 287.04 172.00 293.44 172.00 280.00 Z"/>
</g>
<g fill="None" fill-opacity="0.0" stroke="#000000" stroke-opacity="0.00" stroke-width="0.3"><path d="
M 232.00 320.00 
C 208.48 320.66 183.76 318.67 161.00 321.00
C 171.85 324.83 181.39 328.87 191.92 334.08 C 202.46 339.28 206.39 349.68 208.00 361.00 C 209.61 372.32 210.95 387.24 213.22 398.78 C 215.49 410.31 216.68 424.64 219.02 435.98 C 221.37 447.31 218.74 464.16 232.00 466.00
C 232.00 417.33 232.00 368.67 232.00 320.00 Z"/>
</g>
<g fill="None" fill-opacity="0.0" stroke="#E2E1E9" stroke-opacity="1.00" stroke-width="0.3"><path d="
M 273.00 377.00 
C 274.77 373.58 271.67 367.65 273.00 364.00
C 256.99 358.36 268.47 333.64 265.00 320.00
C 259.67 320.00 254.33 320.00 249.00 320.00
C 248.81 334.85 249.25 350.20 249.00 365.00 C 248.75 379.80 249.49 394.27 249.00 409.00 C 248.51 423.73 250.04 439.41 249.00 454.00 C 247.96 468.59 250.96 478.59 256.00 491.00
C 262.97 481.06 265.53 468.36 265.00 456.00 C 264.47 443.64 264.54 422.98 265.00 412.00 C 265.46 401.02 259.87 377.76 273.00 377.00 Z"/>
</g>
<g fill="None" fill-opacity="0.0" stroke="#000000" stroke-opacity="0.00" stroke-width="0.3"><path d="
M 273.00 364.00 
C 271.67 367.65 274.77 373.58 273.00 377.00
C 287.51 383.06 279.36 403.62 281.00 418.00 C 282.64 432.38 279.77 451.22 281.00 466.00
C 284.16 465.87 286.98 464.54 290.00 464.00
C 293.12 444.65 295.05 422.91 299.01 404.01 C 302.97 385.11 302.43 363.77 309.23 346.23 C 316.03 328.69 338.81 329.46 352.00 321.00
C 329.32 318.67 304.50 320.67 281.00 320.00
C 281.06 327.76 280.92 338.55 281.00 346.00 C 281.08 353.45 282.68 364.12 273.00 364.00 Z"/>
</g>
<g fill="None" fill-opacity="0.0" stroke="#656565" stroke-opacity="1.00" stroke-width="0.3"><path d="
M 241.00 496.00 
C 240.97 479.87 223.94 484.68 214.23 478.77 C 204.52 472.86 205.97 457.05 204.00 446.00 C 202.02 434.95 199.76 420.83 198.00 409.00 C 196.24 397.18 193.60 383.62 192.78 371.22 C 191.96 358.82 187.44 348.06 175.23 344.77 C 163.02 341.48 156.43 335.56 145.23 331.77 C 134.03 327.98 126.35 319.74 115.02 325.02 C 103.69 330.31 93.21 330.13 82.00 335.00
C 81.87 344.86 85.80 353.44 95.31 357.69 C 104.81 361.95 118.32 359.08 129.00 360.00 C 139.68 360.92 152.66 357.96 162.77 361.23 C 172.88 364.50 174.76 374.35 176.67 383.33 C 178.59 392.31 180.81 402.77 183.01 411.99 C 185.21 421.22 186.82 432.73 189.07 441.93 C 191.33 451.12 192.83 461.68 195.67 470.33 C 198.51 478.98 195.52 495.14 206.00 496.00 C 216.48 496.86 230.22 495.35 241.00 496.00 Z"/>
</g>
<g fill="None" fill-opacity="0.0" stroke="#656565" stroke-opacity="1.00" stroke-width="0.3"><path d="
M 432.00 335.00 
C 416.88 334.35 402.96 320.73 388.03 323.03 C 373.09 325.32 363.09 337.05 347.68 340.68 C 332.26 344.31 320.96 353.89 320.98 370.98 C 320.99 388.06 314.48 404.22 312.99 420.99 C 311.50 437.76 307.44 454.54 304.99 470.99 C 302.54 487.44 270.86 475.54 273.00 496.00
C 286.00 496.00 299.00 496.00 312.00 496.00
C 316.13 475.76 321.46 458.68 325.00 438.00 C 328.54 417.33 333.84 402.09 337.22 380.22 C 340.60 358.35 367.43 357.13 387.00 360.00 C 406.57 362.87 432.01 358.94 432.00 335.00 Z"/>
</g>
<g fill="None" fill-opacity="0.0" stroke="#000000" stroke-opacity="0.00" stroke-width="0.3"><path d="
M 134.00 512.00 
L 196.00 512.00
C 183.09 506.35 183.55 492.47 180.78 480.22 C 178.01 467.97 174.94 454.16 172.33 441.67 C 169.71 429.18 167.11 415.21 163.99 403.01 C 160.87 390.80 162.57 370.96 144.00 376.00
C 144.61 398.41 146.59 426.66 145.00 449.00 C 143.41 471.34 153.01 498.67 134.00 512.00 Z"/>
</g>
<g fill="None" fill-opacity="0.0" stroke="#000000" stroke-opacity="0.00" stroke-width="0.3"><path d="
M 317.00 512.00 
L 379.00 512.00
C 360.03 498.04 369.58 471.39 368.00 449.00 C 366.42 426.61 368.40 398.45 369.00 376.00
C 350.81 371.17 352.15 390.84 348.99 402.99 C 345.84 415.15 343.98 429.68 340.98 441.98 C 337.97 454.28 335.53 468.64 332.78 480.78 C 330.03 492.91 329.82 506.75 317.00 512.00 Z"/>
</g>
<g fill="None" fill-opacity="0.0" stroke="#000000" stroke-opacity="0.00" stroke-width="0.3"><path d="
M 38.00 512.00 
L 107.00 512.00
C 90.11 502.55 96.99 482.41 96.00 465.00 C 95.01 447.59 96.74 425.80 96.00 408.00
C 80.33 408.00 64.67 408.00 49.00 408.00
C 48.32 425.96 49.91 448.49 49.00 466.00 C 48.09 483.51 54.76 503.10 38.00 512.00 Z"/>
</g>
<g fill="None" fill-opacity="0.0" stroke="#000000" stroke-opacity="0.00" stroke-width="0.3"><path d="
M 406.00 512.00 
L 475.00 512.00
C 458.11 502.55 464.99 482.41 464.00 465.00 C 463.01 447.59 464.74 425.80 464.00 408.00
C 448.33 408.00 432.67 408.00 417.00 408.00
C 416.32 425.96 417.91 448.49 417.00 466.00 C 416.09 483.51 422.76 503.10 406.00 512.00 Z"/>
</g>
<g fill="None" fill-opacity="0.0" stroke="#000000" stroke-opacity="0.00" stroke-width="0.3"><path d="
M 0.00 512.00 
L 11.00 512.00
C 6.48 509.42 1.68 505.03 0.00 500.00
L 0.00 512.00 Z"/>
</g>
<g fill="None" fill-opacity="0.0" stroke="#000000" stroke-opacity="0.00" stroke-width="0.3"><path d="
M 502.00 512.00 
L 512.00 512.00
L 512.00 503.00
C 509.46 506.63 506.09 510.19 502.00 512.00 Z"/>
</g>
<g fill="#000000" fill-opacity="0.00" stroke="None">
<path d="
M 0.00 237.00 
C 10.26 229.22 25.62 230.78 40.00 232.00 C 54.38 233.22 48.19 256.45 49.00 269.00 C 49.81 281.55 48.59 300.15 49.00 314.00 C 49.41 327.85 48.69 345.78 49.00 360.00
C 56.67 360.00 64.33 360.00 72.00 360.00
C 69.99 348.67 63.12 343.10 58.70 333.30 C 54.27 323.51 56.37 307.50 56.33 296.33 C 56.29 285.16 59.39 271.99 60.98 260.98 C 62.56 249.96 65.32 238.65 67.98 227.98 C 70.63 217.30 73.60 207.32 76.93 196.93 C 80.26 186.53 83.59 176.37 87.00 166.00
C 81.04 161.04 77.41 155.30 75.23 147.77 C 73.05 140.24 70.97 128.22 72.00 120.00 C 73.03 111.78 75.06 102.31 77.93 94.93 C 80.79 87.54 84.56 81.64 90.25 76.25 C 95.94 70.85 103.05 66.72 111.01 67.01 C 118.96 67.30 126.05 71.56 132.25 76.75 C 138.45 81.95 142.01 86.75 145.92 94.08 C 149.84 101.40 149.05 111.49 150.93 120.07 C 152.81 128.65 149.82 137.40 144.25 143.25 C 138.68 149.10 144.66 161.36 136.08 166.08 C 127.50 170.80 130.29 180.81 132.00 189.00 C 133.71 197.19 138.09 203.39 140.32 211.68 C 142.56 219.96 146.12 224.58 148.32 233.68 C 150.52 242.78 164.11 240.10 173.00 240.00 C 181.89 239.90 194.92 240.46 204.00 240.00 C 213.08 239.54 221.30 240.74 227.25 247.75 C 233.20 254.77 234.14 263.29 232.00 272.00
C 248.33 272.00 264.67 272.00 281.00 272.00
C 277.04 256.04 286.87 239.12 305.00 240.00 C 323.13 240.88 344.57 239.34 363.00 240.00
C 369.28 217.14 381.30 195.93 384.00 172.00
C 375.36 168.19 369.88 160.24 368.22 150.78 C 366.56 141.32 358.60 133.46 361.00 123.00 C 363.40 112.54 360.83 99.60 366.92 90.92 C 373.02 82.25 377.06 78.05 385.25 72.25 C 393.43 66.45 406.06 65.69 414.22 70.78 C 422.39 75.86 427.60 81.53 431.75 90.25 C 435.90 98.96 438.80 109.81 439.00 120.00 C 439.20 130.19 439.49 144.18 434.07 153.07 C 428.66 161.97 424.99 167.98 430.32 177.68 C 435.66 187.38 435.55 196.84 439.33 206.67 C 443.11 216.50 444.23 225.98 446.99 236.01 C 449.75 246.03 451.86 256.59 453.00 267.00 C 454.14 277.41 458.14 290.43 457.00 301.00 C 455.86 311.57 459.62 326.42 454.07 335.07 C 448.52 343.72 444.22 349.68 441.00 360.00
C 448.67 360.00 456.33 360.00 464.00 360.00
C 463.70 348.18 464.41 336.87 464.00 325.00 C 463.59 313.13 464.76 300.94 464.00 289.00 C 463.24 277.06 465.62 264.96 464.00 253.00 C 462.38 241.04 465.32 228.95 479.00 232.00 C 492.68 235.05 500.84 227.51 512.00 235.00
L 512.00 0.00
L 325.00 0.00
C 332.25 11.80 328.60 29.03 329.00 43.00 C 329.40 56.97 329.39 76.66 329.00 90.00 C 328.61 103.34 334.45 126.66 319.00 128.00 C 303.55 129.34 286.42 126.90 272.00 128.00 C 257.58 129.10 238.19 126.00 225.93 128.93 C 213.66 131.85 206.24 144.24 195.75 146.75 C 185.27 149.27 173.23 166.46 163.26 158.74 C 153.29 151.03 168.02 135.33 169.78 124.78 C 171.53 114.22 180.12 102.00 182.92 89.92 C 185.73 77.85 182.71 57.57 184.00 44.00 C 185.29 30.43 180.08 11.56 188.00 0.00
L 0.00 0.00
L 0.00 237.00 Z"/>
</g>
<g fill="#472B3C" fill-opacity="0.98" stroke="None">
<path d="
M 325.00 0.00 
L 188.00 0.00
C 180.08 11.56 185.29 30.43 184.00 44.00 C 182.71 57.57 185.73 77.85 182.92 89.92 C 180.12 102.00 171.53 114.22 169.78 124.78 C 168.02 135.33 153.29 151.03 163.26 158.74 C 173.23 166.46 185.27 149.27 195.75 146.75 C 206.24 144.24 213.66 131.85 225.93 128.93 C 238.19 126.00 257.58 129.10 272.00 128.00 C 286.42 126.90 303.55 129.34 319.00 128.00 C 334.45 126.66 328.61 103.34 329.00 90.00 C 329.39 76.66 329.40 56.97 329.00 43.00 C 328.60 29.03 332.25 11.80 325.00 0.00
M 313.00 16.00 
C 313.00 48.00 313.00 80.00 313.00 112.00
C 289.34 110.81 261.21 113.58 238.00 112.00 C 214.79 110.42 203.30 125.28 184.00 134.00
C 187.99 115.21 199.56 104.12 201.00 84.00 C 202.44 63.88 199.92 36.76 201.00 16.00
C 238.33 16.00 275.67 16.00 313.00 16.00 Z"/>
</g>
<g fill="#E4E2EA" fill-opacity="1.00" stroke="None">
<path d="
M 313.00 16.00 
C 275.67 16.00 238.33 16.00 201.00 16.00
C 199.92 36.76 202.44 63.88 201.00 84.00 C 199.56 104.12 187.99 115.21 184.00 134.00
C 203.30 125.28 214.79 110.42 238.00 112.00 C 261.21 113.58 289.34 110.81 313.00 112.00
C 313.00 80.00 313.00 48.00 313.00 16.00
M 288.00 58.00 
C 281.93 65.49 278.60 71.90 273.70 80.70 C 268.79 89.49 257.83 89.57 250.77 80.23 C 243.71 70.89 235.75 82.01 231.75 88.75 C 227.75 95.49 218.97 109.17 211.25 101.75 C 203.54 94.32 215.91 83.68 220.75 77.75 C 225.59 71.82 230.03 60.62 237.70 56.70 C 245.36 52.77 255.51 67.73 263.00 68.00
C 265.89 61.41 270.29 55.30 274.00 49.00
C 264.74 53.19 259.42 35.59 267.08 34.08 C 274.75 32.57 286.64 28.86 293.23 33.77 C 299.82 38.68 298.97 46.67 302.92 54.08 C 306.88 61.48 289.08 69.71 288.00 58.00 Z"/>
</g>
<g fill="#482D3D" fill-opacity="1.00" stroke="None">
<path d="
M 288.00 58.00 
C 289.08 69.71 306.88 61.48 302.92 54.08 C 298.97 46.67 299.82 38.68 293.23 33.77 C 286.64 28.86 274.75 32.57 267.08 34.08 C 259.42 35.59 264.74 53.19 274.00 49.00
C 270.29 55.30 265.89 61.41 263.00 68.00
C 255.51 67.73 245.36 52.77 237.70 56.70 C 230.03 60.62 225.59 71.82 220.75 77.75 C 215.91 83.68 203.54 94.32 211.25 101.75 C 218.97 109.17 227.75 95.49 231.75 88.75 C 235.75 82.01 243.71 70.89 250.77 80.23 C 257.83 89.57 268.79 89.49 273.70 80.70 C 278.60 71.90 281.93 65.49 288.00 58.00 Z"/>
</g>
<g fill="#472B3C" fill-opacity="0.98" stroke="None">
<path d="
M 0.00 237.00 
L 0.00 239.00
C 1.67 324.60 1.67 413.47 0.00 499.00
L 0.00 500.00
C 1.68 505.03 6.48 509.42 11.00 512.00
L 38.00 512.00
C 54.76 503.10 48.09 483.51 49.00 466.00 C 49.91 448.49 48.32 425.96 49.00 408.00
C 64.67 408.00 80.33 408.00 96.00 408.00
C 96.74 425.80 95.01 447.59 96.00 465.00 C 96.99 482.41 90.11 502.55 107.00 512.00
L 134.00 512.00
C 153.01 498.67 143.41 471.34 145.00 449.00 C 146.59 426.66 144.61 398.41 144.00 376.00
C 162.57 370.96 160.87 390.80 163.99 403.01 C 167.11 415.21 169.71 429.18 172.33 441.67 C 174.94 454.16 178.01 467.97 180.78 480.22 C 183.55 492.47 183.09 506.35 196.00 512.00
L 317.00 512.00
C 329.82 506.75 330.03 492.91 332.78 480.78 C 335.53 468.64 337.97 454.28 340.98 441.98 C 343.98 429.68 345.84 415.15 348.99 402.99 C 352.15 390.84 350.81 371.17 369.00 376.00
C 368.40 398.45 366.42 426.61 368.00 449.00 C 369.58 471.39 360.03 498.04 379.00 512.00
L 406.00 512.00
C 422.76 503.10 416.09 483.51 417.00 466.00 C 417.91 448.49 416.32 425.96 417.00 408.00
C 432.67 408.00 448.33 408.00 464.00 408.00
C 464.74 425.80 463.01 447.59 464.00 465.00 C 464.99 482.41 458.11 502.55 475.00 512.00
L 502.00 512.00
C 506.09 510.19 509.46 506.63 512.00 503.00
L 512.00 235.00
C 500.84 227.51 492.68 235.05 479.00 232.00 C 465.32 228.95 462.38 241.04 464.00 253.00 C 465.62 264.96 463.24 277.06 464.00 289.00 C 464.76 300.94 463.59 313.13 464.00 325.00 C 464.41 336.87 463.70 348.18 464.00 360.00
C 456.33 360.00 448.67 360.00 441.00 360.00
C 444.22 349.68 448.52 343.72 454.07 335.07 C 459.62 326.42 455.86 311.57 457.00 301.00 C 458.14 290.43 454.14 277.41 453.00 267.00 C 451.86 256.59 449.75 246.03 446.99 236.01 C 444.23 225.98 443.11 216.50 439.33 206.67 C 435.55 196.84 435.66 187.38 430.32 177.68 C 424.99 167.98 428.66 161.97 434.07 153.07 C 439.49 144.18 439.20 130.19 439.00 120.00 C 438.80 109.81 435.90 98.96 431.75 90.25 C 427.60 81.53 422.39 75.86 414.22 70.78 C 406.06 65.69 393.43 66.45 385.25 72.25 C 377.06 78.05 373.02 82.25 366.92 90.92 C 360.83 99.60 363.40 112.54 361.00 123.00 C 358.60 133.46 366.56 141.32 368.22 150.78 C 369.88 160.24 375.36 168.19 384.00 172.00
C 381.30 195.93 369.28 217.14 363.00 240.00
C 344.57 239.34 323.13 240.88 305.00 240.00 C 286.87 239.12 277.04 256.04 281.00 272.00
C 264.67 272.00 248.33 272.00 232.00 272.00
C 234.14 263.29 233.20 254.77 227.25 247.75 C 221.30 240.74 213.08 239.54 204.00 240.00 C 194.92 240.46 181.89 239.90 173.00 240.00 C 164.11 240.10 150.52 242.78 148.32 233.68 C 146.12 224.58 142.56 219.96 140.32 211.68 C 138.09 203.39 133.71 197.19 132.00 189.00 C 130.29 180.81 127.50 170.80 136.08 166.08 C 144.66 161.36 138.68 149.10 144.25 143.25 C 149.82 137.40 152.81 128.65 150.93 120.07 C 149.05 111.49 149.84 101.40 145.92 94.08 C 142.01 86.75 138.45 81.95 132.25 76.75 C 126.05 71.56 118.96 67.30 111.01 67.01 C 103.05 66.72 95.94 70.85 90.25 76.25 C 84.56 81.64 80.79 87.54 77.93 94.93 C 75.06 102.31 73.03 111.78 72.00 120.00 C 70.97 128.22 73.05 140.24 75.23 147.77 C 77.41 155.30 81.04 161.04 87.00 166.00
C 83.59 176.37 80.26 186.53 76.93 196.93 C 73.60 207.32 70.63 217.30 67.98 227.98 C 65.32 238.65 62.56 249.96 60.98 260.98 C 59.39 271.99 56.29 285.16 56.33 296.33 C 56.37 307.50 54.27 323.51 58.70 333.30 C 63.12 343.10 69.99 348.67 72.00 360.00
C 64.33 360.00 56.67 360.00 49.00 360.00
C 48.69 345.78 49.41 327.85 49.00 314.00 C 48.59 300.15 49.81 281.55 49.00 269.00 C 48.19 256.45 54.38 233.22 40.00 232.00 C 25.62 230.78 10.26 229.22 0.00 237.00
M 89.00 118.00 
C 91.91 105.77 92.48 97.23 102.75 87.75 C 113.02 78.28 125.81 90.94 115.70 100.70 C 105.58 110.45 99.31 110.20 89.00 118.00
M 422.00 118.00 
C 411.79 109.74 406.13 110.17 396.23 100.77 C 386.33 91.37 398.23 78.24 408.75 87.25 C 419.26 96.27 419.61 105.92 422.00 118.00
M 132.00 105.00 
C 131.75 112.83 139.17 125.67 131.75 131.75 C 124.33 137.84 129.53 149.27 122.75 155.75 C 115.98 162.23 105.70 160.88 98.77 155.23 C 91.84 149.58 89.76 141.35 95.77 134.77 C 101.78 128.19 107.90 124.62 115.69 121.69 C 123.49 118.77 127.42 110.79 132.00 105.00
M 380.00 105.00 
C 384.38 111.29 387.75 118.26 395.70 121.30 C 403.64 124.35 409.15 128.09 415.30 134.70 C 421.46 141.30 419.53 149.85 412.25 155.25 C 404.96 160.64 395.63 162.59 388.77 156.23 C 381.91 149.87 387.59 138.26 379.75 132.25 C 371.92 126.24 379.79 111.87 380.00 105.00
M 412.00 174.00 
C 426.38 221.41 443.39 269.68 440.00 321.00
C 432.76 318.39 426.02 317.11 418.78 314.22 C 411.54 311.33 403.89 311.01 396.78 307.22 C 389.66 303.43 393.66 291.11 393.00 282.00 C 392.34 272.89 382.95 270.68 374.00 272.00 C 365.05 273.32 353.86 271.14 345.00 272.00 C 336.14 272.86 324.24 271.02 316.00 272.00 C 307.76 272.98 294.69 272.39 297.00 262.00 C 299.31 251.61 312.33 257.29 320.00 256.00 C 327.67 254.71 341.26 257.16 349.00 256.00 C 356.74 254.84 369.63 259.18 374.75 252.75 C 379.87 246.32 379.82 239.12 382.93 231.93 C 386.03 224.73 388.60 218.55 390.92 210.92 C 393.25 203.30 397.30 197.56 397.98 188.98 C 398.65 180.39 400.69 172.78 412.00 174.00
M 172.00 280.00 
C 172.00 293.44 195.06 287.04 206.00 288.00 C 216.94 288.96 236.31 287.56 249.00 288.00 C 261.69 288.44 277.46 287.80 291.00 288.00 C 304.54 288.20 320.08 287.89 334.00 288.00 C 347.92 288.11 362.98 287.92 377.00 288.00
C 377.00 293.33 377.00 298.67 377.00 304.00
C 297.00 304.00 217.00 304.00 137.00 304.00
C 137.00 298.67 137.00 293.33 137.00 288.00
C 143.35 288.36 154.61 289.16 154.00 280.00
C 154.00 269.63 134.22 269.21 125.78 272.78 C 117.33 276.34 122.20 297.81 121.00 306.00
C 104.99 311.00 89.10 316.25 73.00 321.00
C 70.48 269.29 86.63 222.26 101.00 175.00
C 105.44 174.85 109.40 176.71 114.00 176.00
C 114.12 188.48 118.33 198.38 121.98 210.02 C 125.62 221.67 130.48 227.95 133.32 240.68 C 136.17 253.40 145.33 258.96 160.00 256.00 C 174.67 253.04 186.60 259.00 202.00 256.00 C 217.40 253.00 220.53 270.97 206.00 272.00 C 191.47 273.03 177.61 266.50 172.00 280.00
M 33.00 248.00 
C 32.62 261.07 33.51 272.79 33.00 286.00 C 32.49 299.21 33.97 310.30 33.00 324.00 C 32.03 337.70 35.09 347.11 33.00 362.00 C 30.91 376.89 45.28 376.53 57.00 376.00 C 68.72 375.47 85.33 375.25 96.00 376.00 C 106.67 376.75 123.89 370.84 128.30 381.70 C 132.72 392.55 127.43 407.02 129.00 419.00 C 130.57 430.98 128.20 444.58 129.00 457.00 C 129.80 469.42 128.40 483.43 129.00 496.00
C 123.67 496.00 118.33 496.00 113.00 496.00
C 111.45 479.75 115.06 454.33 113.00 439.00 C 110.94 423.67 121.40 393.82 102.00 392.00 C 82.60 390.18 64.84 391.99 45.00 392.00 C 25.16 392.01 34.52 422.23 33.00 438.00 C 31.48 453.77 34.14 479.34 33.00 496.00
C 27.67 496.00 22.33 496.00 17.00 496.00
C 17.00 413.33 17.00 330.67 17.00 248.00
C 22.33 248.00 27.67 248.00 33.00 248.00
M 497.00 248.00 
C 497.00 330.67 497.00 413.33 497.00 496.00
C 491.67 496.00 486.33 496.00 481.00 496.00
C 479.45 479.75 483.06 454.33 481.00 439.00 C 478.94 423.67 489.40 393.83 470.00 392.00 C 450.60 390.18 432.84 391.99 413.00 392.00 C 393.16 392.01 402.52 422.23 401.00 438.00 C 399.48 453.77 402.14 479.34 401.00 496.00
C 395.67 496.00 390.33 496.00 385.00 496.00
C 385.59 483.58 384.22 470.34 385.00 458.00 C 385.78 445.66 383.50 432.03 385.00 420.00 C 386.50 407.97 381.77 393.30 385.00 382.00 C 388.23 370.70 406.82 376.91 417.00 376.00 C 427.18 375.09 444.94 375.79 456.00 376.00 C 467.06 376.21 482.21 377.48 481.00 363.00 C 479.79 348.52 481.56 338.56 481.00 325.00 C 480.44 311.44 481.29 300.23 481.00 287.00 C 480.71 273.77 481.22 261.17 481.00 248.00
C 486.33 248.00 491.67 248.00 497.00 248.00
M 232.00 320.00 
C 232.00 368.67 232.00 417.33 232.00 466.00
C 218.74 464.16 221.37 447.31 219.02 435.98 C 216.68 424.64 215.49 410.31 213.22 398.78 C 210.95 387.24 209.61 372.32 208.00 361.00 C 206.39 349.68 202.46 339.28 191.92 334.08 C 181.39 328.87 171.85 324.83 161.00 321.00
C 183.76 318.67 208.48 320.66 232.00 320.00
M 273.00 364.00 
C 282.68 364.12 281.08 353.45 281.00 346.00 C 280.92 338.55 281.06 327.76 281.00 320.00
C 304.50 320.67 329.32 318.67 352.00 321.00
C 338.81 329.46 316.03 328.69 309.23 346.23 C 302.43 363.77 302.97 385.11 299.01 404.01 C 295.05 422.91 293.12 444.65 290.00 464.00
C 286.98 464.54 284.16 465.87 281.00 466.00
C 279.77 451.22 282.64 432.38 281.00 418.00 C 279.36 403.62 287.51 383.06 273.00 377.00
C 259.87 377.76 265.46 401.02 265.00 412.00 C 264.54 422.98 264.47 443.64 265.00 456.00 C 265.53 468.36 262.97 481.06 256.00 491.00
C 250.96 478.59 247.96 468.59 249.00 454.00 C 250.04 439.41 248.51 423.73 249.00 409.00 C 249.49 394.27 248.75 379.80 249.00 365.00 C 249.25 350.20 248.81 334.85 249.00 320.00
C 254.33 320.00 259.67 320.00 265.00 320.00
C 268.47 333.64 256.99 358.36 273.00 364.00
M 241.00 496.00 
C 230.22 495.35 216.48 496.86 206.00 496.00 C 195.52 495.14 198.51 478.98 195.67 470.33 C 192.83 461.68 191.33 451.12 189.07 441.93 C 186.82 432.73 185.21 421.22 183.01 411.99 C 180.81 402.77 178.59 392.31 176.67 383.33 C 174.76 374.35 172.88 364.50 162.77 361.23 C 152.66 357.96 139.68 360.92 129.00 360.00 C 118.32 359.08 104.81 361.95 95.31 357.69 C 85.80 353.44 81.87 344.86 82.00 335.00
C 93.21 330.13 103.69 330.31 115.02 325.02 C 126.35 319.74 134.03 327.98 145.23 331.77 C 156.43 335.56 163.02 341.48 175.23 344.77 C 187.44 348.06 191.96 358.82 192.78 371.22 C 193.60 383.62 196.24 397.18 198.00 409.00 C 199.76 420.83 202.02 434.95 204.00 446.00 C 205.97 457.05 204.52 472.86 214.23 478.77 C 223.94 484.68 240.97 479.87 241.00 496.00
M 432.00 335.00 
C 432.01 358.94 406.57 362.87 387.00 360.00 C 367.43 357.13 340.60 358.35 337.22 380.22 C 333.84 402.09 328.54 417.33 325.00 438.00 C 321.46 458.68 316.13 475.76 312.00 496.00
C 299.00 496.00 286.00 496.00 273.00 496.00
C 270.86 475.54 302.54 487.44 304.99 470.99 C 307.44 454.54 311.50 437.76 312.99 420.99 C 314.48 404.22 320.99 388.06 320.98 370.98 C 320.96 353.89 332.26 344.31 347.68 340.68 C 363.09 337.05 373.09 325.32 388.03 323.03 C 402.96 320.73 416.88 334.35 432.00 335.00 Z"/>
</g>
<g fill="#656465" fill-opacity="1.00" stroke="None">
<path d="
M 89.00 118.00 
C 99.31 110.20 105.58 110.45 115.70 100.70 C 125.81 90.94 113.02 78.28 102.75 87.75 C 92.48 97.23 91.91 105.77 89.00 118.00 Z"/>
</g>
<g fill="#656465" fill-opacity="1.00" stroke="None">
<path d="
M 422.00 118.00 
C 419.61 105.92 419.26 96.27 408.75 87.25 C 398.23 78.24 386.33 91.37 396.23 100.77 C 406.13 110.17 411.79 109.74 422.00 118.00 Z"/>
</g>
<g fill="#FCD2BF" fill-opacity="1.00" stroke="None">
<path d="
M 132.00 105.00 
C 127.42 110.79 123.49 118.77 115.69 121.69 C 107.90 124.62 101.78 128.19 95.77 134.77 C 89.76 141.35 91.84 149.58 98.77 155.23 C 105.70 160.88 115.98 162.23 122.75 155.75 C 129.53 149.27 124.33 137.84 131.75 131.75 C 139.17 125.67 131.75 112.83 132.00 105.00 Z"/>
</g>
<g fill="#FBD1BF" fill-opacity="1.00" stroke="None">
<path d="
M 380.00 105.00 
C 379.79 111.87 371.92 126.24 379.75 132.25 C 387.59 138.26 381.91 149.87 388.77 156.23 C 395.63 162.59 404.96 160.64 412.25 155.25 C 419.53 149.85 421.46 141.30 415.30 134.70 C 409.15 128.09 403.64 124.35 395.70 121.30 C 387.75 118.26 384.38 111.29 380.00 105.00 Z"/>
</g>
<g fill="#7C8AC9" fill-opacity="1.00" stroke="None">
<path d="
M 412.00 174.00 
C 400.69 172.78 398.65 180.39 397.98 188.98 C 397.30 197.56 393.25 203.30 390.92 210.92 C 388.60 218.55 386.03 224.73 382.93 231.93 C 379.82 239.12 379.87 246.32 374.75 252.75 C 369.63 259.18 356.74 254.84 349.00 256.00 C 341.26 257.16 327.67 254.71 320.00 256.00 C 312.33 257.29 299.31 251.61 297.00 262.00 C 294.69 272.39 307.76 272.98 316.00 272.00 C 324.24 271.02 336.14 272.86 345.00 272.00 C 353.86 271.14 365.05 273.32 374.00 272.00 C 382.95 270.68 392.34 272.89 393.00 282.00 C 393.66 291.11 389.66 303.43 396.78 307.22 C 403.89 311.01 411.54 311.33 418.78 314.22 C 426.02 317.11 432.76 318.39 440.00 321.00
C 443.39 269.68 426.38 221.41 412.00 174.00 Z"/>
</g>
<g fill="#7C8AC9" fill-opacity="1.00" stroke="None">
<path d="
M 154.00 280.00 
C 160.00 280.00 166.00 280.00 172.00 280.00
C 177.61 266.50 191.47 273.03 206.00 272.00 C 220.53 270.97 217.40 253.00 202.00 256.00 C 186.60 259.00 174.67 253.04 160.00 256.00 C 145.33 258.96 136.17 253.40 133.32 240.68 C 130.48 227.95 125.62 221.67 121.98 210.02 C 118.33 198.38 114.12 188.48 114.00 176.00
C 109.40 176.71 105.44 174.85 101.00 175.00
C 86.63 222.26 70.48 269.29 73.00 321.00
C 89.10 316.25 104.99 311.00 121.00 306.00
C 122.20 297.81 117.33 276.34 125.78 272.78 C 134.22 269.21 154.00 269.63 154.00 280.00 Z"/>
</g>
<g fill="#462A3B" fill-opacity="0.36" stroke="None">
<path d="
M 0.00 499.00 
C 1.67 413.47 1.67 324.60 0.00 239.00
L 0.00 499.00 Z"/>
</g>
<g fill="#FBD1BF" fill-opacity="1.00" stroke="None">
<path d="
M 33.00 248.00 
C 27.67 248.00 22.33 248.00 17.00 248.00
C 17.00 330.67 17.00 413.33 17.00 496.00
C 22.33 496.00 27.67 496.00 33.00 496.00
C 34.14 479.34 31.48 453.77 33.00 438.00 C 34.52 422.23 25.16 392.01 45.00 392.00 C 64.84 391.99 82.60 390.18 102.00 392.00 C 121.40 393.82 110.94 423.67 113.00 439.00 C 115.06 454.33 111.45 479.75 113.00 496.00
C 118.33 496.00 123.67 496.00 129.00 496.00
C 128.40 483.43 129.80 469.42 129.00 457.00 C 128.20 444.58 130.57 430.98 129.00 419.00 C 127.43 407.02 132.72 392.55 128.30 381.70 C 123.89 370.84 106.67 376.75 96.00 376.00 C 85.33 375.25 68.72 375.47 57.00 376.00 C 45.28 376.53 30.91 376.89 33.00 362.00 C 35.09 347.11 32.03 337.70 33.00 324.00 C 33.97 310.30 32.49 299.21 33.00 286.00 C 33.51 272.79 32.62 261.07 33.00 248.00 Z"/>
</g>
<g fill="#FBD1BF" fill-opacity="1.00" stroke="None">
<path d="
M 497.00 248.00 
C 491.67 248.00 486.33 248.00 481.00 248.00
C 481.22 261.17 480.71 273.77 481.00 287.00 C 481.29 300.23 480.44 311.44 481.00 325.00 C 481.56 338.56 479.79 348.52 481.00 363.00 C 482.21 377.48 467.06 376.21 456.00 376.00 C 444.94 375.79 427.18 375.09 417.00 376.00 C 406.82 376.91 388.23 370.70 385.00 382.00 C 381.77 393.30 386.50 407.97 385.00 420.00 C 383.50 432.03 385.78 445.66 385.00 458.00 C 384.22 470.34 385.59 483.58 385.00 496.00
C 390.33 496.00 395.67 496.00 401.00 496.00
C 402.14 479.34 399.48 453.77 401.00 438.00 C 402.52 422.23 393.16 392.01 413.00 392.00 C 432.84 391.99 450.60 390.18 470.00 392.00 C 489.40 393.83 478.94 423.67 481.00 439.00 C 483.06 454.33 479.45 479.75 481.00 496.00
C 486.33 496.00 491.67 496.00 497.00 496.00
C 497.00 413.33 497.00 330.67 497.00 248.00 Z"/>
</g>
<g fill="#E5E4EC" fill-opacity="1.00" stroke="None">
<path d="
M 172.00 280.00 
C 166.00 280.00 160.00 280.00 154.00 280.00
C 154.61 289.16 143.35 288.36 137.00 288.00
C 137.00 293.33 137.00 298.67 137.00 304.00
C 217.00 304.00 297.00 304.00 377.00 304.00
C 377.00 298.67 377.00 293.33 377.00 288.00
C 362.98 287.92 347.92 288.11 334.00 288.00 C 320.08 287.89 304.54 288.20 291.00 288.00 C 277.46 287.80 261.69 288.44 249.00 288.00 C 236.31 287.56 216.94 288.96 206.00 288.00 C 195.06 287.04 172.00 293.44 172.00 280.00 Z"/>
</g>
<g fill="#000000" fill-opacity="0.00" stroke="None">
<path d="
M 232.00 320.00 
C 208.48 320.66 183.76 318.67 161.00 321.00
C 171.85 324.83 181.39 328.87 191.92 334.08 C 202.46 339.28 206.39 349.68 208.00 361.00 C 209.61 372.32 210.95 387.24 213.22 398.78 C 215.49 410.31 216.68 424.64 219.02 435.98 C 221.37 447.31 218.74 464.16 232.00 466.00
C 232.00 417.33 232.00 368.67 232.00 320.00 Z"/>
</g>
<g fill="#E2E1E9" fill-opacity="1.00" stroke="None">
<path d="
M 273.00 377.00 
C 274.77 373.58 271.67 367.65 273.00 364.00
C 256.99 358.36 268.47 333.64 265.00 320.00
C 259.67 320.00 254.33 320.00 249.00 320.00
C 248.81 334.85 249.25 350.20 249.00 365.00 C 248.75 379.80 249.49 394.27 249.00 409.00 C 248.51 423.73 250.04 439.41 249.00 454.00 C 247.96 468.59 250.96 478.59 256.00 491.00
C 262.97 481.06 265.53 468.36 265.00 456.00 C 264.47 443.64 264.54 422.98 265.00 412.00 C 265.46 401.02 259.87 377.76 273.00 377.00 Z"/>
</g>
<g fill="#000000" fill-opacity="0.00" stroke="None">
<path d="
M 273.00 364.00 
C 271.67 367.65 274.77 373.58 273.00 377.00
C 287.51 383.06 279.36 403.62 281.00 418.00 C 282.64 432.38 279.77 451.22 281.00 466.00
C 284.16 465.87 286.98 464.54 290.00 464.00
C 293.12 444.65 295.05 422.91 299.01 404.01 C 302.97 385.11 302.43 363.77 309.23 346.23 C 316.03 328.69 338.81 329.46 352.00 321.00
C 329.32 318.67 304.50 320.67 281.00 320.00
C 281.06 327.76 280.92 338.55 281.00 346.00 C 281.08 353.45 282.68 364.12 273.00 364.00 Z"/>
</g>
<g fill="#656565" fill-opacity="1.00" stroke="None">
<path d="
M 241.00 496.00 
C 240.97 479.87 223.94 484.68 214.23 478.77 C 204.52 472.86 205.97 457.05 204.00 446.00 C 202.02 434.95 199.76 420.83 198.00 409.00 C 196.24 397.18 193.60 383.62 192.78 371.22 C 191.96 358.82 187.44 348.06 175.23 344.77 C 163.02 341.48 156.43 335.56 145.23 331.77 C 134.03 327.98 126.35 319.74 115.02 325.02 C 103.69 330.31 93.21 330.13 82.00 335.00
C 81.87 344.86 85.80 353.44 95.31 357.69 C 104.81 361.95 118.32 359.08 129.00 360.00 C 139.68 360.92 152.66 357.96 162.77 361.23 C 172.88 364.50 174.76 374.35 176.67 383.33 C 178.59 392.31 180.81 402.77 183.01 411.99 C 185.21 421.22 186.82 432.73 189.07 441.93 C 191.33 451.12 192.83 461.68 195.67 470.33 C 198.51 478.98 195.52 495.14 206.00 496.00 C 216.48 496.86 230.22 495.35 241.00 496.00 Z"/>
</g>
<g fill="#656565" fill-opacity="1.00" stroke="None">
<path d="
M 432.00 335.00 
C 416.88 334.35 402.96 320.73 388.03 323.03 C 373.09 325.32 363.09 337.05 347.68 340.68 C 332.26 344.31 320.96 353.89 320.98 370.98 C 320.99 388.06 314.48 404.22 312.99 420.99 C 311.50 437.76 307.44 454.54 304.99 470.99 C 302.54 487.44 270.86 475.54 273.00 496.00
C 286.00 496.00 299.00 496.00 312.00 496.00
C 316.13 475.76 321.46 458.68 325.00 438.00 C 328.54 417.33 333.84 402.09 337.22 380.22 C 340.60 358.35 367.43 357.13 387.00 360.00 C 406.57 362.87 432.01 358.94 432.00 335.00 Z"/>
</g>
<g fill="#000000" fill-opacity="0.00" stroke="None">
<path d="
M 134.00 512.00 
L 196.00 512.00
C 183.09 506.35 183.55 492.47 180.78 480.22 C 178.01 467.97 174.94 454.16 172.33 441.67 C 169.71 429.18 167.11 415.21 163.99 403.01 C 160.87 390.80 162.57 370.96 144.00 376.00
C 144.61 398.41 146.59 426.66 145.00 449.00 C 143.41 471.34 153.01 498.67 134.00 512.00 Z"/>
</g>
<g fill="#000000" fill-opacity="0.00" stroke="None">
<path d="
M 317.00 512.00 
L 379.00 512.00
C 360.03 498.04 369.58 471.39 368.00 449.00 C 366.42 426.61 368.40 398.45 369.00 376.00
C 350.81 371.17 352.15 390.84 348.99 402.99 C 345.84 415.15 343.98 429.68 340.98 441.98 C 337.97 454.28 335.53 468.64 332.78 480.78 C 330.03 492.91 329.82 506.75 317.00 512.00 Z"/>
</g>
<g fill="#000000" fill-opacity="0.00" stroke="None">
<path d="
M 38.00 512.00 
L 107.00 512.00
C 90.11 502.55 96.99 482.41 96.00 465.00 C 95.01 447.59 96.74 425.80 96.00 408.00
C 80.33 408.00 64.67 408.00 49.00 408.00
C 48.32 425.96 49.91 448.49 49.00 466.00 C 48.09 483.51 54.76 503.10 38.00 512.00 Z"/>
</g>
<g fill="#000000" fill-opacity="0.00" stroke="None">
<path d="
M 406.00 512.00 
L 475.00 512.00
C 458.11 502.55 464.99 482.41 464.00 465.00 C 463.01 447.59 464.74 425.80 464.00 408.00
C 448.33 408.00 432.67 408.00 417.00 408.00
C 416.32 425.96 417.91 448.49 417.00 466.00 C 416.09 483.51 422.76 503.10 406.00 512.00 Z"/>
</g>
<g fill="#000000" fill-opacity="0.00" stroke="None">
<path d="
M 0.00 512.00 
L 11.00 512.00
C 6.48 509.42 1.68 505.03 0.00 500.00
L 0.00 512.00 Z"/>
</g>
<g fill="#000000" fill-opacity="0.00" stroke="None">
<path d="
M 502.00 512.00 
L 512.00 512.00
L 512.00 503.00
C 509.46 506.63 506.09 510.19 502.00 512.00 Z"/>
</g>
</svg>