<svg xmlns="http://www.w3.org/2000/svg" xmlns:v="https://svgstorm.com"
viewBox = "0 0 512 512"
width="512"
height="512">
<g fill="None" fill-opacity="0.0" stroke="#000000" stroke-opacity="0.00" stroke-width="0.3"><path d="
M 0.00 512.00 
L 512.00 512.00
L 512.00 0.00
L 0.00 0.00
L 0.00 512.00
M 405.00 192.00 
C 375.41 192.00 347.74 181.31 331.75 155.25 C 315.75 129.19 315.78 94.85 331.77 68.77 C 347.76 42.70 375.33 32.00 405.00 32.00
C 447.58 32.00 480.02 71.25 480.00 112.00 C 479.98 152.75 447.56 192.00 405.00 192.00
M 271.00 442.00 
C 259.92 446.56 250.62 448.58 239.92 442.08 C 229.23 435.57 219.60 435.22 209.77 429.23 C 199.94 423.23 191.60 419.76 182.92 413.08 C 174.24 406.41 167.19 401.09 159.25 393.75 C 151.31 386.41 145.80 379.18 139.08 370.92 C 132.36 362.66 127.44 354.40 122.08 344.92 C 116.71 335.45 112.13 326.60 108.22 315.78 C 104.32 304.95 101.52 294.07 99.02 281.98 C 96.52 269.88 95.70 255.59 96.00 242.00 C 96.30 228.41 95.86 213.04 96.00 199.00 C 96.14 184.96 95.93 170.29 96.00 156.00 C 96.07 141.71 95.95 126.38 96.00 112.00
C 106.67 112.00 117.33 112.00 128.00 112.00
C 140.82 112.00 156.99 111.57 169.00 110.00 C 181.02 108.44 191.51 103.84 202.07 100.07 C 212.64 96.31 220.22 88.10 229.25 83.25 C 238.27 78.39 244.77 67.85 253.75 64.75 C 262.73 61.65 270.93 77.19 279.25 80.75 C 287.56 84.32 296.59 95.45 306.00 98.00
C 293.72 159.68 355.57 218.91 416.00 206.00
C 421.39 259.01 409.65 319.13 380.70 360.70 C 351.74 402.26 316.54 426.27 271.00 442.00 Z"/>
</g>
<g fill="None" fill-opacity="0.0" stroke="#DD4733" stroke-opacity="0.96" stroke-width="0.3"><path d="
M 405.00 192.00 
C 366.66 186.52 336.03 151.15 336.00 112.00 C 335.97 72.85 366.87 38.19 405.00 32.00
C 375.33 32.00 347.76 42.70 331.77 68.77 C 315.78 94.85 315.75 129.19 331.75 155.25 C 347.74 181.31 375.41 192.00 405.00 192.00 Z"/>
</g>
<g fill="None" fill-opacity="0.0" stroke="#F96450" stroke-opacity="0.99" stroke-width="0.3"><path d="
M 405.00 192.00 
C 447.56 192.00 479.98 152.75 480.00 112.00 C 480.02 71.25 447.58 32.00 405.00 32.00
C 366.87 38.19 335.97 72.85 336.00 112.00 C 336.03 151.15 366.66 186.52 405.00 192.00
M 372.00 78.00 
C 376.83 84.39 383.33 92.38 388.25 85.25 C 393.18 78.13 406.08 77.11 411.25 84.75 C 416.41 92.40 422.98 84.90 428.00 78.00
C 430.75 77.73 431.68 81.29 434.00 82.00
C 430.40 92.72 412.87 95.10 416.00 108.00
C 421.33 108.00 426.67 108.00 432.00 108.00
C 435.48 119.36 422.88 115.42 416.00 116.00
C 413.74 128.08 428.68 132.31 435.00 141.00
C 430.13 149.00 425.45 144.11 420.25 137.75 C 415.05 131.39 411.64 140.17 404.92 142.92 C 398.21 145.68 390.16 141.33 386.23 135.77 C 382.30 130.21 375.11 144.28 372.00 146.00
C 369.25 146.27 368.32 142.71 366.00 142.00
C 369.62 131.30 387.03 128.75 384.00 116.00
C 378.67 116.00 373.33 116.00 368.00 116.00
C 364.52 104.64 377.12 108.58 384.00 108.00
C 386.46 96.22 372.09 92.34 366.00 84.00
C 366.41 81.33 369.28 78.33 372.00 78.00 Z"/>
</g>
<g fill="None" fill-opacity="0.0" stroke="#3BC7B3" stroke-opacity="0.99" stroke-width="0.3"><path d="
M 128.00 112.00 
C 127.97 126.19 128.05 140.86 128.00 155.00 C 127.95 169.14 128.09 184.04 128.00 198.00 C 127.91 211.96 128.19 227.48 128.00 241.00 C 127.81 254.52 128.89 268.81 131.00 281.00 C 133.11 293.19 137.20 303.37 140.78 314.22 C 144.35 325.08 148.87 334.49 153.92 344.08 C 158.98 353.66 164.92 361.52 171.25 369.75 C 177.57 377.99 183.42 385.89 191.25 392.75 C 199.07 399.62 206.09 406.97 214.75 412.25 C 223.40 417.54 232.07 425.13 241.70 428.31 C 251.32 431.48 261.42 440.78 271.00 442.00
C 316.54 426.27 351.74 402.26 380.70 360.70 C 409.65 319.13 421.39 259.01 416.00 206.00
C 355.57 218.91 293.72 159.68 306.00 98.00
C 296.59 95.45 287.56 84.32 279.25 80.75 C 270.93 77.19 262.73 61.65 253.75 64.75 C 244.77 67.85 238.27 78.39 229.25 83.25 C 220.22 88.10 212.64 96.31 202.07 100.07 C 191.51 103.84 181.02 108.44 169.00 110.00 C 156.99 111.57 140.82 112.00 128.00 112.00
M 264.00 160.00 
C 335.62 166.93 376.41 252.02 334.75 310.75 C 293.08 369.47 205.46 364.04 171.08 300.92 C 136.70 237.80 189.24 152.77 264.00 160.00 Z"/>
</g>
<g fill="None" fill-opacity="0.0" stroke="#F0EFEE" stroke-opacity="1.00" stroke-width="0.3"><path d="
M 372.00 78.00 
C 369.28 78.33 366.41 81.33 366.00 84.00
C 372.09 92.34 386.46 96.22 384.00 108.00
C 377.12 108.58 364.52 104.64 368.00 116.00
C 373.33 116.00 378.67 116.00 384.00 116.00
C 387.03 128.75 369.62 131.30 366.00 142.00
C 368.32 142.71 369.25 146.27 372.00 146.00
C 375.11 144.28 382.30 130.21 386.23 135.77 C 390.16 141.33 398.21 145.68 404.92 142.92 C 411.64 140.17 415.05 131.39 420.25 137.75 C 425.45 144.11 430.13 149.00 435.00 141.00
C 428.68 132.31 413.74 128.08 416.00 116.00
C 422.88 115.42 435.48 119.36 432.00 108.00
C 426.67 108.00 421.33 108.00 416.00 108.00
C 412.87 95.10 430.40 92.72 434.00 82.00
C 431.68 81.29 430.75 77.73 428.00 78.00
C 422.98 84.90 416.41 92.40 411.25 84.75 C 406.08 77.11 393.18 78.13 388.25 85.25 C 383.33 92.38 376.83 84.39 372.00 78.00 Z"/>
</g>
<g fill="None" fill-opacity="0.0" stroke="#1EAA96" stroke-opacity="0.99" stroke-width="0.3"><path d="
M 271.00 442.00 
C 261.42 440.78 251.32 431.48 241.70 428.31 C 232.07 425.13 223.40 417.54 214.75 412.25 C 206.09 406.97 199.07 399.62 191.25 392.75 C 183.42 385.89 177.57 377.99 171.25 369.75 C 164.92 361.52 158.98 353.66 153.92 344.08 C 148.87 334.49 144.35 325.08 140.78 314.22 C 137.20 303.37 133.11 293.19 131.00 281.00 C 128.89 268.81 127.81 254.52 128.00 241.00 C 128.19 227.48 127.91 211.96 128.00 198.00 C 128.09 184.04 127.95 169.14 128.00 155.00 C 128.05 140.86 127.97 126.19 128.00 112.00
C 117.33 112.00 106.67 112.00 96.00 112.00
C 95.95 126.38 96.07 141.71 96.00 156.00 C 95.93 170.29 96.14 184.96 96.00 199.00 C 95.86 213.04 96.30 228.41 96.00 242.00 C 95.70 255.59 96.52 269.88 99.02 281.98 C 101.52 294.07 104.32 304.95 108.22 315.78 C 112.13 326.60 116.71 335.45 122.08 344.92 C 127.44 354.40 132.36 362.66 139.08 370.92 C 145.80 379.18 151.31 386.41 159.25 393.75 C 167.19 401.09 174.24 406.41 182.92 413.08 C 191.60 419.76 199.94 423.23 209.77 429.23 C 219.60 435.22 229.23 435.57 239.92 442.08 C 250.62 448.58 259.92 446.56 271.00 442.00 Z"/>
</g>
<g fill="None" fill-opacity="0.0" stroke="#018C78" stroke-opacity="1.00" stroke-width="0.3"><path d="
M 264.00 160.00 
C 189.24 152.77 136.70 237.80 171.08 300.92 C 205.46 364.04 293.08 369.47 334.75 310.75 C 376.41 252.02 335.62 166.93 264.00 160.00
M 288.00 240.00 
C 309.24 242.00 302.93 265.00 304.00 281.00 C 305.07 297.00 306.41 320.49 285.00 320.00 C 263.59 319.51 249.45 319.01 228.00 320.00 C 206.55 320.99 206.49 298.35 208.00 282.00 C 209.51 265.65 202.07 242.15 224.00 240.00
C 224.54 227.05 220.39 204.43 233.75 196.75 C 247.11 189.07 264.00 188.87 277.70 196.31 C 291.39 203.74 287.70 226.90 288.00 240.00 Z"/>
</g>
<g fill="None" fill-opacity="0.0" stroke="#EFEFEF" stroke-opacity="1.00" stroke-width="0.3"><path d="
M 288.00 240.00 
C 287.70 226.90 291.39 203.74 277.70 196.31 C 264.00 188.87 247.11 189.07 233.75 196.75 C 220.39 204.43 224.54 227.05 224.00 240.00
C 202.07 242.15 209.51 265.65 208.00 282.00 C 206.49 298.35 206.55 320.99 228.00 320.00 C 249.45 319.01 263.59 319.51 285.00 320.00 C 306.41 320.49 305.07 297.00 304.00 281.00 C 302.93 265.00 309.24 242.00 288.00 240.00
M 280.00 240.00 
C 264.00 240.00 248.00 240.00 232.00 240.00
C 233.60 229.96 227.64 210.12 237.75 203.75 C 247.86 197.38 263.22 197.18 273.75 203.25 C 284.27 209.33 278.58 229.90 280.00 240.00 Z"/>
</g>
<g fill="None" fill-opacity="0.0" stroke="#028C78" stroke-opacity="1.00" stroke-width="0.3"><path d="
M 280.00 240.00 
C 278.58 229.90 284.27 209.33 273.75 203.25 C 263.22 197.18 247.86 197.38 237.75 203.75 C 227.64 210.12 233.60 229.96 232.00 240.00
C 248.00 240.00 264.00 240.00 280.00 240.00 Z"/>
</g>
<g fill="#000000" fill-opacity="0.00" stroke="None">
<path d="
M 0.00 512.00 
L 512.00 512.00
L 512.00 0.00
L 0.00 0.00
L 0.00 512.00
M 405.00 192.00 
C 375.41 192.00 347.74 181.31 331.75 155.25 C 315.75 129.19 315.78 94.85 331.77 68.77 C 347.76 42.70 375.33 32.00 405.00 32.00
C 447.58 32.00 480.02 71.25 480.00 112.00 C 479.98 152.75 447.56 192.00 405.00 192.00
M 271.00 442.00 
C 259.92 446.56 250.62 448.58 239.92 442.08 C 229.23 435.57 219.60 435.22 209.77 429.23 C 199.94 423.23 191.60 419.76 182.92 413.08 C 174.24 406.41 167.19 401.09 159.25 393.75 C 151.31 386.41 145.80 379.18 139.08 370.92 C 132.36 362.66 127.44 354.40 122.08 344.92 C 116.71 335.45 112.13 326.60 108.22 315.78 C 104.32 304.95 101.52 294.07 99.02 281.98 C 96.52 269.88 95.70 255.59 96.00 242.00 C 96.30 228.41 95.86 213.04 96.00 199.00 C 96.14 184.96 95.93 170.29 96.00 156.00 C 96.07 141.71 95.95 126.38 96.00 112.00
C 106.67 112.00 117.33 112.00 128.00 112.00
C 140.82 112.00 156.99 111.57 169.00 110.00 C 181.02 108.44 191.51 103.84 202.07 100.07 C 212.64 96.31 220.22 88.10 229.25 83.25 C 238.27 78.39 244.77 67.85 253.75 64.75 C 262.73 61.65 270.93 77.19 279.25 80.75 C 287.56 84.32 296.59 95.45 306.00 98.00
C 293.72 159.68 355.57 218.91 416.00 206.00
C 421.39 259.01 409.65 319.13 380.70 360.70 C 351.74 402.26 316.54 426.27 271.00 442.00 Z"/>
</g>
<g fill="#DD4733" fill-opacity="0.96" stroke="None">
<path d="
M 405.00 192.00 
C 366.66 186.52 336.03 151.15 336.00 112.00 C 335.97 72.85 366.87 38.19 405.00 32.00
C 375.33 32.00 347.76 42.70 331.77 68.77 C 315.78 94.85 315.75 129.19 331.75 155.25 C 347.74 181.31 375.41 192.00 405.00 192.00 Z"/>
</g>
<g fill="#F96450" fill-opacity="0.99" stroke="None">
<path d="
M 405.00 192.00 
C 447.56 192.00 479.98 152.75 480.00 112.00 C 480.02 71.25 447.58 32.00 405.00 32.00
C 366.87 38.19 335.97 72.85 336.00 112.00 C 336.03 151.15 366.66 186.52 405.00 192.00
M 372.00 78.00 
C 376.83 84.39 383.33 92.38 388.25 85.25 C 393.18 78.13 406.08 77.11 411.25 84.75 C 416.41 92.40 422.98 84.90 428.00 78.00
C 430.75 77.73 431.68 81.29 434.00 82.00
C 430.40 92.72 412.87 95.10 416.00 108.00
C 421.33 108.00 426.67 108.00 432.00 108.00
C 435.48 119.36 422.88 115.42 416.00 116.00
C 413.74 128.08 428.68 132.31 435.00 141.00
C 430.13 149.00 425.45 144.11 420.25 137.75 C 415.05 131.39 411.64 140.17 404.92 142.92 C 398.21 145.68 390.16 141.33 386.23 135.77 C 382.30 130.21 375.11 144.28 372.00 146.00
C 369.25 146.27 368.32 142.71 366.00 142.00
C 369.62 131.30 387.03 128.75 384.00 116.00
C 378.67 116.00 373.33 116.00 368.00 116.00
C 364.52 104.64 377.12 108.58 384.00 108.00
C 386.46 96.22 372.09 92.34 366.00 84.00
C 366.41 81.33 369.28 78.33 372.00 78.00 Z"/>
</g>
<g fill="#3BC7B3" fill-opacity="0.99" stroke="None">
<path d="
M 128.00 112.00 
C 127.97 126.19 128.05 140.86 128.00 155.00 C 127.95 169.14 128.09 184.04 128.00 198.00 C 127.91 211.96 128.19 227.48 128.00 241.00 C 127.81 254.52 128.89 268.81 131.00 281.00 C 133.11 293.19 137.20 303.37 140.78 314.22 C 144.35 325.08 148.87 334.49 153.92 344.08 C 158.98 353.66 164.92 361.52 171.25 369.75 C 177.57 377.99 183.42 385.89 191.25 392.75 C 199.07 399.62 206.09 406.97 214.75 412.25 C 223.40 417.54 232.07 425.13 241.70 428.31 C 251.32 431.48 261.42 440.78 271.00 442.00
C 316.54 426.27 351.74 402.26 380.70 360.70 C 409.65 319.13 421.39 259.01 416.00 206.00
C 355.57 218.91 293.72 159.68 306.00 98.00
C 296.59 95.45 287.56 84.32 279.25 80.75 C 270.93 77.19 262.73 61.65 253.75 64.75 C 244.77 67.85 238.27 78.39 229.25 83.25 C 220.22 88.10 212.64 96.31 202.07 100.07 C 191.51 103.84 181.02 108.44 169.00 110.00 C 156.99 111.57 140.82 112.00 128.00 112.00
M 264.00 160.00 
C 335.62 166.93 376.41 252.02 334.75 310.75 C 293.08 369.47 205.46 364.04 171.08 300.92 C 136.70 237.80 189.24 152.77 264.00 160.00 Z"/>
</g>
<g fill="#F0EFEE" fill-opacity="1.00" stroke="None">
<path d="
M 372.00 78.00 
C 369.28 78.33 366.41 81.33 366.00 84.00
C 372.09 92.34 386.46 96.22 384.00 108.00
C 377.12 108.58 364.52 104.64 368.00 116.00
C 373.33 116.00 378.67 116.00 384.00 116.00
C 387.03 128.75 369.62 131.30 366.00 142.00
C 368.32 142.71 369.25 146.27 372.00 146.00
C 375.11 144.28 382.30 130.21 386.23 135.77 C 390.16 141.33 398.21 145.68 404.92 142.92 C 411.64 140.17 415.05 131.39 420.25 137.75 C 425.45 144.11 430.13 149.00 435.00 141.00
C 428.68 132.31 413.74 128.08 416.00 116.00
C 422.88 115.42 435.48 119.36 432.00 108.00
C 426.67 108.00 421.33 108.00 416.00 108.00
C 412.87 95.10 430.40 92.72 434.00 82.00
C 431.68 81.29 430.75 77.73 428.00 78.00
C 422.98 84.90 416.41 92.40 411.25 84.75 C 406.08 77.11 393.18 78.13 388.25 85.25 C 383.33 92.38 376.83 84.39 372.00 78.00 Z"/>
</g>
<g fill="#1EAA96" fill-opacity="0.99" stroke="None">
<path d="
M 271.00 442.00 
C 261.42 440.78 251.32 431.48 241.70 428.31 C 232.07 425.13 223.40 417.54 214.75 412.25 C 206.09 406.97 199.07 399.62 191.25 392.75 C 183.42 385.89 177.57 377.99 171.25 369.75 C 164.92 361.52 158.98 353.66 153.92 344.08 C 148.87 334.49 144.35 325.08 140.78 314.22 C 137.20 303.37 133.11 293.19 131.00 281.00 C 128.89 268.81 127.81 254.52 128.00 241.00 C 128.19 227.48 127.91 211.96 128.00 198.00 C 128.09 184.04 127.95 169.14 128.00 155.00 C 128.05 140.86 127.97 126.19 128.00 112.00
C 117.33 112.00 106.67 112.00 96.00 112.00
C 95.95 126.38 96.07 141.71 96.00 156.00 C 95.93 170.29 96.14 184.96 96.00 199.00 C 95.86 213.04 96.30 228.41 96.00 242.00 C 95.70 255.59 96.52 269.88 99.02 281.98 C 101.52 294.07 104.32 304.95 108.22 315.78 C 112.13 326.60 116.71 335.45 122.08 344.92 C 127.44 354.40 132.36 362.66 139.08 370.92 C 145.80 379.18 151.31 386.41 159.25 393.75 C 167.19 401.09 174.24 406.41 182.92 413.08 C 191.60 419.76 199.94 423.23 209.77 429.23 C 219.60 435.22 229.23 435.57 239.92 442.08 C 250.62 448.58 259.92 446.56 271.00 442.00 Z"/>
</g>
<g fill="#018C78" fill-opacity="1.00" stroke="None">
<path d="
M 264.00 160.00 
C 189.24 152.77 136.70 237.80 171.08 300.92 C 205.46 364.04 293.08 369.47 334.75 310.75 C 376.41 252.02 335.62 166.93 264.00 160.00
M 288.00 240.00 
C 309.24 242.00 302.93 265.00 304.00 281.00 C 305.07 297.00 306.41 320.49 285.00 320.00 C 263.59 319.51 249.45 319.01 228.00 320.00 C 206.55 320.99 206.49 298.35 208.00 282.00 C 209.51 265.65 202.07 242.15 224.00 240.00
C 224.54 227.05 220.39 204.43 233.75 196.75 C 247.11 189.07 264.00 188.87 277.70 196.31 C 291.39 203.74 287.70 226.90 288.00 240.00 Z"/>
</g>
<g fill="#EFEFEF" fill-opacity="1.00" stroke="None">
<path d="
M 288.00 240.00 
C 287.70 226.90 291.39 203.74 277.70 196.31 C 264.00 188.87 247.11 189.07 233.75 196.75 C 220.39 204.43 224.54 227.05 224.00 240.00
C 202.07 242.15 209.51 265.65 208.00 282.00 C 206.49 298.35 206.55 320.99 228.00 320.00 C 249.45 319.01 263.59 319.51 285.00 320.00 C 306.41 320.49 305.07 297.00 304.00 281.00 C 302.93 265.00 309.24 242.00 288.00 240.00
M 280.00 240.00 
C 264.00 240.00 248.00 240.00 232.00 240.00
C 233.60 229.96 227.64 210.12 237.75 203.75 C 247.86 197.38 263.22 197.18 273.75 203.25 C 284.27 209.33 278.58 229.90 280.00 240.00 Z"/>
</g>
<g fill="#028C78" fill-opacity="1.00" stroke="None">
<path d="
M 280.00 240.00 
C 278.58 229.90 284.27 209.33 273.75 203.25 C 263.22 197.18 247.86 197.38 237.75 203.75 C 227.64 210.12 233.60 229.96 232.00 240.00
C 248.00 240.00 264.00 240.00 280.00 240.00 Z"/>
</g>
</svg>