<svg xmlns="http://www.w3.org/2000/svg" xmlns:v="https://svgstorm.com"
viewBox = "0 0 512 512"
width="512"
height="512">
<g fill="None" fill-opacity="0.0" stroke="#000000" stroke-opacity="0.00" stroke-width="0.3"><path d="
M 0.00 512.00 
L 512.00 512.00
L 512.00 0.00
L 0.00 0.00
L 0.00 512.00
M 429.00 401.00 
C 433.24 406.69 438.77 412.77 444.00 418.00
C 456.41 430.41 468.45 441.42 480.75 454.25 C 493.05 467.08 513.37 479.10 496.25 496.25 C 479.13 513.40 467.07 493.04 454.25 480.75 C 441.43 468.46 430.35 456.35 418.00 444.00
C 415.87 441.87 411.02 439.03 409.75 436.25 C 408.49 433.46 401.48 430.64 401.00 429.00
C 356.91 468.69 281.21 470.72 232.00 441.00
C 221.06 444.16 210.49 451.96 198.93 452.93 C 187.37 453.90 174.64 446.56 164.31 442.69 C 153.97 438.83 144.61 432.21 135.25 426.75 C 125.90 421.28 116.89 414.44 108.75 407.25 C 100.61 400.05 93.09 393.45 85.75 385.25 C 78.41 377.05 71.95 369.43 65.75 360.25 C 59.54 351.07 53.71 341.78 48.23 331.77 C 42.75 321.76 38.74 311.66 34.22 300.78 C 29.70 289.90 26.68 278.76 23.07 266.93 C 19.47 255.09 17.53 242.87 15.01 229.99 C 12.48 217.11 11.42 202.83 10.00 189.00 C 8.58 175.17 8.63 160.67 8.00 146.00 C 7.37 131.33 9.96 116.02 8.00 101.00 C 6.04 85.98 9.89 71.69 26.00 73.00 C 42.11 74.31 53.04 70.07 67.00 69.00 C 80.96 67.94 90.83 63.13 103.22 60.22 C 115.62 57.31 125.48 52.28 136.68 47.68 C 147.87 43.07 154.73 36.92 165.08 31.08 C 175.43 25.25 179.22 17.76 189.25 10.25 C 199.27 2.73 209.16 16.48 217.08 22.92 C 225.00 29.36 234.64 36.71 244.25 41.75 C 253.85 46.80 264.57 51.82 275.22 55.78 C 285.88 59.74 298.74 62.92 310.07 65.93 C 321.41 68.93 338.78 69.85 350.01 71.99 C 361.23 74.13 382.13 67.97 383.99 83.01 C 385.86 98.05 383.05 112.87 384.00 128.00 C 384.95 143.13 383.29 158.82 384.00 174.00
C 463.79 215.45 486.48 332.78 429.00 401.00 Z"/>
</g>
<g fill="None" fill-opacity="0.0" stroke="#C2EAEE" stroke-opacity="0.98" stroke-width="0.3"><path d="
M 401.00 429.00 
C 401.72 428.35 402.26 428.53 403.00 428.00
C 411.93 421.62 421.64 410.66 428.00 402.00
C 428.22 401.70 428.71 401.23 429.00 401.00
C 486.48 332.78 463.79 215.45 384.00 174.00
C 383.29 158.82 384.95 143.13 384.00 128.00 C 383.05 112.87 385.86 98.05 383.99 83.01 C 382.13 67.97 361.23 74.13 350.01 71.99 C 338.78 69.85 321.41 68.93 310.07 65.93 C 298.74 62.92 285.88 59.74 275.22 55.78 C 264.57 51.82 253.85 46.80 244.25 41.75 C 234.64 36.71 225.00 29.36 217.08 22.92 C 209.16 16.48 199.27 2.73 189.25 10.25 C 179.22 17.76 175.43 25.25 165.08 31.08 C 154.73 36.92 147.87 43.07 136.68 47.68 C 125.48 52.28 115.62 57.31 103.22 60.22 C 90.83 63.13 80.96 67.94 67.00 69.00 C 53.04 70.07 42.11 74.31 26.00 73.00 C 9.89 71.69 6.04 85.98 8.00 101.00 C 9.96 116.02 7.37 131.33 8.00 146.00 C 8.63 160.67 8.58 175.17 10.00 189.00 C 11.42 202.83 12.48 217.11 15.01 229.99 C 17.53 242.87 19.47 255.09 23.07 266.93 C 26.68 278.76 29.70 289.90 34.22 300.78 C 38.74 311.66 42.75 321.76 48.23 331.77 C 53.71 341.78 59.54 351.07 65.75 360.25 C 71.95 369.43 78.41 377.05 85.75 385.25 C 93.09 393.45 100.61 400.05 108.75 407.25 C 116.89 414.44 125.90 421.28 135.25 426.75 C 144.61 432.21 153.97 438.83 164.31 442.69 C 174.64 446.56 187.37 453.90 198.93 452.93 C 210.49 451.96 221.06 444.16 232.00 441.00
C 281.21 470.72 356.91 468.69 401.00 429.00
M 350.00 159.00 
C 283.54 140.27 210.12 169.99 175.08 229.08 C 140.04 288.17 149.19 369.08 200.00 417.00
C 188.68 416.68 177.03 410.71 167.31 405.70 C 157.58 400.68 149.46 394.60 140.75 388.25 C 132.04 381.89 124.47 375.11 116.75 367.25 C 109.04 359.39 103.04 352.20 96.75 343.25 C 90.45 334.31 84.55 325.71 79.23 315.77 C 73.91 305.83 70.26 296.14 65.69 285.31 C 61.13 274.47 58.33 262.91 55.01 250.99 C 51.69 239.07 49.89 227.38 47.67 214.33 C 45.45 201.28 44.77 188.10 43.01 173.99 C 41.25 159.89 45.92 144.98 43.00 130.00 C 40.08 115.02 46.74 102.85 62.02 104.02 C 77.31 105.19 86.10 98.97 99.07 97.07 C 112.05 95.18 121.79 90.10 133.23 86.23 C 144.66 82.35 153.25 77.72 163.69 72.69 C 174.14 67.67 181.10 60.57 191.08 55.08 C 201.06 49.59 210.03 62.00 219.23 66.77 C 228.43 71.54 238.91 77.77 249.03 81.98 C 259.14 86.18 270.43 90.34 281.07 93.93 C 291.72 97.52 307.20 99.04 317.67 102.33 C 328.14 105.62 347.68 100.47 349.98 114.02 C 352.28 127.58 348.30 145.08 350.00 159.00
M 321.00 171.00 
C 393.82 178.05 450.42 246.58 443.22 320.22 C 436.02 393.87 368.81 449.32 295.00 443.00 C 221.18 436.68 163.88 368.28 171.00 294.00 C 178.12 219.72 246.25 163.77 321.00 171.00 Z"/>
</g>
<g fill="None" fill-opacity="0.0" stroke="#39BC71" stroke-opacity="1.00" stroke-width="0.3"><path d="
M 350.00 159.00 
C 348.30 145.08 352.28 127.58 349.98 114.02 C 347.68 100.47 328.14 105.62 317.67 102.33 C 307.20 99.04 291.72 97.52 281.07 93.93 C 270.43 90.34 259.14 86.18 249.03 81.98 C 238.91 77.77 228.43 71.54 219.23 66.77 C 210.03 62.00 201.06 49.59 191.08 55.08 C 181.10 60.57 174.14 67.67 163.69 72.69 C 153.25 77.72 144.66 82.35 133.23 86.23 C 121.79 90.10 112.05 95.18 99.07 97.07 C 86.10 98.97 77.31 105.19 62.02 104.02 C 46.74 102.85 40.08 115.02 43.00 130.00 C 45.92 144.98 41.25 159.89 43.01 173.99 C 44.77 188.10 45.45 201.28 47.67 214.33 C 49.89 227.38 51.69 239.07 55.01 250.99 C 58.33 262.91 61.13 274.47 65.69 285.31 C 70.26 296.14 73.91 305.83 79.23 315.77 C 84.55 325.71 90.45 334.31 96.75 343.25 C 103.04 352.20 109.04 359.39 116.75 367.25 C 124.47 375.11 132.04 381.89 140.75 388.25 C 149.46 394.60 157.58 400.68 167.31 405.70 C 177.03 410.71 188.68 416.68 200.00 417.00
C 149.19 369.08 140.04 288.17 175.08 229.08 C 210.12 169.99 283.54 140.27 350.00 159.00 Z"/>
</g>
<g fill="None" fill-opacity="0.0" stroke="#2CB5E2" stroke-opacity="1.00" stroke-width="0.3"><path d="
M 321.00 171.00 
C 246.25 163.77 178.12 219.72 171.00 294.00 C 163.88 368.28 221.18 436.68 295.00 443.00 C 368.81 449.32 436.02 393.87 443.22 320.22 C 450.42 246.58 393.82 178.05 321.00 171.00
M 280.00 345.00 
C 287.84 337.35 294.24 327.43 300.77 318.77 C 307.30 310.11 315.35 300.83 320.92 291.92 C 326.49 283.00 337.06 274.20 341.25 265.25 C 345.43 256.30 360.96 240.82 365.92 253.08 C 370.89 265.34 354.13 271.84 349.75 281.75 C 345.36 291.66 335.41 298.86 329.70 308.70 C 323.98 318.54 316.01 325.11 309.25 335.25 C 302.49 345.39 297.38 351.18 289.25 362.25 C 281.11 373.32 269.84 357.27 262.75 351.25 C 255.67 345.22 240.37 329.37 253.70 324.70 C 267.02 320.02 270.40 341.11 280.00 345.00 Z"/>
</g>
<g fill="None" fill-opacity="0.0" stroke="#FDFEFE" stroke-opacity="1.00" stroke-width="0.3"><path d="
M 280.00 345.00 
C 270.40 341.11 267.02 320.02 253.70 324.70 C 240.37 329.37 255.67 345.22 262.75 351.25 C 269.84 357.27 281.11 373.32 289.25 362.25 C 297.38 351.18 302.49 345.39 309.25 335.25 C 316.01 325.11 323.98 318.54 329.70 308.70 C 335.41 298.86 345.36 291.66 349.75 281.75 C 354.13 271.84 370.89 265.34 365.92 253.08 C 360.96 240.82 345.43 256.30 341.25 265.25 C 337.06 274.20 326.49 283.00 320.92 291.92 C 315.35 300.83 307.30 310.11 300.77 318.77 C 294.24 327.43 287.84 337.35 280.00 345.00 Z"/>
</g>
<g fill="None" fill-opacity="0.0" stroke="#93BBBC" stroke-opacity="0.19" stroke-width="0.3"><path d="
M 428.00 402.00 
C 429.01 406.79 440.10 415.11 443.00 419.00
C 443.21 418.73 443.88 417.98 444.00 418.00
C 438.77 412.77 433.24 406.69 429.00 401.00
C 428.71 401.23 428.22 401.70 428.00 402.00 Z"/>
</g>
<g fill="None" fill-opacity="0.0" stroke="#91BEBF" stroke-opacity="1.00" stroke-width="0.3"><path d="
M 403.00 428.00 
C 408.67 429.92 412.71 441.15 418.00 444.00
C 426.16 435.77 435.88 428.14 443.00 419.00
C 440.10 415.11 429.01 406.79 428.00 402.00
C 421.64 410.66 411.93 421.62 403.00 428.00 Z"/>
</g>
<g fill="None" fill-opacity="0.0" stroke="#7E3633" stroke-opacity="0.96" stroke-width="0.3"><path d="
M 443.00 419.00 
C 435.88 428.14 426.16 435.77 418.00 444.00
C 430.35 456.35 441.43 468.46 454.25 480.75 C 467.07 493.04 479.13 513.40 496.25 496.25 C 513.37 479.10 493.05 467.08 480.75 454.25 C 468.45 441.42 456.41 430.41 444.00 418.00
C 443.88 417.98 443.21 418.73 443.00 419.00 Z"/>
</g>
<g fill="None" fill-opacity="0.0" stroke="#93C2C3" stroke-opacity="0.23" stroke-width="0.3"><path d="
M 401.00 429.00 
C 401.48 430.64 408.49 433.46 409.75 436.25 C 411.02 439.03 415.87 441.87 418.00 444.00
C 412.71 441.15 408.67 429.92 403.00 428.00
C 402.26 428.53 401.72 428.35 401.00 429.00 Z"/>
</g>
<g fill="#000000" fill-opacity="0.00" stroke="None">
<path d="
M 0.00 512.00 
L 512.00 512.00
L 512.00 0.00
L 0.00 0.00
L 0.00 512.00
M 429.00 401.00 
C 433.24 406.69 438.77 412.77 444.00 418.00
C 456.41 430.41 468.45 441.42 480.75 454.25 C 493.05 467.08 513.37 479.10 496.25 496.25 C 479.13 513.40 467.07 493.04 454.25 480.75 C 441.43 468.46 430.35 456.35 418.00 444.00
C 415.87 441.87 411.02 439.03 409.75 436.25 C 408.49 433.46 401.48 430.64 401.00 429.00
C 356.91 468.69 281.21 470.72 232.00 441.00
C 221.06 444.16 210.49 451.96 198.93 452.93 C 187.37 453.90 174.64 446.56 164.31 442.69 C 153.97 438.83 144.61 432.21 135.25 426.75 C 125.90 421.28 116.89 414.44 108.75 407.25 C 100.61 400.05 93.09 393.45 85.75 385.25 C 78.41 377.05 71.95 369.43 65.75 360.25 C 59.54 351.07 53.71 341.78 48.23 331.77 C 42.75 321.76 38.74 311.66 34.22 300.78 C 29.70 289.90 26.68 278.76 23.07 266.93 C 19.47 255.09 17.53 242.87 15.01 229.99 C 12.48 217.11 11.42 202.83 10.00 189.00 C 8.58 175.17 8.63 160.67 8.00 146.00 C 7.37 131.33 9.96 116.02 8.00 101.00 C 6.04 85.98 9.89 71.69 26.00 73.00 C 42.11 74.31 53.04 70.07 67.00 69.00 C 80.96 67.94 90.83 63.13 103.22 60.22 C 115.62 57.31 125.48 52.28 136.68 47.68 C 147.87 43.07 154.73 36.92 165.08 31.08 C 175.43 25.25 179.22 17.76 189.25 10.25 C 199.27 2.73 209.16 16.48 217.08 22.92 C 225.00 29.36 234.64 36.71 244.25 41.75 C 253.85 46.80 264.57 51.82 275.22 55.78 C 285.88 59.74 298.74 62.92 310.07 65.93 C 321.41 68.93 338.78 69.85 350.01 71.99 C 361.23 74.13 382.13 67.97 383.99 83.01 C 385.86 98.05 383.05 112.87 384.00 128.00 C 384.95 143.13 383.29 158.82 384.00 174.00
C 463.79 215.45 486.48 332.78 429.00 401.00 Z"/>
</g>
<g fill="#C2EAEE" fill-opacity="0.98" stroke="None">
<path d="
M 401.00 429.00 
C 401.72 428.35 402.26 428.53 403.00 428.00
C 411.93 421.62 421.64 410.66 428.00 402.00
C 428.22 401.70 428.71 401.23 429.00 401.00
C 486.48 332.78 463.79 215.45 384.00 174.00
C 383.29 158.82 384.95 143.13 384.00 128.00 C 383.05 112.87 385.86 98.05 383.99 83.01 C 382.13 67.97 361.23 74.13 350.01 71.99 C 338.78 69.85 321.41 68.93 310.07 65.93 C 298.74 62.92 285.88 59.74 275.22 55.78 C 264.57 51.82 253.85 46.80 244.25 41.75 C 234.64 36.71 225.00 29.36 217.08 22.92 C 209.16 16.48 199.27 2.73 189.25 10.25 C 179.22 17.76 175.43 25.25 165.08 31.08 C 154.73 36.92 147.87 43.07 136.68 47.68 C 125.48 52.28 115.62 57.31 103.22 60.22 C 90.83 63.13 80.96 67.94 67.00 69.00 C 53.04 70.07 42.11 74.31 26.00 73.00 C 9.89 71.69 6.04 85.98 8.00 101.00 C 9.96 116.02 7.37 131.33 8.00 146.00 C 8.63 160.67 8.58 175.17 10.00 189.00 C 11.42 202.83 12.48 217.11 15.01 229.99 C 17.53 242.87 19.47 255.09 23.07 266.93 C 26.68 278.76 29.70 289.90 34.22 300.78 C 38.74 311.66 42.75 321.76 48.23 331.77 C 53.71 341.78 59.54 351.07 65.75 360.25 C 71.95 369.43 78.41 377.05 85.75 385.25 C 93.09 393.45 100.61 400.05 108.75 407.25 C 116.89 414.44 125.90 421.28 135.25 426.75 C 144.61 432.21 153.97 438.83 164.31 442.69 C 174.64 446.56 187.37 453.90 198.93 452.93 C 210.49 451.96 221.06 444.16 232.00 441.00
C 281.21 470.72 356.91 468.69 401.00 429.00
M 350.00 159.00 
C 283.54 140.27 210.12 169.99 175.08 229.08 C 140.04 288.17 149.19 369.08 200.00 417.00
C 188.68 416.68 177.03 410.71 167.31 405.70 C 157.58 400.68 149.46 394.60 140.75 388.25 C 132.04 381.89 124.47 375.11 116.75 367.25 C 109.04 359.39 103.04 352.20 96.75 343.25 C 90.45 334.31 84.55 325.71 79.23 315.77 C 73.91 305.83 70.26 296.14 65.69 285.31 C 61.13 274.47 58.33 262.91 55.01 250.99 C 51.69 239.07 49.89 227.38 47.67 214.33 C 45.45 201.28 44.77 188.10 43.01 173.99 C 41.25 159.89 45.92 144.98 43.00 130.00 C 40.08 115.02 46.74 102.85 62.02 104.02 C 77.31 105.19 86.10 98.97 99.07 97.07 C 112.05 95.18 121.79 90.10 133.23 86.23 C 144.66 82.35 153.25 77.72 163.69 72.69 C 174.14 67.67 181.10 60.57 191.08 55.08 C 201.06 49.59 210.03 62.00 219.23 66.77 C 228.43 71.54 238.91 77.77 249.03 81.98 C 259.14 86.18 270.43 90.34 281.07 93.93 C 291.72 97.52 307.20 99.04 317.67 102.33 C 328.14 105.62 347.68 100.47 349.98 114.02 C 352.28 127.58 348.30 145.08 350.00 159.00
M 321.00 171.00 
C 393.82 178.05 450.42 246.58 443.22 320.22 C 436.02 393.87 368.81 449.32 295.00 443.00 C 221.18 436.68 163.88 368.28 171.00 294.00 C 178.12 219.72 246.25 163.77 321.00 171.00 Z"/>
</g>
<g fill="#39BC71" fill-opacity="1.00" stroke="None">
<path d="
M 350.00 159.00 
C 348.30 145.08 352.28 127.58 349.98 114.02 C 347.68 100.47 328.14 105.62 317.67 102.33 C 307.20 99.04 291.72 97.52 281.07 93.93 C 270.43 90.34 259.14 86.18 249.03 81.98 C 238.91 77.77 228.43 71.54 219.23 66.77 C 210.03 62.00 201.06 49.59 191.08 55.08 C 181.10 60.57 174.14 67.67 163.69 72.69 C 153.25 77.72 144.66 82.35 133.23 86.23 C 121.79 90.10 112.05 95.18 99.07 97.07 C 86.10 98.97 77.31 105.19 62.02 104.02 C 46.74 102.85 40.08 115.02 43.00 130.00 C 45.92 144.98 41.25 159.89 43.01 173.99 C 44.77 188.10 45.45 201.28 47.67 214.33 C 49.89 227.38 51.69 239.07 55.01 250.99 C 58.33 262.91 61.13 274.47 65.69 285.31 C 70.26 296.14 73.91 305.83 79.23 315.77 C 84.55 325.71 90.45 334.31 96.75 343.25 C 103.04 352.20 109.04 359.39 116.75 367.25 C 124.47 375.11 132.04 381.89 140.75 388.25 C 149.46 394.60 157.58 400.68 167.31 405.70 C 177.03 410.71 188.68 416.68 200.00 417.00
C 149.19 369.08 140.04 288.17 175.08 229.08 C 210.12 169.99 283.54 140.27 350.00 159.00 Z"/>
</g>
<g fill="#2CB5E2" fill-opacity="1.00" stroke="None">
<path d="
M 321.00 171.00 
C 246.25 163.77 178.12 219.72 171.00 294.00 C 163.88 368.28 221.18 436.68 295.00 443.00 C 368.81 449.32 436.02 393.87 443.22 320.22 C 450.42 246.58 393.82 178.05 321.00 171.00
M 280.00 345.00 
C 287.84 337.35 294.24 327.43 300.77 318.77 C 307.30 310.11 315.35 300.83 320.92 291.92 C 326.49 283.00 337.06 274.20 341.25 265.25 C 345.43 256.30 360.96 240.82 365.92 253.08 C 370.89 265.34 354.13 271.84 349.75 281.75 C 345.36 291.66 335.41 298.86 329.70 308.70 C 323.98 318.54 316.01 325.11 309.25 335.25 C 302.49 345.39 297.38 351.18 289.25 362.25 C 281.11 373.32 269.84 357.27 262.75 351.25 C 255.67 345.22 240.37 329.37 253.70 324.70 C 267.02 320.02 270.40 341.11 280.00 345.00 Z"/>
</g>
<g fill="#FDFEFE" fill-opacity="1.00" stroke="None">
<path d="
M 280.00 345.00 
C 270.40 341.11 267.02 320.02 253.70 324.70 C 240.37 329.37 255.67 345.22 262.75 351.25 C 269.84 357.27 281.11 373.32 289.25 362.25 C 297.38 351.18 302.49 345.39 309.25 335.25 C 316.01 325.11 323.98 318.54 329.70 308.70 C 335.41 298.86 345.36 291.66 349.75 281.75 C 354.13 271.84 370.89 265.34 365.92 253.08 C 360.96 240.82 345.43 256.30 341.25 265.25 C 337.06 274.20 326.49 283.00 320.92 291.92 C 315.35 300.83 307.30 310.11 300.77 318.77 C 294.24 327.43 287.84 337.35 280.00 345.00 Z"/>
</g>
<g fill="#93BBBC" fill-opacity="0.19" stroke="None">
<path d="
M 428.00 402.00 
C 429.01 406.79 440.10 415.11 443.00 419.00
C 443.21 418.73 443.88 417.98 444.00 418.00
C 438.77 412.77 433.24 406.69 429.00 401.00
C 428.71 401.23 428.22 401.70 428.00 402.00 Z"/>
</g>
<g fill="#91BEBF" fill-opacity="1.00" stroke="None">
<path d="
M 403.00 428.00 
C 408.67 429.92 412.71 441.15 418.00 444.00
C 426.16 435.77 435.88 428.14 443.00 419.00
C 440.10 415.11 429.01 406.79 428.00 402.00
C 421.64 410.66 411.93 421.62 403.00 428.00 Z"/>
</g>
<g fill="#7E3633" fill-opacity="0.96" stroke="None">
<path d="
M 443.00 419.00 
C 435.88 428.14 426.16 435.77 418.00 444.00
C 430.35 456.35 441.43 468.46 454.25 480.75 C 467.07 493.04 479.13 513.40 496.25 496.25 C 513.37 479.10 493.05 467.08 480.75 454.25 C 468.45 441.42 456.41 430.41 444.00 418.00
C 443.88 417.98 443.21 418.73 443.00 419.00 Z"/>
</g>
<g fill="#93C2C3" fill-opacity="0.23" stroke="None">
<path d="
M 401.00 429.00 
C 401.48 430.64 408.49 433.46 409.75 436.25 C 411.02 439.03 415.87 441.87 418.00 444.00
C 412.71 441.15 408.67 429.92 403.00 428.00
C 402.26 428.53 401.72 428.35 401.00 429.00 Z"/>
</g>
</svg>