<svg xmlns="http://www.w3.org/2000/svg" xmlns:v="https://svgstorm.com"
viewBox = "0 0 721 360"
width="721"
height="360">
<g fill="None" fill-opacity="0.0" stroke="#92B1C0" stroke-opacity="1.00" stroke-width="0.3"><path d="
M 0.00 5.00 
C 31.15 37.28 61.09 68.42 92.00 99.00
C 92.45 101.31 89.47 102.07 89.00 104.00
C 98.85 118.09 115.03 128.29 126.00 141.00
C 131.30 147.14 128.36 150.80 126.00 158.00
C 115.07 157.85 106.40 171.29 98.25 179.25 C 90.10 187.20 76.54 196.78 77.00 208.00
C 73.09 207.50 71.43 202.56 68.00 201.00
C 67.55 198.69 70.53 197.93 71.00 196.00
C 70.48 196.32 69.41 196.65 69.00 197.00
C 68.19 197.69 67.62 199.19 67.00 200.00
C 48.15 224.92 20.38 243.52 0.00 267.00
L 0.00 287.00
C 13.17 273.74 27.88 261.19 40.00 247.00
C 44.93 241.23 44.27 239.59 44.78 233.78 C 45.30 227.96 55.69 226.82 59.00 225.00
C 58.03 222.63 56.25 220.61 56.00 218.00
C 62.57 219.41 65.30 206.69 72.00 205.00
C 76.67 210.82 83.71 214.68 88.00 221.00
C 89.04 222.00 89.96 222.97 91.00 224.00
C 93.96 226.92 96.99 232.04 101.00 234.00
C 100.49 233.75 100.32 232.34 100.00 232.00
C 98.17 230.04 92.14 227.20 95.00 224.00
C 88.69 224.73 85.10 211.79 79.00 210.00
C 79.78 201.88 86.89 196.23 92.75 190.75 C 98.61 185.27 103.91 178.71 109.75 173.75 C 115.60 168.79 120.64 158.93 128.00 160.00
C 139.68 147.64 127.18 136.58 117.75 128.25 C 108.33 119.91 100.40 110.43 92.00 102.00
C 98.65 90.34 106.73 89.44 114.75 77.75 C 122.77 66.06 132.18 75.51 139.75 84.25 C 147.32 92.98 155.49 99.31 163.25 107.75 C 171.00 116.19 180.15 122.95 187.00 132.00
C 187.36 131.67 188.49 130.98 189.00 131.00
C 191.36 131.10 194.76 136.65 196.00 138.00
C 195.81 137.59 196.00 137.00 196.00 137.00
C 195.69 136.15 194.57 134.62 194.00 134.00
C 192.97 132.88 191.09 130.94 190.00 130.00
C 189.25 129.36 187.97 128.82 187.00 128.00
C 141.22 89.18 104.34 40.31 60.00 0.00
L 59.00 0.00
C 62.93 4.83 67.84 9.33 72.25 13.75 C 76.66 18.17 81.89 23.52 86.25 27.75 C 90.61 31.98 95.60 37.49 99.75 41.25 C 103.91 45.00 110.05 52.45 113.75 55.25 C 117.45 58.04 127.63 69.16 122.30 68.64 C 116.97 68.13 113.55 57.88 108.92 55.08 C 104.28 52.28 99.04 45.05 94.90 41.10 C 90.76 37.15 85.78 32.27 81.23 27.77 C 76.68 23.27 71.47 18.55 66.92 14.08 C 62.37 9.61 56.99 4.42 53.00 0.00
L 0.00 0.00
L 0.00 5.00 Z"/>
</g>
<g fill="None" fill-opacity="0.0" stroke="#6B95A7" stroke-opacity="1.00" stroke-width="0.3"><path d="
M 59.00 0.00 
L 53.00 0.00
C 56.99 4.42 62.37 9.61 66.92 14.08 C 71.47 18.55 76.68 23.27 81.23 27.77 C 85.78 32.27 90.76 37.15 94.90 41.10 C 99.04 45.05 104.28 52.28 108.92 55.08 C 113.55 57.88 116.97 68.13 122.30 68.64 C 127.63 69.16 117.45 58.04 113.75 55.25 C 110.05 52.45 103.91 45.00 99.75 41.25 C 95.60 37.49 90.61 31.98 86.25 27.75 C 81.89 23.52 76.66 18.17 72.25 13.75 C 67.84 9.33 62.93 4.83 59.00 0.00 Z"/>
</g>
<g fill="None" fill-opacity="0.0" stroke="#C5D7DE" stroke-opacity="1.00" stroke-width="0.3"><path d="
M 187.00 128.00 
C 180.76 121.59 174.67 115.11 168.25 108.75 C 161.83 102.40 155.50 96.38 149.25 89.75 C 142.99 83.12 135.74 77.27 129.75 70.25 C 123.76 63.23 137.26 56.69 142.25 50.25 C 147.23 43.81 156.20 33.74 161.75 42.25 C 167.31 50.76 174.80 54.41 181.25 61.75 C 187.70 69.09 193.75 73.78 200.25 80.75 C 206.75 87.73 214.20 96.20 224.00 94.00
C 214.98 106.68 200.41 117.55 190.00 130.00
C 214.49 106.63 238.10 82.11 262.00 58.00
C 262.75 57.24 263.15 56.65 264.00 56.00
C 267.89 52.15 272.54 47.56 275.00 43.00
C 269.25 46.98 264.68 52.73 258.99 55.99 C 253.30 59.25 248.83 65.62 244.25 70.25 C 239.66 74.87 233.77 79.28 229.75 84.75 C 225.73 90.22 212.67 93.38 215.00 86.00
C 215.49 85.53 215.59 84.43 216.00 84.00
C 213.73 82.65 210.97 85.16 208.25 80.75 C 205.53 76.34 205.47 78.23 201.25 73.75 C 197.03 69.27 191.61 64.27 187.25 59.75 C 182.89 55.23 177.54 50.21 173.25 45.75 C 168.95 41.30 169.76 42.76 166.00 39.00
C 150.22 29.65 134.72 14.67 121.00 0.00
L 60.00 0.00
C 104.34 40.31 141.22 89.18 187.00 128.00 Z"/>
</g>
<g fill="None" fill-opacity="0.0" stroke="#A3BDC7" stroke-opacity="1.00" stroke-width="0.3"><path d="
M 166.00 39.00 
C 153.25 26.25 140.52 12.89 128.00 0.00
L 121.00 0.00
C 134.72 14.67 150.22 29.65 166.00 39.00 Z"/>
</g>
<g fill="None" fill-opacity="0.0" stroke="#EEF3F5" stroke-opacity="1.00" stroke-width="0.3"><path d="
M 166.00 39.00 
C 169.76 42.76 168.95 41.30 173.25 45.75 C 177.54 50.21 182.89 55.23 187.25 59.75 C 191.61 64.27 197.03 69.27 201.25 73.75 C 205.47 78.23 205.53 76.34 208.25 80.75 C 210.97 85.16 213.73 82.65 216.00 84.00
C 222.33 80.86 226.17 71.50 232.25 67.25 C 238.32 63.00 242.96 55.59 248.75 50.75 C 254.55 45.91 259.74 39.26 265.00 34.00
C 265.00 29.84 256.41 26.55 254.25 22.75 C 252.09 18.95 246.16 15.59 243.25 11.75 C 240.34 7.92 234.58 4.18 232.00 0.00
L 128.00 0.00
C 140.52 12.89 153.25 26.25 166.00 39.00 Z"/>
</g>
<g fill="None" fill-opacity="0.0" stroke="#CCDEE4" stroke-opacity="1.00" stroke-width="0.3"><path d="
M 265.00 34.00 
C 276.25 22.75 288.53 11.93 299.00 0.00
L 232.00 0.00
C 234.58 4.18 240.34 7.92 243.25 11.75 C 246.16 15.59 252.09 18.95 254.25 22.75 C 256.41 26.55 265.00 29.84 265.00 34.00 Z"/>
</g>
<g fill="None" fill-opacity="0.0" stroke="#9FB9C0" stroke-opacity="1.00" stroke-width="0.3"><path d="
M 265.00 34.00 
C 259.74 39.26 254.55 45.91 248.75 50.75 C 242.96 55.59 238.32 63.00 232.25 67.25 C 226.17 71.50 222.33 80.86 216.00 84.00
C 231.15 67.76 248.34 52.66 264.00 37.00
C 276.08 24.92 288.15 12.22 300.00 0.00
L 299.00 0.00
C 288.53 11.93 276.25 22.75 265.00 34.00 Z"/>
</g>
<g fill="None" fill-opacity="0.0" stroke="#54818D" stroke-opacity="1.00" stroke-width="0.3"><path d="
M 264.00 37.00 
C 264.94 36.51 269.42 35.54 270.00 39.00
C 281.85 26.54 295.40 13.90 307.00 0.00
L 300.00 0.00
C 288.15 12.22 276.08 24.92 264.00 37.00 Z"/>
</g>
<g fill="None" fill-opacity="0.0" stroke="#779FA8" stroke-opacity="1.00" stroke-width="0.3"><path d="
M 264.00 37.00 
C 248.34 52.66 231.15 67.76 216.00 84.00
C 215.59 84.43 215.49 85.53 215.00 86.00
C 217.22 91.75 226.34 85.49 228.75 81.75 C 231.17 78.02 237.10 74.13 240.25 70.25 C 243.40 66.36 247.69 63.40 251.25 59.25 C 254.80 55.10 260.44 53.19 263.75 48.75 C 267.07 44.32 271.83 39.14 277.00 43.00
C 288.00 26.27 304.00 15.06 317.00 0.00
L 307.00 0.00
C 295.40 13.90 281.85 26.54 270.00 39.00
C 269.42 35.54 264.94 36.51 264.00 37.00 Z"/>
</g>
<g fill="None" fill-opacity="0.0" stroke="#9DC1C9" stroke-opacity="1.00" stroke-width="0.3"><path d="
M 215.00 86.00 
C 212.67 93.38 225.73 90.22 229.75 84.75 C 233.77 79.28 239.66 74.87 244.25 70.25 C 248.83 65.62 253.30 59.25 258.99 55.99 C 264.68 52.73 269.25 46.98 275.00 43.00
C 272.54 47.56 267.89 52.15 264.00 56.00
C 267.72 53.15 270.71 48.53 275.00 47.00
C 274.19 50.10 271.46 51.41 269.00 53.00
C 272.52 54.81 264.80 57.63 268.00 62.00
C 265.78 61.49 263.20 60.02 262.00 58.00
C 238.10 82.11 214.49 106.63 190.00 130.00
C 191.09 130.94 192.97 132.88 194.00 134.00
C 200.02 137.19 212.13 119.64 218.75 113.75 C 225.38 107.86 235.62 96.11 243.23 89.23 C 250.84 82.35 259.55 70.21 267.00 64.00
C 273.49 69.02 278.56 76.03 285.00 81.00
C 263.41 106.42 236.72 129.12 214.00 154.00
C 207.51 148.98 202.44 141.97 196.00 137.00
C 196.00 137.00 195.81 137.59 196.00 138.00
C 196.24 138.26 196.73 138.79 197.00 139.00
C 203.31 143.92 209.21 150.85 215.00 154.00
C 221.37 151.31 225.17 141.46 231.25 137.25 C 237.32 133.04 242.51 125.27 248.25 120.25 C 253.98 115.23 259.28 109.25 264.75 103.75 C 270.22 98.25 276.57 92.43 282.00 87.00
C 310.75 58.25 339.48 28.89 368.00 0.00
L 317.00 0.00
C 304.00 15.06 288.00 26.27 277.00 43.00
C 271.83 39.14 267.07 44.32 263.75 48.75 C 260.44 53.19 254.80 55.10 251.25 59.25 C 247.69 63.40 243.40 66.36 240.25 70.25 C 237.10 74.13 231.17 78.02 228.75 81.75 C 226.34 85.49 217.22 91.75 215.00 86.00 Z"/>
</g>
<g fill="None" fill-opacity="0.0" stroke="#30616C" stroke-opacity="1.00" stroke-width="0.3"><path d="
M 282.00 87.00 
C 282.02 86.99 286.18 86.34 286.00 84.00
C 289.10 84.86 291.80 87.87 294.00 90.00
C 300.07 95.39 306.31 101.31 312.00 107.00
C 307.01 101.16 302.63 96.18 297.00 91.00
C 304.51 72.26 323.17 59.55 336.25 44.25 C 349.32 28.95 365.62 15.04 379.00 0.00
L 368.00 0.00
C 339.48 28.89 310.75 58.25 282.00 87.00 Z"/>
</g>
<g fill="None" fill-opacity="0.0" stroke="#3D7985" stroke-opacity="1.00" stroke-width="0.3"><path d="
M 312.00 107.00 
C 321.69 118.34 334.20 127.79 343.75 139.25 C 353.30 150.71 368.21 159.41 376.00 172.00
C 376.20 172.32 376.68 172.80 377.00 173.00
C 384.72 177.77 389.47 187.05 397.00 192.00
C 396.70 193.25 395.17 193.71 395.00 195.00
C 393.44 201.19 388.58 208.74 384.00 215.00
C 377.85 212.23 373.17 229.34 366.00 229.00
C 366.83 234.44 357.25 238.39 357.00 245.00
C 354.24 243.58 352.73 240.35 350.00 239.00
C 350.00 243.94 360.00 246.64 362.25 250.75 C 364.50 254.87 371.88 258.56 374.00 263.00
C 375.20 262.33 376.58 261.36 377.00 260.00
C 370.91 260.69 369.40 250.00 364.00 249.00
C 363.58 238.94 372.34 234.03 378.75 227.75 C 385.15 221.47 388.71 214.75 395.75 208.75 C 402.80 202.75 402.73 192.96 395.25 187.75 C 387.76 182.55 385.53 172.79 377.00 172.00
C 375.26 167.72 370.40 161.14 365.23 157.76 C 360.06 154.39 353.77 144.53 350.08 140.92 C 346.39 137.30 339.63 132.08 335.70 126.30 C 331.78 120.51 326.92 117.35 321.25 110.75 C 315.59 104.14 310.25 98.46 304.00 93.00
C 304.10 79.88 319.05 70.66 327.25 60.25 C 335.45 49.84 346.69 40.83 355.30 30.30 C 363.91 19.77 375.82 11.48 384.00 0.00
L 379.00 0.00
C 365.62 15.04 349.32 28.95 336.25 44.25 C 323.17 59.55 304.51 72.26 297.00 91.00
C 302.63 96.18 307.01 101.16 312.00 107.00 Z"/>
</g>
<g fill="None" fill-opacity="0.0" stroke="#4D95A1" stroke-opacity="1.00" stroke-width="0.3"><path d="
M 377.00 260.00 
C 381.24 256.39 385.62 252.37 389.00 248.00
C 400.91 256.77 411.46 269.27 422.00 280.00
C 423.93 278.74 425.91 277.00 427.00 275.00
C 428.96 272.70 431.24 270.38 433.00 268.00
C 429.76 270.10 429.23 266.75 426.00 267.00
C 430.06 238.75 427.46 209.51 428.00 180.00 C 428.54 150.49 427.72 119.74 428.00 90.00 C 428.28 60.26 427.79 29.81 428.00 0.00
L 384.00 0.00
C 375.82 11.48 363.91 19.77 355.30 30.30 C 346.69 40.83 335.45 49.84 327.25 60.25 C 319.05 70.66 304.10 79.88 304.00 93.00
C 310.25 98.46 315.59 104.14 321.25 110.75 C 326.92 117.35 331.78 120.51 335.70 126.30 C 339.63 132.08 346.39 137.30 350.08 140.92 C 353.77 144.53 360.06 154.39 365.23 157.76 C 370.40 161.14 375.26 167.72 377.00 172.00
C 385.53 172.79 387.76 182.55 395.25 187.75 C 402.73 192.96 402.80 202.75 395.75 208.75 C 388.71 214.75 385.15 221.47 378.75 227.75 C 372.34 234.03 363.58 238.94 364.00 249.00
C 369.40 250.00 370.91 260.69 377.00 260.00 Z"/>
</g>
<g fill="None" fill-opacity="0.0" stroke="#5AA4AB" stroke-opacity="1.00" stroke-width="0.3"><path d="
M 427.00 275.00 
C 433.92 268.08 441.86 261.60 448.00 254.00
C 451.15 253.96 452.30 258.02 455.00 259.00
C 459.22 261.73 469.99 264.85 469.00 271.00
C 479.62 277.79 485.03 288.40 495.00 298.00
C 496.12 297.98 497.33 295.03 498.00 297.00
C 499.97 295.03 502.16 292.25 504.00 290.00
C 527.67 312.83 551.21 336.38 574.00 360.00
L 579.00 360.00
C 568.42 347.55 558.49 331.51 543.00 324.00
C 541.41 317.95 534.12 310.33 528.75 304.25 C 523.38 298.17 519.03 286.33 509.00 289.00
C 506.70 193.16 508.64 96.26 508.00 0.00
L 428.00 0.00
C 427.79 29.81 428.28 60.26 428.00 90.00 C 427.72 119.74 428.54 150.49 428.00 180.00 C 427.46 209.51 430.06 238.75 426.00 267.00
C 429.23 266.75 429.76 270.10 433.00 268.00
C 431.24 270.38 428.96 272.70 427.00 275.00 Z"/>
</g>
<g fill="None" fill-opacity="0.0" stroke="#65B1B4" stroke-opacity="1.00" stroke-width="0.3"><path d="
M 579.00 360.00 
L 587.00 360.00
C 584.21 355.48 581.74 358.02 584.00 352.00
C 582.03 353.99 579.96 351.70 578.00 351.00
C 578.91 348.93 579.32 345.02 576.00 345.00
C 581.82 337.51 578.36 324.97 579.00 314.00 C 579.64 303.03 578.71 290.35 579.00 279.00 C 579.29 267.65 578.87 255.51 579.00 244.00 C 579.13 232.49 578.94 220.56 579.00 209.00 C 579.06 197.44 578.97 185.55 579.00 174.00 C 579.03 162.45 578.99 151.57 579.00 140.00 C 579.01 128.43 578.99 116.62 579.00 105.00 C 579.01 93.38 579.00 81.65 579.00 70.00 C 579.00 58.35 579.00 46.66 579.00 35.00 C 579.00 23.34 579.00 11.66 579.00 0.00
L 508.00 0.00
C 508.64 96.26 506.70 193.16 509.00 289.00
C 519.03 286.33 523.38 298.17 528.75 304.25 C 534.12 310.33 541.41 317.95 543.00 324.00
C 558.49 331.51 568.42 347.55 579.00 360.00 Z"/>
</g>
<g fill="None" fill-opacity="0.0" stroke="#74C3BF" stroke-opacity="1.00" stroke-width="0.3"><path d="
M 587.00 360.00 
L 721.00 360.00
L 721.00 0.00
L 579.00 0.00
C 579.00 11.66 579.00 23.34 579.00 35.00 C 579.00 46.66 579.00 58.35 579.00 70.00 C 579.00 81.65 579.01 93.38 579.00 105.00 C 578.99 116.62 579.01 128.43 579.00 140.00 C 578.99 151.57 579.03 162.45 579.00 174.00 C 578.97 185.55 579.06 197.44 579.00 209.00 C 578.94 220.56 579.13 232.49 579.00 244.00 C 578.87 255.51 579.29 267.65 579.00 279.00 C 578.71 290.35 579.64 303.03 579.00 314.00 C 578.36 324.97 581.82 337.51 576.00 345.00
C 579.32 345.02 578.91 348.93 578.00 351.00
C 579.96 351.70 582.03 353.99 584.00 352.00
C 581.74 358.02 584.21 355.48 587.00 360.00 Z"/>
</g>
<g fill="None" fill-opacity="0.0" stroke="#7097AB" stroke-opacity="1.00" stroke-width="0.3"><path d="
M 0.00 16.00 
C 14.11 30.80 30.86 44.22 44.25 59.75 C 57.64 75.29 76.33 87.30 88.00 104.00
C 88.35 103.77 89.00 104.00 89.00 104.00
C 89.47 102.07 92.45 101.31 92.00 99.00
C 61.09 68.42 31.15 37.28 0.00 5.00
L 0.00 16.00 Z"/>
</g>
<g fill="None" fill-opacity="0.0" stroke="#C3D4DD" stroke-opacity="1.00" stroke-width="0.3"><path d="
M 0.00 64.00 
C 6.06 60.92 10.17 54.81 15.00 50.00
C 20.29 54.44 24.84 59.26 29.75 64.25 C 34.67 69.23 39.34 73.53 44.25 78.75 C 49.15 83.97 53.81 87.54 58.75 93.25 C 63.69 98.96 68.20 100.97 73.25 107.75 C 78.30 114.54 83.22 110.18 88.00 104.00
C 76.33 87.30 57.64 75.29 44.25 59.75 C 30.86 44.22 14.11 30.80 0.00 16.00
L 0.00 64.00 Z"/>
</g>
<g fill="None" fill-opacity="0.0" stroke="#E4EDF0" stroke-opacity="1.00" stroke-width="0.3"><path d="
M 187.00 128.00 
C 187.97 128.82 189.25 129.36 190.00 130.00
C 200.41 117.55 214.98 106.68 224.00 94.00
C 214.20 96.20 206.75 87.73 200.25 80.75 C 193.75 73.78 187.70 69.09 181.25 61.75 C 174.80 54.41 167.31 50.76 161.75 42.25 C 156.20 33.74 147.23 43.81 142.25 50.25 C 137.26 56.69 123.76 63.23 129.75 70.25 C 135.74 77.27 142.99 83.12 149.25 89.75 C 155.50 96.38 161.83 102.40 168.25 108.75 C 174.67 115.11 180.76 121.59 187.00 128.00 Z"/>
</g>
<g fill="None" fill-opacity="0.0" stroke="#7AA2AB" stroke-opacity="1.00" stroke-width="0.3"><path d="
M 264.00 56.00 
C 263.15 56.65 262.75 57.24 262.00 58.00
C 263.20 60.02 265.78 61.49 268.00 62.00
C 264.80 57.63 272.52 54.81 269.00 53.00
C 271.46 51.41 274.19 50.10 275.00 47.00
C 270.71 48.53 267.72 53.15 264.00 56.00 Z"/>
</g>
<g fill="None" fill-opacity="0.0" stroke="#E7EEF1" stroke-opacity="1.00" stroke-width="0.3"><path d="
M 0.00 64.00 
L 0.00 123.00
C 12.36 133.49 21.69 145.49 35.00 156.00
C 33.57 165.15 44.95 169.23 50.75 176.25 C 56.55 183.26 63.47 189.76 69.00 197.00
C 69.41 196.65 70.48 196.32 71.00 196.00
C 76.16 192.86 80.37 186.90 84.75 182.75 C 89.14 178.61 94.92 173.15 98.75 168.75 C 102.59 164.35 109.56 159.80 112.25 155.25 C 114.93 150.70 126.00 145.93 126.00 141.00
C 115.03 128.29 98.85 118.09 89.00 104.00
C 89.00 104.00 88.35 103.77 88.00 104.00
C 83.22 110.18 78.30 114.54 73.25 107.75 C 68.20 100.97 63.69 98.96 58.75 93.25 C 53.81 87.54 49.15 83.97 44.25 78.75 C 39.34 73.53 34.67 69.23 29.75 64.25 C 24.84 59.26 20.29 54.44 15.00 50.00
C 10.17 54.81 6.06 60.92 0.00 64.00 Z"/>
</g>
<g fill="None" fill-opacity="0.0" stroke="#C8DBE1" stroke-opacity="1.00" stroke-width="0.3"><path d="
M 194.00 134.00 
C 194.57 134.62 195.69 136.15 196.00 137.00
C 202.44 141.97 207.51 148.98 214.00 154.00
C 236.72 129.12 263.41 106.42 285.00 81.00
C 278.56 76.03 273.49 69.02 267.00 64.00
C 259.55 70.21 250.84 82.35 243.23 89.23 C 235.62 96.11 225.38 107.86 218.75 113.75 C 212.13 119.64 200.02 137.19 194.00 134.00 Z"/>
</g>
<g fill="None" fill-opacity="0.0" stroke="#CBDBE2" stroke-opacity="1.00" stroke-width="0.3"><path d="
M 95.00 224.00 
C 95.38 223.96 96.68 223.19 97.00 223.00
C 99.14 221.00 100.97 218.03 103.00 216.00
C 100.53 218.11 98.06 221.21 95.00 222.00
C 92.36 215.58 86.02 211.91 83.00 206.00
C 88.79 198.60 95.52 194.11 102.08 187.08 C 108.65 180.05 115.40 177.24 121.75 168.75 C 128.09 160.25 134.96 168.63 142.00 176.00
C 140.58 178.76 137.35 180.27 136.00 183.00
C 138.09 180.91 140.96 179.04 143.00 177.00
C 156.29 161.45 172.10 145.90 187.00 132.00
C 180.15 122.95 171.00 116.19 163.25 107.75 C 155.49 99.31 147.32 92.98 139.75 84.25 C 132.18 75.51 122.77 66.06 114.75 77.75 C 106.73 89.44 98.65 90.34 92.00 102.00
C 100.40 110.43 108.33 119.91 117.75 128.25 C 127.18 136.58 139.68 147.64 128.00 160.00
C 120.64 158.93 115.60 168.79 109.75 173.75 C 103.91 178.71 98.61 185.27 92.75 190.75 C 86.89 196.23 79.78 201.88 79.00 210.00
C 85.10 211.79 88.69 224.73 95.00 224.00 Z"/>
</g>
<g fill="None" fill-opacity="0.0" stroke="#558390" stroke-opacity="1.00" stroke-width="0.3"><path d="
M 282.00 87.00 
C 276.57 92.43 270.22 98.25 264.75 103.75 C 259.28 109.25 253.98 115.23 248.25 120.25 C 242.51 125.27 237.32 133.04 231.25 137.25 C 225.17 141.46 221.37 151.31 215.00 154.00
C 224.36 159.09 229.44 150.88 236.25 144.25 C 243.05 137.61 248.84 130.95 255.25 125.25 C 261.65 119.54 267.29 110.28 273.75 105.75 C 280.21 101.23 286.82 87.22 294.00 90.00
C 291.80 87.87 289.10 84.86 286.00 84.00
C 286.18 86.34 282.02 86.99 282.00 87.00 Z"/>
</g>
<g fill="None" fill-opacity="0.0" stroke="#78A1AE" stroke-opacity="1.00" stroke-width="0.3"><path d="
M 215.00 154.00 
C 209.21 150.85 203.31 143.92 197.00 139.00
C 195.93 140.50 182.65 140.75 187.00 148.00
C 184.86 148.52 184.19 145.43 182.00 146.00
C 175.40 146.79 170.72 158.85 164.75 162.75 C 158.77 166.65 151.66 176.00 151.00 183.00
C 148.42 182.76 146.38 180.92 144.00 180.00
C 137.90 189.28 127.69 197.16 120.30 205.30 C 112.91 213.43 101.01 221.56 100.00 232.00
C 100.32 232.34 100.49 233.75 101.00 234.00
C 101.40 234.20 102.00 234.00 102.00 234.00
C 105.17 228.52 108.60 219.27 115.75 214.75 C 122.90 210.23 126.60 201.75 133.25 197.25 C 139.89 192.74 143.94 180.79 152.00 185.00
C 156.25 169.15 174.60 160.49 183.00 147.00
C 184.57 147.96 186.25 149.32 187.00 151.00
C 187.16 151.23 188.00 151.00 188.00 151.00
C 193.60 153.74 197.33 161.02 202.25 164.75 C 207.16 168.49 212.07 175.63 216.75 179.25 C 221.43 182.86 227.57 194.53 231.00 186.00
C 224.81 181.48 218.33 174.60 213.30 169.70 C 208.26 164.80 205.34 154.63 197.00 154.00
C 200.63 152.44 197.29 150.07 196.00 148.00
C 203.40 150.75 216.29 169.31 226.68 161.68 C 237.07 154.05 241.57 144.24 251.25 136.25 C 260.93 128.26 267.17 118.09 275.77 110.77 C 284.37 103.45 292.01 87.92 300.75 97.25 C 309.49 106.58 317.21 113.48 325.75 122.25 C 334.30 131.02 342.26 138.75 350.75 147.25 C 359.24 155.75 367.19 164.10 376.00 172.00
C 368.21 159.41 353.30 150.71 343.75 139.25 C 334.20 127.79 321.69 118.34 312.00 107.00
C 306.31 101.31 300.07 95.39 294.00 90.00
C 286.82 87.22 280.21 101.23 273.75 105.75 C 267.29 110.28 261.65 119.54 255.25 125.25 C 248.84 130.95 243.05 137.61 236.25 144.25 C 229.44 150.88 224.36 159.09 215.00 154.00 Z"/>
</g>
<g fill="None" fill-opacity="0.0" stroke="#A1C6CD" stroke-opacity="1.00" stroke-width="0.3"><path d="
M 188.00 151.00 
C 198.54 166.09 216.49 175.97 227.00 191.00
C 227.16 190.77 228.00 191.00 228.00 191.00
C 239.42 196.59 245.95 211.10 256.25 218.75 C 266.54 226.41 274.13 238.56 284.25 246.75 C 294.36 254.95 302.33 267.55 313.00 275.00
C 314.69 273.52 316.78 272.25 319.00 272.00
C 322.61 284.79 330.01 288.91 338.00 299.00
C 328.61 293.37 321.86 282.75 313.00 276.00
C 317.20 284.58 327.12 289.15 333.25 296.75 C 339.37 304.35 347.72 287.83 354.25 283.25 C 360.77 278.67 367.95 266.13 376.00 264.00
C 383.85 275.98 397.64 283.77 406.00 296.00
C 406.31 296.24 407.69 296.24 408.00 296.00
C 413.17 292.00 417.17 285.33 422.00 281.00
C 438.25 294.10 453.12 310.94 468.00 326.00
C 476.46 319.45 482.05 314.51 489.75 305.75 C 497.45 297.00 505.26 310.02 512.25 316.75 C 519.23 323.49 526.74 331.26 533.75 338.25 C 540.77 345.24 548.51 352.62 555.00 360.00
L 574.00 360.00
C 551.21 336.38 527.67 312.83 504.00 290.00
C 502.16 292.25 499.97 295.03 498.00 297.00
C 497.06 297.94 496.56 299.78 495.00 300.00
C 482.33 285.83 467.62 273.12 455.00 259.00
C 452.30 258.02 451.15 253.96 448.00 254.00
C 441.86 261.60 433.92 268.08 427.00 275.00
C 425.91 277.00 423.93 278.74 422.00 280.00
C 411.46 269.27 400.91 256.77 389.00 248.00
C 385.62 252.37 381.24 256.39 377.00 260.00
C 376.58 261.36 375.20 262.33 374.00 263.00
C 371.88 258.56 364.50 254.87 362.25 250.75 C 360.00 246.64 350.00 243.94 350.00 239.00
C 350.00 237.39 353.06 235.80 354.00 235.00
C 367.92 221.08 381.40 206.14 396.00 193.00
C 390.32 185.84 382.63 180.11 377.00 173.00
C 376.68 172.80 376.20 172.32 376.00 172.00
C 367.19 164.10 359.24 155.75 350.75 147.25 C 342.26 138.75 334.30 131.02 325.75 122.25 C 317.21 113.48 309.49 106.58 300.75 97.25 C 292.01 87.92 284.37 103.45 275.77 110.77 C 267.17 118.09 260.93 128.26 251.25 136.25 C 241.57 144.24 237.07 154.05 226.68 161.68 C 216.29 169.31 203.40 150.75 196.00 148.00
C 197.29 150.07 200.63 152.44 197.00 154.00
C 205.34 154.63 208.26 164.80 213.30 169.70 C 218.33 174.60 224.81 181.48 231.00 186.00
C 227.57 194.53 221.43 182.86 216.75 179.25 C 212.07 175.63 207.16 168.49 202.25 164.75 C 197.33 161.02 193.60 153.74 188.00 151.00
M 278.00 167.00 
C 276.48 165.22 274.27 163.33 274.00 161.00
C 297.46 184.96 321.90 207.24 344.00 232.00
C 345.19 234.04 346.25 237.07 349.00 238.00
C 340.39 250.40 326.73 260.13 317.00 272.00
C 286.01 244.29 259.97 213.54 232.00 188.00
C 242.27 176.28 253.98 166.78 264.00 155.00
C 269.67 157.03 272.84 163.87 278.00 167.00 Z"/>
</g>
<g fill="None" fill-opacity="0.0" stroke="#C1D1D9" stroke-opacity="1.00" stroke-width="0.3"><path d="
M 0.00 134.00 
C 22.83 155.34 44.21 178.71 67.00 200.00
C 67.62 199.19 68.19 197.69 69.00 197.00
C 63.47 189.76 56.55 183.26 50.75 176.25 C 44.95 169.23 33.57 165.15 35.00 156.00
C 21.69 145.49 12.36 133.49 0.00 123.00
L 0.00 134.00 Z"/>
</g>
<g fill="None" fill-opacity="0.0" stroke="#678B99" stroke-opacity="1.00" stroke-width="0.3"><path d="
M 187.00 132.00 
C 172.10 145.90 156.29 161.45 143.00 177.00
C 136.19 184.97 128.11 193.26 120.25 200.25 C 112.39 207.24 105.89 217.59 97.00 223.00
C 96.68 223.19 95.38 223.96 95.00 224.00
C 92.14 227.20 98.17 230.04 100.00 232.00
C 101.01 221.56 112.91 213.43 120.30 205.30 C 127.69 197.16 137.90 189.28 144.00 180.00
C 146.38 180.92 148.42 182.76 151.00 183.00
C 151.66 176.00 158.77 166.65 164.75 162.75 C 170.72 158.85 175.40 146.79 182.00 146.00
C 180.65 144.98 179.15 142.62 179.00 141.00
C 182.64 138.13 186.23 134.64 189.00 131.00
C 188.49 130.98 187.36 131.67 187.00 132.00 Z"/>
</g>
<g fill="None" fill-opacity="0.0" stroke="#447080" stroke-opacity="1.00" stroke-width="0.3"><path d="
M 182.00 146.00 
C 184.19 145.43 184.86 148.52 187.00 148.00
C 182.65 140.75 195.93 140.50 197.00 139.00
C 196.73 138.79 196.24 138.26 196.00 138.00
C 194.76 136.65 191.36 131.10 189.00 131.00
C 186.23 134.64 182.64 138.13 179.00 141.00
C 179.15 142.62 180.65 144.98 182.00 146.00 Z"/>
</g>
<g fill="None" fill-opacity="0.0" stroke="#EBF0F4" stroke-opacity="1.00" stroke-width="0.3"><path d="
M 0.00 267.00 
C 20.38 243.52 48.15 224.92 67.00 200.00
C 44.21 178.71 22.83 155.34 0.00 134.00
L 0.00 267.00 Z"/>
</g>
<g fill="None" fill-opacity="0.0" stroke="#7293A1" stroke-opacity="1.00" stroke-width="0.3"><path d="
M 71.00 196.00 
C 70.53 197.93 67.55 198.69 68.00 201.00
C 71.43 202.56 73.09 207.50 77.00 208.00
C 76.54 196.78 90.10 187.20 98.25 179.25 C 106.40 171.29 115.07 157.85 126.00 158.00
C 128.36 150.80 131.30 147.14 126.00 141.00
C 126.00 145.93 114.93 150.70 112.25 155.25 C 109.56 159.80 102.59 164.35 98.75 168.75 C 94.92 173.15 89.14 178.61 84.75 182.75 C 80.37 186.90 76.16 192.86 71.00 196.00 Z"/>
</g>
<g fill="None" fill-opacity="0.0" stroke="#A2BCC6" stroke-opacity="1.00" stroke-width="0.3"><path d="
M 102.00 234.00 
C 112.36 248.83 129.32 259.43 141.00 273.00
C 140.70 274.25 139.17 274.71 139.00 276.00
C 139.46 287.63 127.14 295.15 118.75 304.75 C 110.37 314.35 101.50 322.61 92.75 331.75 C 84.00 340.90 73.30 348.72 68.00 360.00
L 74.00 360.00
C 80.39 348.33 90.86 338.35 101.75 328.75 C 112.65 319.15 117.84 307.66 130.75 297.75 C 143.66 287.84 148.42 273.70 134.30 263.70 C 120.18 253.70 115.69 244.45 106.00 232.00
C 109.96 226.23 115.95 220.25 121.25 215.25 C 126.54 210.25 131.99 203.92 137.25 199.25 C 142.50 194.58 148.16 182.42 154.00 189.00
C 174.98 207.10 192.25 228.59 214.00 247.00
C 213.70 248.25 212.17 248.71 212.00 250.00
C 212.09 251.31 213.66 254.60 215.00 255.00
C 207.61 263.72 197.79 272.05 189.75 280.75 C 181.72 289.46 171.91 297.62 163.75 306.75 C 155.60 315.88 143.15 323.55 140.00 335.00
C 130.98 341.54 121.51 350.99 115.00 360.00
L 123.00 360.00
C 129.44 352.20 136.66 343.88 145.00 339.00
C 141.16 329.75 154.49 323.03 160.75 315.75 C 167.01 308.47 175.43 301.30 182.25 294.25 C 189.07 287.19 197.18 278.97 204.25 272.25 C 211.31 265.53 223.11 254.99 214.75 246.25 C 206.39 237.51 202.70 232.47 193.00 226.00
C 195.09 220.01 184.94 214.09 181.75 208.25 C 178.55 202.42 166.37 199.21 167.00 192.00
C 162.59 194.20 160.63 185.61 158.00 185.00
C 163.66 171.07 178.52 163.20 187.00 151.00
C 186.25 149.32 184.57 147.96 183.00 147.00
C 174.60 160.49 156.25 169.15 152.00 185.00
C 143.94 180.79 139.89 192.74 133.25 197.25 C 126.60 201.75 122.90 210.23 115.75 214.75 C 108.60 219.27 105.17 228.52 102.00 234.00 Z"/>
</g>
<g fill="None" fill-opacity="0.0" stroke="#C8DAE1" stroke-opacity="1.00" stroke-width="0.3"><path d="
M 123.00 360.00 
L 167.00 360.00
C 160.44 351.43 150.50 345.13 145.00 336.00
C 159.12 323.74 167.26 311.82 180.75 299.75 C 194.25 287.68 203.16 276.95 217.10 264.10 C 231.04 251.25 209.51 232.64 197.00 224.00
C 203.39 210.84 218.25 202.64 227.00 191.00
C 216.49 175.97 198.54 166.09 188.00 151.00
C 188.00 151.00 187.16 151.23 187.00 151.00
C 178.52 163.20 163.66 171.07 158.00 185.00
C 160.63 185.61 162.59 194.20 167.00 192.00
C 166.37 199.21 178.55 202.42 181.75 208.25 C 184.94 214.09 195.09 220.01 193.00 226.00
C 202.70 232.47 206.39 237.51 214.75 246.25 C 223.11 254.99 211.31 265.53 204.25 272.25 C 197.18 278.97 189.07 287.19 182.25 294.25 C 175.43 301.30 167.01 308.47 160.75 315.75 C 154.49 323.03 141.16 329.75 145.00 339.00
C 136.66 343.88 129.44 352.20 123.00 360.00 Z"/>
</g>
<g fill="None" fill-opacity="0.0" stroke="#CEE0E5" stroke-opacity="1.00" stroke-width="0.3"><path d="
M 344.00 232.00 
C 325.28 209.65 298.18 190.61 278.00 167.00
C 272.84 163.87 269.67 157.03 264.00 155.00
C 253.98 166.78 242.27 176.28 232.00 188.00
C 259.97 213.54 286.01 244.29 317.00 272.00
C 326.73 260.13 340.39 250.40 349.00 238.00
C 346.25 237.07 345.19 234.04 344.00 232.00 Z"/>
</g>
<g fill="None" fill-opacity="0.0" stroke="#84ACB3" stroke-opacity="1.00" stroke-width="0.3"><path d="
M 278.00 167.00 
C 298.18 190.61 325.28 209.65 344.00 232.00
C 321.90 207.24 297.46 184.96 274.00 161.00
C 274.27 163.33 276.48 165.22 278.00 167.00 Z"/>
</g>
<g fill="None" fill-opacity="0.0" stroke="#EFF4F7" stroke-opacity="1.00" stroke-width="0.3"><path d="
M 103.00 216.00 
C 114.53 206.15 126.20 194.47 136.00 183.00
C 137.35 180.27 140.58 178.76 142.00 176.00
C 134.96 168.63 128.09 160.25 121.75 168.75 C 115.40 177.24 108.65 180.05 102.08 187.08 C 95.52 194.11 88.79 198.60 83.00 206.00
C 86.02 211.91 92.36 215.58 95.00 222.00
C 98.06 221.21 100.53 218.11 103.00 216.00 Z"/>
</g>
<g fill="None" fill-opacity="0.0" stroke="#6B989F" stroke-opacity="1.00" stroke-width="0.3"><path d="
M 354.00 235.00 
C 361.00 229.02 368.20 222.29 374.25 215.25 C 380.30 208.21 389.72 202.37 395.00 195.00
C 395.17 193.71 396.70 193.25 397.00 192.00
C 389.47 187.05 384.72 177.77 377.00 173.00
C 382.63 180.11 390.32 185.84 396.00 193.00
C 381.40 206.14 367.92 221.08 354.00 235.00 Z"/>
</g>
<g fill="None" fill-opacity="0.0" stroke="#8DA3AE" stroke-opacity="1.00" stroke-width="0.3"><path d="
M 136.00 183.00 
C 126.20 194.47 114.53 206.15 103.00 216.00
C 100.97 218.03 99.14 221.00 97.00 223.00
C 105.89 217.59 112.39 207.24 120.25 200.25 C 128.11 193.26 136.19 184.97 143.00 177.00
C 140.96 179.04 138.09 180.91 136.00 183.00 Z"/>
</g>
<g fill="None" fill-opacity="0.0" stroke="#CCDAE1" stroke-opacity="1.00" stroke-width="0.3"><path d="
M 74.00 360.00 
L 79.00 360.00
C 84.12 351.95 92.70 344.77 99.75 337.75 C 106.80 330.74 113.80 321.75 123.00 317.00
C 123.66 305.87 132.79 300.08 142.25 291.25 C 151.70 282.41 148.82 269.67 138.75 262.25 C 128.69 254.83 124.85 246.78 115.25 238.75 C 105.65 230.72 122.37 218.87 129.23 213.23 C 136.09 207.59 145.56 194.60 154.00 192.00
C 154.79 190.84 152.04 189.47 154.00 189.00
C 148.16 182.42 142.50 194.58 137.25 199.25 C 131.99 203.92 126.54 210.25 121.25 215.25 C 115.95 220.25 109.96 226.23 106.00 232.00
C 115.69 244.45 120.18 253.70 134.30 263.70 C 148.42 273.70 143.66 287.84 130.75 297.75 C 117.84 307.66 112.65 319.15 101.75 328.75 C 90.86 338.35 80.39 348.33 74.00 360.00 Z"/>
</g>
<g fill="None" fill-opacity="0.0" stroke="#E9F0F2" stroke-opacity="1.00" stroke-width="0.3"><path d="
M 79.00 360.00 
L 101.00 360.00
C 119.14 342.49 135.88 322.56 154.75 305.75 C 173.63 288.94 188.95 267.17 209.00 252.00
C 209.83 251.37 211.35 250.71 212.00 250.00
C 212.17 248.71 213.70 248.25 214.00 247.00
C 192.25 228.59 174.98 207.10 154.00 189.00
C 152.04 189.47 154.79 190.84 154.00 192.00
C 145.56 194.60 136.09 207.59 129.23 213.23 C 122.37 218.87 105.65 230.72 115.25 238.75 C 124.85 246.78 128.69 254.83 138.75 262.25 C 148.82 269.67 151.70 282.41 142.25 291.25 C 132.79 300.08 123.66 305.87 123.00 317.00
C 113.80 321.75 106.80 330.74 99.75 337.75 C 92.70 344.77 84.12 351.95 79.00 360.00 Z"/>
</g>
<g fill="None" fill-opacity="0.0" stroke="#E5EEF1" stroke-opacity="1.00" stroke-width="0.3"><path d="
M 167.00 360.00 
L 229.00 360.00
C 256.17 332.00 284.05 304.12 312.00 277.00
C 286.08 247.25 255.05 220.21 228.00 191.00
C 228.00 191.00 227.16 190.77 227.00 191.00
C 218.25 202.64 203.39 210.84 197.00 224.00
C 209.51 232.64 231.04 251.25 217.10 264.10 C 203.16 276.95 194.25 287.68 180.75 299.75 C 167.26 311.82 159.12 323.74 145.00 336.00
C 150.50 345.13 160.44 351.43 167.00 360.00 Z"/>
</g>
<g fill="None" fill-opacity="0.0" stroke="#CCDFE4" stroke-opacity="1.00" stroke-width="0.3"><path d="
M 229.00 360.00 
L 278.00 360.00
C 296.78 339.64 317.15 321.35 336.00 301.00
C 345.06 306.29 351.47 316.58 360.00 323.00
C 362.63 325.11 364.66 326.81 365.00 331.00
C 361.46 333.84 359.49 339.92 355.75 342.75 C 352.00 345.57 350.31 353.60 345.00 352.00
C 345.30 356.11 341.29 357.74 338.00 360.00
L 344.00 360.00
C 366.47 341.60 382.71 314.02 406.00 296.00
C 397.64 283.77 383.85 275.98 376.00 264.00
C 367.95 266.13 360.77 278.67 354.25 283.25 C 347.72 287.83 339.37 304.35 333.25 296.75 C 327.12 289.15 317.20 284.58 313.00 276.00
C 312.80 275.60 313.00 275.00 313.00 275.00
C 302.33 267.55 294.36 254.95 284.25 246.75 C 274.13 238.56 266.54 226.41 256.25 218.75 C 245.95 211.10 239.42 196.59 228.00 191.00
C 255.05 220.21 286.08 247.25 312.00 277.00
C 284.05 304.12 256.17 332.00 229.00 360.00 Z"/>
</g>
<g fill="None" fill-opacity="0.0" stroke="#316169" stroke-opacity="1.00" stroke-width="0.3"><path d="
M 354.00 235.00 
C 353.06 235.80 350.00 237.39 350.00 239.00
C 352.73 240.35 354.24 243.58 357.00 245.00
C 357.25 238.39 366.83 234.44 366.00 229.00
C 373.17 229.34 377.85 212.23 384.00 215.00
C 388.58 208.74 393.44 201.19 395.00 195.00
C 389.72 202.37 380.30 208.21 374.25 215.25 C 368.20 222.29 361.00 229.02 354.00 235.00 Z"/>
</g>
<g fill="None" fill-opacity="0.0" stroke="#C5D5DC" stroke-opacity="1.00" stroke-width="0.3"><path d="
M 40.00 247.00 
C 48.04 238.96 59.74 219.96 68.75 236.25 C 77.76 252.53 92.25 246.74 99.00 234.00
C 113.88 245.12 125.78 260.89 140.00 273.00
C 130.99 283.50 119.96 292.55 111.00 303.00
C 116.00 299.50 120.67 294.39 124.75 289.75 C 128.83 285.12 135.52 280.87 139.00 276.00
C 139.17 274.71 140.70 274.25 141.00 273.00
C 129.32 259.43 112.36 248.83 102.00 234.00
C 102.00 234.00 101.40 234.20 101.00 234.00
C 96.99 232.04 93.96 226.92 91.00 224.00
C 94.63 230.71 79.96 236.20 78.00 242.00
C 71.81 236.30 65.18 231.23 61.00 224.00
C 66.70 220.90 72.25 215.20 75.00 210.00
C 80.33 212.11 83.26 218.00 88.00 221.00
C 83.71 214.68 76.67 210.82 72.00 205.00
C 65.30 206.69 62.57 219.41 56.00 218.00
C 56.25 220.61 58.03 222.63 59.00 225.00
C 55.69 226.82 45.30 227.96 44.78 233.78 C 44.27 239.59 44.93 241.23 40.00 247.00 Z"/>
</g>
<g fill="None" fill-opacity="0.0" stroke="#F6F9FB" stroke-opacity="1.00" stroke-width="0.3"><path d="
M 91.00 224.00 
C 89.96 222.97 89.04 222.00 88.00 221.00
C 83.26 218.00 80.33 212.11 75.00 210.00
C 72.25 215.20 66.70 220.90 61.00 224.00
C 65.18 231.23 71.81 236.30 78.00 242.00
C 79.96 236.20 94.63 230.71 91.00 224.00 Z"/>
</g>
<g fill="None" fill-opacity="0.0" stroke="#E5ECF0" stroke-opacity="1.00" stroke-width="0.3"><path d="
M 40.00 247.00 
C 27.88 261.19 13.17 273.74 0.00 287.00
L 0.00 360.00
L 55.00 360.00
C 74.89 343.46 89.75 318.84 111.00 304.00
C 110.76 303.67 111.00 303.00 111.00 303.00
C 119.96 292.55 130.99 283.50 140.00 273.00
C 125.78 260.89 113.88 245.12 99.00 234.00
C 92.25 246.74 77.76 252.53 68.75 236.25 C 59.74 219.96 48.04 238.96 40.00 247.00 Z"/>
</g>
<g fill="None" fill-opacity="0.0" stroke="#7799A4" stroke-opacity="1.00" stroke-width="0.3"><path d="
M 209.00 252.00 
C 183.66 275.25 160.28 301.72 136.00 326.00
C 135.35 327.94 137.22 329.14 137.00 331.00
C 125.26 338.01 118.30 351.13 107.00 360.00
L 115.00 360.00
C 121.51 350.99 130.98 341.54 140.00 335.00
C 143.15 323.55 155.60 315.88 163.75 306.75 C 171.91 297.62 181.72 289.46 189.75 280.75 C 197.79 272.05 207.61 263.72 215.00 255.00
C 213.66 254.60 212.09 251.31 212.00 250.00
C 211.35 250.71 209.83 251.37 209.00 252.00 Z"/>
</g>
<g fill="None" fill-opacity="0.0" stroke="#A5B9C2" stroke-opacity="1.00" stroke-width="0.3"><path d="
M 101.00 360.00 
L 102.00 360.00
C 112.52 348.02 124.80 337.20 136.00 326.00
C 160.28 301.72 183.66 275.25 209.00 252.00
C 188.95 267.17 173.63 288.94 154.75 305.75 C 135.88 322.56 119.14 342.49 101.00 360.00 Z"/>
</g>
<g fill="None" fill-opacity="0.0" stroke="#4E8D92" stroke-opacity="1.00" stroke-width="0.3"><path d="
M 455.00 259.00 
C 467.62 273.12 482.33 285.83 495.00 300.00
C 496.56 299.78 497.06 297.94 498.00 297.00
C 497.33 295.03 496.12 297.98 495.00 298.00
C 485.03 288.40 479.62 277.79 469.00 271.00
C 469.99 264.85 459.22 261.73 455.00 259.00 Z"/>
</g>
<g fill="None" fill-opacity="0.0" stroke="#79A3AA" stroke-opacity="1.00" stroke-width="0.3"><path d="
M 313.00 275.00 
C 313.00 275.00 312.80 275.60 313.00 276.00
C 321.86 282.75 328.61 293.37 338.00 299.00
C 330.01 288.91 322.61 284.79 319.00 272.00
C 316.78 272.25 314.69 273.52 313.00 275.00 Z"/>
</g>
<g fill="None" fill-opacity="0.0" stroke="#7898A6" stroke-opacity="1.00" stroke-width="0.3"><path d="
M 111.00 303.00 
C 111.00 303.00 110.76 303.67 111.00 304.00
C 114.04 308.16 102.82 314.43 99.92 317.92 C 97.02 321.41 91.10 327.65 86.75 331.75 C 82.41 335.85 77.92 340.78 73.25 345.25 C 68.58 349.72 65.52 355.46 61.00 360.00
L 68.00 360.00
C 73.30 348.72 84.00 340.90 92.75 331.75 C 101.50 322.61 110.37 314.35 118.75 304.75 C 127.14 295.15 139.46 287.63 139.00 276.00
C 135.52 280.87 128.83 285.12 124.75 289.75 C 120.67 294.39 116.00 299.50 111.00 303.00 Z"/>
</g>
<g fill="None" fill-opacity="0.0" stroke="#D4E8E9" stroke-opacity="1.00" stroke-width="0.3"><path d="
M 408.00 296.00 
C 424.92 309.09 435.97 328.88 452.00 342.00
C 458.68 339.30 462.77 332.12 468.00 327.00
C 480.50 336.49 491.30 348.73 502.00 360.00
L 555.00 360.00
C 548.51 352.62 540.77 345.24 533.75 338.25 C 526.74 331.26 519.23 323.49 512.25 316.75 C 505.26 310.02 497.45 297.00 489.75 305.75 C 482.05 314.51 476.46 319.45 468.00 326.00
C 453.12 310.94 438.25 294.10 422.00 281.00
C 417.17 285.33 413.17 292.00 408.00 296.00 Z"/>
</g>
<g fill="None" fill-opacity="0.0" stroke="#E9F3F4" stroke-opacity="1.00" stroke-width="0.3"><path d="
M 344.00 360.00 
L 502.00 360.00
C 491.30 348.73 480.50 336.49 468.00 327.00
C 462.77 332.12 458.68 339.30 452.00 342.00
C 435.97 328.88 424.92 309.09 408.00 296.00
C 407.69 296.24 406.31 296.24 406.00 296.00
C 382.71 314.02 366.47 341.60 344.00 360.00 Z"/>
</g>
<g fill="None" fill-opacity="0.0" stroke="#E7F1F3" stroke-opacity="1.00" stroke-width="0.3"><path d="
M 278.00 360.00 
L 324.00 360.00
C 327.53 356.29 331.71 350.84 335.75 347.75 C 339.79 344.66 343.58 337.91 347.75 335.75 C 351.92 333.59 356.12 323.41 360.00 323.00
C 351.47 316.58 345.06 306.29 336.00 301.00
C 317.15 321.35 296.78 339.64 278.00 360.00 Z"/>
</g>
<g fill="None" fill-opacity="0.0" stroke="#5A7E90" stroke-opacity="1.00" stroke-width="0.3"><path d="
M 55.00 360.00 
L 61.00 360.00
C 65.52 355.46 68.58 349.72 73.25 345.25 C 77.92 340.78 82.41 335.85 86.75 331.75 C 91.10 327.65 97.02 321.41 99.92 317.92 C 102.82 314.43 114.04 308.16 111.00 304.00
C 89.75 318.84 74.89 343.46 55.00 360.00 Z"/>
</g>
<g fill="None" fill-opacity="0.0" stroke="#AEC9CD" stroke-opacity="1.00" stroke-width="0.3"><path d="
M 324.00 360.00 
L 338.00 360.00
C 341.29 357.74 345.30 356.11 345.00 352.00
C 350.31 353.60 352.00 345.57 355.75 342.75 C 359.49 339.92 361.46 333.84 365.00 331.00
C 364.66 326.81 362.63 325.11 360.00 323.00
C 356.12 323.41 351.92 333.59 347.75 335.75 C 343.58 337.91 339.79 344.66 335.75 347.75 C 331.71 350.84 327.53 356.29 324.00 360.00 Z"/>
</g>
<g fill="None" fill-opacity="0.0" stroke="#5E8292" stroke-opacity="1.00" stroke-width="0.3"><path d="
M 102.00 360.00 
L 107.00 360.00
C 118.30 351.13 125.26 338.01 137.00 331.00
C 137.22 329.14 135.35 327.94 136.00 326.00
C 124.80 337.20 112.52 348.02 102.00 360.00 Z"/>
</g>
<g fill="#92B1C0" fill-opacity="1.00" stroke="None">
<path d="
M 0.00 5.00 
C 31.15 37.28 61.09 68.42 92.00 99.00
C 92.45 101.31 89.47 102.07 89.00 104.00
C 98.85 118.09 115.03 128.29 126.00 141.00
C 131.30 147.14 128.36 150.80 126.00 158.00
C 115.07 157.85 106.40 171.29 98.25 179.25 C 90.10 187.20 76.54 196.78 77.00 208.00
C 73.09 207.50 71.43 202.56 68.00 201.00
C 67.55 198.69 70.53 197.93 71.00 196.00
C 70.48 196.32 69.41 196.65 69.00 197.00
C 68.19 197.69 67.62 199.19 67.00 200.00
C 48.15 224.92 20.38 243.52 0.00 267.00
L 0.00 287.00
C 13.17 273.74 27.88 261.19 40.00 247.00
C 44.93 241.23 44.27 239.59 44.78 233.78 C 45.30 227.96 55.69 226.82 59.00 225.00
C 58.03 222.63 56.25 220.61 56.00 218.00
C 62.57 219.41 65.30 206.69 72.00 205.00
C 76.67 210.82 83.71 214.68 88.00 221.00
C 89.04 222.00 89.96 222.97 91.00 224.00
C 93.96 226.92 96.99 232.04 101.00 234.00
C 100.49 233.75 100.32 232.34 100.00 232.00
C 98.17 230.04 92.14 227.20 95.00 224.00
C 88.69 224.73 85.10 211.79 79.00 210.00
C 79.78 201.88 86.89 196.23 92.75 190.75 C 98.61 185.27 103.91 178.71 109.75 173.75 C 115.60 168.79 120.64 158.93 128.00 160.00
C 139.68 147.64 127.18 136.58 117.75 128.25 C 108.33 119.91 100.40 110.43 92.00 102.00
C 98.65 90.34 106.73 89.44 114.75 77.75 C 122.77 66.06 132.18 75.51 139.75 84.25 C 147.32 92.98 155.49 99.31 163.25 107.75 C 171.00 116.19 180.15 122.95 187.00 132.00
C 187.36 131.67 188.49 130.98 189.00 131.00
C 191.36 131.10 194.76 136.65 196.00 138.00
C 195.81 137.59 196.00 137.00 196.00 137.00
C 195.69 136.15 194.57 134.62 194.00 134.00
C 192.97 132.88 191.09 130.94 190.00 130.00
C 189.25 129.36 187.97 128.82 187.00 128.00
C 141.22 89.18 104.34 40.31 60.00 0.00
L 59.00 0.00
C 62.93 4.83 67.84 9.33 72.25 13.75 C 76.66 18.17 81.89 23.52 86.25 27.75 C 90.61 31.98 95.60 37.49 99.75 41.25 C 103.91 45.00 110.05 52.45 113.75 55.25 C 117.45 58.04 127.63 69.16 122.30 68.64 C 116.97 68.13 113.55 57.88 108.92 55.08 C 104.28 52.28 99.04 45.05 94.90 41.10 C 90.76 37.15 85.78 32.27 81.23 27.77 C 76.68 23.27 71.47 18.55 66.92 14.08 C 62.37 9.61 56.99 4.42 53.00 0.00
L 0.00 0.00
L 0.00 5.00 Z"/>
</g>
<g fill="#6B95A7" fill-opacity="1.00" stroke="None">
<path d="
M 59.00 0.00 
L 53.00 0.00
C 56.99 4.42 62.37 9.61 66.92 14.08 C 71.47 18.55 76.68 23.27 81.23 27.77 C 85.78 32.27 90.76 37.15 94.90 41.10 C 99.04 45.05 104.28 52.28 108.92 55.08 C 113.55 57.88 116.97 68.13 122.30 68.64 C 127.63 69.16 117.45 58.04 113.75 55.25 C 110.05 52.45 103.91 45.00 99.75 41.25 C 95.60 37.49 90.61 31.98 86.25 27.75 C 81.89 23.52 76.66 18.17 72.25 13.75 C 67.84 9.33 62.93 4.83 59.00 0.00 Z"/>
</g>
<g fill="#C5D7DE" fill-opacity="1.00" stroke="None">
<path d="
M 187.00 128.00 
C 180.76 121.59 174.67 115.11 168.25 108.75 C 161.83 102.40 155.50 96.38 149.25 89.75 C 142.99 83.12 135.74 77.27 129.75 70.25 C 123.76 63.23 137.26 56.69 142.25 50.25 C 147.23 43.81 156.20 33.74 161.75 42.25 C 167.31 50.76 174.80 54.41 181.25 61.75 C 187.70 69.09 193.75 73.78 200.25 80.75 C 206.75 87.73 214.20 96.20 224.00 94.00
C 214.98 106.68 200.41 117.55 190.00 130.00
C 214.49 106.63 238.10 82.11 262.00 58.00
C 262.75 57.24 263.15 56.65 264.00 56.00
C 267.89 52.15 272.54 47.56 275.00 43.00
C 269.25 46.98 264.68 52.73 258.99 55.99 C 253.30 59.25 248.83 65.62 244.25 70.25 C 239.66 74.87 233.77 79.28 229.75 84.75 C 225.73 90.22 212.67 93.38 215.00 86.00
C 215.49 85.53 215.59 84.43 216.00 84.00
C 213.73 82.65 210.97 85.16 208.25 80.75 C 205.53 76.34 205.47 78.23 201.25 73.75 C 197.03 69.27 191.61 64.27 187.25 59.75 C 182.89 55.23 177.54 50.21 173.25 45.75 C 168.95 41.30 169.76 42.76 166.00 39.00
C 150.22 29.65 134.72 14.67 121.00 0.00
L 60.00 0.00
C 104.34 40.31 141.22 89.18 187.00 128.00 Z"/>
</g>
<g fill="#A3BDC7" fill-opacity="1.00" stroke="None">
<path d="
M 166.00 39.00 
C 153.25 26.25 140.52 12.89 128.00 0.00
L 121.00 0.00
C 134.72 14.67 150.22 29.65 166.00 39.00 Z"/>
</g>
<g fill="#EEF3F5" fill-opacity="1.00" stroke="None">
<path d="
M 166.00 39.00 
C 169.76 42.76 168.95 41.30 173.25 45.75 C 177.54 50.21 182.89 55.23 187.25 59.75 C 191.61 64.27 197.03 69.27 201.25 73.75 C 205.47 78.23 205.53 76.34 208.25 80.75 C 210.97 85.16 213.73 82.65 216.00 84.00
C 222.33 80.86 226.17 71.50 232.25 67.25 C 238.32 63.00 242.96 55.59 248.75 50.75 C 254.55 45.91 259.74 39.26 265.00 34.00
C 265.00 29.84 256.41 26.55 254.25 22.75 C 252.09 18.95 246.16 15.59 243.25 11.75 C 240.34 7.92 234.58 4.18 232.00 0.00
L 128.00 0.00
C 140.52 12.89 153.25 26.25 166.00 39.00 Z"/>
</g>
<g fill="#CCDEE4" fill-opacity="1.00" stroke="None">
<path d="
M 265.00 34.00 
C 276.25 22.75 288.53 11.93 299.00 0.00
L 232.00 0.00
C 234.58 4.18 240.34 7.92 243.25 11.75 C 246.16 15.59 252.09 18.95 254.25 22.75 C 256.41 26.55 265.00 29.84 265.00 34.00 Z"/>
</g>
<g fill="#9FB9C0" fill-opacity="1.00" stroke="None">
<path d="
M 265.00 34.00 
C 259.74 39.26 254.55 45.91 248.75 50.75 C 242.96 55.59 238.32 63.00 232.25 67.25 C 226.17 71.50 222.33 80.86 216.00 84.00
C 231.15 67.76 248.34 52.66 264.00 37.00
C 276.08 24.92 288.15 12.22 300.00 0.00
L 299.00 0.00
C 288.53 11.93 276.25 22.75 265.00 34.00 Z"/>
</g>
<g fill="#54818D" fill-opacity="1.00" stroke="None">
<path d="
M 264.00 37.00 
C 264.94 36.51 269.42 35.54 270.00 39.00
C 281.85 26.54 295.40 13.90 307.00 0.00
L 300.00 0.00
C 288.15 12.22 276.08 24.92 264.00 37.00 Z"/>
</g>
<g fill="#779FA8" fill-opacity="1.00" stroke="None">
<path d="
M 264.00 37.00 
C 248.34 52.66 231.15 67.76 216.00 84.00
C 215.59 84.43 215.49 85.53 215.00 86.00
C 217.22 91.75 226.34 85.49 228.75 81.75 C 231.17 78.02 237.10 74.13 240.25 70.25 C 243.40 66.36 247.69 63.40 251.25 59.25 C 254.80 55.10 260.44 53.19 263.75 48.75 C 267.07 44.32 271.83 39.14 277.00 43.00
C 288.00 26.27 304.00 15.06 317.00 0.00
L 307.00 0.00
C 295.40 13.90 281.85 26.54 270.00 39.00
C 269.42 35.54 264.94 36.51 264.00 37.00 Z"/>
</g>
<g fill="#9DC1C9" fill-opacity="1.00" stroke="None">
<path d="
M 215.00 86.00 
C 212.67 93.38 225.73 90.22 229.75 84.75 C 233.77 79.28 239.66 74.87 244.25 70.25 C 248.83 65.62 253.30 59.25 258.99 55.99 C 264.68 52.73 269.25 46.98 275.00 43.00
C 272.54 47.56 267.89 52.15 264.00 56.00
C 267.72 53.15 270.71 48.53 275.00 47.00
C 274.19 50.10 271.46 51.41 269.00 53.00
C 272.52 54.81 264.80 57.63 268.00 62.00
C 265.78 61.49 263.20 60.02 262.00 58.00
C 238.10 82.11 214.49 106.63 190.00 130.00
C 191.09 130.94 192.97 132.88 194.00 134.00
C 200.02 137.19 212.13 119.64 218.75 113.75 C 225.38 107.86 235.62 96.11 243.23 89.23 C 250.84 82.35 259.55 70.21 267.00 64.00
C 273.49 69.02 278.56 76.03 285.00 81.00
C 263.41 106.42 236.72 129.12 214.00 154.00
C 207.51 148.98 202.44 141.97 196.00 137.00
C 196.00 137.00 195.81 137.59 196.00 138.00
C 196.24 138.26 196.73 138.79 197.00 139.00
C 203.31 143.92 209.21 150.85 215.00 154.00
C 221.37 151.31 225.17 141.46 231.25 137.25 C 237.32 133.04 242.51 125.27 248.25 120.25 C 253.98 115.23 259.28 109.25 264.75 103.75 C 270.22 98.25 276.57 92.43 282.00 87.00
C 310.75 58.25 339.48 28.89 368.00 0.00
L 317.00 0.00
C 304.00 15.06 288.00 26.27 277.00 43.00
C 271.83 39.14 267.07 44.32 263.75 48.75 C 260.44 53.19 254.80 55.10 251.25 59.25 C 247.69 63.40 243.40 66.36 240.25 70.25 C 237.10 74.13 231.17 78.02 228.75 81.75 C 226.34 85.49 217.22 91.75 215.00 86.00 Z"/>
</g>
<g fill="#30616C" fill-opacity="1.00" stroke="None">
<path d="
M 282.00 87.00 
C 282.02 86.99 286.18 86.34 286.00 84.00
C 289.10 84.86 291.80 87.87 294.00 90.00
C 300.07 95.39 306.31 101.31 312.00 107.00
C 307.01 101.16 302.63 96.18 297.00 91.00
C 304.51 72.26 323.17 59.55 336.25 44.25 C 349.32 28.95 365.62 15.04 379.00 0.00
L 368.00 0.00
C 339.48 28.89 310.75 58.25 282.00 87.00 Z"/>
</g>
<g fill="#3D7985" fill-opacity="1.00" stroke="None">
<path d="
M 312.00 107.00 
C 321.69 118.34 334.20 127.79 343.75 139.25 C 353.30 150.71 368.21 159.41 376.00 172.00
C 376.20 172.32 376.68 172.80 377.00 173.00
C 384.72 177.77 389.47 187.05 397.00 192.00
C 396.70 193.25 395.17 193.71 395.00 195.00
C 393.44 201.19 388.58 208.74 384.00 215.00
C 377.85 212.23 373.17 229.34 366.00 229.00
C 366.83 234.44 357.25 238.39 357.00 245.00
C 354.24 243.58 352.73 240.35 350.00 239.00
C 350.00 243.94 360.00 246.64 362.25 250.75 C 364.50 254.87 371.88 258.56 374.00 263.00
C 375.20 262.33 376.58 261.36 377.00 260.00
C 370.91 260.69 369.40 250.00 364.00 249.00
C 363.58 238.94 372.34 234.03 378.75 227.75 C 385.15 221.47 388.71 214.75 395.75 208.75 C 402.80 202.75 402.73 192.96 395.25 187.75 C 387.76 182.55 385.53 172.79 377.00 172.00
C 375.26 167.72 370.40 161.14 365.23 157.76 C 360.06 154.39 353.77 144.53 350.08 140.92 C 346.39 137.30 339.63 132.08 335.70 126.30 C 331.78 120.51 326.92 117.35 321.25 110.75 C 315.59 104.14 310.25 98.46 304.00 93.00
C 304.10 79.88 319.05 70.66 327.25 60.25 C 335.45 49.84 346.69 40.83 355.30 30.30 C 363.91 19.77 375.82 11.48 384.00 0.00
L 379.00 0.00
C 365.62 15.04 349.32 28.95 336.25 44.25 C 323.17 59.55 304.51 72.26 297.00 91.00
C 302.63 96.18 307.01 101.16 312.00 107.00 Z"/>
</g>
<g fill="#4D95A1" fill-opacity="1.00" stroke="None">
<path d="
M 377.00 260.00 
C 381.24 256.39 385.62 252.37 389.00 248.00
C 400.91 256.77 411.46 269.27 422.00 280.00
C 423.93 278.74 425.91 277.00 427.00 275.00
C 428.96 272.70 431.24 270.38 433.00 268.00
C 429.76 270.10 429.23 266.75 426.00 267.00
C 430.06 238.75 427.46 209.51 428.00 180.00 C 428.54 150.49 427.72 119.74 428.00 90.00 C 428.28 60.26 427.79 29.81 428.00 0.00
L 384.00 0.00
C 375.82 11.48 363.91 19.77 355.30 30.30 C 346.69 40.83 335.45 49.84 327.25 60.25 C 319.05 70.66 304.10 79.88 304.00 93.00
C 310.25 98.46 315.59 104.14 321.25 110.75 C 326.92 117.35 331.78 120.51 335.70 126.30 C 339.63 132.08 346.39 137.30 350.08 140.92 C 353.77 144.53 360.06 154.39 365.23 157.76 C 370.40 161.14 375.26 167.72 377.00 172.00
C 385.53 172.79 387.76 182.55 395.25 187.75 C 402.73 192.96 402.80 202.75 395.75 208.75 C 388.71 214.75 385.15 221.47 378.75 227.75 C 372.34 234.03 363.58 238.94 364.00 249.00
C 369.40 250.00 370.91 260.69 377.00 260.00 Z"/>
</g>
<g fill="#5AA4AB" fill-opacity="1.00" stroke="None">
<path d="
M 427.00 275.00 
C 433.92 268.08 441.86 261.60 448.00 254.00
C 451.15 253.96 452.30 258.02 455.00 259.00
C 459.22 261.73 469.99 264.85 469.00 271.00
C 479.62 277.79 485.03 288.40 495.00 298.00
C 496.12 297.98 497.33 295.03 498.00 297.00
C 499.97 295.03 502.16 292.25 504.00 290.00
C 527.67 312.83 551.21 336.38 574.00 360.00
L 579.00 360.00
C 568.42 347.55 558.49 331.51 543.00 324.00
C 541.41 317.95 534.12 310.33 528.75 304.25 C 523.38 298.17 519.03 286.33 509.00 289.00
C 506.70 193.16 508.64 96.26 508.00 0.00
L 428.00 0.00
C 427.79 29.81 428.28 60.26 428.00 90.00 C 427.72 119.74 428.54 150.49 428.00 180.00 C 427.46 209.51 430.06 238.75 426.00 267.00
C 429.23 266.75 429.76 270.10 433.00 268.00
C 431.24 270.38 428.96 272.70 427.00 275.00 Z"/>
</g>
<g fill="#65B1B4" fill-opacity="1.00" stroke="None">
<path d="
M 579.00 360.00 
L 587.00 360.00
C 584.21 355.48 581.74 358.02 584.00 352.00
C 582.03 353.99 579.96 351.70 578.00 351.00
C 578.91 348.93 579.32 345.02 576.00 345.00
C 581.82 337.51 578.36 324.97 579.00 314.00 C 579.64 303.03 578.71 290.35 579.00 279.00 C 579.29 267.65 578.87 255.51 579.00 244.00 C 579.13 232.49 578.94 220.56 579.00 209.00 C 579.06 197.44 578.97 185.55 579.00 174.00 C 579.03 162.45 578.99 151.57 579.00 140.00 C 579.01 128.43 578.99 116.62 579.00 105.00 C 579.01 93.38 579.00 81.65 579.00 70.00 C 579.00 58.35 579.00 46.66 579.00 35.00 C 579.00 23.34 579.00 11.66 579.00 0.00
L 508.00 0.00
C 508.64 96.26 506.70 193.16 509.00 289.00
C 519.03 286.33 523.38 298.17 528.75 304.25 C 534.12 310.33 541.41 317.95 543.00 324.00
C 558.49 331.51 568.42 347.55 579.00 360.00 Z"/>
</g>
<g fill="#74C3BF" fill-opacity="1.00" stroke="None">
<path d="
M 587.00 360.00 
L 721.00 360.00
L 721.00 0.00
L 579.00 0.00
C 579.00 11.66 579.00 23.34 579.00 35.00 C 579.00 46.66 579.00 58.35 579.00 70.00 C 579.00 81.65 579.01 93.38 579.00 105.00 C 578.99 116.62 579.01 128.43 579.00 140.00 C 578.99 151.57 579.03 162.45 579.00 174.00 C 578.97 185.55 579.06 197.44 579.00 209.00 C 578.94 220.56 579.13 232.49 579.00 244.00 C 578.87 255.51 579.29 267.65 579.00 279.00 C 578.71 290.35 579.64 303.03 579.00 314.00 C 578.36 324.97 581.82 337.51 576.00 345.00
C 579.32 345.02 578.91 348.93 578.00 351.00
C 579.96 351.70 582.03 353.99 584.00 352.00
C 581.74 358.02 584.21 355.48 587.00 360.00 Z"/>
</g>
<g fill="#7097AB" fill-opacity="1.00" stroke="None">
<path d="
M 0.00 16.00 
C 14.11 30.80 30.86 44.22 44.25 59.75 C 57.64 75.29 76.33 87.30 88.00 104.00
C 88.35 103.77 89.00 104.00 89.00 104.00
C 89.47 102.07 92.45 101.31 92.00 99.00
C 61.09 68.42 31.15 37.28 0.00 5.00
L 0.00 16.00 Z"/>
</g>
<g fill="#C3D4DD" fill-opacity="1.00" stroke="None">
<path d="
M 0.00 64.00 
C 6.06 60.92 10.17 54.81 15.00 50.00
C 20.29 54.44 24.84 59.26 29.75 64.25 C 34.67 69.23 39.34 73.53 44.25 78.75 C 49.15 83.97 53.81 87.54 58.75 93.25 C 63.69 98.96 68.20 100.97 73.25 107.75 C 78.30 114.54 83.22 110.18 88.00 104.00
C 76.33 87.30 57.64 75.29 44.25 59.75 C 30.86 44.22 14.11 30.80 0.00 16.00
L 0.00 64.00 Z"/>
</g>
<g fill="#E4EDF0" fill-opacity="1.00" stroke="None">
<path d="
M 187.00 128.00 
C 187.97 128.82 189.25 129.36 190.00 130.00
C 200.41 117.55 214.98 106.68 224.00 94.00
C 214.20 96.20 206.75 87.73 200.25 80.75 C 193.75 73.78 187.70 69.09 181.25 61.75 C 174.80 54.41 167.31 50.76 161.75 42.25 C 156.20 33.74 147.23 43.81 142.25 50.25 C 137.26 56.69 123.76 63.23 129.75 70.25 C 135.74 77.27 142.99 83.12 149.25 89.75 C 155.50 96.38 161.83 102.40 168.25 108.75 C 174.67 115.11 180.76 121.59 187.00 128.00 Z"/>
</g>
<g fill="#7AA2AB" fill-opacity="1.00" stroke="None">
<path d="
M 264.00 56.00 
C 263.15 56.65 262.75 57.24 262.00 58.00
C 263.20 60.02 265.78 61.49 268.00 62.00
C 264.80 57.63 272.52 54.81 269.00 53.00
C 271.46 51.41 274.19 50.10 275.00 47.00
C 270.71 48.53 267.72 53.15 264.00 56.00 Z"/>
</g>
<g fill="#E7EEF1" fill-opacity="1.00" stroke="None">
<path d="
M 0.00 64.00 
L 0.00 123.00
C 12.36 133.49 21.69 145.49 35.00 156.00
C 33.57 165.15 44.95 169.23 50.75 176.25 C 56.55 183.26 63.47 189.76 69.00 197.00
C 69.41 196.65 70.48 196.32 71.00 196.00
C 76.16 192.86 80.37 186.90 84.75 182.75 C 89.14 178.61 94.92 173.15 98.75 168.75 C 102.59 164.35 109.56 159.80 112.25 155.25 C 114.93 150.70 126.00 145.93 126.00 141.00
C 115.03 128.29 98.85 118.09 89.00 104.00
C 89.00 104.00 88.35 103.77 88.00 104.00
C 83.22 110.18 78.30 114.54 73.25 107.75 C 68.20 100.97 63.69 98.96 58.75 93.25 C 53.81 87.54 49.15 83.97 44.25 78.75 C 39.34 73.53 34.67 69.23 29.75 64.25 C 24.84 59.26 20.29 54.44 15.00 50.00
C 10.17 54.81 6.06 60.92 0.00 64.00 Z"/>
</g>
<g fill="#C8DBE1" fill-opacity="1.00" stroke="None">
<path d="
M 194.00 134.00 
C 194.57 134.62 195.69 136.15 196.00 137.00
C 202.44 141.97 207.51 148.98 214.00 154.00
C 236.72 129.12 263.41 106.42 285.00 81.00
C 278.56 76.03 273.49 69.02 267.00 64.00
C 259.55 70.21 250.84 82.35 243.23 89.23 C 235.62 96.11 225.38 107.86 218.75 113.75 C 212.13 119.64 200.02 137.19 194.00 134.00 Z"/>
</g>
<g fill="#CBDBE2" fill-opacity="1.00" stroke="None">
<path d="
M 95.00 224.00 
C 95.38 223.96 96.68 223.19 97.00 223.00
C 99.14 221.00 100.97 218.03 103.00 216.00
C 100.53 218.11 98.06 221.21 95.00 222.00
C 92.36 215.58 86.02 211.91 83.00 206.00
C 88.79 198.60 95.52 194.11 102.08 187.08 C 108.65 180.05 115.40 177.24 121.75 168.75 C 128.09 160.25 134.96 168.63 142.00 176.00
C 140.58 178.76 137.35 180.27 136.00 183.00
C 138.09 180.91 140.96 179.04 143.00 177.00
C 156.29 161.45 172.10 145.90 187.00 132.00
C 180.15 122.95 171.00 116.19 163.25 107.75 C 155.49 99.31 147.32 92.98 139.75 84.25 C 132.18 75.51 122.77 66.06 114.75 77.75 C 106.73 89.44 98.65 90.34 92.00 102.00
C 100.40 110.43 108.33 119.91 117.75 128.25 C 127.18 136.58 139.68 147.64 128.00 160.00
C 120.64 158.93 115.60 168.79 109.75 173.75 C 103.91 178.71 98.61 185.27 92.75 190.75 C 86.89 196.23 79.78 201.88 79.00 210.00
C 85.10 211.79 88.69 224.73 95.00 224.00 Z"/>
</g>
<g fill="#558390" fill-opacity="1.00" stroke="None">
<path d="
M 282.00 87.00 
C 276.57 92.43 270.22 98.25 264.75 103.75 C 259.28 109.25 253.98 115.23 248.25 120.25 C 242.51 125.27 237.32 133.04 231.25 137.25 C 225.17 141.46 221.37 151.31 215.00 154.00
C 224.36 159.09 229.44 150.88 236.25 144.25 C 243.05 137.61 248.84 130.95 255.25 125.25 C 261.65 119.54 267.29 110.28 273.75 105.75 C 280.21 101.23 286.82 87.22 294.00 90.00
C 291.80 87.87 289.10 84.86 286.00 84.00
C 286.18 86.34 282.02 86.99 282.00 87.00 Z"/>
</g>
<g fill="#78A1AE" fill-opacity="1.00" stroke="None">
<path d="
M 215.00 154.00 
C 209.21 150.85 203.31 143.92 197.00 139.00
C 195.93 140.50 182.65 140.75 187.00 148.00
C 184.86 148.52 184.19 145.43 182.00 146.00
C 175.40 146.79 170.72 158.85 164.75 162.75 C 158.77 166.65 151.66 176.00 151.00 183.00
C 148.42 182.76 146.38 180.92 144.00 180.00
C 137.90 189.28 127.69 197.16 120.30 205.30 C 112.91 213.43 101.01 221.56 100.00 232.00
C 100.32 232.34 100.49 233.75 101.00 234.00
C 101.40 234.20 102.00 234.00 102.00 234.00
C 105.17 228.52 108.60 219.27 115.75 214.75 C 122.90 210.23 126.60 201.75 133.25 197.25 C 139.89 192.74 143.94 180.79 152.00 185.00
C 156.25 169.15 174.60 160.49 183.00 147.00
C 184.57 147.96 186.25 149.32 187.00 151.00
C 187.16 151.23 188.00 151.00 188.00 151.00
C 193.60 153.74 197.33 161.02 202.25 164.75 C 207.16 168.49 212.07 175.63 216.75 179.25 C 221.43 182.86 227.57 194.53 231.00 186.00
C 224.81 181.48 218.33 174.60 213.30 169.70 C 208.26 164.80 205.34 154.63 197.00 154.00
C 200.63 152.44 197.29 150.07 196.00 148.00
C 203.40 150.75 216.29 169.31 226.68 161.68 C 237.07 154.05 241.57 144.24 251.25 136.25 C 260.93 128.26 267.17 118.09 275.77 110.77 C 284.37 103.45 292.01 87.92 300.75 97.25 C 309.49 106.58 317.21 113.48 325.75 122.25 C 334.30 131.02 342.26 138.75 350.75 147.25 C 359.24 155.75 367.19 164.10 376.00 172.00
C 368.21 159.41 353.30 150.71 343.75 139.25 C 334.20 127.79 321.69 118.34 312.00 107.00
C 306.31 101.31 300.07 95.39 294.00 90.00
C 286.82 87.22 280.21 101.23 273.75 105.75 C 267.29 110.28 261.65 119.54 255.25 125.25 C 248.84 130.95 243.05 137.61 236.25 144.25 C 229.44 150.88 224.36 159.09 215.00 154.00 Z"/>
</g>
<g fill="#A1C6CD" fill-opacity="1.00" stroke="None">
<path d="
M 188.00 151.00 
C 198.54 166.09 216.49 175.97 227.00 191.00
C 227.16 190.77 228.00 191.00 228.00 191.00
C 239.42 196.59 245.95 211.10 256.25 218.75 C 266.54 226.41 274.13 238.56 284.25 246.75 C 294.36 254.95 302.33 267.55 313.00 275.00
C 314.69 273.52 316.78 272.25 319.00 272.00
C 322.61 284.79 330.01 288.91 338.00 299.00
C 328.61 293.37 321.86 282.75 313.00 276.00
C 317.20 284.58 327.12 289.15 333.25 296.75 C 339.37 304.35 347.72 287.83 354.25 283.25 C 360.77 278.67 367.95 266.13 376.00 264.00
C 383.85 275.98 397.64 283.77 406.00 296.00
C 406.31 296.24 407.69 296.24 408.00 296.00
C 413.17 292.00 417.17 285.33 422.00 281.00
C 438.25 294.10 453.12 310.94 468.00 326.00
C 476.46 319.45 482.05 314.51 489.75 305.75 C 497.45 297.00 505.26 310.02 512.25 316.75 C 519.23 323.49 526.74 331.26 533.75 338.25 C 540.77 345.24 548.51 352.62 555.00 360.00
L 574.00 360.00
C 551.21 336.38 527.67 312.83 504.00 290.00
C 502.16 292.25 499.97 295.03 498.00 297.00
C 497.06 297.94 496.56 299.78 495.00 300.00
C 482.33 285.83 467.62 273.12 455.00 259.00
C 452.30 258.02 451.15 253.96 448.00 254.00
C 441.86 261.60 433.92 268.08 427.00 275.00
C 425.91 277.00 423.93 278.74 422.00 280.00
C 411.46 269.27 400.91 256.77 389.00 248.00
C 385.62 252.37 381.24 256.39 377.00 260.00
C 376.58 261.36 375.20 262.33 374.00 263.00
C 371.88 258.56 364.50 254.87 362.25 250.75 C 360.00 246.64 350.00 243.94 350.00 239.00
C 350.00 237.39 353.06 235.80 354.00 235.00
C 367.92 221.08 381.40 206.14 396.00 193.00
C 390.32 185.84 382.63 180.11 377.00 173.00
C 376.68 172.80 376.20 172.32 376.00 172.00
C 367.19 164.10 359.24 155.75 350.75 147.25 C 342.26 138.75 334.30 131.02 325.75 122.25 C 317.21 113.48 309.49 106.58 300.75 97.25 C 292.01 87.92 284.37 103.45 275.77 110.77 C 267.17 118.09 260.93 128.26 251.25 136.25 C 241.57 144.24 237.07 154.05 226.68 161.68 C 216.29 169.31 203.40 150.75 196.00 148.00
C 197.29 150.07 200.63 152.44 197.00 154.00
C 205.34 154.63 208.26 164.80 213.30 169.70 C 218.33 174.60 224.81 181.48 231.00 186.00
C 227.57 194.53 221.43 182.86 216.75 179.25 C 212.07 175.63 207.16 168.49 202.25 164.75 C 197.33 161.02 193.60 153.74 188.00 151.00
M 278.00 167.00 
C 276.48 165.22 274.27 163.33 274.00 161.00
C 297.46 184.96 321.90 207.24 344.00 232.00
C 345.19 234.04 346.25 237.07 349.00 238.00
C 340.39 250.40 326.73 260.13 317.00 272.00
C 286.01 244.29 259.97 213.54 232.00 188.00
C 242.27 176.28 253.98 166.78 264.00 155.00
C 269.67 157.03 272.84 163.87 278.00 167.00 Z"/>
</g>
<g fill="#C1D1D9" fill-opacity="1.00" stroke="None">
<path d="
M 0.00 134.00 
C 22.83 155.34 44.21 178.71 67.00 200.00
C 67.62 199.19 68.19 197.69 69.00 197.00
C 63.47 189.76 56.55 183.26 50.75 176.25 C 44.95 169.23 33.57 165.15 35.00 156.00
C 21.69 145.49 12.36 133.49 0.00 123.00
L 0.00 134.00 Z"/>
</g>
<g fill="#678B99" fill-opacity="1.00" stroke="None">
<path d="
M 187.00 132.00 
C 172.10 145.90 156.29 161.45 143.00 177.00
C 136.19 184.97 128.11 193.26 120.25 200.25 C 112.39 207.24 105.89 217.59 97.00 223.00
C 96.68 223.19 95.38 223.96 95.00 224.00
C 92.14 227.20 98.17 230.04 100.00 232.00
C 101.01 221.56 112.91 213.43 120.30 205.30 C 127.69 197.16 137.90 189.28 144.00 180.00
C 146.38 180.92 148.42 182.76 151.00 183.00
C 151.66 176.00 158.77 166.65 164.75 162.75 C 170.72 158.85 175.40 146.79 182.00 146.00
C 180.65 144.98 179.15 142.62 179.00 141.00
C 182.64 138.13 186.23 134.64 189.00 131.00
C 188.49 130.98 187.36 131.67 187.00 132.00 Z"/>
</g>
<g fill="#447080" fill-opacity="1.00" stroke="None">
<path d="
M 182.00 146.00 
C 184.19 145.43 184.86 148.52 187.00 148.00
C 182.65 140.75 195.93 140.50 197.00 139.00
C 196.73 138.79 196.24 138.26 196.00 138.00
C 194.76 136.65 191.36 131.10 189.00 131.00
C 186.23 134.64 182.64 138.13 179.00 141.00
C 179.15 142.62 180.65 144.98 182.00 146.00 Z"/>
</g>
<g fill="#EBF0F4" fill-opacity="1.00" stroke="None">
<path d="
M 0.00 267.00 
C 20.38 243.52 48.15 224.92 67.00 200.00
C 44.21 178.71 22.83 155.34 0.00 134.00
L 0.00 267.00 Z"/>
</g>
<g fill="#7293A1" fill-opacity="1.00" stroke="None">
<path d="
M 71.00 196.00 
C 70.53 197.93 67.55 198.69 68.00 201.00
C 71.43 202.56 73.09 207.50 77.00 208.00
C 76.54 196.78 90.10 187.20 98.25 179.25 C 106.40 171.29 115.07 157.85 126.00 158.00
C 128.36 150.80 131.30 147.14 126.00 141.00
C 126.00 145.93 114.93 150.70 112.25 155.25 C 109.56 159.80 102.59 164.35 98.75 168.75 C 94.92 173.15 89.14 178.61 84.75 182.75 C 80.37 186.90 76.16 192.86 71.00 196.00 Z"/>
</g>
<g fill="#A2BCC6" fill-opacity="1.00" stroke="None">
<path d="
M 102.00 234.00 
C 112.36 248.83 129.32 259.43 141.00 273.00
C 140.70 274.25 139.17 274.71 139.00 276.00
C 139.46 287.63 127.14 295.15 118.75 304.75 C 110.37 314.35 101.50 322.61 92.75 331.75 C 84.00 340.90 73.30 348.72 68.00 360.00
L 74.00 360.00
C 80.39 348.33 90.86 338.35 101.75 328.75 C 112.65 319.15 117.84 307.66 130.75 297.75 C 143.66 287.84 148.42 273.70 134.30 263.70 C 120.18 253.70 115.69 244.45 106.00 232.00
C 109.96 226.23 115.95 220.25 121.25 215.25 C 126.54 210.25 131.99 203.92 137.25 199.25 C 142.50 194.58 148.16 182.42 154.00 189.00
C 174.98 207.10 192.25 228.59 214.00 247.00
C 213.70 248.25 212.17 248.71 212.00 250.00
C 212.09 251.31 213.66 254.60 215.00 255.00
C 207.61 263.72 197.79 272.05 189.75 280.75 C 181.72 289.46 171.91 297.62 163.75 306.75 C 155.60 315.88 143.15 323.55 140.00 335.00
C 130.98 341.54 121.51 350.99 115.00 360.00
L 123.00 360.00
C 129.44 352.20 136.66 343.88 145.00 339.00
C 141.16 329.75 154.49 323.03 160.75 315.75 C 167.01 308.47 175.43 301.30 182.25 294.25 C 189.07 287.19 197.18 278.97 204.25 272.25 C 211.31 265.53 223.11 254.99 214.75 246.25 C 206.39 237.51 202.70 232.47 193.00 226.00
C 195.09 220.01 184.94 214.09 181.75 208.25 C 178.55 202.42 166.37 199.21 167.00 192.00
C 162.59 194.20 160.63 185.61 158.00 185.00
C 163.66 171.07 178.52 163.20 187.00 151.00
C 186.25 149.32 184.57 147.96 183.00 147.00
C 174.60 160.49 156.25 169.15 152.00 185.00
C 143.94 180.79 139.89 192.74 133.25 197.25 C 126.60 201.75 122.90 210.23 115.75 214.75 C 108.60 219.27 105.17 228.52 102.00 234.00 Z"/>
</g>
<g fill="#C8DAE1" fill-opacity="1.00" stroke="None">
<path d="
M 123.00 360.00 
L 167.00 360.00
C 160.44 351.43 150.50 345.13 145.00 336.00
C 159.12 323.74 167.26 311.82 180.75 299.75 C 194.25 287.68 203.16 276.95 217.10 264.10 C 231.04 251.25 209.51 232.64 197.00 224.00
C 203.39 210.84 218.25 202.64 227.00 191.00
C 216.49 175.97 198.54 166.09 188.00 151.00
C 188.00 151.00 187.16 151.23 187.00 151.00
C 178.52 163.20 163.66 171.07 158.00 185.00
C 160.63 185.61 162.59 194.20 167.00 192.00
C 166.37 199.21 178.55 202.42 181.75 208.25 C 184.94 214.09 195.09 220.01 193.00 226.00
C 202.70 232.47 206.39 237.51 214.75 246.25 C 223.11 254.99 211.31 265.53 204.25 272.25 C 197.18 278.97 189.07 287.19 182.25 294.25 C 175.43 301.30 167.01 308.47 160.75 315.75 C 154.49 323.03 141.16 329.75 145.00 339.00
C 136.66 343.88 129.44 352.20 123.00 360.00 Z"/>
</g>
<g fill="#CEE0E5" fill-opacity="1.00" stroke="None">
<path d="
M 344.00 232.00 
C 325.28 209.65 298.18 190.61 278.00 167.00
C 272.84 163.87 269.67 157.03 264.00 155.00
C 253.98 166.78 242.27 176.28 232.00 188.00
C 259.97 213.54 286.01 244.29 317.00 272.00
C 326.73 260.13 340.39 250.40 349.00 238.00
C 346.25 237.07 345.19 234.04 344.00 232.00 Z"/>
</g>
<g fill="#84ACB3" fill-opacity="1.00" stroke="None">
<path d="
M 278.00 167.00 
C 298.18 190.61 325.28 209.65 344.00 232.00
C 321.90 207.24 297.46 184.96 274.00 161.00
C 274.27 163.33 276.48 165.22 278.00 167.00 Z"/>
</g>
<g fill="#EFF4F7" fill-opacity="1.00" stroke="None">
<path d="
M 103.00 216.00 
C 114.53 206.15 126.20 194.47 136.00 183.00
C 137.35 180.27 140.58 178.76 142.00 176.00
C 134.96 168.63 128.09 160.25 121.75 168.75 C 115.40 177.24 108.65 180.05 102.08 187.08 C 95.52 194.11 88.79 198.60 83.00 206.00
C 86.02 211.91 92.36 215.58 95.00 222.00
C 98.06 221.21 100.53 218.11 103.00 216.00 Z"/>
</g>
<g fill="#6B989F" fill-opacity="1.00" stroke="None">
<path d="
M 354.00 235.00 
C 361.00 229.02 368.20 222.29 374.25 215.25 C 380.30 208.21 389.72 202.37 395.00 195.00
C 395.17 193.71 396.70 193.25 397.00 192.00
C 389.47 187.05 384.72 177.77 377.00 173.00
C 382.63 180.11 390.32 185.84 396.00 193.00
C 381.40 206.14 367.92 221.08 354.00 235.00 Z"/>
</g>
<g fill="#8DA3AE" fill-opacity="1.00" stroke="None">
<path d="
M 136.00 183.00 
C 126.20 194.47 114.53 206.15 103.00 216.00
C 100.97 218.03 99.14 221.00 97.00 223.00
C 105.89 217.59 112.39 207.24 120.25 200.25 C 128.11 193.26 136.19 184.97 143.00 177.00
C 140.96 179.04 138.09 180.91 136.00 183.00 Z"/>
</g>
<g fill="#CCDAE1" fill-opacity="1.00" stroke="None">
<path d="
M 74.00 360.00 
L 79.00 360.00
C 84.12 351.95 92.70 344.77 99.75 337.75 C 106.80 330.74 113.80 321.75 123.00 317.00
C 123.66 305.87 132.79 300.08 142.25 291.25 C 151.70 282.41 148.82 269.67 138.75 262.25 C 128.69 254.83 124.85 246.78 115.25 238.75 C 105.65 230.72 122.37 218.87 129.23 213.23 C 136.09 207.59 145.56 194.60 154.00 192.00
C 154.79 190.84 152.04 189.47 154.00 189.00
C 148.16 182.42 142.50 194.58 137.25 199.25 C 131.99 203.92 126.54 210.25 121.25 215.25 C 115.95 220.25 109.96 226.23 106.00 232.00
C 115.69 244.45 120.18 253.70 134.30 263.70 C 148.42 273.70 143.66 287.84 130.75 297.75 C 117.84 307.66 112.65 319.15 101.75 328.75 C 90.86 338.35 80.39 348.33 74.00 360.00 Z"/>
</g>
<g fill="#E9F0F2" fill-opacity="1.00" stroke="None">
<path d="
M 79.00 360.00 
L 101.00 360.00
C 119.14 342.49 135.88 322.56 154.75 305.75 C 173.63 288.94 188.95 267.17 209.00 252.00
C 209.83 251.37 211.35 250.71 212.00 250.00
C 212.17 248.71 213.70 248.25 214.00 247.00
C 192.25 228.59 174.98 207.10 154.00 189.00
C 152.04 189.47 154.79 190.84 154.00 192.00
C 145.56 194.60 136.09 207.59 129.23 213.23 C 122.37 218.87 105.65 230.72 115.25 238.75 C 124.85 246.78 128.69 254.83 138.75 262.25 C 148.82 269.67 151.70 282.41 142.25 291.25 C 132.79 300.08 123.66 305.87 123.00 317.00
C 113.80 321.75 106.80 330.74 99.75 337.75 C 92.70 344.77 84.12 351.95 79.00 360.00 Z"/>
</g>
<g fill="#E5EEF1" fill-opacity="1.00" stroke="None">
<path d="
M 167.00 360.00 
L 229.00 360.00
C 256.17 332.00 284.05 304.12 312.00 277.00
C 286.08 247.25 255.05 220.21 228.00 191.00
C 228.00 191.00 227.16 190.77 227.00 191.00
C 218.25 202.64 203.39 210.84 197.00 224.00
C 209.51 232.64 231.04 251.25 217.10 264.10 C 203.16 276.95 194.25 287.68 180.75 299.75 C 167.26 311.82 159.12 323.74 145.00 336.00
C 150.50 345.13 160.44 351.43 167.00 360.00 Z"/>
</g>
<g fill="#CCDFE4" fill-opacity="1.00" stroke="None">
<path d="
M 229.00 360.00 
L 278.00 360.00
C 296.78 339.64 317.15 321.35 336.00 301.00
C 345.06 306.29 351.47 316.58 360.00 323.00
C 362.63 325.11 364.66 326.81 365.00 331.00
C 361.46 333.84 359.49 339.92 355.75 342.75 C 352.00 345.57 350.31 353.60 345.00 352.00
C 345.30 356.11 341.29 357.74 338.00 360.00
L 344.00 360.00
C 366.47 341.60 382.71 314.02 406.00 296.00
C 397.64 283.77 383.85 275.98 376.00 264.00
C 367.95 266.13 360.77 278.67 354.25 283.25 C 347.72 287.83 339.37 304.35 333.25 296.75 C 327.12 289.15 317.20 284.58 313.00 276.00
C 312.80 275.60 313.00 275.00 313.00 275.00
C 302.33 267.55 294.36 254.95 284.25 246.75 C 274.13 238.56 266.54 226.41 256.25 218.75 C 245.95 211.10 239.42 196.59 228.00 191.00
C 255.05 220.21 286.08 247.25 312.00 277.00
C 284.05 304.12 256.17 332.00 229.00 360.00 Z"/>
</g>
<g fill="#316169" fill-opacity="1.00" stroke="None">
<path d="
M 354.00 235.00 
C 353.06 235.80 350.00 237.39 350.00 239.00
C 352.73 240.35 354.24 243.58 357.00 245.00
C 357.25 238.39 366.83 234.44 366.00 229.00
C 373.17 229.34 377.85 212.23 384.00 215.00
C 388.58 208.74 393.44 201.19 395.00 195.00
C 389.72 202.37 380.30 208.21 374.25 215.25 C 368.20 222.29 361.00 229.02 354.00 235.00 Z"/>
</g>
<g fill="#C5D5DC" fill-opacity="1.00" stroke="None">
<path d="
M 40.00 247.00 
C 48.04 238.96 59.74 219.96 68.75 236.25 C 77.76 252.53 92.25 246.74 99.00 234.00
C 113.88 245.12 125.78 260.89 140.00 273.00
C 130.99 283.50 119.96 292.55 111.00 303.00
C 116.00 299.50 120.67 294.39 124.75 289.75 C 128.83 285.12 135.52 280.87 139.00 276.00
C 139.17 274.71 140.70 274.25 141.00 273.00
C 129.32 259.43 112.36 248.83 102.00 234.00
C 102.00 234.00 101.40 234.20 101.00 234.00
C 96.99 232.04 93.96 226.92 91.00 224.00
C 94.63 230.71 79.96 236.20 78.00 242.00
C 71.81 236.30 65.18 231.23 61.00 224.00
C 66.70 220.90 72.25 215.20 75.00 210.00
C 80.33 212.11 83.26 218.00 88.00 221.00
C 83.71 214.68 76.67 210.82 72.00 205.00
C 65.30 206.69 62.57 219.41 56.00 218.00
C 56.25 220.61 58.03 222.63 59.00 225.00
C 55.69 226.82 45.30 227.96 44.78 233.78 C 44.27 239.59 44.93 241.23 40.00 247.00 Z"/>
</g>
<g fill="#F6F9FB" fill-opacity="1.00" stroke="None">
<path d="
M 91.00 224.00 
C 89.96 222.97 89.04 222.00 88.00 221.00
C 83.26 218.00 80.33 212.11 75.00 210.00
C 72.25 215.20 66.70 220.90 61.00 224.00
C 65.18 231.23 71.81 236.30 78.00 242.00
C 79.96 236.20 94.63 230.71 91.00 224.00 Z"/>
</g>
<g fill="#E5ECF0" fill-opacity="1.00" stroke="None">
<path d="
M 40.00 247.00 
C 27.88 261.19 13.17 273.74 0.00 287.00
L 0.00 360.00
L 55.00 360.00
C 74.89 343.46 89.75 318.84 111.00 304.00
C 110.76 303.67 111.00 303.00 111.00 303.00
C 119.96 292.55 130.99 283.50 140.00 273.00
C 125.78 260.89 113.88 245.12 99.00 234.00
C 92.25 246.74 77.76 252.53 68.75 236.25 C 59.74 219.96 48.04 238.96 40.00 247.00 Z"/>
</g>
<g fill="#7799A4" fill-opacity="1.00" stroke="None">
<path d="
M 209.00 252.00 
C 183.66 275.25 160.28 301.72 136.00 326.00
C 135.35 327.94 137.22 329.14 137.00 331.00
C 125.26 338.01 118.30 351.13 107.00 360.00
L 115.00 360.00
C 121.51 350.99 130.98 341.54 140.00 335.00
C 143.15 323.55 155.60 315.88 163.75 306.75 C 171.91 297.62 181.72 289.46 189.75 280.75 C 197.79 272.05 207.61 263.72 215.00 255.00
C 213.66 254.60 212.09 251.31 212.00 250.00
C 211.35 250.71 209.83 251.37 209.00 252.00 Z"/>
</g>
<g fill="#A5B9C2" fill-opacity="1.00" stroke="None">
<path d="
M 101.00 360.00 
L 102.00 360.00
C 112.52 348.02 124.80 337.20 136.00 326.00
C 160.28 301.72 183.66 275.25 209.00 252.00
C 188.95 267.17 173.63 288.94 154.75 305.75 C 135.88 322.56 119.14 342.49 101.00 360.00 Z"/>
</g>
<g fill="#4E8D92" fill-opacity="1.00" stroke="None">
<path d="
M 455.00 259.00 
C 467.62 273.12 482.33 285.83 495.00 300.00
C 496.56 299.78 497.06 297.94 498.00 297.00
C 497.33 295.03 496.12 297.98 495.00 298.00
C 485.03 288.40 479.62 277.79 469.00 271.00
C 469.99 264.85 459.22 261.73 455.00 259.00 Z"/>
</g>
<g fill="#79A3AA" fill-opacity="1.00" stroke="None">
<path d="
M 313.00 275.00 
C 313.00 275.00 312.80 275.60 313.00 276.00
C 321.86 282.75 328.61 293.37 338.00 299.00
C 330.01 288.91 322.61 284.79 319.00 272.00
C 316.78 272.25 314.69 273.52 313.00 275.00 Z"/>
</g>
<g fill="#7898A6" fill-opacity="1.00" stroke="None">
<path d="
M 111.00 303.00 
C 111.00 303.00 110.76 303.67 111.00 304.00
C 114.04 308.16 102.82 314.43 99.92 317.92 C 97.02 321.41 91.10 327.65 86.75 331.75 C 82.41 335.85 77.92 340.78 73.25 345.25 C 68.58 349.72 65.52 355.46 61.00 360.00
L 68.00 360.00
C 73.30 348.72 84.00 340.90 92.75 331.75 C 101.50 322.61 110.37 314.35 118.75 304.75 C 127.14 295.15 139.46 287.63 139.00 276.00
C 135.52 280.87 128.83 285.12 124.75 289.75 C 120.67 294.39 116.00 299.50 111.00 303.00 Z"/>
</g>
<g fill="#D4E8E9" fill-opacity="1.00" stroke="None">
<path d="
M 408.00 296.00 
C 424.92 309.09 435.97 328.88 452.00 342.00
C 458.68 339.30 462.77 332.12 468.00 327.00
C 480.50 336.49 491.30 348.73 502.00 360.00
L 555.00 360.00
C 548.51 352.62 540.77 345.24 533.75 338.25 C 526.74 331.26 519.23 323.49 512.25 316.75 C 505.26 310.02 497.45 297.00 489.75 305.75 C 482.05 314.51 476.46 319.45 468.00 326.00
C 453.12 310.94 438.25 294.10 422.00 281.00
C 417.17 285.33 413.17 292.00 408.00 296.00 Z"/>
</g>
<g fill="#E9F3F4" fill-opacity="1.00" stroke="None">
<path d="
M 344.00 360.00 
L 502.00 360.00
C 491.30 348.73 480.50 336.49 468.00 327.00
C 462.77 332.12 458.68 339.30 452.00 342.00
C 435.97 328.88 424.92 309.09 408.00 296.00
C 407.69 296.24 406.31 296.24 406.00 296.00
C 382.71 314.02 366.47 341.60 344.00 360.00 Z"/>
</g>
<g fill="#E7F1F3" fill-opacity="1.00" stroke="None">
<path d="
M 278.00 360.00 
L 324.00 360.00
C 327.53 356.29 331.71 350.84 335.75 347.75 C 339.79 344.66 343.58 337.91 347.75 335.75 C 351.92 333.59 356.12 323.41 360.00 323.00
C 351.47 316.58 345.06 306.29 336.00 301.00
C 317.15 321.35 296.78 339.64 278.00 360.00 Z"/>
</g>
<g fill="#5A7E90" fill-opacity="1.00" stroke="None">
<path d="
M 55.00 360.00 
L 61.00 360.00
C 65.52 355.46 68.58 349.72 73.25 345.25 C 77.92 340.78 82.41 335.85 86.75 331.75 C 91.10 327.65 97.02 321.41 99.92 317.92 C 102.82 314.43 114.04 308.16 111.00 304.00
C 89.75 318.84 74.89 343.46 55.00 360.00 Z"/>
</g>
<g fill="#AEC9CD" fill-opacity="1.00" stroke="None">
<path d="
M 324.00 360.00 
L 338.00 360.00
C 341.29 357.74 345.30 356.11 345.00 352.00
C 350.31 353.60 352.00 345.57 355.75 342.75 C 359.49 339.92 361.46 333.84 365.00 331.00
C 364.66 326.81 362.63 325.11 360.00 323.00
C 356.12 323.41 351.92 333.59 347.75 335.75 C 343.58 337.91 339.79 344.66 335.75 347.75 C 331.71 350.84 327.53 356.29 324.00 360.00 Z"/>
</g>
<g fill="#5E8292" fill-opacity="1.00" stroke="None">
<path d="
M 102.00 360.00 
L 107.00 360.00
C 118.30 351.13 125.26 338.01 137.00 331.00
C 137.22 329.14 135.35 327.94 136.00 326.00
C 124.80 337.20 112.52 348.02 102.00 360.00 Z"/>
</g>
</svg>