<svg xmlns="http://www.w3.org/2000/svg" xmlns:v="https://svgstorm.com"
viewBox = "0 0 512 512"
width="512"
height="512">
<g fill="None" fill-opacity="0.0" stroke="#000000" stroke-opacity="0.00" stroke-width="0.3"><path d="
M 0.00 512.00 
L 512.00 512.00
L 512.00 0.00
L 0.00 0.00
L 0.00 512.00
M 421.00 112.00 
C 421.00 120.33 421.00 128.67 421.00 137.00
C 421.00 138.25 420.76 139.78 421.00 141.00
C 421.21 142.07 423.94 150.40 425.00 151.00
C 437.03 147.79 455.56 151.72 466.22 154.78 C 476.89 157.83 484.69 167.58 489.77 176.23 C 494.86 184.88 494.07 186.53 495.00 194.00 C 495.92 201.47 495.11 211.27 495.00 217.00 C 494.89 222.73 497.13 237.39 493.00 238.00
C 494.24 251.77 494.91 269.32 493.00 283.00
C 491.31 295.07 483.19 305.67 473.00 312.00
C 473.56 318.22 473.00 324.75 473.00 331.00
C 473.00 338.69 472.67 347.07 472.00 354.00
C 467.49 400.56 475.38 448.33 472.00 495.00
C 447.00 495.00 422.00 495.00 397.00 495.00
C 375.00 495.00 353.00 495.00 331.00 495.00
C 331.00 448.00 331.00 401.00 331.00 354.00
C 331.00 353.00 331.00 352.00 331.00 351.00
C 331.00 335.22 329.58 318.71 331.00 303.00
C 318.67 303.00 306.33 303.00 294.00 303.00
C 293.99 306.05 294.09 305.64 292.00 307.00
C 285.27 311.39 272.82 305.79 265.00 308.00
C 262.86 320.82 272.70 351.05 251.00 349.00
C 251.28 352.05 251.44 355.97 251.00 359.00
C 268.20 357.18 265.39 379.49 265.00 391.00 C 264.61 402.51 269.45 424.75 251.00 423.00
C 251.28 426.05 251.44 429.97 251.00 433.00
C 267.38 431.26 265.70 452.22 265.00 463.00 C 264.30 473.78 269.69 496.42 254.00 497.00 C 238.30 497.57 224.35 496.72 209.00 497.00 C 193.65 497.28 179.24 496.82 164.00 497.00 C 148.76 497.18 134.30 496.80 119.00 497.00 C 103.70 497.20 89.55 496.66 74.00 497.00 C 58.45 497.34 45.16 496.28 29.00 497.00 C 12.84 497.72 17.25 474.86 17.00 464.00 C 16.75 453.14 13.63 429.57 31.00 433.00
C 30.56 429.97 30.72 426.05 31.00 423.00
C 12.21 422.99 17.56 403.29 17.00 391.00 C 16.44 378.71 13.73 355.60 31.00 359.00
C 30.56 355.97 30.72 352.05 31.00 349.00
C 14.21 349.00 16.01 333.07 17.00 320.00 C 17.99 306.93 11.52 289.21 27.00 286.00
C 42.54 282.78 60.42 285.06 77.00 285.00 C 93.58 284.94 112.37 283.50 129.00 285.00
C 128.99 267.17 128.05 248.77 129.00 231.00 C 129.95 213.23 126.47 194.57 129.00 177.00
C 114.25 180.28 94.87 175.58 80.00 177.00 C 65.13 178.42 48.19 178.24 35.92 171.08 C 23.66 163.91 20.50 149.73 21.00 137.00 C 21.50 124.27 30.31 112.85 42.00 108.00
C 35.72 87.01 52.77 62.94 75.00 64.00
C 79.81 36.26 108.83 16.34 136.67 21.33 C 164.51 26.32 184.44 53.56 181.00 82.00
C 211.69 78.89 236.99 110.56 229.00 140.00
C 234.86 139.93 242.29 140.09 248.00 140.00 C 253.71 139.91 260.41 139.69 265.07 141.93 C 269.74 144.16 272.65 147.37 273.92 152.08 C 275.20 156.78 276.26 165.00 275.00 170.00 C 273.74 175.00 277.85 185.92 275.00 190.00
C 285.64 188.97 298.36 188.97 309.00 190.00
C 306.21 185.80 313.25 175.63 315.30 171.30 C 317.35 166.98 323.11 160.66 328.08 158.08 C 333.06 155.51 340.46 150.27 347.07 151.07 C 353.69 151.88 366.49 148.63 373.00 151.00
C 374.23 150.46 379.76 142.12 380.00 141.00
C 379.22 139.37 380.59 136.72 380.00 135.00
C 353.94 131.80 344.40 102.04 350.00 79.00
C 342.87 72.12 326.86 67.31 328.00 54.00 C 329.14 40.69 334.49 31.81 345.08 24.08 C 355.67 16.36 370.05 15.94 383.00 15.00 C 395.95 14.06 411.67 16.00 422.23 22.77 C 432.79 29.55 438.82 39.07 440.99 51.01 C 443.17 62.94 450.97 77.13 446.22 89.22 C 441.48 101.31 434.62 111.22 421.00 112.00 Z"/>
</g>
<g fill="None" fill-opacity="0.0" stroke="#272D4F" stroke-opacity="0.98" stroke-width="0.3"><path d="
M 350.00 79.00 
C 350.27 76.70 349.80 74.31 350.00 72.00
C 357.46 73.43 365.11 74.23 373.00 74.00
C 379.33 74.00 385.67 74.00 392.00 74.00
C 396.91 74.00 408.56 71.42 409.97 76.03 C 411.38 80.63 411.78 91.43 418.22 88.22 C 424.67 85.01 419.12 74.25 421.00 69.00
C 436.37 68.69 436.79 94.12 421.00 93.00
C 421.00 97.00 421.00 101.00 421.00 105.00
C 421.00 107.33 421.00 109.67 421.00 112.00
C 434.62 111.22 441.48 101.31 446.22 89.22 C 450.97 77.13 443.17 62.94 440.99 51.01 C 438.82 39.07 432.79 29.55 422.23 22.77 C 411.67 16.00 395.95 14.06 383.00 15.00 C 370.05 15.94 355.67 16.36 345.08 24.08 C 334.49 31.81 329.14 40.69 328.00 54.00 C 326.86 67.31 342.87 72.12 350.00 79.00 Z"/>
</g>
<g fill="None" fill-opacity="0.0" stroke="#DEEAFD" stroke-opacity="0.98" stroke-width="0.3"><path d="
M 129.00 177.00 
C 129.05 176.65 129.65 176.05 130.00 176.00
C 132.62 175.62 136.38 175.62 139.00 176.00
C 139.35 176.05 139.95 176.65 140.00 177.00
C 150.76 179.39 166.34 175.76 177.00 177.00 C 187.66 178.24 199.26 175.30 207.69 170.69 C 216.13 166.09 221.61 159.33 225.00 151.00
C 226.48 147.36 228.00 143.79 229.00 140.00
C 236.99 110.56 211.69 78.89 181.00 82.00
C 184.44 53.56 164.51 26.32 136.67 21.33 C 108.83 16.34 79.81 36.26 75.00 64.00
C 52.77 62.94 35.72 87.01 42.00 108.00
C 30.31 112.85 21.50 124.27 21.00 137.00 C 20.50 149.73 23.66 163.91 35.92 171.08 C 48.19 178.24 65.13 178.42 80.00 177.00 C 94.87 175.58 114.25 180.28 129.00 177.00
M 150.00 138.00 
C 146.82 136.06 136.70 143.00 135.25 136.75 C 133.80 130.50 130.08 129.82 125.75 132.75 C 121.43 135.69 116.32 128.22 114.25 125.75 C 112.18 123.28 119.39 113.06 111.92 113.08 C 104.45 113.09 107.02 103.58 107.00 99.00 C 106.98 94.42 118.83 96.42 114.22 89.78 C 109.61 83.14 114.31 84.81 117.25 78.25 C 120.19 71.69 127.05 80.82 130.67 76.67 C 134.29 72.52 132.98 69.18 141.02 68.02 C 149.07 66.87 147.02 74.10 152.08 75.92 C 157.14 77.73 160.64 72.02 165.25 77.75 C 169.85 83.49 170.08 82.13 168.08 89.08 C 166.07 96.02 177.42 92.15 176.97 99.03 C 176.53 105.90 177.55 109.88 170.78 111.78 C 164.01 113.67 174.95 122.09 170.23 124.23 C 165.50 126.37 165.31 133.99 159.78 131.22 C 154.24 128.45 150.39 131.96 150.00 138.00
M 108.00 127.00 
C 102.47 129.92 105.90 132.87 109.22 134.78 C 112.55 136.68 108.28 144.67 108.00 147.00
C 98.18 143.31 103.99 163.60 93.97 160.97 C 83.95 158.35 82.72 166.41 72.00 162.00
C 73.52 152.38 66.28 157.99 61.75 154.24 C 57.22 150.50 58.74 144.00 60.00 139.00
C 53.01 137.58 57.19 136.61 55.93 130.93 C 54.67 125.25 62.08 126.38 63.74 123.74 C 65.41 121.11 61.56 115.02 66.75 113.75 C 71.93 112.47 72.41 108.48 76.00 114.00
C 80.21 109.16 91.78 106.61 93.97 114.03 C 96.17 121.45 108.92 114.60 108.00 127.00 Z"/>
</g>
<g fill="None" fill-opacity="0.0" stroke="#FD515C" stroke-opacity="1.00" stroke-width="0.3"><path d="
M 150.00 138.00 
C 150.39 131.96 154.24 128.45 159.78 131.22 C 165.31 133.99 165.50 126.37 170.23 124.23 C 174.95 122.09 164.01 113.67 170.78 111.78 C 177.55 109.88 176.53 105.90 176.97 99.03 C 177.42 92.15 166.07 96.02 168.08 89.08 C 170.08 82.13 169.85 83.49 165.25 77.75 C 160.64 72.02 157.14 77.73 152.08 75.92 C 147.02 74.10 149.07 66.87 141.02 68.02 C 132.98 69.18 134.29 72.52 130.67 76.67 C 127.05 80.82 120.19 71.69 117.25 78.25 C 114.31 84.81 109.61 83.14 114.22 89.78 C 118.83 96.42 106.98 94.42 107.00 99.00 C 107.02 103.58 104.45 113.09 111.92 113.08 C 119.39 113.06 112.18 123.28 114.25 125.75 C 116.32 128.22 121.43 135.69 125.75 132.75 C 130.08 129.82 133.80 130.50 135.25 136.75 C 136.70 143.00 146.82 136.06 150.00 138.00
M 144.00 87.00 
C 163.79 88.89 160.90 122.14 140.33 119.67 C 119.75 117.20 122.83 84.98 144.00 87.00 Z"/>
</g>
<g fill="None" fill-opacity="0.0" stroke="#FCB59D" stroke-opacity="0.99" stroke-width="0.3"><path d="
M 392.00 74.00 
C 386.02 74.58 378.91 74.57 373.00 74.00
C 365.11 74.23 357.46 73.43 350.00 72.00
C 349.80 74.31 350.27 76.70 350.00 79.00
C 344.40 102.04 353.94 131.80 380.00 135.00
C 380.59 136.72 379.22 139.37 380.00 141.00
C 380.87 142.83 385.32 146.61 387.70 147.30 C 390.07 148.00 393.02 155.01 393.00 155.00
C 393.51 154.57 394.56 154.39 395.00 154.00
C 398.18 151.16 404.16 149.86 407.23 147.23 C 410.30 144.60 419.52 144.51 421.00 141.00
C 420.76 139.78 421.00 138.25 421.00 137.00
C 418.70 140.25 407.94 137.57 404.00 138.00 C 400.06 138.43 392.18 136.15 389.00 134.00
C 405.09 134.18 417.64 119.13 421.00 105.00
C 421.00 101.00 421.00 97.00 421.00 93.00
C 436.79 94.12 436.37 68.69 421.00 69.00
C 419.12 74.25 424.67 85.01 418.22 88.22 C 411.78 91.43 411.38 80.63 409.97 76.03 C 408.56 71.42 396.91 74.00 392.00 74.00
M 364.00 82.00 
C 368.29 82.53 367.63 92.72 362.97 91.97 C 358.32 91.22 359.64 81.46 364.00 82.00
M 388.00 82.00 
C 391.61 83.10 390.94 93.32 386.32 91.66 C 381.70 90.00 384.04 80.79 388.00 82.00
M 388.00 107.00 
C 388.88 124.28 360.12 124.30 361.00 107.00
C 370.00 107.00 379.00 107.00 388.00 107.00 Z"/>
</g>
<g fill="None" fill-opacity="0.0" stroke="#79616D" stroke-opacity="1.00" stroke-width="0.3"><path d="
M 392.00 74.00 
C 385.67 74.00 379.33 74.00 373.00 74.00
C 378.91 74.57 386.02 74.58 392.00 74.00 Z"/>
</g>
<g fill="None" fill-opacity="0.0" stroke="#383856" stroke-opacity="1.00" stroke-width="0.3"><path d="
M 364.00 82.00 
C 359.64 81.46 358.32 91.22 362.97 91.97 C 367.63 92.72 368.29 82.53 364.00 82.00 Z"/>
</g>
<g fill="None" fill-opacity="0.0" stroke="#333554" stroke-opacity="1.00" stroke-width="0.3"><path d="
M 388.00 82.00 
C 384.04 80.79 381.70 90.00 386.32 91.66 C 390.94 93.32 391.61 83.10 388.00 82.00 Z"/>
</g>
<g fill="None" fill-opacity="0.0" stroke="#DEE9FC" stroke-opacity="1.00" stroke-width="0.3"><path d="
M 144.00 87.00 
C 122.83 84.98 119.75 117.20 140.33 119.67 C 160.90 122.14 163.79 88.89 144.00 87.00 Z"/>
</g>
<g fill="None" fill-opacity="0.0" stroke="#F8967F" stroke-opacity="1.00" stroke-width="0.3"><path d="
M 421.00 137.00 
C 421.00 128.67 421.00 120.33 421.00 112.00
C 421.00 109.67 421.00 107.33 421.00 105.00
C 417.64 119.13 405.09 134.18 389.00 134.00
C 392.18 136.15 400.06 138.43 404.00 138.00 C 407.94 137.57 418.70 140.25 421.00 137.00 Z"/>
</g>
<g fill="None" fill-opacity="0.0" stroke="#FFFEFD" stroke-opacity="1.00" stroke-width="0.3"><path d="
M 388.00 107.00 
C 379.00 107.00 370.00 107.00 361.00 107.00
C 360.12 124.30 388.88 124.28 388.00 107.00 Z"/>
</g>
<g fill="None" fill-opacity="0.0" stroke="#FCC51E" stroke-opacity="1.00" stroke-width="0.3"><path d="
M 108.00 127.00 
C 108.92 114.60 96.17 121.45 93.97 114.03 C 91.78 106.61 80.21 109.16 76.00 114.00
C 72.41 108.48 71.93 112.47 66.75 113.75 C 61.56 115.02 65.41 121.11 63.74 123.74 C 62.08 126.38 54.67 125.25 55.93 130.93 C 57.19 136.61 53.01 137.58 60.00 139.00
C 58.74 144.00 57.22 150.50 61.75 154.24 C 66.28 157.99 73.52 152.38 72.00 162.00
C 82.72 166.41 83.95 158.35 93.97 160.97 C 103.99 163.60 98.18 143.31 108.00 147.00
C 108.28 144.67 112.55 136.68 109.22 134.78 C 105.90 132.87 102.47 129.92 108.00 127.00
M 88.00 121.00 
C 106.69 125.63 96.73 158.44 77.93 151.07 C 59.13 143.70 67.90 116.02 88.00 121.00 Z"/>
</g>
<g fill="None" fill-opacity="0.0" stroke="#FDB024" stroke-opacity="1.00" stroke-width="0.3"><path d="
M 88.00 121.00 
C 67.90 116.02 59.13 143.70 77.93 151.07 C 96.73 158.44 106.69 125.63 88.00 121.00
M 87.00 124.00 
C 101.69 128.46 94.04 153.48 78.99 148.01 C 63.95 142.53 71.19 119.20 87.00 124.00 Z"/>
</g>
<g fill="None" fill-opacity="0.0" stroke="#DEEAFC" stroke-opacity="1.00" stroke-width="0.3"><path d="
M 87.00 124.00 
C 71.19 119.20 63.95 142.53 78.99 148.01 C 94.04 153.48 101.69 128.46 87.00 124.00 Z"/>
</g>
<g fill="None" fill-opacity="0.0" stroke="#272D4F" stroke-opacity="0.91" stroke-width="0.3"><path d="
M 225.00 151.00 
C 231.15 151.33 237.92 150.55 244.00 151.00 C 250.08 151.45 256.84 149.24 261.75 153.25 C 266.65 157.26 262.15 164.95 264.00 170.00 C 265.85 175.05 260.98 185.69 264.00 190.00
C 267.46 190.33 271.61 190.33 275.00 190.00
C 277.85 185.92 273.74 175.00 275.00 170.00 C 276.26 165.00 275.20 156.78 273.92 152.08 C 272.65 147.37 269.74 144.16 265.07 141.93 C 260.41 139.69 253.71 139.91 248.00 140.00 C 242.29 140.09 234.86 139.93 229.00 140.00
C 228.00 143.79 226.48 147.36 225.00 151.00 Z"/>
</g>
<g fill="None" fill-opacity="0.0" stroke="#F2F4FC" stroke-opacity="0.96" stroke-width="0.3"><path d="
M 373.00 151.00 
C 378.00 152.82 379.89 162.92 384.00 166.00
C 387.84 163.15 389.88 158.56 393.00 155.00
C 393.02 155.01 390.07 148.00 387.70 147.30 C 385.32 146.61 380.87 142.83 380.00 141.00
C 379.76 142.12 374.23 150.46 373.00 151.00 Z"/>
</g>
<g fill="None" fill-opacity="0.0" stroke="#F2F4FC" stroke-opacity="0.98" stroke-width="0.3"><path d="
M 395.00 154.00 
C 398.26 155.64 398.46 166.37 401.00 169.00
C 409.05 162.96 416.98 157.01 425.00 151.00
C 423.94 150.40 421.21 142.07 421.00 141.00
C 419.52 144.51 410.30 144.60 407.23 147.23 C 404.16 149.86 398.18 151.16 395.00 154.00 Z"/>
</g>
<g fill="None" fill-opacity="0.0" stroke="#000000" stroke-opacity="0.00" stroke-width="0.3"><path d="
M 140.00 177.00 
C 142.53 194.57 139.05 213.22 140.00 231.00 C 140.95 248.78 140.00 267.17 140.00 285.00
C 154.07 283.72 168.86 285.00 183.00 285.00 C 197.14 285.00 211.93 283.73 226.00 285.00
C 223.82 273.33 221.16 262.34 218.22 250.78 C 215.28 239.22 214.65 226.44 211.00 215.00 C 207.35 203.55 204.37 188.33 221.00 190.00 C 237.63 191.67 247.97 188.45 264.00 190.00
C 260.98 185.69 265.85 175.05 264.00 170.00 C 262.15 164.95 266.65 157.26 261.75 153.25 C 256.84 149.24 250.08 151.45 244.00 151.00 C 237.92 150.55 231.15 151.33 225.00 151.00
C 221.61 159.33 216.13 166.09 207.69 170.69 C 199.26 175.30 187.66 178.24 177.00 177.00 C 166.34 175.76 150.76 179.39 140.00 177.00 Z"/>
</g>
<g fill="None" fill-opacity="0.0" stroke="#FE4F5A" stroke-opacity="0.99" stroke-width="0.3"><path d="
M 309.00 190.00 
C 318.33 190.90 324.94 193.08 325.78 203.22 C 326.61 213.36 329.57 219.72 330.99 229.01 C 332.42 238.30 334.96 245.07 337.00 254.00
C 343.75 251.64 350.72 249.68 358.00 249.00
C 349.79 236.77 364.90 238.24 371.25 246.75 C 377.60 255.27 390.90 252.19 400.67 254.33 C 410.44 256.47 423.62 258.01 434.00 259.00
C 435.79 253.25 430.73 238.78 439.01 238.01 C 447.29 237.23 456.42 238.38 465.00 238.00 C 473.58 237.62 483.31 238.29 492.00 238.00
C 492.50 238.00 493.00 238.00 493.00 238.00
C 497.13 237.39 494.89 222.73 495.00 217.00 C 495.11 211.27 495.92 201.47 495.00 194.00 C 494.07 186.53 494.86 184.88 489.77 176.23 C 484.69 167.58 476.89 157.83 466.22 154.78 C 455.56 151.72 437.03 147.79 425.00 151.00
C 416.98 157.01 409.05 162.96 401.00 169.00
C 398.46 166.37 398.26 155.64 395.00 154.00
C 394.56 154.39 393.51 154.57 393.00 155.00
C 389.88 158.56 387.84 163.15 384.00 166.00
C 379.89 162.92 378.00 152.82 373.00 151.00
C 366.49 148.63 353.69 151.88 347.07 151.07 C 340.46 150.27 333.06 155.51 328.08 158.08 C 323.11 160.66 317.35 166.98 315.30 171.30 C 313.25 175.63 306.21 185.80 309.00 190.00 Z"/>
</g>
<g fill="None" fill-opacity="0.0" stroke="#272E4F" stroke-opacity="0.75" stroke-width="0.3"><path d="
M 129.00 177.00 
C 126.47 194.57 129.95 213.23 129.00 231.00 C 128.05 248.77 128.99 267.17 129.00 285.00
C 129.00 285.50 129.00 286.00 129.00 286.00
C 129.50 286.00 130.00 286.00 130.00 286.00
C 131.06 274.24 130.16 261.82 130.00 250.00 C 129.84 238.18 131.38 224.65 130.00 213.00 C 128.62 201.35 133.53 187.02 130.00 176.00
C 129.65 176.05 129.05 176.65 129.00 177.00 Z"/>
</g>
<g fill="None" fill-opacity="0.0" stroke="#272D4F" stroke-opacity="1.00" stroke-width="0.3"><path d="
M 130.00 286.00 
C 133.00 286.00 136.00 286.00 139.00 286.00
C 137.94 274.24 138.84 261.82 139.00 250.00 C 139.16 238.18 137.62 224.65 139.00 213.00 C 140.38 201.35 135.47 187.02 139.00 176.00
C 136.38 175.62 132.62 175.62 130.00 176.00
C 133.53 187.02 128.62 201.35 130.00 213.00 C 131.38 224.65 129.84 238.18 130.00 250.00 C 130.16 261.82 131.06 274.24 130.00 286.00 Z"/>
</g>
<g fill="None" fill-opacity="0.0" stroke="#262F50" stroke-opacity="0.21" stroke-width="0.3"><path d="
M 139.00 286.00 
C 139.50 286.00 140.00 286.00 140.00 286.00
C 140.25 285.75 140.00 285.00 140.00 285.00
C 140.00 267.17 140.95 248.78 140.00 231.00 C 139.05 213.22 142.53 194.57 140.00 177.00
C 139.95 176.65 139.35 176.05 139.00 176.00
C 135.47 187.02 140.38 201.35 139.00 213.00 C 137.62 224.65 139.16 238.18 139.00 250.00 C 138.84 261.82 137.94 274.24 139.00 286.00 Z"/>
</g>
<g fill="None" fill-opacity="0.0" stroke="#B3D3FE" stroke-opacity="0.99" stroke-width="0.3"><path d="
M 226.00 285.00 
C 226.09 285.48 226.00 286.00 226.00 286.00
C 226.96 287.03 226.87 287.45 227.00 289.00
C 230.02 293.30 241.64 288.73 247.00 290.00 C 252.36 291.27 261.72 289.43 268.00 290.00 C 274.28 290.57 282.28 289.75 289.00 290.00 C 295.72 290.25 303.03 289.91 310.00 290.00 C 316.97 290.09 324.94 290.00 332.00 290.00
C 335.28 289.68 340.12 289.35 344.00 289.00
C 344.00 288.50 344.00 288.00 344.00 288.00
C 343.49 284.91 342.65 282.06 342.00 279.00
C 340.25 270.69 338.90 262.31 337.00 254.00
C 334.96 245.07 332.42 238.30 330.99 229.01 C 329.57 219.72 326.61 213.36 325.78 203.22 C 324.94 193.08 318.33 190.90 309.00 190.00
C 298.36 188.97 285.64 188.97 275.00 190.00
C 271.61 190.33 267.46 190.33 264.00 190.00
C 247.97 188.45 237.63 191.67 221.00 190.00 C 204.37 188.33 207.35 203.55 211.00 215.00 C 214.65 226.44 215.28 239.22 218.22 250.78 C 221.16 262.34 223.82 273.33 226.00 285.00
M 276.00 238.00 
C 289.68 242.15 284.20 265.02 269.93 259.07 C 255.65 253.13 260.20 233.20 276.00 238.00 Z"/>
</g>
<g fill="None" fill-opacity="0.0" stroke="#71AFFF" stroke-opacity="1.00" stroke-width="0.3"><path d="
M 276.00 238.00 
C 260.20 233.20 255.65 253.13 269.93 259.07 C 284.20 265.02 289.68 242.15 276.00 238.00 Z"/>
</g>
<g fill="None" fill-opacity="0.0" stroke="#FDB59D" stroke-opacity="1.00" stroke-width="0.3"><path d="
M 337.00 254.00 
C 338.90 262.31 340.25 270.69 342.00 279.00
C 364.09 279.07 384.93 293.08 405.69 300.31 C 426.46 307.53 449.60 326.09 472.00 312.00
C 472.36 311.77 473.00 312.00 473.00 312.00
C 483.19 305.67 491.31 295.07 493.00 283.00
C 493.61 269.02 490.66 252.78 492.00 238.00
C 483.31 238.29 473.58 237.62 465.00 238.00 C 456.42 238.38 447.29 237.23 439.01 238.01 C 430.73 238.78 435.79 253.25 434.00 259.00
C 423.62 258.01 410.44 256.47 400.67 254.33 C 390.90 252.19 377.60 255.27 371.25 246.75 C 364.90 238.24 349.79 236.77 358.00 249.00
C 350.72 249.68 343.75 251.64 337.00 254.00 Z"/>
</g>
<g fill="None" fill-opacity="0.0" stroke="#FFB49C" stroke-opacity="0.25" stroke-width="0.3"><path d="
M 493.00 283.00 
C 494.91 269.32 494.24 251.77 493.00 238.00
C 493.00 238.00 492.50 238.00 492.00 238.00
C 490.66 252.78 493.61 269.02 493.00 283.00 Z"/>
</g>
<g fill="None" fill-opacity="0.0" stroke="#FE4F5A" stroke-opacity="1.00" stroke-width="0.3"><path d="
M 342.00 279.00 
C 342.65 282.06 343.49 284.91 344.00 288.00
C 351.77 291.95 364.03 287.48 372.00 290.00
C 383.62 293.67 375.18 304.61 365.00 303.00 C 354.82 301.39 342.39 303.00 332.00 303.00
C 333.36 318.14 333.37 335.86 332.00 351.00
C 333.30 355.87 347.04 352.15 353.00 353.00 C 358.96 353.85 369.93 352.59 377.00 353.00 C 384.07 353.41 393.46 352.77 401.00 353.00 C 408.54 353.23 417.28 352.80 425.00 353.00 C 432.72 353.20 441.30 352.70 449.00 353.00 C 456.70 353.30 465.17 351.94 472.00 354.00
C 472.67 347.07 473.00 338.69 473.00 331.00
C 472.46 325.38 471.43 318.33 472.00 312.00
C 449.60 326.09 426.46 307.53 405.69 300.31 C 384.93 293.08 364.09 279.07 342.00 279.00 Z"/>
</g>
<g fill="None" fill-opacity="0.0" stroke="#596887" stroke-opacity="0.07" stroke-width="0.3"><path d="
M 27.00 286.00 
C 60.37 282.97 95.47 286.00 129.00 286.00
C 129.00 286.00 129.00 285.50 129.00 285.00
C 112.37 283.50 93.58 284.94 77.00 285.00 C 60.42 285.06 42.54 282.78 27.00 286.00 Z"/>
</g>
<g fill="None" fill-opacity="0.0" stroke="#5A6987" stroke-opacity="0.07" stroke-width="0.3"><path d="
M 140.00 286.00 
C 168.27 286.01 197.86 288.55 226.00 286.00
C 226.00 286.00 226.09 285.48 226.00 285.00
C 211.93 283.73 197.14 285.00 183.00 285.00 C 168.86 285.00 154.07 283.72 140.00 285.00
C 140.00 285.00 140.25 285.75 140.00 286.00 Z"/>
</g>
<g fill="None" fill-opacity="0.0" stroke="#5E6D84" stroke-opacity="1.00" stroke-width="0.3"><path d="
M 31.00 349.00 
C 31.50 349.00 32.00 349.00 32.00 349.00
C 104.67 349.00 177.33 349.01 250.00 349.00
C 250.50 349.00 251.00 349.00 251.00 349.00
C 272.70 351.05 262.86 320.82 265.00 308.00
C 262.17 307.67 260.29 305.86 260.00 303.00
C 255.00 303.00 250.00 303.00 245.00 303.00
C 251.24 313.07 235.86 322.12 230.00 314.00
C 227.44 310.45 230.32 305.19 230.00 302.00
C 229.58 297.84 227.42 293.89 227.00 289.00
C 226.87 287.45 226.96 287.03 226.00 286.00
C 197.86 288.55 168.27 286.01 140.00 286.00
C 140.00 286.00 139.50 286.00 139.00 286.00
C 136.00 286.00 133.00 286.00 130.00 286.00
C 130.00 286.00 129.50 286.00 129.00 286.00
C 95.47 286.00 60.37 282.97 27.00 286.00
C 11.52 289.21 17.99 306.93 17.00 320.00 C 16.01 333.07 14.21 349.00 31.00 349.00
M 202.00 299.00 
C 204.02 300.43 203.81 311.55 202.67 313.67 C 201.53 315.79 190.55 315.87 188.33 314.67 C 186.11 313.47 186.31 302.33 187.33 300.33 C 188.35 298.33 200.32 297.81 202.00 299.00
M 102.00 300.00 
C 105.87 302.74 102.43 313.74 103.00 319.00 C 103.57 324.26 92.40 322.96 87.00 323.00 C 81.60 323.04 73.40 322.51 67.00 323.00 C 60.60 323.49 54.23 321.74 47.00 323.00 C 39.77 324.26 34.72 321.51 36.00 314.00 C 37.28 306.49 33.82 299.55 42.00 300.00 C 50.18 300.45 55.00 299.26 62.00 300.00 C 69.00 300.74 75.96 298.49 82.00 300.00 C 88.04 301.51 97.33 296.70 102.00 300.00
M 223.00 300.00 
C 225.21 301.57 224.50 311.33 224.00 314.00 C 223.50 316.67 212.57 317.13 210.33 315.67 C 208.09 314.21 208.55 304.66 209.00 302.00 C 209.45 299.34 221.22 298.74 223.00 300.00
M 222.00 319.00 
C 224.30 320.15 227.88 334.09 220.97 334.97 C 214.06 335.85 207.86 334.86 208.00 327.00 C 208.14 319.14 215.15 315.58 222.00 319.00
M 202.00 320.00 
C 203.97 321.39 203.87 332.61 202.67 334.67 C 201.47 336.73 190.66 337.01 188.33 335.67 C 186.00 334.33 186.35 323.92 187.78 321.78 C 189.21 319.64 199.84 318.47 202.00 320.00
M 244.00 320.00 
C 246.24 321.16 250.18 335.42 242.97 335.97 C 235.77 336.52 230.18 336.30 230.00 328.00 C 229.82 319.70 236.59 316.17 244.00 320.00 Z"/>
</g>
<g fill="None" fill-opacity="0.0" stroke="#CF7091" stroke-opacity="1.00" stroke-width="0.3"><path d="
M 344.00 289.00 
C 344.00 289.50 344.00 290.00 344.00 290.00
C 352.85 290.00 363.30 288.44 372.00 290.00
C 364.03 287.48 351.77 291.95 344.00 288.00
C 344.00 288.00 344.00 288.50 344.00 289.00 Z"/>
</g>
<g fill="None" fill-opacity="0.0" stroke="#70AEFE" stroke-opacity="1.00" stroke-width="0.3"><path d="
M 230.00 302.00 
C 233.31 304.37 240.99 303.00 245.00 303.00
C 250.00 303.00 255.00 303.00 260.00 303.00
C 258.34 286.78 294.06 285.65 294.00 303.00
C 306.33 303.00 318.67 303.00 331.00 303.00
C 331.50 303.00 332.00 303.00 332.00 303.00
C 342.39 303.00 354.82 301.39 365.00 303.00 C 375.18 304.61 383.62 293.67 372.00 290.00
C 363.30 288.44 352.85 290.00 344.00 290.00
C 340.00 290.00 336.00 290.00 332.00 290.00
C 324.94 290.00 316.97 290.09 310.00 290.00 C 303.03 289.91 295.72 290.25 289.00 290.00 C 282.28 289.75 274.28 290.57 268.00 290.00 C 261.72 289.43 252.36 291.27 247.00 290.00 C 241.64 288.73 230.02 293.30 227.00 289.00
C 227.42 293.89 229.58 297.84 230.00 302.00 Z"/>
</g>
<g fill="None" fill-opacity="0.0" stroke="#BCB2DA" stroke-opacity="1.00" stroke-width="0.3"><path d="
M 332.00 290.00 
C 336.00 290.00 340.00 290.00 344.00 290.00
C 344.00 290.00 344.00 289.50 344.00 289.00
C 340.12 289.35 335.28 289.68 332.00 290.00 Z"/>
</g>
<g fill="None" fill-opacity="0.0" stroke="#FBB59F" stroke-opacity="1.00" stroke-width="0.3"><path d="
M 260.00 303.00 
C 260.29 305.86 262.17 307.67 265.00 308.00
C 267.80 308.33 274.35 306.90 278.00 307.00 C 281.65 307.10 288.76 308.43 292.00 307.00
C 294.09 305.64 293.99 306.05 294.00 303.00
C 294.06 285.65 258.34 286.78 260.00 303.00 Z"/>
</g>
<g fill="None" fill-opacity="0.0" stroke="#F6C00E" stroke-opacity="1.00" stroke-width="0.3"><path d="
M 202.00 299.00 
C 200.32 297.81 188.35 298.33 187.33 300.33 C 186.31 302.33 186.11 313.47 188.33 314.67 C 190.55 315.87 201.53 315.79 202.67 313.67 C 203.81 311.55 204.02 300.43 202.00 299.00 Z"/>
</g>
<g fill="None" fill-opacity="0.0" stroke="#FEFEFE" stroke-opacity="1.00" stroke-width="0.3"><path d="
M 102.00 300.00 
C 97.33 296.70 88.04 301.51 82.00 300.00 C 75.96 298.49 69.00 300.74 62.00 300.00 C 55.00 299.26 50.18 300.45 42.00 300.00 C 33.82 299.55 37.28 306.49 36.00 314.00 C 34.72 321.51 39.77 324.26 47.00 323.00 C 54.23 321.74 60.60 323.49 67.00 323.00 C 73.40 322.51 81.60 323.04 87.00 323.00 C 92.40 322.96 103.57 324.26 103.00 319.00 C 102.43 313.74 105.87 302.74 102.00 300.00
M 51.00 306.00 
C 57.50 308.44 52.66 321.18 45.78 317.22 C 38.90 313.26 43.50 303.19 51.00 306.00
M 65.00 306.00 
C 71.89 308.21 66.92 320.58 60.00 317.00 C 53.08 313.42 58.02 303.76 65.00 306.00 Z"/>
</g>
<g fill="None" fill-opacity="0.0" stroke="#FBFBFC" stroke-opacity="1.00" stroke-width="0.3"><path d="
M 223.00 300.00 
C 221.22 298.74 209.45 299.34 209.00 302.00 C 208.55 304.66 208.09 314.21 210.33 315.67 C 212.57 317.13 223.50 316.67 224.00 314.00 C 224.50 311.33 225.21 301.57 223.00 300.00 Z"/>
</g>
<g fill="None" fill-opacity="0.0" stroke="#B1B8C4" stroke-opacity="1.00" stroke-width="0.3"><path d="
M 230.00 314.00 
C 228.41 310.79 231.19 305.41 230.00 302.00
C 230.32 305.19 227.44 310.45 230.00 314.00 Z"/>
</g>
<g fill="None" fill-opacity="0.0" stroke="#FAFAFB" stroke-opacity="1.00" stroke-width="0.3"><path d="
M 230.00 314.00 
C 235.86 322.12 251.24 313.07 245.00 303.00
C 240.99 303.00 233.31 304.37 230.00 302.00
C 231.19 305.41 228.41 310.79 230.00 314.00 Z"/>
</g>
<g fill="None" fill-opacity="0.0" stroke="#FE4E5A" stroke-opacity="0.32" stroke-width="0.3"><path d="
M 331.00 351.00 
C 331.27 350.75 332.00 351.00 332.00 351.00
C 333.37 335.86 333.36 318.14 332.00 303.00
C 332.00 303.00 331.50 303.00 331.00 303.00
C 329.58 318.71 331.00 335.22 331.00 351.00 Z"/>
</g>
<g fill="None" fill-opacity="0.0" stroke="#FEC92E" stroke-opacity="1.00" stroke-width="0.3"><path d="
M 51.00 306.00 
C 43.50 303.19 38.90 313.26 45.78 317.22 C 52.66 321.18 57.50 308.44 51.00 306.00 Z"/>
</g>
<g fill="None" fill-opacity="0.0" stroke="#FF5962" stroke-opacity="1.00" stroke-width="0.3"><path d="
M 65.00 306.00 
C 58.02 303.76 53.08 313.42 60.00 317.00 C 66.92 320.58 71.89 308.21 65.00 306.00 Z"/>
</g>
<g fill="None" fill-opacity="0.0" stroke="#FEB89E" stroke-opacity="0.26" stroke-width="0.3"><path d="
M 265.00 308.00 
C 272.82 305.79 285.27 311.39 292.00 307.00
C 288.76 308.43 281.65 307.10 278.00 307.00 C 274.35 306.90 267.80 308.33 265.00 308.00 Z"/>
</g>
<g fill="None" fill-opacity="0.0" stroke="#FE4F59" stroke-opacity="0.29" stroke-width="0.3"><path d="
M 473.00 331.00 
C 473.00 324.75 473.56 318.22 473.00 312.00
C 473.00 312.00 472.36 311.77 472.00 312.00
C 471.43 318.33 472.46 325.38 473.00 331.00 Z"/>
</g>
<g fill="None" fill-opacity="0.0" stroke="#F6F7F8" stroke-opacity="1.00" stroke-width="0.3"><path d="
M 222.00 319.00 
C 215.15 315.58 208.14 319.14 208.00 327.00 C 207.86 334.86 214.06 335.85 220.97 334.97 C 227.88 334.09 224.30 320.15 222.00 319.00 Z"/>
</g>
<g fill="None" fill-opacity="0.0" stroke="#F8F9FA" stroke-opacity="1.00" stroke-width="0.3"><path d="
M 202.00 320.00 
C 199.84 318.47 189.21 319.64 187.78 321.78 C 186.35 323.92 186.00 334.33 188.33 335.67 C 190.66 337.01 201.47 336.73 202.67 334.67 C 203.87 332.61 203.97 321.39 202.00 320.00 Z"/>
</g>
<g fill="None" fill-opacity="0.0" stroke="#F7C00D" stroke-opacity="1.00" stroke-width="0.3"><path d="
M 244.00 320.00 
C 236.59 316.17 229.82 319.70 230.00 328.00 C 230.18 336.30 235.77 336.52 242.97 335.97 C 250.18 335.42 246.24 321.16 244.00 320.00 Z"/>
</g>
<g fill="None" fill-opacity="0.0" stroke="#192A3E" stroke-opacity="0.75" stroke-width="0.3"><path d="
M 31.00 359.00 
C 31.05 359.35 31.65 359.95 32.00 360.00
C 32.88 357.26 32.26 351.89 32.00 349.00
C 32.00 349.00 31.50 349.00 31.00 349.00
C 30.72 352.05 30.56 355.97 31.00 359.00 Z"/>
</g>
<g fill="None" fill-opacity="0.0" stroke="#18293D" stroke-opacity="1.00" stroke-width="0.3"><path d="
M 32.00 360.00 
C 55.44 363.37 80.22 359.12 104.00 360.00 C 127.78 360.88 153.16 360.94 177.00 360.00 C 200.84 359.06 226.42 363.40 250.00 360.00
C 249.12 357.26 249.74 351.89 250.00 349.00
C 177.33 349.01 104.67 349.00 32.00 349.00
C 32.26 351.89 32.88 357.26 32.00 360.00 Z"/>
</g>
<g fill="None" fill-opacity="0.0" stroke="#1A2B3E" stroke-opacity="0.34" stroke-width="0.3"><path d="
M 250.00 360.00 
C 250.35 359.95 250.95 359.35 251.00 359.00
C 251.44 355.97 251.28 352.05 251.00 349.00
C 251.00 349.00 250.50 349.00 250.00 349.00
C 249.74 351.89 249.12 357.26 250.00 360.00 Z"/>
</g>
<g fill="None" fill-opacity="0.0" stroke="#CF6782" stroke-opacity="0.99" stroke-width="0.3"><path d="
M 331.00 354.00 
C 347.00 354.00 363.00 354.00 379.00 354.00
C 410.00 354.00 441.00 354.00 472.00 354.00
C 465.17 351.94 456.70 353.30 449.00 353.00 C 441.30 352.70 432.72 353.20 425.00 353.00 C 417.28 352.80 408.54 353.23 401.00 353.00 C 393.46 352.77 384.07 353.41 377.00 353.00 C 369.93 352.59 358.96 353.85 353.00 353.00 C 347.04 352.15 333.30 355.87 332.00 351.00
C 332.00 351.00 331.27 350.75 331.00 351.00
C 331.00 352.00 331.00 353.00 331.00 354.00 Z"/>
</g>
<g fill="None" fill-opacity="0.0" stroke="#2B9BEC" stroke-opacity="0.99" stroke-width="0.3"><path d="
M 397.00 495.00 
C 390.88 448.04 383.96 401.27 379.00 354.00
C 363.00 354.00 347.00 354.00 331.00 354.00
C 331.00 401.00 331.00 448.00 331.00 495.00
C 353.00 495.00 375.00 495.00 397.00 495.00 Z"/>
</g>
<g fill="None" fill-opacity="0.0" stroke="#63B4F3" stroke-opacity="1.00" stroke-width="0.3"><path d="
M 397.00 495.00 
C 422.00 495.00 447.00 495.00 472.00 495.00
C 475.38 448.33 467.49 400.56 472.00 354.00
C 441.00 354.00 410.00 354.00 379.00 354.00
C 383.96 401.27 390.88 448.04 397.00 495.00 Z"/>
</g>
<g fill="None" fill-opacity="0.0" stroke="#5E6D84" stroke-opacity="0.99" stroke-width="0.3"><path d="
M 31.00 423.00 
C 31.50 423.00 32.00 423.00 32.00 423.00
C 104.67 423.00 177.33 422.97 250.00 423.00
C 250.50 423.00 251.00 423.00 251.00 423.00
C 269.45 424.75 264.61 402.51 265.00 391.00 C 265.39 379.49 268.20 357.18 251.00 359.00
C 250.95 359.35 250.35 359.95 250.00 360.00
C 226.42 363.40 200.84 359.06 177.00 360.00 C 153.16 360.94 127.78 360.88 104.00 360.00 C 80.22 359.12 55.44 363.37 32.00 360.00
C 31.65 359.95 31.05 359.35 31.00 359.00
C 13.73 355.60 16.44 378.71 17.00 391.00 C 17.56 403.29 12.21 422.99 31.00 423.00
M 202.00 373.00 
C 204.02 374.43 203.81 385.55 202.67 387.67 C 201.53 389.79 190.55 389.87 188.33 388.67 C 186.11 387.47 186.31 376.33 187.33 374.33 C 188.35 372.33 200.31 371.81 202.00 373.00
M 102.00 374.00 
C 105.87 376.74 102.43 387.74 103.00 393.00 C 103.57 398.26 92.40 396.96 87.00 397.00 C 81.60 397.04 73.40 396.51 67.00 397.00 C 60.60 397.49 54.23 395.74 47.00 397.00 C 39.77 398.26 34.72 395.51 36.00 388.00 C 37.28 380.49 33.82 373.55 42.00 374.00 C 50.18 374.45 55.00 373.26 62.00 374.00 C 69.00 374.74 75.96 372.49 82.00 374.00 C 88.04 375.51 97.33 370.70 102.00 374.00
M 223.00 374.00 
C 225.21 375.57 224.50 385.33 224.00 388.00 C 223.50 390.67 212.57 391.13 210.33 389.67 C 208.09 388.21 208.55 378.66 209.00 376.00 C 209.45 373.34 221.22 372.74 223.00 374.00
M 230.00 388.00 
C 228.22 385.53 227.63 375.67 231.00 374.00
C 232.52 373.25 244.05 372.76 244.74 375.26 C 245.44 377.76 246.47 388.07 243.29 389.29 C 240.12 390.52 232.29 391.17 230.00 388.00
M 222.00 393.00 
C 231.56 397.78 219.51 416.86 210.33 408.67 C 201.15 400.48 212.42 388.21 222.00 393.00
M 202.00 394.00 
C 203.97 395.39 203.87 406.61 202.67 408.67 C 201.47 410.73 190.66 411.01 188.33 409.67 C 186.00 408.33 186.35 397.92 187.78 395.78 C 189.21 393.64 199.84 392.47 202.00 394.00
M 244.00 394.00 
C 246.24 395.16 250.18 409.42 242.97 409.97 C 235.77 410.52 230.18 410.30 230.00 402.00 C 229.82 393.70 236.59 390.17 244.00 394.00 Z"/>
</g>
<g fill="None" fill-opacity="0.0" stroke="#F6C00E" stroke-opacity="1.00" stroke-width="0.3"><path d="
M 202.00 373.00 
C 200.31 371.81 188.35 372.33 187.33 374.33 C 186.31 376.33 186.11 387.47 188.33 388.67 C 190.55 389.87 201.53 389.79 202.67 387.67 C 203.81 385.55 204.02 374.43 202.00 373.00 Z"/>
</g>
<g fill="None" fill-opacity="0.0" stroke="#FEFEFD" stroke-opacity="1.00" stroke-width="0.3"><path d="
M 102.00 374.00 
C 97.33 370.70 88.04 375.51 82.00 374.00 C 75.96 372.49 69.00 374.74 62.00 374.00 C 55.00 373.26 50.18 374.45 42.00 374.00 C 33.82 373.55 37.28 380.49 36.00 388.00 C 34.72 395.51 39.77 398.26 47.00 397.00 C 54.23 395.74 60.60 397.49 67.00 397.00 C 73.40 396.51 81.60 397.04 87.00 397.00 C 92.40 396.96 103.57 398.26 103.00 393.00 C 102.43 387.74 105.87 376.74 102.00 374.00
M 51.00 380.00 
C 57.36 382.38 52.93 394.93 45.93 391.07 C 38.92 387.22 43.47 377.18 51.00 380.00
M 65.00 380.00 
C 71.89 382.21 66.92 394.58 60.00 391.00 C 53.08 387.42 58.02 377.76 65.00 380.00 Z"/>
</g>
<g fill="None" fill-opacity="0.0" stroke="#FBFBFC" stroke-opacity="1.00" stroke-width="0.3"><path d="
M 223.00 374.00 
C 221.22 372.74 209.45 373.34 209.00 376.00 C 208.55 378.66 208.09 388.21 210.33 389.67 C 212.57 391.13 223.50 390.67 224.00 388.00 C 224.50 385.33 225.21 375.57 223.00 374.00 Z"/>
</g>
<g fill="None" fill-opacity="0.0" stroke="#ADB4C0" stroke-opacity="1.00" stroke-width="0.3"><path d="
M 230.00 388.00 
C 229.10 386.17 229.28 375.22 231.00 374.00
C 227.63 375.67 228.22 385.53 230.00 388.00 Z"/>
</g>
<g fill="None" fill-opacity="0.0" stroke="#FBFBFC" stroke-opacity="1.00" stroke-width="0.3"><path d="
M 230.00 388.00 
C 232.29 391.17 240.12 390.52 243.29 389.29 C 246.47 388.07 245.44 377.76 244.74 375.26 C 244.05 372.76 232.52 373.25 231.00 374.00
C 229.28 375.22 229.10 386.17 230.00 388.00 Z"/>
</g>
<g fill="None" fill-opacity="0.0" stroke="#FEC82B" stroke-opacity="1.00" stroke-width="0.3"><path d="
M 51.00 380.00 
C 43.47 377.18 38.92 387.22 45.93 391.07 C 52.93 394.93 57.36 382.38 51.00 380.00 Z"/>
</g>
<g fill="None" fill-opacity="0.0" stroke="#FF5962" stroke-opacity="1.00" stroke-width="0.3"><path d="
M 65.00 380.00 
C 58.02 377.76 53.08 387.42 60.00 391.00 C 66.92 394.58 71.89 382.21 65.00 380.00 Z"/>
</g>
<g fill="None" fill-opacity="0.0" stroke="#F6F7F8" stroke-opacity="1.00" stroke-width="0.3"><path d="
M 222.00 393.00 
C 212.42 388.21 201.15 400.48 210.33 408.67 C 219.51 416.86 231.56 397.78 222.00 393.00 Z"/>
</g>
<g fill="None" fill-opacity="0.0" stroke="#F8F9FA" stroke-opacity="1.00" stroke-width="0.3"><path d="
M 202.00 394.00 
C 199.84 392.47 189.21 393.64 187.78 395.78 C 186.35 397.92 186.00 408.33 188.33 409.67 C 190.66 411.01 201.47 410.73 202.67 408.67 C 203.87 406.61 203.97 395.39 202.00 394.00 Z"/>
</g>
<g fill="None" fill-opacity="0.0" stroke="#F7C00D" stroke-opacity="1.00" stroke-width="0.3"><path d="
M 244.00 394.00 
C 236.59 390.17 229.82 393.70 230.00 402.00 C 230.18 410.30 235.77 410.52 242.97 409.97 C 250.18 409.42 246.24 395.16 244.00 394.00 Z"/>
</g>
<g fill="None" fill-opacity="0.0" stroke="#192A3E" stroke-opacity="0.75" stroke-width="0.3"><path d="
M 31.00 433.00 
C 31.05 433.35 31.65 433.95 32.00 434.00
C 32.88 431.26 32.26 425.89 32.00 423.00
C 32.00 423.00 31.50 423.00 31.00 423.00
C 30.72 426.05 30.56 429.97 31.00 433.00 Z"/>
</g>
<g fill="None" fill-opacity="0.0" stroke="#18293E" stroke-opacity="0.99" stroke-width="0.3"><path d="
M 32.00 434.00 
C 55.44 437.38 80.22 433.12 104.00 434.00 C 127.78 434.88 153.16 434.94 177.00 434.00 C 200.84 433.06 226.42 437.40 250.00 434.00
C 249.12 431.26 249.74 425.89 250.00 423.00
C 177.33 422.97 104.67 423.00 32.00 423.00
C 32.26 425.89 32.88 431.26 32.00 434.00 Z"/>
</g>
<g fill="None" fill-opacity="0.0" stroke="#1A2B3E" stroke-opacity="0.34" stroke-width="0.3"><path d="
M 250.00 434.00 
C 250.35 433.95 250.95 433.35 251.00 433.00
C 251.44 429.97 251.28 426.05 251.00 423.00
C 251.00 423.00 250.50 423.00 250.00 423.00
C 249.74 425.89 249.12 431.26 250.00 434.00 Z"/>
</g>
<g fill="None" fill-opacity="0.0" stroke="#5E6D84" stroke-opacity="0.99" stroke-width="0.3"><path d="
M 251.00 433.00 
C 250.95 433.35 250.35 433.95 250.00 434.00
C 226.42 437.40 200.84 433.06 177.00 434.00 C 153.16 434.94 127.78 434.88 104.00 434.00 C 80.22 433.12 55.44 437.38 32.00 434.00
C 31.65 433.95 31.05 433.35 31.00 433.00
C 13.63 429.57 16.75 453.14 17.00 464.00 C 17.25 474.86 12.84 497.72 29.00 497.00 C 45.16 496.28 58.45 497.34 74.00 497.00 C 89.55 496.66 103.70 497.20 119.00 497.00 C 134.30 496.80 148.76 497.18 164.00 497.00 C 179.24 496.82 193.65 497.28 209.00 497.00 C 224.35 496.72 238.30 497.57 254.00 497.00 C 269.69 496.42 264.30 473.78 265.00 463.00 C 265.70 452.22 267.38 431.26 251.00 433.00
M 101.00 447.00 
C 105.45 449.23 103.01 461.46 103.00 467.00 C 102.99 472.54 89.71 471.44 84.00 471.00 C 78.29 470.56 66.99 471.99 61.00 471.00 C 55.01 470.01 43.39 473.35 38.33 470.67 C 33.27 467.99 35.50 456.51 36.00 451.00 C 36.50 445.49 49.40 446.46 55.00 447.00 C 60.60 447.54 71.89 445.75 78.00 447.00 C 84.11 448.25 95.43 444.21 101.00 447.00
M 201.00 447.00 
C 203.35 448.21 207.04 462.34 199.97 462.97 C 192.90 463.61 186.94 463.12 187.00 455.00 C 187.06 446.88 193.96 443.36 201.00 447.00
M 223.00 447.00 
C 225.21 448.57 224.50 458.33 224.00 461.00 C 223.50 463.67 212.57 464.13 210.33 462.67 C 208.09 461.21 208.55 451.66 209.00 449.00 C 209.45 446.34 221.22 445.74 223.00 447.00
M 244.00 447.00 
C 246.24 448.16 250.18 462.42 242.97 462.97 C 235.77 463.52 230.18 463.30 230.00 455.00 C 229.82 446.70 236.59 443.17 244.00 447.00
M 201.00 468.00 
C 204.32 470.39 204.29 480.63 201.00 483.00
C 198.56 484.76 191.39 484.72 189.00 483.00
C 185.68 480.61 185.71 470.37 189.00 468.00
C 191.44 466.24 198.61 466.28 201.00 468.00
M 222.00 483.00 
C 219.60 484.70 213.35 484.66 211.00 483.00
C 207.10 480.24 209.77 473.01 209.00 468.00
C 214.00 468.00 219.00 468.00 224.00 468.00
C 222.86 472.59 226.41 480.81 222.00 483.00
M 244.00 483.00 
C 241.56 484.76 234.39 484.72 232.00 483.00
C 229.61 481.28 228.63 471.74 230.33 469.33 C 232.03 466.92 243.02 466.66 245.22 468.78 C 247.42 470.90 246.48 481.21 244.00 483.00 Z"/>
</g>
<g fill="None" fill-opacity="0.0" stroke="#FAFAFB" stroke-opacity="1.00" stroke-width="0.3"><path d="
M 101.00 447.00 
C 95.43 444.21 84.11 448.25 78.00 447.00 C 71.89 445.75 60.60 447.54 55.00 447.00 C 49.40 446.46 36.50 445.49 36.00 451.00 C 35.50 456.51 33.27 467.99 38.33 470.67 C 43.39 473.35 55.01 470.01 61.00 471.00 C 66.99 471.99 78.29 470.56 84.00 471.00 C 89.71 471.44 102.99 472.54 103.00 467.00 C 103.01 461.46 105.45 449.23 101.00 447.00
M 50.00 453.00 
C 57.30 454.60 53.80 467.53 46.33 464.67 C 38.86 461.81 42.53 451.37 50.00 453.00
M 64.00 453.00 
C 70.94 454.29 68.12 467.29 61.00 465.00 C 53.87 462.70 56.98 451.69 64.00 453.00 Z"/>
</g>
<g fill="None" fill-opacity="0.0" stroke="#F9F9FA" stroke-opacity="1.00" stroke-width="0.3"><path d="
M 201.00 447.00 
C 193.96 443.36 187.06 446.88 187.00 455.00 C 186.94 463.12 192.90 463.61 199.97 462.97 C 207.04 462.34 203.35 448.21 201.00 447.00 Z"/>
</g>
<g fill="None" fill-opacity="0.0" stroke="#FBFBFC" stroke-opacity="1.00" stroke-width="0.3"><path d="
M 223.00 447.00 
C 221.22 445.74 209.45 446.34 209.00 449.00 C 208.55 451.66 208.09 461.21 210.33 462.67 C 212.57 464.13 223.50 463.67 224.00 461.00 C 224.50 458.33 225.21 448.57 223.00 447.00 Z"/>
</g>
<g fill="None" fill-opacity="0.0" stroke="#F7C00E" stroke-opacity="1.00" stroke-width="0.3"><path d="
M 244.00 447.00 
C 236.59 443.17 229.82 446.70 230.00 455.00 C 230.18 463.30 235.77 463.52 242.97 462.97 C 250.18 462.42 246.24 448.16 244.00 447.00 Z"/>
</g>
<g fill="None" fill-opacity="0.0" stroke="#FEC92E" stroke-opacity="1.00" stroke-width="0.3"><path d="
M 50.00 453.00 
C 42.53 451.37 38.86 461.81 46.33 464.67 C 53.80 467.53 57.30 454.60 50.00 453.00 Z"/>
</g>
<g fill="None" fill-opacity="0.0" stroke="#FF5761" stroke-opacity="1.00" stroke-width="0.3"><path d="
M 64.00 453.00 
C 56.98 451.69 53.87 462.70 61.00 465.00 C 68.12 467.29 70.94 454.29 64.00 453.00 Z"/>
</g>
<g fill="None" fill-opacity="0.0" stroke="#878362" stroke-opacity="1.00" stroke-width="0.3"><path d="
M 189.00 468.00 
C 190.47 467.27 199.53 467.27 201.00 468.00
C 198.61 466.28 191.44 466.24 189.00 468.00 Z"/>
</g>
<g fill="None" fill-opacity="0.0" stroke="#FAC204" stroke-opacity="1.00" stroke-width="0.3"><path d="
M 189.00 483.00 
C 190.47 483.73 199.53 483.73 201.00 483.00
C 204.29 480.63 204.32 470.39 201.00 468.00
C 199.53 467.27 190.47 467.27 189.00 468.00
C 185.71 470.37 185.68 480.61 189.00 483.00 Z"/>
</g>
<g fill="None" fill-opacity="0.0" stroke="#FDFDFD" stroke-opacity="1.00" stroke-width="0.3"><path d="
M 211.00 483.00 
C 212.39 483.67 220.61 483.67 222.00 483.00
C 226.41 480.81 222.86 472.59 224.00 468.00
C 219.00 468.00 214.00 468.00 209.00 468.00
C 209.77 473.01 207.10 480.24 211.00 483.00 Z"/>
</g>
<g fill="None" fill-opacity="0.0" stroke="#FBFBFC" stroke-opacity="1.00" stroke-width="0.3"><path d="
M 232.00 483.00 
C 233.47 483.73 242.53 483.73 244.00 483.00
C 246.48 481.21 247.42 470.90 245.22 468.78 C 243.02 466.66 232.03 466.92 230.33 469.33 C 228.63 471.74 229.61 481.28 232.00 483.00 Z"/>
</g>
<g fill="None" fill-opacity="0.0" stroke="#A79447" stroke-opacity="1.00" stroke-width="0.3"><path d="
M 201.00 483.00 
C 199.53 483.73 190.47 483.73 189.00 483.00
C 191.39 484.72 198.56 484.76 201.00 483.00 Z"/>
</g>
<g fill="None" fill-opacity="0.0" stroke="#A8B0BC" stroke-opacity="1.00" stroke-width="0.3"><path d="
M 222.00 483.00 
C 220.61 483.67 212.39 483.67 211.00 483.00
C 213.35 484.66 219.60 484.70 222.00 483.00 Z"/>
</g>
<g fill="None" fill-opacity="0.0" stroke="#A7AFBB" stroke-opacity="1.00" stroke-width="0.3"><path d="
M 244.00 483.00 
C 242.53 483.73 233.47 483.73 232.00 483.00
C 234.39 484.72 241.56 484.76 244.00 483.00 Z"/>
</g>
<g fill="#000000" fill-opacity="0.00" stroke="None">
<path d="
M 0.00 512.00 
L 512.00 512.00
L 512.00 0.00
L 0.00 0.00
L 0.00 512.00
M 421.00 112.00 
C 421.00 120.33 421.00 128.67 421.00 137.00
C 421.00 138.25 420.76 139.78 421.00 141.00
C 421.21 142.07 423.94 150.40 425.00 151.00
C 437.03 147.79 455.56 151.72 466.22 154.78 C 476.89 157.83 484.69 167.58 489.77 176.23 C 494.86 184.88 494.07 186.53 495.00 194.00 C 495.92 201.47 495.11 211.27 495.00 217.00 C 494.89 222.73 497.13 237.39 493.00 238.00
C 494.24 251.77 494.91 269.32 493.00 283.00
C 491.31 295.07 483.19 305.67 473.00 312.00
C 473.56 318.22 473.00 324.75 473.00 331.00
C 473.00 338.69 472.67 347.07 472.00 354.00
C 467.49 400.56 475.38 448.33 472.00 495.00
C 447.00 495.00 422.00 495.00 397.00 495.00
C 375.00 495.00 353.00 495.00 331.00 495.00
C 331.00 448.00 331.00 401.00 331.00 354.00
C 331.00 353.00 331.00 352.00 331.00 351.00
C 331.00 335.22 329.58 318.71 331.00 303.00
C 318.67 303.00 306.33 303.00 294.00 303.00
C 293.99 306.05 294.09 305.64 292.00 307.00
C 285.27 311.39 272.82 305.79 265.00 308.00
C 262.86 320.82 272.70 351.05 251.00 349.00
C 251.28 352.05 251.44 355.97 251.00 359.00
C 268.20 357.18 265.39 379.49 265.00 391.00 C 264.61 402.51 269.45 424.75 251.00 423.00
C 251.28 426.05 251.44 429.97 251.00 433.00
C 267.38 431.26 265.70 452.22 265.00 463.00 C 264.30 473.78 269.69 496.42 254.00 497.00 C 238.30 497.57 224.35 496.72 209.00 497.00 C 193.65 497.28 179.24 496.82 164.00 497.00 C 148.76 497.18 134.30 496.80 119.00 497.00 C 103.70 497.20 89.55 496.66 74.00 497.00 C 58.45 497.34 45.16 496.28 29.00 497.00 C 12.84 497.72 17.25 474.86 17.00 464.00 C 16.75 453.14 13.63 429.57 31.00 433.00
C 30.56 429.97 30.72 426.05 31.00 423.00
C 12.21 422.99 17.56 403.29 17.00 391.00 C 16.44 378.71 13.73 355.60 31.00 359.00
C 30.56 355.97 30.72 352.05 31.00 349.00
C 14.21 349.00 16.01 333.07 17.00 320.00 C 17.99 306.93 11.52 289.21 27.00 286.00
C 42.54 282.78 60.42 285.06 77.00 285.00 C 93.58 284.94 112.37 283.50 129.00 285.00
C 128.99 267.17 128.05 248.77 129.00 231.00 C 129.95 213.23 126.47 194.57 129.00 177.00
C 114.25 180.28 94.87 175.58 80.00 177.00 C 65.13 178.42 48.19 178.24 35.92 171.08 C 23.66 163.91 20.50 149.73 21.00 137.00 C 21.50 124.27 30.31 112.85 42.00 108.00
C 35.72 87.01 52.77 62.94 75.00 64.00
C 79.81 36.26 108.83 16.34 136.67 21.33 C 164.51 26.32 184.44 53.56 181.00 82.00
C 211.69 78.89 236.99 110.56 229.00 140.00
C 234.86 139.93 242.29 140.09 248.00 140.00 C 253.71 139.91 260.41 139.69 265.07 141.93 C 269.74 144.16 272.65 147.37 273.92 152.08 C 275.20 156.78 276.26 165.00 275.00 170.00 C 273.74 175.00 277.85 185.92 275.00 190.00
C 285.64 188.97 298.36 188.97 309.00 190.00
C 306.21 185.80 313.25 175.63 315.30 171.30 C 317.35 166.98 323.11 160.66 328.08 158.08 C 333.06 155.51 340.46 150.27 347.07 151.07 C 353.69 151.88 366.49 148.63 373.00 151.00
C 374.23 150.46 379.76 142.12 380.00 141.00
C 379.22 139.37 380.59 136.72 380.00 135.00
C 353.94 131.80 344.40 102.04 350.00 79.00
C 342.87 72.12 326.86 67.31 328.00 54.00 C 329.14 40.69 334.49 31.81 345.08 24.08 C 355.67 16.36 370.05 15.94 383.00 15.00 C 395.95 14.06 411.67 16.00 422.23 22.77 C 432.79 29.55 438.82 39.07 440.99 51.01 C 443.17 62.94 450.97 77.13 446.22 89.22 C 441.48 101.31 434.62 111.22 421.00 112.00 Z"/>
</g>
<g fill="#272D4F" fill-opacity="0.98" stroke="None">
<path d="
M 350.00 79.00 
C 350.27 76.70 349.80 74.31 350.00 72.00
C 357.46 73.43 365.11 74.23 373.00 74.00
C 379.33 74.00 385.67 74.00 392.00 74.00
C 396.91 74.00 408.56 71.42 409.97 76.03 C 411.38 80.63 411.78 91.43 418.22 88.22 C 424.67 85.01 419.12 74.25 421.00 69.00
C 436.37 68.69 436.79 94.12 421.00 93.00
C 421.00 97.00 421.00 101.00 421.00 105.00
C 421.00 107.33 421.00 109.67 421.00 112.00
C 434.62 111.22 441.48 101.31 446.22 89.22 C 450.97 77.13 443.17 62.94 440.99 51.01 C 438.82 39.07 432.79 29.55 422.23 22.77 C 411.67 16.00 395.95 14.06 383.00 15.00 C 370.05 15.94 355.67 16.36 345.08 24.08 C 334.49 31.81 329.14 40.69 328.00 54.00 C 326.86 67.31 342.87 72.12 350.00 79.00 Z"/>
</g>
<g fill="#DEEAFD" fill-opacity="0.98" stroke="None">
<path d="
M 129.00 177.00 
C 129.05 176.65 129.65 176.05 130.00 176.00
C 132.62 175.62 136.38 175.62 139.00 176.00
C 139.35 176.05 139.95 176.65 140.00 177.00
C 150.76 179.39 166.34 175.76 177.00 177.00 C 187.66 178.24 199.26 175.30 207.69 170.69 C 216.13 166.09 221.61 159.33 225.00 151.00
C 226.48 147.36 228.00 143.79 229.00 140.00
C 236.99 110.56 211.69 78.89 181.00 82.00
C 184.44 53.56 164.51 26.32 136.67 21.33 C 108.83 16.34 79.81 36.26 75.00 64.00
C 52.77 62.94 35.72 87.01 42.00 108.00
C 30.31 112.85 21.50 124.27 21.00 137.00 C 20.50 149.73 23.66 163.91 35.92 171.08 C 48.19 178.24 65.13 178.42 80.00 177.00 C 94.87 175.58 114.25 180.28 129.00 177.00
M 150.00 138.00 
C 146.82 136.06 136.70 143.00 135.25 136.75 C 133.80 130.50 130.08 129.82 125.75 132.75 C 121.43 135.69 116.32 128.22 114.25 125.75 C 112.18 123.28 119.39 113.06 111.92 113.08 C 104.45 113.09 107.02 103.58 107.00 99.00 C 106.98 94.42 118.83 96.42 114.22 89.78 C 109.61 83.14 114.31 84.81 117.25 78.25 C 120.19 71.69 127.05 80.82 130.67 76.67 C 134.29 72.52 132.98 69.18 141.02 68.02 C 149.07 66.87 147.02 74.10 152.08 75.92 C 157.14 77.73 160.64 72.02 165.25 77.75 C 169.85 83.49 170.08 82.13 168.08 89.08 C 166.07 96.02 177.42 92.15 176.97 99.03 C 176.53 105.90 177.55 109.88 170.78 111.78 C 164.01 113.67 174.95 122.09 170.23 124.23 C 165.50 126.37 165.31 133.99 159.78 131.22 C 154.24 128.45 150.39 131.96 150.00 138.00
M 108.00 127.00 
C 102.47 129.92 105.90 132.87 109.22 134.78 C 112.55 136.68 108.28 144.67 108.00 147.00
C 98.18 143.31 103.99 163.60 93.97 160.97 C 83.95 158.35 82.72 166.41 72.00 162.00
C 73.52 152.38 66.28 157.99 61.75 154.24 C 57.22 150.50 58.74 144.00 60.00 139.00
C 53.01 137.58 57.19 136.61 55.93 130.93 C 54.67 125.25 62.08 126.38 63.74 123.74 C 65.41 121.11 61.56 115.02 66.75 113.75 C 71.93 112.47 72.41 108.48 76.00 114.00
C 80.21 109.16 91.78 106.61 93.97 114.03 C 96.17 121.45 108.92 114.60 108.00 127.00 Z"/>
</g>
<g fill="#FD515C" fill-opacity="1.00" stroke="None">
<path d="
M 150.00 138.00 
C 150.39 131.96 154.24 128.45 159.78 131.22 C 165.31 133.99 165.50 126.37 170.23 124.23 C 174.95 122.09 164.01 113.67 170.78 111.78 C 177.55 109.88 176.53 105.90 176.97 99.03 C 177.42 92.15 166.07 96.02 168.08 89.08 C 170.08 82.13 169.85 83.49 165.25 77.75 C 160.64 72.02 157.14 77.73 152.08 75.92 C 147.02 74.10 149.07 66.87 141.02 68.02 C 132.98 69.18 134.29 72.52 130.67 76.67 C 127.05 80.82 120.19 71.69 117.25 78.25 C 114.31 84.81 109.61 83.14 114.22 89.78 C 118.83 96.42 106.98 94.42 107.00 99.00 C 107.02 103.58 104.45 113.09 111.92 113.08 C 119.39 113.06 112.18 123.28 114.25 125.75 C 116.32 128.22 121.43 135.69 125.75 132.75 C 130.08 129.82 133.80 130.50 135.25 136.75 C 136.70 143.00 146.82 136.06 150.00 138.00
M 144.00 87.00 
C 163.79 88.89 160.90 122.14 140.33 119.67 C 119.75 117.20 122.83 84.98 144.00 87.00 Z"/>
</g>
<g fill="#FCB59D" fill-opacity="0.99" stroke="None">
<path d="
M 392.00 74.00 
C 386.02 74.58 378.91 74.57 373.00 74.00
C 365.11 74.23 357.46 73.43 350.00 72.00
C 349.80 74.31 350.27 76.70 350.00 79.00
C 344.40 102.04 353.94 131.80 380.00 135.00
C 380.59 136.72 379.22 139.37 380.00 141.00
C 380.87 142.83 385.32 146.61 387.70 147.30 C 390.07 148.00 393.02 155.01 393.00 155.00
C 393.51 154.57 394.56 154.39 395.00 154.00
C 398.18 151.16 404.16 149.86 407.23 147.23 C 410.30 144.60 419.52 144.51 421.00 141.00
C 420.76 139.78 421.00 138.25 421.00 137.00
C 418.70 140.25 407.94 137.57 404.00 138.00 C 400.06 138.43 392.18 136.15 389.00 134.00
C 405.09 134.18 417.64 119.13 421.00 105.00
C 421.00 101.00 421.00 97.00 421.00 93.00
C 436.79 94.12 436.37 68.69 421.00 69.00
C 419.12 74.25 424.67 85.01 418.22 88.22 C 411.78 91.43 411.38 80.63 409.97 76.03 C 408.56 71.42 396.91 74.00 392.00 74.00
M 364.00 82.00 
C 368.29 82.53 367.63 92.72 362.97 91.97 C 358.32 91.22 359.64 81.46 364.00 82.00
M 388.00 82.00 
C 391.61 83.10 390.94 93.32 386.32 91.66 C 381.70 90.00 384.04 80.79 388.00 82.00
M 388.00 107.00 
C 388.88 124.28 360.12 124.30 361.00 107.00
C 370.00 107.00 379.00 107.00 388.00 107.00 Z"/>
</g>
<g fill="#79616D" fill-opacity="1.00" stroke="None">
<path d="
M 392.00 74.00 
C 385.67 74.00 379.33 74.00 373.00 74.00
C 378.91 74.57 386.02 74.58 392.00 74.00 Z"/>
</g>
<g fill="#383856" fill-opacity="1.00" stroke="None">
<path d="
M 364.00 82.00 
C 359.64 81.46 358.32 91.22 362.97 91.97 C 367.63 92.72 368.29 82.53 364.00 82.00 Z"/>
</g>
<g fill="#333554" fill-opacity="1.00" stroke="None">
<path d="
M 388.00 82.00 
C 384.04 80.79 381.70 90.00 386.32 91.66 C 390.94 93.32 391.61 83.10 388.00 82.00 Z"/>
</g>
<g fill="#DEE9FC" fill-opacity="1.00" stroke="None">
<path d="
M 144.00 87.00 
C 122.83 84.98 119.75 117.20 140.33 119.67 C 160.90 122.14 163.79 88.89 144.00 87.00 Z"/>
</g>
<g fill="#F8967F" fill-opacity="1.00" stroke="None">
<path d="
M 421.00 137.00 
C 421.00 128.67 421.00 120.33 421.00 112.00
C 421.00 109.67 421.00 107.33 421.00 105.00
C 417.64 119.13 405.09 134.18 389.00 134.00
C 392.18 136.15 400.06 138.43 404.00 138.00 C 407.94 137.57 418.70 140.25 421.00 137.00 Z"/>
</g>
<g fill="#FFFEFD" fill-opacity="1.00" stroke="None">
<path d="
M 388.00 107.00 
C 379.00 107.00 370.00 107.00 361.00 107.00
C 360.12 124.30 388.88 124.28 388.00 107.00 Z"/>
</g>
<g fill="#FCC51E" fill-opacity="1.00" stroke="None">
<path d="
M 108.00 127.00 
C 108.92 114.60 96.17 121.45 93.97 114.03 C 91.78 106.61 80.21 109.16 76.00 114.00
C 72.41 108.48 71.93 112.47 66.75 113.75 C 61.56 115.02 65.41 121.11 63.74 123.74 C 62.08 126.38 54.67 125.25 55.93 130.93 C 57.19 136.61 53.01 137.58 60.00 139.00
C 58.74 144.00 57.22 150.50 61.75 154.24 C 66.28 157.99 73.52 152.38 72.00 162.00
C 82.72 166.41 83.95 158.35 93.97 160.97 C 103.99 163.60 98.18 143.31 108.00 147.00
C 108.28 144.67 112.55 136.68 109.22 134.78 C 105.90 132.87 102.47 129.92 108.00 127.00
M 88.00 121.00 
C 106.69 125.63 96.73 158.44 77.93 151.07 C 59.13 143.70 67.90 116.02 88.00 121.00 Z"/>
</g>
<g fill="#FDB024" fill-opacity="1.00" stroke="None">
<path d="
M 88.00 121.00 
C 67.90 116.02 59.13 143.70 77.93 151.07 C 96.73 158.44 106.69 125.63 88.00 121.00
M 87.00 124.00 
C 101.69 128.46 94.04 153.48 78.99 148.01 C 63.95 142.53 71.19 119.20 87.00 124.00 Z"/>
</g>
<g fill="#DEEAFC" fill-opacity="1.00" stroke="None">
<path d="
M 87.00 124.00 
C 71.19 119.20 63.95 142.53 78.99 148.01 C 94.04 153.48 101.69 128.46 87.00 124.00 Z"/>
</g>
<g fill="#272D4F" fill-opacity="0.91" stroke="None">
<path d="
M 225.00 151.00 
C 231.15 151.33 237.92 150.55 244.00 151.00 C 250.08 151.45 256.84 149.24 261.75 153.25 C 266.65 157.26 262.15 164.95 264.00 170.00 C 265.85 175.05 260.98 185.69 264.00 190.00
C 267.46 190.33 271.61 190.33 275.00 190.00
C 277.85 185.92 273.74 175.00 275.00 170.00 C 276.26 165.00 275.20 156.78 273.92 152.08 C 272.65 147.37 269.74 144.16 265.07 141.93 C 260.41 139.69 253.71 139.91 248.00 140.00 C 242.29 140.09 234.86 139.93 229.00 140.00
C 228.00 143.79 226.48 147.36 225.00 151.00 Z"/>
</g>
<g fill="#F2F4FC" fill-opacity="0.96" stroke="None">
<path d="
M 373.00 151.00 
C 378.00 152.82 379.89 162.92 384.00 166.00
C 387.84 163.15 389.88 158.56 393.00 155.00
C 393.02 155.01 390.07 148.00 387.70 147.30 C 385.32 146.61 380.87 142.83 380.00 141.00
C 379.76 142.12 374.23 150.46 373.00 151.00 Z"/>
</g>
<g fill="#F2F4FC" fill-opacity="0.98" stroke="None">
<path d="
M 395.00 154.00 
C 398.26 155.64 398.46 166.37 401.00 169.00
C 409.05 162.96 416.98 157.01 425.00 151.00
C 423.94 150.40 421.21 142.07 421.00 141.00
C 419.52 144.51 410.30 144.60 407.23 147.23 C 404.16 149.86 398.18 151.16 395.00 154.00 Z"/>
</g>
<g fill="#000000" fill-opacity="0.00" stroke="None">
<path d="
M 140.00 177.00 
C 142.53 194.57 139.05 213.22 140.00 231.00 C 140.95 248.78 140.00 267.17 140.00 285.00
C 154.07 283.72 168.86 285.00 183.00 285.00 C 197.14 285.00 211.93 283.73 226.00 285.00
C 223.82 273.33 221.16 262.34 218.22 250.78 C 215.28 239.22 214.65 226.44 211.00 215.00 C 207.35 203.55 204.37 188.33 221.00 190.00 C 237.63 191.67 247.97 188.45 264.00 190.00
C 260.98 185.69 265.85 175.05 264.00 170.00 C 262.15 164.95 266.65 157.26 261.75 153.25 C 256.84 149.24 250.08 151.45 244.00 151.00 C 237.92 150.55 231.15 151.33 225.00 151.00
C 221.61 159.33 216.13 166.09 207.69 170.69 C 199.26 175.30 187.66 178.24 177.00 177.00 C 166.34 175.76 150.76 179.39 140.00 177.00 Z"/>
</g>
<g fill="#FE4F5A" fill-opacity="0.99" stroke="None">
<path d="
M 309.00 190.00 
C 318.33 190.90 324.94 193.08 325.78 203.22 C 326.61 213.36 329.57 219.72 330.99 229.01 C 332.42 238.30 334.96 245.07 337.00 254.00
C 343.75 251.64 350.72 249.68 358.00 249.00
C 349.79 236.77 364.90 238.24 371.25 246.75 C 377.60 255.27 390.90 252.19 400.67 254.33 C 410.44 256.47 423.62 258.01 434.00 259.00
C 435.79 253.25 430.73 238.78 439.01 238.01 C 447.29 237.23 456.42 238.38 465.00 238.00 C 473.58 237.62 483.31 238.29 492.00 238.00
C 492.50 238.00 493.00 238.00 493.00 238.00
C 497.13 237.39 494.89 222.73 495.00 217.00 C 495.11 211.27 495.92 201.47 495.00 194.00 C 494.07 186.53 494.86 184.88 489.77 176.23 C 484.69 167.58 476.89 157.83 466.22 154.78 C 455.56 151.72 437.03 147.79 425.00 151.00
C 416.98 157.01 409.05 162.96 401.00 169.00
C 398.46 166.37 398.26 155.64 395.00 154.00
C 394.56 154.39 393.51 154.57 393.00 155.00
C 389.88 158.56 387.84 163.15 384.00 166.00
C 379.89 162.92 378.00 152.82 373.00 151.00
C 366.49 148.63 353.69 151.88 347.07 151.07 C 340.46 150.27 333.06 155.51 328.08 158.08 C 323.11 160.66 317.35 166.98 315.30 171.30 C 313.25 175.63 306.21 185.80 309.00 190.00 Z"/>
</g>
<g fill="#272E4F" fill-opacity="0.75" stroke="None">
<path d="
M 129.00 177.00 
C 126.47 194.57 129.95 213.23 129.00 231.00 C 128.05 248.77 128.99 267.17 129.00 285.00
C 129.00 285.50 129.00 286.00 129.00 286.00
C 129.50 286.00 130.00 286.00 130.00 286.00
C 131.06 274.24 130.16 261.82 130.00 250.00 C 129.84 238.18 131.38 224.65 130.00 213.00 C 128.62 201.35 133.53 187.02 130.00 176.00
C 129.65 176.05 129.05 176.65 129.00 177.00 Z"/>
</g>
<g fill="#272D4F" fill-opacity="1.00" stroke="None">
<path d="
M 130.00 286.00 
C 133.00 286.00 136.00 286.00 139.00 286.00
C 137.94 274.24 138.84 261.82 139.00 250.00 C 139.16 238.18 137.62 224.65 139.00 213.00 C 140.38 201.35 135.47 187.02 139.00 176.00
C 136.38 175.62 132.62 175.62 130.00 176.00
C 133.53 187.02 128.62 201.35 130.00 213.00 C 131.38 224.65 129.84 238.18 130.00 250.00 C 130.16 261.82 131.06 274.24 130.00 286.00 Z"/>
</g>
<g fill="#262F50" fill-opacity="0.21" stroke="None">
<path d="
M 139.00 286.00 
C 139.50 286.00 140.00 286.00 140.00 286.00
C 140.25 285.75 140.00 285.00 140.00 285.00
C 140.00 267.17 140.95 248.78 140.00 231.00 C 139.05 213.22 142.53 194.57 140.00 177.00
C 139.95 176.65 139.35 176.05 139.00 176.00
C 135.47 187.02 140.38 201.35 139.00 213.00 C 137.62 224.65 139.16 238.18 139.00 250.00 C 138.84 261.82 137.94 274.24 139.00 286.00 Z"/>
</g>
<g fill="#B3D3FE" fill-opacity="0.99" stroke="None">
<path d="
M 226.00 285.00 
C 226.09 285.48 226.00 286.00 226.00 286.00
C 226.96 287.03 226.87 287.45 227.00 289.00
C 230.02 293.30 241.64 288.73 247.00 290.00 C 252.36 291.27 261.72 289.43 268.00 290.00 C 274.28 290.57 282.28 289.75 289.00 290.00 C 295.72 290.25 303.03 289.91 310.00 290.00 C 316.97 290.09 324.94 290.00 332.00 290.00
C 335.28 289.68 340.12 289.35 344.00 289.00
C 344.00 288.50 344.00 288.00 344.00 288.00
C 343.49 284.91 342.65 282.06 342.00 279.00
C 340.25 270.69 338.90 262.31 337.00 254.00
C 334.96 245.07 332.42 238.30 330.99 229.01 C 329.57 219.72 326.61 213.36 325.78 203.22 C 324.94 193.08 318.33 190.90 309.00 190.00
C 298.36 188.97 285.64 188.97 275.00 190.00
C 271.61 190.33 267.46 190.33 264.00 190.00
C 247.97 188.45 237.63 191.67 221.00 190.00 C 204.37 188.33 207.35 203.55 211.00 215.00 C 214.65 226.44 215.28 239.22 218.22 250.78 C 221.16 262.34 223.82 273.33 226.00 285.00
M 276.00 238.00 
C 289.68 242.15 284.20 265.02 269.93 259.07 C 255.65 253.13 260.20 233.20 276.00 238.00 Z"/>
</g>
<g fill="#71AFFF" fill-opacity="1.00" stroke="None">
<path d="
M 276.00 238.00 
C 260.20 233.20 255.65 253.13 269.93 259.07 C 284.20 265.02 289.68 242.15 276.00 238.00 Z"/>
</g>
<g fill="#FDB59D" fill-opacity="1.00" stroke="None">
<path d="
M 337.00 254.00 
C 338.90 262.31 340.25 270.69 342.00 279.00
C 364.09 279.07 384.93 293.08 405.69 300.31 C 426.46 307.53 449.60 326.09 472.00 312.00
C 472.36 311.77 473.00 312.00 473.00 312.00
C 483.19 305.67 491.31 295.07 493.00 283.00
C 493.61 269.02 490.66 252.78 492.00 238.00
C 483.31 238.29 473.58 237.62 465.00 238.00 C 456.42 238.38 447.29 237.23 439.01 238.01 C 430.73 238.78 435.79 253.25 434.00 259.00
C 423.62 258.01 410.44 256.47 400.67 254.33 C 390.90 252.19 377.60 255.27 371.25 246.75 C 364.90 238.24 349.79 236.77 358.00 249.00
C 350.72 249.68 343.75 251.64 337.00 254.00 Z"/>
</g>
<g fill="#FFB49C" fill-opacity="0.25" stroke="None">
<path d="
M 493.00 283.00 
C 494.91 269.32 494.24 251.77 493.00 238.00
C 493.00 238.00 492.50 238.00 492.00 238.00
C 490.66 252.78 493.61 269.02 493.00 283.00 Z"/>
</g>
<g fill="#FE4F5A" fill-opacity="1.00" stroke="None">
<path d="
M 342.00 279.00 
C 342.65 282.06 343.49 284.91 344.00 288.00
C 351.77 291.95 364.03 287.48 372.00 290.00
C 383.62 293.67 375.18 304.61 365.00 303.00 C 354.82 301.39 342.39 303.00 332.00 303.00
C 333.36 318.14 333.37 335.86 332.00 351.00
C 333.30 355.87 347.04 352.15 353.00 353.00 C 358.96 353.85 369.93 352.59 377.00 353.00 C 384.07 353.41 393.46 352.77 401.00 353.00 C 408.54 353.23 417.28 352.80 425.00 353.00 C 432.72 353.20 441.30 352.70 449.00 353.00 C 456.70 353.30 465.17 351.94 472.00 354.00
C 472.67 347.07 473.00 338.69 473.00 331.00
C 472.46 325.38 471.43 318.33 472.00 312.00
C 449.60 326.09 426.46 307.53 405.69 300.31 C 384.93 293.08 364.09 279.07 342.00 279.00 Z"/>
</g>
<g fill="#596887" fill-opacity="0.07" stroke="None">
<path d="
M 27.00 286.00 
C 60.37 282.97 95.47 286.00 129.00 286.00
C 129.00 286.00 129.00 285.50 129.00 285.00
C 112.37 283.50 93.58 284.94 77.00 285.00 C 60.42 285.06 42.54 282.78 27.00 286.00 Z"/>
</g>
<g fill="#5A6987" fill-opacity="0.07" stroke="None">
<path d="
M 140.00 286.00 
C 168.27 286.01 197.86 288.55 226.00 286.00
C 226.00 286.00 226.09 285.48 226.00 285.00
C 211.93 283.73 197.14 285.00 183.00 285.00 C 168.86 285.00 154.07 283.72 140.00 285.00
C 140.00 285.00 140.25 285.75 140.00 286.00 Z"/>
</g>
<g fill="#5E6D84" fill-opacity="1.00" stroke="None">
<path d="
M 31.00 349.00 
C 31.50 349.00 32.00 349.00 32.00 349.00
C 104.67 349.00 177.33 349.01 250.00 349.00
C 250.50 349.00 251.00 349.00 251.00 349.00
C 272.70 351.05 262.86 320.82 265.00 308.00
C 262.17 307.67 260.29 305.86 260.00 303.00
C 255.00 303.00 250.00 303.00 245.00 303.00
C 251.24 313.07 235.86 322.12 230.00 314.00
C 227.44 310.45 230.32 305.19 230.00 302.00
C 229.58 297.84 227.42 293.89 227.00 289.00
C 226.87 287.45 226.96 287.03 226.00 286.00
C 197.86 288.55 168.27 286.01 140.00 286.00
C 140.00 286.00 139.50 286.00 139.00 286.00
C 136.00 286.00 133.00 286.00 130.00 286.00
C 130.00 286.00 129.50 286.00 129.00 286.00
C 95.47 286.00 60.37 282.97 27.00 286.00
C 11.52 289.21 17.99 306.93 17.00 320.00 C 16.01 333.07 14.21 349.00 31.00 349.00
M 202.00 299.00 
C 204.02 300.43 203.81 311.55 202.67 313.67 C 201.53 315.79 190.55 315.87 188.33 314.67 C 186.11 313.47 186.31 302.33 187.33 300.33 C 188.35 298.33 200.32 297.81 202.00 299.00
M 102.00 300.00 
C 105.87 302.74 102.43 313.74 103.00 319.00 C 103.57 324.26 92.40 322.96 87.00 323.00 C 81.60 323.04 73.40 322.51 67.00 323.00 C 60.60 323.49 54.23 321.74 47.00 323.00 C 39.77 324.26 34.72 321.51 36.00 314.00 C 37.28 306.49 33.82 299.55 42.00 300.00 C 50.18 300.45 55.00 299.26 62.00 300.00 C 69.00 300.74 75.96 298.49 82.00 300.00 C 88.04 301.51 97.33 296.70 102.00 300.00
M 223.00 300.00 
C 225.21 301.57 224.50 311.33 224.00 314.00 C 223.50 316.67 212.57 317.13 210.33 315.67 C 208.09 314.21 208.55 304.66 209.00 302.00 C 209.45 299.34 221.22 298.74 223.00 300.00
M 222.00 319.00 
C 224.30 320.15 227.88 334.09 220.97 334.97 C 214.06 335.85 207.86 334.86 208.00 327.00 C 208.14 319.14 215.15 315.58 222.00 319.00
M 202.00 320.00 
C 203.97 321.39 203.87 332.61 202.67 334.67 C 201.47 336.73 190.66 337.01 188.33 335.67 C 186.00 334.33 186.35 323.92 187.78 321.78 C 189.21 319.64 199.84 318.47 202.00 320.00
M 244.00 320.00 
C 246.24 321.16 250.18 335.42 242.97 335.97 C 235.77 336.52 230.18 336.30 230.00 328.00 C 229.82 319.70 236.59 316.17 244.00 320.00 Z"/>
</g>
<g fill="#CF7091" fill-opacity="1.00" stroke="None">
<path d="
M 344.00 289.00 
C 344.00 289.50 344.00 290.00 344.00 290.00
C 352.85 290.00 363.30 288.44 372.00 290.00
C 364.03 287.48 351.77 291.95 344.00 288.00
C 344.00 288.00 344.00 288.50 344.00 289.00 Z"/>
</g>
<g fill="#70AEFE" fill-opacity="1.00" stroke="None">
<path d="
M 230.00 302.00 
C 233.31 304.37 240.99 303.00 245.00 303.00
C 250.00 303.00 255.00 303.00 260.00 303.00
C 258.34 286.78 294.06 285.65 294.00 303.00
C 306.33 303.00 318.67 303.00 331.00 303.00
C 331.50 303.00 332.00 303.00 332.00 303.00
C 342.39 303.00 354.82 301.39 365.00 303.00 C 375.18 304.61 383.62 293.67 372.00 290.00
C 363.30 288.44 352.85 290.00 344.00 290.00
C 340.00 290.00 336.00 290.00 332.00 290.00
C 324.94 290.00 316.97 290.09 310.00 290.00 C 303.03 289.91 295.72 290.25 289.00 290.00 C 282.28 289.75 274.28 290.57 268.00 290.00 C 261.72 289.43 252.36 291.27 247.00 290.00 C 241.64 288.73 230.02 293.30 227.00 289.00
C 227.42 293.89 229.58 297.84 230.00 302.00 Z"/>
</g>
<g fill="#BCB2DA" fill-opacity="1.00" stroke="None">
<path d="
M 332.00 290.00 
C 336.00 290.00 340.00 290.00 344.00 290.00
C 344.00 290.00 344.00 289.50 344.00 289.00
C 340.12 289.35 335.28 289.68 332.00 290.00 Z"/>
</g>
<g fill="#FBB59F" fill-opacity="1.00" stroke="None">
<path d="
M 260.00 303.00 
C 260.29 305.86 262.17 307.67 265.00 308.00
C 267.80 308.33 274.35 306.90 278.00 307.00 C 281.65 307.10 288.76 308.43 292.00 307.00
C 294.09 305.64 293.99 306.05 294.00 303.00
C 294.06 285.65 258.34 286.78 260.00 303.00 Z"/>
</g>
<g fill="#F6C00E" fill-opacity="1.00" stroke="None">
<path d="
M 202.00 299.00 
C 200.32 297.81 188.35 298.33 187.33 300.33 C 186.31 302.33 186.11 313.47 188.33 314.67 C 190.55 315.87 201.53 315.79 202.67 313.67 C 203.81 311.55 204.02 300.43 202.00 299.00 Z"/>
</g>
<g fill="#FEFEFE" fill-opacity="1.00" stroke="None">
<path d="
M 102.00 300.00 
C 97.33 296.70 88.04 301.51 82.00 300.00 C 75.96 298.49 69.00 300.74 62.00 300.00 C 55.00 299.26 50.18 300.45 42.00 300.00 C 33.82 299.55 37.28 306.49 36.00 314.00 C 34.72 321.51 39.77 324.26 47.00 323.00 C 54.23 321.74 60.60 323.49 67.00 323.00 C 73.40 322.51 81.60 323.04 87.00 323.00 C 92.40 322.96 103.57 324.26 103.00 319.00 C 102.43 313.74 105.87 302.74 102.00 300.00
M 51.00 306.00 
C 57.50 308.44 52.66 321.18 45.78 317.22 C 38.90 313.26 43.50 303.19 51.00 306.00
M 65.00 306.00 
C 71.89 308.21 66.92 320.58 60.00 317.00 C 53.08 313.42 58.02 303.76 65.00 306.00 Z"/>
</g>
<g fill="#FBFBFC" fill-opacity="1.00" stroke="None">
<path d="
M 223.00 300.00 
C 221.22 298.74 209.45 299.34 209.00 302.00 C 208.55 304.66 208.09 314.21 210.33 315.67 C 212.57 317.13 223.50 316.67 224.00 314.00 C 224.50 311.33 225.21 301.57 223.00 300.00 Z"/>
</g>
<g fill="#B1B8C4" fill-opacity="1.00" stroke="None">
<path d="
M 230.00 314.00 
C 228.41 310.79 231.19 305.41 230.00 302.00
C 230.32 305.19 227.44 310.45 230.00 314.00 Z"/>
</g>
<g fill="#FAFAFB" fill-opacity="1.00" stroke="None">
<path d="
M 230.00 314.00 
C 235.86 322.12 251.24 313.07 245.00 303.00
C 240.99 303.00 233.31 304.37 230.00 302.00
C 231.19 305.41 228.41 310.79 230.00 314.00 Z"/>
</g>
<g fill="#FE4E5A" fill-opacity="0.32" stroke="None">
<path d="
M 331.00 351.00 
C 331.27 350.75 332.00 351.00 332.00 351.00
C 333.37 335.86 333.36 318.14 332.00 303.00
C 332.00 303.00 331.50 303.00 331.00 303.00
C 329.58 318.71 331.00 335.22 331.00 351.00 Z"/>
</g>
<g fill="#FEC92E" fill-opacity="1.00" stroke="None">
<path d="
M 51.00 306.00 
C 43.50 303.19 38.90 313.26 45.78 317.22 C 52.66 321.18 57.50 308.44 51.00 306.00 Z"/>
</g>
<g fill="#FF5962" fill-opacity="1.00" stroke="None">
<path d="
M 65.00 306.00 
C 58.02 303.76 53.08 313.42 60.00 317.00 C 66.92 320.58 71.89 308.21 65.00 306.00 Z"/>
</g>
<g fill="#FEB89E" fill-opacity="0.26" stroke="None">
<path d="
M 265.00 308.00 
C 272.82 305.79 285.27 311.39 292.00 307.00
C 288.76 308.43 281.65 307.10 278.00 307.00 C 274.35 306.90 267.80 308.33 265.00 308.00 Z"/>
</g>
<g fill="#FE4F59" fill-opacity="0.29" stroke="None">
<path d="
M 473.00 331.00 
C 473.00 324.75 473.56 318.22 473.00 312.00
C 473.00 312.00 472.36 311.77 472.00 312.00
C 471.43 318.33 472.46 325.38 473.00 331.00 Z"/>
</g>
<g fill="#F6F7F8" fill-opacity="1.00" stroke="None">
<path d="
M 222.00 319.00 
C 215.15 315.58 208.14 319.14 208.00 327.00 C 207.86 334.86 214.06 335.85 220.97 334.97 C 227.88 334.09 224.30 320.15 222.00 319.00 Z"/>
</g>
<g fill="#F8F9FA" fill-opacity="1.00" stroke="None">
<path d="
M 202.00 320.00 
C 199.84 318.47 189.21 319.64 187.78 321.78 C 186.35 323.92 186.00 334.33 188.33 335.67 C 190.66 337.01 201.47 336.73 202.67 334.67 C 203.87 332.61 203.97 321.39 202.00 320.00 Z"/>
</g>
<g fill="#F7C00D" fill-opacity="1.00" stroke="None">
<path d="
M 244.00 320.00 
C 236.59 316.17 229.82 319.70 230.00 328.00 C 230.18 336.30 235.77 336.52 242.97 335.97 C 250.18 335.42 246.24 321.16 244.00 320.00 Z"/>
</g>
<g fill="#192A3E" fill-opacity="0.75" stroke="None">
<path d="
M 31.00 359.00 
C 31.05 359.35 31.65 359.95 32.00 360.00
C 32.88 357.26 32.26 351.89 32.00 349.00
C 32.00 349.00 31.50 349.00 31.00 349.00
C 30.72 352.05 30.56 355.97 31.00 359.00 Z"/>
</g>
<g fill="#18293D" fill-opacity="1.00" stroke="None">
<path d="
M 32.00 360.00 
C 55.44 363.37 80.22 359.12 104.00 360.00 C 127.78 360.88 153.16 360.94 177.00 360.00 C 200.84 359.06 226.42 363.40 250.00 360.00
C 249.12 357.26 249.74 351.89 250.00 349.00
C 177.33 349.01 104.67 349.00 32.00 349.00
C 32.26 351.89 32.88 357.26 32.00 360.00 Z"/>
</g>
<g fill="#1A2B3E" fill-opacity="0.34" stroke="None">
<path d="
M 250.00 360.00 
C 250.35 359.95 250.95 359.35 251.00 359.00
C 251.44 355.97 251.28 352.05 251.00 349.00
C 251.00 349.00 250.50 349.00 250.00 349.00
C 249.74 351.89 249.12 357.26 250.00 360.00 Z"/>
</g>
<g fill="#CF6782" fill-opacity="0.99" stroke="None">
<path d="
M 331.00 354.00 
C 347.00 354.00 363.00 354.00 379.00 354.00
C 410.00 354.00 441.00 354.00 472.00 354.00
C 465.17 351.94 456.70 353.30 449.00 353.00 C 441.30 352.70 432.72 353.20 425.00 353.00 C 417.28 352.80 408.54 353.23 401.00 353.00 C 393.46 352.77 384.07 353.41 377.00 353.00 C 369.93 352.59 358.96 353.85 353.00 353.00 C 347.04 352.15 333.30 355.87 332.00 351.00
C 332.00 351.00 331.27 350.75 331.00 351.00
C 331.00 352.00 331.00 353.00 331.00 354.00 Z"/>
</g>
<g fill="#2B9BEC" fill-opacity="0.99" stroke="None">
<path d="
M 397.00 495.00 
C 390.88 448.04 383.96 401.27 379.00 354.00
C 363.00 354.00 347.00 354.00 331.00 354.00
C 331.00 401.00 331.00 448.00 331.00 495.00
C 353.00 495.00 375.00 495.00 397.00 495.00 Z"/>
</g>
<g fill="#63B4F3" fill-opacity="1.00" stroke="None">
<path d="
M 397.00 495.00 
C 422.00 495.00 447.00 495.00 472.00 495.00
C 475.38 448.33 467.49 400.56 472.00 354.00
C 441.00 354.00 410.00 354.00 379.00 354.00
C 383.96 401.27 390.88 448.04 397.00 495.00 Z"/>
</g>
<g fill="#5E6D84" fill-opacity="0.99" stroke="None">
<path d="
M 31.00 423.00 
C 31.50 423.00 32.00 423.00 32.00 423.00
C 104.67 423.00 177.33 422.97 250.00 423.00
C 250.50 423.00 251.00 423.00 251.00 423.00
C 269.45 424.75 264.61 402.51 265.00 391.00 C 265.39 379.49 268.20 357.18 251.00 359.00
C 250.95 359.35 250.35 359.95 250.00 360.00
C 226.42 363.40 200.84 359.06 177.00 360.00 C 153.16 360.94 127.78 360.88 104.00 360.00 C 80.22 359.12 55.44 363.37 32.00 360.00
C 31.65 359.95 31.05 359.35 31.00 359.00
C 13.73 355.60 16.44 378.71 17.00 391.00 C 17.56 403.29 12.21 422.99 31.00 423.00
M 202.00 373.00 
C 204.02 374.43 203.81 385.55 202.67 387.67 C 201.53 389.79 190.55 389.87 188.33 388.67 C 186.11 387.47 186.31 376.33 187.33 374.33 C 188.35 372.33 200.31 371.81 202.00 373.00
M 102.00 374.00 
C 105.87 376.74 102.43 387.74 103.00 393.00 C 103.57 398.26 92.40 396.96 87.00 397.00 C 81.60 397.04 73.40 396.51 67.00 397.00 C 60.60 397.49 54.23 395.74 47.00 397.00 C 39.77 398.26 34.72 395.51 36.00 388.00 C 37.28 380.49 33.82 373.55 42.00 374.00 C 50.18 374.45 55.00 373.26 62.00 374.00 C 69.00 374.74 75.96 372.49 82.00 374.00 C 88.04 375.51 97.33 370.70 102.00 374.00
M 223.00 374.00 
C 225.21 375.57 224.50 385.33 224.00 388.00 C 223.50 390.67 212.57 391.13 210.33 389.67 C 208.09 388.21 208.55 378.66 209.00 376.00 C 209.45 373.34 221.22 372.74 223.00 374.00
M 230.00 388.00 
C 228.22 385.53 227.63 375.67 231.00 374.00
C 232.52 373.25 244.05 372.76 244.74 375.26 C 245.44 377.76 246.47 388.07 243.29 389.29 C 240.12 390.52 232.29 391.17 230.00 388.00
M 222.00 393.00 
C 231.56 397.78 219.51 416.86 210.33 408.67 C 201.15 400.48 212.42 388.21 222.00 393.00
M 202.00 394.00 
C 203.97 395.39 203.87 406.61 202.67 408.67 C 201.47 410.73 190.66 411.01 188.33 409.67 C 186.00 408.33 186.35 397.92 187.78 395.78 C 189.21 393.64 199.84 392.47 202.00 394.00
M 244.00 394.00 
C 246.24 395.16 250.18 409.42 242.97 409.97 C 235.77 410.52 230.18 410.30 230.00 402.00 C 229.82 393.70 236.59 390.17 244.00 394.00 Z"/>
</g>
<g fill="#F6C00E" fill-opacity="1.00" stroke="None">
<path d="
M 202.00 373.00 
C 200.31 371.81 188.35 372.33 187.33 374.33 C 186.31 376.33 186.11 387.47 188.33 388.67 C 190.55 389.87 201.53 389.79 202.67 387.67 C 203.81 385.55 204.02 374.43 202.00 373.00 Z"/>
</g>
<g fill="#FEFEFD" fill-opacity="1.00" stroke="None">
<path d="
M 102.00 374.00 
C 97.33 370.70 88.04 375.51 82.00 374.00 C 75.96 372.49 69.00 374.74 62.00 374.00 C 55.00 373.26 50.18 374.45 42.00 374.00 C 33.82 373.55 37.28 380.49 36.00 388.00 C 34.72 395.51 39.77 398.26 47.00 397.00 C 54.23 395.74 60.60 397.49 67.00 397.00 C 73.40 396.51 81.60 397.04 87.00 397.00 C 92.40 396.96 103.57 398.26 103.00 393.00 C 102.43 387.74 105.87 376.74 102.00 374.00
M 51.00 380.00 
C 57.36 382.38 52.93 394.93 45.93 391.07 C 38.92 387.22 43.47 377.18 51.00 380.00
M 65.00 380.00 
C 71.89 382.21 66.92 394.58 60.00 391.00 C 53.08 387.42 58.02 377.76 65.00 380.00 Z"/>
</g>
<g fill="#FBFBFC" fill-opacity="1.00" stroke="None">
<path d="
M 223.00 374.00 
C 221.22 372.74 209.45 373.34 209.00 376.00 C 208.55 378.66 208.09 388.21 210.33 389.67 C 212.57 391.13 223.50 390.67 224.00 388.00 C 224.50 385.33 225.21 375.57 223.00 374.00 Z"/>
</g>
<g fill="#ADB4C0" fill-opacity="1.00" stroke="None">
<path d="
M 230.00 388.00 
C 229.10 386.17 229.28 375.22 231.00 374.00
C 227.63 375.67 228.22 385.53 230.00 388.00 Z"/>
</g>
<g fill="#FBFBFC" fill-opacity="1.00" stroke="None">
<path d="
M 230.00 388.00 
C 232.29 391.17 240.12 390.52 243.29 389.29 C 246.47 388.07 245.44 377.76 244.74 375.26 C 244.05 372.76 232.52 373.25 231.00 374.00
C 229.28 375.22 229.10 386.17 230.00 388.00 Z"/>
</g>
<g fill="#FEC82B" fill-opacity="1.00" stroke="None">
<path d="
M 51.00 380.00 
C 43.47 377.18 38.92 387.22 45.93 391.07 C 52.93 394.93 57.36 382.38 51.00 380.00 Z"/>
</g>
<g fill="#FF5962" fill-opacity="1.00" stroke="None">
<path d="
M 65.00 380.00 
C 58.02 377.76 53.08 387.42 60.00 391.00 C 66.92 394.58 71.89 382.21 65.00 380.00 Z"/>
</g>
<g fill="#F6F7F8" fill-opacity="1.00" stroke="None">
<path d="
M 222.00 393.00 
C 212.42 388.21 201.15 400.48 210.33 408.67 C 219.51 416.86 231.56 397.78 222.00 393.00 Z"/>
</g>
<g fill="#F8F9FA" fill-opacity="1.00" stroke="None">
<path d="
M 202.00 394.00 
C 199.84 392.47 189.21 393.64 187.78 395.78 C 186.35 397.92 186.00 408.33 188.33 409.67 C 190.66 411.01 201.47 410.73 202.67 408.67 C 203.87 406.61 203.97 395.39 202.00 394.00 Z"/>
</g>
<g fill="#F7C00D" fill-opacity="1.00" stroke="None">
<path d="
M 244.00 394.00 
C 236.59 390.17 229.82 393.70 230.00 402.00 C 230.18 410.30 235.77 410.52 242.97 409.97 C 250.18 409.42 246.24 395.16 244.00 394.00 Z"/>
</g>
<g fill="#192A3E" fill-opacity="0.75" stroke="None">
<path d="
M 31.00 433.00 
C 31.05 433.35 31.65 433.95 32.00 434.00
C 32.88 431.26 32.26 425.89 32.00 423.00
C 32.00 423.00 31.50 423.00 31.00 423.00
C 30.72 426.05 30.56 429.97 31.00 433.00 Z"/>
</g>
<g fill="#18293E" fill-opacity="0.99" stroke="None">
<path d="
M 32.00 434.00 
C 55.44 437.38 80.22 433.12 104.00 434.00 C 127.78 434.88 153.16 434.94 177.00 434.00 C 200.84 433.06 226.42 437.40 250.00 434.00
C 249.12 431.26 249.74 425.89 250.00 423.00
C 177.33 422.97 104.67 423.00 32.00 423.00
C 32.26 425.89 32.88 431.26 32.00 434.00 Z"/>
</g>
<g fill="#1A2B3E" fill-opacity="0.34" stroke="None">
<path d="
M 250.00 434.00 
C 250.35 433.95 250.95 433.35 251.00 433.00
C 251.44 429.97 251.28 426.05 251.00 423.00
C 251.00 423.00 250.50 423.00 250.00 423.00
C 249.74 425.89 249.12 431.26 250.00 434.00 Z"/>
</g>
<g fill="#5E6D84" fill-opacity="0.99" stroke="None">
<path d="
M 251.00 433.00 
C 250.95 433.35 250.35 433.95 250.00 434.00
C 226.42 437.40 200.84 433.06 177.00 434.00 C 153.16 434.94 127.78 434.88 104.00 434.00 C 80.22 433.12 55.44 437.38 32.00 434.00
C 31.65 433.95 31.05 433.35 31.00 433.00
C 13.63 429.57 16.75 453.14 17.00 464.00 C 17.25 474.86 12.84 497.72 29.00 497.00 C 45.16 496.28 58.45 497.34 74.00 497.00 C 89.55 496.66 103.70 497.20 119.00 497.00 C 134.30 496.80 148.76 497.18 164.00 497.00 C 179.24 496.82 193.65 497.28 209.00 497.00 C 224.35 496.72 238.30 497.57 254.00 497.00 C 269.69 496.42 264.30 473.78 265.00 463.00 C 265.70 452.22 267.38 431.26 251.00 433.00
M 101.00 447.00 
C 105.45 449.23 103.01 461.46 103.00 467.00 C 102.99 472.54 89.71 471.44 84.00 471.00 C 78.29 470.56 66.99 471.99 61.00 471.00 C 55.01 470.01 43.39 473.35 38.33 470.67 C 33.27 467.99 35.50 456.51 36.00 451.00 C 36.50 445.49 49.40 446.46 55.00 447.00 C 60.60 447.54 71.89 445.75 78.00 447.00 C 84.11 448.25 95.43 444.21 101.00 447.00
M 201.00 447.00 
C 203.35 448.21 207.04 462.34 199.97 462.97 C 192.90 463.61 186.94 463.12 187.00 455.00 C 187.06 446.88 193.96 443.36 201.00 447.00
M 223.00 447.00 
C 225.21 448.57 224.50 458.33 224.00 461.00 C 223.50 463.67 212.57 464.13 210.33 462.67 C 208.09 461.21 208.55 451.66 209.00 449.00 C 209.45 446.34 221.22 445.74 223.00 447.00
M 244.00 447.00 
C 246.24 448.16 250.18 462.42 242.97 462.97 C 235.77 463.52 230.18 463.30 230.00 455.00 C 229.82 446.70 236.59 443.17 244.00 447.00
M 201.00 468.00 
C 204.32 470.39 204.29 480.63 201.00 483.00
C 198.56 484.76 191.39 484.72 189.00 483.00
C 185.68 480.61 185.71 470.37 189.00 468.00
C 191.44 466.24 198.61 466.28 201.00 468.00
M 222.00 483.00 
C 219.60 484.70 213.35 484.66 211.00 483.00
C 207.10 480.24 209.77 473.01 209.00 468.00
C 214.00 468.00 219.00 468.00 224.00 468.00
C 222.86 472.59 226.41 480.81 222.00 483.00
M 244.00 483.00 
C 241.56 484.76 234.39 484.72 232.00 483.00
C 229.61 481.28 228.63 471.74 230.33 469.33 C 232.03 466.92 243.02 466.66 245.22 468.78 C 247.42 470.90 246.48 481.21 244.00 483.00 Z"/>
</g>
<g fill="#FAFAFB" fill-opacity="1.00" stroke="None">
<path d="
M 101.00 447.00 
C 95.43 444.21 84.11 448.25 78.00 447.00 C 71.89 445.75 60.60 447.54 55.00 447.00 C 49.40 446.46 36.50 445.49 36.00 451.00 C 35.50 456.51 33.27 467.99 38.33 470.67 C 43.39 473.35 55.01 470.01 61.00 471.00 C 66.99 471.99 78.29 470.56 84.00 471.00 C 89.71 471.44 102.99 472.54 103.00 467.00 C 103.01 461.46 105.45 449.23 101.00 447.00
M 50.00 453.00 
C 57.30 454.60 53.80 467.53 46.33 464.67 C 38.86 461.81 42.53 451.37 50.00 453.00
M 64.00 453.00 
C 70.94 454.29 68.12 467.29 61.00 465.00 C 53.87 462.70 56.98 451.69 64.00 453.00 Z"/>
</g>
<g fill="#F9F9FA" fill-opacity="1.00" stroke="None">
<path d="
M 201.00 447.00 
C 193.96 443.36 187.06 446.88 187.00 455.00 C 186.94 463.12 192.90 463.61 199.97 462.97 C 207.04 462.34 203.35 448.21 201.00 447.00 Z"/>
</g>
<g fill="#FBFBFC" fill-opacity="1.00" stroke="None">
<path d="
M 223.00 447.00 
C 221.22 445.74 209.45 446.34 209.00 449.00 C 208.55 451.66 208.09 461.21 210.33 462.67 C 212.57 464.13 223.50 463.67 224.00 461.00 C 224.50 458.33 225.21 448.57 223.00 447.00 Z"/>
</g>
<g fill="#F7C00E" fill-opacity="1.00" stroke="None">
<path d="
M 244.00 447.00 
C 236.59 443.17 229.82 446.70 230.00 455.00 C 230.18 463.30 235.77 463.52 242.97 462.97 C 250.18 462.42 246.24 448.16 244.00 447.00 Z"/>
</g>
<g fill="#FEC92E" fill-opacity="1.00" stroke="None">
<path d="
M 50.00 453.00 
C 42.53 451.37 38.86 461.81 46.33 464.67 C 53.80 467.53 57.30 454.60 50.00 453.00 Z"/>
</g>
<g fill="#FF5761" fill-opacity="1.00" stroke="None">
<path d="
M 64.00 453.00 
C 56.98 451.69 53.87 462.70 61.00 465.00 C 68.12 467.29 70.94 454.29 64.00 453.00 Z"/>
</g>
<g fill="#878362" fill-opacity="1.00" stroke="None">
<path d="
M 189.00 468.00 
C 190.47 467.27 199.53 467.27 201.00 468.00
C 198.61 466.28 191.44 466.24 189.00 468.00 Z"/>
</g>
<g fill="#FAC204" fill-opacity="1.00" stroke="None">
<path d="
M 189.00 483.00 
C 190.47 483.73 199.53 483.73 201.00 483.00
C 204.29 480.63 204.32 470.39 201.00 468.00
C 199.53 467.27 190.47 467.27 189.00 468.00
C 185.71 470.37 185.68 480.61 189.00 483.00 Z"/>
</g>
<g fill="#FDFDFD" fill-opacity="1.00" stroke="None">
<path d="
M 211.00 483.00 
C 212.39 483.67 220.61 483.67 222.00 483.00
C 226.41 480.81 222.86 472.59 224.00 468.00
C 219.00 468.00 214.00 468.00 209.00 468.00
C 209.77 473.01 207.10 480.24 211.00 483.00 Z"/>
</g>
<g fill="#FBFBFC" fill-opacity="1.00" stroke="None">
<path d="
M 232.00 483.00 
C 233.47 483.73 242.53 483.73 244.00 483.00
C 246.48 481.21 247.42 470.90 245.22 468.78 C 243.02 466.66 232.03 466.92 230.33 469.33 C 228.63 471.74 229.61 481.28 232.00 483.00 Z"/>
</g>
<g fill="#A79447" fill-opacity="1.00" stroke="None">
<path d="
M 201.00 483.00 
C 199.53 483.73 190.47 483.73 189.00 483.00
C 191.39 484.72 198.56 484.76 201.00 483.00 Z"/>
</g>
<g fill="#A8B0BC" fill-opacity="1.00" stroke="None">
<path d="
M 222.00 483.00 
C 220.61 483.67 212.39 483.67 211.00 483.00
C 213.35 484.66 219.60 484.70 222.00 483.00 Z"/>
</g>
<g fill="#A7AFBB" fill-opacity="1.00" stroke="None">
<path d="
M 244.00 483.00 
C 242.53 483.73 233.47 483.73 232.00 483.00
C 234.39 484.72 241.56 484.76 244.00 483.00 Z"/>
</g>
</svg>