<?xml version="1.0" encoding="UTF-8"?>
<svg version="1.1" xmlns="http://www.w3.org/2000/svg" width="512" height="512">
<path d="M0 0 C4.29813284 1.69602194 8.24180252 3.89956954 12.25 6.1875 C13.3121875 6.76564453 14.374375 7.34378906 15.46875 7.93945312 C26.07098702 13.83328464 26.07098702 13.83328464 29 18 C29.3125 21.8125 29.3125 21.8125 29 25 C52.72550905 39.36942002 75.35684152 44.26081115 103.125 41.5 C122.53158808 39.60460437 140.04984001 40.44673947 157 51 C157.66 51.33 158.32 51.66 159 52 C161.50087629 50.69073545 163.89604671 49.32649563 166.3125 47.875 C178.44849715 40.81527488 190.89594214 36.02486234 205 35 C205.66257812 34.94585937 206.32515625 34.89171875 207.0078125 34.8359375 C216.6082804 34.43439702 226.54428379 36.93667564 235.6875 39.6875 C254.7680309 44.62076996 272.39188765 39.95367717 289.20556641 30.93408203 C290.75797476 30.12598484 292.35105669 29.39694556 293.94921875 28.68359375 C296.25925963 27.61599031 298.12294197 26.71944247 300 25 C300.69468581 22.89015147 300.69468581 22.89015147 300.9375 20.5625 C301.34585313 17.70872179 301.54941633 16.41624357 303.69140625 14.4375 C306.40083047 12.8237651 309.18759977 11.42773204 312 10 C313.45433661 9.14536878 314.90317291 8.28133785 316.34765625 7.41015625 C317.9189917 6.48129846 319.49060817 5.55291592 321.0625 4.625 C321.80564453 4.17133057 322.54878906 3.71766113 323.31445312 3.25024414 C328.57424989 0.23349395 332.93431646 -1.01813319 339 0 C342.5623603 1.62916316 345.15710231 4.32540185 348 7 C348.93972656 7.86109375 349.87945312 8.7221875 350.84765625 9.609375 C373.39277731 30.84040402 390.77140104 62.97142477 392.14526367 94.31396484 C392.16990795 98.00106725 392.185649 101.68780931 392.1875 105.375 C392.19974609 106.65117187 392.21199219 107.92734375 392.22460938 109.2421875 C392.2513764 126.5158424 392.2513764 126.5158424 387.46875 131.79296875 C383.47708073 134.61596058 379.00385636 136.46682947 374.5 138.3125 C373.25669922 138.85100586 373.25669922 138.85100586 371.98828125 139.40039062 C363.6049477 142.89899962 363.6049477 142.89899962 359 142 C356.87624391 140.46255983 354.97873414 138.72660621 353 137 C351.61216309 137.65633423 351.61216309 137.65633423 350.19628906 138.32592773 C347.43904702 139.62959189 344.68065494 140.93079507 341.921875 142.23120117 C338.7983581 143.70412225 335.67916669 145.18573957 332.5625 146.6730957 C325.89379031 149.84401968 319.26715233 152.98468078 312.359375 155.609375 C303.37547989 158.5291234 303.37547989 158.5291234 297.5 165.21875 C297.02121887 168.54029408 296.98674854 171.65179776 297 175 C294.1752456 180.55210347 290.61884722 183.90008417 284.875 186.3125 C279.76249983 187.21955648 275.11694128 186.68472632 270 186 C270.7425 187.485 270.7425 187.485 271.5 189 C273.83292678 194.51015088 273.66160057 198.98037721 271.8125 204.625 C269.15961621 209.56485257 266.69430667 213.00334902 261.8125 215.875 C257.06990233 217.27445505 252.89761337 217.23118105 248 217 C247.01 217 246.02 217 245 217 C245.33 217.639375 245.66 218.27875 246 218.9375 C247.8560642 224.62169661 247.83499939 229.83857421 245.3125 235.3125 C242.92738402 239.53684274 239.99906037 241.85767979 235.8125 244.25 C228.65120157 246.15967958 222.50554096 245.39419528 216 242 C216.16757812 242.556875 216.33515625 243.11375 216.5078125 243.6875 C218.00766621 249.30720505 218.39085241 253.60350455 216 259 C212.71452482 263.97514813 209.70082944 266.2607639 204 268 C193.87797992 269.16154329 185.48344292 263.99990356 177 259 C176.36384766 260.01320313 176.36384766 260.01320313 175.71484375 261.046875 C171.46610115 267.50869891 168.4200455 271.73828449 160.6171875 273.5546875 C154.80798699 274.42517932 150.12195084 273.97256075 145 271 C139.24979675 266.14427281 136.83967208 261.2171751 135 254 C134.30777344 254.72316406 134.30777344 254.72316406 133.6015625 255.4609375 C128.48747677 260.41331301 124.18725432 262.75966188 117 263 C111.57163164 262.5091369 107.16218731 260.50002114 103 257 C99.63224684 252.13546765 98.21320236 247.7627112 97 242 C96.29875 242.763125 95.5975 243.52625 94.875 244.3125 C90.53834557 248.36632914 87.04937451 250.16532353 81.125 250.4375 C75.29488971 250.23585709 70.76249768 248.56567851 66.46484375 244.57421875 C61.92354272 239.45036016 60.5869415 234.95619838 60.7421875 228.26953125 C61.13516167 224.81016772 62.42963084 222.08257649 64 219 C64.556875 217.865625 65.11375 216.73125 65.6875 215.5625 C66.120625 214.716875 66.55375 213.87125 67 213 C66.030625 213.495 65.06125 213.99 64.0625 214.5 C58.983988 216.63993751 54.10723535 216.98739795 48.82421875 215.30859375 C42.90546598 212.64459768 39.3609983 209.04604382 36.6875 203.0625 C35.13680124 196.1548419 36.2985257 191.55468559 39.125 185.234375 C40.18232243 182.93435918 40.18232243 182.93435918 40 180 C38.18217366 177.77036834 36.35386694 175.70210857 34.375 173.625 C33.85292969 173.06039062 33.33085938 172.49578125 32.79296875 171.9140625 C25.4723162 164.10536645 17.67848729 159.53317948 8.1875 154.75 C6.88278124 154.08541353 5.57850224 153.41996304 4.2746582 152.75366211 C2.33152002 151.76078359 0.38814792 150.76840805 -1.55671692 149.77891541 C-6.83669102 147.09210986 -12.08344287 144.34685575 -17.3125 141.5625 C-18.01028564 141.19157227 -18.70807129 140.82064453 -19.42700195 140.43847656 C-20.95204094 139.62697699 -22.47615792 138.8137449 -24 138 C-24.639375 138.680625 -25.27875 139.36125 -25.9375 140.0625 C-29.67200981 142.42514906 -31.35480687 142.29720008 -35.58740234 141.60009766 C-39.70898712 140.57491496 -43.46866419 138.9717911 -47.3125 137.1875 C-48.09689453 136.84396484 -48.88128906 136.50042969 -49.68945312 136.14648438 C-57.52625599 132.59761782 -57.52625599 132.59761782 -60 129 C-68.8178227 105.52039855 -60.64882858 74.08258167 -51 52 C-43.89813633 36.41360893 -33.84358744 23.26266823 -22 11 C-21.32710937 10.28714844 -20.65421875 9.57429687 -19.9609375 8.83984375 C-14.00688181 2.66283884 -9.05467299 -1.49416224 0 0 Z " fill="#F19888" transform="translate(91,228)"/>
<path d="M0 0 C3.00759507 2.63386217 5.81573982 5.42635073 8.609375 8.28515625 C9.49689453 9.12433594 9.49689453 9.12433594 10.40234375 9.98046875 C14.08594852 13.75295407 16.39475369 18.327938 18.796875 22.97265625 C19.13041992 23.60776123 19.46396484 24.24286621 19.80761719 24.8972168 C24.81815764 35.03561398 26.14961686 45.33147707 26.046875 56.53515625 C26.03785156 57.72028809 26.02882813 58.90541992 26.01953125 60.12646484 C25.56874367 83.03210858 16.13614239 100.26397847 3.02734375 118.48046875 C-10.80919844 137.75895018 -14.87829663 154.43144307 -14.23046875 177.8828125 C-14.47740324 183.12866477 -15.35432858 187.05796312 -18.765625 191.09765625 C-22.5947237 194.28857183 -25.12956657 195.55754032 -30.140625 195.41015625 C-30.93984375 195.39210937 -31.7390625 195.3740625 -32.5625 195.35546875 C-33.16578125 195.33226562 -33.7690625 195.3090625 -34.390625 195.28515625 C-34.3592041 196.15466919 -34.3592041 196.15466919 -34.32714844 197.04174805 C-34.24365693 199.68520549 -34.19186347 202.32838505 -34.140625 204.97265625 C-34.10710937 205.88466797 -34.07359375 206.79667969 -34.0390625 207.73632812 C-33.97824548 211.9174983 -34.00696656 214.57904202 -36.03125 218.3046875 C-41.97238388 223.29169888 -48.94830239 222.62003291 -56.328125 222.59765625 C-57.38708984 222.61376953 -58.44605469 222.62988281 -59.53710938 222.64648438 C-65.58000115 222.65025411 -70.13610743 222.38469192 -75.390625 219.28515625 C-78.09055178 216.34967868 -78.75978137 214.4812874 -78.68359375 210.51953125 C-78.6690918 209.18535156 -78.6690918 209.18535156 -78.65429688 207.82421875 C-78.62916016 206.90382812 -78.60402344 205.9834375 -78.578125 205.03515625 C-78.55782227 203.63136719 -78.55782227 203.63136719 -78.53710938 202.19921875 C-78.50182454 199.89394298 -78.45252781 197.58984565 -78.390625 195.28515625 C-78.99535645 195.30473389 -79.60008789 195.32431152 -80.22314453 195.34448242 C-81.42366455 195.367323 -81.42366455 195.367323 -82.6484375 195.390625 C-83.43879395 195.41020264 -84.22915039 195.42978027 -85.04345703 195.44995117 C-89.04676668 195.16887836 -91.17169186 193.66716678 -94.390625 191.28515625 C-98.95686018 185.34905052 -98.45936998 179.03911421 -98.328125 171.91015625 C-98.18691652 151.18451666 -102.97244181 136.23917155 -115.19140625 119.4140625 C-133.032992 94.79181295 -141.6073524 71.75485184 -138.10644531 40.77001953 C-135.72807468 26.81542401 -128.31139847 15.08782527 -118.390625 5.28515625 C-117.71515625 4.58777344 -117.0396875 3.89039062 -116.34375 3.171875 C-87.53645525 -24.7148859 -30.54425345 -25.38523281 0 0 Z " fill="#FEEA85" transform="translate(312.390625,27.71484375)"/>
<path d="M0 0 C3.5623603 1.62916316 6.15710231 4.32540185 9 7 C10.40958984 8.29164063 10.40958984 8.29164063 11.84765625 9.609375 C34.39277731 30.84040402 51.77140104 62.97142477 53.14526367 94.31396484 C53.16990795 98.00106725 53.185649 101.68780931 53.1875 105.375 C53.19974609 106.65117187 53.21199219 107.92734375 53.22460938 109.2421875 C53.2513764 126.5158424 53.2513764 126.5158424 48.46875 131.79296875 C44.47708073 134.61596058 40.00385636 136.46682947 35.5 138.3125 C34.25669922 138.85100586 34.25669922 138.85100586 32.98828125 139.40039062 C24.6049477 142.89899962 24.6049477 142.89899962 20 142 C17.87624391 140.46255983 15.97873414 138.72660621 14 137 C12.61216309 137.65633423 12.61216309 137.65633423 11.19628906 138.32592773 C1.49480322 142.91178516 -8.21495758 147.47977338 -17.93267822 152.03112793 C-19.79742517 152.90506118 -21.66122219 153.78102065 -23.52490234 154.65722656 C-26.32429244 155.96973186 -29.12916527 157.26927319 -31.9375 158.5625 C-32.73317383 158.93753662 -33.52884766 159.31257324 -34.34863281 159.69897461 C-39.65361186 162.11546271 -39.65361186 162.11546271 -43 161 C-43.95271373 159.31687241 -44.90304911 157.62925388 -45.7421875 155.88671875 C-48.50704341 151.73943489 -53.00919778 149.28117298 -57.26171875 146.85546875 C-58.79723389 145.9749585 -58.79723389 145.9749585 -60.36376953 145.07666016 C-61.46060059 144.4532373 -62.55743164 143.82981445 -63.6875 143.1875 C-65.43374056 142.18799571 -67.17997708 141.18848428 -68.92596436 140.1885376 C-70.73918463 139.15069582 -72.55340639 138.11461974 -74.36767578 137.07861328 C-79.02410792 134.41706077 -83.66554924 131.72979984 -88.30786133 129.04370117 C-124.49464568 106.01205788 -124.49464568 106.01205788 -166.0234375 103.73828125 C-174.93422157 106.49161341 -183.21393707 110.93951327 -191.56640625 115.03564453 C-203.54764802 120.84901633 -215.11633988 125.41579329 -228.37109375 121.10546875 C-234.25965161 118.62929954 -240.04824399 115.04051085 -243.625 109.625 C-245.25841172 105.31873273 -246.04423676 101.537823 -245 97 C-241.87331719 90.45912332 -236.31625723 87.67909811 -230.25 84.0625 C-228.08442373 82.74123231 -225.91906556 81.4196071 -223.75390625 80.09765625 C-222.64031738 79.4236377 -221.52672852 78.74961914 -220.37939453 78.05517578 C-214.95065147 74.75369051 -209.57074881 71.37496151 -204.1875 68 C-203.2294043 67.40195557 -202.27130859 66.80391113 -201.28417969 66.18774414 C-200.35895508 65.61016357 -199.43373047 65.03258301 -198.48046875 64.4375 C-197.58376465 63.87804687 -196.68706055 63.31859375 -195.76318359 62.7421875 C-193.80981582 61.51058895 -191.86565706 60.26432695 -189.92822266 59.0078125 C-188.93741699 58.36585938 -187.94661133 57.72390625 -186.92578125 57.0625 C-186.02899658 56.47597656 -185.13221191 55.88945312 -184.20825195 55.28515625 C-182 54 -182 54 -180 54 C-180 53.34 -180 52.68 -180 52 C-165.41714296 43.40753353 -151.17347371 36.24789947 -134 35 C-133.33742188 34.94585937 -132.67484375 34.89171875 -131.9921875 34.8359375 C-122.3917196 34.43439702 -112.45571621 36.93667564 -103.3125 39.6875 C-84.2319691 44.62076996 -66.60811235 39.95367717 -49.79443359 30.93408203 C-48.24202524 30.12598484 -46.64894331 29.39694556 -45.05078125 28.68359375 C-42.74074037 27.61599031 -40.87705803 26.71944247 -39 25 C-38.30531419 22.89015147 -38.30531419 22.89015147 -38.0625 20.5625 C-37.65414687 17.70872179 -37.45058367 16.41624357 -35.30859375 14.4375 C-32.59916953 12.8237651 -29.81240023 11.42773204 -27 10 C-25.54566339 9.14536878 -24.09682709 8.28133785 -22.65234375 7.41015625 C-21.0810083 6.48129846 -19.50939183 5.55291592 -17.9375 4.625 C-17.19435547 4.17133057 -16.45121094 3.71766113 -15.68554688 3.25024414 C-10.42575011 0.23349395 -6.06568354 -1.01813319 0 0 Z " fill="#FECDBF" transform="translate(430,228)"/>
<path d="M0 0 C8.36540781 3.3938897 13.3574513 10.60444237 17.21484375 18.48046875 C18.25984872 20.96087678 19.1583449 23.4437173 20 26 C20.28746094 26.85207031 20.57492188 27.70414063 20.87109375 28.58203125 C23.14613353 36.01673062 23.61628569 43.24897089 24 51 C28.62 51 33.24 51 38 51 C38.061875 49.040625 38.12375 47.08125 38.1875 45.0625 C39.25002223 30.66750704 43.54984414 14.22830168 54.75 4.375 C60.84481331 -0.32427195 65.36715881 -0.78855843 73 0 C77.79048623 2.05306553 80.25989612 4.92959105 82.296875 9.625 C85.444233 20.2560759 81.66848999 30.43839122 77 40 C75.25919615 42.98358245 73.35020963 45.47767906 71 48 C70.48953125 48.59941406 69.9790625 49.19882813 69.453125 49.81640625 C64.81981293 54.92408123 59.25588195 58.16773504 53 61 C52.34 61 51.68 61 51 61 C51 81.46 51 101.92 51 123 C58.26 123 65.52 123 73 123 C73.34032847 142.22855839 73.34032847 142.22855839 68.625 147.8125 C64.7959013 151.00341558 62.26105843 152.27238407 57.25 152.125 C56.45078125 152.10695312 55.6515625 152.08890625 54.828125 152.0703125 C54.22484375 152.04710937 53.6215625 152.02390625 53 152 C53.0314209 152.86951294 53.0314209 152.86951294 53.06347656 153.7565918 C53.14696807 156.40004924 53.19876153 159.0432288 53.25 161.6875 C53.28351563 162.59951172 53.31703125 163.51152344 53.3515625 164.45117188 C53.41237952 168.63234205 53.38365844 171.29388577 51.359375 175.01953125 C45.41824112 180.00654263 38.44232261 179.33487666 31.0625 179.3125 C30.00353516 179.32861328 28.94457031 179.34472656 27.85351562 179.36132812 C21.81062385 179.36509786 17.25451757 179.09953567 12 176 C9.30007322 173.06452243 8.63084363 171.19613115 8.70703125 167.234375 C8.71669922 166.34492188 8.72636719 165.45546875 8.73632812 164.5390625 C8.76146484 163.61867187 8.78660156 162.69828125 8.8125 161.75 C8.83280273 160.34621094 8.83280273 160.34621094 8.85351562 158.9140625 C8.88880046 156.60878673 8.93809719 154.3046894 9 152 C8.39526855 152.01957764 7.79053711 152.03915527 7.16748047 152.05932617 C5.96696045 152.08216675 5.96696045 152.08216675 4.7421875 152.10546875 C3.95183105 152.12504639 3.16147461 152.14462402 2.34716797 152.16479492 C-1.65614168 151.88372211 -3.78106686 150.38201053 -7 148 C-11.19033773 142.55256095 -11.14443914 136.82602081 -11.0625 130.1875 C-11.0315625 126.6296875 -11.0315625 126.6296875 -11 123 C-3.74 123 3.52 123 11 123 C11 102.54 11 82.08 11 61 C9.02 60.34 7.04 59.68 5 59 C-6.28519723 52.9114228 -13.01884134 44.68477406 -18 33 C-18.34160156 32.22527344 -18.68320313 31.45054688 -19.03515625 30.65234375 C-21.6450754 23.96366722 -22.30861285 16.54687516 -20.30859375 9.59765625 C-16.3507288 0.70488019 -9.25565923 -1.64773906 0 0 Z " fill="#FF8949" transform="translate(225,71)"/>
<path d="M0 0 C3.5623603 1.62916316 6.15710231 4.32540185 9 7 C10.40958984 8.29164063 10.40958984 8.29164063 11.84765625 9.609375 C34.39277731 30.84040402 51.77140104 62.97142477 53.14526367 94.31396484 C53.16990795 98.00106725 53.185649 101.68780931 53.1875 105.375 C53.19974609 106.65117187 53.21199219 107.92734375 53.22460938 109.2421875 C53.2513764 126.5158424 53.2513764 126.5158424 48.46875 131.79296875 C44.47708073 134.61596058 40.00385636 136.46682947 35.5 138.3125 C34.25669922 138.85100586 34.25669922 138.85100586 32.98828125 139.40039062 C24.57145457 142.91297728 24.57145457 142.91297728 20 142 C17.1875 140.3203125 17.1875 140.3203125 15 137 C14.20855309 132.64236809 14.12475727 128.29526399 14 123.875 C13.40969503 111.96707101 11.78747781 101.28910921 8 90 C7.63003906 88.86175781 7.26007813 87.72351563 6.87890625 86.55078125 C-0.86494931 64.76616336 -14.30774909 47.69045254 -30.4375 31.4375 C-30.95803955 30.91220703 -31.4785791 30.38691406 -32.01489258 29.84570312 C-34.74772531 27.07888109 -34.74772531 27.07888109 -38 25 C-38.60893897 18.78882248 -38.60893897 18.78882248 -36.21484375 15.6875 C-31.85587911 11.64468174 -26.43401826 9.00914101 -21.25 6.1875 C-20.20328125 5.59001953 -19.1565625 4.99253906 -18.078125 4.37695312 C-12.04980388 1.08021501 -6.95009211 -1.44770548 0 0 Z " fill="#FCC62D" transform="translate(430,228)"/>
<path d="M0 0 C4.29813284 1.69602194 8.24180252 3.89956954 12.25 6.1875 C13.3121875 6.76564453 14.374375 7.34378906 15.46875 7.93945312 C28.12790408 14.97673413 28.12790408 14.97673413 29.9375 21.25 C28.41704231 27.33183076 23.68424906 30.09436607 19 34 C0.78850448 50.64603745 -12.49192336 72.15551493 -19 96 C-19.29261719 96.95519531 -19.58523437 97.91039062 -19.88671875 98.89453125 C-22.32141647 107.76633221 -22.7296034 116.82401325 -23.26635742 125.97583008 C-23.36847534 127.61201294 -23.36847534 127.61201294 -23.47265625 129.28125 C-23.55398804 130.75174805 -23.55398804 130.75174805 -23.63696289 132.25195312 C-24.02252992 135.17054257 -24.66486444 137.37772487 -26 140 C-29.74133909 142.49422606 -31.2373171 142.12162253 -35.51708984 141.52978516 C-39.70284716 140.63665896 -43.44395931 138.98325899 -47.3125 137.1875 C-48.09689453 136.84396484 -48.88128906 136.50042969 -49.68945312 136.14648438 C-57.52625599 132.59761782 -57.52625599 132.59761782 -60 129 C-68.8178227 105.52039855 -60.64882858 74.08258167 -51 52 C-43.89813633 36.41360893 -33.84358744 23.26266823 -22 11 C-21.32710937 10.28714844 -20.65421875 9.57429687 -19.9609375 8.83984375 C-14.00688181 2.66283884 -9.05467299 -1.49416224 0 0 Z " fill="#5AADFE" transform="translate(91,228)"/>
<path d="M0 0 C2.79599571 1.25846271 5.19928735 2.65053461 7.71240234 4.40209961 C8.88416016 5.2103418 8.88416016 5.2103418 10.07958984 6.03491211 C10.94970703 6.64979492 10.94970703 6.64979492 11.83740234 7.27709961 C8.61988199 9.92329464 5.37626708 12.29599957 1.83740234 14.49194336 C0.3983252 15.38804321 0.3983252 15.38804321 -1.06982422 16.30224609 C-2.60074707 17.24886108 -2.60074707 17.24886108 -4.16259766 18.21459961 C-5.22188477 18.87339111 -6.28117187 19.53218262 -7.37255859 20.2109375 C-13.48787565 24.01135262 -19.61599015 27.7909161 -25.74536133 31.56860352 C-29.89130517 34.12713472 -34.03071847 36.69591694 -38.16259766 39.27709961 C-38.83403809 39.69636719 -39.50547852 40.11563477 -40.19726562 40.54760742 C-41.92254463 41.63284174 -43.63685362 42.73546374 -45.35009766 43.83959961 C-46.25115234 44.41838867 -47.15220703 44.99717773 -48.08056641 45.59350586 C-50.92341188 47.89231711 -51.92881385 49.80643635 -52.49853516 53.39038086 C-52.59460942 58.79936178 -51.98540045 63.19130302 -48.16259766 67.27709961 C-39.96147562 73.74058423 -32.64415151 76.68748849 -22.16259766 76.27709961 C-10.61872343 73.90488173 -0.02305987 68.64048316 10.52416992 63.55541992 C26.392586 55.96560054 43.60733767 52.55973467 60.77490234 58.40209961 C69.78183751 62.11870725 78.13259534 67.47894794 86.46240234 72.48022461 C92.826502 76.29789968 99.2862213 79.92639849 105.77490234 83.52709961 C115.54632648 88.9715129 125.27464092 94.47233566 134.83740234 100.27709961 C135.78099609 100.84944336 136.72458984 101.42178711 137.69677734 102.01147461 C143.53992634 105.71595469 148.08212356 109.75587209 150.83740234 116.27709961 C151.81727643 122.9767038 150.80702338 128.72832275 146.83740234 134.27709961 C146.17740234 134.60709961 145.51740234 134.93709961 144.83740234 135.27709961 C144.79744141 134.64803711 144.75748047 134.01897461 144.71630859 133.37084961 C143.88129709 126.52581704 141.71332661 123.65663556 136.5324707 119.29370117 C131.90397709 115.83040221 126.92666362 113.12321049 121.83740234 110.40209961 C119.59575095 109.17563399 117.35486596 107.94776656 115.11474609 106.71850586 C114.03306152 106.12827637 112.95137695 105.53804688 111.83691406 104.92993164 C107.98040661 102.80486608 104.18242 100.59300425 100.39990234 98.33959961 C99.07592116 97.55534425 97.75169287 96.77150593 96.42724609 95.98803711 C95.72067871 95.57005859 95.01411133 95.15208008 94.28613281 94.72143555 C89.59543068 91.95471632 84.89549594 89.20408086 80.18673706 86.4682312 C78.51675681 85.49623608 76.84999565 84.51871677 75.18334961 83.54101562 C59.66179197 74.34887859 59.66179197 74.34887859 42.27490234 70.90209961 C41.18048828 70.87374023 40.08607422 70.84538086 38.95849609 70.81616211 C28.32766096 71.50540194 18.36656453 76.69549411 8.96240234 81.27709961 C-6.46428334 88.5539828 -22.70336603 95.36137874 -39.91259766 89.71459961 C-51.45144298 84.81101898 -61.82421117 77.79226866 -66.66259766 65.83959961 C-69.11533172 57.98866066 -69.36313748 50.98639693 -65.52026367 43.56738281 C-61.33118812 36.50071896 -55.7004589 31.84839542 -48.72509766 27.71459961 C-47.04919999 26.68874811 -45.3734249 25.66269634 -43.69775391 24.63647461 C-42.36381592 23.82919922 -42.36381592 23.82919922 -41.00292969 23.00561523 C-35.85859911 19.87497569 -30.76533095 16.66240792 -25.66259766 13.46459961 C-19.87850181 9.85686813 -19.87850181 9.85686813 -16.99072266 8.07543945 C-15.03321271 6.83070376 -13.10731231 5.53536383 -11.20947266 4.20141602 C-10.25556641 3.54189941 -9.30166016 2.88238281 -8.31884766 2.20288086 C-7.04750977 1.29082886 -7.04750977 1.29082886 -5.75048828 0.36035156 C-3.16259766 -0.72290039 -3.16259766 -0.72290039 0 0 Z " fill="#EA806F" transform="translate(238.16259765625,273.722900390625)"/>
<path d="M0 0 C27.72 0 55.44 0 84 0 C84 19.63157895 84 19.63157895 79.625 24.8125 C75.7959013 28.00341558 73.26105843 29.27238407 68.25 29.125 C67.45078125 29.10695312 66.6515625 29.08890625 65.828125 29.0703125 C65.22484375 29.04710937 64.6215625 29.02390625 64 29 C64.0314209 29.86951294 64.0314209 29.86951294 64.06347656 30.7565918 C64.14696807 33.40004924 64.19876153 36.0432288 64.25 38.6875 C64.28351563 39.59951172 64.31703125 40.51152344 64.3515625 41.45117188 C64.41237952 45.63234205 64.38365844 48.29388577 62.359375 52.01953125 C56.41824112 57.00654263 49.44232261 56.33487666 42.0625 56.3125 C41.00353516 56.32861328 39.94457031 56.34472656 38.85351562 56.36132812 C32.81062385 56.36509786 28.25451757 56.09953567 23 53 C20.30007322 50.06452243 19.63084363 48.19613115 19.70703125 44.234375 C19.71669922 43.34492188 19.72636719 42.45546875 19.73632812 41.5390625 C19.76146484 40.61867187 19.78660156 39.69828125 19.8125 38.75 C19.83280273 37.34621094 19.83280273 37.34621094 19.85351562 35.9140625 C19.88880046 33.60878673 19.93809719 31.3046894 20 29 C19.39526855 29.01957764 18.79053711 29.03915527 18.16748047 29.05932617 C17.36713379 29.07455322 16.56678711 29.08978027 15.7421875 29.10546875 C14.95183105 29.12504639 14.16147461 29.14462402 13.34716797 29.16479492 C9.34385832 28.88372211 7.21893314 27.38201053 4 25 C-1.70633781 17.58176084 0 9.21187438 0 0 Z " fill="#7885BE" transform="translate(214,194)"/>
<path d="M0 0 C18.10684165 0.08705212 35.55630321 10.62145345 48 23 C48.62519531 23.59039062 49.25039063 24.18078125 49.89453125 24.7890625 C53.94545258 28.94057105 56.61728397 33.63123232 59.25 38.75 C59.5795166 39.38107666 59.9090332 40.01215332 60.24853516 40.66235352 C65.2122008 50.78645415 66.53994195 61.07902598 66.4375 72.25 C66.42847656 73.43513184 66.41945313 74.62026367 66.41015625 75.84130859 C65.95936867 98.74695233 56.52676739 115.97882222 43.41796875 134.1953125 C32.41629396 149.52396761 26.94402777 163.20773156 25 182 C19.72 182 14.44 182 9 182 C7.93075344 158.38153144 15.65103409 143.44927141 29.1875 124.75 C43.68640783 104.6560547 51.74353159 82.21950218 48.5 57.1328125 C46.22693198 44.5017868 41.91395389 34.10182883 34 24 C33.45472656 23.28972656 32.90945313 22.57945313 32.34765625 21.84765625 C25.24655244 13.1425384 15.95435196 8.25362438 6.00390625 3.48046875 C3 2 3 2 0 0 Z " fill="#FCDB35" transform="translate(272,12)"/>
<path d="M0 0 C3.91441027 1.30480342 6.53969951 2.62847711 9 6 C9.875 9.1875 9.875 9.1875 9 13 C5.9824568 16.36059022 2.4633076 19.11236283 -1 22 C-19.21149552 38.64603745 -32.49192336 60.15551493 -39 84 C-39.29261719 84.95519531 -39.58523437 85.91039062 -39.88671875 86.89453125 C-42.32141647 95.76633221 -42.7296034 104.82401325 -43.26635742 113.97583008 C-43.33443604 115.06661865 -43.40251465 116.15740723 -43.47265625 117.28125 C-43.52687744 118.26158203 -43.58109863 119.24191406 -43.63696289 120.25195312 C-44.02252992 123.17054257 -44.66486444 125.37772487 -46 128 C-49.31264204 130.20842803 -49.83451396 130.19725756 -53.5625 129.6875 C-54.34753906 129.58824219 -55.13257813 129.48898437 -55.94140625 129.38671875 C-58 129 -58 129 -60 128 C-59.67902344 127.33484375 -59.35804687 126.6696875 -59.02734375 125.984375 C-57.78795942 122.38403421 -57.66728062 119.01304707 -57.5625 115.25 C-57.16471721 106.31585668 -55.83899314 97.74292269 -54 89 C-53.86223145 88.3311377 -53.72446289 87.66227539 -53.58251953 86.97314453 C-46.95387251 55.5771135 -29.47269667 30.84302348 -6.6965332 8.82080078 C-6.11734131 8.25345215 -5.53814941 7.68610352 -4.94140625 7.1015625 C-4.42263916 6.59963379 -3.90387207 6.09770508 -3.36938477 5.58056641 C-1.85887899 3.83711581 -0.94680424 2.09526106 0 0 Z " fill="#2C92F8" transform="translate(111,240)"/>
<path d="M0 0 C0.87390032 1.36889148 1.74691279 2.73835417 2.61669922 4.10986328 C5.58150298 8.16095942 9.45497921 11.46770562 13.0625 14.9375 C21.00512244 22.74727003 28.03109634 30.58990451 34 40 C34.3933252 40.61875 34.78665039 41.2375 35.19189453 41.875 C48.81285308 63.74921726 54.92659826 86.89973775 56.9621582 112.35083008 C57.12397583 114.30218872 57.12397583 114.30218872 57.2890625 116.29296875 C57.42368896 118.04903442 57.42368896 118.04903442 57.56103516 119.84057617 C57.98188598 122.86962542 58.72912439 125.23258232 60 128 C56.1783948 129.79840245 53.2177461 130.61508797 49 130 C46.4601818 128.34836227 45.44238163 127.57582248 44 125 C43.19018276 120.64684299 43.12471648 116.29381867 43 111.875 C42.40969503 99.96707101 40.78747781 89.28910921 37 78 C36.63003906 76.86175781 36.26007813 75.72351563 35.87890625 74.55078125 C28.13505069 52.76616336 14.69225091 35.69045254 -1.4375 19.4375 C-1.95803955 18.91220703 -2.4785791 18.38691406 -3.01489258 17.84570312 C-5.74772531 15.07888109 -5.74772531 15.07888109 -9 13 C-9.3125 9.8125 -9.3125 9.8125 -9 6 C-4.04347826 0 -4.04347826 0 0 0 Z " fill="#F9AC02" transform="translate(401,240)"/>
<path d="M0 0 C1.69921875 0.94921875 1.69921875 0.94921875 3.69921875 3.94921875 C-5.12883942 19.45451167 -14.00583528 34.92748848 -23.015625 50.328125 C-27.80690279 58.51801583 -32.55361207 66.73370964 -37.30078125 74.94921875 C-44.14898513 73.00761905 -47.1799414 69.61248758 -50.67578125 63.57421875 C-53.11513359 53.32893891 -49.2536117 46.27217882 -44.0234375 37.7265625 C-43.45496094 36.81003906 -42.88648438 35.89351563 -42.30078125 34.94921875 C-41.04987874 32.92894395 -39.7999344 30.90807566 -38.55078125 28.88671875 C-37.8753125 27.80132812 -37.19984375 26.7159375 -36.50390625 25.59765625 C-34.88127995 22.95168578 -33.35070179 20.26637762 -31.84765625 17.55078125 C-24.36444274 4.13861552 -16.82567611 -6.24764791 0 0 Z " fill="#FECDBF" transform="translate(203.30078125,402.05078125)"/>
<path d="M0 0 C5.61 0 11.22 0 17 0 C17.34032847 19.22855839 17.34032847 19.22855839 12.625 24.8125 C8.7959013 28.00341558 6.26105843 29.27238407 1.25 29.125 C0.45078125 29.10695312 -0.3484375 29.08890625 -1.171875 29.0703125 C-1.77515625 29.04710937 -2.3784375 29.02390625 -3 29 C-2.97905273 29.57967529 -2.95810547 30.15935059 -2.93652344 30.7565918 C-2.85303193 33.40004924 -2.80123847 36.0432288 -2.75 38.6875 C-2.69972656 40.05551758 -2.69972656 40.05551758 -2.6484375 41.45117188 C-2.58762048 45.63234205 -2.61634156 48.29388577 -4.640625 52.01953125 C-10.58175888 57.00654263 -17.55767739 56.33487666 -24.9375 56.3125 C-25.99646484 56.32861328 -27.05542969 56.34472656 -28.14648438 56.36132812 C-34.18937615 56.36509786 -38.74548243 56.09953567 -44 53 C-46.69992678 50.06452243 -47.36915637 48.19613115 -47.29296875 44.234375 C-47.28330078 43.34492188 -47.27363281 42.45546875 -47.26367188 41.5390625 C-47.23853516 40.61867187 -47.21339844 39.69828125 -47.1875 38.75 C-47.16719727 37.34621094 -47.16719727 37.34621094 -47.14648438 35.9140625 C-47.11119954 33.60878673 -47.06190281 31.3046894 -47 29 C-45.97116699 28.98541748 -44.94233398 28.97083496 -43.88232422 28.95581055 C-40.04653053 28.89761343 -36.21131078 28.82038297 -32.37597656 28.73754883 C-30.71949616 28.70439982 -29.06290554 28.67633691 -27.40625 28.65356445 C-25.01775366 28.61983268 -22.63025829 28.56751041 -20.2421875 28.51171875 C-19.14026566 28.50213387 -19.14026566 28.50213387 -18.01608276 28.49235535 C-13.29803136 28.3589933 -9.99843423 27.51749141 -6 25 C-1.64224959 19.34670217 -0.80816066 14.76082845 -0.4375 7.8125 C-0.293125 5.234375 -0.14875 2.65625 0 0 Z " fill="#5C679D" transform="translate(281,194)"/>
<path d="M0 0 C3.6875 1.3125 3.6875 1.3125 6 3 C7 6 7 6 5.97460938 8.31469727 C5.43642578 9.22276123 4.89824219 10.1308252 4.34375 11.06640625 C3.74046875 12.09693115 3.1371875 13.12745605 2.515625 14.18920898 C1.85046875 15.30239502 1.1853125 16.41558105 0.5 17.5625 C-0.18333465 18.72212366 -0.86561186 19.88237104 -1.546875 21.04321289 C-2.97135901 23.46896013 -4.40044666 25.89191409 -5.83203125 28.31347656 C-7.9467257 31.89912898 -10.02564464 35.50450759 -12.09375 39.1171875 C-12.74923828 40.2611499 -13.40472656 41.4051123 -14.08007812 42.58374023 C-15.32435994 44.75727778 -16.56789646 46.93124223 -17.81054688 49.10571289 C-21.69366741 55.85842487 -25.76233968 62.46398857 -30 69 C-34.87745412 68.24962244 -36.74529257 66.7686086 -40 63 C-43.67022087 57.62574802 -44.40039748 53.49978584 -44 47 C-42.95174139 44.48646438 -41.91311656 42.33171298 -40.5625 40 C-40.20559082 39.35844971 -39.84868164 38.71689941 -39.48095703 38.0559082 C-36.14628661 32.11498669 -32.65065813 26.26322931 -29.09375 20.453125 C-27.79872035 18.33589127 -26.55868996 16.21313588 -25.34375 14.046875 C-18.99734911 2.77188619 -12.93393597 -0.96119211 0 0 Z " fill="#FECDBF" transform="translate(233,420)"/>
<path d="M0 0 C1.9140625 1.10546875 1.9140625 1.10546875 4.7890625 3.10546875 C4.20839647 6.91107109 3.12484516 9.63204575 1.15625 12.9296875 C0.32818848 14.33118042 0.32818848 14.33118042 -0.51660156 15.76098633 C-1.11698242 16.76154053 -1.71736328 17.76209473 -2.3359375 18.79296875 C-3.60495888 20.93572894 -4.87315774 23.07897642 -6.140625 25.22265625 C-7.13594238 26.90053223 -7.13594238 26.90053223 -8.15136719 28.61230469 C-11.64214283 34.51596302 -15.04575137 40.47039305 -18.4609375 46.41796875 C-19.71517247 48.60212174 -20.97030769 50.78575814 -22.2265625 52.96875 C-22.75540039 53.88954346 -23.28423828 54.81033691 -23.82910156 55.7590332 C-24.89918561 57.57609642 -26.04121714 59.35088821 -27.2109375 61.10546875 C-33.11390329 59.84054751 -35.93843437 56.94308207 -39.2109375 52.10546875 C-41.55460558 46.99201111 -42.11892709 42.21120588 -40.5234375 36.75390625 C-38.60927672 31.60162349 -36.1450645 27.20708364 -32.9765625 22.734375 C-31.57260737 20.64397279 -30.30887422 18.57002481 -29.0703125 16.3828125 C-28.69092529 15.71983154 -28.31153809 15.05685059 -27.9206543 14.3737793 C-27.17562807 13.06304685 -26.44199055 11.74575103 -25.72192383 10.42114258 C-20.49786589 1.32405562 -10.43090003 -4.22027581 0 0 Z " fill="#FECDBF" transform="translate(168.2109375,381.89453125)"/>
<path d="M0 0 C2.9375 1.75 2.9375 1.75 3.7734375 3.56396484 C3.99827354 6.55977129 3.05048323 7.91776177 1.5 10.4765625 C0.9416748 11.41395264 0.38334961 12.35134277 -0.19189453 13.31713867 C-0.80919434 14.32623291 -1.42649414 15.33532715 -2.0625 16.375 C-3.35265385 18.52929471 -4.6416754 20.68426784 -5.9296875 22.83984375 C-6.60612305 23.96503418 -7.28255859 25.09022461 -7.97949219 26.24951172 C-10.09579005 29.78839201 -12.15198259 33.36001548 -14.1953125 36.94140625 C-14.53101257 37.52895691 -14.86671265 38.11650757 -15.21258545 38.72186279 C-16.84071001 41.57308075 -18.46503907 44.42640562 -20.0859375 47.28173828 C-20.97539062 48.83417236 -20.97539062 48.83417236 -21.8828125 50.41796875 C-22.40117676 51.32828857 -22.91954102 52.2386084 -23.45361328 53.17651367 C-25.14304387 55.87883353 -27.02665968 58.30108664 -29.0625 60.75 C-35.82842337 57.18639473 -39.09003975 54.00989399 -41.8125 46.75 C-41.895 46.09 -41.9775 45.43 -42.0625 44.75 C-42.206875 43.739375 -42.35125 42.72875 -42.5 41.6875 C-42.06406232 37.7640609 -41.34250713 36.07747336 -39.4453125 32.71875 C-38.90028076 31.7486499 -38.35524902 30.7785498 -37.79370117 29.77905273 C-37.22240479 28.77946533 -36.6511084 27.77987793 -36.0625 26.75 C-35.52407471 25.79617432 -34.98564941 24.84234863 -34.4309082 23.85961914 C-32.80599706 20.99933537 -31.15619876 18.15476336 -29.5 15.3125 C-28.94892578 14.34634766 -28.39785156 13.38019531 -27.83007812 12.38476562 C-21.44160401 1.44933484 -12.91276574 -4.88230606 0 0 Z " fill="#FECDBF" transform="translate(269.0625,440.25)"/>
<path d="M0 0 C4.67908972 3.87235011 6.34900564 8.36474435 7.39453125 14.203125 C7.81730233 19.82696361 6.19122265 22.86276635 2.90234375 27.3046875 C0.55017002 30.63733612 -1.40285873 34.12091547 -3.375 37.6875 C-3.7575293 38.37408691 -4.14005859 39.06067383 -4.53417969 39.76806641 C-5.31067193 41.16191229 -6.08622615 42.55628114 -6.86083984 43.95117188 C-9.85314268 49.33295614 -12.8943175 54.68259478 -16 60 C-16.76763672 61.35158203 -16.76763672 61.35158203 -17.55078125 62.73046875 C-20.74859636 68.01419021 -23.87553313 71.42605484 -30 73 C-33.36613175 73.28371682 -36.63328172 73.24836446 -40 73 C-40 68.14473506 -38.22876994 65.32574555 -35.875 61.25 C-35.43051514 60.46560547 -34.98603027 59.68121094 -34.52807617 58.87304688 C-29.67853699 50.35096881 -24.71570766 41.8929224 -19.7578125 33.43359375 C-17.08837192 28.87371291 -14.43920836 24.30275399 -11.8046875 19.72265625 C-11.45917343 19.12218475 -11.11365936 18.52171326 -10.75767517 17.90304565 C-9.07304309 14.97434438 -7.39052833 12.04445879 -5.71020508 9.11328125 C-5.10845459 8.0665625 -4.5067041 7.01984375 -3.88671875 5.94140625 C-3.08560669 4.54450562 -3.08560669 4.54450562 -2.26831055 3.11938477 C-1 1 -1 1 0 0 Z " fill="#FCB0A0" transform="translate(207,405)"/>
<path d="M0 0 C5.55207705 5.33681073 7.14899005 9.01340878 7.36328125 16.77734375 C6.27795861 23.41765107 2.18056129 29.36310517 -1.1875 35.0625 C-2.17656307 36.74433213 -3.16483818 38.42662789 -4.15234375 40.109375 C-4.63687012 40.93501953 -5.12139648 41.76066406 -5.62060547 42.61132812 C-6.86755108 44.77064066 -8.07185377 46.94530788 -9.25390625 49.140625 C-16.89052397 63.28054315 -16.89052397 63.28054315 -24.44921875 65.82421875 C-29.32361752 66.96813595 -33.06234716 66.98179745 -38 66 C-31.40171642 54.40557198 -24.73008778 42.8535783 -18.05990601 31.30041504 C-14.56304015 25.24360708 -11.06823261 19.18561219 -7.57351685 13.12756348 C-5.96705296 10.34281271 -4.36047494 7.5581278 -2.75390625 4.7734375 C-2.22095947 3.84966309 -1.6880127 2.92588867 -1.13891602 1.97412109 C-0.76307373 1.32266113 -0.38723145 0.67120117 0 0 Z " fill="#FCB0A0" transform="translate(240,424)"/>
<path d="M0 0 C4.87905391 4.6222616 7.2765753 7.62406898 7.54296875 14.41796875 C7.40551921 22.15626034 4.13352922 27.75071255 0.3125 34.3125 C-0.31333984 35.43978516 -0.93917969 36.56707031 -1.58398438 37.72851562 C-11.48265476 55.35955052 -11.48265476 55.35955052 -19 58 C-23.56903161 58.88320702 -27.54358046 59.48547318 -32 58 C-30.56765741 54.16595165 -28.79605406 50.70937982 -26.76171875 47.16015625 C-26.11211182 46.02441162 -25.46250488 44.88866699 -24.79321289 43.71850586 C-24.09142079 42.49977263 -23.38951412 41.28110536 -22.6875 40.0625 C-21.97047487 38.81201455 -21.25359801 37.56144406 -20.53686523 36.31079102 C-15.40938165 27.37889948 -10.19942672 18.49690925 -4.89916992 9.66625977 C-4.1466394 8.40640259 -4.1466394 8.40640259 -3.37890625 7.12109375 C-2.9413501 6.3933374 -2.50379395 5.66558105 -2.05297852 4.91577148 C-0.86135183 2.88377239 -0.86135183 2.88377239 0 0 Z " fill="#FCB0A0" transform="translate(273,443)"/>
<path d="M0 0 C3 1 3 1 5.1875 4.3125 C7.70075019 9.79948953 7.86084205 15.07147598 7 21 C5.26012339 25.37765321 2.90499748 29.22451602 0.375 33.1875 C-0.24246094 34.20263672 -0.85992187 35.21777344 -1.49609375 36.26367188 C-3.2948579 39.20039104 -5.13569687 42.10453111 -7 45 C-7.56348145 45.88123535 -8.12696289 46.7624707 -8.70751953 47.67041016 C-11.85367043 52.50610692 -14.07986875 55.81734437 -19.8515625 57.55859375 C-22.20986972 58.04311869 -24.34490442 58.09786905 -26.75 58.0625 C-27.54921875 58.05347656 -28.3484375 58.04445313 -29.171875 58.03515625 C-29.77515625 58.02355469 -30.3784375 58.01195312 -31 58 C-31 53.5508649 -30.22389755 52.1684442 -28.02734375 48.3984375 C-27.38152344 47.27985352 -26.73570312 46.16126953 -26.0703125 45.00878906 C-25.35952564 43.79743764 -24.64858465 42.58617664 -23.9375 41.375 C-23.21662845 40.13296223 -22.496586 38.89044291 -21.77734375 37.64746094 C-20.28283623 35.06742719 -18.78365829 32.49019476 -17.28076172 29.91503906 C-15.04001014 26.07323801 -12.81632644 22.22177381 -10.59765625 18.3671875 C-10.24984604 17.76300995 -9.90203583 17.1588324 -9.54368591 16.53634644 C-8.86179573 15.35181854 -8.17992578 14.167279 -7.49807739 12.98272705 C-5.00367895 8.65228967 -2.50142647 4.32638022 0 0 Z " fill="#FCB0A0" transform="translate(173,386)"/>
<path d="M0 0 C3.96 0 7.92 0 12 0 C12 19.14 12 38.28 12 58 C8.04 58 4.08 58 0 58 C0 38.86 0 19.72 0 0 Z " fill="#FFEA86" transform="translate(250,136)"/>
<path d="M0 0 C3.61869786 1.5545874 6.8692437 3.57678216 10.1875 5.6875 C11.06341797 6.21794922 11.93933594 6.74839844 12.84179688 7.29492188 C23.56218484 13.91896751 23.56218484 13.91896751 26.3125 19.8125 C27.36609076 24.6973299 27.60334767 29.189957 26 34 C23.07603515 33.37671351 20.73631631 32.45046852 18.12890625 30.99609375 C17.39551025 30.58883057 16.66211426 30.18156738 15.90649414 29.76196289 C15.13297607 29.32489014 14.35945801 28.88781738 13.5625 28.4375 C12.76642334 27.99075928 11.97034668 27.54401855 11.15014648 27.08374023 C-9.23047729 15.57653595 -9.23047729 15.57653595 -12 12 C-12.75 5.25 -12.75 5.25 -10.5 1.5 C-6.98734848 -0.60759091 -3.94270123 -0.68615387 0 0 Z " fill="#EA806F" transform="translate(337,398)"/>
<path d="M0 0 C7.56161298 3.65166233 14.12467791 8.09329371 19 15 C19.93742541 17.81227622 20.13470844 19.58746844 20.125 22.5 C20.12886719 23.66015625 20.12886719 23.66015625 20.1328125 24.84375 C20 27 20 27 19 30 C13.30402954 28.89161744 8.4862157 25.51876058 3.5 22.6875 C2.45457031 22.10548828 1.40914063 21.52347656 0.33203125 20.92382812 C-0.67472656 20.35470703 -1.68148438 19.78558594 -2.71875 19.19921875 C-3.63591797 18.68190186 -4.55308594 18.16458496 -5.49804688 17.6315918 C-8.6831411 15.55450508 -11.28346418 13.43307164 -13 10 C-13.4375 7.1875 -13.4375 7.1875 -13 4 C-8.61865705 -1.02251509 -6.66524301 -1.5430108 0 0 Z " fill="#EA806F" transform="translate(318,432)"/>
<path d="M0 0 C5.61 0 11.22 0 17 0 C17.34032847 19.22855839 17.34032847 19.22855839 12.625 24.8125 C8.98820162 27.84316532 6.43417715 29.26334539 1.671875 29.1953125 C0.87265625 29.18886719 0.0734375 29.18242187 -0.75 29.17578125 C-1.575 29.15902344 -2.4 29.14226562 -3.25 29.125 C-4.09046875 29.11597656 -4.9309375 29.10695312 -5.796875 29.09765625 C-7.86470604 29.07415817 -9.93238995 29.03828908 -12 29 C-11.01 28.34 -10.02 27.68 -9 27 C-4.5992395 24.02948666 -2.55774788 21.00878667 -1 16 C-0.54901109 13.18613473 -0.40431623 10.4082088 -0.3125 7.5625 C-0.209375 5.066875 -0.10625 2.57125 0 0 Z " fill="#606A9B" transform="translate(281,194)"/>
<path d="M0 0 C3.22519073 1.6246542 6.26023346 3.51116979 9.3125 5.4375 C10.13556641 5.94087891 10.95863281 6.44425781 11.80664062 6.96289062 C17.86048173 10.72096346 17.86048173 10.72096346 19 13 C19.375 16.375 19.375 16.375 19 20 C16.9375 22.5 16.9375 22.5 14 24 C7.7003371 23.79577153 3.41279597 21.32453075 -1.8125 18.125 C-2.9562207 17.45404297 -2.9562207 17.45404297 -4.12304688 16.76953125 C-9.72629786 13.4105532 -9.72629786 13.4105532 -12 10 C-12.36017958 6.61431194 -12.38185838 4.6727981 -10.6875 1.6875 C-7.30788639 -1.69211361 -4.32548905 -1.14981354 0 0 Z " fill="#FCDB34" transform="translate(354,139)"/>
<path d="M0 0 C2.34549674 3.51824511 2.57991403 4.85775694 2 9 C-1.70827472 13.35597722 -5.96706603 16.08619266 -10.875 18.875 C-11.55691406 19.29007813 -12.23882812 19.70515625 -12.94140625 20.1328125 C-17.65670294 22.82726775 -20.54586833 23.45078534 -26 22 C-27.9375 20.875 -27.9375 20.875 -29 19 C-29.4375 15.5625 -29.4375 15.5625 -29 12 C-25.86427211 8.11767024 -21.74090961 5.8117545 -17.5 3.3125 C-16.83613281 2.90966797 -16.17226562 2.50683594 -15.48828125 2.09179688 C-9.74056618 -1.33273995 -6.5144777 -2.83238161 0 0 Z " fill="#FCDB34" transform="translate(168,140)"/>
<path d="M0 0 C5.61 0 11.22 0 17 0 C17.1081697 3.23006734 17.18739234 6.45649754 17.25 9.6875 C17.30027344 11.05551758 17.30027344 11.05551758 17.3515625 12.45117188 C17.41237952 16.63234205 17.38365844 19.29388577 15.359375 23.01953125 C10.12000836 27.41747643 4.6259673 27.26824165 -1.875 27.125 C-3.050625 27.11146484 -3.050625 27.11146484 -4.25 27.09765625 C-6.16680055 27.07428063 -8.08344191 27.03841653 -10 27 C-8 25 -8 25 -5.5 23.625 C-2.75231809 21.83900676 -2.19071493 20.9697674 -1 18 C-0.64088781 15.88185683 -0.64088781 15.88185683 -0.5859375 13.671875 C-0.52792969 12.47304687 -0.52792969 12.47304687 -0.46875 11.25 C-0.4378125 10.425 -0.406875 9.6 -0.375 8.75 C-0.31699219 7.48929688 -0.31699219 7.48929688 -0.2578125 6.203125 C-0.16384164 4.13576618 -0.08084436 2.06791373 0 0 Z " fill="#495586" transform="translate(261,223)"/>
<path d="M0 0 C2 1 2 1 3 3 C3.88507443 7.90814 3.88507443 7.90814 3 11 C0.76667723 13.69043561 -1.99677829 15.25893704 -5 17 C-6.06089844 17.63550781 -7.12179687 18.27101563 -8.21484375 18.92578125 C-18.18957773 24.6272615 -18.18957773 24.6272615 -24 24 C-26.375 22.375 -26.375 22.375 -28 20 C-28.61405021 16.392455 -28.44916948 14.69417101 -26.453125 11.609375 C-23.38238675 8.34304832 -20.13917218 6.35979784 -16.25 4.1875 C-15.57195312 3.78080078 -14.89390625 3.37410156 -14.1953125 2.95507812 C-9.21175891 0.13643327 -5.71444107 -0.51331018 0 0 Z " fill="#FCDB34" transform="translate(370,12)"/>
<path d="M0 0 C3.15230699 1.25784123 5.94398651 2.9473684 8.8125 4.75 C9.56208984 5.1934375 10.31167969 5.636875 11.08398438 6.09375 C17.9539677 10.26853879 17.9539677 10.26853879 20 14 C20.5 17 20.5 17 20 20 C17.9375 22.4375 17.9375 22.4375 15 24 C8.97478893 23.75483112 4.81048023 21.60841745 -0.25 18.625 C-1.30960938 18.02558594 -1.30960938 18.02558594 -2.390625 17.4140625 C-5.64448392 15.54062858 -8.49647378 13.8468348 -11 11 C-11.71140218 7.54063253 -11.58495415 4.16990831 -10 1 C-6.74415778 -0.62792111 -3.52109919 -0.51331961 0 0 Z " fill="#FCDB34" transform="translate(150,12)"/>
<path d="M0 0 C1.14662109 -0.00064453 2.29324219 -0.00128906 3.47460938 -0.00195312 C4.66763672 0.01802734 5.86066406 0.03800781 7.08984375 0.05859375 C8.28673828 0.05150391 9.48363281 0.04441406 10.71679688 0.03710938 C19.50798877 0.1014231 19.50798877 0.1014231 21.84155273 1.87475586 C23.47433496 4.10726703 23.83051893 5.74054628 24.02734375 8.49609375 C23.28510401 11.39757638 22.83117999 12.9812358 20.27319336 14.61962891 C15.91347784 16.32105066 11.21234663 15.86536929 6.58984375 15.87109375 C5.55279297 15.89558594 4.51574219 15.92007813 3.44726562 15.9453125 C-4.12767365 15.97450302 -4.12767365 15.97450302 -8.16015625 13.69140625 C-9.97265625 11.49609375 -9.97265625 11.49609375 -10.53515625 7.99609375 C-9.50313091 1.57460277 -6.19019259 -0.01093254 0 0 Z " fill="#FBDB34" transform="translate(367.97265625,79.50390625)"/>
<path d="M0 0 C1.20205078 -0.02900391 2.40410156 -0.05800781 3.64257812 -0.08789062 C4.79822266 -0.09626953 5.95386719 -0.10464844 7.14453125 -0.11328125 C8.20647705 -0.12786377 9.26842285 -0.14244629 10.36254883 -0.1574707 C13.89588888 0.43035054 15.04950823 1.48483346 17.1875 4.3125 C17.75 7.8125 17.75 7.8125 17.1875 11.3125 C14.96302943 14.00679409 13.16705479 15.17601798 9.68530273 15.66113281 C6.65530554 15.77942176 3.65635322 15.75909193 0.625 15.6875 C-0.41591797 15.68621094 -1.45683594 15.68492188 -2.52929688 15.68359375 C-11.44331535 15.58040897 -11.44331535 15.58040897 -14.8125 13.3125 C-16.25 10 -16.25 10 -16.8125 6.3125 C-13.17245867 -1.66092387 -8.00505971 0.0637684 0 0 Z " fill="#FBDB34" transform="translate(136.8125,79.6875)"/>
<path d="M0 0 C5.07114941 2.85199418 9.05022318 5.94188228 11.125 11.5 C12.19776821 15.64187993 11.96876495 18.86073157 11 23 C6.07746443 22.4393251 2.51774139 20.21602868 -1.625 17.6875 C-2.29273438 17.29626953 -2.96046875 16.90503906 -3.6484375 16.50195312 C-10.04467423 12.64502238 -10.04467423 12.64502238 -12 9 C-11.93439072 5.260271 -11.76345433 2.9396361 -9.375 0 C-5.71030663 -1.54302879 -3.82606028 -1.1290014 0 0 Z " fill="#EA8170" transform="translate(297,462)"/>
<path d="M0 0 C1.32 0 2.64 0 4 0 C4.65036053 10.08058815 1.67556444 17.35164302 -4.4375 25.30859375 C-6.15477624 27.16754528 -7.88768192 28.6074032 -10 30 C-10.66 30 -11.32 30 -12 30 C-11.07040789 18.47305785 -8.40962879 8.40962879 0 0 Z " fill="#FFE684" transform="translate(290,85)"/>
<path d="M0 0 C2.80058504 0 4.49095365 0.5130861 6.52734375 2.4609375 C13.02205032 10.55866325 15.55566733 19.75813184 16 30 C8.8016537 26.64483859 4.30565449 20.38399469 1.25 13.1875 C-0.32260895 8.79269553 -0.28843978 4.6150364 0 0 Z " fill="#FFE684" transform="translate(218,85)"/>
</svg>
