<svg xmlns="http://www.w3.org/2000/svg" xmlns:v="https://svgstorm.com"
viewBox = "0 0 512 512"
width="512"
height="512">
<g fill="None" fill-opacity="0.0" stroke="#000000" stroke-opacity="0.01" stroke-width="0.3"><path d="
M 0.00 512.00 
L 512.00 512.00
L 512.00 0.00
L 0.00 0.00
L 0.00 512.00
M 291.00 51.00 
C 310.38 38.71 349.12 37.25 371.70 46.35 C 394.27 55.45 420.34 80.47 426.00 105.00
C 452.93 105.17 467.42 102.78 486.75 125.25 C 506.08 147.72 511.06 184.80 487.75 209.75 C 464.45 234.70 425.49 234.22 392.00 232.00
C 392.00 237.33 392.00 242.67 392.00 248.00
C 421.48 253.49 459.22 237.89 485.23 254.77 C 511.24 271.65 504.83 306.91 504.00 336.00 C 503.17 365.09 509.24 403.37 500.08 432.08 C 490.91 460.78 448.06 456.66 424.00 456.00
C 424.00 466.67 424.00 477.33 424.00 488.00
C 434.67 488.00 445.33 488.00 456.00 488.00
C 456.00 493.33 456.00 498.67 456.00 504.00
C 386.67 504.00 317.33 504.00 248.00 504.00
C 248.00 498.67 248.00 493.33 248.00 488.00
C 258.67 488.00 269.33 488.00 280.00 488.00
C 280.00 477.33 280.00 466.67 280.00 456.00
C 255.72 456.80 213.18 460.60 204.08 431.92 C 194.97 403.25 200.67 365.06 200.00 336.00 C 199.33 306.94 192.67 271.65 218.70 254.70 C 244.73 237.75 282.55 253.63 312.00 248.00
C 312.00 242.67 312.00 237.33 312.00 232.00
C 242.67 232.00 173.33 232.00 104.00 232.00
C 104.00 253.33 104.00 274.67 104.00 296.00
C 116.12 296.14 130.07 295.82 142.00 296.00 C 153.93 296.18 165.06 294.34 174.70 301.30 C 184.33 308.26 183.21 319.26 184.00 330.00 C 184.79 340.74 183.75 354.87 180.08 364.08 C 176.41 373.28 185.77 382.75 184.00 394.00 C 182.23 405.25 185.16 418.61 180.08 428.08 C 174.99 437.54 187.19 446.54 184.00 458.00 C 180.81 469.46 187.24 482.39 180.23 492.23 C 173.22 502.07 166.00 504.02 154.00 504.00 C 142.00 503.98 128.37 503.99 116.00 504.00 C 103.63 504.01 89.40 503.95 77.00 504.00 C 64.60 504.05 51.14 503.87 39.00 504.00 C 26.86 504.13 19.68 502.49 12.23 492.77 C 4.78 483.05 11.36 470.55 8.00 459.00 C 4.64 447.45 16.67 438.16 12.25 428.75 C 7.82 419.35 9.52 406.27 8.00 395.00 C 6.48 383.73 15.00 373.87 12.25 364.75 C 9.49 355.64 6.65 341.73 8.00 331.00 C 9.35 320.27 7.05 309.02 16.75 301.75 C 26.46 294.49 36.80 296.12 49.00 296.00 C 61.20 295.88 75.60 296.09 88.00 296.00
C 88.00 274.67 88.00 253.33 88.00 232.00
C 39.82 240.57 -1.64 185.31 10.33 143.33 C 22.30 101.34 48.97 88.59 87.00 89.00
C 91.86 72.41 103.56 52.34 121.92 36.92 C 140.27 21.49 152.71 16.13 174.25 10.24 C 195.78 4.35 221.91 8.94 240.25 14.80 C 258.59 20.66 273.10 31.05 291.00 51.00 Z"/>
</g>
<g fill="None" fill-opacity="0.0" stroke="#000000" stroke-opacity="1.00" stroke-width="0.3"><path d="
M 291.00 51.00 
C 273.10 31.05 258.59 20.66 240.25 14.80 C 221.91 8.94 195.78 4.35 174.25 10.24 C 152.71 16.13 140.27 21.49 121.92 36.92 C 103.56 52.34 91.86 72.41 87.00 89.00
C 48.97 88.59 22.30 101.34 10.33 143.33 C -1.64 185.31 39.82 240.57 88.00 232.00
C 88.00 253.33 88.00 274.67 88.00 296.00
C 75.60 296.09 61.20 295.88 49.00 296.00 C 36.80 296.12 26.46 294.49 16.75 301.75 C 7.05 309.02 9.35 320.27 8.00 331.00 C 6.65 341.73 9.49 355.64 12.25 364.75 C 15.00 373.87 6.48 383.73 8.00 395.00 C 9.52 406.27 7.82 419.35 12.25 428.75 C 16.67 438.16 4.64 447.45 8.00 459.00 C 11.36 470.55 4.78 483.05 12.23 492.77 C 19.68 502.49 26.86 504.13 39.00 504.00 C 51.14 503.87 64.60 504.05 77.00 504.00 C 89.40 503.95 103.63 504.01 116.00 504.00 C 128.37 503.99 142.00 503.98 154.00 504.00 C 166.00 504.02 173.22 502.07 180.23 492.23 C 187.24 482.39 180.81 469.46 184.00 458.00 C 187.19 446.54 174.99 437.54 180.08 428.08 C 185.16 418.61 182.23 405.25 184.00 394.00 C 185.77 382.75 176.41 373.28 180.08 364.08 C 183.75 354.87 184.79 340.74 184.00 330.00 C 183.21 319.26 184.33 308.26 174.70 301.30 C 165.06 294.34 153.93 296.18 142.00 296.00 C 130.07 295.82 116.12 296.14 104.00 296.00
C 104.00 274.67 104.00 253.33 104.00 232.00
C 173.33 232.00 242.67 232.00 312.00 232.00
C 312.00 237.33 312.00 242.67 312.00 248.00
C 282.55 253.63 244.73 237.75 218.70 254.70 C 192.67 271.65 199.33 306.94 200.00 336.00 C 200.67 365.06 194.97 403.25 204.08 431.92 C 213.18 460.60 255.72 456.80 280.00 456.00
C 280.00 466.67 280.00 477.33 280.00 488.00
C 269.33 488.00 258.67 488.00 248.00 488.00
C 248.00 493.33 248.00 498.67 248.00 504.00
C 317.33 504.00 386.67 504.00 456.00 504.00
C 456.00 498.67 456.00 493.33 456.00 488.00
C 445.33 488.00 434.67 488.00 424.00 488.00
C 424.00 477.33 424.00 466.67 424.00 456.00
C 448.06 456.66 490.91 460.78 500.08 432.08 C 509.24 403.37 503.17 365.09 504.00 336.00 C 504.83 306.91 511.24 271.65 485.23 254.77 C 459.22 237.89 421.48 253.49 392.00 248.00
C 392.00 242.67 392.00 237.33 392.00 232.00
C 425.49 234.22 464.45 234.70 487.75 209.75 C 511.06 184.80 506.08 147.72 486.75 125.25 C 467.42 102.78 452.93 105.17 426.00 105.00
C 420.34 80.47 394.27 55.45 371.70 46.35 C 349.12 37.25 310.38 38.71 291.00 51.00
M 392.00 216.00 
C 392.00 210.67 392.00 205.33 392.00 200.00
C 408.00 200.00 424.00 200.00 440.00 200.00
C 426.67 184.38 413.78 163.06 399.25 148.75 C 384.72 134.45 375.08 103.99 352.00 104.00 C 328.92 104.01 319.28 134.42 304.70 148.70 C 290.11 162.97 277.32 184.41 264.00 200.00
C 280.00 200.00 296.00 200.00 312.00 200.00
C 312.00 205.33 312.00 210.67 312.00 216.00
C 297.93 216.01 284.10 215.98 270.00 216.00 C 255.90 216.02 241.07 215.97 227.00 216.00 C 212.93 216.03 198.98 215.93 185.00 216.00 C 171.02 216.07 155.76 215.85 142.00 216.00 C 128.24 216.15 113.25 215.66 100.00 216.00 C 86.75 216.34 71.84 216.56 60.77 212.23 C 49.70 207.90 43.71 203.59 36.25 194.75 C 28.78 185.92 24.86 175.22 24.01 163.99 C 23.15 152.76 26.15 139.40 32.31 130.31 C 38.46 121.21 45.33 115.07 55.08 110.08 C 64.82 105.08 78.09 101.63 90.01 104.99 C 101.92 108.35 101.95 90.03 107.31 81.31 C 112.66 72.58 116.83 64.25 124.75 56.75 C 132.68 49.25 138.99 42.95 148.70 37.70 C 158.41 32.44 168.79 28.41 180.01 26.01 C 191.23 23.60 206.83 23.77 218.07 25.93 C 229.31 28.08 240.58 31.31 250.08 36.92 C 259.58 42.53 266.26 47.11 273.75 55.25 C 281.24 63.39 286.53 74.36 296.70 66.70 C 306.86 59.03 316.32 58.39 328.02 56.02 C 339.73 53.66 355.12 58.08 365.23 61.77 C 375.34 65.46 383.58 70.29 391.25 77.75 C 398.91 85.22 404.76 93.28 408.92 103.08 C 413.09 112.88 413.47 128.69 426.07 122.07 C 438.68 115.46 451.18 121.22 461.70 125.31 C 472.21 129.39 477.23 137.13 482.77 146.23 C 488.31 155.33 489.93 171.87 486.02 182.02 C 482.12 192.17 478.16 199.68 468.75 206.75 C 459.34 213.82 447.68 216.40 435.00 216.00 C 422.32 215.60 405.10 216.30 392.00 216.00
M 407.00 184.00 
C 396.67 184.00 386.33 184.00 376.00 184.00
C 376.00 217.67 376.00 251.33 376.00 285.00
C 373.18 276.88 359.86 280.00 352.00 280.00 C 344.14 280.00 330.81 276.89 328.00 285.00
C 328.00 251.33 328.00 217.67 328.00 184.00
C 317.67 184.00 307.33 184.00 297.00 184.00
C 303.16 173.67 311.10 168.08 317.75 157.75 C 324.40 147.42 332.56 142.53 338.92 130.92 C 345.28 119.30 358.13 118.44 364.75 130.25 C 371.38 142.06 378.86 146.83 385.77 157.23 C 392.68 167.63 400.67 173.57 407.00 184.00
M 295.00 296.00 
C 289.93 296.36 282.37 307.15 278.75 310.75 C 275.14 314.36 264.36 321.96 264.00 327.00
C 265.03 335.58 274.92 341.32 271.07 350.07 C 267.22 358.83 256.21 358.64 248.00 362.00
C 248.00 372.00 248.00 382.00 248.00 392.00
C 237.33 392.00 226.67 392.00 216.00 392.00
C 215.76 370.05 216.32 339.05 216.00 318.00 C 215.68 296.95 211.51 267.51 237.02 264.02 C 262.54 260.54 286.62 266.59 312.00 264.00
C 312.00 277.33 312.00 290.67 312.00 304.00
C 306.26 301.44 300.97 297.84 295.00 296.00
M 440.00 327.00 
C 439.64 321.93 428.85 314.37 425.25 310.75 C 421.64 307.14 414.04 296.36 409.00 296.00
C 402.92 296.73 397.83 302.28 392.00 304.00
C 392.00 290.67 392.00 277.33 392.00 264.00
C 417.42 266.16 440.32 261.12 466.00 264.00 C 491.68 266.88 488.68 295.50 488.00 317.00 C 487.32 338.50 488.51 369.62 488.00 392.00
C 477.33 392.00 466.67 392.00 456.00 392.00
C 456.00 382.00 456.00 372.00 456.00 362.00
C 448.07 358.43 437.40 359.21 433.22 350.78 C 429.05 342.34 438.15 335.34 440.00 327.00
M 368.00 314.00 
C 377.71 315.95 391.88 326.01 400.08 318.08 C 408.27 310.15 425.92 326.58 418.23 335.23 C 410.54 343.88 419.28 357.87 422.00 368.00
C 427.01 370.53 433.12 370.08 438.02 372.98 C 442.93 375.87 438.45 387.20 440.00 392.00
C 429.00 392.00 418.00 392.00 407.00 392.00
C 413.67 358.91 384.52 327.94 352.00 328.00 C 319.48 328.06 290.47 359.18 297.00 392.00
C 286.00 392.00 275.00 392.00 264.00 392.00
C 265.48 387.02 261.11 375.92 266.08 373.08 C 271.06 370.25 276.86 370.34 282.00 368.00
C 283.95 358.29 294.01 344.12 286.08 335.92 C 278.15 327.72 294.58 310.08 303.23 317.77 C 311.88 325.46 325.87 316.72 336.00 314.00
C 339.01 302.82 339.17 296.00 352.00 296.00 C 364.83 296.00 364.97 302.78 368.00 314.00
M 163.00 312.00 
C 174.42 315.47 164.49 330.95 168.00 341.00 C 171.51 351.05 164.26 362.99 152.00 360.00 C 139.74 357.01 128.73 361.11 117.00 360.00 C 105.27 358.89 93.25 359.97 82.00 360.00 C 70.75 360.03 57.49 358.82 47.00 360.00 C 36.51 361.18 21.33 359.95 24.00 348.00 C 26.67 336.05 18.92 323.26 25.77 314.77 C 32.62 306.29 48.03 313.75 58.00 312.00 C 67.97 310.25 82.30 312.25 93.00 312.00 C 103.70 311.75 117.20 310.92 128.00 312.00 C 138.80 313.08 152.69 308.87 163.00 312.00
M 391.00 392.00 
C 385.67 392.00 380.33 392.00 375.00 392.00
C 380.15 376.75 367.87 359.99 352.00 360.00 C 336.13 360.01 323.86 376.71 329.00 392.00
C 323.67 392.00 318.33 392.00 313.00 392.00
C 306.74 367.69 327.86 343.99 352.00 344.00 C 376.14 344.01 397.25 367.66 391.00 392.00
M 163.00 376.00 
C 174.42 379.47 164.49 394.95 168.00 405.00 C 171.51 415.05 164.26 426.99 152.00 424.00 C 139.74 421.01 128.73 425.11 117.00 424.00 C 105.27 422.89 93.25 423.97 82.00 424.00 C 70.75 424.03 57.49 422.82 47.00 424.00 C 36.51 425.18 21.33 423.96 24.00 412.00 C 26.67 400.04 18.92 387.26 25.77 378.77 C 32.62 370.29 48.03 377.75 58.00 376.00 C 67.97 374.25 82.30 376.25 93.00 376.00 C 103.70 375.75 117.20 374.92 128.00 376.00 C 138.80 377.08 152.69 372.87 163.00 376.00
M 356.00 376.00 
C 365.44 379.48 357.84 397.16 348.33 391.67 C 338.82 386.18 345.99 372.30 356.00 376.00
M 488.00 408.00 
C 491.97 441.16 461.63 441.07 436.00 440.00 C 410.37 438.93 378.23 440.00 352.00 440.00 C 325.77 440.00 293.63 438.93 268.00 440.00 C 242.37 441.07 212.04 441.17 216.00 408.00
C 306.67 408.00 397.33 408.00 488.00 408.00
M 163.00 440.00 
C 174.42 443.47 164.49 458.95 168.00 469.00 C 171.51 479.05 164.26 490.99 152.00 488.00 C 139.74 485.01 128.73 489.11 117.00 488.00 C 105.27 486.89 93.25 487.97 82.00 488.00 C 70.75 488.03 57.49 486.82 47.00 488.00 C 36.51 489.18 21.33 487.95 24.00 476.00 C 26.67 464.05 18.92 451.26 25.77 442.77 C 32.62 434.29 48.03 441.75 58.00 440.00 C 67.97 438.25 82.30 440.25 93.00 440.00 C 103.70 439.75 117.20 438.92 128.00 440.00 C 138.80 441.08 152.69 436.87 163.00 440.00
M 408.00 456.00 
C 408.00 466.67 408.00 477.33 408.00 488.00
C 370.67 488.00 333.33 488.00 296.00 488.00
C 296.00 477.33 296.00 466.67 296.00 456.00
C 333.33 456.00 370.67 456.00 408.00 456.00 Z"/>
</g>
<g fill="None" fill-opacity="0.0" stroke="#E5E8EC" stroke-opacity="1.00" stroke-width="0.3"><path d="
M 392.00 216.00 
C 405.10 216.30 422.32 215.60 435.00 216.00 C 447.68 216.40 459.34 213.82 468.75 206.75 C 478.16 199.68 482.12 192.17 486.02 182.02 C 489.93 171.87 488.31 155.33 482.77 146.23 C 477.23 137.13 472.21 129.39 461.70 125.31 C 451.18 121.22 438.68 115.46 426.07 122.07 C 413.47 128.69 413.09 112.88 408.92 103.08 C 404.76 93.28 398.91 85.22 391.25 77.75 C 383.58 70.29 375.34 65.46 365.23 61.77 C 355.12 58.08 339.73 53.66 328.02 56.02 C 316.32 58.39 306.86 59.03 296.70 66.70 C 286.53 74.36 281.24 63.39 273.75 55.25 C 266.26 47.11 259.58 42.53 250.08 36.92 C 240.58 31.31 229.31 28.08 218.07 25.93 C 206.83 23.77 191.23 23.60 180.01 26.01 C 168.79 28.41 158.41 32.44 148.70 37.70 C 138.99 42.95 132.68 49.25 124.75 56.75 C 116.83 64.25 112.66 72.58 107.31 81.31 C 101.95 90.03 101.92 108.35 90.01 104.99 C 78.09 101.63 64.82 105.08 55.08 110.08 C 45.33 115.07 38.46 121.21 32.31 130.31 C 26.15 139.40 23.15 152.76 24.01 163.99 C 24.86 175.22 28.78 185.92 36.25 194.75 C 43.71 203.59 49.70 207.90 60.77 212.23 C 71.84 216.56 86.75 216.34 100.00 216.00 C 113.25 215.66 128.24 216.15 142.00 216.00 C 155.76 215.85 171.02 216.07 185.00 216.00 C 198.98 215.93 212.93 216.03 227.00 216.00 C 241.07 215.97 255.90 216.02 270.00 216.00 C 284.10 215.98 297.93 216.01 312.00 216.00
C 312.00 210.67 312.00 205.33 312.00 200.00
C 296.00 200.00 280.00 200.00 264.00 200.00
C 277.32 184.41 290.11 162.97 304.70 148.70 C 319.28 134.42 328.92 104.01 352.00 104.00 C 375.08 103.99 384.72 134.45 399.25 148.75 C 413.78 163.06 426.67 184.38 440.00 200.00
C 424.00 200.00 408.00 200.00 392.00 200.00
C 392.00 205.33 392.00 210.67 392.00 216.00
M 235.00 47.00 
C 233.52 52.16 230.48 56.82 229.00 62.00
C 189.73 42.94 136.86 69.82 130.00 113.00
C 124.35 113.59 119.61 110.68 114.00 111.00
C 121.77 57.66 186.35 24.11 235.00 47.00
M 56.00 160.00 
C 55.82 180.58 78.60 187.26 96.00 184.00
C 96.00 189.33 96.00 194.67 96.00 200.00
C 69.57 205.21 39.35 188.77 40.00 160.00
C 45.33 160.00 50.67 160.00 56.00 160.00
M 128.00 184.00 
C 128.00 189.33 128.00 194.67 128.00 200.00
C 122.67 200.00 117.33 200.00 112.00 200.00
C 112.00 194.67 112.00 189.33 112.00 184.00
C 117.33 184.00 122.67 184.00 128.00 184.00 Z"/>
</g>
<g fill="None" fill-opacity="0.0" stroke="#000000" stroke-opacity="1.00" stroke-width="0.3"><path d="
M 235.00 47.00 
C 186.35 24.11 121.77 57.66 114.00 111.00
C 119.61 110.68 124.35 113.59 130.00 113.00
C 136.86 69.82 189.73 42.94 229.00 62.00
C 230.48 56.82 233.52 52.16 235.00 47.00 Z"/>
</g>
<g fill="None" fill-opacity="0.0" stroke="#FE816D" stroke-opacity="1.00" stroke-width="0.3"><path d="
M 407.00 184.00 
C 400.67 173.57 392.68 167.63 385.77 157.23 C 378.86 146.83 371.38 142.06 364.75 130.25 C 358.13 118.44 345.28 119.30 338.92 130.92 C 332.56 142.53 324.40 147.42 317.75 157.75 C 311.10 168.08 303.16 173.67 297.00 184.00
C 307.33 184.00 317.67 184.00 328.00 184.00
C 328.00 217.67 328.00 251.33 328.00 285.00
C 330.81 276.89 344.14 280.00 352.00 280.00 C 359.86 280.00 373.18 276.88 376.00 285.00
C 376.00 251.33 376.00 217.67 376.00 184.00
C 386.33 184.00 396.67 184.00 407.00 184.00 Z"/>
</g>
<g fill="None" fill-opacity="0.0" stroke="#000000" stroke-opacity="1.00" stroke-width="0.3"><path d="
M 56.00 160.00 
C 50.67 160.00 45.33 160.00 40.00 160.00
C 39.35 188.77 69.57 205.21 96.00 200.00
C 96.00 194.67 96.00 189.33 96.00 184.00
C 78.60 187.26 55.82 180.58 56.00 160.00 Z"/>
</g>
<g fill="None" fill-opacity="0.0" stroke="#000000" stroke-opacity="1.00" stroke-width="0.3"><path d="
M 128.00 184.00 
C 122.67 184.00 117.33 184.00 112.00 184.00
C 112.00 189.33 112.00 194.67 112.00 200.00
C 117.33 200.00 122.67 200.00 128.00 200.00
C 128.00 194.67 128.00 189.33 128.00 184.00 Z"/>
</g>
<g fill="None" fill-opacity="0.0" stroke="#68D5F3" stroke-opacity="1.00" stroke-width="0.3"><path d="
M 264.00 327.00 
C 263.44 322.30 274.22 314.32 278.25 310.25 C 282.28 306.17 290.41 295.45 295.00 296.00
C 300.97 297.84 306.26 301.44 312.00 304.00
C 312.00 290.67 312.00 277.33 312.00 264.00
C 286.62 266.59 262.54 260.54 237.02 264.02 C 211.51 267.51 215.68 296.95 216.00 318.00 C 216.32 339.05 215.76 370.05 216.00 392.00
C 226.67 392.00 237.33 392.00 248.00 392.00
C 248.00 382.00 248.00 372.00 248.00 362.00
C 256.21 358.64 267.22 358.83 271.07 350.07 C 274.92 341.32 265.03 335.58 264.00 327.00 Z"/>
</g>
<g fill="None" fill-opacity="0.0" stroke="#68D5F3" stroke-opacity="1.00" stroke-width="0.3"><path d="
M 409.00 296.00 
C 413.70 295.44 421.68 306.22 425.75 310.25 C 429.83 314.28 440.55 322.41 440.00 327.00
C 438.15 335.34 429.05 342.34 433.22 350.78 C 437.40 359.21 448.07 358.43 456.00 362.00
C 456.00 372.00 456.00 382.00 456.00 392.00
C 466.67 392.00 477.33 392.00 488.00 392.00
C 488.51 369.62 487.32 338.50 488.00 317.00 C 488.68 295.50 491.68 266.88 466.00 264.00 C 440.32 261.12 417.42 266.16 392.00 264.00
C 392.00 277.33 392.00 290.67 392.00 304.00
C 397.83 302.28 402.92 296.73 409.00 296.00 Z"/>
</g>
<g fill="None" fill-opacity="0.0" stroke="#2C5A66" stroke-opacity="1.00" stroke-width="0.3"><path d="
M 264.00 327.00 
C 264.36 321.96 275.14 314.36 278.75 310.75 C 282.37 307.15 289.93 296.36 295.00 296.00
C 290.41 295.45 282.28 306.17 278.25 310.25 C 274.22 314.32 263.44 322.30 264.00 327.00 Z"/>
</g>
<g fill="None" fill-opacity="0.0" stroke="#2B5763" stroke-opacity="1.00" stroke-width="0.3"><path d="
M 409.00 296.00 
C 414.04 296.36 421.64 307.14 425.25 310.75 C 428.85 314.37 439.64 321.93 440.00 327.00
C 440.55 322.41 429.83 314.28 425.75 310.25 C 421.68 306.22 413.70 295.44 409.00 296.00 Z"/>
</g>
<g fill="None" fill-opacity="0.0" stroke="#FCC428" stroke-opacity="1.00" stroke-width="0.3"><path d="
M 368.00 314.00 
C 364.97 302.78 364.83 296.00 352.00 296.00 C 339.17 296.00 339.01 302.82 336.00 314.00
C 325.87 316.72 311.88 325.46 303.23 317.77 C 294.58 310.08 278.15 327.72 286.08 335.92 C 294.01 344.12 283.95 358.29 282.00 368.00
C 276.86 370.34 271.06 370.25 266.08 373.08 C 261.11 375.92 265.48 387.02 264.00 392.00
C 275.00 392.00 286.00 392.00 297.00 392.00
C 290.47 359.18 319.48 328.06 352.00 328.00 C 384.52 327.94 413.67 358.91 407.00 392.00
C 418.00 392.00 429.00 392.00 440.00 392.00
C 438.45 387.20 442.93 375.87 438.02 372.98 C 433.12 370.08 427.01 370.53 422.00 368.00
C 419.28 357.87 410.54 343.88 418.23 335.23 C 425.92 326.58 408.27 310.15 400.08 318.08 C 391.88 326.01 377.71 315.95 368.00 314.00 Z"/>
</g>
<g fill="None" fill-opacity="0.0" stroke="#FBD66F" stroke-opacity="1.00" stroke-width="0.3"><path d="
M 163.00 312.00 
C 152.69 308.87 138.80 313.08 128.00 312.00 C 117.20 310.92 103.70 311.75 93.00 312.00 C 82.30 312.25 67.97 310.25 58.00 312.00 C 48.03 313.75 32.62 306.29 25.77 314.77 C 18.92 323.26 26.67 336.05 24.00 348.00 C 21.33 359.95 36.51 361.18 47.00 360.00 C 57.49 358.82 70.75 360.03 82.00 360.00 C 93.25 359.97 105.27 358.89 117.00 360.00 C 128.73 361.11 139.74 357.01 152.00 360.00 C 164.26 362.99 171.51 351.05 168.00 341.00 C 164.49 330.95 174.42 315.47 163.00 312.00
M 56.00 328.00 
C 56.00 333.33 56.00 338.67 56.00 344.00
C 50.67 344.00 45.33 344.00 40.00 344.00
C 40.00 338.67 40.00 333.33 40.00 328.00
C 45.33 328.00 50.67 328.00 56.00 328.00
M 88.00 328.00 
C 88.00 333.33 88.00 338.67 88.00 344.00
C 82.67 344.00 77.33 344.00 72.00 344.00
C 72.00 338.67 72.00 333.33 72.00 328.00
C 77.33 328.00 82.67 328.00 88.00 328.00
M 120.00 328.00 
C 120.00 333.33 120.00 338.67 120.00 344.00
C 114.67 344.00 109.33 344.00 104.00 344.00
C 104.00 338.67 104.00 333.33 104.00 328.00
C 109.33 328.00 114.67 328.00 120.00 328.00 Z"/>
</g>
<g fill="None" fill-opacity="0.0" stroke="#000000" stroke-opacity="1.00" stroke-width="0.3"><path d="
M 56.00 328.00 
C 50.67 328.00 45.33 328.00 40.00 328.00
C 40.00 333.33 40.00 338.67 40.00 344.00
C 45.33 344.00 50.67 344.00 56.00 344.00
C 56.00 338.67 56.00 333.33 56.00 328.00 Z"/>
</g>
<g fill="None" fill-opacity="0.0" stroke="#000000" stroke-opacity="1.00" stroke-width="0.3"><path d="
M 88.00 328.00 
C 82.67 328.00 77.33 328.00 72.00 328.00
C 72.00 333.33 72.00 338.67 72.00 344.00
C 77.33 344.00 82.67 344.00 88.00 344.00
C 88.00 338.67 88.00 333.33 88.00 328.00 Z"/>
</g>
<g fill="None" fill-opacity="0.0" stroke="#000000" stroke-opacity="1.00" stroke-width="0.3"><path d="
M 120.00 328.00 
C 114.67 328.00 109.33 328.00 104.00 328.00
C 104.00 333.33 104.00 338.67 104.00 344.00
C 109.33 344.00 114.67 344.00 120.00 344.00
C 120.00 338.67 120.00 333.33 120.00 328.00 Z"/>
</g>
<g fill="None" fill-opacity="0.0" stroke="#F7D36E" stroke-opacity="1.00" stroke-width="0.3"><path d="
M 391.00 392.00 
C 397.25 367.66 376.14 344.01 352.00 344.00 C 327.86 343.99 306.74 367.69 313.00 392.00
C 318.33 392.00 323.67 392.00 329.00 392.00
C 323.86 376.71 336.13 360.01 352.00 360.00 C 367.87 359.99 380.15 376.75 375.00 392.00
C 380.33 392.00 385.67 392.00 391.00 392.00 Z"/>
</g>
<g fill="None" fill-opacity="0.0" stroke="#FBD66F" stroke-opacity="1.00" stroke-width="0.3"><path d="
M 163.00 376.00 
C 152.69 372.87 138.80 377.08 128.00 376.00 C 117.20 374.92 103.70 375.75 93.00 376.00 C 82.30 376.25 67.97 374.25 58.00 376.00 C 48.03 377.75 32.62 370.29 25.77 378.77 C 18.92 387.26 26.67 400.04 24.00 412.00 C 21.33 423.96 36.51 425.18 47.00 424.00 C 57.49 422.82 70.75 424.03 82.00 424.00 C 93.25 423.97 105.27 422.89 117.00 424.00 C 128.73 425.11 139.74 421.01 152.00 424.00 C 164.26 426.99 171.51 415.05 168.00 405.00 C 164.49 394.95 174.42 379.47 163.00 376.00
M 88.00 392.00 
C 88.00 397.33 88.00 402.67 88.00 408.00
C 82.67 408.00 77.33 408.00 72.00 408.00
C 72.00 402.67 72.00 397.33 72.00 392.00
C 77.33 392.00 82.67 392.00 88.00 392.00
M 120.00 392.00 
C 120.00 397.33 120.00 402.67 120.00 408.00
C 114.67 408.00 109.33 408.00 104.00 408.00
C 104.00 402.67 104.00 397.33 104.00 392.00
C 109.33 392.00 114.67 392.00 120.00 392.00
M 152.00 392.00 
C 152.00 397.33 152.00 402.67 152.00 408.00
C 146.67 408.00 141.33 408.00 136.00 408.00
C 136.00 402.67 136.00 397.33 136.00 392.00
C 141.33 392.00 146.67 392.00 152.00 392.00 Z"/>
</g>
<g fill="None" fill-opacity="0.0" stroke="#000000" stroke-opacity="0.07" stroke-width="0.3"><path d="
M 356.00 376.00 
C 345.99 372.30 338.82 386.18 348.33 391.67 C 357.84 397.16 365.44 379.48 356.00 376.00 Z"/>
</g>
<g fill="None" fill-opacity="0.0" stroke="#000000" stroke-opacity="1.00" stroke-width="0.3"><path d="
M 88.00 392.00 
C 82.67 392.00 77.33 392.00 72.00 392.00
C 72.00 397.33 72.00 402.67 72.00 408.00
C 77.33 408.00 82.67 408.00 88.00 408.00
C 88.00 402.67 88.00 397.33 88.00 392.00 Z"/>
</g>
<g fill="None" fill-opacity="0.0" stroke="#000000" stroke-opacity="1.00" stroke-width="0.3"><path d="
M 120.00 392.00 
C 114.67 392.00 109.33 392.00 104.00 392.00
C 104.00 397.33 104.00 402.67 104.00 408.00
C 109.33 408.00 114.67 408.00 120.00 408.00
C 120.00 402.67 120.00 397.33 120.00 392.00 Z"/>
</g>
<g fill="None" fill-opacity="0.0" stroke="#000000" stroke-opacity="1.00" stroke-width="0.3"><path d="
M 152.00 392.00 
C 146.67 392.00 141.33 392.00 136.00 392.00
C 136.00 397.33 136.00 402.67 136.00 408.00
C 141.33 408.00 146.67 408.00 152.00 408.00
C 152.00 402.67 152.00 397.33 152.00 392.00 Z"/>
</g>
<g fill="None" fill-opacity="0.0" stroke="#CBD0D8" stroke-opacity="1.00" stroke-width="0.3"><path d="
M 488.00 408.00 
C 397.33 408.00 306.67 408.00 216.00 408.00
C 212.04 441.17 242.37 441.07 268.00 440.00 C 293.63 438.93 325.77 440.00 352.00 440.00 C 378.23 440.00 410.37 438.93 436.00 440.00 C 461.63 441.07 491.97 441.16 488.00 408.00 Z"/>
</g>
<g fill="None" fill-opacity="0.0" stroke="#FBD66F" stroke-opacity="1.00" stroke-width="0.3"><path d="
M 163.00 440.00 
C 152.69 436.87 138.80 441.08 128.00 440.00 C 117.20 438.92 103.70 439.75 93.00 440.00 C 82.30 440.25 67.97 438.25 58.00 440.00 C 48.03 441.75 32.62 434.29 25.77 442.77 C 18.92 451.26 26.67 464.05 24.00 476.00 C 21.33 487.95 36.51 489.18 47.00 488.00 C 57.49 486.82 70.75 488.03 82.00 488.00 C 93.25 487.97 105.27 486.89 117.00 488.00 C 128.73 489.11 139.74 485.01 152.00 488.00 C 164.26 490.99 171.51 479.05 168.00 469.00 C 164.49 458.95 174.42 443.47 163.00 440.00
M 56.00 456.00 
C 56.00 461.33 56.00 466.67 56.00 472.00
C 50.67 472.00 45.33 472.00 40.00 472.00
C 40.00 466.67 40.00 461.33 40.00 456.00
C 45.33 456.00 50.67 456.00 56.00 456.00
M 88.00 456.00 
C 88.00 461.33 88.00 466.67 88.00 472.00
C 82.67 472.00 77.33 472.00 72.00 472.00
C 72.00 466.67 72.00 461.33 72.00 456.00
C 77.33 456.00 82.67 456.00 88.00 456.00
M 120.00 456.00 
C 120.00 461.33 120.00 466.67 120.00 472.00
C 114.67 472.00 109.33 472.00 104.00 472.00
C 104.00 466.67 104.00 461.33 104.00 456.00
C 109.33 456.00 114.67 456.00 120.00 456.00 Z"/>
</g>
<g fill="None" fill-opacity="0.0" stroke="#000000" stroke-opacity="1.00" stroke-width="0.3"><path d="
M 56.00 456.00 
C 50.67 456.00 45.33 456.00 40.00 456.00
C 40.00 461.33 40.00 466.67 40.00 472.00
C 45.33 472.00 50.67 472.00 56.00 472.00
C 56.00 466.67 56.00 461.33 56.00 456.00 Z"/>
</g>
<g fill="None" fill-opacity="0.0" stroke="#000000" stroke-opacity="1.00" stroke-width="0.3"><path d="
M 88.00 456.00 
C 82.67 456.00 77.33 456.00 72.00 456.00
C 72.00 461.33 72.00 466.67 72.00 472.00
C 77.33 472.00 82.67 472.00 88.00 472.00
C 88.00 466.67 88.00 461.33 88.00 456.00 Z"/>
</g>
<g fill="None" fill-opacity="0.0" stroke="#000000" stroke-opacity="1.00" stroke-width="0.3"><path d="
M 120.00 456.00 
C 114.67 456.00 109.33 456.00 104.00 456.00
C 104.00 461.33 104.00 466.67 104.00 472.00
C 109.33 472.00 114.67 472.00 120.00 472.00
C 120.00 466.67 120.00 461.33 120.00 456.00 Z"/>
</g>
<g fill="None" fill-opacity="0.0" stroke="#AAB2BD" stroke-opacity="1.00" stroke-width="0.3"><path d="
M 408.00 456.00 
C 370.67 456.00 333.33 456.00 296.00 456.00
C 296.00 466.67 296.00 477.33 296.00 488.00
C 333.33 488.00 370.67 488.00 408.00 488.00
C 408.00 477.33 408.00 466.67 408.00 456.00 Z"/>
</g>
<g fill="#000000" fill-opacity="0.01" stroke="None">
<path d="
M 0.00 512.00 
L 512.00 512.00
L 512.00 0.00
L 0.00 0.00
L 0.00 512.00
M 291.00 51.00 
C 310.38 38.71 349.12 37.25 371.70 46.35 C 394.27 55.45 420.34 80.47 426.00 105.00
C 452.93 105.17 467.42 102.78 486.75 125.25 C 506.08 147.72 511.06 184.80 487.75 209.75 C 464.45 234.70 425.49 234.22 392.00 232.00
C 392.00 237.33 392.00 242.67 392.00 248.00
C 421.48 253.49 459.22 237.89 485.23 254.77 C 511.24 271.65 504.83 306.91 504.00 336.00 C 503.17 365.09 509.24 403.37 500.08 432.08 C 490.91 460.78 448.06 456.66 424.00 456.00
C 424.00 466.67 424.00 477.33 424.00 488.00
C 434.67 488.00 445.33 488.00 456.00 488.00
C 456.00 493.33 456.00 498.67 456.00 504.00
C 386.67 504.00 317.33 504.00 248.00 504.00
C 248.00 498.67 248.00 493.33 248.00 488.00
C 258.67 488.00 269.33 488.00 280.00 488.00
C 280.00 477.33 280.00 466.67 280.00 456.00
C 255.72 456.80 213.18 460.60 204.08 431.92 C 194.97 403.25 200.67 365.06 200.00 336.00 C 199.33 306.94 192.67 271.65 218.70 254.70 C 244.73 237.75 282.55 253.63 312.00 248.00
C 312.00 242.67 312.00 237.33 312.00 232.00
C 242.67 232.00 173.33 232.00 104.00 232.00
C 104.00 253.33 104.00 274.67 104.00 296.00
C 116.12 296.14 130.07 295.82 142.00 296.00 C 153.93 296.18 165.06 294.34 174.70 301.30 C 184.33 308.26 183.21 319.26 184.00 330.00 C 184.79 340.74 183.75 354.87 180.08 364.08 C 176.41 373.28 185.77 382.75 184.00 394.00 C 182.23 405.25 185.16 418.61 180.08 428.08 C 174.99 437.54 187.19 446.54 184.00 458.00 C 180.81 469.46 187.24 482.39 180.23 492.23 C 173.22 502.07 166.00 504.02 154.00 504.00 C 142.00 503.98 128.37 503.99 116.00 504.00 C 103.63 504.01 89.40 503.95 77.00 504.00 C 64.60 504.05 51.14 503.87 39.00 504.00 C 26.86 504.13 19.68 502.49 12.23 492.77 C 4.78 483.05 11.36 470.55 8.00 459.00 C 4.64 447.45 16.67 438.16 12.25 428.75 C 7.82 419.35 9.52 406.27 8.00 395.00 C 6.48 383.73 15.00 373.87 12.25 364.75 C 9.49 355.64 6.65 341.73 8.00 331.00 C 9.35 320.27 7.05 309.02 16.75 301.75 C 26.46 294.49 36.80 296.12 49.00 296.00 C 61.20 295.88 75.60 296.09 88.00 296.00
C 88.00 274.67 88.00 253.33 88.00 232.00
C 39.82 240.57 -1.64 185.31 10.33 143.33 C 22.30 101.34 48.97 88.59 87.00 89.00
C 91.86 72.41 103.56 52.34 121.92 36.92 C 140.27 21.49 152.71 16.13 174.25 10.24 C 195.78 4.35 221.91 8.94 240.25 14.80 C 258.59 20.66 273.10 31.05 291.00 51.00 Z"/>
</g>
<g fill="#000000" fill-opacity="1.00" stroke="None">
<path d="
M 291.00 51.00 
C 273.10 31.05 258.59 20.66 240.25 14.80 C 221.91 8.94 195.78 4.35 174.25 10.24 C 152.71 16.13 140.27 21.49 121.92 36.92 C 103.56 52.34 91.86 72.41 87.00 89.00
C 48.97 88.59 22.30 101.34 10.33 143.33 C -1.64 185.31 39.82 240.57 88.00 232.00
C 88.00 253.33 88.00 274.67 88.00 296.00
C 75.60 296.09 61.20 295.88 49.00 296.00 C 36.80 296.12 26.46 294.49 16.75 301.75 C 7.05 309.02 9.35 320.27 8.00 331.00 C 6.65 341.73 9.49 355.64 12.25 364.75 C 15.00 373.87 6.48 383.73 8.00 395.00 C 9.52 406.27 7.82 419.35 12.25 428.75 C 16.67 438.16 4.64 447.45 8.00 459.00 C 11.36 470.55 4.78 483.05 12.23 492.77 C 19.68 502.49 26.86 504.13 39.00 504.00 C 51.14 503.87 64.60 504.05 77.00 504.00 C 89.40 503.95 103.63 504.01 116.00 504.00 C 128.37 503.99 142.00 503.98 154.00 504.00 C 166.00 504.02 173.22 502.07 180.23 492.23 C 187.24 482.39 180.81 469.46 184.00 458.00 C 187.19 446.54 174.99 437.54 180.08 428.08 C 185.16 418.61 182.23 405.25 184.00 394.00 C 185.77 382.75 176.41 373.28 180.08 364.08 C 183.75 354.87 184.79 340.74 184.00 330.00 C 183.21 319.26 184.33 308.26 174.70 301.30 C 165.06 294.34 153.93 296.18 142.00 296.00 C 130.07 295.82 116.12 296.14 104.00 296.00
C 104.00 274.67 104.00 253.33 104.00 232.00
C 173.33 232.00 242.67 232.00 312.00 232.00
C 312.00 237.33 312.00 242.67 312.00 248.00
C 282.55 253.63 244.73 237.75 218.70 254.70 C 192.67 271.65 199.33 306.94 200.00 336.00 C 200.67 365.06 194.97 403.25 204.08 431.92 C 213.18 460.60 255.72 456.80 280.00 456.00
C 280.00 466.67 280.00 477.33 280.00 488.00
C 269.33 488.00 258.67 488.00 248.00 488.00
C 248.00 493.33 248.00 498.67 248.00 504.00
C 317.33 504.00 386.67 504.00 456.00 504.00
C 456.00 498.67 456.00 493.33 456.00 488.00
C 445.33 488.00 434.67 488.00 424.00 488.00
C 424.00 477.33 424.00 466.67 424.00 456.00
C 448.06 456.66 490.91 460.78 500.08 432.08 C 509.24 403.37 503.17 365.09 504.00 336.00 C 504.83 306.91 511.24 271.65 485.23 254.77 C 459.22 237.89 421.48 253.49 392.00 248.00
C 392.00 242.67 392.00 237.33 392.00 232.00
C 425.49 234.22 464.45 234.70 487.75 209.75 C 511.06 184.80 506.08 147.72 486.75 125.25 C 467.42 102.78 452.93 105.17 426.00 105.00
C 420.34 80.47 394.27 55.45 371.70 46.35 C 349.12 37.25 310.38 38.71 291.00 51.00
M 392.00 216.00 
C 392.00 210.67 392.00 205.33 392.00 200.00
C 408.00 200.00 424.00 200.00 440.00 200.00
C 426.67 184.38 413.78 163.06 399.25 148.75 C 384.72 134.45 375.08 103.99 352.00 104.00 C 328.92 104.01 319.28 134.42 304.70 148.70 C 290.11 162.97 277.32 184.41 264.00 200.00
C 280.00 200.00 296.00 200.00 312.00 200.00
C 312.00 205.33 312.00 210.67 312.00 216.00
C 297.93 216.01 284.10 215.98 270.00 216.00 C 255.90 216.02 241.07 215.97 227.00 216.00 C 212.93 216.03 198.98 215.93 185.00 216.00 C 171.02 216.07 155.76 215.85 142.00 216.00 C 128.24 216.15 113.25 215.66 100.00 216.00 C 86.75 216.34 71.84 216.56 60.77 212.23 C 49.70 207.90 43.71 203.59 36.25 194.75 C 28.78 185.92 24.86 175.22 24.01 163.99 C 23.15 152.76 26.15 139.40 32.31 130.31 C 38.46 121.21 45.33 115.07 55.08 110.08 C 64.82 105.08 78.09 101.63 90.01 104.99 C 101.92 108.35 101.95 90.03 107.31 81.31 C 112.66 72.58 116.83 64.25 124.75 56.75 C 132.68 49.25 138.99 42.95 148.70 37.70 C 158.41 32.44 168.79 28.41 180.01 26.01 C 191.23 23.60 206.83 23.77 218.07 25.93 C 229.31 28.08 240.58 31.31 250.08 36.92 C 259.58 42.53 266.26 47.11 273.75 55.25 C 281.24 63.39 286.53 74.36 296.70 66.70 C 306.86 59.03 316.32 58.39 328.02 56.02 C 339.73 53.66 355.12 58.08 365.23 61.77 C 375.34 65.46 383.58 70.29 391.25 77.75 C 398.91 85.22 404.76 93.28 408.92 103.08 C 413.09 112.88 413.47 128.69 426.07 122.07 C 438.68 115.46 451.18 121.22 461.70 125.31 C 472.21 129.39 477.23 137.13 482.77 146.23 C 488.31 155.33 489.93 171.87 486.02 182.02 C 482.12 192.17 478.16 199.68 468.75 206.75 C 459.34 213.82 447.68 216.40 435.00 216.00 C 422.32 215.60 405.10 216.30 392.00 216.00
M 407.00 184.00 
C 396.67 184.00 386.33 184.00 376.00 184.00
C 376.00 217.67 376.00 251.33 376.00 285.00
C 373.18 276.88 359.86 280.00 352.00 280.00 C 344.14 280.00 330.81 276.89 328.00 285.00
C 328.00 251.33 328.00 217.67 328.00 184.00
C 317.67 184.00 307.33 184.00 297.00 184.00
C 303.16 173.67 311.10 168.08 317.75 157.75 C 324.40 147.42 332.56 142.53 338.92 130.92 C 345.28 119.30 358.13 118.44 364.75 130.25 C 371.38 142.06 378.86 146.83 385.77 157.23 C 392.68 167.63 400.67 173.57 407.00 184.00
M 295.00 296.00 
C 289.93 296.36 282.37 307.15 278.75 310.75 C 275.14 314.36 264.36 321.96 264.00 327.00
C 265.03 335.58 274.92 341.32 271.07 350.07 C 267.22 358.83 256.21 358.64 248.00 362.00
C 248.00 372.00 248.00 382.00 248.00 392.00
C 237.33 392.00 226.67 392.00 216.00 392.00
C 215.76 370.05 216.32 339.05 216.00 318.00 C 215.68 296.95 211.51 267.51 237.02 264.02 C 262.54 260.54 286.62 266.59 312.00 264.00
C 312.00 277.33 312.00 290.67 312.00 304.00
C 306.26 301.44 300.97 297.84 295.00 296.00
M 440.00 327.00 
C 439.64 321.93 428.85 314.37 425.25 310.75 C 421.64 307.14 414.04 296.36 409.00 296.00
C 402.92 296.73 397.83 302.28 392.00 304.00
C 392.00 290.67 392.00 277.33 392.00 264.00
C 417.42 266.16 440.32 261.12 466.00 264.00 C 491.68 266.88 488.68 295.50 488.00 317.00 C 487.32 338.50 488.51 369.62 488.00 392.00
C 477.33 392.00 466.67 392.00 456.00 392.00
C 456.00 382.00 456.00 372.00 456.00 362.00
C 448.07 358.43 437.40 359.21 433.22 350.78 C 429.05 342.34 438.15 335.34 440.00 327.00
M 368.00 314.00 
C 377.71 315.95 391.88 326.01 400.08 318.08 C 408.27 310.15 425.92 326.58 418.23 335.23 C 410.54 343.88 419.28 357.87 422.00 368.00
C 427.01 370.53 433.12 370.08 438.02 372.98 C 442.93 375.87 438.45 387.20 440.00 392.00
C 429.00 392.00 418.00 392.00 407.00 392.00
C 413.67 358.91 384.52 327.94 352.00 328.00 C 319.48 328.06 290.47 359.18 297.00 392.00
C 286.00 392.00 275.00 392.00 264.00 392.00
C 265.48 387.02 261.11 375.92 266.08 373.08 C 271.06 370.25 276.86 370.34 282.00 368.00
C 283.95 358.29 294.01 344.12 286.08 335.92 C 278.15 327.72 294.58 310.08 303.23 317.77 C 311.88 325.46 325.87 316.72 336.00 314.00
C 339.01 302.82 339.17 296.00 352.00 296.00 C 364.83 296.00 364.97 302.78 368.00 314.00
M 163.00 312.00 
C 174.42 315.47 164.49 330.95 168.00 341.00 C 171.51 351.05 164.26 362.99 152.00 360.00 C 139.74 357.01 128.73 361.11 117.00 360.00 C 105.27 358.89 93.25 359.97 82.00 360.00 C 70.75 360.03 57.49 358.82 47.00 360.00 C 36.51 361.18 21.33 359.95 24.00 348.00 C 26.67 336.05 18.92 323.26 25.77 314.77 C 32.62 306.29 48.03 313.75 58.00 312.00 C 67.97 310.25 82.30 312.25 93.00 312.00 C 103.70 311.75 117.20 310.92 128.00 312.00 C 138.80 313.08 152.69 308.87 163.00 312.00
M 391.00 392.00 
C 385.67 392.00 380.33 392.00 375.00 392.00
C 380.15 376.75 367.87 359.99 352.00 360.00 C 336.13 360.01 323.86 376.71 329.00 392.00
C 323.67 392.00 318.33 392.00 313.00 392.00
C 306.74 367.69 327.86 343.99 352.00 344.00 C 376.14 344.01 397.25 367.66 391.00 392.00
M 163.00 376.00 
C 174.42 379.47 164.49 394.95 168.00 405.00 C 171.51 415.05 164.26 426.99 152.00 424.00 C 139.74 421.01 128.73 425.11 117.00 424.00 C 105.27 422.89 93.25 423.97 82.00 424.00 C 70.75 424.03 57.49 422.82 47.00 424.00 C 36.51 425.18 21.33 423.96 24.00 412.00 C 26.67 400.04 18.92 387.26 25.77 378.77 C 32.62 370.29 48.03 377.75 58.00 376.00 C 67.97 374.25 82.30 376.25 93.00 376.00 C 103.70 375.75 117.20 374.92 128.00 376.00 C 138.80 377.08 152.69 372.87 163.00 376.00
M 356.00 376.00 
C 365.44 379.48 357.84 397.16 348.33 391.67 C 338.82 386.18 345.99 372.30 356.00 376.00
M 488.00 408.00 
C 491.97 441.16 461.63 441.07 436.00 440.00 C 410.37 438.93 378.23 440.00 352.00 440.00 C 325.77 440.00 293.63 438.93 268.00 440.00 C 242.37 441.07 212.04 441.17 216.00 408.00
C 306.67 408.00 397.33 408.00 488.00 408.00
M 163.00 440.00 
C 174.42 443.47 164.49 458.95 168.00 469.00 C 171.51 479.05 164.26 490.99 152.00 488.00 C 139.74 485.01 128.73 489.11 117.00 488.00 C 105.27 486.89 93.25 487.97 82.00 488.00 C 70.75 488.03 57.49 486.82 47.00 488.00 C 36.51 489.18 21.33 487.95 24.00 476.00 C 26.67 464.05 18.92 451.26 25.77 442.77 C 32.62 434.29 48.03 441.75 58.00 440.00 C 67.97 438.25 82.30 440.25 93.00 440.00 C 103.70 439.75 117.20 438.92 128.00 440.00 C 138.80 441.08 152.69 436.87 163.00 440.00
M 408.00 456.00 
C 408.00 466.67 408.00 477.33 408.00 488.00
C 370.67 488.00 333.33 488.00 296.00 488.00
C 296.00 477.33 296.00 466.67 296.00 456.00
C 333.33 456.00 370.67 456.00 408.00 456.00 Z"/>
</g>
<g fill="#E5E8EC" fill-opacity="1.00" stroke="None">
<path d="
M 392.00 216.00 
C 405.10 216.30 422.32 215.60 435.00 216.00 C 447.68 216.40 459.34 213.82 468.75 206.75 C 478.16 199.68 482.12 192.17 486.02 182.02 C 489.93 171.87 488.31 155.33 482.77 146.23 C 477.23 137.13 472.21 129.39 461.70 125.31 C 451.18 121.22 438.68 115.46 426.07 122.07 C 413.47 128.69 413.09 112.88 408.92 103.08 C 404.76 93.28 398.91 85.22 391.25 77.75 C 383.58 70.29 375.34 65.46 365.23 61.77 C 355.12 58.08 339.73 53.66 328.02 56.02 C 316.32 58.39 306.86 59.03 296.70 66.70 C 286.53 74.36 281.24 63.39 273.75 55.25 C 266.26 47.11 259.58 42.53 250.08 36.92 C 240.58 31.31 229.31 28.08 218.07 25.93 C 206.83 23.77 191.23 23.60 180.01 26.01 C 168.79 28.41 158.41 32.44 148.70 37.70 C 138.99 42.95 132.68 49.25 124.75 56.75 C 116.83 64.25 112.66 72.58 107.31 81.31 C 101.95 90.03 101.92 108.35 90.01 104.99 C 78.09 101.63 64.82 105.08 55.08 110.08 C 45.33 115.07 38.46 121.21 32.31 130.31 C 26.15 139.40 23.15 152.76 24.01 163.99 C 24.86 175.22 28.78 185.92 36.25 194.75 C 43.71 203.59 49.70 207.90 60.77 212.23 C 71.84 216.56 86.75 216.34 100.00 216.00 C 113.25 215.66 128.24 216.15 142.00 216.00 C 155.76 215.85 171.02 216.07 185.00 216.00 C 198.98 215.93 212.93 216.03 227.00 216.00 C 241.07 215.97 255.90 216.02 270.00 216.00 C 284.10 215.98 297.93 216.01 312.00 216.00
C 312.00 210.67 312.00 205.33 312.00 200.00
C 296.00 200.00 280.00 200.00 264.00 200.00
C 277.32 184.41 290.11 162.97 304.70 148.70 C 319.28 134.42 328.92 104.01 352.00 104.00 C 375.08 103.99 384.72 134.45 399.25 148.75 C 413.78 163.06 426.67 184.38 440.00 200.00
C 424.00 200.00 408.00 200.00 392.00 200.00
C 392.00 205.33 392.00 210.67 392.00 216.00
M 235.00 47.00 
C 233.52 52.16 230.48 56.82 229.00 62.00
C 189.73 42.94 136.86 69.82 130.00 113.00
C 124.35 113.59 119.61 110.68 114.00 111.00
C 121.77 57.66 186.35 24.11 235.00 47.00
M 56.00 160.00 
C 55.82 180.58 78.60 187.26 96.00 184.00
C 96.00 189.33 96.00 194.67 96.00 200.00
C 69.57 205.21 39.35 188.77 40.00 160.00
C 45.33 160.00 50.67 160.00 56.00 160.00
M 128.00 184.00 
C 128.00 189.33 128.00 194.67 128.00 200.00
C 122.67 200.00 117.33 200.00 112.00 200.00
C 112.00 194.67 112.00 189.33 112.00 184.00
C 117.33 184.00 122.67 184.00 128.00 184.00 Z"/>
</g>
<g fill="#000000" fill-opacity="1.00" stroke="None">
<path d="
M 235.00 47.00 
C 186.35 24.11 121.77 57.66 114.00 111.00
C 119.61 110.68 124.35 113.59 130.00 113.00
C 136.86 69.82 189.73 42.94 229.00 62.00
C 230.48 56.82 233.52 52.16 235.00 47.00 Z"/>
</g>
<g fill="#FE816D" fill-opacity="1.00" stroke="None">
<path d="
M 407.00 184.00 
C 400.67 173.57 392.68 167.63 385.77 157.23 C 378.86 146.83 371.38 142.06 364.75 130.25 C 358.13 118.44 345.28 119.30 338.92 130.92 C 332.56 142.53 324.40 147.42 317.75 157.75 C 311.10 168.08 303.16 173.67 297.00 184.00
C 307.33 184.00 317.67 184.00 328.00 184.00
C 328.00 217.67 328.00 251.33 328.00 285.00
C 330.81 276.89 344.14 280.00 352.00 280.00 C 359.86 280.00 373.18 276.88 376.00 285.00
C 376.00 251.33 376.00 217.67 376.00 184.00
C 386.33 184.00 396.67 184.00 407.00 184.00 Z"/>
</g>
<g fill="#000000" fill-opacity="1.00" stroke="None">
<path d="
M 56.00 160.00 
C 50.67 160.00 45.33 160.00 40.00 160.00
C 39.35 188.77 69.57 205.21 96.00 200.00
C 96.00 194.67 96.00 189.33 96.00 184.00
C 78.60 187.26 55.82 180.58 56.00 160.00 Z"/>
</g>
<g fill="#000000" fill-opacity="1.00" stroke="None">
<path d="
M 128.00 184.00 
C 122.67 184.00 117.33 184.00 112.00 184.00
C 112.00 189.33 112.00 194.67 112.00 200.00
C 117.33 200.00 122.67 200.00 128.00 200.00
C 128.00 194.67 128.00 189.33 128.00 184.00 Z"/>
</g>
<g fill="#68D5F3" fill-opacity="1.00" stroke="None">
<path d="
M 264.00 327.00 
C 263.44 322.30 274.22 314.32 278.25 310.25 C 282.28 306.17 290.41 295.45 295.00 296.00
C 300.97 297.84 306.26 301.44 312.00 304.00
C 312.00 290.67 312.00 277.33 312.00 264.00
C 286.62 266.59 262.54 260.54 237.02 264.02 C 211.51 267.51 215.68 296.95 216.00 318.00 C 216.32 339.05 215.76 370.05 216.00 392.00
C 226.67 392.00 237.33 392.00 248.00 392.00
C 248.00 382.00 248.00 372.00 248.00 362.00
C 256.21 358.64 267.22 358.83 271.07 350.07 C 274.92 341.32 265.03 335.58 264.00 327.00 Z"/>
</g>
<g fill="#68D5F3" fill-opacity="1.00" stroke="None">
<path d="
M 409.00 296.00 
C 413.70 295.44 421.68 306.22 425.75 310.25 C 429.83 314.28 440.55 322.41 440.00 327.00
C 438.15 335.34 429.05 342.34 433.22 350.78 C 437.40 359.21 448.07 358.43 456.00 362.00
C 456.00 372.00 456.00 382.00 456.00 392.00
C 466.67 392.00 477.33 392.00 488.00 392.00
C 488.51 369.62 487.32 338.50 488.00 317.00 C 488.68 295.50 491.68 266.88 466.00 264.00 C 440.32 261.12 417.42 266.16 392.00 264.00
C 392.00 277.33 392.00 290.67 392.00 304.00
C 397.83 302.28 402.92 296.73 409.00 296.00 Z"/>
</g>
<g fill="#2C5A66" fill-opacity="1.00" stroke="None">
<path d="
M 264.00 327.00 
C 264.36 321.96 275.14 314.36 278.75 310.75 C 282.37 307.15 289.93 296.36 295.00 296.00
C 290.41 295.45 282.28 306.17 278.25 310.25 C 274.22 314.32 263.44 322.30 264.00 327.00 Z"/>
</g>
<g fill="#2B5763" fill-opacity="1.00" stroke="None">
<path d="
M 409.00 296.00 
C 414.04 296.36 421.64 307.14 425.25 310.75 C 428.85 314.37 439.64 321.93 440.00 327.00
C 440.55 322.41 429.83 314.28 425.75 310.25 C 421.68 306.22 413.70 295.44 409.00 296.00 Z"/>
</g>
<g fill="#FCC428" fill-opacity="1.00" stroke="None">
<path d="
M 368.00 314.00 
C 364.97 302.78 364.83 296.00 352.00 296.00 C 339.17 296.00 339.01 302.82 336.00 314.00
C 325.87 316.72 311.88 325.46 303.23 317.77 C 294.58 310.08 278.15 327.72 286.08 335.92 C 294.01 344.12 283.95 358.29 282.00 368.00
C 276.86 370.34 271.06 370.25 266.08 373.08 C 261.11 375.92 265.48 387.02 264.00 392.00
C 275.00 392.00 286.00 392.00 297.00 392.00
C 290.47 359.18 319.48 328.06 352.00 328.00 C 384.52 327.94 413.67 358.91 407.00 392.00
C 418.00 392.00 429.00 392.00 440.00 392.00
C 438.45 387.20 442.93 375.87 438.02 372.98 C 433.12 370.08 427.01 370.53 422.00 368.00
C 419.28 357.87 410.54 343.88 418.23 335.23 C 425.92 326.58 408.27 310.15 400.08 318.08 C 391.88 326.01 377.71 315.95 368.00 314.00 Z"/>
</g>
<g fill="#FBD66F" fill-opacity="1.00" stroke="None">
<path d="
M 163.00 312.00 
C 152.69 308.87 138.80 313.08 128.00 312.00 C 117.20 310.92 103.70 311.75 93.00 312.00 C 82.30 312.25 67.97 310.25 58.00 312.00 C 48.03 313.75 32.62 306.29 25.77 314.77 C 18.92 323.26 26.67 336.05 24.00 348.00 C 21.33 359.95 36.51 361.18 47.00 360.00 C 57.49 358.82 70.75 360.03 82.00 360.00 C 93.25 359.97 105.27 358.89 117.00 360.00 C 128.73 361.11 139.74 357.01 152.00 360.00 C 164.26 362.99 171.51 351.05 168.00 341.00 C 164.49 330.95 174.42 315.47 163.00 312.00
M 56.00 328.00 
C 56.00 333.33 56.00 338.67 56.00 344.00
C 50.67 344.00 45.33 344.00 40.00 344.00
C 40.00 338.67 40.00 333.33 40.00 328.00
C 45.33 328.00 50.67 328.00 56.00 328.00
M 88.00 328.00 
C 88.00 333.33 88.00 338.67 88.00 344.00
C 82.67 344.00 77.33 344.00 72.00 344.00
C 72.00 338.67 72.00 333.33 72.00 328.00
C 77.33 328.00 82.67 328.00 88.00 328.00
M 120.00 328.00 
C 120.00 333.33 120.00 338.67 120.00 344.00
C 114.67 344.00 109.33 344.00 104.00 344.00
C 104.00 338.67 104.00 333.33 104.00 328.00
C 109.33 328.00 114.67 328.00 120.00 328.00 Z"/>
</g>
<g fill="#000000" fill-opacity="1.00" stroke="None">
<path d="
M 56.00 328.00 
C 50.67 328.00 45.33 328.00 40.00 328.00
C 40.00 333.33 40.00 338.67 40.00 344.00
C 45.33 344.00 50.67 344.00 56.00 344.00
C 56.00 338.67 56.00 333.33 56.00 328.00 Z"/>
</g>
<g fill="#000000" fill-opacity="1.00" stroke="None">
<path d="
M 88.00 328.00 
C 82.67 328.00 77.33 328.00 72.00 328.00
C 72.00 333.33 72.00 338.67 72.00 344.00
C 77.33 344.00 82.67 344.00 88.00 344.00
C 88.00 338.67 88.00 333.33 88.00 328.00 Z"/>
</g>
<g fill="#000000" fill-opacity="1.00" stroke="None">
<path d="
M 120.00 328.00 
C 114.67 328.00 109.33 328.00 104.00 328.00
C 104.00 333.33 104.00 338.67 104.00 344.00
C 109.33 344.00 114.67 344.00 120.00 344.00
C 120.00 338.67 120.00 333.33 120.00 328.00 Z"/>
</g>
<g fill="#F7D36E" fill-opacity="1.00" stroke="None">
<path d="
M 391.00 392.00 
C 397.25 367.66 376.14 344.01 352.00 344.00 C 327.86 343.99 306.74 367.69 313.00 392.00
C 318.33 392.00 323.67 392.00 329.00 392.00
C 323.86 376.71 336.13 360.01 352.00 360.00 C 367.87 359.99 380.15 376.75 375.00 392.00
C 380.33 392.00 385.67 392.00 391.00 392.00 Z"/>
</g>
<g fill="#FBD66F" fill-opacity="1.00" stroke="None">
<path d="
M 163.00 376.00 
C 152.69 372.87 138.80 377.08 128.00 376.00 C 117.20 374.92 103.70 375.75 93.00 376.00 C 82.30 376.25 67.97 374.25 58.00 376.00 C 48.03 377.75 32.62 370.29 25.77 378.77 C 18.92 387.26 26.67 400.04 24.00 412.00 C 21.33 423.96 36.51 425.18 47.00 424.00 C 57.49 422.82 70.75 424.03 82.00 424.00 C 93.25 423.97 105.27 422.89 117.00 424.00 C 128.73 425.11 139.74 421.01 152.00 424.00 C 164.26 426.99 171.51 415.05 168.00 405.00 C 164.49 394.95 174.42 379.47 163.00 376.00
M 88.00 392.00 
C 88.00 397.33 88.00 402.67 88.00 408.00
C 82.67 408.00 77.33 408.00 72.00 408.00
C 72.00 402.67 72.00 397.33 72.00 392.00
C 77.33 392.00 82.67 392.00 88.00 392.00
M 120.00 392.00 
C 120.00 397.33 120.00 402.67 120.00 408.00
C 114.67 408.00 109.33 408.00 104.00 408.00
C 104.00 402.67 104.00 397.33 104.00 392.00
C 109.33 392.00 114.67 392.00 120.00 392.00
M 152.00 392.00 
C 152.00 397.33 152.00 402.67 152.00 408.00
C 146.67 408.00 141.33 408.00 136.00 408.00
C 136.00 402.67 136.00 397.33 136.00 392.00
C 141.33 392.00 146.67 392.00 152.00 392.00 Z"/>
</g>
<g fill="#000000" fill-opacity="0.07" stroke="None">
<path d="
M 356.00 376.00 
C 345.99 372.30 338.82 386.18 348.33 391.67 C 357.84 397.16 365.44 379.48 356.00 376.00 Z"/>
</g>
<g fill="#000000" fill-opacity="1.00" stroke="None">
<path d="
M 88.00 392.00 
C 82.67 392.00 77.33 392.00 72.00 392.00
C 72.00 397.33 72.00 402.67 72.00 408.00
C 77.33 408.00 82.67 408.00 88.00 408.00
C 88.00 402.67 88.00 397.33 88.00 392.00 Z"/>
</g>
<g fill="#000000" fill-opacity="1.00" stroke="None">
<path d="
M 120.00 392.00 
C 114.67 392.00 109.33 392.00 104.00 392.00
C 104.00 397.33 104.00 402.67 104.00 408.00
C 109.33 408.00 114.67 408.00 120.00 408.00
C 120.00 402.67 120.00 397.33 120.00 392.00 Z"/>
</g>
<g fill="#000000" fill-opacity="1.00" stroke="None">
<path d="
M 152.00 392.00 
C 146.67 392.00 141.33 392.00 136.00 392.00
C 136.00 397.33 136.00 402.67 136.00 408.00
C 141.33 408.00 146.67 408.00 152.00 408.00
C 152.00 402.67 152.00 397.33 152.00 392.00 Z"/>
</g>
<g fill="#CBD0D8" fill-opacity="1.00" stroke="None">
<path d="
M 488.00 408.00 
C 397.33 408.00 306.67 408.00 216.00 408.00
C 212.04 441.17 242.37 441.07 268.00 440.00 C 293.63 438.93 325.77 440.00 352.00 440.00 C 378.23 440.00 410.37 438.93 436.00 440.00 C 461.63 441.07 491.97 441.16 488.00 408.00 Z"/>
</g>
<g fill="#FBD66F" fill-opacity="1.00" stroke="None">
<path d="
M 163.00 440.00 
C 152.69 436.87 138.80 441.08 128.00 440.00 C 117.20 438.92 103.70 439.75 93.00 440.00 C 82.30 440.25 67.97 438.25 58.00 440.00 C 48.03 441.75 32.62 434.29 25.77 442.77 C 18.92 451.26 26.67 464.05 24.00 476.00 C 21.33 487.95 36.51 489.18 47.00 488.00 C 57.49 486.82 70.75 488.03 82.00 488.00 C 93.25 487.97 105.27 486.89 117.00 488.00 C 128.73 489.11 139.74 485.01 152.00 488.00 C 164.26 490.99 171.51 479.05 168.00 469.00 C 164.49 458.95 174.42 443.47 163.00 440.00
M 56.00 456.00 
C 56.00 461.33 56.00 466.67 56.00 472.00
C 50.67 472.00 45.33 472.00 40.00 472.00
C 40.00 466.67 40.00 461.33 40.00 456.00
C 45.33 456.00 50.67 456.00 56.00 456.00
M 88.00 456.00 
C 88.00 461.33 88.00 466.67 88.00 472.00
C 82.67 472.00 77.33 472.00 72.00 472.00
C 72.00 466.67 72.00 461.33 72.00 456.00
C 77.33 456.00 82.67 456.00 88.00 456.00
M 120.00 456.00 
C 120.00 461.33 120.00 466.67 120.00 472.00
C 114.67 472.00 109.33 472.00 104.00 472.00
C 104.00 466.67 104.00 461.33 104.00 456.00
C 109.33 456.00 114.67 456.00 120.00 456.00 Z"/>
</g>
<g fill="#000000" fill-opacity="1.00" stroke="None">
<path d="
M 56.00 456.00 
C 50.67 456.00 45.33 456.00 40.00 456.00
C 40.00 461.33 40.00 466.67 40.00 472.00
C 45.33 472.00 50.67 472.00 56.00 472.00
C 56.00 466.67 56.00 461.33 56.00 456.00 Z"/>
</g>
<g fill="#000000" fill-opacity="1.00" stroke="None">
<path d="
M 88.00 456.00 
C 82.67 456.00 77.33 456.00 72.00 456.00
C 72.00 461.33 72.00 466.67 72.00 472.00
C 77.33 472.00 82.67 472.00 88.00 472.00
C 88.00 466.67 88.00 461.33 88.00 456.00 Z"/>
</g>
<g fill="#000000" fill-opacity="1.00" stroke="None">
<path d="
M 120.00 456.00 
C 114.67 456.00 109.33 456.00 104.00 456.00
C 104.00 461.33 104.00 466.67 104.00 472.00
C 109.33 472.00 114.67 472.00 120.00 472.00
C 120.00 466.67 120.00 461.33 120.00 456.00 Z"/>
</g>
<g fill="#AAB2BD" fill-opacity="1.00" stroke="None">
<path d="
M 408.00 456.00 
C 370.67 456.00 333.33 456.00 296.00 456.00
C 296.00 466.67 296.00 477.33 296.00 488.00
C 333.33 488.00 370.67 488.00 408.00 488.00
C 408.00 477.33 408.00 466.67 408.00 456.00 Z"/>
</g>
</svg>