<svg xmlns="http://www.w3.org/2000/svg" xmlns:v="https://svgstorm.com"
viewBox = "0 0 512 512"
width="512"
height="512">
<g fill="None" fill-opacity="0.0" stroke="#000000" stroke-opacity="0.01" stroke-width="0.3"><path d="
M 0.00 512.00 
L 328.00 512.00
C 317.38 505.50 301.72 504.28 290.98 498.03 C 280.23 491.77 263.14 493.76 258.23 479.77 C 253.32 465.78 271.36 458.18 279.75 449.75 C 288.14 441.32 298.67 436.25 307.75 426.75 C 316.83 417.24 338.02 421.54 336.00 439.00
C 356.98 430.87 374.91 418.28 392.25 403.25 C 409.58 388.21 420.68 370.26 432.31 351.31 C 443.93 332.35 450.40 305.67 454.26 286.25 C 458.13 266.83 454.15 241.01 455.64 222.30 C 457.14 203.59 489.35 200.98 496.13 216.92 C 502.91 232.86 500.96 261.37 499.61 280.75 C 498.25 300.13 491.92 323.98 484.02 345.02 C 476.13 366.07 463.71 386.30 450.25 404.25 C 436.78 422.19 421.78 436.49 403.92 449.92 C 386.06 463.35 365.30 476.25 344.00 483.00
C 346.78 494.72 345.43 510.78 331.00 512.00
L 512.00 512.00
L 512.00 0.00
L 494.00 0.00
C 500.62 2.91 509.16 6.30 510.71 14.30 C 512.25 22.29 510.21 39.57 511.00 49.00 C 511.79 58.43 510.64 61.06 511.00 69.00 C 511.36 76.94 510.82 81.69 511.00 89.00 C 511.18 96.31 510.89 101.89 511.00 109.00 C 511.11 116.11 510.89 120.69 511.00 128.00 C 511.11 135.31 510.82 140.03 511.00 148.00 C 511.18 155.97 510.63 158.49 511.00 168.00 C 511.37 177.51 504.32 189.30 493.99 189.99 C 483.66 190.69 482.94 187.96 474.00 190.00 C 465.06 192.04 465.82 186.04 460.00 184.00
C 456.89 182.91 444.00 182.70 441.00 184.00
C 439.87 194.05 419.25 189.70 411.00 190.00 C 402.75 190.30 383.82 190.75 375.00 190.00 C 366.18 189.25 358.01 182.28 357.80 172.75 C 357.60 163.23 358.31 146.49 358.00 136.00 C 357.69 125.51 358.33 110.39 358.00 100.00 C 357.67 89.61 357.51 81.35 360.26 74.25 C 363.02 67.15 363.94 64.17 370.25 58.25 C 376.56 52.32 382.64 45.84 388.75 39.75 C 394.87 33.66 400.82 28.02 406.75 21.75 C 412.68 15.48 418.35 9.96 423.75 6.74 C 429.15 3.51 434.96 1.05 444.00 0.00
L 186.00 0.00
C 197.63 5.13 206.66 6.24 217.25 11.19 C 227.85 16.14 236.80 17.49 247.70 22.35 C 258.59 27.21 259.70 44.28 248.23 52.23 C 236.76 60.19 224.17 67.87 213.30 79.30 C 202.44 90.74 178.37 97.88 178.00 73.00
C 165.85 74.84 155.08 91.27 143.00 84.00
C 137.85 87.98 132.28 91.96 127.00 96.00
C 132.78 106.06 113.13 114.92 107.75 123.75 C 102.36 132.57 91.55 141.74 86.23 152.23 C 80.91 162.72 74.09 173.95 70.02 186.02 C 65.96 198.10 61.30 212.55 60.00 226.00 C 58.70 239.45 55.04 258.36 58.00 272.00 C 60.96 285.64 57.70 300.99 42.92 304.92 C 28.15 308.86 15.70 297.14 15.00 283.00 C 14.31 268.86 12.72 250.27 14.00 236.00 C 15.28 221.73 18.13 207.46 21.32 194.32 C 24.51 181.18 29.28 169.17 34.31 157.31 C 39.33 145.44 45.18 135.22 51.77 124.77 C 58.36 114.32 65.46 105.50 73.25 96.25 C 81.03 87.00 89.27 78.99 98.25 71.25 C 107.23 63.51 116.98 56.74 124.75 51.61 C 132.52 46.47 137.19 42.89 146.03 39.03 C 154.88 35.17 161.25 29.80 170.00 29.00
C 167.93 18.00 166.84 3.18 181.00 0.00
L 0.00 0.00
L 0.00 512.00
M 337.00 244.00 
C 338.65 251.44 338.65 260.59 337.00 268.00
C 344.49 275.88 353.16 276.47 359.75 286.25 C 366.34 296.02 356.52 306.02 352.23 315.23 C 347.94 324.44 337.16 334.19 325.78 327.22 C 314.39 320.26 309.16 319.74 297.92 325.92 C 286.69 332.11 283.70 338.57 284.01 353.01 C 284.32 367.45 267.48 368.25 257.00 368.00 C 246.52 367.75 230.51 368.12 230.02 353.98 C 229.54 339.83 228.33 332.61 216.77 326.23 C 205.21 319.85 199.76 320.29 188.31 327.31 C 176.85 334.32 166.65 324.91 162.08 315.92 C 157.51 306.93 148.34 297.11 154.31 287.31 C 160.27 277.50 169.18 275.44 177.00 268.00
C 175.40 260.48 175.41 251.53 177.00 244.00
C 169.02 236.41 161.16 235.08 154.70 225.30 C 148.24 215.52 157.18 206.04 161.77 196.77 C 166.36 187.50 176.68 177.80 188.22 184.78 C 199.77 191.75 204.72 192.16 216.08 186.08 C 227.43 179.99 230.23 173.37 230.00 159.00 C 229.76 144.63 246.51 143.70 257.00 144.00 C 267.49 144.30 283.54 143.80 283.98 158.02 C 284.41 172.25 285.80 179.32 297.23 185.77 C 308.66 192.22 314.39 191.68 325.69 184.69 C 337.00 177.71 347.60 187.12 351.92 196.08 C 356.25 205.03 366.08 215.26 360.07 225.07 C 354.06 234.89 344.36 236.34 337.00 244.00
M 140.00 496.00 
C 136.33 494.81 124.68 494.83 121.00 496.00
C 116.32 497.49 115.20 505.42 106.00 503.00 C 96.80 500.58 91.82 503.87 82.00 503.00 C 72.18 502.13 69.64 502.90 58.00 503.00 C 46.36 503.10 25.05 503.90 16.70 500.29 C 8.35 496.67 2.63 491.03 1.40 482.25 C 0.16 473.46 0.73 471.34 1.00 460.00 C 1.27 448.66 -0.65 434.10 8.00 429.00
C -1.29 418.67 -0.73 392.69 1.65 375.31 C 4.02 357.92 14.03 353.40 34.00 354.00 C 53.97 354.60 85.93 353.93 107.00 354.00 C 128.07 354.07 160.02 354.41 180.00 354.00 C 199.98 353.59 209.53 357.55 212.39 374.75 C 215.26 391.95 215.00 418.87 206.00 428.00
C 215.57 434.95 213.68 464.41 213.00 478.00 C 212.32 491.59 205.13 500.69 191.75 502.19 C 178.38 503.70 144.10 507.57 140.00 496.00 Z"/>
</g>
<g fill="None" fill-opacity="0.0" stroke="#000000" stroke-opacity="1.00" stroke-width="0.3"><path d="
M 127.00 96.00 
C 121.40 86.27 109.94 100.13 104.75 105.75 C 99.57 111.37 90.89 118.94 86.25 126.25 C 81.61 133.55 75.21 141.43 70.75 149.75 C 66.28 158.06 61.64 166.59 58.08 176.08 C 54.51 185.56 50.95 194.89 48.67 205.67 C 46.39 216.46 43.46 227.27 43.67 239.67 C 43.88 252.07 40.35 263.39 43.98 277.02 C 47.60 290.66 29.86 294.81 29.22 280.78 C 28.58 266.75 27.10 255.70 28.00 243.00 C 28.90 230.30 30.71 220.93 32.78 209.78 C 34.85 198.63 37.54 188.89 40.98 178.98 C 44.41 169.06 48.47 160.82 52.92 151.92 C 57.37 143.03 61.80 135.13 67.30 127.30 C 72.81 119.48 78.03 112.34 84.25 105.25 C 90.48 98.17 96.95 92.36 103.75 85.75 C 110.56 79.15 117.84 74.29 125.70 68.70 C 133.55 63.11 140.54 58.19 149.70 53.70 C 158.86 49.21 165.80 44.61 176.68 41.68 C 187.56 38.74 187.33 24.54 183.00 15.00
C 202.51 21.42 221.42 29.68 241.00 36.00
C 227.12 50.50 209.80 64.75 193.00 76.00
C 193.90 68.24 190.08 52.52 180.78 55.78 C 171.48 59.04 165.19 62.20 157.31 66.31 C 149.42 70.41 139.28 73.96 143.00 84.00
C 155.08 91.27 165.85 74.84 178.00 73.00
C 178.37 97.88 202.44 90.74 213.30 79.30 C 224.17 67.87 236.76 60.19 248.23 52.23 C 259.70 44.28 258.59 27.21 247.70 22.35 C 236.80 17.49 227.85 16.14 217.25 11.19 C 206.66 6.24 197.63 5.13 186.00 0.00
L 181.00 0.00
C 166.84 3.18 167.93 18.00 170.00 29.00
C 161.25 29.80 154.88 35.17 146.03 39.03 C 137.19 42.89 132.52 46.47 124.75 51.61 C 116.98 56.74 107.23 63.51 98.25 71.25 C 89.27 78.99 81.03 87.00 73.25 96.25 C 65.46 105.50 58.36 114.32 51.77 124.77 C 45.18 135.22 39.33 145.44 34.31 157.31 C 29.28 169.17 24.51 181.18 21.32 194.32 C 18.13 207.46 15.28 221.73 14.00 236.00 C 12.72 250.27 14.31 268.86 15.00 283.00 C 15.70 297.14 28.15 308.86 42.92 304.92 C 57.70 300.99 60.96 285.64 58.00 272.00 C 55.04 258.36 58.70 239.45 60.00 226.00 C 61.30 212.55 65.96 198.10 70.02 186.02 C 74.09 173.95 80.91 162.72 86.23 152.23 C 91.55 141.74 102.36 132.57 107.75 123.75 C 113.13 114.92 132.78 106.06 127.00 96.00 Z"/>
</g>
<g fill="None" fill-opacity="0.0" stroke="#000000" stroke-opacity="1.00" stroke-width="0.3"><path d="
M 441.00 184.00 
C 442.38 171.70 422.81 177.11 414.00 176.00 C 405.19 174.89 389.50 177.57 379.00 176.00 C 368.50 174.43 372.33 156.46 372.00 147.00 C 371.67 137.54 372.20 121.63 372.00 112.00 C 371.80 102.37 371.81 101.25 372.00 94.00 C 372.19 86.75 373.96 86.27 378.70 82.70 C 383.43 79.13 387.71 81.69 394.00 81.00 C 400.29 80.31 404.66 81.69 412.00 81.00 C 419.34 80.31 419.03 82.47 427.69 78.69 C 436.36 74.92 439.54 62.68 438.00 54.00 C 436.46 45.32 438.61 42.91 438.00 36.00 C 437.39 29.09 437.43 25.32 440.31 20.31 C 443.19 15.30 446.65 15.43 452.00 15.00 C 457.35 14.57 464.10 15.34 470.00 15.00 C 475.90 14.66 481.62 15.47 488.00 15.00 C 494.38 14.53 496.85 18.10 496.00 25.00 C 495.15 31.90 496.31 34.06 496.00 42.00 C 495.69 49.94 496.05 49.88 496.00 60.00 C 495.95 70.12 496.03 84.89 496.00 95.00 C 495.97 105.11 495.97 105.19 496.00 113.00 C 496.03 120.81 495.90 124.28 496.00 131.00 C 496.10 137.72 495.75 142.90 496.00 149.00 C 496.25 155.10 495.40 160.44 496.00 166.00 C 496.60 171.56 494.68 177.33 488.00 176.00 C 481.31 174.66 476.97 178.34 470.00 176.00 C 463.03 173.66 463.21 182.17 460.00 184.00
C 465.82 186.04 465.06 192.04 474.00 190.00 C 482.94 187.96 483.66 190.69 493.99 189.99 C 504.32 189.30 511.37 177.51 511.00 168.00 C 510.63 158.49 511.18 155.97 511.00 148.00 C 510.82 140.03 511.11 135.31 511.00 128.00 C 510.89 120.69 511.11 116.11 511.00 109.00 C 510.89 101.89 511.18 96.31 511.00 89.00 C 510.82 81.69 511.36 76.94 511.00 69.00 C 510.64 61.06 511.79 58.43 511.00 49.00 C 510.21 39.57 512.25 22.29 510.71 14.30 C 509.16 6.30 500.62 2.91 494.00 0.00
L 444.00 0.00
C 434.96 1.05 429.15 3.51 423.75 6.74 C 418.35 9.96 412.68 15.48 406.75 21.75 C 400.82 28.02 394.87 33.66 388.75 39.75 C 382.64 45.84 376.56 52.32 370.25 58.25 C 363.94 64.17 363.02 67.15 360.26 74.25 C 357.51 81.35 357.67 89.61 358.00 100.00 C 358.33 110.39 357.69 125.51 358.00 136.00 C 358.31 146.49 357.60 163.23 357.80 172.75 C 358.01 182.28 366.18 189.25 375.00 190.00 C 383.82 190.75 402.75 190.30 411.00 190.00 C 419.25 189.70 439.87 194.05 441.00 184.00
M 423.00 27.00 
C 427.28 34.56 419.55 44.54 423.00 53.00 C 426.45 61.46 418.50 69.36 410.00 66.00 C 401.50 62.64 391.55 70.27 384.00 66.00
C 382.91 65.38 393.37 55.00 395.75 52.75 C 398.13 50.50 406.97 41.65 409.25 39.25 C 411.53 36.85 422.37 25.89 423.00 27.00 Z"/>
</g>
<g fill="None" fill-opacity="0.0" stroke="#FA626D" stroke-opacity="1.00" stroke-width="0.3"><path d="
M 127.00 96.00 
C 132.28 91.96 137.85 87.98 143.00 84.00
C 139.28 73.96 149.42 70.41 157.31 66.31 C 165.19 62.20 171.48 59.04 180.78 55.78 C 190.08 52.52 193.90 68.24 193.00 76.00
C 209.80 64.75 227.12 50.50 241.00 36.00
C 221.42 29.68 202.51 21.42 183.00 15.00
C 187.33 24.54 187.56 38.74 176.68 41.68 C 165.80 44.61 158.86 49.21 149.70 53.70 C 140.54 58.19 133.55 63.11 125.70 68.70 C 117.84 74.29 110.56 79.15 103.75 85.75 C 96.95 92.36 90.48 98.17 84.25 105.25 C 78.03 112.34 72.81 119.48 67.30 127.30 C 61.80 135.13 57.37 143.03 52.92 151.92 C 48.47 160.82 44.41 169.06 40.98 178.98 C 37.54 188.89 34.85 198.63 32.78 209.78 C 30.71 220.93 28.90 230.30 28.00 243.00 C 27.10 255.70 28.58 266.75 29.22 280.78 C 29.86 294.81 47.60 290.66 43.98 277.02 C 40.35 263.39 43.88 252.07 43.67 239.67 C 43.46 227.27 46.39 216.46 48.67 205.67 C 50.95 194.89 54.51 185.56 58.08 176.08 C 61.64 166.59 66.28 158.06 70.75 149.75 C 75.21 141.43 81.61 133.55 86.25 126.25 C 90.89 118.94 99.57 111.37 104.75 105.75 C 109.94 100.13 121.40 86.27 127.00 96.00 Z"/>
</g>
<g fill="None" fill-opacity="0.0" stroke="#E6EBEF" stroke-opacity="1.00" stroke-width="0.3"><path d="
M 441.00 184.00 
C 444.00 182.70 456.89 182.91 460.00 184.00
C 463.21 182.17 463.03 173.66 470.00 176.00 C 476.97 178.34 481.31 174.66 488.00 176.00 C 494.68 177.33 496.60 171.56 496.00 166.00 C 495.40 160.44 496.25 155.10 496.00 149.00 C 495.75 142.90 496.10 137.72 496.00 131.00 C 495.90 124.28 496.03 120.81 496.00 113.00 C 495.97 105.19 495.97 105.11 496.00 95.00 C 496.03 84.89 495.95 70.12 496.00 60.00 C 496.05 49.88 495.69 49.94 496.00 42.00 C 496.31 34.06 495.15 31.90 496.00 25.00 C 496.85 18.10 494.38 14.53 488.00 15.00 C 481.62 15.47 475.90 14.66 470.00 15.00 C 464.10 15.34 457.35 14.57 452.00 15.00 C 446.65 15.43 443.19 15.30 440.31 20.31 C 437.43 25.32 437.39 29.09 438.00 36.00 C 438.61 42.91 436.46 45.32 438.00 54.00 C 439.54 62.68 436.36 74.92 427.69 78.69 C 419.03 82.47 419.34 80.31 412.00 81.00 C 404.66 81.69 400.29 80.31 394.00 81.00 C 387.71 81.69 383.43 79.13 378.70 82.70 C 373.96 86.27 372.19 86.75 372.00 94.00 C 371.81 101.25 371.80 102.37 372.00 112.00 C 372.20 121.63 371.67 137.54 372.00 147.00 C 372.33 156.46 368.50 174.43 379.00 176.00 C 389.50 177.57 405.19 174.89 414.00 176.00 C 422.81 177.11 442.38 171.70 441.00 184.00
M 468.00 102.00 
C 476.87 104.69 472.72 119.05 463.00 117.00 C 453.28 114.95 441.91 118.53 432.00 117.00 C 422.09 115.47 411.06 119.19 401.33 116.67 C 391.60 114.15 396.08 99.52 406.00 102.00 C 415.92 104.48 427.10 99.98 437.00 102.00 C 446.90 104.02 458.42 99.09 468.00 102.00
M 467.00 133.00 
C 475.97 135.09 473.98 149.02 464.00 148.00 C 454.02 146.97 443.06 148.70 433.00 148.00 C 422.94 147.30 411.95 148.85 402.00 148.00 C 392.05 147.15 395.18 131.42 405.00 133.00 C 414.83 134.59 426.08 131.55 436.00 133.00 C 445.92 134.45 457.25 130.73 467.00 133.00 Z"/>
</g>
<g fill="None" fill-opacity="0.0" stroke="#767D80" stroke-opacity="1.00" stroke-width="0.3"><path d="
M 384.00 66.00 
C 396.50 52.67 409.71 39.45 423.00 27.00
C 422.37 25.89 411.53 36.85 409.25 39.25 C 406.97 41.65 398.13 50.50 395.75 52.75 C 393.37 55.00 382.91 65.38 384.00 66.00 Z"/>
</g>
<g fill="None" fill-opacity="0.0" stroke="#D8E6EB" stroke-opacity="1.00" stroke-width="0.3"><path d="
M 384.00 66.00 
C 391.55 70.27 401.50 62.64 410.00 66.00 C 418.50 69.36 426.45 61.46 423.00 53.00 C 419.55 44.54 427.28 34.56 423.00 27.00
C 409.71 39.45 396.50 52.67 384.00 66.00 Z"/>
</g>
<g fill="None" fill-opacity="0.0" stroke="#000000" stroke-opacity="1.00" stroke-width="0.3"><path d="
M 468.00 102.00 
C 458.42 99.09 446.90 104.02 437.00 102.00 C 427.10 99.98 415.92 104.48 406.00 102.00 C 396.08 99.52 391.60 114.15 401.33 116.67 C 411.06 119.19 422.09 115.47 432.00 117.00 C 441.91 118.53 453.28 114.95 463.00 117.00 C 472.72 119.05 476.87 104.69 468.00 102.00 Z"/>
</g>
<g fill="None" fill-opacity="0.0" stroke="#000000" stroke-opacity="1.00" stroke-width="0.3"><path d="
M 467.00 133.00 
C 457.25 130.73 445.92 134.45 436.00 133.00 C 426.08 131.55 414.83 134.59 405.00 133.00 C 395.18 131.42 392.05 147.15 402.00 148.00 C 411.95 148.85 422.94 147.30 433.00 148.00 C 443.06 148.70 454.02 146.97 464.00 148.00 C 473.98 149.02 475.97 135.09 467.00 133.00 Z"/>
</g>
<g fill="None" fill-opacity="0.0" stroke="#000000" stroke-opacity="1.00" stroke-width="0.3"><path d="
M 337.00 244.00 
C 344.36 236.34 354.06 234.89 360.07 225.07 C 366.08 215.26 356.25 205.03 351.92 196.08 C 347.60 187.12 337.00 177.71 325.69 184.69 C 314.39 191.68 308.66 192.22 297.23 185.77 C 285.80 179.32 284.41 172.25 283.98 158.02 C 283.54 143.80 267.49 144.30 257.00 144.00 C 246.51 143.70 229.76 144.63 230.00 159.00 C 230.23 173.37 227.43 179.99 216.08 186.08 C 204.72 192.16 199.77 191.75 188.22 184.78 C 176.68 177.80 166.36 187.50 161.77 196.77 C 157.18 206.04 148.24 215.52 154.70 225.30 C 161.16 235.08 169.02 236.41 177.00 244.00
C 175.41 251.53 175.40 260.48 177.00 268.00
C 169.18 275.44 160.27 277.50 154.31 287.31 C 148.34 297.11 157.51 306.93 162.08 315.92 C 166.65 324.91 176.85 334.32 188.31 327.31 C 199.76 320.29 205.21 319.85 216.77 326.23 C 228.33 332.61 229.54 339.83 230.02 353.98 C 230.51 368.12 246.52 367.75 257.00 368.00 C 267.48 368.25 284.32 367.45 284.01 353.01 C 283.70 338.57 286.69 332.11 297.92 325.92 C 309.16 319.74 314.39 320.26 325.78 327.22 C 337.16 334.19 347.94 324.44 352.23 315.23 C 356.52 306.02 366.34 296.02 359.75 286.25 C 353.16 276.47 344.49 275.88 337.00 268.00
C 338.65 260.59 338.65 251.44 337.00 244.00
M 211.00 304.00 
C 199.74 300.79 188.89 315.25 178.00 315.00
C 175.45 307.27 168.43 301.18 167.00 293.00
C 175.42 289.72 176.48 284.35 185.23 280.23 C 193.98 276.11 191.07 264.40 191.00 256.00 C 190.93 247.60 194.20 236.57 185.75 232.25 C 177.31 227.92 175.28 222.40 167.00 219.00
C 168.47 210.86 175.24 204.62 178.00 197.00
C 192.08 199.64 207.47 215.94 220.00 201.00
C 225.71 197.20 230.11 195.35 236.68 192.68 C 243.25 190.01 242.01 180.67 243.00 174.00 C 243.99 167.33 242.49 157.42 252.00 158.00 C 261.52 158.58 269.55 156.39 270.00 166.00 C 270.45 175.61 271.30 180.46 272.98 188.02 C 274.65 195.59 283.58 193.98 288.69 197.31 C 293.81 200.63 298.47 205.65 304.08 207.92 C 309.69 210.19 317.79 203.55 323.07 202.07 C 328.36 200.60 335.87 193.85 338.30 201.70 C 340.74 209.54 346.32 210.94 347.00 219.00
C 338.25 222.34 337.32 228.00 328.25 232.25 C 319.19 236.51 324.00 248.00 324.00 256.00 C 324.00 264.00 319.18 275.47 328.25 279.75 C 337.31 284.04 338.25 289.62 347.00 293.00
C 343.61 299.91 340.20 314.52 331.93 314.07 C 323.65 313.62 312.96 300.28 304.00 304.00 C 295.04 307.72 289.83 316.03 279.78 318.78 C 269.73 321.52 270.78 337.44 270.00 347.00 C 269.23 356.57 245.94 357.96 244.01 347.99 C 242.08 338.02 244.91 323.05 234.97 319.03 C 225.04 315.00 218.52 311.19 211.00 304.00 Z"/>
</g>
<g fill="None" fill-opacity="0.0" stroke="#8B9AA6" stroke-opacity="1.00" stroke-width="0.3"><path d="
M 220.00 201.00 
C 208.66 212.45 203.94 232.40 202.07 248.07 C 200.21 263.74 202.17 290.73 211.00 304.00
C 218.52 311.19 225.04 315.00 234.97 319.03 C 244.91 323.05 242.08 338.02 244.01 347.99 C 245.94 357.96 269.23 356.57 270.00 347.00 C 270.78 337.44 269.73 321.52 279.78 318.78 C 289.83 316.03 295.04 307.72 304.00 304.00 C 312.96 300.28 323.65 313.62 331.93 314.07 C 340.20 314.52 343.61 299.91 347.00 293.00
C 338.25 289.62 337.31 284.04 328.25 279.75 C 319.18 275.47 324.00 264.00 324.00 256.00 C 324.00 248.00 319.19 236.51 328.25 232.25 C 337.32 228.00 338.25 222.34 347.00 219.00
C 346.32 210.94 340.74 209.54 338.30 201.70 C 335.87 193.85 328.36 200.60 323.07 202.07 C 317.79 203.55 309.69 210.19 304.08 207.92 C 298.47 205.65 293.81 200.63 288.69 197.31 C 283.58 193.98 274.65 195.59 272.98 188.02 C 271.30 180.46 270.45 175.61 270.00 166.00 C 269.55 156.39 261.52 158.58 252.00 158.00 C 242.49 157.42 243.99 167.33 243.00 174.00 C 242.01 180.67 243.25 190.01 236.68 192.68 C 230.11 195.35 225.71 197.20 220.00 201.00
M 265.00 210.00 
C 298.31 215.41 314.38 257.93 293.25 284.25 C 272.11 310.56 229.40 307.07 215.08 274.92 C 200.76 242.78 228.19 204.02 265.00 210.00 Z"/>
</g>
<g fill="None" fill-opacity="0.0" stroke="#798B96" stroke-opacity="1.00" stroke-width="0.3"><path d="
M 211.00 304.00 
C 202.17 290.73 200.21 263.74 202.07 248.07 C 203.94 232.40 208.66 212.45 220.00 201.00
C 207.47 215.94 192.08 199.64 178.00 197.00
C 175.24 204.62 168.47 210.86 167.00 219.00
C 175.28 222.40 177.31 227.92 185.75 232.25 C 194.20 236.57 190.93 247.60 191.00 256.00 C 191.07 264.40 193.98 276.11 185.23 280.23 C 176.48 284.35 175.42 289.72 167.00 293.00
C 168.43 301.18 175.45 307.27 178.00 315.00
C 188.89 315.25 199.74 300.79 211.00 304.00 Z"/>
</g>
<g fill="None" fill-opacity="0.0" stroke="#000000" stroke-opacity="1.00" stroke-width="0.3"><path d="
M 328.00 512.00 
L 331.00 512.00
C 345.43 510.78 346.78 494.72 344.00 483.00
C 365.30 476.25 386.06 463.35 403.92 449.92 C 421.78 436.49 436.78 422.19 450.25 404.25 C 463.71 386.30 476.13 366.07 484.02 345.02 C 491.92 323.98 498.25 300.13 499.61 280.75 C 500.96 261.37 502.91 232.86 496.13 216.92 C 489.35 200.98 457.14 203.59 455.64 222.30 C 454.15 241.01 458.13 266.83 454.26 286.25 C 450.40 305.67 443.93 332.35 432.31 351.31 C 420.68 370.26 409.58 388.21 392.25 403.25 C 374.91 418.28 356.98 430.87 336.00 439.00
C 338.02 421.54 316.83 417.24 307.75 426.75 C 298.67 436.25 288.14 441.32 279.75 449.75 C 271.36 458.18 253.32 465.78 258.23 479.77 C 263.14 493.76 280.23 491.77 290.98 498.03 C 301.72 504.28 317.38 505.50 328.00 512.00
M 331.00 497.00 
C 311.52 490.49 292.62 482.21 273.00 476.00
C 286.77 461.38 304.58 447.45 321.00 436.00
C 319.36 446.05 325.19 459.83 335.22 455.22 C 345.26 450.62 352.07 448.77 360.70 443.70 C 369.32 438.62 376.10 434.29 383.75 428.75 C 391.40 423.20 397.14 418.39 403.75 411.75 C 410.37 405.11 416.51 399.41 422.25 392.25 C 427.98 385.09 432.99 378.77 437.92 370.92 C 442.85 363.06 447.19 354.95 451.31 346.31 C 455.42 337.66 458.45 329.12 461.78 319.78 C 465.10 310.43 465.97 299.72 468.93 289.93 C 471.88 280.13 468.89 263.75 471.00 254.00 C 473.11 244.25 463.73 227.04 474.08 222.08 C 484.44 217.13 486.67 237.15 486.00 246.00 C 485.33 254.85 486.64 272.32 485.00 282.00 C 483.36 291.68 481.43 304.50 479.01 314.01 C 476.59 323.52 472.98 332.79 469.68 341.68 C 466.38 350.57 461.81 358.39 457.70 366.70 C 453.58 375.00 447.99 382.29 442.75 389.75 C 437.51 397.22 432.58 403.52 426.25 410.25 C 419.92 416.97 413.69 422.79 406.77 428.77 C 399.85 434.75 393.95 440.19 385.92 444.92 C 377.89 449.64 371.42 455.51 362.31 459.31 C 353.19 463.10 347.39 468.24 336.78 470.78 C 326.16 473.31 327.25 487.13 330.93 496.07 Z"/>
</g>
<g fill="None" fill-opacity="0.0" stroke="#000000" stroke-opacity="1.00" stroke-width="0.3"><path d="
M 265.00 210.00 
C 228.19 204.02 200.76 242.78 215.08 274.92 C 229.40 307.07 272.11 310.56 293.25 284.25 C 314.38 257.93 298.31 215.41 265.00 210.00
M 265.00 225.00 
C 287.00 229.56 296.10 260.69 280.75 276.75 C 265.40 292.81 237.04 290.85 228.08 267.92 C 219.11 244.99 239.25 219.67 265.00 225.00 Z"/>
</g>
<g fill="None" fill-opacity="0.0" stroke="#98E29A" stroke-opacity="1.00" stroke-width="0.3"><path d="
M 330.93 496.07 
C 327.25 487.13 326.16 473.31 336.78 470.78 C 347.39 468.24 353.19 463.10 362.31 459.31 C 371.42 455.51 377.89 449.64 385.92 444.92 C 393.95 440.19 399.85 434.75 406.77 428.77 C 413.69 422.79 419.92 416.97 426.25 410.25 C 432.58 403.52 437.51 397.22 442.75 389.75 C 447.99 382.29 453.58 375.00 457.70 366.70 C 461.81 358.39 466.38 350.57 469.68 341.68 C 472.98 332.79 476.59 323.52 479.01 314.01 C 481.43 304.50 483.36 291.68 485.00 282.00 C 486.64 272.32 485.33 254.85 486.00 246.00 C 486.67 237.15 484.44 217.13 474.08 222.08 C 463.73 227.04 473.11 244.25 471.00 254.00 C 468.89 263.75 471.88 280.13 468.93 289.93 C 465.97 299.72 465.10 310.43 461.78 319.78 C 458.45 329.12 455.42 337.66 451.31 346.31 C 447.19 354.95 442.85 363.06 437.92 370.92 C 432.99 378.77 427.98 385.09 422.25 392.25 C 416.51 399.41 410.37 405.11 403.75 411.75 C 397.14 418.39 391.40 423.20 383.75 428.75 C 376.10 434.29 369.32 438.62 360.70 443.70 C 352.07 448.77 345.26 450.62 335.22 455.22 C 325.19 459.83 319.36 446.05 321.00 436.00
C 304.58 447.45 286.77 461.38 273.00 476.00
C 292.62 482.21 311.52 490.49 331.00 497.00 Z"/>
</g>
<g fill="None" fill-opacity="0.0" stroke="#000000" stroke-opacity="0.02" stroke-width="0.3"><path d="
M 265.00 225.00 
C 239.25 219.67 219.11 244.99 228.08 267.92 C 237.04 290.85 265.40 292.81 280.75 276.75 C 296.10 260.69 287.00 229.56 265.00 225.00 Z"/>
</g>
<g fill="None" fill-opacity="0.0" stroke="#000000" stroke-opacity="0.99" stroke-width="0.3"><path d="
M 121.00 496.00 
C 117.61 494.07 119.29 489.67 114.00 488.00
C 99.55 485.41 83.54 489.97 69.00 488.00 C 54.46 486.03 37.54 491.11 24.00 487.00
C 13.22 483.73 15.88 471.66 16.00 462.00 C 16.12 452.34 12.82 439.54 24.00 436.00
C 40.12 430.91 61.51 435.99 79.00 435.00 C 96.49 434.01 117.51 434.02 135.00 435.00 C 152.49 435.98 173.96 430.93 190.00 436.00
C 200.55 439.34 198.11 451.53 198.00 461.00 C 197.89 470.47 201.00 483.52 190.00 487.00
C 177.05 491.09 160.77 485.67 147.00 488.00
C 142.95 489.23 140.06 491.08 140.00 496.00
C 144.10 507.57 178.38 503.70 191.75 502.19 C 205.13 500.69 212.32 491.59 213.00 478.00 C 213.68 464.41 215.57 434.95 206.00 428.00
C 215.00 418.87 215.26 391.95 212.39 374.75 C 209.53 357.55 199.98 353.59 180.00 354.00 C 160.02 354.41 128.07 354.07 107.00 354.00 C 85.93 353.93 53.97 354.60 34.00 354.00 C 14.03 353.40 4.02 357.92 1.65 375.31 C -0.73 392.69 -1.29 418.67 8.00 429.00
C -0.65 434.10 1.27 448.66 1.00 460.00 C 0.73 471.34 0.16 473.46 1.40 482.25 C 2.63 491.03 8.35 496.67 16.70 500.29 C 25.05 503.90 46.36 503.10 58.00 503.00 C 69.64 502.90 72.18 502.13 82.00 503.00 C 91.82 503.87 96.80 500.58 106.00 503.00 C 115.20 505.42 116.32 497.49 121.00 496.00
M 190.00 369.00 
C 204.94 373.72 194.98 389.99 198.00 404.00 C 201.02 418.01 185.41 423.28 172.00 421.00 C 158.59 418.72 142.73 421.68 129.00 421.00 C 115.27 420.32 99.64 420.54 86.00 421.00 C 72.36 421.46 56.10 419.09 43.00 421.00 C 29.90 422.91 13.02 419.20 16.00 405.00 C 18.98 390.80 8.65 373.85 24.00 369.00
C 40.12 363.91 61.51 368.99 79.00 368.00 C 96.49 367.01 117.51 367.02 135.00 368.00 C 152.49 368.98 173.96 363.93 190.00 369.00 Z"/>
</g>
<g fill="None" fill-opacity="0.0" stroke="#2E3337" stroke-opacity="1.00" stroke-width="0.3"><path d="
M 24.00 369.00 
C 41.57 365.85 61.09 369.84 79.00 369.00 C 96.91 368.16 116.02 368.08 134.00 369.00 C 151.98 369.92 172.29 365.83 190.00 369.00
C 173.96 363.93 152.49 368.98 135.00 368.00 C 117.51 367.02 96.49 367.01 79.00 368.00 C 61.51 368.99 40.12 363.91 24.00 369.00 Z"/>
</g>
<g fill="None" fill-opacity="0.0" stroke="#8796A2" stroke-opacity="1.00" stroke-width="0.3"><path d="
M 190.00 369.00 
C 172.29 365.83 151.98 369.92 134.00 369.00 C 116.02 368.08 96.91 368.16 79.00 369.00 C 61.09 369.84 41.57 365.85 24.00 369.00
C 8.65 373.85 18.98 390.80 16.00 405.00 C 13.02 419.20 29.90 422.91 43.00 421.00 C 56.10 419.09 72.36 421.46 86.00 421.00 C 99.64 420.54 115.27 420.32 129.00 421.00 C 142.73 421.68 158.59 418.72 172.00 421.00 C 185.41 423.28 201.02 418.01 198.00 404.00 C 194.98 389.99 204.94 373.72 190.00 369.00
M 51.00 373.00 
C 78.01 378.59 68.43 422.72 41.00 416.00 C 13.57 409.28 23.50 367.31 51.00 373.00
M 98.00 373.00 
C 125.00 378.59 114.43 423.09 87.33 415.67 C 60.23 408.25 70.95 367.40 98.00 373.00
M 182.00 387.00 
C 191.28 389.82 186.57 403.00 178.00 402.00 C 169.43 401.00 155.94 401.90 148.00 402.00 C 140.06 402.10 125.91 403.09 128.00 393.00 C 130.09 382.91 144.48 386.80 152.00 387.00 C 159.52 387.20 174.51 384.73 182.00 387.00 Z"/>
</g>
<g fill="None" fill-opacity="0.0" stroke="#000000" stroke-opacity="1.00" stroke-width="0.3"><path d="
M 51.00 373.00 
C 23.50 367.31 13.57 409.28 41.00 416.00 C 68.43 422.72 78.01 378.59 51.00 373.00
M 48.00 388.00 
C 56.17 389.90 52.18 403.86 44.00 401.00 C 35.81 398.14 39.77 386.09 48.00 388.00 Z"/>
</g>
<g fill="None" fill-opacity="0.0" stroke="#000000" stroke-opacity="1.00" stroke-width="0.3"><path d="
M 98.00 373.00 
C 70.95 367.40 60.23 408.25 87.33 415.67 C 114.43 423.09 125.00 378.59 98.00 373.00
M 95.00 388.00 
C 102.97 389.85 98.50 404.23 90.33 400.67 C 82.16 397.11 87.27 386.20 95.00 388.00 Z"/>
</g>
<g fill="None" fill-opacity="0.0" stroke="#000000" stroke-opacity="1.00" stroke-width="0.3"><path d="
M 182.00 387.00 
C 174.51 384.73 159.52 387.20 152.00 387.00 C 144.48 386.80 130.09 382.91 128.00 393.00 C 125.91 403.09 140.06 402.10 148.00 402.00 C 155.94 401.90 169.43 401.00 178.00 402.00 C 186.57 403.00 191.28 389.82 182.00 387.00 Z"/>
</g>
<g fill="None" fill-opacity="0.0" stroke="#94DC96" stroke-opacity="1.00" stroke-width="0.3"><path d="
M 48.00 388.00 
C 39.77 386.09 35.81 398.14 44.00 401.00 C 52.18 403.86 56.17 389.90 48.00 388.00 Z"/>
</g>
<g fill="None" fill-opacity="0.0" stroke="#F4D872" stroke-opacity="1.00" stroke-width="0.3"><path d="
M 95.00 388.00 
C 87.27 386.20 82.16 397.11 90.33 400.67 C 98.50 404.23 102.97 389.85 95.00 388.00 Z"/>
</g>
<g fill="None" fill-opacity="0.0" stroke="#2F363B" stroke-opacity="1.00" stroke-width="0.3"><path d="
M 24.00 436.00 
C 27.73 435.33 32.21 436.00 36.00 436.00
C 52.95 436.00 70.06 435.50 87.00 436.00 C 103.94 436.50 121.12 434.67 138.00 436.00 C 154.88 437.33 173.36 433.02 190.00 436.00
C 173.96 430.93 152.49 435.98 135.00 435.00 C 117.51 434.02 96.49 434.01 79.00 435.00 C 61.51 435.99 40.12 430.91 24.00 436.00 Z"/>
</g>
<g fill="None" fill-opacity="0.0" stroke="#576A74" stroke-opacity="1.00" stroke-width="0.3"><path d="
M 24.00 487.00 
C 27.75 487.63 32.18 487.00 36.00 487.00
C 35.14 486.39 34.21 481.33 36.00 481.00
C 28.40 477.16 26.14 471.18 24.02 462.98 C 21.91 454.77 30.72 449.15 34.00 443.00
C 35.07 440.99 35.15 438.16 36.00 436.00
C 32.21 436.00 27.73 435.33 24.00 436.00
C 12.82 439.54 16.12 452.34 16.00 462.00 C 15.88 471.66 13.22 483.73 24.00 487.00 Z"/>
</g>
<g fill="None" fill-opacity="0.0" stroke="#788A96" stroke-opacity="1.00" stroke-width="0.3"><path d="
M 34.00 443.00 
C 46.87 434.35 67.04 444.16 67.93 460.07 C 68.81 475.98 50.94 488.55 36.00 481.00
C 34.21 481.33 35.14 486.39 36.00 487.00
C 48.69 487.00 62.41 486.16 75.00 487.00 C 87.59 487.84 102.54 484.38 114.00 488.00
C 119.29 489.67 117.61 494.07 121.00 496.00
C 124.68 494.83 136.33 494.81 140.00 496.00
C 140.06 491.08 142.95 489.23 147.00 488.00
C 160.05 484.04 176.20 489.47 190.00 487.00
C 201.00 483.52 197.89 470.47 198.00 461.00 C 198.11 451.53 200.55 439.34 190.00 436.00
C 173.36 433.02 154.88 437.33 138.00 436.00 C 121.12 434.67 103.94 436.50 87.00 436.00 C 70.06 435.50 52.95 436.00 36.00 436.00
C 35.15 438.16 35.07 440.99 34.00 443.00
M 98.00 440.00 
C 124.97 445.59 114.36 490.08 87.33 482.67 C 60.30 475.26 70.79 434.36 98.00 440.00
M 182.00 454.00 
C 191.28 456.82 186.57 470.00 178.00 469.00 C 169.43 468.00 155.94 468.90 148.00 469.00 C 140.06 469.10 125.91 470.09 128.00 460.00 C 130.09 449.91 144.48 453.80 152.00 454.00 C 159.52 454.20 174.51 451.73 182.00 454.00 Z"/>
</g>
<g fill="None" fill-opacity="0.0" stroke="#000000" stroke-opacity="1.00" stroke-width="0.3"><path d="
M 34.00 443.00 
C 30.72 449.15 21.91 454.77 24.02 462.98 C 26.14 471.18 28.40 477.16 36.00 481.00
C 50.94 488.55 68.81 475.98 67.93 460.07 C 67.04 444.16 46.87 434.35 34.00 443.00
M 49.00 455.00 
C 56.54 457.83 51.23 471.46 43.33 467.67 C 35.43 463.88 41.02 452.01 49.00 455.00 Z"/>
</g>
<g fill="None" fill-opacity="0.0" stroke="#000000" stroke-opacity="1.00" stroke-width="0.3"><path d="
M 98.00 440.00 
C 70.79 434.36 60.30 475.26 87.33 482.67 C 114.36 490.08 124.97 445.59 98.00 440.00
M 95.00 455.00 
C 102.97 456.85 98.50 471.23 90.33 467.67 C 82.16 464.11 87.27 453.20 95.00 455.00 Z"/>
</g>
<g fill="None" fill-opacity="0.0" stroke="#000000" stroke-opacity="1.00" stroke-width="0.3"><path d="
M 182.00 454.00 
C 174.51 451.73 159.52 454.20 152.00 454.00 C 144.48 453.80 130.09 449.91 128.00 460.00 C 125.91 470.09 140.06 469.10 148.00 469.00 C 155.94 468.90 169.43 468.00 178.00 469.00 C 186.57 470.00 191.28 456.82 182.00 454.00 Z"/>
</g>
<g fill="None" fill-opacity="0.0" stroke="#F4D771" stroke-opacity="1.00" stroke-width="0.3"><path d="
M 49.00 455.00 
C 41.02 452.01 35.43 463.88 43.33 467.67 C 51.23 471.46 56.54 457.83 49.00 455.00 Z"/>
</g>
<g fill="None" fill-opacity="0.0" stroke="#94DD96" stroke-opacity="1.00" stroke-width="0.3"><path d="
M 95.00 455.00 
C 87.27 453.20 82.16 464.11 90.33 467.67 C 98.50 471.23 102.97 456.85 95.00 455.00 Z"/>
</g>
<g fill="None" fill-opacity="0.0" stroke="#3E484E" stroke-opacity="1.00" stroke-width="0.3"><path d="
M 114.00 488.00 
C 102.54 484.38 87.59 487.84 75.00 487.00 C 62.41 486.16 48.69 487.00 36.00 487.00
C 32.18 487.00 27.75 487.63 24.00 487.00
C 37.54 491.11 54.46 486.03 69.00 488.00 C 83.54 489.97 99.55 485.41 114.00 488.00 Z"/>
</g>
<g fill="None" fill-opacity="0.0" stroke="#404A50" stroke-opacity="1.00" stroke-width="0.3"><path d="
M 147.00 488.00 
C 160.77 485.67 177.05 491.09 190.00 487.00
C 176.20 489.47 160.05 484.04 147.00 488.00 Z"/>
</g>
<g fill="#000000" fill-opacity="0.01" stroke="None">
<path d="
M 0.00 512.00 
L 328.00 512.00
C 317.38 505.50 301.72 504.28 290.98 498.03 C 280.23 491.77 263.14 493.76 258.23 479.77 C 253.32 465.78 271.36 458.18 279.75 449.75 C 288.14 441.32 298.67 436.25 307.75 426.75 C 316.83 417.24 338.02 421.54 336.00 439.00
C 356.98 430.87 374.91 418.28 392.25 403.25 C 409.58 388.21 420.68 370.26 432.31 351.31 C 443.93 332.35 450.40 305.67 454.26 286.25 C 458.13 266.83 454.15 241.01 455.64 222.30 C 457.14 203.59 489.35 200.98 496.13 216.92 C 502.91 232.86 500.96 261.37 499.61 280.75 C 498.25 300.13 491.92 323.98 484.02 345.02 C 476.13 366.07 463.71 386.30 450.25 404.25 C 436.78 422.19 421.78 436.49 403.92 449.92 C 386.06 463.35 365.30 476.25 344.00 483.00
C 346.78 494.72 345.43 510.78 331.00 512.00
L 512.00 512.00
L 512.00 0.00
L 494.00 0.00
C 500.62 2.91 509.16 6.30 510.71 14.30 C 512.25 22.29 510.21 39.57 511.00 49.00 C 511.79 58.43 510.64 61.06 511.00 69.00 C 511.36 76.94 510.82 81.69 511.00 89.00 C 511.18 96.31 510.89 101.89 511.00 109.00 C 511.11 116.11 510.89 120.69 511.00 128.00 C 511.11 135.31 510.82 140.03 511.00 148.00 C 511.18 155.97 510.63 158.49 511.00 168.00 C 511.37 177.51 504.32 189.30 493.99 189.99 C 483.66 190.69 482.94 187.96 474.00 190.00 C 465.06 192.04 465.82 186.04 460.00 184.00
C 456.89 182.91 444.00 182.70 441.00 184.00
C 439.87 194.05 419.25 189.70 411.00 190.00 C 402.75 190.30 383.82 190.75 375.00 190.00 C 366.18 189.25 358.01 182.28 357.80 172.75 C 357.60 163.23 358.31 146.49 358.00 136.00 C 357.69 125.51 358.33 110.39 358.00 100.00 C 357.67 89.61 357.51 81.35 360.26 74.25 C 363.02 67.15 363.94 64.17 370.25 58.25 C 376.56 52.32 382.64 45.84 388.75 39.75 C 394.87 33.66 400.82 28.02 406.75 21.75 C 412.68 15.48 418.35 9.96 423.75 6.74 C 429.15 3.51 434.96 1.05 444.00 0.00
L 186.00 0.00
C 197.63 5.13 206.66 6.24 217.25 11.19 C 227.85 16.14 236.80 17.49 247.70 22.35 C 258.59 27.21 259.70 44.28 248.23 52.23 C 236.76 60.19 224.17 67.87 213.30 79.30 C 202.44 90.74 178.37 97.88 178.00 73.00
C 165.85 74.84 155.08 91.27 143.00 84.00
C 137.85 87.98 132.28 91.96 127.00 96.00
C 132.78 106.06 113.13 114.92 107.75 123.75 C 102.36 132.57 91.55 141.74 86.23 152.23 C 80.91 162.72 74.09 173.95 70.02 186.02 C 65.96 198.10 61.30 212.55 60.00 226.00 C 58.70 239.45 55.04 258.36 58.00 272.00 C 60.96 285.64 57.70 300.99 42.92 304.92 C 28.15 308.86 15.70 297.14 15.00 283.00 C 14.31 268.86 12.72 250.27 14.00 236.00 C 15.28 221.73 18.13 207.46 21.32 194.32 C 24.51 181.18 29.28 169.17 34.31 157.31 C 39.33 145.44 45.18 135.22 51.77 124.77 C 58.36 114.32 65.46 105.50 73.25 96.25 C 81.03 87.00 89.27 78.99 98.25 71.25 C 107.23 63.51 116.98 56.74 124.75 51.61 C 132.52 46.47 137.19 42.89 146.03 39.03 C 154.88 35.17 161.25 29.80 170.00 29.00
C 167.93 18.00 166.84 3.18 181.00 0.00
L 0.00 0.00
L 0.00 512.00
M 337.00 244.00 
C 338.65 251.44 338.65 260.59 337.00 268.00
C 344.49 275.88 353.16 276.47 359.75 286.25 C 366.34 296.02 356.52 306.02 352.23 315.23 C 347.94 324.44 337.16 334.19 325.78 327.22 C 314.39 320.26 309.16 319.74 297.92 325.92 C 286.69 332.11 283.70 338.57 284.01 353.01 C 284.32 367.45 267.48 368.25 257.00 368.00 C 246.52 367.75 230.51 368.12 230.02 353.98 C 229.54 339.83 228.33 332.61 216.77 326.23 C 205.21 319.85 199.76 320.29 188.31 327.31 C 176.85 334.32 166.65 324.91 162.08 315.92 C 157.51 306.93 148.34 297.11 154.31 287.31 C 160.27 277.50 169.18 275.44 177.00 268.00
C 175.40 260.48 175.41 251.53 177.00 244.00
C 169.02 236.41 161.16 235.08 154.70 225.30 C 148.24 215.52 157.18 206.04 161.77 196.77 C 166.36 187.50 176.68 177.80 188.22 184.78 C 199.77 191.75 204.72 192.16 216.08 186.08 C 227.43 179.99 230.23 173.37 230.00 159.00 C 229.76 144.63 246.51 143.70 257.00 144.00 C 267.49 144.30 283.54 143.80 283.98 158.02 C 284.41 172.25 285.80 179.32 297.23 185.77 C 308.66 192.22 314.39 191.68 325.69 184.69 C 337.00 177.71 347.60 187.12 351.92 196.08 C 356.25 205.03 366.08 215.26 360.07 225.07 C 354.06 234.89 344.36 236.34 337.00 244.00
M 140.00 496.00 
C 136.33 494.81 124.68 494.83 121.00 496.00
C 116.32 497.49 115.20 505.42 106.00 503.00 C 96.80 500.58 91.82 503.87 82.00 503.00 C 72.18 502.13 69.64 502.90 58.00 503.00 C 46.36 503.10 25.05 503.90 16.70 500.29 C 8.35 496.67 2.63 491.03 1.40 482.25 C 0.16 473.46 0.73 471.34 1.00 460.00 C 1.27 448.66 -0.65 434.10 8.00 429.00
C -1.29 418.67 -0.73 392.69 1.65 375.31 C 4.02 357.92 14.03 353.40 34.00 354.00 C 53.97 354.60 85.93 353.93 107.00 354.00 C 128.07 354.07 160.02 354.41 180.00 354.00 C 199.98 353.59 209.53 357.55 212.39 374.75 C 215.26 391.95 215.00 418.87 206.00 428.00
C 215.57 434.95 213.68 464.41 213.00 478.00 C 212.32 491.59 205.13 500.69 191.75 502.19 C 178.38 503.70 144.10 507.57 140.00 496.00 Z"/>
</g>
<g fill="#000000" fill-opacity="1.00" stroke="None">
<path d="
M 127.00 96.00 
C 121.40 86.27 109.94 100.13 104.75 105.75 C 99.57 111.37 90.89 118.94 86.25 126.25 C 81.61 133.55 75.21 141.43 70.75 149.75 C 66.28 158.06 61.64 166.59 58.08 176.08 C 54.51 185.56 50.95 194.89 48.67 205.67 C 46.39 216.46 43.46 227.27 43.67 239.67 C 43.88 252.07 40.35 263.39 43.98 277.02 C 47.60 290.66 29.86 294.81 29.22 280.78 C 28.58 266.75 27.10 255.70 28.00 243.00 C 28.90 230.30 30.71 220.93 32.78 209.78 C 34.85 198.63 37.54 188.89 40.98 178.98 C 44.41 169.06 48.47 160.82 52.92 151.92 C 57.37 143.03 61.80 135.13 67.30 127.30 C 72.81 119.48 78.03 112.34 84.25 105.25 C 90.48 98.17 96.95 92.36 103.75 85.75 C 110.56 79.15 117.84 74.29 125.70 68.70 C 133.55 63.11 140.54 58.19 149.70 53.70 C 158.86 49.21 165.80 44.61 176.68 41.68 C 187.56 38.74 187.33 24.54 183.00 15.00
C 202.51 21.42 221.42 29.68 241.00 36.00
C 227.12 50.50 209.80 64.75 193.00 76.00
C 193.90 68.24 190.08 52.52 180.78 55.78 C 171.48 59.04 165.19 62.20 157.31 66.31 C 149.42 70.41 139.28 73.96 143.00 84.00
C 155.08 91.27 165.85 74.84 178.00 73.00
C 178.37 97.88 202.44 90.74 213.30 79.30 C 224.17 67.87 236.76 60.19 248.23 52.23 C 259.70 44.28 258.59 27.21 247.70 22.35 C 236.80 17.49 227.85 16.14 217.25 11.19 C 206.66 6.24 197.63 5.13 186.00 0.00
L 181.00 0.00
C 166.84 3.18 167.93 18.00 170.00 29.00
C 161.25 29.80 154.88 35.17 146.03 39.03 C 137.19 42.89 132.52 46.47 124.75 51.61 C 116.98 56.74 107.23 63.51 98.25 71.25 C 89.27 78.99 81.03 87.00 73.25 96.25 C 65.46 105.50 58.36 114.32 51.77 124.77 C 45.18 135.22 39.33 145.44 34.31 157.31 C 29.28 169.17 24.51 181.18 21.32 194.32 C 18.13 207.46 15.28 221.73 14.00 236.00 C 12.72 250.27 14.31 268.86 15.00 283.00 C 15.70 297.14 28.15 308.86 42.92 304.92 C 57.70 300.99 60.96 285.64 58.00 272.00 C 55.04 258.36 58.70 239.45 60.00 226.00 C 61.30 212.55 65.96 198.10 70.02 186.02 C 74.09 173.95 80.91 162.72 86.23 152.23 C 91.55 141.74 102.36 132.57 107.75 123.75 C 113.13 114.92 132.78 106.06 127.00 96.00 Z"/>
</g>
<g fill="#000000" fill-opacity="1.00" stroke="None">
<path d="
M 441.00 184.00 
C 442.38 171.70 422.81 177.11 414.00 176.00 C 405.19 174.89 389.50 177.57 379.00 176.00 C 368.50 174.43 372.33 156.46 372.00 147.00 C 371.67 137.54 372.20 121.63 372.00 112.00 C 371.80 102.37 371.81 101.25 372.00 94.00 C 372.19 86.75 373.96 86.27 378.70 82.70 C 383.43 79.13 387.71 81.69 394.00 81.00 C 400.29 80.31 404.66 81.69 412.00 81.00 C 419.34 80.31 419.03 82.47 427.69 78.69 C 436.36 74.92 439.54 62.68 438.00 54.00 C 436.46 45.32 438.61 42.91 438.00 36.00 C 437.39 29.09 437.43 25.32 440.31 20.31 C 443.19 15.30 446.65 15.43 452.00 15.00 C 457.35 14.57 464.10 15.34 470.00 15.00 C 475.90 14.66 481.62 15.47 488.00 15.00 C 494.38 14.53 496.85 18.10 496.00 25.00 C 495.15 31.90 496.31 34.06 496.00 42.00 C 495.69 49.94 496.05 49.88 496.00 60.00 C 495.95 70.12 496.03 84.89 496.00 95.00 C 495.97 105.11 495.97 105.19 496.00 113.00 C 496.03 120.81 495.90 124.28 496.00 131.00 C 496.10 137.72 495.75 142.90 496.00 149.00 C 496.25 155.10 495.40 160.44 496.00 166.00 C 496.60 171.56 494.68 177.33 488.00 176.00 C 481.31 174.66 476.97 178.34 470.00 176.00 C 463.03 173.66 463.21 182.17 460.00 184.00
C 465.82 186.04 465.06 192.04 474.00 190.00 C 482.94 187.96 483.66 190.69 493.99 189.99 C 504.32 189.30 511.37 177.51 511.00 168.00 C 510.63 158.49 511.18 155.97 511.00 148.00 C 510.82 140.03 511.11 135.31 511.00 128.00 C 510.89 120.69 511.11 116.11 511.00 109.00 C 510.89 101.89 511.18 96.31 511.00 89.00 C 510.82 81.69 511.36 76.94 511.00 69.00 C 510.64 61.06 511.79 58.43 511.00 49.00 C 510.21 39.57 512.25 22.29 510.71 14.30 C 509.16 6.30 500.62 2.91 494.00 0.00
L 444.00 0.00
C 434.96 1.05 429.15 3.51 423.75 6.74 C 418.35 9.96 412.68 15.48 406.75 21.75 C 400.82 28.02 394.87 33.66 388.75 39.75 C 382.64 45.84 376.56 52.32 370.25 58.25 C 363.94 64.17 363.02 67.15 360.26 74.25 C 357.51 81.35 357.67 89.61 358.00 100.00 C 358.33 110.39 357.69 125.51 358.00 136.00 C 358.31 146.49 357.60 163.23 357.80 172.75 C 358.01 182.28 366.18 189.25 375.00 190.00 C 383.82 190.75 402.75 190.30 411.00 190.00 C 419.25 189.70 439.87 194.05 441.00 184.00
M 423.00 27.00 
C 427.28 34.56 419.55 44.54 423.00 53.00 C 426.45 61.46 418.50 69.36 410.00 66.00 C 401.50 62.64 391.55 70.27 384.00 66.00
C 382.91 65.38 393.37 55.00 395.75 52.75 C 398.13 50.50 406.97 41.65 409.25 39.25 C 411.53 36.85 422.37 25.89 423.00 27.00 Z"/>
</g>
<g fill="#FA626D" fill-opacity="1.00" stroke="None">
<path d="
M 127.00 96.00 
C 132.28 91.96 137.85 87.98 143.00 84.00
C 139.28 73.96 149.42 70.41 157.31 66.31 C 165.19 62.20 171.48 59.04 180.78 55.78 C 190.08 52.52 193.90 68.24 193.00 76.00
C 209.80 64.75 227.12 50.50 241.00 36.00
C 221.42 29.68 202.51 21.42 183.00 15.00
C 187.33 24.54 187.56 38.74 176.68 41.68 C 165.80 44.61 158.86 49.21 149.70 53.70 C 140.54 58.19 133.55 63.11 125.70 68.70 C 117.84 74.29 110.56 79.15 103.75 85.75 C 96.95 92.36 90.48 98.17 84.25 105.25 C 78.03 112.34 72.81 119.48 67.30 127.30 C 61.80 135.13 57.37 143.03 52.92 151.92 C 48.47 160.82 44.41 169.06 40.98 178.98 C 37.54 188.89 34.85 198.63 32.78 209.78 C 30.71 220.93 28.90 230.30 28.00 243.00 C 27.10 255.70 28.58 266.75 29.22 280.78 C 29.86 294.81 47.60 290.66 43.98 277.02 C 40.35 263.39 43.88 252.07 43.67 239.67 C 43.46 227.27 46.39 216.46 48.67 205.67 C 50.95 194.89 54.51 185.56 58.08 176.08 C 61.64 166.59 66.28 158.06 70.75 149.75 C 75.21 141.43 81.61 133.55 86.25 126.25 C 90.89 118.94 99.57 111.37 104.75 105.75 C 109.94 100.13 121.40 86.27 127.00 96.00 Z"/>
</g>
<g fill="#E6EBEF" fill-opacity="1.00" stroke="None">
<path d="
M 441.00 184.00 
C 444.00 182.70 456.89 182.91 460.00 184.00
C 463.21 182.17 463.03 173.66 470.00 176.00 C 476.97 178.34 481.31 174.66 488.00 176.00 C 494.68 177.33 496.60 171.56 496.00 166.00 C 495.40 160.44 496.25 155.10 496.00 149.00 C 495.75 142.90 496.10 137.72 496.00 131.00 C 495.90 124.28 496.03 120.81 496.00 113.00 C 495.97 105.19 495.97 105.11 496.00 95.00 C 496.03 84.89 495.95 70.12 496.00 60.00 C 496.05 49.88 495.69 49.94 496.00 42.00 C 496.31 34.06 495.15 31.90 496.00 25.00 C 496.85 18.10 494.38 14.53 488.00 15.00 C 481.62 15.47 475.90 14.66 470.00 15.00 C 464.10 15.34 457.35 14.57 452.00 15.00 C 446.65 15.43 443.19 15.30 440.31 20.31 C 437.43 25.32 437.39 29.09 438.00 36.00 C 438.61 42.91 436.46 45.32 438.00 54.00 C 439.54 62.68 436.36 74.92 427.69 78.69 C 419.03 82.47 419.34 80.31 412.00 81.00 C 404.66 81.69 400.29 80.31 394.00 81.00 C 387.71 81.69 383.43 79.13 378.70 82.70 C 373.96 86.27 372.19 86.75 372.00 94.00 C 371.81 101.25 371.80 102.37 372.00 112.00 C 372.20 121.63 371.67 137.54 372.00 147.00 C 372.33 156.46 368.50 174.43 379.00 176.00 C 389.50 177.57 405.19 174.89 414.00 176.00 C 422.81 177.11 442.38 171.70 441.00 184.00
M 468.00 102.00 
C 476.87 104.69 472.72 119.05 463.00 117.00 C 453.28 114.95 441.91 118.53 432.00 117.00 C 422.09 115.47 411.06 119.19 401.33 116.67 C 391.60 114.15 396.08 99.52 406.00 102.00 C 415.92 104.48 427.10 99.98 437.00 102.00 C 446.90 104.02 458.42 99.09 468.00 102.00
M 467.00 133.00 
C 475.97 135.09 473.98 149.02 464.00 148.00 C 454.02 146.97 443.06 148.70 433.00 148.00 C 422.94 147.30 411.95 148.85 402.00 148.00 C 392.05 147.15 395.18 131.42 405.00 133.00 C 414.83 134.59 426.08 131.55 436.00 133.00 C 445.92 134.45 457.25 130.73 467.00 133.00 Z"/>
</g>
<g fill="#767D80" fill-opacity="1.00" stroke="None">
<path d="
M 384.00 66.00 
C 396.50 52.67 409.71 39.45 423.00 27.00
C 422.37 25.89 411.53 36.85 409.25 39.25 C 406.97 41.65 398.13 50.50 395.75 52.75 C 393.37 55.00 382.91 65.38 384.00 66.00 Z"/>
</g>
<g fill="#D8E6EB" fill-opacity="1.00" stroke="None">
<path d="
M 384.00 66.00 
C 391.55 70.27 401.50 62.64 410.00 66.00 C 418.50 69.36 426.45 61.46 423.00 53.00 C 419.55 44.54 427.28 34.56 423.00 27.00
C 409.71 39.45 396.50 52.67 384.00 66.00 Z"/>
</g>
<g fill="#000000" fill-opacity="1.00" stroke="None">
<path d="
M 468.00 102.00 
C 458.42 99.09 446.90 104.02 437.00 102.00 C 427.10 99.98 415.92 104.48 406.00 102.00 C 396.08 99.52 391.60 114.15 401.33 116.67 C 411.06 119.19 422.09 115.47 432.00 117.00 C 441.91 118.53 453.28 114.95 463.00 117.00 C 472.72 119.05 476.87 104.69 468.00 102.00 Z"/>
</g>
<g fill="#000000" fill-opacity="1.00" stroke="None">
<path d="
M 467.00 133.00 
C 457.25 130.73 445.92 134.45 436.00 133.00 C 426.08 131.55 414.83 134.59 405.00 133.00 C 395.18 131.42 392.05 147.15 402.00 148.00 C 411.95 148.85 422.94 147.30 433.00 148.00 C 443.06 148.70 454.02 146.97 464.00 148.00 C 473.98 149.02 475.97 135.09 467.00 133.00 Z"/>
</g>
<g fill="#000000" fill-opacity="1.00" stroke="None">
<path d="
M 337.00 244.00 
C 344.36 236.34 354.06 234.89 360.07 225.07 C 366.08 215.26 356.25 205.03 351.92 196.08 C 347.60 187.12 337.00 177.71 325.69 184.69 C 314.39 191.68 308.66 192.22 297.23 185.77 C 285.80 179.32 284.41 172.25 283.98 158.02 C 283.54 143.80 267.49 144.30 257.00 144.00 C 246.51 143.70 229.76 144.63 230.00 159.00 C 230.23 173.37 227.43 179.99 216.08 186.08 C 204.72 192.16 199.77 191.75 188.22 184.78 C 176.68 177.80 166.36 187.50 161.77 196.77 C 157.18 206.04 148.24 215.52 154.70 225.30 C 161.16 235.08 169.02 236.41 177.00 244.00
C 175.41 251.53 175.40 260.48 177.00 268.00
C 169.18 275.44 160.27 277.50 154.31 287.31 C 148.34 297.11 157.51 306.93 162.08 315.92 C 166.65 324.91 176.85 334.32 188.31 327.31 C 199.76 320.29 205.21 319.85 216.77 326.23 C 228.33 332.61 229.54 339.83 230.02 353.98 C 230.51 368.12 246.52 367.75 257.00 368.00 C 267.48 368.25 284.32 367.45 284.01 353.01 C 283.70 338.57 286.69 332.11 297.92 325.92 C 309.16 319.74 314.39 320.26 325.78 327.22 C 337.16 334.19 347.94 324.44 352.23 315.23 C 356.52 306.02 366.34 296.02 359.75 286.25 C 353.16 276.47 344.49 275.88 337.00 268.00
C 338.65 260.59 338.65 251.44 337.00 244.00
M 211.00 304.00 
C 199.74 300.79 188.89 315.25 178.00 315.00
C 175.45 307.27 168.43 301.18 167.00 293.00
C 175.42 289.72 176.48 284.35 185.23 280.23 C 193.98 276.11 191.07 264.40 191.00 256.00 C 190.93 247.60 194.20 236.57 185.75 232.25 C 177.31 227.92 175.28 222.40 167.00 219.00
C 168.47 210.86 175.24 204.62 178.00 197.00
C 192.08 199.64 207.47 215.94 220.00 201.00
C 225.71 197.20 230.11 195.35 236.68 192.68 C 243.25 190.01 242.01 180.67 243.00 174.00 C 243.99 167.33 242.49 157.42 252.00 158.00 C 261.52 158.58 269.55 156.39 270.00 166.00 C 270.45 175.61 271.30 180.46 272.98 188.02 C 274.65 195.59 283.58 193.98 288.69 197.31 C 293.81 200.63 298.47 205.65 304.08 207.92 C 309.69 210.19 317.79 203.55 323.07 202.07 C 328.36 200.60 335.87 193.85 338.30 201.70 C 340.74 209.54 346.32 210.94 347.00 219.00
C 338.25 222.34 337.32 228.00 328.25 232.25 C 319.19 236.51 324.00 248.00 324.00 256.00 C 324.00 264.00 319.18 275.47 328.25 279.75 C 337.31 284.04 338.25 289.62 347.00 293.00
C 343.61 299.91 340.20 314.52 331.93 314.07 C 323.65 313.62 312.96 300.28 304.00 304.00 C 295.04 307.72 289.83 316.03 279.78 318.78 C 269.73 321.52 270.78 337.44 270.00 347.00 C 269.23 356.57 245.94 357.96 244.01 347.99 C 242.08 338.02 244.91 323.05 234.97 319.03 C 225.04 315.00 218.52 311.19 211.00 304.00 Z"/>
</g>
<g fill="#8B9AA6" fill-opacity="1.00" stroke="None">
<path d="
M 220.00 201.00 
C 208.66 212.45 203.94 232.40 202.07 248.07 C 200.21 263.74 202.17 290.73 211.00 304.00
C 218.52 311.19 225.04 315.00 234.97 319.03 C 244.91 323.05 242.08 338.02 244.01 347.99 C 245.94 357.96 269.23 356.57 270.00 347.00 C 270.78 337.44 269.73 321.52 279.78 318.78 C 289.83 316.03 295.04 307.72 304.00 304.00 C 312.96 300.28 323.65 313.62 331.93 314.07 C 340.20 314.52 343.61 299.91 347.00 293.00
C 338.25 289.62 337.31 284.04 328.25 279.75 C 319.18 275.47 324.00 264.00 324.00 256.00 C 324.00 248.00 319.19 236.51 328.25 232.25 C 337.32 228.00 338.25 222.34 347.00 219.00
C 346.32 210.94 340.74 209.54 338.30 201.70 C 335.87 193.85 328.36 200.60 323.07 202.07 C 317.79 203.55 309.69 210.19 304.08 207.92 C 298.47 205.65 293.81 200.63 288.69 197.31 C 283.58 193.98 274.65 195.59 272.98 188.02 C 271.30 180.46 270.45 175.61 270.00 166.00 C 269.55 156.39 261.52 158.58 252.00 158.00 C 242.49 157.42 243.99 167.33 243.00 174.00 C 242.01 180.67 243.25 190.01 236.68 192.68 C 230.11 195.35 225.71 197.20 220.00 201.00
M 265.00 210.00 
C 298.31 215.41 314.38 257.93 293.25 284.25 C 272.11 310.56 229.40 307.07 215.08 274.92 C 200.76 242.78 228.19 204.02 265.00 210.00 Z"/>
</g>
<g fill="#798B96" fill-opacity="1.00" stroke="None">
<path d="
M 211.00 304.00 
C 202.17 290.73 200.21 263.74 202.07 248.07 C 203.94 232.40 208.66 212.45 220.00 201.00
C 207.47 215.94 192.08 199.64 178.00 197.00
C 175.24 204.62 168.47 210.86 167.00 219.00
C 175.28 222.40 177.31 227.92 185.75 232.25 C 194.20 236.57 190.93 247.60 191.00 256.00 C 191.07 264.40 193.98 276.11 185.23 280.23 C 176.48 284.35 175.42 289.72 167.00 293.00
C 168.43 301.18 175.45 307.27 178.00 315.00
C 188.89 315.25 199.74 300.79 211.00 304.00 Z"/>
</g>
<g fill="#000000" fill-opacity="1.00" stroke="None">
<path d="
M 328.00 512.00 
L 331.00 512.00
C 345.43 510.78 346.78 494.72 344.00 483.00
C 365.30 476.25 386.06 463.35 403.92 449.92 C 421.78 436.49 436.78 422.19 450.25 404.25 C 463.71 386.30 476.13 366.07 484.02 345.02 C 491.92 323.98 498.25 300.13 499.61 280.75 C 500.96 261.37 502.91 232.86 496.13 216.92 C 489.35 200.98 457.14 203.59 455.64 222.30 C 454.15 241.01 458.13 266.83 454.26 286.25 C 450.40 305.67 443.93 332.35 432.31 351.31 C 420.68 370.26 409.58 388.21 392.25 403.25 C 374.91 418.28 356.98 430.87 336.00 439.00
C 338.02 421.54 316.83 417.24 307.75 426.75 C 298.67 436.25 288.14 441.32 279.75 449.75 C 271.36 458.18 253.32 465.78 258.23 479.77 C 263.14 493.76 280.23 491.77 290.98 498.03 C 301.72 504.28 317.38 505.50 328.00 512.00
M 331.00 497.00 
C 311.52 490.49 292.62 482.21 273.00 476.00
C 286.77 461.38 304.58 447.45 321.00 436.00
C 319.36 446.05 325.19 459.83 335.22 455.22 C 345.26 450.62 352.07 448.77 360.70 443.70 C 369.32 438.62 376.10 434.29 383.75 428.75 C 391.40 423.20 397.14 418.39 403.75 411.75 C 410.37 405.11 416.51 399.41 422.25 392.25 C 427.98 385.09 432.99 378.77 437.92 370.92 C 442.85 363.06 447.19 354.95 451.31 346.31 C 455.42 337.66 458.45 329.12 461.78 319.78 C 465.10 310.43 465.97 299.72 468.93 289.93 C 471.88 280.13 468.89 263.75 471.00 254.00 C 473.11 244.25 463.73 227.04 474.08 222.08 C 484.44 217.13 486.67 237.15 486.00 246.00 C 485.33 254.85 486.64 272.32 485.00 282.00 C 483.36 291.68 481.43 304.50 479.01 314.01 C 476.59 323.52 472.98 332.79 469.68 341.68 C 466.38 350.57 461.81 358.39 457.70 366.70 C 453.58 375.00 447.99 382.29 442.75 389.75 C 437.51 397.22 432.58 403.52 426.25 410.25 C 419.92 416.97 413.69 422.79 406.77 428.77 C 399.85 434.75 393.95 440.19 385.92 444.92 C 377.89 449.64 371.42 455.51 362.31 459.31 C 353.19 463.10 347.39 468.24 336.78 470.78 C 326.16 473.31 327.25 487.13 330.93 496.07 Z"/>
</g>
<g fill="#000000" fill-opacity="1.00" stroke="None">
<path d="
M 265.00 210.00 
C 228.19 204.02 200.76 242.78 215.08 274.92 C 229.40 307.07 272.11 310.56 293.25 284.25 C 314.38 257.93 298.31 215.41 265.00 210.00
M 265.00 225.00 
C 287.00 229.56 296.10 260.69 280.75 276.75 C 265.40 292.81 237.04 290.85 228.08 267.92 C 219.11 244.99 239.25 219.67 265.00 225.00 Z"/>
</g>
<g fill="#98E29A" fill-opacity="1.00" stroke="None">
<path d="
M 330.93 496.07 
C 327.25 487.13 326.16 473.31 336.78 470.78 C 347.39 468.24 353.19 463.10 362.31 459.31 C 371.42 455.51 377.89 449.64 385.92 444.92 C 393.95 440.19 399.85 434.75 406.77 428.77 C 413.69 422.79 419.92 416.97 426.25 410.25 C 432.58 403.52 437.51 397.22 442.75 389.75 C 447.99 382.29 453.58 375.00 457.70 366.70 C 461.81 358.39 466.38 350.57 469.68 341.68 C 472.98 332.79 476.59 323.52 479.01 314.01 C 481.43 304.50 483.36 291.68 485.00 282.00 C 486.64 272.32 485.33 254.85 486.00 246.00 C 486.67 237.15 484.44 217.13 474.08 222.08 C 463.73 227.04 473.11 244.25 471.00 254.00 C 468.89 263.75 471.88 280.13 468.93 289.93 C 465.97 299.72 465.10 310.43 461.78 319.78 C 458.45 329.12 455.42 337.66 451.31 346.31 C 447.19 354.95 442.85 363.06 437.92 370.92 C 432.99 378.77 427.98 385.09 422.25 392.25 C 416.51 399.41 410.37 405.11 403.75 411.75 C 397.14 418.39 391.40 423.20 383.75 428.75 C 376.10 434.29 369.32 438.62 360.70 443.70 C 352.07 448.77 345.26 450.62 335.22 455.22 C 325.19 459.83 319.36 446.05 321.00 436.00
C 304.58 447.45 286.77 461.38 273.00 476.00
C 292.62 482.21 311.52 490.49 331.00 497.00 Z"/>
</g>
<g fill="#000000" fill-opacity="0.02" stroke="None">
<path d="
M 265.00 225.00 
C 239.25 219.67 219.11 244.99 228.08 267.92 C 237.04 290.85 265.40 292.81 280.75 276.75 C 296.10 260.69 287.00 229.56 265.00 225.00 Z"/>
</g>
<g fill="#000000" fill-opacity="0.99" stroke="None">
<path d="
M 121.00 496.00 
C 117.61 494.07 119.29 489.67 114.00 488.00
C 99.55 485.41 83.54 489.97 69.00 488.00 C 54.46 486.03 37.54 491.11 24.00 487.00
C 13.22 483.73 15.88 471.66 16.00 462.00 C 16.12 452.34 12.82 439.54 24.00 436.00
C 40.12 430.91 61.51 435.99 79.00 435.00 C 96.49 434.01 117.51 434.02 135.00 435.00 C 152.49 435.98 173.96 430.93 190.00 436.00
C 200.55 439.34 198.11 451.53 198.00 461.00 C 197.89 470.47 201.00 483.52 190.00 487.00
C 177.05 491.09 160.77 485.67 147.00 488.00
C 142.95 489.23 140.06 491.08 140.00 496.00
C 144.10 507.57 178.38 503.70 191.75 502.19 C 205.13 500.69 212.32 491.59 213.00 478.00 C 213.68 464.41 215.57 434.95 206.00 428.00
C 215.00 418.87 215.26 391.95 212.39 374.75 C 209.53 357.55 199.98 353.59 180.00 354.00 C 160.02 354.41 128.07 354.07 107.00 354.00 C 85.93 353.93 53.97 354.60 34.00 354.00 C 14.03 353.40 4.02 357.92 1.65 375.31 C -0.73 392.69 -1.29 418.67 8.00 429.00
C -0.65 434.10 1.27 448.66 1.00 460.00 C 0.73 471.34 0.16 473.46 1.40 482.25 C 2.63 491.03 8.35 496.67 16.70 500.29 C 25.05 503.90 46.36 503.10 58.00 503.00 C 69.64 502.90 72.18 502.13 82.00 503.00 C 91.82 503.87 96.80 500.58 106.00 503.00 C 115.20 505.42 116.32 497.49 121.00 496.00
M 190.00 369.00 
C 204.94 373.72 194.98 389.99 198.00 404.00 C 201.02 418.01 185.41 423.28 172.00 421.00 C 158.59 418.72 142.73 421.68 129.00 421.00 C 115.27 420.32 99.64 420.54 86.00 421.00 C 72.36 421.46 56.10 419.09 43.00 421.00 C 29.90 422.91 13.02 419.20 16.00 405.00 C 18.98 390.80 8.65 373.85 24.00 369.00
C 40.12 363.91 61.51 368.99 79.00 368.00 C 96.49 367.01 117.51 367.02 135.00 368.00 C 152.49 368.98 173.96 363.93 190.00 369.00 Z"/>
</g>
<g fill="#2E3337" fill-opacity="1.00" stroke="None">
<path d="
M 24.00 369.00 
C 41.57 365.85 61.09 369.84 79.00 369.00 C 96.91 368.16 116.02 368.08 134.00 369.00 C 151.98 369.92 172.29 365.83 190.00 369.00
C 173.96 363.93 152.49 368.98 135.00 368.00 C 117.51 367.02 96.49 367.01 79.00 368.00 C 61.51 368.99 40.12 363.91 24.00 369.00 Z"/>
</g>
<g fill="#8796A2" fill-opacity="1.00" stroke="None">
<path d="
M 190.00 369.00 
C 172.29 365.83 151.98 369.92 134.00 369.00 C 116.02 368.08 96.91 368.16 79.00 369.00 C 61.09 369.84 41.57 365.85 24.00 369.00
C 8.65 373.85 18.98 390.80 16.00 405.00 C 13.02 419.20 29.90 422.91 43.00 421.00 C 56.10 419.09 72.36 421.46 86.00 421.00 C 99.64 420.54 115.27 420.32 129.00 421.00 C 142.73 421.68 158.59 418.72 172.00 421.00 C 185.41 423.28 201.02 418.01 198.00 404.00 C 194.98 389.99 204.94 373.72 190.00 369.00
M 51.00 373.00 
C 78.01 378.59 68.43 422.72 41.00 416.00 C 13.57 409.28 23.50 367.31 51.00 373.00
M 98.00 373.00 
C 125.00 378.59 114.43 423.09 87.33 415.67 C 60.23 408.25 70.95 367.40 98.00 373.00
M 182.00 387.00 
C 191.28 389.82 186.57 403.00 178.00 402.00 C 169.43 401.00 155.94 401.90 148.00 402.00 C 140.06 402.10 125.91 403.09 128.00 393.00 C 130.09 382.91 144.48 386.80 152.00 387.00 C 159.52 387.20 174.51 384.73 182.00 387.00 Z"/>
</g>
<g fill="#000000" fill-opacity="1.00" stroke="None">
<path d="
M 51.00 373.00 
C 23.50 367.31 13.57 409.28 41.00 416.00 C 68.43 422.72 78.01 378.59 51.00 373.00
M 48.00 388.00 
C 56.17 389.90 52.18 403.86 44.00 401.00 C 35.81 398.14 39.77 386.09 48.00 388.00 Z"/>
</g>
<g fill="#000000" fill-opacity="1.00" stroke="None">
<path d="
M 98.00 373.00 
C 70.95 367.40 60.23 408.25 87.33 415.67 C 114.43 423.09 125.00 378.59 98.00 373.00
M 95.00 388.00 
C 102.97 389.85 98.50 404.23 90.33 400.67 C 82.16 397.11 87.27 386.20 95.00 388.00 Z"/>
</g>
<g fill="#000000" fill-opacity="1.00" stroke="None">
<path d="
M 182.00 387.00 
C 174.51 384.73 159.52 387.20 152.00 387.00 C 144.48 386.80 130.09 382.91 128.00 393.00 C 125.91 403.09 140.06 402.10 148.00 402.00 C 155.94 401.90 169.43 401.00 178.00 402.00 C 186.57 403.00 191.28 389.82 182.00 387.00 Z"/>
</g>
<g fill="#94DC96" fill-opacity="1.00" stroke="None">
<path d="
M 48.00 388.00 
C 39.77 386.09 35.81 398.14 44.00 401.00 C 52.18 403.86 56.17 389.90 48.00 388.00 Z"/>
</g>
<g fill="#F4D872" fill-opacity="1.00" stroke="None">
<path d="
M 95.00 388.00 
C 87.27 386.20 82.16 397.11 90.33 400.67 C 98.50 404.23 102.97 389.85 95.00 388.00 Z"/>
</g>
<g fill="#2F363B" fill-opacity="1.00" stroke="None">
<path d="
M 24.00 436.00 
C 27.73 435.33 32.21 436.00 36.00 436.00
C 52.95 436.00 70.06 435.50 87.00 436.00 C 103.94 436.50 121.12 434.67 138.00 436.00 C 154.88 437.33 173.36 433.02 190.00 436.00
C 173.96 430.93 152.49 435.98 135.00 435.00 C 117.51 434.02 96.49 434.01 79.00 435.00 C 61.51 435.99 40.12 430.91 24.00 436.00 Z"/>
</g>
<g fill="#576A74" fill-opacity="1.00" stroke="None">
<path d="
M 24.00 487.00 
C 27.75 487.63 32.18 487.00 36.00 487.00
C 35.14 486.39 34.21 481.33 36.00 481.00
C 28.40 477.16 26.14 471.18 24.02 462.98 C 21.91 454.77 30.72 449.15 34.00 443.00
C 35.07 440.99 35.15 438.16 36.00 436.00
C 32.21 436.00 27.73 435.33 24.00 436.00
C 12.82 439.54 16.12 452.34 16.00 462.00 C 15.88 471.66 13.22 483.73 24.00 487.00 Z"/>
</g>
<g fill="#788A96" fill-opacity="1.00" stroke="None">
<path d="
M 34.00 443.00 
C 46.87 434.35 67.04 444.16 67.93 460.07 C 68.81 475.98 50.94 488.55 36.00 481.00
C 34.21 481.33 35.14 486.39 36.00 487.00
C 48.69 487.00 62.41 486.16 75.00 487.00 C 87.59 487.84 102.54 484.38 114.00 488.00
C 119.29 489.67 117.61 494.07 121.00 496.00
C 124.68 494.83 136.33 494.81 140.00 496.00
C 140.06 491.08 142.95 489.23 147.00 488.00
C 160.05 484.04 176.20 489.47 190.00 487.00
C 201.00 483.52 197.89 470.47 198.00 461.00 C 198.11 451.53 200.55 439.34 190.00 436.00
C 173.36 433.02 154.88 437.33 138.00 436.00 C 121.12 434.67 103.94 436.50 87.00 436.00 C 70.06 435.50 52.95 436.00 36.00 436.00
C 35.15 438.16 35.07 440.99 34.00 443.00
M 98.00 440.00 
C 124.97 445.59 114.36 490.08 87.33 482.67 C 60.30 475.26 70.79 434.36 98.00 440.00
M 182.00 454.00 
C 191.28 456.82 186.57 470.00 178.00 469.00 C 169.43 468.00 155.94 468.90 148.00 469.00 C 140.06 469.10 125.91 470.09 128.00 460.00 C 130.09 449.91 144.48 453.80 152.00 454.00 C 159.52 454.20 174.51 451.73 182.00 454.00 Z"/>
</g>
<g fill="#000000" fill-opacity="1.00" stroke="None">
<path d="
M 34.00 443.00 
C 30.72 449.15 21.91 454.77 24.02 462.98 C 26.14 471.18 28.40 477.16 36.00 481.00
C 50.94 488.55 68.81 475.98 67.93 460.07 C 67.04 444.16 46.87 434.35 34.00 443.00
M 49.00 455.00 
C 56.54 457.83 51.23 471.46 43.33 467.67 C 35.43 463.88 41.02 452.01 49.00 455.00 Z"/>
</g>
<g fill="#000000" fill-opacity="1.00" stroke="None">
<path d="
M 98.00 440.00 
C 70.79 434.36 60.30 475.26 87.33 482.67 C 114.36 490.08 124.97 445.59 98.00 440.00
M 95.00 455.00 
C 102.97 456.85 98.50 471.23 90.33 467.67 C 82.16 464.11 87.27 453.20 95.00 455.00 Z"/>
</g>
<g fill="#000000" fill-opacity="1.00" stroke="None">
<path d="
M 182.00 454.00 
C 174.51 451.73 159.52 454.20 152.00 454.00 C 144.48 453.80 130.09 449.91 128.00 460.00 C 125.91 470.09 140.06 469.10 148.00 469.00 C 155.94 468.90 169.43 468.00 178.00 469.00 C 186.57 470.00 191.28 456.82 182.00 454.00 Z"/>
</g>
<g fill="#F4D771" fill-opacity="1.00" stroke="None">
<path d="
M 49.00 455.00 
C 41.02 452.01 35.43 463.88 43.33 467.67 C 51.23 471.46 56.54 457.83 49.00 455.00 Z"/>
</g>
<g fill="#94DD96" fill-opacity="1.00" stroke="None">
<path d="
M 95.00 455.00 
C 87.27 453.20 82.16 464.11 90.33 467.67 C 98.50 471.23 102.97 456.85 95.00 455.00 Z"/>
</g>
<g fill="#3E484E" fill-opacity="1.00" stroke="None">
<path d="
M 114.00 488.00 
C 102.54 484.38 87.59 487.84 75.00 487.00 C 62.41 486.16 48.69 487.00 36.00 487.00
C 32.18 487.00 27.75 487.63 24.00 487.00
C 37.54 491.11 54.46 486.03 69.00 488.00 C 83.54 489.97 99.55 485.41 114.00 488.00 Z"/>
</g>
<g fill="#404A50" fill-opacity="1.00" stroke="None">
<path d="
M 147.00 488.00 
C 160.77 485.67 177.05 491.09 190.00 487.00
C 176.20 489.47 160.05 484.04 147.00 488.00 Z"/>
</g>
</svg>