<svg xmlns="http://www.w3.org/2000/svg" xmlns:v="https://svgstorm.com"
viewBox = "0 0 512 512"
width="512"
height="512">
<g fill="None" fill-opacity="0.0" stroke="#000000" stroke-opacity="0.00" stroke-width="0.3"><path d="
M 0.00 512.00 
L 512.00 512.00
L 512.00 0.00
L 0.00 0.00
L 0.00 512.00
M 288.00 77.00 
C 296.86 73.45 306.99 75.26 316.00 77.00
C 315.61 48.12 341.70 24.05 370.00 24.00 C 398.30 23.95 424.38 48.16 424.00 77.00
C 460.81 66.60 498.61 99.44 486.07 139.07 C 473.54 178.71 424.87 176.52 389.00 174.00
C 388.68 184.90 381.02 190.11 380.22 201.22 C 379.43 212.34 362.60 213.94 363.00 202.00 C 363.40 190.05 369.93 185.30 371.00 174.00
C 359.67 174.00 348.33 174.00 337.00 174.00
C 348.34 199.67 362.65 224.31 374.00 250.00
C 378.36 244.62 387.68 239.78 390.30 233.30 C 392.93 226.82 398.58 213.94 407.22 220.78 C 415.87 227.61 413.77 236.88 416.00 246.00
C 425.63 237.21 423.24 222.61 432.25 213.25 C 441.27 203.90 451.88 194.78 467.02 199.98 C 482.16 205.17 467.33 220.26 465.01 232.01 C 462.69 243.76 467.26 263.52 460.00 275.00
C 468.76 273.55 471.92 254.86 482.67 259.33 C 493.42 263.80 485.66 279.89 483.07 288.07 C 480.48 296.26 475.21 306.66 470.23 314.23 C 465.25 321.80 458.95 328.68 451.25 334.25 C 443.55 339.83 432.07 344.59 422.00 344.00
C 423.84 349.95 427.45 355.27 430.00 361.00
C 439.15 355.48 441.08 350.94 450.25 344.25 C 459.42 337.56 466.96 351.00 468.78 359.22 C 470.60 367.44 480.18 378.96 471.75 385.75 C 463.33 392.54 459.48 397.15 451.00 403.00
C 456.06 412.18 460.22 422.64 465.31 431.70 C 470.39 440.75 474.79 452.46 479.92 461.08 C 485.06 469.69 494.54 487.51 479.00 488.00 C 463.45 488.49 450.99 487.78 436.00 488.00 C 421.01 488.22 406.78 487.90 392.00 488.00 C 377.22 488.10 362.65 487.94 348.00 488.00 C 333.35 488.06 319.62 487.96 305.00 488.00 C 290.38 488.04 275.65 487.94 261.00 488.00 C 246.35 488.06 231.68 487.88 217.00 488.00 C 202.32 488.12 187.73 487.74 173.00 488.00 C 158.27 488.26 144.92 487.41 130.00 488.00 C 115.08 488.59 101.38 486.72 86.00 488.00 C 70.62 489.28 58.31 485.17 42.00 488.00 C 25.69 490.83 21.07 479.48 28.77 467.77 C 36.47 456.06 37.06 448.98 43.31 438.31 C 49.55 427.63 52.55 419.30 57.92 408.92 C 63.30 398.55 68.39 389.81 72.00 379.00
C 60.26 373.41 57.96 370.28 45.75 363.25 C 33.54 356.22 43.38 344.83 43.93 331.93 C 44.47 319.03 56.16 313.59 66.23 322.77 C 76.30 331.95 83.04 331.02 93.00 339.00
C 95.69 333.64 98.32 328.36 101.00 323.00
C 93.69 318.65 88.19 312.63 87.01 303.99 C 85.82 295.36 90.91 286.38 83.08 279.92 C 75.25 273.45 77.96 261.43 81.00 254.00
C 59.59 248.17 40.89 222.23 57.00 202.00
C 40.03 196.19 29.54 171.32 44.00 158.00
C 26.85 150.95 15.76 125.36 31.75 111.75 C 47.75 98.14 63.97 94.07 84.22 90.22 C 104.47 86.37 133.70 87.31 154.01 89.99 C 174.32 92.67 191.59 98.00 208.00 110.00
C 208.86 106.07 211.44 102.72 213.00 99.00
C 204.54 94.85 194.16 87.11 186.25 82.75 C 178.35 78.38 162.50 70.97 166.99 60.99 C 171.48 51.01 168.49 34.27 178.08 29.08 C 187.67 23.90 197.41 38.90 206.23 41.77 C 215.05 44.64 224.57 55.63 234.00 58.00
C 235.75 48.50 243.29 44.05 245.31 34.31 C 247.32 24.56 259.93 20.13 264.30 29.70 C 268.68 39.26 271.82 44.28 275.92 53.08 C 280.03 61.87 284.02 68.35 288.00 77.00 Z"/>
</g>
<g fill="None" fill-opacity="0.0" stroke="#272727" stroke-opacity="0.98" stroke-width="0.3"><path d="
M 288.00 77.00 
C 284.02 68.35 280.03 61.87 275.92 53.08 C 271.82 44.28 268.68 39.26 264.30 29.70 C 259.93 20.13 247.32 24.56 245.31 34.31 C 243.29 44.05 235.75 48.50 234.00 58.00
C 224.57 55.63 215.05 44.64 206.23 41.77 C 197.41 38.90 187.67 23.90 178.08 29.08 C 168.49 34.27 171.48 51.01 166.99 60.99 C 162.50 70.97 178.35 78.38 186.25 82.75 C 194.16 87.11 204.54 94.85 213.00 99.00
C 211.44 102.72 208.86 106.07 208.00 110.00
C 191.59 98.00 174.32 92.67 154.01 89.99 C 133.70 87.31 104.47 86.37 84.22 90.22 C 63.97 94.07 47.75 98.14 31.75 111.75 C 15.76 125.36 26.85 150.95 44.00 158.00
C 29.54 171.32 40.03 196.19 57.00 202.00
C 40.89 222.23 59.59 248.17 81.00 254.00
C 77.96 261.43 75.25 273.45 83.08 279.92 C 90.91 286.38 85.82 295.36 87.01 303.99 C 88.19 312.63 93.69 318.65 101.00 323.00
C 98.32 328.36 95.69 333.64 93.00 339.00
C 83.04 331.02 76.30 331.95 66.23 322.77 C 56.16 313.59 44.47 319.03 43.93 331.93 C 43.38 344.83 33.54 356.22 45.75 363.25 C 57.96 370.28 60.26 373.41 72.00 379.00
C 68.39 389.81 63.30 398.55 57.92 408.92 C 52.55 419.30 49.55 427.63 43.31 438.31 C 37.06 448.98 36.47 456.06 28.77 467.77 C 21.07 479.48 25.69 490.83 42.00 488.00 C 58.31 485.17 70.62 489.28 86.00 488.00 C 101.38 486.72 115.08 488.59 130.00 488.00 C 144.92 487.41 158.27 488.26 173.00 488.00 C 187.73 487.74 202.32 488.12 217.00 488.00 C 231.68 487.88 246.35 488.06 261.00 488.00 C 275.65 487.94 290.38 488.04 305.00 488.00 C 319.62 487.96 333.35 488.06 348.00 488.00 C 362.65 487.94 377.22 488.10 392.00 488.00 C 406.78 487.90 421.01 488.22 436.00 488.00 C 450.99 487.78 463.45 488.49 479.00 488.00 C 494.54 487.51 485.06 469.69 479.92 461.08 C 474.79 452.46 470.39 440.75 465.31 431.70 C 460.22 422.64 456.06 412.18 451.00 403.00
C 459.48 397.15 463.33 392.54 471.75 385.75 C 480.18 378.96 470.60 367.44 468.78 359.22 C 466.96 351.00 459.42 337.56 450.25 344.25 C 441.08 350.94 439.15 355.48 430.00 361.00
C 427.45 355.27 423.84 349.95 422.00 344.00
C 432.07 344.59 443.55 339.83 451.25 334.25 C 458.95 328.68 465.25 321.80 470.23 314.23 C 475.21 306.66 480.48 296.26 483.07 288.07 C 485.66 279.89 493.42 263.80 482.67 259.33 C 471.92 254.86 468.76 273.55 460.00 275.00
C 467.26 263.52 462.69 243.76 465.01 232.01 C 467.33 220.26 482.16 205.17 467.02 199.98 C 451.88 194.78 441.27 203.90 432.25 213.25 C 423.24 222.61 425.63 237.21 416.00 246.00
C 413.77 236.88 415.87 227.61 407.22 220.78 C 398.58 213.94 392.93 226.82 390.30 233.30 C 387.68 239.78 378.36 244.62 374.00 250.00
C 362.65 224.31 348.34 199.67 337.00 174.00
C 348.33 174.00 359.67 174.00 371.00 174.00
C 369.93 185.30 363.40 190.05 363.00 202.00 C 362.60 213.94 379.43 212.34 380.22 201.22 C 381.02 190.11 388.68 184.90 389.00 174.00
C 424.87 176.52 473.54 178.71 486.07 139.07 C 498.61 99.44 460.81 66.60 424.00 77.00
C 424.38 48.16 398.30 23.95 370.00 24.00 C 341.70 24.05 315.61 48.12 316.00 77.00
C 306.99 75.26 296.86 73.45 288.00 77.00
M 395.00 157.00 
C 394.58 145.49 409.47 132.42 404.22 120.78 C 398.98 109.14 376.31 122.63 367.00 121.00
C 367.86 112.39 375.50 101.60 376.32 93.32 C 377.15 85.04 390.03 72.00 379.75 65.25 C 369.47 58.50 365.04 76.97 363.02 84.02 C 361.01 91.08 354.84 104.89 353.02 112.02 C 351.21 119.15 341.26 135.37 352.23 138.77 C 363.20 142.17 374.16 132.71 385.00 134.00
C 383.62 141.92 379.89 149.19 378.00 157.00
C 361.00 157.00 344.00 157.00 327.00 157.00
C 317.19 135.04 305.54 113.73 295.00 92.00
C 308.87 87.86 311.07 96.23 324.03 99.97 C 336.99 103.72 332.51 83.81 332.00 75.00 C 331.49 66.19 338.99 55.95 345.75 49.75 C 352.51 43.56 366.50 38.84 376.00 41.00 C 385.50 43.16 394.61 46.63 400.25 55.75 C 405.89 64.87 411.10 73.58 407.01 86.01 C 402.92 98.43 414.37 104.03 423.70 95.70 C 433.02 87.36 444.76 91.09 454.08 94.92 C 463.39 98.76 468.79 107.41 470.99 117.01 C 473.19 126.61 471.41 138.84 463.75 146.75 C 456.08 154.65 446.89 157.84 435.00 157.00 C 423.11 156.16 407.25 157.63 395.00 157.00
M 226.00 73.00 
C 225.14 76.93 222.56 80.28 221.00 84.00
C 208.15 77.90 196.44 69.14 184.00 62.00
C 185.22 58.08 185.23 53.79 187.00 50.00
C 200.38 56.68 212.69 65.89 226.00 73.00
M 426.00 472.00 
C 299.00 472.00 172.00 472.00 45.00 472.00
C 108.35 345.30 171.65 218.69 235.00 92.00
C 241.25 77.85 248.90 64.18 255.00 50.00
C 291.90 118.15 326.36 190.07 361.77 260.23 C 397.18 330.39 432.26 401.53 467.00 472.00
C 453.33 472.00 439.67 472.00 426.00 472.00
M 200.00 125.00 
C 198.94 129.98 195.06 134.00 194.00 139.00
C 186.14 135.86 181.29 130.72 172.78 128.22 C 164.26 125.72 156.14 122.29 146.78 121.22 C 137.41 120.15 125.09 118.83 115.00 120.00 C 104.91 121.17 94.87 118.25 85.31 123.31 C 75.74 128.36 85.23 141.28 94.67 137.67 C 104.11 134.06 115.36 135.39 125.00 135.00 C 134.64 134.61 145.17 137.31 154.01 138.99 C 162.84 140.68 170.95 144.07 177.00 149.00
C 159.78 154.69 140.33 154.85 122.00 156.00 C 103.67 157.15 82.37 152.20 66.32 148.68 C 50.28 145.15 31.94 131.44 48.08 120.08 C 64.22 108.73 78.03 108.50 96.22 105.22 C 114.41 101.94 137.89 104.09 155.22 106.78 C 172.55 109.47 186.77 113.47 200.00 125.00
M 157.00 169.00 
C 165.14 167.57 172.93 165.71 181.00 164.00
C 173.58 174.70 174.14 191.55 159.78 195.78 C 145.41 200.00 126.90 201.79 111.00 201.00
C 100.96 200.20 85.81 198.50 76.98 194.02 C 68.14 189.55 54.28 187.91 54.00 175.00 C 53.73 162.09 69.52 164.33 80.00 168.00 C 90.49 171.66 105.78 171.48 118.00 172.00 C 130.22 172.52 145.17 171.08 157.00 169.00
M 133.00 216.00 
C 141.23 215.69 148.88 213.78 157.00 213.00
C 151.98 223.03 147.01 232.98 142.00 243.00
C 136.87 242.76 132.27 244.73 127.00 244.00
C 123.55 244.33 119.39 244.32 116.00 244.00
C 113.70 244.00 111.30 244.20 109.00 244.00
C 99.86 243.22 88.32 239.35 80.31 235.69 C 72.29 232.04 62.70 221.49 69.77 213.77 C 76.84 206.05 87.66 213.84 98.01 214.99 C 108.36 216.15 122.08 216.42 133.00 216.00
M 452.00 218.00 
C 448.90 227.29 445.70 238.12 448.00 248.00 C 450.30 257.88 444.46 270.41 441.08 278.08 C 437.69 285.75 426.72 296.28 435.25 302.75 C 443.78 309.22 454.30 296.70 462.00 295.00
C 458.58 303.57 455.14 308.15 448.25 315.25 C 441.35 322.35 435.73 324.28 425.78 327.78 C 415.82 331.28 407.93 322.21 405.70 313.31 C 403.46 304.40 395.93 298.18 394.08 289.92 C 392.22 281.67 382.58 274.90 382.41 267.25 C 382.23 259.61 395.96 254.81 399.00 249.00
C 399.43 255.76 390.66 273.11 401.03 274.97 C 411.39 276.84 417.19 267.41 424.25 262.25 C 431.31 257.09 434.68 247.49 437.98 239.98 C 441.27 232.46 442.76 221.21 452.00 218.00
M 133.00 260.00 
C 128.11 265.58 129.33 276.25 123.08 281.08 C 116.82 285.90 107.13 277.34 100.75 274.25 C 94.37 271.16 92.27 256.04 103.02 258.98 C 113.78 261.91 122.14 258.87 133.00 260.00
M 115.00 297.00 
C 112.97 301.03 111.02 304.98 109.00 309.00
C 103.19 306.14 101.46 299.62 104.00 294.00
C 107.52 295.51 111.34 295.89 115.00 297.00
M 86.00 354.00 
C 84.42 357.73 81.87 361.04 81.00 365.00
C 72.42 361.09 64.54 355.28 56.00 351.00
C 57.23 346.74 57.94 342.34 59.00 338.00
C 68.38 342.36 76.51 349.54 86.00 354.00
M 453.00 364.00 
C 461.26 374.46 452.43 381.90 444.00 388.00
C 440.71 384.42 435.96 378.06 440.70 374.70 C 445.43 371.34 448.21 367.05 453.00 364.00 Z"/>
</g>
<g fill="None" fill-opacity="0.0" stroke="#959595" stroke-opacity="1.00" stroke-width="0.3"><path d="
M 395.00 157.00 
C 407.25 157.63 423.11 156.16 435.00 157.00 C 446.89 157.84 456.08 154.65 463.75 146.75 C 471.41 138.84 473.19 126.61 470.99 117.01 C 468.79 107.41 463.39 98.76 454.08 94.92 C 444.76 91.09 433.02 87.36 423.70 95.70 C 414.37 104.03 402.92 98.43 407.01 86.01 C 411.10 73.58 405.89 64.87 400.25 55.75 C 394.61 46.63 385.50 43.16 376.00 41.00 C 366.50 38.84 352.51 43.56 345.75 49.75 C 338.99 55.95 331.49 66.19 332.00 75.00 C 332.51 83.81 336.99 103.72 324.03 99.97 C 311.07 96.23 308.87 87.86 295.00 92.00
C 305.54 113.73 317.19 135.04 327.00 157.00
C 344.00 157.00 361.00 157.00 378.00 157.00
C 379.89 149.19 383.62 141.92 385.00 134.00
C 374.16 132.71 363.20 142.17 352.23 138.77 C 341.26 135.37 351.21 119.15 353.02 112.02 C 354.84 104.89 361.01 91.08 363.02 84.02 C 365.04 76.97 369.47 58.50 379.75 65.25 C 390.03 72.00 377.15 85.04 376.32 93.32 C 375.50 101.60 367.86 112.39 367.00 121.00
C 376.31 122.63 398.98 109.14 404.22 120.78 C 409.47 132.42 394.58 145.49 395.00 157.00 Z"/>
</g>
<g fill="None" fill-opacity="0.0" stroke="#B48A54" stroke-opacity="1.00" stroke-width="0.3"><path d="
M 226.00 73.00 
C 212.69 65.89 200.38 56.68 187.00 50.00
C 185.23 53.79 185.22 58.08 184.00 62.00
C 196.44 69.14 208.15 77.90 221.00 84.00
C 222.56 80.28 225.14 76.93 226.00 73.00 Z"/>
</g>
<g fill="None" fill-opacity="0.0" stroke="#E27265" stroke-opacity="1.00" stroke-width="0.3"><path d="
M 235.00 92.00 
C 238.16 94.58 242.10 101.06 243.31 105.69 C 244.51 110.33 251.20 116.27 251.00 121.00
C 262.70 113.68 267.42 134.23 271.92 142.08 C 276.43 149.92 282.26 163.04 286.92 172.08 C 291.59 181.11 297.32 192.49 301.92 202.08 C 306.53 211.66 312.11 221.40 316.77 231.23 C 321.43 241.05 326.91 251.36 331.77 261.23 C 336.63 271.09 341.81 281.41 346.77 291.23 C 351.73 301.05 356.74 311.59 361.77 321.23 C 366.80 330.87 371.40 341.28 376.31 350.70 C 381.21 360.11 386.76 371.68 391.31 380.70 C 395.85 389.71 402.42 402.74 406.31 410.70 C 410.19 418.65 423.14 436.94 410.00 440.00
C 414.51 441.95 415.03 451.83 418.31 455.70 C 421.58 459.56 423.67 467.45 426.00 472.00
C 439.67 472.00 453.33 472.00 467.00 472.00
C 432.26 401.53 397.18 330.39 361.77 260.23 C 326.36 190.07 291.90 118.15 255.00 50.00
C 248.90 64.18 241.25 77.85 235.00 92.00 Z"/>
</g>
<g fill="None" fill-opacity="0.0" stroke="#FE8072" stroke-opacity="1.00" stroke-width="0.3"><path d="
M 426.00 472.00 
C 423.67 467.45 421.58 459.56 418.31 455.70 C 415.03 451.83 414.51 441.95 410.00 440.00
C 398.19 442.75 385.20 438.79 373.00 440.00 C 360.80 441.21 347.37 439.43 335.00 440.00 C 322.63 440.57 310.46 439.72 298.00 440.00 C 285.54 440.28 272.52 439.81 260.00 440.00 C 247.48 440.19 235.60 439.78 223.00 440.00 C 210.40 440.22 197.72 439.60 185.00 440.00 C 172.28 440.40 161.01 439.14 148.00 440.00 C 134.99 440.86 123.59 438.16 110.00 440.00 C 96.41 441.84 94.11 430.45 100.31 421.31 C 106.50 412.16 107.83 404.64 112.92 395.92 C 118.02 387.21 120.72 379.81 125.31 371.31 C 129.89 362.80 133.57 354.34 137.92 345.92 C 142.28 337.51 146.05 329.67 150.31 321.31 C 154.56 312.94 158.72 304.27 162.92 295.92 C 167.13 287.58 171.10 279.62 175.31 271.31 C 179.51 262.99 183.71 254.20 187.92 245.92 C 192.14 237.65 196.03 229.49 200.31 221.31 C 204.58 213.12 208.55 203.94 212.92 195.92 C 217.30 187.91 220.65 178.90 225.31 171.31 C 229.96 163.71 232.71 152.66 237.92 145.92 C 243.14 139.18 243.94 125.41 251.00 121.00
C 251.20 116.27 244.51 110.33 243.31 105.69 C 242.10 101.06 238.16 94.58 235.00 92.00
C 171.65 218.69 108.35 345.30 45.00 472.00
C 172.00 472.00 299.00 472.00 426.00 472.00 Z"/>
</g>
<g fill="None" fill-opacity="0.0" stroke="#989898" stroke-opacity="1.00" stroke-width="0.3"><path d="
M 200.00 125.00 
C 186.77 113.47 172.55 109.47 155.22 106.78 C 137.89 104.09 114.41 101.94 96.22 105.22 C 78.03 108.50 64.22 108.73 48.08 120.08 C 31.94 131.44 50.28 145.15 66.32 148.68 C 82.37 152.20 103.67 157.15 122.00 156.00 C 140.33 154.85 159.78 154.69 177.00 149.00
C 170.95 144.07 162.84 140.68 154.01 138.99 C 145.17 137.31 134.64 134.61 125.00 135.00 C 115.36 135.39 104.11 134.06 94.67 137.67 C 85.23 141.28 75.74 128.36 85.31 123.31 C 94.87 118.25 104.91 121.17 115.00 120.00 C 125.09 118.83 137.41 120.15 146.78 121.22 C 156.14 122.29 164.26 125.72 172.78 128.22 C 181.29 130.72 186.14 135.86 194.00 139.00
C 195.06 134.00 198.94 129.98 200.00 125.00 Z"/>
</g>
<g fill="None" fill-opacity="0.0" stroke="#282727" stroke-opacity="1.00" stroke-width="0.3"><path d="
M 251.00 121.00 
C 243.94 125.41 243.14 139.18 237.92 145.92 C 232.71 152.66 229.96 163.71 225.31 171.31 C 220.65 178.90 217.30 187.91 212.92 195.92 C 208.55 203.94 204.58 213.12 200.31 221.31 C 196.03 229.49 192.14 237.65 187.92 245.92 C 183.71 254.20 179.51 262.99 175.31 271.31 C 171.10 279.62 167.13 287.58 162.92 295.92 C 158.72 304.27 154.56 312.94 150.31 321.31 C 146.05 329.67 142.28 337.51 137.92 345.92 C 133.57 354.34 129.89 362.80 125.31 371.31 C 120.72 379.81 118.02 387.21 112.92 395.92 C 107.83 404.64 106.50 412.16 100.31 421.31 C 94.11 430.45 96.41 441.84 110.00 440.00 C 123.59 438.16 134.99 440.86 148.00 440.00 C 161.01 439.14 172.28 440.40 185.00 440.00 C 197.72 439.60 210.40 440.22 223.00 440.00 C 235.60 439.78 247.48 440.19 260.00 440.00 C 272.52 439.81 285.54 440.28 298.00 440.00 C 310.46 439.72 322.63 440.57 335.00 440.00 C 347.37 439.43 360.80 441.21 373.00 440.00 C 385.20 438.79 398.19 442.75 410.00 440.00
C 423.14 436.94 410.19 418.65 406.31 410.70 C 402.42 402.74 395.85 389.71 391.31 380.70 C 386.76 371.68 381.21 360.11 376.31 350.70 C 371.40 341.28 366.80 330.87 361.77 321.23 C 356.74 311.59 351.73 301.05 346.77 291.23 C 341.81 281.41 336.63 271.09 331.77 261.23 C 326.91 251.36 321.43 241.05 316.77 231.23 C 312.11 221.40 306.53 211.66 301.92 202.08 C 297.32 192.49 291.59 181.11 286.92 172.08 C 282.26 163.04 276.43 149.92 271.92 142.08 C 267.42 134.23 262.70 113.68 251.00 121.00
M 359.00 424.00 
C 278.33 424.00 197.67 424.00 117.00 424.00
C 157.02 343.97 196.99 264.03 237.00 184.00
C 242.65 171.21 249.52 158.83 255.00 146.00
C 303.35 236.36 348.88 331.42 395.00 424.00
C 383.00 424.00 371.00 424.00 359.00 424.00 Z"/>
</g>
<g fill="None" fill-opacity="0.0" stroke="#DBAC4D" stroke-opacity="1.00" stroke-width="0.3"><path d="
M 237.00 184.00 
C 239.75 182.42 242.71 191.75 244.77 195.23 C 246.83 198.71 249.71 205.89 251.92 210.08 C 254.14 214.26 257.60 220.31 259.00 225.00
C 250.25 228.94 224.12 217.56 221.03 230.03 C 217.94 242.49 222.15 259.38 222.00 272.00 C 221.85 284.62 222.40 301.73 223.00 314.00 C 223.60 326.27 220.38 344.62 236.00 345.00
C 234.14 334.60 236.25 323.57 235.00 313.00 C 233.75 302.43 234.82 292.38 233.22 281.78 C 231.62 271.17 235.28 260.54 232.00 250.00 C 228.72 239.45 236.70 228.61 247.00 232.00 C 257.30 235.39 270.92 226.93 277.75 234.25 C 284.57 241.58 279.00 256.21 279.00 265.00
C 280.43 270.75 285.87 276.05 287.92 282.08 C 289.98 288.10 294.58 294.05 296.92 300.08 C 299.27 306.10 303.15 311.28 305.77 317.23 C 308.39 323.18 311.78 329.44 314.77 335.23 C 317.76 341.02 320.15 347.03 323.31 352.70 C 326.46 358.36 329.09 365.17 332.31 370.70 C 335.52 376.22 337.53 382.95 340.92 388.08 C 344.32 393.20 346.21 401.78 349.92 406.08 C 353.64 410.38 354.34 421.69 359.00 424.00
C 371.00 424.00 383.00 424.00 395.00 424.00
C 348.88 331.42 303.35 236.36 255.00 146.00
C 249.52 158.83 242.65 171.21 237.00 184.00 Z"/>
</g>
<g fill="None" fill-opacity="0.0" stroke="#E1E1E1" stroke-opacity="1.00" stroke-width="0.3"><path d="
M 111.00 201.00 
C 119.86 199.88 134.80 196.98 143.68 193.68 C 152.56 190.37 153.86 175.28 157.00 169.00
C 145.17 171.08 130.22 172.52 118.00 172.00 C 105.78 171.48 90.49 171.66 80.00 168.00 C 69.52 164.33 53.73 162.09 54.00 175.00 C 54.28 187.91 68.14 189.55 76.98 194.02 C 85.81 198.50 100.96 200.20 111.00 201.00 Z"/>
</g>
<g fill="None" fill-opacity="0.0" stroke="#C7C7C7" stroke-opacity="1.00" stroke-width="0.3"><path d="
M 157.00 169.00 
C 153.86 175.28 152.56 190.37 143.68 193.68 C 134.80 196.98 119.86 199.88 111.00 201.00
C 126.90 201.79 145.41 200.00 159.78 195.78 C 174.14 191.55 173.58 174.70 181.00 164.00
C 172.93 165.71 165.14 167.57 157.00 169.00 Z"/>
</g>
<g fill="None" fill-opacity="0.0" stroke="#F8BE4D" stroke-opacity="1.00" stroke-width="0.3"><path d="
M 237.00 184.00 
C 196.99 264.03 157.02 343.97 117.00 424.00
C 197.67 424.00 278.33 424.00 359.00 424.00
C 354.34 421.69 353.64 410.38 349.92 406.08 C 346.21 401.78 344.32 393.20 340.92 388.08 C 337.53 382.95 335.52 376.22 332.31 370.70 C 329.09 365.17 326.46 358.36 323.31 352.70 C 320.15 347.03 317.76 341.02 314.77 335.23 C 311.78 329.44 308.39 323.18 305.77 317.23 C 303.15 311.28 299.27 306.10 296.92 300.08 C 294.58 294.05 289.98 288.10 287.92 282.08 C 285.87 276.05 280.43 270.75 279.00 265.00
C 279.00 275.56 277.93 287.58 278.00 298.00 C 278.07 308.42 275.79 320.94 277.00 331.00 C 278.21 341.06 274.33 354.06 264.00 352.00 C 253.67 349.94 238.24 357.51 236.00 345.00
C 220.38 344.62 223.60 326.27 223.00 314.00 C 222.40 301.73 221.85 284.62 222.00 272.00 C 222.15 259.38 217.94 242.49 221.03 230.03 C 224.12 217.56 250.25 228.94 259.00 225.00
C 257.60 220.31 254.14 214.26 251.92 210.08 C 249.71 205.89 246.83 198.71 244.77 195.23 C 242.71 191.75 239.75 182.42 237.00 184.00
M 264.00 360.00 
C 279.52 360.31 273.59 369.77 276.00 381.00 C 278.41 392.23 272.51 402.34 262.00 400.00 C 251.49 397.66 238.23 405.43 236.00 393.00
C 221.64 394.20 226.77 381.60 225.00 372.00 C 223.23 362.40 226.55 350.09 238.00 353.00 C 249.45 355.91 259.89 347.32 264.00 360.00 Z"/>
</g>
<g fill="None" fill-opacity="0.0" stroke="#E1E1E1" stroke-opacity="1.00" stroke-width="0.3"><path d="
M 109.00 244.00 
C 112.71 243.97 117.59 241.04 122.00 242.00
C 125.12 233.29 133.13 224.81 133.00 216.00
C 122.08 216.42 108.36 216.15 98.01 214.99 C 87.66 213.84 76.84 206.05 69.77 213.77 C 62.70 221.49 72.29 232.04 80.31 235.69 C 88.32 239.35 99.86 243.22 109.00 244.00 Z"/>
</g>
<g fill="None" fill-opacity="0.0" stroke="#C8C8C8" stroke-opacity="1.00" stroke-width="0.3"><path d="
M 133.00 216.00 
C 133.13 224.81 125.12 233.29 122.00 242.00
C 117.59 241.04 112.71 243.97 109.00 244.00
C 111.30 244.20 113.70 244.00 116.00 244.00
C 119.67 244.00 123.33 244.00 127.00 244.00
C 132.27 244.73 136.87 242.76 142.00 243.00
C 147.01 232.98 151.98 223.03 157.00 213.00
C 148.88 213.78 141.23 215.69 133.00 216.00 Z"/>
</g>
<g fill="None" fill-opacity="0.0" stroke="#DF483B" stroke-opacity="1.00" stroke-width="0.3"><path d="
M 452.00 218.00 
C 442.76 221.21 441.27 232.46 437.98 239.98 C 434.68 247.49 431.31 257.09 424.25 262.25 C 417.19 267.41 411.39 276.84 401.03 274.97 C 390.66 273.11 399.43 255.76 399.00 249.00
C 395.96 254.81 382.23 259.61 382.41 267.25 C 382.58 274.90 392.22 281.67 394.08 289.92 C 395.93 298.18 403.46 304.40 405.70 313.31 C 407.93 322.21 415.82 331.28 425.78 327.78 C 435.73 324.28 441.35 322.35 448.25 315.25 C 455.14 308.15 458.58 303.57 462.00 295.00
C 454.30 296.70 443.78 309.22 435.25 302.75 C 426.72 296.28 437.69 285.75 441.08 278.08 C 444.46 270.41 450.30 257.88 448.00 248.00 C 445.70 238.12 448.90 227.29 452.00 218.00 Z"/>
</g>
<g fill="None" fill-opacity="0.0" stroke="#292828" stroke-opacity="1.00" stroke-width="0.3"><path d="
M 236.00 345.00 
C 238.24 357.51 253.67 349.94 264.00 352.00 C 274.33 354.06 278.21 341.06 277.00 331.00 C 275.79 320.94 278.07 308.42 278.00 298.00 C 277.93 287.58 279.00 275.56 279.00 265.00
C 279.00 256.21 284.57 241.58 277.75 234.25 C 270.92 226.93 257.30 235.39 247.00 232.00 C 236.70 228.61 228.72 239.45 232.00 250.00 C 235.28 260.54 231.62 271.17 233.22 281.78 C 234.82 292.38 233.75 302.43 235.00 313.00 C 236.25 323.57 234.14 334.60 236.00 345.00
M 264.00 248.00 
C 262.27 277.23 262.20 306.88 260.00 336.00
C 257.00 336.00 254.00 336.00 251.00 336.00
C 250.86 306.45 249.23 277.28 248.00 248.00
C 253.33 248.00 258.67 248.00 264.00 248.00 Z"/>
</g>
<g fill="None" fill-opacity="0.0" stroke="#6F6F6F" stroke-opacity="1.00" stroke-width="0.3"><path d="
M 127.00 244.00 
C 123.33 244.00 119.67 244.00 116.00 244.00
C 119.39 244.32 123.55 244.33 127.00 244.00 Z"/>
</g>
<g fill="None" fill-opacity="0.0" stroke="#F6F6F6" stroke-opacity="1.00" stroke-width="0.3"><path d="
M 264.00 248.00 
C 258.67 248.00 253.33 248.00 248.00 248.00
C 249.23 277.28 250.86 306.45 251.00 336.00
C 254.00 336.00 257.00 336.00 260.00 336.00
C 262.20 306.88 262.27 277.23 264.00 248.00 Z"/>
</g>
<g fill="None" fill-opacity="0.0" stroke="#CFCFCF" stroke-opacity="1.00" stroke-width="0.3"><path d="
M 133.00 260.00 
C 122.14 258.87 113.78 261.91 103.02 258.98 C 92.27 256.04 94.37 271.16 100.75 274.25 C 107.13 277.34 116.82 285.90 123.08 281.08 C 129.33 276.25 128.11 265.58 133.00 260.00 Z"/>
</g>
<g fill="None" fill-opacity="0.0" stroke="#C1C1C1" stroke-opacity="1.00" stroke-width="0.3"><path d="
M 115.00 297.00 
C 111.34 295.89 107.52 295.51 104.00 294.00
C 101.46 299.62 103.19 306.14 109.00 309.00
C 111.02 304.98 112.97 301.03 115.00 297.00 Z"/>
</g>
<g fill="None" fill-opacity="0.0" stroke="#A9824F" stroke-opacity="1.00" stroke-width="0.3"><path d="
M 86.00 354.00 
C 76.51 349.54 68.38 342.36 59.00 338.00
C 57.94 342.34 57.23 346.74 56.00 351.00
C 64.54 355.28 72.42 361.09 81.00 365.00
C 81.87 361.04 84.42 357.73 86.00 354.00 Z"/>
</g>
<g fill="None" fill-opacity="0.0" stroke="#DDAD4D" stroke-opacity="1.00" stroke-width="0.3"><path d="
M 236.00 393.00 
C 234.64 385.41 234.38 370.97 236.93 363.93 C 239.47 356.89 258.11 359.88 264.00 360.00
C 259.89 347.32 249.45 355.91 238.00 353.00 C 226.55 350.09 223.23 362.40 225.00 372.00 C 226.77 381.60 221.64 394.20 236.00 393.00 Z"/>
</g>
<g fill="None" fill-opacity="0.0" stroke="#282727" stroke-opacity="1.00" stroke-width="0.3"><path d="
M 236.00 393.00 
C 238.23 405.43 251.49 397.66 262.00 400.00 C 272.51 402.34 278.41 392.23 276.00 381.00 C 273.59 369.77 279.52 360.31 264.00 360.00
C 258.11 359.88 239.47 356.89 236.93 363.93 C 234.38 370.97 234.64 385.41 236.00 393.00
M 260.00 376.00 
C 261.67 382.44 258.44 385.61 252.00 384.00
C 250.33 377.56 253.56 374.39 260.00 376.00 Z"/>
</g>
<g fill="None" fill-opacity="0.0" stroke="#AC8451" stroke-opacity="1.00" stroke-width="0.3"><path d="
M 453.00 364.00 
C 448.21 367.05 445.43 371.34 440.70 374.70 C 435.96 378.06 440.71 384.42 444.00 388.00
C 452.43 381.90 461.26 374.46 453.00 364.00 Z"/>
</g>
<g fill="None" fill-opacity="0.0" stroke="#FFFFFF" stroke-opacity="1.00" stroke-width="0.3"><path d="
M 260.00 376.00 
C 253.56 374.39 250.33 377.56 252.00 384.00
C 258.44 385.61 261.67 382.44 260.00 376.00 Z"/>
</g>
<g fill="#000000" fill-opacity="0.00" stroke="None">
<path d="
M 0.00 512.00 
L 512.00 512.00
L 512.00 0.00
L 0.00 0.00
L 0.00 512.00
M 288.00 77.00 
C 296.86 73.45 306.99 75.26 316.00 77.00
C 315.61 48.12 341.70 24.05 370.00 24.00 C 398.30 23.95 424.38 48.16 424.00 77.00
C 460.81 66.60 498.61 99.44 486.07 139.07 C 473.54 178.71 424.87 176.52 389.00 174.00
C 388.68 184.90 381.02 190.11 380.22 201.22 C 379.43 212.34 362.60 213.94 363.00 202.00 C 363.40 190.05 369.93 185.30 371.00 174.00
C 359.67 174.00 348.33 174.00 337.00 174.00
C 348.34 199.67 362.65 224.31 374.00 250.00
C 378.36 244.62 387.68 239.78 390.30 233.30 C 392.93 226.82 398.58 213.94 407.22 220.78 C 415.87 227.61 413.77 236.88 416.00 246.00
C 425.63 237.21 423.24 222.61 432.25 213.25 C 441.27 203.90 451.88 194.78 467.02 199.98 C 482.16 205.17 467.33 220.26 465.01 232.01 C 462.69 243.76 467.26 263.52 460.00 275.00
C 468.76 273.55 471.92 254.86 482.67 259.33 C 493.42 263.80 485.66 279.89 483.07 288.07 C 480.48 296.26 475.21 306.66 470.23 314.23 C 465.25 321.80 458.95 328.68 451.25 334.25 C 443.55 339.83 432.07 344.59 422.00 344.00
C 423.84 349.95 427.45 355.27 430.00 361.00
C 439.15 355.48 441.08 350.94 450.25 344.25 C 459.42 337.56 466.96 351.00 468.78 359.22 C 470.60 367.44 480.18 378.96 471.75 385.75 C 463.33 392.54 459.48 397.15 451.00 403.00
C 456.06 412.18 460.22 422.64 465.31 431.70 C 470.39 440.75 474.79 452.46 479.92 461.08 C 485.06 469.69 494.54 487.51 479.00 488.00 C 463.45 488.49 450.99 487.78 436.00 488.00 C 421.01 488.22 406.78 487.90 392.00 488.00 C 377.22 488.10 362.65 487.94 348.00 488.00 C 333.35 488.06 319.62 487.96 305.00 488.00 C 290.38 488.04 275.65 487.94 261.00 488.00 C 246.35 488.06 231.68 487.88 217.00 488.00 C 202.32 488.12 187.73 487.74 173.00 488.00 C 158.27 488.26 144.92 487.41 130.00 488.00 C 115.08 488.59 101.38 486.72 86.00 488.00 C 70.62 489.28 58.31 485.17 42.00 488.00 C 25.69 490.83 21.07 479.48 28.77 467.77 C 36.47 456.06 37.06 448.98 43.31 438.31 C 49.55 427.63 52.55 419.30 57.92 408.92 C 63.30 398.55 68.39 389.81 72.00 379.00
C 60.26 373.41 57.96 370.28 45.75 363.25 C 33.54 356.22 43.38 344.83 43.93 331.93 C 44.47 319.03 56.16 313.59 66.23 322.77 C 76.30 331.95 83.04 331.02 93.00 339.00
C 95.69 333.64 98.32 328.36 101.00 323.00
C 93.69 318.65 88.19 312.63 87.01 303.99 C 85.82 295.36 90.91 286.38 83.08 279.92 C 75.25 273.45 77.96 261.43 81.00 254.00
C 59.59 248.17 40.89 222.23 57.00 202.00
C 40.03 196.19 29.54 171.32 44.00 158.00
C 26.85 150.95 15.76 125.36 31.75 111.75 C 47.75 98.14 63.97 94.07 84.22 90.22 C 104.47 86.37 133.70 87.31 154.01 89.99 C 174.32 92.67 191.59 98.00 208.00 110.00
C 208.86 106.07 211.44 102.72 213.00 99.00
C 204.54 94.85 194.16 87.11 186.25 82.75 C 178.35 78.38 162.50 70.97 166.99 60.99 C 171.48 51.01 168.49 34.27 178.08 29.08 C 187.67 23.90 197.41 38.90 206.23 41.77 C 215.05 44.64 224.57 55.63 234.00 58.00
C 235.75 48.50 243.29 44.05 245.31 34.31 C 247.32 24.56 259.93 20.13 264.30 29.70 C 268.68 39.26 271.82 44.28 275.92 53.08 C 280.03 61.87 284.02 68.35 288.00 77.00 Z"/>
</g>
<g fill="#272727" fill-opacity="0.98" stroke="None">
<path d="
M 288.00 77.00 
C 284.02 68.35 280.03 61.87 275.92 53.08 C 271.82 44.28 268.68 39.26 264.30 29.70 C 259.93 20.13 247.32 24.56 245.31 34.31 C 243.29 44.05 235.75 48.50 234.00 58.00
C 224.57 55.63 215.05 44.64 206.23 41.77 C 197.41 38.90 187.67 23.90 178.08 29.08 C 168.49 34.27 171.48 51.01 166.99 60.99 C 162.50 70.97 178.35 78.38 186.25 82.75 C 194.16 87.11 204.54 94.85 213.00 99.00
C 211.44 102.72 208.86 106.07 208.00 110.00
C 191.59 98.00 174.32 92.67 154.01 89.99 C 133.70 87.31 104.47 86.37 84.22 90.22 C 63.97 94.07 47.75 98.14 31.75 111.75 C 15.76 125.36 26.85 150.95 44.00 158.00
C 29.54 171.32 40.03 196.19 57.00 202.00
C 40.89 222.23 59.59 248.17 81.00 254.00
C 77.96 261.43 75.25 273.45 83.08 279.92 C 90.91 286.38 85.82 295.36 87.01 303.99 C 88.19 312.63 93.69 318.65 101.00 323.00
C 98.32 328.36 95.69 333.64 93.00 339.00
C 83.04 331.02 76.30 331.95 66.23 322.77 C 56.16 313.59 44.47 319.03 43.93 331.93 C 43.38 344.83 33.54 356.22 45.75 363.25 C 57.96 370.28 60.26 373.41 72.00 379.00
C 68.39 389.81 63.30 398.55 57.92 408.92 C 52.55 419.30 49.55 427.63 43.31 438.31 C 37.06 448.98 36.47 456.06 28.77 467.77 C 21.07 479.48 25.69 490.83 42.00 488.00 C 58.31 485.17 70.62 489.28 86.00 488.00 C 101.38 486.72 115.08 488.59 130.00 488.00 C 144.92 487.41 158.27 488.26 173.00 488.00 C 187.73 487.74 202.32 488.12 217.00 488.00 C 231.68 487.88 246.35 488.06 261.00 488.00 C 275.65 487.94 290.38 488.04 305.00 488.00 C 319.62 487.96 333.35 488.06 348.00 488.00 C 362.65 487.94 377.22 488.10 392.00 488.00 C 406.78 487.90 421.01 488.22 436.00 488.00 C 450.99 487.78 463.45 488.49 479.00 488.00 C 494.54 487.51 485.06 469.69 479.92 461.08 C 474.79 452.46 470.39 440.75 465.31 431.70 C 460.22 422.64 456.06 412.18 451.00 403.00
C 459.48 397.15 463.33 392.54 471.75 385.75 C 480.18 378.96 470.60 367.44 468.78 359.22 C 466.96 351.00 459.42 337.56 450.25 344.25 C 441.08 350.94 439.15 355.48 430.00 361.00
C 427.45 355.27 423.84 349.95 422.00 344.00
C 432.07 344.59 443.55 339.83 451.25 334.25 C 458.95 328.68 465.25 321.80 470.23 314.23 C 475.21 306.66 480.48 296.26 483.07 288.07 C 485.66 279.89 493.42 263.80 482.67 259.33 C 471.92 254.86 468.76 273.55 460.00 275.00
C 467.26 263.52 462.69 243.76 465.01 232.01 C 467.33 220.26 482.16 205.17 467.02 199.98 C 451.88 194.78 441.27 203.90 432.25 213.25 C 423.24 222.61 425.63 237.21 416.00 246.00
C 413.77 236.88 415.87 227.61 407.22 220.78 C 398.58 213.94 392.93 226.82 390.30 233.30 C 387.68 239.78 378.36 244.62 374.00 250.00
C 362.65 224.31 348.34 199.67 337.00 174.00
C 348.33 174.00 359.67 174.00 371.00 174.00
C 369.93 185.30 363.40 190.05 363.00 202.00 C 362.60 213.94 379.43 212.34 380.22 201.22 C 381.02 190.11 388.68 184.90 389.00 174.00
C 424.87 176.52 473.54 178.71 486.07 139.07 C 498.61 99.44 460.81 66.60 424.00 77.00
C 424.38 48.16 398.30 23.95 370.00 24.00 C 341.70 24.05 315.61 48.12 316.00 77.00
C 306.99 75.26 296.86 73.45 288.00 77.00
M 395.00 157.00 
C 394.58 145.49 409.47 132.42 404.22 120.78 C 398.98 109.14 376.31 122.63 367.00 121.00
C 367.86 112.39 375.50 101.60 376.32 93.32 C 377.15 85.04 390.03 72.00 379.75 65.25 C 369.47 58.50 365.04 76.97 363.02 84.02 C 361.01 91.08 354.84 104.89 353.02 112.02 C 351.21 119.15 341.26 135.37 352.23 138.77 C 363.20 142.17 374.16 132.71 385.00 134.00
C 383.62 141.92 379.89 149.19 378.00 157.00
C 361.00 157.00 344.00 157.00 327.00 157.00
C 317.19 135.04 305.54 113.73 295.00 92.00
C 308.87 87.86 311.07 96.23 324.03 99.97 C 336.99 103.72 332.51 83.81 332.00 75.00 C 331.49 66.19 338.99 55.95 345.75 49.75 C 352.51 43.56 366.50 38.84 376.00 41.00 C 385.50 43.16 394.61 46.63 400.25 55.75 C 405.89 64.87 411.10 73.58 407.01 86.01 C 402.92 98.43 414.37 104.03 423.70 95.70 C 433.02 87.36 444.76 91.09 454.08 94.92 C 463.39 98.76 468.79 107.41 470.99 117.01 C 473.19 126.61 471.41 138.84 463.75 146.75 C 456.08 154.65 446.89 157.84 435.00 157.00 C 423.11 156.16 407.25 157.63 395.00 157.00
M 226.00 73.00 
C 225.14 76.93 222.56 80.28 221.00 84.00
C 208.15 77.90 196.44 69.14 184.00 62.00
C 185.22 58.08 185.23 53.79 187.00 50.00
C 200.38 56.68 212.69 65.89 226.00 73.00
M 426.00 472.00 
C 299.00 472.00 172.00 472.00 45.00 472.00
C 108.35 345.30 171.65 218.69 235.00 92.00
C 241.25 77.85 248.90 64.18 255.00 50.00
C 291.90 118.15 326.36 190.07 361.77 260.23 C 397.18 330.39 432.26 401.53 467.00 472.00
C 453.33 472.00 439.67 472.00 426.00 472.00
M 200.00 125.00 
C 198.94 129.98 195.06 134.00 194.00 139.00
C 186.14 135.86 181.29 130.72 172.78 128.22 C 164.26 125.72 156.14 122.29 146.78 121.22 C 137.41 120.15 125.09 118.83 115.00 120.00 C 104.91 121.17 94.87 118.25 85.31 123.31 C 75.74 128.36 85.23 141.28 94.67 137.67 C 104.11 134.06 115.36 135.39 125.00 135.00 C 134.64 134.61 145.17 137.31 154.01 138.99 C 162.84 140.68 170.95 144.07 177.00 149.00
C 159.78 154.69 140.33 154.85 122.00 156.00 C 103.67 157.15 82.37 152.20 66.32 148.68 C 50.28 145.15 31.94 131.44 48.08 120.08 C 64.22 108.73 78.03 108.50 96.22 105.22 C 114.41 101.94 137.89 104.09 155.22 106.78 C 172.55 109.47 186.77 113.47 200.00 125.00
M 157.00 169.00 
C 165.14 167.57 172.93 165.71 181.00 164.00
C 173.58 174.70 174.14 191.55 159.78 195.78 C 145.41 200.00 126.90 201.79 111.00 201.00
C 100.96 200.20 85.81 198.50 76.98 194.02 C 68.14 189.55 54.28 187.91 54.00 175.00 C 53.73 162.09 69.52 164.33 80.00 168.00 C 90.49 171.66 105.78 171.48 118.00 172.00 C 130.22 172.52 145.17 171.08 157.00 169.00
M 133.00 216.00 
C 141.23 215.69 148.88 213.78 157.00 213.00
C 151.98 223.03 147.01 232.98 142.00 243.00
C 136.87 242.76 132.27 244.73 127.00 244.00
C 123.55 244.33 119.39 244.32 116.00 244.00
C 113.70 244.00 111.30 244.20 109.00 244.00
C 99.86 243.22 88.32 239.35 80.31 235.69 C 72.29 232.04 62.70 221.49 69.77 213.77 C 76.84 206.05 87.66 213.84 98.01 214.99 C 108.36 216.15 122.08 216.42 133.00 216.00
M 452.00 218.00 
C 448.90 227.29 445.70 238.12 448.00 248.00 C 450.30 257.88 444.46 270.41 441.08 278.08 C 437.69 285.75 426.72 296.28 435.25 302.75 C 443.78 309.22 454.30 296.70 462.00 295.00
C 458.58 303.57 455.14 308.15 448.25 315.25 C 441.35 322.35 435.73 324.28 425.78 327.78 C 415.82 331.28 407.93 322.21 405.70 313.31 C 403.46 304.40 395.93 298.18 394.08 289.92 C 392.22 281.67 382.58 274.90 382.41 267.25 C 382.23 259.61 395.96 254.81 399.00 249.00
C 399.43 255.76 390.66 273.11 401.03 274.97 C 411.39 276.84 417.19 267.41 424.25 262.25 C 431.31 257.09 434.68 247.49 437.98 239.98 C 441.27 232.46 442.76 221.21 452.00 218.00
M 133.00 260.00 
C 128.11 265.58 129.33 276.25 123.08 281.08 C 116.82 285.90 107.13 277.34 100.75 274.25 C 94.37 271.16 92.27 256.04 103.02 258.98 C 113.78 261.91 122.14 258.87 133.00 260.00
M 115.00 297.00 
C 112.97 301.03 111.02 304.98 109.00 309.00
C 103.19 306.14 101.46 299.62 104.00 294.00
C 107.52 295.51 111.34 295.89 115.00 297.00
M 86.00 354.00 
C 84.42 357.73 81.87 361.04 81.00 365.00
C 72.42 361.09 64.54 355.28 56.00 351.00
C 57.23 346.74 57.94 342.34 59.00 338.00
C 68.38 342.36 76.51 349.54 86.00 354.00
M 453.00 364.00 
C 461.26 374.46 452.43 381.90 444.00 388.00
C 440.71 384.42 435.96 378.06 440.70 374.70 C 445.43 371.34 448.21 367.05 453.00 364.00 Z"/>
</g>
<g fill="#959595" fill-opacity="1.00" stroke="None">
<path d="
M 395.00 157.00 
C 407.25 157.63 423.11 156.16 435.00 157.00 C 446.89 157.84 456.08 154.65 463.75 146.75 C 471.41 138.84 473.19 126.61 470.99 117.01 C 468.79 107.41 463.39 98.76 454.08 94.92 C 444.76 91.09 433.02 87.36 423.70 95.70 C 414.37 104.03 402.92 98.43 407.01 86.01 C 411.10 73.58 405.89 64.87 400.25 55.75 C 394.61 46.63 385.50 43.16 376.00 41.00 C 366.50 38.84 352.51 43.56 345.75 49.75 C 338.99 55.95 331.49 66.19 332.00 75.00 C 332.51 83.81 336.99 103.72 324.03 99.97 C 311.07 96.23 308.87 87.86 295.00 92.00
C 305.54 113.73 317.19 135.04 327.00 157.00
C 344.00 157.00 361.00 157.00 378.00 157.00
C 379.89 149.19 383.62 141.92 385.00 134.00
C 374.16 132.71 363.20 142.17 352.23 138.77 C 341.26 135.37 351.21 119.15 353.02 112.02 C 354.84 104.89 361.01 91.08 363.02 84.02 C 365.04 76.97 369.47 58.50 379.75 65.25 C 390.03 72.00 377.15 85.04 376.32 93.32 C 375.50 101.60 367.86 112.39 367.00 121.00
C 376.31 122.63 398.98 109.14 404.22 120.78 C 409.47 132.42 394.58 145.49 395.00 157.00 Z"/>
</g>
<g fill="#B48A54" fill-opacity="1.00" stroke="None">
<path d="
M 226.00 73.00 
C 212.69 65.89 200.38 56.68 187.00 50.00
C 185.23 53.79 185.22 58.08 184.00 62.00
C 196.44 69.14 208.15 77.90 221.00 84.00
C 222.56 80.28 225.14 76.93 226.00 73.00 Z"/>
</g>
<g fill="#E27265" fill-opacity="1.00" stroke="None">
<path d="
M 235.00 92.00 
C 238.16 94.58 242.10 101.06 243.31 105.69 C 244.51 110.33 251.20 116.27 251.00 121.00
C 262.70 113.68 267.42 134.23 271.92 142.08 C 276.43 149.92 282.26 163.04 286.92 172.08 C 291.59 181.11 297.32 192.49 301.92 202.08 C 306.53 211.66 312.11 221.40 316.77 231.23 C 321.43 241.05 326.91 251.36 331.77 261.23 C 336.63 271.09 341.81 281.41 346.77 291.23 C 351.73 301.05 356.74 311.59 361.77 321.23 C 366.80 330.87 371.40 341.28 376.31 350.70 C 381.21 360.11 386.76 371.68 391.31 380.70 C 395.85 389.71 402.42 402.74 406.31 410.70 C 410.19 418.65 423.14 436.94 410.00 440.00
C 414.51 441.95 415.03 451.83 418.31 455.70 C 421.58 459.56 423.67 467.45 426.00 472.00
C 439.67 472.00 453.33 472.00 467.00 472.00
C 432.26 401.53 397.18 330.39 361.77 260.23 C 326.36 190.07 291.90 118.15 255.00 50.00
C 248.90 64.18 241.25 77.85 235.00 92.00 Z"/>
</g>
<g fill="#FE8072" fill-opacity="1.00" stroke="None">
<path d="
M 426.00 472.00 
C 423.67 467.45 421.58 459.56 418.31 455.70 C 415.03 451.83 414.51 441.95 410.00 440.00
C 398.19 442.75 385.20 438.79 373.00 440.00 C 360.80 441.21 347.37 439.43 335.00 440.00 C 322.63 440.57 310.46 439.72 298.00 440.00 C 285.54 440.28 272.52 439.81 260.00 440.00 C 247.48 440.19 235.60 439.78 223.00 440.00 C 210.40 440.22 197.72 439.60 185.00 440.00 C 172.28 440.40 161.01 439.14 148.00 440.00 C 134.99 440.86 123.59 438.16 110.00 440.00 C 96.41 441.84 94.11 430.45 100.31 421.31 C 106.50 412.16 107.83 404.64 112.92 395.92 C 118.02 387.21 120.72 379.81 125.31 371.31 C 129.89 362.80 133.57 354.34 137.92 345.92 C 142.28 337.51 146.05 329.67 150.31 321.31 C 154.56 312.94 158.72 304.27 162.92 295.92 C 167.13 287.58 171.10 279.62 175.31 271.31 C 179.51 262.99 183.71 254.20 187.92 245.92 C 192.14 237.65 196.03 229.49 200.31 221.31 C 204.58 213.12 208.55 203.94 212.92 195.92 C 217.30 187.91 220.65 178.90 225.31 171.31 C 229.96 163.71 232.71 152.66 237.92 145.92 C 243.14 139.18 243.94 125.41 251.00 121.00
C 251.20 116.27 244.51 110.33 243.31 105.69 C 242.10 101.06 238.16 94.58 235.00 92.00
C 171.65 218.69 108.35 345.30 45.00 472.00
C 172.00 472.00 299.00 472.00 426.00 472.00 Z"/>
</g>
<g fill="#989898" fill-opacity="1.00" stroke="None">
<path d="
M 200.00 125.00 
C 186.77 113.47 172.55 109.47 155.22 106.78 C 137.89 104.09 114.41 101.94 96.22 105.22 C 78.03 108.50 64.22 108.73 48.08 120.08 C 31.94 131.44 50.28 145.15 66.32 148.68 C 82.37 152.20 103.67 157.15 122.00 156.00 C 140.33 154.85 159.78 154.69 177.00 149.00
C 170.95 144.07 162.84 140.68 154.01 138.99 C 145.17 137.31 134.64 134.61 125.00 135.00 C 115.36 135.39 104.11 134.06 94.67 137.67 C 85.23 141.28 75.74 128.36 85.31 123.31 C 94.87 118.25 104.91 121.17 115.00 120.00 C 125.09 118.83 137.41 120.15 146.78 121.22 C 156.14 122.29 164.26 125.72 172.78 128.22 C 181.29 130.72 186.14 135.86 194.00 139.00
C 195.06 134.00 198.94 129.98 200.00 125.00 Z"/>
</g>
<g fill="#282727" fill-opacity="1.00" stroke="None">
<path d="
M 251.00 121.00 
C 243.94 125.41 243.14 139.18 237.92 145.92 C 232.71 152.66 229.96 163.71 225.31 171.31 C 220.65 178.90 217.30 187.91 212.92 195.92 C 208.55 203.94 204.58 213.12 200.31 221.31 C 196.03 229.49 192.14 237.65 187.92 245.92 C 183.71 254.20 179.51 262.99 175.31 271.31 C 171.10 279.62 167.13 287.58 162.92 295.92 C 158.72 304.27 154.56 312.94 150.31 321.31 C 146.05 329.67 142.28 337.51 137.92 345.92 C 133.57 354.34 129.89 362.80 125.31 371.31 C 120.72 379.81 118.02 387.21 112.92 395.92 C 107.83 404.64 106.50 412.16 100.31 421.31 C 94.11 430.45 96.41 441.84 110.00 440.00 C 123.59 438.16 134.99 440.86 148.00 440.00 C 161.01 439.14 172.28 440.40 185.00 440.00 C 197.72 439.60 210.40 440.22 223.00 440.00 C 235.60 439.78 247.48 440.19 260.00 440.00 C 272.52 439.81 285.54 440.28 298.00 440.00 C 310.46 439.72 322.63 440.57 335.00 440.00 C 347.37 439.43 360.80 441.21 373.00 440.00 C 385.20 438.79 398.19 442.75 410.00 440.00
C 423.14 436.94 410.19 418.65 406.31 410.70 C 402.42 402.74 395.85 389.71 391.31 380.70 C 386.76 371.68 381.21 360.11 376.31 350.70 C 371.40 341.28 366.80 330.87 361.77 321.23 C 356.74 311.59 351.73 301.05 346.77 291.23 C 341.81 281.41 336.63 271.09 331.77 261.23 C 326.91 251.36 321.43 241.05 316.77 231.23 C 312.11 221.40 306.53 211.66 301.92 202.08 C 297.32 192.49 291.59 181.11 286.92 172.08 C 282.26 163.04 276.43 149.92 271.92 142.08 C 267.42 134.23 262.70 113.68 251.00 121.00
M 359.00 424.00 
C 278.33 424.00 197.67 424.00 117.00 424.00
C 157.02 343.97 196.99 264.03 237.00 184.00
C 242.65 171.21 249.52 158.83 255.00 146.00
C 303.35 236.36 348.88 331.42 395.00 424.00
C 383.00 424.00 371.00 424.00 359.00 424.00 Z"/>
</g>
<g fill="#DBAC4D" fill-opacity="1.00" stroke="None">
<path d="
M 237.00 184.00 
C 239.75 182.42 242.71 191.75 244.77 195.23 C 246.83 198.71 249.71 205.89 251.92 210.08 C 254.14 214.26 257.60 220.31 259.00 225.00
C 250.25 228.94 224.12 217.56 221.03 230.03 C 217.94 242.49 222.15 259.38 222.00 272.00 C 221.85 284.62 222.40 301.73 223.00 314.00 C 223.60 326.27 220.38 344.62 236.00 345.00
C 234.14 334.60 236.25 323.57 235.00 313.00 C 233.75 302.43 234.82 292.38 233.22 281.78 C 231.62 271.17 235.28 260.54 232.00 250.00 C 228.72 239.45 236.70 228.61 247.00 232.00 C 257.30 235.39 270.92 226.93 277.75 234.25 C 284.57 241.58 279.00 256.21 279.00 265.00
C 280.43 270.75 285.87 276.05 287.92 282.08 C 289.98 288.10 294.58 294.05 296.92 300.08 C 299.27 306.10 303.15 311.28 305.77 317.23 C 308.39 323.18 311.78 329.44 314.77 335.23 C 317.76 341.02 320.15 347.03 323.31 352.70 C 326.46 358.36 329.09 365.17 332.31 370.70 C 335.52 376.22 337.53 382.95 340.92 388.08 C 344.32 393.20 346.21 401.78 349.92 406.08 C 353.64 410.38 354.34 421.69 359.00 424.00
C 371.00 424.00 383.00 424.00 395.00 424.00
C 348.88 331.42 303.35 236.36 255.00 146.00
C 249.52 158.83 242.65 171.21 237.00 184.00 Z"/>
</g>
<g fill="#E1E1E1" fill-opacity="1.00" stroke="None">
<path d="
M 111.00 201.00 
C 119.86 199.88 134.80 196.98 143.68 193.68 C 152.56 190.37 153.86 175.28 157.00 169.00
C 145.17 171.08 130.22 172.52 118.00 172.00 C 105.78 171.48 90.49 171.66 80.00 168.00 C 69.52 164.33 53.73 162.09 54.00 175.00 C 54.28 187.91 68.14 189.55 76.98 194.02 C 85.81 198.50 100.96 200.20 111.00 201.00 Z"/>
</g>
<g fill="#C7C7C7" fill-opacity="1.00" stroke="None">
<path d="
M 157.00 169.00 
C 153.86 175.28 152.56 190.37 143.68 193.68 C 134.80 196.98 119.86 199.88 111.00 201.00
C 126.90 201.79 145.41 200.00 159.78 195.78 C 174.14 191.55 173.58 174.70 181.00 164.00
C 172.93 165.71 165.14 167.57 157.00 169.00 Z"/>
</g>
<g fill="#F8BE4D" fill-opacity="1.00" stroke="None">
<path d="
M 237.00 184.00 
C 196.99 264.03 157.02 343.97 117.00 424.00
C 197.67 424.00 278.33 424.00 359.00 424.00
C 354.34 421.69 353.64 410.38 349.92 406.08 C 346.21 401.78 344.32 393.20 340.92 388.08 C 337.53 382.95 335.52 376.22 332.31 370.70 C 329.09 365.17 326.46 358.36 323.31 352.70 C 320.15 347.03 317.76 341.02 314.77 335.23 C 311.78 329.44 308.39 323.18 305.77 317.23 C 303.15 311.28 299.27 306.10 296.92 300.08 C 294.58 294.05 289.98 288.10 287.92 282.08 C 285.87 276.05 280.43 270.75 279.00 265.00
C 279.00 275.56 277.93 287.58 278.00 298.00 C 278.07 308.42 275.79 320.94 277.00 331.00 C 278.21 341.06 274.33 354.06 264.00 352.00 C 253.67 349.94 238.24 357.51 236.00 345.00
C 220.38 344.62 223.60 326.27 223.00 314.00 C 222.40 301.73 221.85 284.62 222.00 272.00 C 222.15 259.38 217.94 242.49 221.03 230.03 C 224.12 217.56 250.25 228.94 259.00 225.00
C 257.60 220.31 254.14 214.26 251.92 210.08 C 249.71 205.89 246.83 198.71 244.77 195.23 C 242.71 191.75 239.75 182.42 237.00 184.00
M 264.00 360.00 
C 279.52 360.31 273.59 369.77 276.00 381.00 C 278.41 392.23 272.51 402.34 262.00 400.00 C 251.49 397.66 238.23 405.43 236.00 393.00
C 221.64 394.20 226.77 381.60 225.00 372.00 C 223.23 362.40 226.55 350.09 238.00 353.00 C 249.45 355.91 259.89 347.32 264.00 360.00 Z"/>
</g>
<g fill="#E1E1E1" fill-opacity="1.00" stroke="None">
<path d="
M 109.00 244.00 
C 112.71 243.97 117.59 241.04 122.00 242.00
C 125.12 233.29 133.13 224.81 133.00 216.00
C 122.08 216.42 108.36 216.15 98.01 214.99 C 87.66 213.84 76.84 206.05 69.77 213.77 C 62.70 221.49 72.29 232.04 80.31 235.69 C 88.32 239.35 99.86 243.22 109.00 244.00 Z"/>
</g>
<g fill="#C8C8C8" fill-opacity="1.00" stroke="None">
<path d="
M 133.00 216.00 
C 133.13 224.81 125.12 233.29 122.00 242.00
C 117.59 241.04 112.71 243.97 109.00 244.00
C 111.30 244.20 113.70 244.00 116.00 244.00
C 119.67 244.00 123.33 244.00 127.00 244.00
C 132.27 244.73 136.87 242.76 142.00 243.00
C 147.01 232.98 151.98 223.03 157.00 213.00
C 148.88 213.78 141.23 215.69 133.00 216.00 Z"/>
</g>
<g fill="#DF483B" fill-opacity="1.00" stroke="None">
<path d="
M 452.00 218.00 
C 442.76 221.21 441.27 232.46 437.98 239.98 C 434.68 247.49 431.31 257.09 424.25 262.25 C 417.19 267.41 411.39 276.84 401.03 274.97 C 390.66 273.11 399.43 255.76 399.00 249.00
C 395.96 254.81 382.23 259.61 382.41 267.25 C 382.58 274.90 392.22 281.67 394.08 289.92 C 395.93 298.18 403.46 304.40 405.70 313.31 C 407.93 322.21 415.82 331.28 425.78 327.78 C 435.73 324.28 441.35 322.35 448.25 315.25 C 455.14 308.15 458.58 303.57 462.00 295.00
C 454.30 296.70 443.78 309.22 435.25 302.75 C 426.72 296.28 437.69 285.75 441.08 278.08 C 444.46 270.41 450.30 257.88 448.00 248.00 C 445.70 238.12 448.90 227.29 452.00 218.00 Z"/>
</g>
<g fill="#292828" fill-opacity="1.00" stroke="None">
<path d="
M 236.00 345.00 
C 238.24 357.51 253.67 349.94 264.00 352.00 C 274.33 354.06 278.21 341.06 277.00 331.00 C 275.79 320.94 278.07 308.42 278.00 298.00 C 277.93 287.58 279.00 275.56 279.00 265.00
C 279.00 256.21 284.57 241.58 277.75 234.25 C 270.92 226.93 257.30 235.39 247.00 232.00 C 236.70 228.61 228.72 239.45 232.00 250.00 C 235.28 260.54 231.62 271.17 233.22 281.78 C 234.82 292.38 233.75 302.43 235.00 313.00 C 236.25 323.57 234.14 334.60 236.00 345.00
M 264.00 248.00 
C 262.27 277.23 262.20 306.88 260.00 336.00
C 257.00 336.00 254.00 336.00 251.00 336.00
C 250.86 306.45 249.23 277.28 248.00 248.00
C 253.33 248.00 258.67 248.00 264.00 248.00 Z"/>
</g>
<g fill="#6F6F6F" fill-opacity="1.00" stroke="None">
<path d="
M 127.00 244.00 
C 123.33 244.00 119.67 244.00 116.00 244.00
C 119.39 244.32 123.55 244.33 127.00 244.00 Z"/>
</g>
<g fill="#F6F6F6" fill-opacity="1.00" stroke="None">
<path d="
M 264.00 248.00 
C 258.67 248.00 253.33 248.00 248.00 248.00
C 249.23 277.28 250.86 306.45 251.00 336.00
C 254.00 336.00 257.00 336.00 260.00 336.00
C 262.20 306.88 262.27 277.23 264.00 248.00 Z"/>
</g>
<g fill="#CFCFCF" fill-opacity="1.00" stroke="None">
<path d="
M 133.00 260.00 
C 122.14 258.87 113.78 261.91 103.02 258.98 C 92.27 256.04 94.37 271.16 100.75 274.25 C 107.13 277.34 116.82 285.90 123.08 281.08 C 129.33 276.25 128.11 265.58 133.00 260.00 Z"/>
</g>
<g fill="#C1C1C1" fill-opacity="1.00" stroke="None">
<path d="
M 115.00 297.00 
C 111.34 295.89 107.52 295.51 104.00 294.00
C 101.46 299.62 103.19 306.14 109.00 309.00
C 111.02 304.98 112.97 301.03 115.00 297.00 Z"/>
</g>
<g fill="#A9824F" fill-opacity="1.00" stroke="None">
<path d="
M 86.00 354.00 
C 76.51 349.54 68.38 342.36 59.00 338.00
C 57.94 342.34 57.23 346.74 56.00 351.00
C 64.54 355.28 72.42 361.09 81.00 365.00
C 81.87 361.04 84.42 357.73 86.00 354.00 Z"/>
</g>
<g fill="#DDAD4D" fill-opacity="1.00" stroke="None">
<path d="
M 236.00 393.00 
C 234.64 385.41 234.38 370.97 236.93 363.93 C 239.47 356.89 258.11 359.88 264.00 360.00
C 259.89 347.32 249.45 355.91 238.00 353.00 C 226.55 350.09 223.23 362.40 225.00 372.00 C 226.77 381.60 221.64 394.20 236.00 393.00 Z"/>
</g>
<g fill="#282727" fill-opacity="1.00" stroke="None">
<path d="
M 236.00 393.00 
C 238.23 405.43 251.49 397.66 262.00 400.00 C 272.51 402.34 278.41 392.23 276.00 381.00 C 273.59 369.77 279.52 360.31 264.00 360.00
C 258.11 359.88 239.47 356.89 236.93 363.93 C 234.38 370.97 234.64 385.41 236.00 393.00
M 260.00 376.00 
C 261.67 382.44 258.44 385.61 252.00 384.00
C 250.33 377.56 253.56 374.39 260.00 376.00 Z"/>
</g>
<g fill="#AC8451" fill-opacity="1.00" stroke="None">
<path d="
M 453.00 364.00 
C 448.21 367.05 445.43 371.34 440.70 374.70 C 435.96 378.06 440.71 384.42 444.00 388.00
C 452.43 381.90 461.26 374.46 453.00 364.00 Z"/>
</g>
<g fill="#FFFFFF" fill-opacity="1.00" stroke="None">
<path d="
M 260.00 376.00 
C 253.56 374.39 250.33 377.56 252.00 384.00
C 258.44 385.61 261.67 382.44 260.00 376.00 Z"/>
</g>
</svg>