<svg xmlns="http://www.w3.org/2000/svg" xmlns:v="https://svgstorm.com"
viewBox = "0 0 512 512"
width="512"
height="512">
<g fill="None" fill-opacity="0.0" stroke="#000000" stroke-opacity="0.01" stroke-width="0.3"><path d="
M 0.00 349.00 
C 2.36 330.95 22.35 325.06 36.00 317.00
C 34.42 309.47 20.37 295.24 29.25 288.25 C 38.14 281.27 47.94 279.00 57.08 273.08 C 66.21 267.15 75.26 262.42 85.00 258.00
C 81.01 200.42 95.23 158.66 119.00 126.00
C 99.60 125.84 75.26 129.56 76.93 106.92 C 78.60 84.27 74.39 50.51 76.80 27.75 C 79.22 5.00 104.43 10.39 127.00 10.00 C 149.57 9.61 184.65 10.80 208.00 10.00 C 231.35 9.20 231.78 32.33 230.00 54.00
C 241.91 48.67 260.03 50.68 276.00 50.00 C 291.97 49.32 302.29 52.01 315.25 54.80 C 328.21 57.59 337.16 61.60 347.92 66.13 C 358.67 70.66 364.52 75.38 375.77 82.24 C 387.02 89.09 395.88 104.71 415.00 103.00 C 434.12 101.29 464.42 104.43 483.00 103.00 C 501.58 101.57 508.56 111.93 512.00 127.00
L 512.00 0.00
L 0.00 0.00
L 0.00 349.00 Z"/>
</g>
<g fill="None" fill-opacity="0.0" stroke="#000000" stroke-opacity="1.00" stroke-width="0.3"><path d="
M 0.00 349.00 
L 0.00 354.00
C 9.11 370.25 11.88 385.56 25.75 400.25 C 39.62 414.94 64.39 397.69 78.00 391.00
C 84.79 403.04 91.15 415.73 98.77 427.23 C 106.39 438.73 114.47 448.75 123.75 459.25 C 133.03 469.74 143.64 478.00 154.25 486.75 C 164.86 495.51 177.58 507.38 189.75 495.75 C 201.93 484.12 205.64 468.99 201.07 453.93 C 196.51 438.86 183.85 434.07 175.00 422.00
C 185.70 412.89 201.41 411.73 211.25 401.25 C 221.08 390.76 200.18 373.55 198.00 363.00
C 209.73 353.20 221.80 350.37 237.00 349.00 C 252.20 347.63 266.47 359.44 280.69 355.69 C 294.92 351.95 299.56 340.88 314.70 336.70 C 329.83 332.51 330.53 316.94 321.08 305.92 C 311.62 294.91 310.35 283.28 302.00 272.00
C 330.89 259.63 332.28 218.01 314.75 198.25 C 297.22 178.50 276.75 180.47 255.00 188.00
C 247.15 171.55 240.32 158.66 229.00 142.00
C 215.63 142.54 206.75 150.22 197.23 155.58 C 187.71 160.93 173.46 164.86 169.61 177.75 C 165.75 190.65 163.37 209.98 149.75 220.75 C 136.13 231.52 118.75 237.33 104.00 246.00
C 102.49 234.95 103.78 220.05 105.33 209.33 C 106.88 198.61 110.19 188.17 112.40 181.25 C 114.61 174.34 117.40 169.04 120.58 163.23 C 123.75 157.42 124.46 152.22 129.26 146.25 C 134.07 140.28 135.26 135.05 141.80 128.75 C 148.33 122.45 170.26 127.53 180.00 126.00 C 189.74 124.47 208.35 128.05 215.75 125.41 C 223.16 122.77 228.02 118.08 229.60 110.25 C 231.18 102.42 229.26 83.52 230.00 73.00
C 251.26 67.77 287.80 68.17 310.70 74.31 C 333.59 80.45 350.98 88.77 371.00 102.00
C 358.66 106.00 347.02 106.41 344.61 121.75 C 342.19 137.10 345.85 165.22 344.00 183.00 C 342.15 200.78 349.53 221.30 371.00 220.00 C 392.47 218.70 414.48 220.98 436.00 220.00
C 437.54 231.91 436.34 243.57 435.22 255.22 C 434.11 266.87 431.31 276.11 428.22 287.22 C 425.13 298.33 420.74 303.14 416.69 314.69 C 412.65 326.25 401.86 328.25 390.00 327.00 C 378.14 325.75 364.03 325.91 353.93 329.93 C 343.82 333.94 338.84 340.74 336.02 351.02 C 333.21 361.31 336.00 377.82 335.00 389.00
C 326.57 393.30 314.47 394.64 305.98 397.98 C 297.48 401.31 280.81 396.62 279.22 409.22 C 277.64 421.83 295.14 420.69 304.01 418.01 C 312.87 415.33 325.86 413.07 335.00 410.00
C 338.06 449.80 386.33 440.44 415.00 441.00
C 417.13 450.39 409.80 470.50 420.70 475.30 C 431.60 480.11 437.32 464.92 445.25 460.25 C 453.18 455.58 456.92 444.64 465.75 440.75 C 474.58 436.87 485.06 434.56 489.92 423.92 C 494.79 413.29 494.70 399.14 494.00 387.00 C 493.30 374.86 495.86 359.69 492.22 348.78 C 488.58 337.86 482.28 332.17 471.32 328.68 C 460.37 325.18 443.99 327.82 432.00 327.00
C 449.18 294.68 458.73 257.65 455.00 220.00
C 475.94 220.10 506.69 225.05 512.00 199.00
L 512.00 127.00
C 508.56 111.93 501.58 101.57 483.00 103.00 C 464.42 104.43 434.12 101.29 415.00 103.00 C 395.88 104.71 387.02 89.09 375.77 82.24 C 364.52 75.38 358.67 70.66 347.92 66.13 C 337.16 61.60 328.21 57.59 315.25 54.80 C 302.29 52.01 291.97 49.32 276.00 50.00 C 260.03 50.68 241.91 48.67 230.00 54.00
C 231.78 32.33 231.35 9.20 208.00 10.00 C 184.65 10.80 149.57 9.61 127.00 10.00 C 104.43 10.39 79.22 5.00 76.80 27.75 C 74.39 50.51 78.60 84.27 76.93 106.92 C 75.26 129.56 99.60 125.84 119.00 126.00
C 95.23 158.66 81.01 200.42 85.00 258.00
C 75.26 262.42 66.21 267.15 57.08 273.08 C 47.94 279.00 38.14 281.27 29.25 288.25 C 20.37 295.24 34.42 309.47 36.00 317.00
C 22.35 325.06 2.36 330.95 0.00 349.00
M 209.00 30.00 
C 213.33 34.33 208.50 45.76 210.00 52.00 C 211.50 58.24 208.88 68.40 210.00 75.00
C 203.90 67.05 193.71 60.11 185.25 64.25 C 176.80 68.40 171.12 82.14 162.75 78.24 C 154.39 74.35 150.29 61.96 140.97 59.03 C 131.65 56.10 124.51 68.01 117.30 73.30 C 110.09 78.59 103.98 89.06 96.00 93.00
C 96.67 72.17 94.67 50.01 97.00 30.00
C 101.12 25.88 111.73 30.04 118.00 29.00 C 124.27 27.96 134.16 29.26 141.00 29.00 C 147.84 28.74 157.15 28.67 164.00 29.00 C 170.85 29.33 180.69 27.85 187.00 29.00 C 193.31 30.15 204.80 25.80 209.00 30.00
M 138.00 82.00 
C 146.10 90.67 156.23 97.92 164.00 107.00
C 146.67 107.00 129.33 107.00 112.00 107.00
C 119.75 97.66 129.37 90.31 138.00 82.00
M 191.00 85.00 
C 197.90 89.72 196.65 91.62 204.25 96.75 C 211.84 101.88 210.20 107.91 200.00 107.00 C 189.80 106.09 191.36 103.68 184.25 97.75 C 177.13 91.82 187.99 89.74 191.00 85.00
M 472.00 124.00 
C 456.75 131.22 445.27 152.34 426.99 151.99 C 408.71 151.65 397.68 130.34 382.00 124.00
C 410.93 122.33 443.14 122.33 472.00 124.00
M 492.00 134.00 
C 491.27 145.07 492.97 160.35 492.00 171.00 C 491.03 181.65 497.14 199.81 484.00 200.00 C 470.86 200.19 459.89 199.83 447.00 200.00 C 434.11 200.17 423.01 199.74 410.00 200.00 C 396.99 200.26 386.58 199.49 373.00 200.00 C 359.42 200.51 364.54 182.99 364.00 172.00 C 363.46 161.01 364.41 146.32 364.00 135.00
C 385.10 146.94 401.63 172.31 428.00 172.00 C 454.37 171.69 470.76 145.62 492.00 134.00
M 221.00 166.00 
C 247.89 217.71 279.26 267.82 305.00 320.00
C 296.14 324.00 287.76 329.52 279.00 334.00
C 250.73 282.62 221.35 231.72 194.00 180.00
C 203.26 175.76 211.41 169.34 221.00 166.00
M 292.00 254.00 
C 284.20 237.39 273.24 221.94 266.00 205.00
C 278.97 198.47 296.44 203.48 303.77 216.23 C 311.10 228.98 306.89 249.76 292.00 254.00
M 184.00 203.00 
C 206.04 246.18 231.52 288.05 254.00 331.00
C 223.91 321.12 196.65 341.02 172.31 354.31 C 147.96 367.59 125.86 381.59 101.00 393.00
C 84.89 361.38 65.56 330.95 50.00 299.00
C 74.90 286.23 99.29 270.74 124.08 258.08 C 148.86 245.41 174.74 230.91 184.00 203.00
M 46.00 334.00 
C 52.36 347.68 61.63 360.13 67.00 374.00
C 59.74 375.08 43.22 393.34 37.25 383.75 C 31.27 374.16 25.46 364.20 21.08 353.92 C 16.69 343.65 40.52 339.33 46.00 334.00
M 434.00 443.00 
C 437.70 429.54 430.67 418.77 417.00 421.00 C 403.33 423.23 391.26 419.03 378.00 421.00 C 364.74 422.97 353.96 419.12 354.00 405.00 C 354.04 390.88 355.12 380.21 354.00 366.00 C 352.88 351.79 361.32 345.72 375.00 347.00 C 388.68 348.28 400.48 346.88 414.00 347.00 C 427.52 347.12 440.39 347.87 454.00 347.00 C 467.61 346.13 475.34 350.75 475.00 365.00 C 474.66 379.25 473.98 390.67 475.00 405.00 C 476.02 419.33 463.73 419.01 454.77 423.77 C 445.81 428.53 443.00 438.71 434.00 443.00
M 181.00 373.00 
C 184.40 379.01 187.77 384.91 191.00 391.00
C 183.74 394.23 177.20 398.98 170.00 402.00
C 170.00 394.00 170.00 386.00 170.00 378.00
C 174.22 377.68 176.87 373.49 181.00 373.00
M 150.00 390.00 
C 147.90 407.26 151.13 428.18 164.75 439.25 C 178.38 450.32 190.20 464.11 179.00 480.00
C 152.26 463.27 128.18 438.00 112.00 411.00
C 124.59 403.77 137.10 396.66 150.00 390.00 Z"/>
</g>
<g fill="None" fill-opacity="0.0" stroke="#636160" stroke-opacity="1.00" stroke-width="0.3"><path d="
M 97.00 30.00 
C 101.07 27.15 109.72 31.16 115.00 30.00 C 120.28 28.84 128.25 30.43 134.00 30.00 C 139.75 29.57 147.16 29.99 153.00 30.00 C 158.84 30.01 165.30 29.47 171.00 30.00 C 176.70 30.53 184.71 28.70 190.00 30.00 C 195.29 31.30 204.82 27.07 209.00 30.00
C 204.80 25.80 193.31 30.15 187.00 29.00 C 180.69 27.85 170.85 29.33 164.00 29.00 C 157.15 28.67 147.84 28.74 141.00 29.00 C 134.16 29.26 124.27 27.96 118.00 29.00 C 111.73 30.04 101.12 25.88 97.00 30.00 Z"/>
</g>
<g fill="None" fill-opacity="0.0" stroke="#F6F2F0" stroke-opacity="1.00" stroke-width="0.3"><path d="
M 209.00 30.00 
C 204.82 27.07 195.29 31.30 190.00 30.00 C 184.71 28.70 176.70 30.53 171.00 30.00 C 165.30 29.47 158.84 30.01 153.00 30.00 C 147.16 29.99 139.75 29.57 134.00 30.00 C 128.25 30.43 120.28 28.84 115.00 30.00 C 109.72 31.16 101.07 27.15 97.00 30.00
C 94.67 50.01 96.67 72.17 96.00 93.00
C 103.98 89.06 110.09 78.59 117.30 73.30 C 124.51 68.01 131.65 56.10 140.97 59.03 C 150.29 61.96 154.39 74.35 162.75 78.24 C 171.12 82.14 176.80 68.40 185.25 64.25 C 193.71 60.11 203.90 67.05 210.00 75.00
C 208.88 68.40 211.50 58.24 210.00 52.00 C 208.50 45.76 213.33 34.33 209.00 30.00
M 168.00 41.00 
C 180.36 43.07 176.74 63.68 164.00 61.00 C 151.25 58.32 155.83 38.96 168.00 41.00 Z"/>
</g>
<g fill="None" fill-opacity="0.0" stroke="#000000" stroke-opacity="1.00" stroke-width="0.3"><path d="
M 168.00 41.00 
C 155.83 38.96 151.25 58.32 164.00 61.00 C 176.74 63.68 180.36 43.07 168.00 41.00 Z"/>
</g>
<g fill="None" fill-opacity="0.0" stroke="#000000" stroke-opacity="0.01" stroke-width="0.3"><path d="
M 0.00 354.00 
L 0.00 512.00
L 512.00 512.00
L 512.00 199.00
C 506.69 225.05 475.94 220.10 455.00 220.00
C 458.73 257.65 449.18 294.68 432.00 327.00
C 443.99 327.82 460.37 325.18 471.32 328.68 C 482.28 332.17 488.58 337.86 492.22 348.78 C 495.86 359.69 493.30 374.86 494.00 387.00 C 494.70 399.14 494.79 413.29 489.92 423.92 C 485.06 434.56 474.58 436.87 465.75 440.75 C 456.92 444.64 453.18 455.58 445.25 460.25 C 437.32 464.92 431.60 480.11 420.70 475.30 C 409.80 470.50 417.13 450.39 415.00 441.00
C 386.33 440.44 338.06 449.80 335.00 410.00
C 325.86 413.07 312.87 415.33 304.01 418.01 C 295.14 420.69 277.64 421.83 279.22 409.22 C 280.81 396.62 297.48 401.31 305.98 397.98 C 314.47 394.64 326.57 393.30 335.00 389.00
C 336.00 377.82 333.21 361.31 336.02 351.02 C 338.84 340.74 343.82 333.94 353.93 329.93 C 364.03 325.91 378.14 325.75 390.00 327.00 C 401.86 328.25 412.65 326.25 416.69 314.69 C 420.74 303.14 425.13 298.33 428.22 287.22 C 431.31 276.11 434.11 266.87 435.22 255.22 C 436.34 243.57 437.54 231.91 436.00 220.00
C 414.48 220.98 392.47 218.70 371.00 220.00 C 349.53 221.30 342.15 200.78 344.00 183.00 C 345.85 165.22 342.19 137.10 344.61 121.75 C 347.02 106.41 358.66 106.00 371.00 102.00
C 350.98 88.77 333.59 80.45 310.70 74.31 C 287.80 68.17 251.26 67.77 230.00 73.00
C 229.26 83.52 231.18 102.42 229.60 110.25 C 228.02 118.08 223.16 122.77 215.75 125.41 C 208.35 128.05 189.74 124.47 180.00 126.00 C 170.26 127.53 148.33 122.45 141.80 128.75 C 135.26 135.05 134.07 140.28 129.26 146.25 C 124.46 152.22 123.75 157.42 120.58 163.23 C 117.40 169.04 114.61 174.34 112.40 181.25 C 110.19 188.17 106.88 198.61 105.33 209.33 C 103.78 220.05 102.49 234.95 104.00 246.00
C 118.75 237.33 136.13 231.52 149.75 220.75 C 163.37 209.98 165.75 190.65 169.61 177.75 C 173.46 164.86 187.71 160.93 197.23 155.58 C 206.75 150.22 215.63 142.54 229.00 142.00
C 240.32 158.66 247.15 171.55 255.00 188.00
C 276.75 180.47 297.22 178.50 314.75 198.25 C 332.28 218.01 330.89 259.63 302.00 272.00
C 310.35 283.28 311.62 294.91 321.08 305.92 C 330.53 316.94 329.83 332.51 314.70 336.70 C 299.56 340.88 294.92 351.95 280.69 355.69 C 266.47 359.44 252.20 347.63 237.00 349.00 C 221.80 350.37 209.73 353.20 198.00 363.00
C 200.18 373.55 221.08 390.76 211.25 401.25 C 201.41 411.73 185.70 412.89 175.00 422.00
C 183.85 434.07 196.51 438.86 201.07 453.93 C 205.64 468.99 201.93 484.12 189.75 495.75 C 177.58 507.38 164.86 495.51 154.25 486.75 C 143.64 478.00 133.03 469.74 123.75 459.25 C 114.47 448.75 106.39 438.73 98.77 427.23 C 91.15 415.73 84.79 403.04 78.00 391.00
C 64.39 397.69 39.62 414.94 25.75 400.25 C 11.88 385.56 9.11 370.25 0.00 354.00
M 241.00 400.00 
C 255.41 398.36 255.29 419.02 242.92 420.06 C 230.54 421.11 229.23 401.34 241.00 400.00 Z"/>
</g>
<g fill="None" fill-opacity="0.0" stroke="#BBA9AE" stroke-opacity="1.00" stroke-width="0.3"><path d="
M 138.00 82.00 
C 129.37 90.31 119.75 97.66 112.00 107.00
C 129.33 107.00 146.67 107.00 164.00 107.00
C 156.23 97.92 146.10 90.67 138.00 82.00 Z"/>
</g>
<g fill="None" fill-opacity="0.0" stroke="#BCAAAF" stroke-opacity="1.00" stroke-width="0.3"><path d="
M 191.00 85.00 
C 187.99 89.74 177.13 91.82 184.25 97.75 C 191.36 103.68 189.80 106.09 200.00 107.00 C 210.20 107.91 211.84 101.88 204.25 96.75 C 196.65 91.62 197.90 89.72 191.00 85.00 Z"/>
</g>
<g fill="None" fill-opacity="0.0" stroke="#FCCC68" stroke-opacity="1.00" stroke-width="0.3"><path d="
M 472.00 124.00 
C 443.14 122.33 410.93 122.33 382.00 124.00
C 397.68 130.34 408.71 151.65 426.99 151.99 C 445.27 152.34 456.75 131.22 472.00 124.00 Z"/>
</g>
<g fill="None" fill-opacity="0.0" stroke="#FECD68" stroke-opacity="1.00" stroke-width="0.3"><path d="
M 492.00 134.00 
C 470.76 145.62 454.37 171.69 428.00 172.00 C 401.63 172.31 385.10 146.94 364.00 135.00
C 364.41 146.32 363.46 161.01 364.00 172.00 C 364.54 182.99 359.42 200.51 373.00 200.00 C 386.58 199.49 396.99 200.26 410.00 200.00 C 423.01 199.74 434.11 200.17 447.00 200.00 C 459.89 199.83 470.86 200.19 484.00 200.00 C 497.14 199.81 491.03 181.65 492.00 171.00 C 492.97 160.35 491.27 145.07 492.00 134.00 Z"/>
</g>
<g fill="None" fill-opacity="0.0" stroke="#FC7979" stroke-opacity="1.00" stroke-width="0.3"><path d="
M 221.00 166.00 
C 211.41 169.34 203.26 175.76 194.00 180.00
C 221.35 231.72 250.73 282.62 279.00 334.00
C 287.76 329.52 296.14 324.00 305.00 320.00
C 279.26 267.82 247.89 217.71 221.00 166.00 Z"/>
</g>
<g fill="None" fill-opacity="0.0" stroke="#F4F0EE" stroke-opacity="1.00" stroke-width="0.3"><path d="
M 292.00 254.00 
C 306.89 249.76 311.10 228.98 303.77 216.23 C 296.44 203.48 278.97 198.47 266.00 205.00
C 273.24 221.94 284.20 237.39 292.00 254.00 Z"/>
</g>
<g fill="None" fill-opacity="0.0" stroke="#F7F3F1" stroke-opacity="1.00" stroke-width="0.3"><path d="
M 184.00 203.00 
C 174.74 230.91 148.86 245.41 124.08 258.08 C 99.29 270.74 74.90 286.23 50.00 299.00
C 65.56 330.95 84.89 361.38 101.00 393.00
C 125.86 381.59 147.96 367.59 172.31 354.31 C 196.65 341.02 223.91 321.12 254.00 331.00
C 231.52 288.05 206.04 246.18 184.00 203.00 Z"/>
</g>
<g fill="None" fill-opacity="0.0" stroke="#FB7979" stroke-opacity="1.00" stroke-width="0.3"><path d="
M 46.00 334.00 
C 40.52 339.33 16.69 343.65 21.08 353.92 C 25.46 364.20 31.27 374.16 37.25 383.75 C 43.22 393.34 59.74 375.08 67.00 374.00
C 61.63 360.13 52.36 347.68 46.00 334.00 Z"/>
</g>
<g fill="None" fill-opacity="0.0" stroke="#9EE2A3" stroke-opacity="1.00" stroke-width="0.3"><path d="
M 434.00 443.00 
C 443.00 438.71 445.81 428.53 454.77 423.77 C 463.73 419.01 476.02 419.33 475.00 405.00 C 473.98 390.67 474.66 379.25 475.00 365.00 C 475.34 350.75 467.61 346.13 454.00 347.00 C 440.39 347.87 427.52 347.12 414.00 347.00 C 400.48 346.88 388.68 348.28 375.00 347.00 C 361.32 345.72 352.88 351.79 354.00 366.00 C 355.12 380.21 354.04 390.88 354.00 405.00 C 353.96 419.12 364.74 422.97 378.00 421.00 C 391.26 419.03 403.33 423.23 417.00 421.00 C 430.67 418.77 437.70 429.54 434.00 443.00
M 401.00 374.00 
C 412.73 377.56 405.30 398.14 393.33 392.67 C 381.36 387.20 388.66 370.26 401.00 374.00
M 435.00 374.00 
C 447.03 377.65 439.23 398.00 427.33 392.67 C 415.43 387.34 422.77 370.29 435.00 374.00 Z"/>
</g>
<g fill="None" fill-opacity="0.0" stroke="#F87878" stroke-opacity="1.00" stroke-width="0.3"><path d="
M 181.00 373.00 
C 176.87 373.49 174.22 377.68 170.00 378.00
C 170.00 386.00 170.00 394.00 170.00 402.00
C 177.20 398.98 183.74 394.23 191.00 391.00
C 187.77 384.91 184.40 379.01 181.00 373.00 Z"/>
</g>
<g fill="None" fill-opacity="0.0" stroke="#000000" stroke-opacity="1.00" stroke-width="0.3"><path d="
M 401.00 374.00 
C 388.66 370.26 381.36 387.20 393.33 392.67 C 405.30 398.14 412.73 377.56 401.00 374.00 Z"/>
</g>
<g fill="None" fill-opacity="0.0" stroke="#000000" stroke-opacity="1.00" stroke-width="0.3"><path d="
M 435.00 374.00 
C 422.77 370.29 415.43 387.34 427.33 392.67 C 439.23 398.00 447.03 377.65 435.00 374.00 Z"/>
</g>
<g fill="None" fill-opacity="0.0" stroke="#F5F1EF" stroke-opacity="1.00" stroke-width="0.3"><path d="
M 150.00 390.00 
C 137.10 396.66 124.59 403.77 112.00 411.00
C 128.18 438.00 152.26 463.27 179.00 480.00
C 190.20 464.11 178.38 450.32 164.75 439.25 C 151.13 428.18 147.90 407.26 150.00 390.00 Z"/>
</g>
<g fill="None" fill-opacity="0.0" stroke="#000000" stroke-opacity="0.94" stroke-width="0.3"><path d="
M 241.00 400.00 
C 229.23 401.34 230.54 421.11 242.92 420.06 C 255.29 419.02 255.41 398.36 241.00 400.00 Z"/>
</g>
<g fill="#000000" fill-opacity="0.01" stroke="None">
<path d="
M 0.00 349.00 
C 2.36 330.95 22.35 325.06 36.00 317.00
C 34.42 309.47 20.37 295.24 29.25 288.25 C 38.14 281.27 47.94 279.00 57.08 273.08 C 66.21 267.15 75.26 262.42 85.00 258.00
C 81.01 200.42 95.23 158.66 119.00 126.00
C 99.60 125.84 75.26 129.56 76.93 106.92 C 78.60 84.27 74.39 50.51 76.80 27.75 C 79.22 5.00 104.43 10.39 127.00 10.00 C 149.57 9.61 184.65 10.80 208.00 10.00 C 231.35 9.20 231.78 32.33 230.00 54.00
C 241.91 48.67 260.03 50.68 276.00 50.00 C 291.97 49.32 302.29 52.01 315.25 54.80 C 328.21 57.59 337.16 61.60 347.92 66.13 C 358.67 70.66 364.52 75.38 375.77 82.24 C 387.02 89.09 395.88 104.71 415.00 103.00 C 434.12 101.29 464.42 104.43 483.00 103.00 C 501.58 101.57 508.56 111.93 512.00 127.00
L 512.00 0.00
L 0.00 0.00
L 0.00 349.00 Z"/>
</g>
<g fill="#000000" fill-opacity="1.00" stroke="None">
<path d="
M 0.00 349.00 
L 0.00 354.00
C 9.11 370.25 11.88 385.56 25.75 400.25 C 39.62 414.94 64.39 397.69 78.00 391.00
C 84.79 403.04 91.15 415.73 98.77 427.23 C 106.39 438.73 114.47 448.75 123.75 459.25 C 133.03 469.74 143.64 478.00 154.25 486.75 C 164.86 495.51 177.58 507.38 189.75 495.75 C 201.93 484.12 205.64 468.99 201.07 453.93 C 196.51 438.86 183.85 434.07 175.00 422.00
C 185.70 412.89 201.41 411.73 211.25 401.25 C 221.08 390.76 200.18 373.55 198.00 363.00
C 209.73 353.20 221.80 350.37 237.00 349.00 C 252.20 347.63 266.47 359.44 280.69 355.69 C 294.92 351.95 299.56 340.88 314.70 336.70 C 329.83 332.51 330.53 316.94 321.08 305.92 C 311.62 294.91 310.35 283.28 302.00 272.00
C 330.89 259.63 332.28 218.01 314.75 198.25 C 297.22 178.50 276.75 180.47 255.00 188.00
C 247.15 171.55 240.32 158.66 229.00 142.00
C 215.63 142.54 206.75 150.22 197.23 155.58 C 187.71 160.93 173.46 164.86 169.61 177.75 C 165.75 190.65 163.37 209.98 149.75 220.75 C 136.13 231.52 118.75 237.33 104.00 246.00
C 102.49 234.95 103.78 220.05 105.33 209.33 C 106.88 198.61 110.19 188.17 112.40 181.25 C 114.61 174.34 117.40 169.04 120.58 163.23 C 123.75 157.42 124.46 152.22 129.26 146.25 C 134.07 140.28 135.26 135.05 141.80 128.75 C 148.33 122.45 170.26 127.53 180.00 126.00 C 189.74 124.47 208.35 128.05 215.75 125.41 C 223.16 122.77 228.02 118.08 229.60 110.25 C 231.18 102.42 229.26 83.52 230.00 73.00
C 251.26 67.77 287.80 68.17 310.70 74.31 C 333.59 80.45 350.98 88.77 371.00 102.00
C 358.66 106.00 347.02 106.41 344.61 121.75 C 342.19 137.10 345.85 165.22 344.00 183.00 C 342.15 200.78 349.53 221.30 371.00 220.00 C 392.47 218.70 414.48 220.98 436.00 220.00
C 437.54 231.91 436.34 243.57 435.22 255.22 C 434.11 266.87 431.31 276.11 428.22 287.22 C 425.13 298.33 420.74 303.14 416.69 314.69 C 412.65 326.25 401.86 328.25 390.00 327.00 C 378.14 325.75 364.03 325.91 353.93 329.93 C 343.82 333.94 338.84 340.74 336.02 351.02 C 333.21 361.31 336.00 377.82 335.00 389.00
C 326.57 393.30 314.47 394.64 305.98 397.98 C 297.48 401.31 280.81 396.62 279.22 409.22 C 277.64 421.83 295.14 420.69 304.01 418.01 C 312.87 415.33 325.86 413.07 335.00 410.00
C 338.06 449.80 386.33 440.44 415.00 441.00
C 417.13 450.39 409.80 470.50 420.70 475.30 C 431.60 480.11 437.32 464.92 445.25 460.25 C 453.18 455.58 456.92 444.64 465.75 440.75 C 474.58 436.87 485.06 434.56 489.92 423.92 C 494.79 413.29 494.70 399.14 494.00 387.00 C 493.30 374.86 495.86 359.69 492.22 348.78 C 488.58 337.86 482.28 332.17 471.32 328.68 C 460.37 325.18 443.99 327.82 432.00 327.00
C 449.18 294.68 458.73 257.65 455.00 220.00
C 475.94 220.10 506.69 225.05 512.00 199.00
L 512.00 127.00
C 508.56 111.93 501.58 101.57 483.00 103.00 C 464.42 104.43 434.12 101.29 415.00 103.00 C 395.88 104.71 387.02 89.09 375.77 82.24 C 364.52 75.38 358.67 70.66 347.92 66.13 C 337.16 61.60 328.21 57.59 315.25 54.80 C 302.29 52.01 291.97 49.32 276.00 50.00 C 260.03 50.68 241.91 48.67 230.00 54.00
C 231.78 32.33 231.35 9.20 208.00 10.00 C 184.65 10.80 149.57 9.61 127.00 10.00 C 104.43 10.39 79.22 5.00 76.80 27.75 C 74.39 50.51 78.60 84.27 76.93 106.92 C 75.26 129.56 99.60 125.84 119.00 126.00
C 95.23 158.66 81.01 200.42 85.00 258.00
C 75.26 262.42 66.21 267.15 57.08 273.08 C 47.94 279.00 38.14 281.27 29.25 288.25 C 20.37 295.24 34.42 309.47 36.00 317.00
C 22.35 325.06 2.36 330.95 0.00 349.00
M 209.00 30.00 
C 213.33 34.33 208.50 45.76 210.00 52.00 C 211.50 58.24 208.88 68.40 210.00 75.00
C 203.90 67.05 193.71 60.11 185.25 64.25 C 176.80 68.40 171.12 82.14 162.75 78.24 C 154.39 74.35 150.29 61.96 140.97 59.03 C 131.65 56.10 124.51 68.01 117.30 73.30 C 110.09 78.59 103.98 89.06 96.00 93.00
C 96.67 72.17 94.67 50.01 97.00 30.00
C 101.12 25.88 111.73 30.04 118.00 29.00 C 124.27 27.96 134.16 29.26 141.00 29.00 C 147.84 28.74 157.15 28.67 164.00 29.00 C 170.85 29.33 180.69 27.85 187.00 29.00 C 193.31 30.15 204.80 25.80 209.00 30.00
M 138.00 82.00 
C 146.10 90.67 156.23 97.92 164.00 107.00
C 146.67 107.00 129.33 107.00 112.00 107.00
C 119.75 97.66 129.37 90.31 138.00 82.00
M 191.00 85.00 
C 197.90 89.72 196.65 91.62 204.25 96.75 C 211.84 101.88 210.20 107.91 200.00 107.00 C 189.80 106.09 191.36 103.68 184.25 97.75 C 177.13 91.82 187.99 89.74 191.00 85.00
M 472.00 124.00 
C 456.75 131.22 445.27 152.34 426.99 151.99 C 408.71 151.65 397.68 130.34 382.00 124.00
C 410.93 122.33 443.14 122.33 472.00 124.00
M 492.00 134.00 
C 491.27 145.07 492.97 160.35 492.00 171.00 C 491.03 181.65 497.14 199.81 484.00 200.00 C 470.86 200.19 459.89 199.83 447.00 200.00 C 434.11 200.17 423.01 199.74 410.00 200.00 C 396.99 200.26 386.58 199.49 373.00 200.00 C 359.42 200.51 364.54 182.99 364.00 172.00 C 363.46 161.01 364.41 146.32 364.00 135.00
C 385.10 146.94 401.63 172.31 428.00 172.00 C 454.37 171.69 470.76 145.62 492.00 134.00
M 221.00 166.00 
C 247.89 217.71 279.26 267.82 305.00 320.00
C 296.14 324.00 287.76 329.52 279.00 334.00
C 250.73 282.62 221.35 231.72 194.00 180.00
C 203.26 175.76 211.41 169.34 221.00 166.00
M 292.00 254.00 
C 284.20 237.39 273.24 221.94 266.00 205.00
C 278.97 198.47 296.44 203.48 303.77 216.23 C 311.10 228.98 306.89 249.76 292.00 254.00
M 184.00 203.00 
C 206.04 246.18 231.52 288.05 254.00 331.00
C 223.91 321.12 196.65 341.02 172.31 354.31 C 147.96 367.59 125.86 381.59 101.00 393.00
C 84.89 361.38 65.56 330.95 50.00 299.00
C 74.90 286.23 99.29 270.74 124.08 258.08 C 148.86 245.41 174.74 230.91 184.00 203.00
M 46.00 334.00 
C 52.36 347.68 61.63 360.13 67.00 374.00
C 59.74 375.08 43.22 393.34 37.25 383.75 C 31.27 374.16 25.46 364.20 21.08 353.92 C 16.69 343.65 40.52 339.33 46.00 334.00
M 434.00 443.00 
C 437.70 429.54 430.67 418.77 417.00 421.00 C 403.33 423.23 391.26 419.03 378.00 421.00 C 364.74 422.97 353.96 419.12 354.00 405.00 C 354.04 390.88 355.12 380.21 354.00 366.00 C 352.88 351.79 361.32 345.72 375.00 347.00 C 388.68 348.28 400.48 346.88 414.00 347.00 C 427.52 347.12 440.39 347.87 454.00 347.00 C 467.61 346.13 475.34 350.75 475.00 365.00 C 474.66 379.25 473.98 390.67 475.00 405.00 C 476.02 419.33 463.73 419.01 454.77 423.77 C 445.81 428.53 443.00 438.71 434.00 443.00
M 181.00 373.00 
C 184.40 379.01 187.77 384.91 191.00 391.00
C 183.74 394.23 177.20 398.98 170.00 402.00
C 170.00 394.00 170.00 386.00 170.00 378.00
C 174.22 377.68 176.87 373.49 181.00 373.00
M 150.00 390.00 
C 147.90 407.26 151.13 428.18 164.75 439.25 C 178.38 450.32 190.20 464.11 179.00 480.00
C 152.26 463.27 128.18 438.00 112.00 411.00
C 124.59 403.77 137.10 396.66 150.00 390.00 Z"/>
</g>
<g fill="#636160" fill-opacity="1.00" stroke="None">
<path d="
M 97.00 30.00 
C 101.07 27.15 109.72 31.16 115.00 30.00 C 120.28 28.84 128.25 30.43 134.00 30.00 C 139.75 29.57 147.16 29.99 153.00 30.00 C 158.84 30.01 165.30 29.47 171.00 30.00 C 176.70 30.53 184.71 28.70 190.00 30.00 C 195.29 31.30 204.82 27.07 209.00 30.00
C 204.80 25.80 193.31 30.15 187.00 29.00 C 180.69 27.85 170.85 29.33 164.00 29.00 C 157.15 28.67 147.84 28.74 141.00 29.00 C 134.16 29.26 124.27 27.96 118.00 29.00 C 111.73 30.04 101.12 25.88 97.00 30.00 Z"/>
</g>
<g fill="#F6F2F0" fill-opacity="1.00" stroke="None">
<path d="
M 209.00 30.00 
C 204.82 27.07 195.29 31.30 190.00 30.00 C 184.71 28.70 176.70 30.53 171.00 30.00 C 165.30 29.47 158.84 30.01 153.00 30.00 C 147.16 29.99 139.75 29.57 134.00 30.00 C 128.25 30.43 120.28 28.84 115.00 30.00 C 109.72 31.16 101.07 27.15 97.00 30.00
C 94.67 50.01 96.67 72.17 96.00 93.00
C 103.98 89.06 110.09 78.59 117.30 73.30 C 124.51 68.01 131.65 56.10 140.97 59.03 C 150.29 61.96 154.39 74.35 162.75 78.24 C 171.12 82.14 176.80 68.40 185.25 64.25 C 193.71 60.11 203.90 67.05 210.00 75.00
C 208.88 68.40 211.50 58.24 210.00 52.00 C 208.50 45.76 213.33 34.33 209.00 30.00
M 168.00 41.00 
C 180.36 43.07 176.74 63.68 164.00 61.00 C 151.25 58.32 155.83 38.96 168.00 41.00 Z"/>
</g>
<g fill="#000000" fill-opacity="1.00" stroke="None">
<path d="
M 168.00 41.00 
C 155.83 38.96 151.25 58.32 164.00 61.00 C 176.74 63.68 180.36 43.07 168.00 41.00 Z"/>
</g>
<g fill="#000000" fill-opacity="0.01" stroke="None">
<path d="
M 0.00 354.00 
L 0.00 512.00
L 512.00 512.00
L 512.00 199.00
C 506.69 225.05 475.94 220.10 455.00 220.00
C 458.73 257.65 449.18 294.68 432.00 327.00
C 443.99 327.82 460.37 325.18 471.32 328.68 C 482.28 332.17 488.58 337.86 492.22 348.78 C 495.86 359.69 493.30 374.86 494.00 387.00 C 494.70 399.14 494.79 413.29 489.92 423.92 C 485.06 434.56 474.58 436.87 465.75 440.75 C 456.92 444.64 453.18 455.58 445.25 460.25 C 437.32 464.92 431.60 480.11 420.70 475.30 C 409.80 470.50 417.13 450.39 415.00 441.00
C 386.33 440.44 338.06 449.80 335.00 410.00
C 325.86 413.07 312.87 415.33 304.01 418.01 C 295.14 420.69 277.64 421.83 279.22 409.22 C 280.81 396.62 297.48 401.31 305.98 397.98 C 314.47 394.64 326.57 393.30 335.00 389.00
C 336.00 377.82 333.21 361.31 336.02 351.02 C 338.84 340.74 343.82 333.94 353.93 329.93 C 364.03 325.91 378.14 325.75 390.00 327.00 C 401.86 328.25 412.65 326.25 416.69 314.69 C 420.74 303.14 425.13 298.33 428.22 287.22 C 431.31 276.11 434.11 266.87 435.22 255.22 C 436.34 243.57 437.54 231.91 436.00 220.00
C 414.48 220.98 392.47 218.70 371.00 220.00 C 349.53 221.30 342.15 200.78 344.00 183.00 C 345.85 165.22 342.19 137.10 344.61 121.75 C 347.02 106.41 358.66 106.00 371.00 102.00
C 350.98 88.77 333.59 80.45 310.70 74.31 C 287.80 68.17 251.26 67.77 230.00 73.00
C 229.26 83.52 231.18 102.42 229.60 110.25 C 228.02 118.08 223.16 122.77 215.75 125.41 C 208.35 128.05 189.74 124.47 180.00 126.00 C 170.26 127.53 148.33 122.45 141.80 128.75 C 135.26 135.05 134.07 140.28 129.26 146.25 C 124.46 152.22 123.75 157.42 120.58 163.23 C 117.40 169.04 114.61 174.34 112.40 181.25 C 110.19 188.17 106.88 198.61 105.33 209.33 C 103.78 220.05 102.49 234.95 104.00 246.00
C 118.75 237.33 136.13 231.52 149.75 220.75 C 163.37 209.98 165.75 190.65 169.61 177.75 C 173.46 164.86 187.71 160.93 197.23 155.58 C 206.75 150.22 215.63 142.54 229.00 142.00
C 240.32 158.66 247.15 171.55 255.00 188.00
C 276.75 180.47 297.22 178.50 314.75 198.25 C 332.28 218.01 330.89 259.63 302.00 272.00
C 310.35 283.28 311.62 294.91 321.08 305.92 C 330.53 316.94 329.83 332.51 314.70 336.70 C 299.56 340.88 294.92 351.95 280.69 355.69 C 266.47 359.44 252.20 347.63 237.00 349.00 C 221.80 350.37 209.73 353.20 198.00 363.00
C 200.18 373.55 221.08 390.76 211.25 401.25 C 201.41 411.73 185.70 412.89 175.00 422.00
C 183.85 434.07 196.51 438.86 201.07 453.93 C 205.64 468.99 201.93 484.12 189.75 495.75 C 177.58 507.38 164.86 495.51 154.25 486.75 C 143.64 478.00 133.03 469.74 123.75 459.25 C 114.47 448.75 106.39 438.73 98.77 427.23 C 91.15 415.73 84.79 403.04 78.00 391.00
C 64.39 397.69 39.62 414.94 25.75 400.25 C 11.88 385.56 9.11 370.25 0.00 354.00
M 241.00 400.00 
C 255.41 398.36 255.29 419.02 242.92 420.06 C 230.54 421.11 229.23 401.34 241.00 400.00 Z"/>
</g>
<g fill="#BBA9AE" fill-opacity="1.00" stroke="None">
<path d="
M 138.00 82.00 
C 129.37 90.31 119.75 97.66 112.00 107.00
C 129.33 107.00 146.67 107.00 164.00 107.00
C 156.23 97.92 146.10 90.67 138.00 82.00 Z"/>
</g>
<g fill="#BCAAAF" fill-opacity="1.00" stroke="None">
<path d="
M 191.00 85.00 
C 187.99 89.74 177.13 91.82 184.25 97.75 C 191.36 103.68 189.80 106.09 200.00 107.00 C 210.20 107.91 211.84 101.88 204.25 96.75 C 196.65 91.62 197.90 89.72 191.00 85.00 Z"/>
</g>
<g fill="#FCCC68" fill-opacity="1.00" stroke="None">
<path d="
M 472.00 124.00 
C 443.14 122.33 410.93 122.33 382.00 124.00
C 397.68 130.34 408.71 151.65 426.99 151.99 C 445.27 152.34 456.75 131.22 472.00 124.00 Z"/>
</g>
<g fill="#FECD68" fill-opacity="1.00" stroke="None">
<path d="
M 492.00 134.00 
C 470.76 145.62 454.37 171.69 428.00 172.00 C 401.63 172.31 385.10 146.94 364.00 135.00
C 364.41 146.32 363.46 161.01 364.00 172.00 C 364.54 182.99 359.42 200.51 373.00 200.00 C 386.58 199.49 396.99 200.26 410.00 200.00 C 423.01 199.74 434.11 200.17 447.00 200.00 C 459.89 199.83 470.86 200.19 484.00 200.00 C 497.14 199.81 491.03 181.65 492.00 171.00 C 492.97 160.35 491.27 145.07 492.00 134.00 Z"/>
</g>
<g fill="#FC7979" fill-opacity="1.00" stroke="None">
<path d="
M 221.00 166.00 
C 211.41 169.34 203.26 175.76 194.00 180.00
C 221.35 231.72 250.73 282.62 279.00 334.00
C 287.76 329.52 296.14 324.00 305.00 320.00
C 279.26 267.82 247.89 217.71 221.00 166.00 Z"/>
</g>
<g fill="#F4F0EE" fill-opacity="1.00" stroke="None">
<path d="
M 292.00 254.00 
C 306.89 249.76 311.10 228.98 303.77 216.23 C 296.44 203.48 278.97 198.47 266.00 205.00
C 273.24 221.94 284.20 237.39 292.00 254.00 Z"/>
</g>
<g fill="#F7F3F1" fill-opacity="1.00" stroke="None">
<path d="
M 184.00 203.00 
C 174.74 230.91 148.86 245.41 124.08 258.08 C 99.29 270.74 74.90 286.23 50.00 299.00
C 65.56 330.95 84.89 361.38 101.00 393.00
C 125.86 381.59 147.96 367.59 172.31 354.31 C 196.65 341.02 223.91 321.12 254.00 331.00
C 231.52 288.05 206.04 246.18 184.00 203.00 Z"/>
</g>
<g fill="#FB7979" fill-opacity="1.00" stroke="None">
<path d="
M 46.00 334.00 
C 40.52 339.33 16.69 343.65 21.08 353.92 C 25.46 364.20 31.27 374.16 37.25 383.75 C 43.22 393.34 59.74 375.08 67.00 374.00
C 61.63 360.13 52.36 347.68 46.00 334.00 Z"/>
</g>
<g fill="#9EE2A3" fill-opacity="1.00" stroke="None">
<path d="
M 434.00 443.00 
C 443.00 438.71 445.81 428.53 454.77 423.77 C 463.73 419.01 476.02 419.33 475.00 405.00 C 473.98 390.67 474.66 379.25 475.00 365.00 C 475.34 350.75 467.61 346.13 454.00 347.00 C 440.39 347.87 427.52 347.12 414.00 347.00 C 400.48 346.88 388.68 348.28 375.00 347.00 C 361.32 345.72 352.88 351.79 354.00 366.00 C 355.12 380.21 354.04 390.88 354.00 405.00 C 353.96 419.12 364.74 422.97 378.00 421.00 C 391.26 419.03 403.33 423.23 417.00 421.00 C 430.67 418.77 437.70 429.54 434.00 443.00
M 401.00 374.00 
C 412.73 377.56 405.30 398.14 393.33 392.67 C 381.36 387.20 388.66 370.26 401.00 374.00
M 435.00 374.00 
C 447.03 377.65 439.23 398.00 427.33 392.67 C 415.43 387.34 422.77 370.29 435.00 374.00 Z"/>
</g>
<g fill="#F87878" fill-opacity="1.00" stroke="None">
<path d="
M 181.00 373.00 
C 176.87 373.49 174.22 377.68 170.00 378.00
C 170.00 386.00 170.00 394.00 170.00 402.00
C 177.20 398.98 183.74 394.23 191.00 391.00
C 187.77 384.91 184.40 379.01 181.00 373.00 Z"/>
</g>
<g fill="#000000" fill-opacity="1.00" stroke="None">
<path d="
M 401.00 374.00 
C 388.66 370.26 381.36 387.20 393.33 392.67 C 405.30 398.14 412.73 377.56 401.00 374.00 Z"/>
</g>
<g fill="#000000" fill-opacity="1.00" stroke="None">
<path d="
M 435.00 374.00 
C 422.77 370.29 415.43 387.34 427.33 392.67 C 439.23 398.00 447.03 377.65 435.00 374.00 Z"/>
</g>
<g fill="#F5F1EF" fill-opacity="1.00" stroke="None">
<path d="
M 150.00 390.00 
C 137.10 396.66 124.59 403.77 112.00 411.00
C 128.18 438.00 152.26 463.27 179.00 480.00
C 190.20 464.11 178.38 450.32 164.75 439.25 C 151.13 428.18 147.90 407.26 150.00 390.00 Z"/>
</g>
<g fill="#000000" fill-opacity="0.94" stroke="None">
<path d="
M 241.00 400.00 
C 229.23 401.34 230.54 421.11 242.92 420.06 C 255.29 419.02 255.41 398.36 241.00 400.00 Z"/>
</g>
</svg>