<svg xmlns="http://www.w3.org/2000/svg" xmlns:v="https://svgstorm.com"
viewBox = "0 0 512 512"
width="512"
height="512">
<g fill="None" fill-opacity="0.0" stroke="#000000" stroke-opacity="0.00" stroke-width="0.3"><path d="
M 0.00 512.00 
L 512.00 512.00
L 512.00 0.00
L 0.00 0.00
L 0.00 512.00
M 288.00 472.00 
C 284.00 473.89 275.56 469.49 272.00 472.00
C 269.25 501.34 240.02 495.40 216.00 496.00 C 191.98 496.60 161.74 494.69 136.00 496.00 C 110.26 497.31 82.84 493.10 56.00 496.00 C 29.16 498.90 12.07 483.95 16.00 456.00 C 19.93 428.05 13.05 403.63 16.00 376.00
C 18.67 376.00 21.33 376.00 24.00 376.00
C 24.00 370.67 24.00 365.33 24.00 360.00
C 21.33 360.00 18.67 360.00 16.00 360.00
C 10.71 334.52 26.88 317.12 52.00 320.00 C 77.12 322.88 102.83 317.84 128.00 320.00
C 128.00 314.67 128.00 309.33 128.00 304.00
C 125.33 304.00 122.67 304.00 120.00 304.00
C 120.00 288.00 120.00 272.00 120.00 256.00
C 122.67 256.00 125.33 256.00 128.00 256.00
C 129.92 250.23 125.44 241.47 128.00 236.00
C 118.32 239.99 111.92 243.57 107.69 254.69 C 103.47 265.82 102.44 276.89 104.00 291.00 C 105.56 305.11 87.70 305.01 77.00 304.00 C 66.30 302.99 48.91 307.57 48.01 293.99 C 47.11 280.41 48.43 267.74 49.93 255.93 C 51.42 244.11 55.14 235.70 59.92 225.92 C 64.71 216.15 70.93 211.56 77.00 203.00
C 80.11 202.66 80.88 207.38 84.00 207.00
C 87.84 206.61 91.26 197.60 96.00 198.00
C 95.00 196.32 94.50 194.37 92.00 194.00
C 100.05 182.52 115.32 181.10 128.00 177.00
C 128.00 171.33 128.00 165.67 128.00 160.00
C 125.33 160.00 122.67 160.00 120.00 160.00
C 119.83 133.70 120.23 99.51 120.00 74.00 C 119.77 48.49 117.45 30.56 136.25 20.81 C 155.06 11.07 181.24 17.31 208.00 16.00 C 234.76 14.69 267.42 16.70 295.00 16.00 C 322.58 15.30 352.96 16.55 380.00 16.00
C 387.93 26.53 395.20 32.86 405.25 42.75 C 415.29 52.65 439.19 46.55 453.00 48.00 C 466.81 49.45 477.79 46.45 486.25 56.75 C 494.71 67.06 495.49 68.59 496.00 84.00 C 496.51 99.41 495.77 120.47 496.00 137.00 C 496.23 153.53 495.89 171.96 496.00 189.00 C 496.11 206.04 495.94 224.78 496.00 242.00 C 496.06 259.22 495.94 277.89 496.00 295.00 C 496.06 312.11 495.90 330.28 496.00 347.00 C 496.10 363.72 495.81 384.16 496.00 400.00 C 496.19 415.84 495.86 437.29 495.35 450.69 C 494.85 464.10 490.22 466.69 481.25 474.39 C 472.28 482.09 462.34 479.44 446.00 480.00 C 429.66 480.56 411.01 479.74 394.00 480.00 C 376.99 480.26 358.32 479.87 341.00 480.00 C 323.68 480.13 305.41 479.90 288.00 480.00
C 288.00 477.33 288.00 474.67 288.00 472.00 Z"/>
</g>
<g fill="None" fill-opacity="0.0" stroke="#000000" stroke-opacity="1.00" stroke-width="0.3"><path d="
M 128.00 160.00 
C 130.67 160.00 133.33 160.00 136.00 160.00
C 136.99 139.18 134.68 107.76 136.00 88.00 C 137.32 68.24 127.57 34.87 152.00 32.00 C 176.43 29.13 199.80 33.34 224.00 32.00 C 248.20 30.66 271.90 32.70 296.00 32.00 C 320.10 31.30 343.92 32.52 368.00 32.00
C 371.72 54.57 359.43 85.10 377.25 102.75 C 395.07 120.40 425.37 108.37 448.00 112.00
C 448.09 134.65 447.88 157.36 448.00 180.00 C 448.12 202.64 447.78 226.49 448.00 249.00 C 448.22 271.51 447.52 294.85 448.00 317.00 C 448.48 339.15 446.96 364.64 448.00 386.00 C 449.04 407.36 451.46 433.09 426.00 432.00 C 400.54 430.91 381.28 432.57 357.00 432.00 C 332.72 431.43 311.96 432.43 288.00 432.00
C 288.00 434.67 288.00 437.33 288.00 440.00
C 288.00 442.67 288.00 445.33 288.00 448.00
C 314.78 445.72 346.74 451.04 373.00 448.00 C 399.26 444.96 429.49 456.79 451.25 441.25 C 473.00 425.70 462.05 394.22 464.00 369.00 C 465.95 343.78 462.94 310.57 464.00 284.00 C 465.06 257.43 463.12 225.74 464.00 199.00 C 464.88 172.26 462.70 139.86 464.00 114.00 C 465.30 88.14 440.19 83.20 428.00 64.00
C 446.30 64.21 480.25 57.48 480.00 83.00 C 479.75 108.52 480.07 130.31 480.00 155.00 C 479.93 179.69 479.94 201.58 480.00 226.00 C 480.06 250.42 479.77 273.47 480.00 298.00 C 480.23 322.53 479.43 343.88 480.00 369.00 C 480.57 394.12 478.74 414.48 480.00 441.00 C 481.26 467.52 454.42 465.20 432.00 464.00 C 409.58 462.80 383.18 464.63 360.00 464.00 C 336.82 463.37 311.38 464.47 288.00 464.00
C 288.00 466.67 288.00 469.33 288.00 472.00
C 288.00 474.67 288.00 477.33 288.00 480.00
C 305.41 479.90 323.68 480.13 341.00 480.00 C 358.32 479.87 376.99 480.26 394.00 480.00 C 411.01 479.74 429.66 480.56 446.00 480.00 C 462.34 479.44 472.28 482.09 481.25 474.39 C 490.22 466.69 494.85 464.10 495.35 450.69 C 495.86 437.29 496.19 415.84 496.00 400.00 C 495.81 384.16 496.10 363.72 496.00 347.00 C 495.90 330.28 496.06 312.11 496.00 295.00 C 495.94 277.89 496.06 259.22 496.00 242.00 C 495.94 224.78 496.11 206.04 496.00 189.00 C 495.89 171.96 496.23 153.53 496.00 137.00 C 495.77 120.47 496.51 99.41 496.00 84.00 C 495.49 68.59 494.71 67.06 486.25 56.75 C 477.79 46.45 466.81 49.45 453.00 48.00 C 439.19 46.55 415.29 52.65 405.25 42.75 C 395.20 32.86 387.93 26.53 380.00 16.00
C 352.96 16.55 322.58 15.30 295.00 16.00 C 267.42 16.70 234.76 14.69 208.00 16.00 C 181.24 17.31 155.06 11.07 136.25 20.81 C 117.45 30.56 119.77 48.49 120.00 74.00 C 120.23 99.51 119.83 133.70 120.00 160.00
C 122.67 160.00 125.33 160.00 128.00 160.00
M 436.00 96.00 
C 421.72 92.64 400.10 102.48 388.75 91.25 C 377.41 80.01 387.44 58.23 384.00 44.00
C 401.67 60.84 419.21 78.38 436.00 96.00 Z"/>
</g>
<g fill="None" fill-opacity="0.0" stroke="#84CBD4" stroke-opacity="1.00" stroke-width="0.3"><path d="
M 128.00 160.00 
C 128.00 165.67 128.00 171.33 128.00 177.00
C 163.81 170.13 195.12 185.02 218.77 212.23 C 242.42 239.44 241.93 283.83 240.00 320.00
C 268.24 315.89 274.35 340.45 272.00 364.00 C 269.65 387.55 273.76 416.00 272.00 440.00
C 277.33 440.00 282.67 440.00 288.00 440.00
C 288.00 437.33 288.00 434.67 288.00 432.00
C 311.96 432.43 332.72 431.43 357.00 432.00 C 381.28 432.57 400.54 430.91 426.00 432.00 C 451.46 433.09 449.04 407.36 448.00 386.00 C 446.96 364.64 448.48 339.15 448.00 317.00 C 447.52 294.85 448.22 271.51 448.00 249.00 C 447.78 226.49 448.12 202.64 448.00 180.00 C 447.88 157.36 448.09 134.65 448.00 112.00
C 425.37 108.37 395.07 120.40 377.25 102.75 C 359.43 85.10 371.72 54.57 368.00 32.00
C 343.92 32.52 320.10 31.30 296.00 32.00 C 271.90 32.70 248.20 30.66 224.00 32.00 C 199.80 33.34 176.43 29.13 152.00 32.00 C 127.57 34.87 137.32 68.24 136.00 88.00 C 134.68 107.76 136.99 139.18 136.00 160.00
C 133.33 160.00 130.67 160.00 128.00 160.00
M 176.00 48.00 
C 176.00 53.33 176.00 58.67 176.00 64.00
C 170.67 64.00 165.33 64.00 160.00 64.00
C 160.00 58.67 160.00 53.33 160.00 48.00
C 165.33 48.00 170.67 48.00 176.00 48.00
M 208.00 48.00 
C 208.00 53.33 208.00 58.67 208.00 64.00
C 202.67 64.00 197.33 64.00 192.00 64.00
C 192.00 58.67 192.00 53.33 192.00 48.00
C 197.33 48.00 202.67 48.00 208.00 48.00
M 240.00 48.00 
C 240.00 53.33 240.00 58.67 240.00 64.00
C 234.67 64.00 229.33 64.00 224.00 64.00
C 224.00 58.67 224.00 53.33 224.00 48.00
C 229.33 48.00 234.67 48.00 240.00 48.00
M 189.00 88.00 
C 221.17 93.76 212.56 158.76 179.33 151.67 C 146.10 144.58 155.01 81.91 189.00 88.00
M 240.00 88.00 
C 240.00 109.33 240.00 130.67 240.00 152.00
C 234.67 152.00 229.33 152.00 224.00 152.00
C 224.00 130.67 224.00 109.33 224.00 88.00
C 229.33 88.00 234.67 88.00 240.00 88.00
M 285.00 88.00 
C 317.17 93.76 308.56 158.76 275.33 151.67 C 242.10 144.58 251.01 81.91 285.00 88.00
M 349.00 88.00 
C 381.17 93.76 372.56 158.76 339.33 151.67 C 306.10 144.58 315.01 81.91 349.00 88.00
M 277.00 168.00 
C 309.19 173.77 300.53 238.72 267.33 231.67 C 234.13 224.62 242.99 161.91 277.00 168.00
M 328.00 168.00 
C 328.00 189.33 328.00 210.67 328.00 232.00
C 322.67 232.00 317.33 232.00 312.00 232.00
C 312.00 210.67 312.00 189.33 312.00 168.00
C 317.33 168.00 322.67 168.00 328.00 168.00
M 373.00 168.00 
C 405.19 173.77 396.53 238.72 363.33 231.67 C 330.13 224.62 338.99 161.91 373.00 168.00
M 424.00 168.00 
C 424.00 189.33 424.00 210.67 424.00 232.00
C 418.67 232.00 413.33 232.00 408.00 232.00
C 408.00 210.67 408.00 189.33 408.00 168.00
C 413.33 168.00 418.67 168.00 424.00 168.00
M 280.00 248.00 
C 280.00 269.33 280.00 290.67 280.00 312.00
C 274.67 312.00 269.33 312.00 264.00 312.00
C 264.00 290.67 264.00 269.33 264.00 248.00
C 269.33 248.00 274.67 248.00 280.00 248.00
M 325.00 248.00 
C 357.17 253.76 348.56 318.76 315.33 311.67 C 282.10 304.58 291.01 241.91 325.00 248.00
M 389.00 248.00 
C 421.17 253.76 412.56 318.76 379.33 311.67 C 346.10 304.58 355.01 241.91 389.00 248.00
M 312.00 336.00 
C 312.00 357.33 312.00 378.67 312.00 400.00
C 306.67 400.00 301.33 400.00 296.00 400.00
C 296.00 378.67 296.00 357.33 296.00 336.00
C 301.33 336.00 306.67 336.00 312.00 336.00
M 357.00 336.00 
C 389.18 341.77 380.53 406.73 347.33 399.67 C 314.13 392.61 322.99 329.91 357.00 336.00
M 408.00 336.00 
C 408.00 357.33 408.00 378.67 408.00 400.00
C 402.67 400.00 397.33 400.00 392.00 400.00
C 392.00 378.67 392.00 357.33 392.00 336.00
C 397.33 336.00 402.67 336.00 408.00 336.00 Z"/>
</g>
<g fill="None" fill-opacity="0.0" stroke="#ACD6DA" stroke-opacity="1.00" stroke-width="0.3"><path d="
M 436.00 96.00 
C 419.21 78.38 401.67 60.84 384.00 44.00
C 387.44 58.23 377.41 80.01 388.75 91.25 C 400.10 102.48 421.72 92.64 436.00 96.00 Z"/>
</g>
<g fill="None" fill-opacity="0.0" stroke="#000000" stroke-opacity="1.00" stroke-width="0.3"><path d="
M 176.00 48.00 
C 170.67 48.00 165.33 48.00 160.00 48.00
C 160.00 53.33 160.00 58.67 160.00 64.00
C 165.33 64.00 170.67 64.00 176.00 64.00
C 176.00 58.67 176.00 53.33 176.00 48.00 Z"/>
</g>
<g fill="None" fill-opacity="0.0" stroke="#000000" stroke-opacity="1.00" stroke-width="0.3"><path d="
M 208.00 48.00 
C 202.67 48.00 197.33 48.00 192.00 48.00
C 192.00 53.33 192.00 58.67 192.00 64.00
C 197.33 64.00 202.67 64.00 208.00 64.00
C 208.00 58.67 208.00 53.33 208.00 48.00 Z"/>
</g>
<g fill="None" fill-opacity="0.0" stroke="#000000" stroke-opacity="1.00" stroke-width="0.3"><path d="
M 240.00 48.00 
C 234.67 48.00 229.33 48.00 224.00 48.00
C 224.00 53.33 224.00 58.67 224.00 64.00
C 229.33 64.00 234.67 64.00 240.00 64.00
C 240.00 58.67 240.00 53.33 240.00 48.00 Z"/>
</g>
<g fill="None" fill-opacity="0.0" stroke="#77B8C0" stroke-opacity="1.00" stroke-width="0.3"><path d="
M 288.00 440.00 
C 282.67 440.00 277.33 440.00 272.00 440.00
C 272.00 450.51 272.98 461.54 272.00 472.00
C 275.56 469.49 284.00 473.89 288.00 472.00
C 288.00 469.33 288.00 466.67 288.00 464.00
C 311.38 464.47 336.82 463.37 360.00 464.00 C 383.18 464.63 409.58 462.80 432.00 464.00 C 454.42 465.20 481.26 467.52 480.00 441.00 C 478.74 414.48 480.57 394.12 480.00 369.00 C 479.43 343.88 480.23 322.53 480.00 298.00 C 479.77 273.47 480.06 250.42 480.00 226.00 C 479.94 201.58 479.93 179.69 480.00 155.00 C 480.07 130.31 479.75 108.52 480.00 83.00 C 480.25 57.48 446.30 64.21 428.00 64.00
C 440.19 83.20 465.30 88.14 464.00 114.00 C 462.70 139.86 464.88 172.26 464.00 199.00 C 463.12 225.74 465.06 257.43 464.00 284.00 C 462.94 310.57 465.95 343.78 464.00 369.00 C 462.05 394.22 473.00 425.70 451.25 441.25 C 429.49 456.79 399.26 444.96 373.00 448.00 C 346.74 451.04 314.78 445.72 288.00 448.00
C 288.00 445.33 288.00 442.67 288.00 440.00 Z"/>
</g>
<g fill="None" fill-opacity="0.0" stroke="#000000" stroke-opacity="1.00" stroke-width="0.3"><path d="
M 189.00 88.00 
C 155.01 81.91 146.10 144.58 179.33 151.67 C 212.56 158.76 221.17 93.76 189.00 88.00
M 187.00 104.00 
C 198.02 106.96 193.32 140.50 181.33 135.67 C 169.34 130.84 173.81 100.46 187.00 104.00 Z"/>
</g>
<g fill="None" fill-opacity="0.0" stroke="#000000" stroke-opacity="1.00" stroke-width="0.3"><path d="
M 240.00 88.00 
C 234.67 88.00 229.33 88.00 224.00 88.00
C 224.00 109.33 224.00 130.67 224.00 152.00
C 229.33 152.00 234.67 152.00 240.00 152.00
C 240.00 130.67 240.00 109.33 240.00 88.00 Z"/>
</g>
<g fill="None" fill-opacity="0.0" stroke="#000000" stroke-opacity="1.00" stroke-width="0.3"><path d="
M 285.00 88.00 
C 251.01 81.91 242.10 144.58 275.33 151.67 C 308.56 158.76 317.17 93.76 285.00 88.00
M 283.00 104.00 
C 294.02 106.96 289.32 140.50 277.33 135.67 C 265.34 130.84 269.81 100.46 283.00 104.00 Z"/>
</g>
<g fill="None" fill-opacity="0.0" stroke="#000000" stroke-opacity="1.00" stroke-width="0.3"><path d="
M 349.00 88.00 
C 315.01 81.91 306.10 144.58 339.33 151.67 C 372.56 158.76 381.17 93.76 349.00 88.00
M 347.00 104.00 
C 358.02 106.96 353.32 140.50 341.33 135.67 C 329.34 130.84 333.81 100.46 347.00 104.00 Z"/>
</g>
<g fill="None" fill-opacity="0.0" stroke="#82C7D0" stroke-opacity="1.00" stroke-width="0.3"><path d="
M 187.00 104.00 
C 173.81 100.46 169.34 130.84 181.33 135.67 C 193.32 140.50 198.02 106.96 187.00 104.00 Z"/>
</g>
<g fill="None" fill-opacity="0.0" stroke="#82C7D0" stroke-opacity="1.00" stroke-width="0.3"><path d="
M 283.00 104.00 
C 269.81 100.46 265.34 130.84 277.33 135.67 C 289.32 140.50 294.02 106.96 283.00 104.00 Z"/>
</g>
<g fill="None" fill-opacity="0.0" stroke="#82C7D0" stroke-opacity="1.00" stroke-width="0.3"><path d="
M 347.00 104.00 
C 333.81 100.46 329.34 130.84 341.33 135.67 C 353.32 140.50 358.02 106.96 347.00 104.00 Z"/>
</g>
<g fill="None" fill-opacity="0.0" stroke="#000000" stroke-opacity="1.00" stroke-width="0.3"><path d="
M 277.00 168.00 
C 242.99 161.91 234.13 224.62 267.33 231.67 C 300.53 238.72 309.19 173.77 277.00 168.00
M 275.00 184.00 
C 286.02 186.96 281.32 220.50 269.33 215.67 C 257.34 210.84 261.81 180.46 275.00 184.00 Z"/>
</g>
<g fill="None" fill-opacity="0.0" stroke="#000000" stroke-opacity="1.00" stroke-width="0.3"><path d="
M 328.00 168.00 
C 322.67 168.00 317.33 168.00 312.00 168.00
C 312.00 189.33 312.00 210.67 312.00 232.00
C 317.33 232.00 322.67 232.00 328.00 232.00
C 328.00 210.67 328.00 189.33 328.00 168.00 Z"/>
</g>
<g fill="None" fill-opacity="0.0" stroke="#000000" stroke-opacity="1.00" stroke-width="0.3"><path d="
M 373.00 168.00 
C 338.99 161.91 330.13 224.62 363.33 231.67 C 396.53 238.72 405.19 173.77 373.00 168.00
M 371.00 184.00 
C 382.02 186.96 377.32 220.50 365.33 215.67 C 353.34 210.84 357.81 180.46 371.00 184.00 Z"/>
</g>
<g fill="None" fill-opacity="0.0" stroke="#000000" stroke-opacity="1.00" stroke-width="0.3"><path d="
M 424.00 168.00 
C 418.67 168.00 413.33 168.00 408.00 168.00
C 408.00 189.33 408.00 210.67 408.00 232.00
C 413.33 232.00 418.67 232.00 424.00 232.00
C 424.00 210.67 424.00 189.33 424.00 168.00 Z"/>
</g>
<g fill="None" fill-opacity="0.0" stroke="#000000" stroke-opacity="1.00" stroke-width="0.3"><path d="
M 128.00 177.00 
C 115.32 181.10 100.05 182.52 92.00 194.00
C 94.50 194.37 95.00 196.32 96.00 198.00
C 97.39 200.34 98.74 202.61 100.00 205.00
C 131.43 186.23 169.56 187.34 198.23 212.77 C 226.90 238.20 226.04 283.12 224.00 320.00
C 216.00 320.00 208.00 320.00 200.00 320.00
C 204.44 280.54 201.73 229.21 157.99 218.01 C 114.25 206.81 81.35 246.30 88.00 288.00
C 80.00 288.00 72.00 288.00 64.00 288.00
C 61.58 260.38 68.37 232.59 89.00 214.00
C 87.91 211.26 83.97 210.17 84.00 207.00
C 80.88 207.38 80.11 202.66 77.00 203.00
C 70.93 211.56 64.71 216.15 59.92 225.92 C 55.14 235.70 51.42 244.11 49.93 255.93 C 48.43 267.74 47.11 280.41 48.01 293.99 C 48.91 307.57 66.30 302.99 77.00 304.00 C 87.70 305.01 105.56 305.11 104.00 291.00 C 102.44 276.89 103.47 265.82 107.69 254.69 C 111.92 243.57 118.32 239.99 128.00 236.00
C 145.71 228.71 168.14 232.59 178.30 251.70 C 188.46 270.81 182.38 298.17 184.00 320.00
C 165.33 320.00 146.67 320.00 128.00 320.00
C 102.83 317.84 77.12 322.88 52.00 320.00 C 26.88 317.12 10.71 334.52 16.00 360.00
C 18.67 360.00 21.33 360.00 24.00 360.00
C 26.67 360.00 29.33 360.00 32.00 360.00
C 28.69 345.83 33.31 333.99 48.00 336.00 C 62.69 338.01 74.06 335.04 88.00 336.00 C 101.94 336.96 114.40 335.44 128.00 336.00 C 141.60 336.56 154.58 335.46 168.00 336.00 C 181.42 336.54 194.69 335.12 208.00 336.00 C 221.31 336.88 234.81 334.20 248.00 336.00 C 261.19 337.80 255.26 357.15 256.00 368.00 C 256.74 378.85 256.00 396.53 256.00 408.00 C 256.00 419.47 256.75 437.14 256.00 448.00 C 255.25 458.86 261.21 478.19 247.99 479.99 C 234.78 481.80 221.35 479.12 208.00 480.00 C 194.65 480.88 181.49 479.44 168.00 480.00 C 154.51 480.56 141.75 479.40 128.00 480.00 C 114.25 480.60 102.27 478.95 88.00 480.00 C 73.73 481.05 63.43 477.80 48.00 480.00 C 32.57 482.20 30.32 469.76 32.00 456.00 C 33.68 442.24 31.12 429.56 32.00 416.00 C 32.88 402.44 31.34 389.50 32.00 376.00
C 29.33 376.00 26.67 376.00 24.00 376.00
C 21.33 376.00 18.67 376.00 16.00 376.00
C 13.05 403.63 19.93 428.05 16.00 456.00 C 12.07 483.95 29.16 498.90 56.00 496.00 C 82.84 493.10 110.26 497.31 136.00 496.00 C 161.74 494.69 191.98 496.60 216.00 496.00 C 240.02 495.40 269.25 501.34 272.00 472.00
C 272.98 461.54 272.00 450.51 272.00 440.00
C 273.76 416.00 269.65 387.55 272.00 364.00 C 274.35 340.45 268.24 315.89 240.00 320.00
C 241.93 283.83 242.42 239.44 218.77 212.23 C 195.12 185.02 163.81 170.13 128.00 177.00 Z"/>
</g>
<g fill="None" fill-opacity="0.0" stroke="#82C7D0" stroke-opacity="1.00" stroke-width="0.3"><path d="
M 275.00 184.00 
C 261.81 180.46 257.34 210.84 269.33 215.67 C 281.32 220.50 286.02 186.96 275.00 184.00 Z"/>
</g>
<g fill="None" fill-opacity="0.0" stroke="#82C7D0" stroke-opacity="1.00" stroke-width="0.3"><path d="
M 371.00 184.00 
C 357.81 180.46 353.34 210.84 365.33 215.67 C 377.32 220.50 382.02 186.96 371.00 184.00 Z"/>
</g>
<g fill="None" fill-opacity="0.0" stroke="#DDDDDB" stroke-opacity="1.00" stroke-width="0.3"><path d="
M 96.00 198.00 
C 91.26 197.60 87.84 206.61 84.00 207.00
C 83.97 210.17 87.91 211.26 89.00 214.00
C 68.37 232.59 61.58 260.38 64.00 288.00
C 72.00 288.00 80.00 288.00 88.00 288.00
C 81.35 246.30 114.25 206.81 157.99 218.01 C 201.73 229.21 204.44 280.54 200.00 320.00
C 208.00 320.00 216.00 320.00 224.00 320.00
C 226.04 283.12 226.90 238.20 198.23 212.77 C 169.56 187.34 131.43 186.23 100.00 205.00
C 98.74 202.61 97.39 200.34 96.00 198.00 Z"/>
</g>
<g fill="None" fill-opacity="0.0" stroke="#84CBD4" stroke-opacity="1.00" stroke-width="0.3"><path d="
M 128.00 236.00 
C 125.44 241.47 129.92 250.23 128.00 256.00
C 130.67 256.00 133.33 256.00 136.00 256.00
C 136.00 272.00 136.00 288.00 136.00 304.00
C 133.33 304.00 130.67 304.00 128.00 304.00
C 128.00 309.33 128.00 314.67 128.00 320.00
C 146.67 320.00 165.33 320.00 184.00 320.00
C 182.38 298.17 188.46 270.81 178.30 251.70 C 168.14 232.59 145.71 228.71 128.00 236.00 Z"/>
</g>
<g fill="None" fill-opacity="0.0" stroke="#000000" stroke-opacity="1.00" stroke-width="0.3"><path d="
M 280.00 248.00 
C 274.67 248.00 269.33 248.00 264.00 248.00
C 264.00 269.33 264.00 290.67 264.00 312.00
C 269.33 312.00 274.67 312.00 280.00 312.00
C 280.00 290.67 280.00 269.33 280.00 248.00 Z"/>
</g>
<g fill="None" fill-opacity="0.0" stroke="#000000" stroke-opacity="1.00" stroke-width="0.3"><path d="
M 325.00 248.00 
C 291.01 241.91 282.10 304.58 315.33 311.67 C 348.56 318.76 357.17 253.76 325.00 248.00
M 323.00 264.00 
C 334.02 266.96 329.32 300.50 317.33 295.67 C 305.34 290.84 309.81 260.46 323.00 264.00 Z"/>
</g>
<g fill="None" fill-opacity="0.0" stroke="#000000" stroke-opacity="1.00" stroke-width="0.3"><path d="
M 389.00 248.00 
C 355.01 241.91 346.10 304.58 379.33 311.67 C 412.56 318.76 421.17 253.76 389.00 248.00
M 387.00 264.00 
C 398.02 266.96 393.32 300.50 381.33 295.67 C 369.34 290.84 373.81 260.46 387.00 264.00 Z"/>
</g>
<g fill="None" fill-opacity="0.0" stroke="#000000" stroke-opacity="1.00" stroke-width="0.3"><path d="
M 128.00 304.00 
C 130.67 304.00 133.33 304.00 136.00 304.00
C 136.00 288.00 136.00 272.00 136.00 256.00
C 133.33 256.00 130.67 256.00 128.00 256.00
C 125.33 256.00 122.67 256.00 120.00 256.00
C 120.00 272.00 120.00 288.00 120.00 304.00
C 122.67 304.00 125.33 304.00 128.00 304.00 Z"/>
</g>
<g fill="None" fill-opacity="0.0" stroke="#82C7D0" stroke-opacity="1.00" stroke-width="0.3"><path d="
M 323.00 264.00 
C 309.81 260.46 305.34 290.84 317.33 295.67 C 329.32 300.50 334.02 266.96 323.00 264.00 Z"/>
</g>
<g fill="None" fill-opacity="0.0" stroke="#82C7D0" stroke-opacity="1.00" stroke-width="0.3"><path d="
M 387.00 264.00 
C 373.81 260.46 369.34 290.84 381.33 295.67 C 393.32 300.50 398.02 266.96 387.00 264.00 Z"/>
</g>
<g fill="None" fill-opacity="0.0" stroke="#D55145" stroke-opacity="1.00" stroke-width="0.3"><path d="
M 24.00 360.00 
C 24.00 365.33 24.00 370.67 24.00 376.00
C 26.67 376.00 29.33 376.00 32.00 376.00
C 31.34 389.50 32.88 402.44 32.00 416.00 C 31.12 429.56 33.68 442.24 32.00 456.00 C 30.32 469.76 32.57 482.20 48.00 480.00 C 63.43 477.80 73.73 481.05 88.00 480.00 C 102.27 478.95 114.25 480.60 128.00 480.00 C 141.75 479.40 154.51 480.56 168.00 480.00 C 181.49 479.44 194.65 480.88 208.00 480.00 C 221.35 479.12 234.78 481.80 247.99 479.99 C 261.21 478.19 255.25 458.86 256.00 448.00 C 256.75 437.14 256.00 419.47 256.00 408.00 C 256.00 396.53 256.74 378.85 256.00 368.00 C 255.26 357.15 261.19 337.80 248.00 336.00 C 234.81 334.20 221.31 336.88 208.00 336.00 C 194.69 335.12 181.42 336.54 168.00 336.00 C 154.58 335.46 141.60 336.56 128.00 336.00 C 114.40 335.44 101.94 336.96 88.00 336.00 C 74.06 335.04 62.69 338.01 48.00 336.00 C 33.31 333.99 28.69 345.83 32.00 360.00
C 29.33 360.00 26.67 360.00 24.00 360.00
M 152.00 422.00 
C 152.00 428.00 152.00 434.00 152.00 440.00
C 146.67 440.00 141.33 440.00 136.00 440.00
C 136.00 434.00 136.00 428.00 136.00 422.00
C 110.82 414.44 118.29 376.00 144.00 376.00 C 169.72 376.00 177.18 414.43 152.00 422.00 Z"/>
</g>
<g fill="None" fill-opacity="0.0" stroke="#000000" stroke-opacity="1.00" stroke-width="0.3"><path d="
M 312.00 336.00 
C 306.67 336.00 301.33 336.00 296.00 336.00
C 296.00 357.33 296.00 378.67 296.00 400.00
C 301.33 400.00 306.67 400.00 312.00 400.00
C 312.00 378.67 312.00 357.33 312.00 336.00 Z"/>
</g>
<g fill="None" fill-opacity="0.0" stroke="#000000" stroke-opacity="1.00" stroke-width="0.3"><path d="
M 357.00 336.00 
C 322.99 329.91 314.13 392.61 347.33 399.67 C 380.53 406.73 389.18 341.77 357.00 336.00
M 355.00 352.00 
C 366.02 354.96 361.32 388.50 349.33 383.67 C 337.34 378.84 341.81 348.46 355.00 352.00 Z"/>
</g>
<g fill="None" fill-opacity="0.0" stroke="#000000" stroke-opacity="1.00" stroke-width="0.3"><path d="
M 408.00 336.00 
C 402.67 336.00 397.33 336.00 392.00 336.00
C 392.00 357.33 392.00 378.67 392.00 400.00
C 397.33 400.00 402.67 400.00 408.00 400.00
C 408.00 378.67 408.00 357.33 408.00 336.00 Z"/>
</g>
<g fill="None" fill-opacity="0.0" stroke="#82C7D0" stroke-opacity="1.00" stroke-width="0.3"><path d="
M 355.00 352.00 
C 341.81 348.46 337.34 378.84 349.33 383.67 C 361.32 388.50 366.02 354.96 355.00 352.00 Z"/>
</g>
<g fill="None" fill-opacity="0.0" stroke="#000000" stroke-opacity="1.00" stroke-width="0.3"><path d="
M 152.00 422.00 
C 177.18 414.43 169.72 376.00 144.00 376.00 C 118.29 376.00 110.82 414.44 136.00 422.00
C 136.00 428.00 136.00 434.00 136.00 440.00
C 141.33 440.00 146.67 440.00 152.00 440.00
C 152.00 434.00 152.00 428.00 152.00 422.00
M 147.00 392.00 
C 156.53 394.56 151.17 411.79 141.33 407.67 C 131.49 403.55 136.79 389.26 147.00 392.00 Z"/>
</g>
<g fill="None" fill-opacity="0.0" stroke="#B03C30" stroke-opacity="1.00" stroke-width="0.3"><path d="
M 147.00 392.00 
C 136.79 389.26 131.49 403.55 141.33 407.67 C 151.17 411.79 156.53 394.56 147.00 392.00 Z"/>
</g>
<g fill="#000000" fill-opacity="0.00" stroke="None">
<path d="
M 0.00 512.00 
L 512.00 512.00
L 512.00 0.00
L 0.00 0.00
L 0.00 512.00
M 288.00 472.00 
C 284.00 473.89 275.56 469.49 272.00 472.00
C 269.25 501.34 240.02 495.40 216.00 496.00 C 191.98 496.60 161.74 494.69 136.00 496.00 C 110.26 497.31 82.84 493.10 56.00 496.00 C 29.16 498.90 12.07 483.95 16.00 456.00 C 19.93 428.05 13.05 403.63 16.00 376.00
C 18.67 376.00 21.33 376.00 24.00 376.00
C 24.00 370.67 24.00 365.33 24.00 360.00
C 21.33 360.00 18.67 360.00 16.00 360.00
C 10.71 334.52 26.88 317.12 52.00 320.00 C 77.12 322.88 102.83 317.84 128.00 320.00
C 128.00 314.67 128.00 309.33 128.00 304.00
C 125.33 304.00 122.67 304.00 120.00 304.00
C 120.00 288.00 120.00 272.00 120.00 256.00
C 122.67 256.00 125.33 256.00 128.00 256.00
C 129.92 250.23 125.44 241.47 128.00 236.00
C 118.32 239.99 111.92 243.57 107.69 254.69 C 103.47 265.82 102.44 276.89 104.00 291.00 C 105.56 305.11 87.70 305.01 77.00 304.00 C 66.30 302.99 48.91 307.57 48.01 293.99 C 47.11 280.41 48.43 267.74 49.93 255.93 C 51.42 244.11 55.14 235.70 59.92 225.92 C 64.71 216.15 70.93 211.56 77.00 203.00
C 80.11 202.66 80.88 207.38 84.00 207.00
C 87.84 206.61 91.26 197.60 96.00 198.00
C 95.00 196.32 94.50 194.37 92.00 194.00
C 100.05 182.52 115.32 181.10 128.00 177.00
C 128.00 171.33 128.00 165.67 128.00 160.00
C 125.33 160.00 122.67 160.00 120.00 160.00
C 119.83 133.70 120.23 99.51 120.00 74.00 C 119.77 48.49 117.45 30.56 136.25 20.81 C 155.06 11.07 181.24 17.31 208.00 16.00 C 234.76 14.69 267.42 16.70 295.00 16.00 C 322.58 15.30 352.96 16.55 380.00 16.00
C 387.93 26.53 395.20 32.86 405.25 42.75 C 415.29 52.65 439.19 46.55 453.00 48.00 C 466.81 49.45 477.79 46.45 486.25 56.75 C 494.71 67.06 495.49 68.59 496.00 84.00 C 496.51 99.41 495.77 120.47 496.00 137.00 C 496.23 153.53 495.89 171.96 496.00 189.00 C 496.11 206.04 495.94 224.78 496.00 242.00 C 496.06 259.22 495.94 277.89 496.00 295.00 C 496.06 312.11 495.90 330.28 496.00 347.00 C 496.10 363.72 495.81 384.16 496.00 400.00 C 496.19 415.84 495.86 437.29 495.35 450.69 C 494.85 464.10 490.22 466.69 481.25 474.39 C 472.28 482.09 462.34 479.44 446.00 480.00 C 429.66 480.56 411.01 479.74 394.00 480.00 C 376.99 480.26 358.32 479.87 341.00 480.00 C 323.68 480.13 305.41 479.90 288.00 480.00
C 288.00 477.33 288.00 474.67 288.00 472.00 Z"/>
</g>
<g fill="#000000" fill-opacity="1.00" stroke="None">
<path d="
M 128.00 160.00 
C 130.67 160.00 133.33 160.00 136.00 160.00
C 136.99 139.18 134.68 107.76 136.00 88.00 C 137.32 68.24 127.57 34.87 152.00 32.00 C 176.43 29.13 199.80 33.34 224.00 32.00 C 248.20 30.66 271.90 32.70 296.00 32.00 C 320.10 31.30 343.92 32.52 368.00 32.00
C 371.72 54.57 359.43 85.10 377.25 102.75 C 395.07 120.40 425.37 108.37 448.00 112.00
C 448.09 134.65 447.88 157.36 448.00 180.00 C 448.12 202.64 447.78 226.49 448.00 249.00 C 448.22 271.51 447.52 294.85 448.00 317.00 C 448.48 339.15 446.96 364.64 448.00 386.00 C 449.04 407.36 451.46 433.09 426.00 432.00 C 400.54 430.91 381.28 432.57 357.00 432.00 C 332.72 431.43 311.96 432.43 288.00 432.00
C 288.00 434.67 288.00 437.33 288.00 440.00
C 288.00 442.67 288.00 445.33 288.00 448.00
C 314.78 445.72 346.74 451.04 373.00 448.00 C 399.26 444.96 429.49 456.79 451.25 441.25 C 473.00 425.70 462.05 394.22 464.00 369.00 C 465.95 343.78 462.94 310.57 464.00 284.00 C 465.06 257.43 463.12 225.74 464.00 199.00 C 464.88 172.26 462.70 139.86 464.00 114.00 C 465.30 88.14 440.19 83.20 428.00 64.00
C 446.30 64.21 480.25 57.48 480.00 83.00 C 479.75 108.52 480.07 130.31 480.00 155.00 C 479.93 179.69 479.94 201.58 480.00 226.00 C 480.06 250.42 479.77 273.47 480.00 298.00 C 480.23 322.53 479.43 343.88 480.00 369.00 C 480.57 394.12 478.74 414.48 480.00 441.00 C 481.26 467.52 454.42 465.20 432.00 464.00 C 409.58 462.80 383.18 464.63 360.00 464.00 C 336.82 463.37 311.38 464.47 288.00 464.00
C 288.00 466.67 288.00 469.33 288.00 472.00
C 288.00 474.67 288.00 477.33 288.00 480.00
C 305.41 479.90 323.68 480.13 341.00 480.00 C 358.32 479.87 376.99 480.26 394.00 480.00 C 411.01 479.74 429.66 480.56 446.00 480.00 C 462.34 479.44 472.28 482.09 481.25 474.39 C 490.22 466.69 494.85 464.10 495.35 450.69 C 495.86 437.29 496.19 415.84 496.00 400.00 C 495.81 384.16 496.10 363.72 496.00 347.00 C 495.90 330.28 496.06 312.11 496.00 295.00 C 495.94 277.89 496.06 259.22 496.00 242.00 C 495.94 224.78 496.11 206.04 496.00 189.00 C 495.89 171.96 496.23 153.53 496.00 137.00 C 495.77 120.47 496.51 99.41 496.00 84.00 C 495.49 68.59 494.71 67.06 486.25 56.75 C 477.79 46.45 466.81 49.45 453.00 48.00 C 439.19 46.55 415.29 52.65 405.25 42.75 C 395.20 32.86 387.93 26.53 380.00 16.00
C 352.96 16.55 322.58 15.30 295.00 16.00 C 267.42 16.70 234.76 14.69 208.00 16.00 C 181.24 17.31 155.06 11.07 136.25 20.81 C 117.45 30.56 119.77 48.49 120.00 74.00 C 120.23 99.51 119.83 133.70 120.00 160.00
C 122.67 160.00 125.33 160.00 128.00 160.00
M 436.00 96.00 
C 421.72 92.64 400.10 102.48 388.75 91.25 C 377.41 80.01 387.44 58.23 384.00 44.00
C 401.67 60.84 419.21 78.38 436.00 96.00 Z"/>
</g>
<g fill="#84CBD4" fill-opacity="1.00" stroke="None">
<path d="
M 128.00 160.00 
C 128.00 165.67 128.00 171.33 128.00 177.00
C 163.81 170.13 195.12 185.02 218.77 212.23 C 242.42 239.44 241.93 283.83 240.00 320.00
C 268.24 315.89 274.35 340.45 272.00 364.00 C 269.65 387.55 273.76 416.00 272.00 440.00
C 277.33 440.00 282.67 440.00 288.00 440.00
C 288.00 437.33 288.00 434.67 288.00 432.00
C 311.96 432.43 332.72 431.43 357.00 432.00 C 381.28 432.57 400.54 430.91 426.00 432.00 C 451.46 433.09 449.04 407.36 448.00 386.00 C 446.96 364.64 448.48 339.15 448.00 317.00 C 447.52 294.85 448.22 271.51 448.00 249.00 C 447.78 226.49 448.12 202.64 448.00 180.00 C 447.88 157.36 448.09 134.65 448.00 112.00
C 425.37 108.37 395.07 120.40 377.25 102.75 C 359.43 85.10 371.72 54.57 368.00 32.00
C 343.92 32.52 320.10 31.30 296.00 32.00 C 271.90 32.70 248.20 30.66 224.00 32.00 C 199.80 33.34 176.43 29.13 152.00 32.00 C 127.57 34.87 137.32 68.24 136.00 88.00 C 134.68 107.76 136.99 139.18 136.00 160.00
C 133.33 160.00 130.67 160.00 128.00 160.00
M 176.00 48.00 
C 176.00 53.33 176.00 58.67 176.00 64.00
C 170.67 64.00 165.33 64.00 160.00 64.00
C 160.00 58.67 160.00 53.33 160.00 48.00
C 165.33 48.00 170.67 48.00 176.00 48.00
M 208.00 48.00 
C 208.00 53.33 208.00 58.67 208.00 64.00
C 202.67 64.00 197.33 64.00 192.00 64.00
C 192.00 58.67 192.00 53.33 192.00 48.00
C 197.33 48.00 202.67 48.00 208.00 48.00
M 240.00 48.00 
C 240.00 53.33 240.00 58.67 240.00 64.00
C 234.67 64.00 229.33 64.00 224.00 64.00
C 224.00 58.67 224.00 53.33 224.00 48.00
C 229.33 48.00 234.67 48.00 240.00 48.00
M 189.00 88.00 
C 221.17 93.76 212.56 158.76 179.33 151.67 C 146.10 144.58 155.01 81.91 189.00 88.00
M 240.00 88.00 
C 240.00 109.33 240.00 130.67 240.00 152.00
C 234.67 152.00 229.33 152.00 224.00 152.00
C 224.00 130.67 224.00 109.33 224.00 88.00
C 229.33 88.00 234.67 88.00 240.00 88.00
M 285.00 88.00 
C 317.17 93.76 308.56 158.76 275.33 151.67 C 242.10 144.58 251.01 81.91 285.00 88.00
M 349.00 88.00 
C 381.17 93.76 372.56 158.76 339.33 151.67 C 306.10 144.58 315.01 81.91 349.00 88.00
M 277.00 168.00 
C 309.19 173.77 300.53 238.72 267.33 231.67 C 234.13 224.62 242.99 161.91 277.00 168.00
M 328.00 168.00 
C 328.00 189.33 328.00 210.67 328.00 232.00
C 322.67 232.00 317.33 232.00 312.00 232.00
C 312.00 210.67 312.00 189.33 312.00 168.00
C 317.33 168.00 322.67 168.00 328.00 168.00
M 373.00 168.00 
C 405.19 173.77 396.53 238.72 363.33 231.67 C 330.13 224.62 338.99 161.91 373.00 168.00
M 424.00 168.00 
C 424.00 189.33 424.00 210.67 424.00 232.00
C 418.67 232.00 413.33 232.00 408.00 232.00
C 408.00 210.67 408.00 189.33 408.00 168.00
C 413.33 168.00 418.67 168.00 424.00 168.00
M 280.00 248.00 
C 280.00 269.33 280.00 290.67 280.00 312.00
C 274.67 312.00 269.33 312.00 264.00 312.00
C 264.00 290.67 264.00 269.33 264.00 248.00
C 269.33 248.00 274.67 248.00 280.00 248.00
M 325.00 248.00 
C 357.17 253.76 348.56 318.76 315.33 311.67 C 282.10 304.58 291.01 241.91 325.00 248.00
M 389.00 248.00 
C 421.17 253.76 412.56 318.76 379.33 311.67 C 346.10 304.58 355.01 241.91 389.00 248.00
M 312.00 336.00 
C 312.00 357.33 312.00 378.67 312.00 400.00
C 306.67 400.00 301.33 400.00 296.00 400.00
C 296.00 378.67 296.00 357.33 296.00 336.00
C 301.33 336.00 306.67 336.00 312.00 336.00
M 357.00 336.00 
C 389.18 341.77 380.53 406.73 347.33 399.67 C 314.13 392.61 322.99 329.91 357.00 336.00
M 408.00 336.00 
C 408.00 357.33 408.00 378.67 408.00 400.00
C 402.67 400.00 397.33 400.00 392.00 400.00
C 392.00 378.67 392.00 357.33 392.00 336.00
C 397.33 336.00 402.67 336.00 408.00 336.00 Z"/>
</g>
<g fill="#ACD6DA" fill-opacity="1.00" stroke="None">
<path d="
M 436.00 96.00 
C 419.21 78.38 401.67 60.84 384.00 44.00
C 387.44 58.23 377.41 80.01 388.75 91.25 C 400.10 102.48 421.72 92.64 436.00 96.00 Z"/>
</g>
<g fill="#000000" fill-opacity="1.00" stroke="None">
<path d="
M 176.00 48.00 
C 170.67 48.00 165.33 48.00 160.00 48.00
C 160.00 53.33 160.00 58.67 160.00 64.00
C 165.33 64.00 170.67 64.00 176.00 64.00
C 176.00 58.67 176.00 53.33 176.00 48.00 Z"/>
</g>
<g fill="#000000" fill-opacity="1.00" stroke="None">
<path d="
M 208.00 48.00 
C 202.67 48.00 197.33 48.00 192.00 48.00
C 192.00 53.33 192.00 58.67 192.00 64.00
C 197.33 64.00 202.67 64.00 208.00 64.00
C 208.00 58.67 208.00 53.33 208.00 48.00 Z"/>
</g>
<g fill="#000000" fill-opacity="1.00" stroke="None">
<path d="
M 240.00 48.00 
C 234.67 48.00 229.33 48.00 224.00 48.00
C 224.00 53.33 224.00 58.67 224.00 64.00
C 229.33 64.00 234.67 64.00 240.00 64.00
C 240.00 58.67 240.00 53.33 240.00 48.00 Z"/>
</g>
<g fill="#77B8C0" fill-opacity="1.00" stroke="None">
<path d="
M 288.00 440.00 
C 282.67 440.00 277.33 440.00 272.00 440.00
C 272.00 450.51 272.98 461.54 272.00 472.00
C 275.56 469.49 284.00 473.89 288.00 472.00
C 288.00 469.33 288.00 466.67 288.00 464.00
C 311.38 464.47 336.82 463.37 360.00 464.00 C 383.18 464.63 409.58 462.80 432.00 464.00 C 454.42 465.20 481.26 467.52 480.00 441.00 C 478.74 414.48 480.57 394.12 480.00 369.00 C 479.43 343.88 480.23 322.53 480.00 298.00 C 479.77 273.47 480.06 250.42 480.00 226.00 C 479.94 201.58 479.93 179.69 480.00 155.00 C 480.07 130.31 479.75 108.52 480.00 83.00 C 480.25 57.48 446.30 64.21 428.00 64.00
C 440.19 83.20 465.30 88.14 464.00 114.00 C 462.70 139.86 464.88 172.26 464.00 199.00 C 463.12 225.74 465.06 257.43 464.00 284.00 C 462.94 310.57 465.95 343.78 464.00 369.00 C 462.05 394.22 473.00 425.70 451.25 441.25 C 429.49 456.79 399.26 444.96 373.00 448.00 C 346.74 451.04 314.78 445.72 288.00 448.00
C 288.00 445.33 288.00 442.67 288.00 440.00 Z"/>
</g>
<g fill="#000000" fill-opacity="1.00" stroke="None">
<path d="
M 189.00 88.00 
C 155.01 81.91 146.10 144.58 179.33 151.67 C 212.56 158.76 221.17 93.76 189.00 88.00
M 187.00 104.00 
C 198.02 106.96 193.32 140.50 181.33 135.67 C 169.34 130.84 173.81 100.46 187.00 104.00 Z"/>
</g>
<g fill="#000000" fill-opacity="1.00" stroke="None">
<path d="
M 240.00 88.00 
C 234.67 88.00 229.33 88.00 224.00 88.00
C 224.00 109.33 224.00 130.67 224.00 152.00
C 229.33 152.00 234.67 152.00 240.00 152.00
C 240.00 130.67 240.00 109.33 240.00 88.00 Z"/>
</g>
<g fill="#000000" fill-opacity="1.00" stroke="None">
<path d="
M 285.00 88.00 
C 251.01 81.91 242.10 144.58 275.33 151.67 C 308.56 158.76 317.17 93.76 285.00 88.00
M 283.00 104.00 
C 294.02 106.96 289.32 140.50 277.33 135.67 C 265.34 130.84 269.81 100.46 283.00 104.00 Z"/>
</g>
<g fill="#000000" fill-opacity="1.00" stroke="None">
<path d="
M 349.00 88.00 
C 315.01 81.91 306.10 144.58 339.33 151.67 C 372.56 158.76 381.17 93.76 349.00 88.00
M 347.00 104.00 
C 358.02 106.96 353.32 140.50 341.33 135.67 C 329.34 130.84 333.81 100.46 347.00 104.00 Z"/>
</g>
<g fill="#82C7D0" fill-opacity="1.00" stroke="None">
<path d="
M 187.00 104.00 
C 173.81 100.46 169.34 130.84 181.33 135.67 C 193.32 140.50 198.02 106.96 187.00 104.00 Z"/>
</g>
<g fill="#82C7D0" fill-opacity="1.00" stroke="None">
<path d="
M 283.00 104.00 
C 269.81 100.46 265.34 130.84 277.33 135.67 C 289.32 140.50 294.02 106.96 283.00 104.00 Z"/>
</g>
<g fill="#82C7D0" fill-opacity="1.00" stroke="None">
<path d="
M 347.00 104.00 
C 333.81 100.46 329.34 130.84 341.33 135.67 C 353.32 140.50 358.02 106.96 347.00 104.00 Z"/>
</g>
<g fill="#000000" fill-opacity="1.00" stroke="None">
<path d="
M 277.00 168.00 
C 242.99 161.91 234.13 224.62 267.33 231.67 C 300.53 238.72 309.19 173.77 277.00 168.00
M 275.00 184.00 
C 286.02 186.96 281.32 220.50 269.33 215.67 C 257.34 210.84 261.81 180.46 275.00 184.00 Z"/>
</g>
<g fill="#000000" fill-opacity="1.00" stroke="None">
<path d="
M 328.00 168.00 
C 322.67 168.00 317.33 168.00 312.00 168.00
C 312.00 189.33 312.00 210.67 312.00 232.00
C 317.33 232.00 322.67 232.00 328.00 232.00
C 328.00 210.67 328.00 189.33 328.00 168.00 Z"/>
</g>
<g fill="#000000" fill-opacity="1.00" stroke="None">
<path d="
M 373.00 168.00 
C 338.99 161.91 330.13 224.62 363.33 231.67 C 396.53 238.72 405.19 173.77 373.00 168.00
M 371.00 184.00 
C 382.02 186.96 377.32 220.50 365.33 215.67 C 353.34 210.84 357.81 180.46 371.00 184.00 Z"/>
</g>
<g fill="#000000" fill-opacity="1.00" stroke="None">
<path d="
M 424.00 168.00 
C 418.67 168.00 413.33 168.00 408.00 168.00
C 408.00 189.33 408.00 210.67 408.00 232.00
C 413.33 232.00 418.67 232.00 424.00 232.00
C 424.00 210.67 424.00 189.33 424.00 168.00 Z"/>
</g>
<g fill="#000000" fill-opacity="1.00" stroke="None">
<path d="
M 128.00 177.00 
C 115.32 181.10 100.05 182.52 92.00 194.00
C 94.50 194.37 95.00 196.32 96.00 198.00
C 97.39 200.34 98.74 202.61 100.00 205.00
C 131.43 186.23 169.56 187.34 198.23 212.77 C 226.90 238.20 226.04 283.12 224.00 320.00
C 216.00 320.00 208.00 320.00 200.00 320.00
C 204.44 280.54 201.73 229.21 157.99 218.01 C 114.25 206.81 81.35 246.30 88.00 288.00
C 80.00 288.00 72.00 288.00 64.00 288.00
C 61.58 260.38 68.37 232.59 89.00 214.00
C 87.91 211.26 83.97 210.17 84.00 207.00
C 80.88 207.38 80.11 202.66 77.00 203.00
C 70.93 211.56 64.71 216.15 59.92 225.92 C 55.14 235.70 51.42 244.11 49.93 255.93 C 48.43 267.74 47.11 280.41 48.01 293.99 C 48.91 307.57 66.30 302.99 77.00 304.00 C 87.70 305.01 105.56 305.11 104.00 291.00 C 102.44 276.89 103.47 265.82 107.69 254.69 C 111.92 243.57 118.32 239.99 128.00 236.00
C 145.71 228.71 168.14 232.59 178.30 251.70 C 188.46 270.81 182.38 298.17 184.00 320.00
C 165.33 320.00 146.67 320.00 128.00 320.00
C 102.83 317.84 77.12 322.88 52.00 320.00 C 26.88 317.12 10.71 334.52 16.00 360.00
C 18.67 360.00 21.33 360.00 24.00 360.00
C 26.67 360.00 29.33 360.00 32.00 360.00
C 28.69 345.83 33.31 333.99 48.00 336.00 C 62.69 338.01 74.06 335.04 88.00 336.00 C 101.94 336.96 114.40 335.44 128.00 336.00 C 141.60 336.56 154.58 335.46 168.00 336.00 C 181.42 336.54 194.69 335.12 208.00 336.00 C 221.31 336.88 234.81 334.20 248.00 336.00 C 261.19 337.80 255.26 357.15 256.00 368.00 C 256.74 378.85 256.00 396.53 256.00 408.00 C 256.00 419.47 256.75 437.14 256.00 448.00 C 255.25 458.86 261.21 478.19 247.99 479.99 C 234.78 481.80 221.35 479.12 208.00 480.00 C 194.65 480.88 181.49 479.44 168.00 480.00 C 154.51 480.56 141.75 479.40 128.00 480.00 C 114.25 480.60 102.27 478.95 88.00 480.00 C 73.73 481.05 63.43 477.80 48.00 480.00 C 32.57 482.20 30.32 469.76 32.00 456.00 C 33.68 442.24 31.12 429.56 32.00 416.00 C 32.88 402.44 31.34 389.50 32.00 376.00
C 29.33 376.00 26.67 376.00 24.00 376.00
C 21.33 376.00 18.67 376.00 16.00 376.00
C 13.05 403.63 19.93 428.05 16.00 456.00 C 12.07 483.95 29.16 498.90 56.00 496.00 C 82.84 493.10 110.26 497.31 136.00 496.00 C 161.74 494.69 191.98 496.60 216.00 496.00 C 240.02 495.40 269.25 501.34 272.00 472.00
C 272.98 461.54 272.00 450.51 272.00 440.00
C 273.76 416.00 269.65 387.55 272.00 364.00 C 274.35 340.45 268.24 315.89 240.00 320.00
C 241.93 283.83 242.42 239.44 218.77 212.23 C 195.12 185.02 163.81 170.13 128.00 177.00 Z"/>
</g>
<g fill="#82C7D0" fill-opacity="1.00" stroke="None">
<path d="
M 275.00 184.00 
C 261.81 180.46 257.34 210.84 269.33 215.67 C 281.32 220.50 286.02 186.96 275.00 184.00 Z"/>
</g>
<g fill="#82C7D0" fill-opacity="1.00" stroke="None">
<path d="
M 371.00 184.00 
C 357.81 180.46 353.34 210.84 365.33 215.67 C 377.32 220.50 382.02 186.96 371.00 184.00 Z"/>
</g>
<g fill="#DDDDDB" fill-opacity="1.00" stroke="None">
<path d="
M 96.00 198.00 
C 91.26 197.60 87.84 206.61 84.00 207.00
C 83.97 210.17 87.91 211.26 89.00 214.00
C 68.37 232.59 61.58 260.38 64.00 288.00
C 72.00 288.00 80.00 288.00 88.00 288.00
C 81.35 246.30 114.25 206.81 157.99 218.01 C 201.73 229.21 204.44 280.54 200.00 320.00
C 208.00 320.00 216.00 320.00 224.00 320.00
C 226.04 283.12 226.90 238.20 198.23 212.77 C 169.56 187.34 131.43 186.23 100.00 205.00
C 98.74 202.61 97.39 200.34 96.00 198.00 Z"/>
</g>
<g fill="#84CBD4" fill-opacity="1.00" stroke="None">
<path d="
M 128.00 236.00 
C 125.44 241.47 129.92 250.23 128.00 256.00
C 130.67 256.00 133.33 256.00 136.00 256.00
C 136.00 272.00 136.00 288.00 136.00 304.00
C 133.33 304.00 130.67 304.00 128.00 304.00
C 128.00 309.33 128.00 314.67 128.00 320.00
C 146.67 320.00 165.33 320.00 184.00 320.00
C 182.38 298.17 188.46 270.81 178.30 251.70 C 168.14 232.59 145.71 228.71 128.00 236.00 Z"/>
</g>
<g fill="#000000" fill-opacity="1.00" stroke="None">
<path d="
M 280.00 248.00 
C 274.67 248.00 269.33 248.00 264.00 248.00
C 264.00 269.33 264.00 290.67 264.00 312.00
C 269.33 312.00 274.67 312.00 280.00 312.00
C 280.00 290.67 280.00 269.33 280.00 248.00 Z"/>
</g>
<g fill="#000000" fill-opacity="1.00" stroke="None">
<path d="
M 325.00 248.00 
C 291.01 241.91 282.10 304.58 315.33 311.67 C 348.56 318.76 357.17 253.76 325.00 248.00
M 323.00 264.00 
C 334.02 266.96 329.32 300.50 317.33 295.67 C 305.34 290.84 309.81 260.46 323.00 264.00 Z"/>
</g>
<g fill="#000000" fill-opacity="1.00" stroke="None">
<path d="
M 389.00 248.00 
C 355.01 241.91 346.10 304.58 379.33 311.67 C 412.56 318.76 421.17 253.76 389.00 248.00
M 387.00 264.00 
C 398.02 266.96 393.32 300.50 381.33 295.67 C 369.34 290.84 373.81 260.46 387.00 264.00 Z"/>
</g>
<g fill="#000000" fill-opacity="1.00" stroke="None">
<path d="
M 128.00 304.00 
C 130.67 304.00 133.33 304.00 136.00 304.00
C 136.00 288.00 136.00 272.00 136.00 256.00
C 133.33 256.00 130.67 256.00 128.00 256.00
C 125.33 256.00 122.67 256.00 120.00 256.00
C 120.00 272.00 120.00 288.00 120.00 304.00
C 122.67 304.00 125.33 304.00 128.00 304.00 Z"/>
</g>
<g fill="#82C7D0" fill-opacity="1.00" stroke="None">
<path d="
M 323.00 264.00 
C 309.81 260.46 305.34 290.84 317.33 295.67 C 329.32 300.50 334.02 266.96 323.00 264.00 Z"/>
</g>
<g fill="#82C7D0" fill-opacity="1.00" stroke="None">
<path d="
M 387.00 264.00 
C 373.81 260.46 369.34 290.84 381.33 295.67 C 393.32 300.50 398.02 266.96 387.00 264.00 Z"/>
</g>
<g fill="#D55145" fill-opacity="1.00" stroke="None">
<path d="
M 24.00 360.00 
C 24.00 365.33 24.00 370.67 24.00 376.00
C 26.67 376.00 29.33 376.00 32.00 376.00
C 31.34 389.50 32.88 402.44 32.00 416.00 C 31.12 429.56 33.68 442.24 32.00 456.00 C 30.32 469.76 32.57 482.20 48.00 480.00 C 63.43 477.80 73.73 481.05 88.00 480.00 C 102.27 478.95 114.25 480.60 128.00 480.00 C 141.75 479.40 154.51 480.56 168.00 480.00 C 181.49 479.44 194.65 480.88 208.00 480.00 C 221.35 479.12 234.78 481.80 247.99 479.99 C 261.21 478.19 255.25 458.86 256.00 448.00 C 256.75 437.14 256.00 419.47 256.00 408.00 C 256.00 396.53 256.74 378.85 256.00 368.00 C 255.26 357.15 261.19 337.80 248.00 336.00 C 234.81 334.20 221.31 336.88 208.00 336.00 C 194.69 335.12 181.42 336.54 168.00 336.00 C 154.58 335.46 141.60 336.56 128.00 336.00 C 114.40 335.44 101.94 336.96 88.00 336.00 C 74.06 335.04 62.69 338.01 48.00 336.00 C 33.31 333.99 28.69 345.83 32.00 360.00
C 29.33 360.00 26.67 360.00 24.00 360.00
M 152.00 422.00 
C 152.00 428.00 152.00 434.00 152.00 440.00
C 146.67 440.00 141.33 440.00 136.00 440.00
C 136.00 434.00 136.00 428.00 136.00 422.00
C 110.82 414.44 118.29 376.00 144.00 376.00 C 169.72 376.00 177.18 414.43 152.00 422.00 Z"/>
</g>
<g fill="#000000" fill-opacity="1.00" stroke="None">
<path d="
M 312.00 336.00 
C 306.67 336.00 301.33 336.00 296.00 336.00
C 296.00 357.33 296.00 378.67 296.00 400.00
C 301.33 400.00 306.67 400.00 312.00 400.00
C 312.00 378.67 312.00 357.33 312.00 336.00 Z"/>
</g>
<g fill="#000000" fill-opacity="1.00" stroke="None">
<path d="
M 357.00 336.00 
C 322.99 329.91 314.13 392.61 347.33 399.67 C 380.53 406.73 389.18 341.77 357.00 336.00
M 355.00 352.00 
C 366.02 354.96 361.32 388.50 349.33 383.67 C 337.34 378.84 341.81 348.46 355.00 352.00 Z"/>
</g>
<g fill="#000000" fill-opacity="1.00" stroke="None">
<path d="
M 408.00 336.00 
C 402.67 336.00 397.33 336.00 392.00 336.00
C 392.00 357.33 392.00 378.67 392.00 400.00
C 397.33 400.00 402.67 400.00 408.00 400.00
C 408.00 378.67 408.00 357.33 408.00 336.00 Z"/>
</g>
<g fill="#82C7D0" fill-opacity="1.00" stroke="None">
<path d="
M 355.00 352.00 
C 341.81 348.46 337.34 378.84 349.33 383.67 C 361.32 388.50 366.02 354.96 355.00 352.00 Z"/>
</g>
<g fill="#000000" fill-opacity="1.00" stroke="None">
<path d="
M 152.00 422.00 
C 177.18 414.43 169.72 376.00 144.00 376.00 C 118.29 376.00 110.82 414.44 136.00 422.00
C 136.00 428.00 136.00 434.00 136.00 440.00
C 141.33 440.00 146.67 440.00 152.00 440.00
C 152.00 434.00 152.00 428.00 152.00 422.00
M 147.00 392.00 
C 156.53 394.56 151.17 411.79 141.33 407.67 C 131.49 403.55 136.79 389.26 147.00 392.00 Z"/>
</g>
<g fill="#B03C30" fill-opacity="1.00" stroke="None">
<path d="
M 147.00 392.00 
C 136.79 389.26 131.49 403.55 141.33 407.67 C 151.17 411.79 156.53 394.56 147.00 392.00 Z"/>
</g>
</svg>