<svg xmlns="http://www.w3.org/2000/svg" xmlns:v="https://svgstorm.com"
viewBox = "0 0 512 512"
width="512"
height="512">
<g fill="None" fill-opacity="0.0" stroke="#000000" stroke-opacity="0.00" stroke-width="0.3"><path d="
M 0.00 152.00 
C 11.01 120.37 43.47 128.41 73.00 128.00 C 102.53 127.59 140.69 128.31 171.00 128.00
C 171.00 131.33 171.00 134.67 171.00 138.00
C 176.45 138.92 182.62 136.77 188.00 138.00
C 177.64 128.04 183.11 112.57 181.00 100.00 C 178.89 87.43 186.08 68.20 178.25 57.75 C 170.41 47.31 147.88 57.80 137.00 54.00
C 125.42 87.88 73.16 77.00 74.00 42.00 C 74.84 7.00 126.08 -1.35 137.00 32.00
C 149.55 33.16 167.54 30.11 179.22 32.78 C 190.90 35.44 197.51 42.83 201.32 53.68 C 205.14 64.53 202.16 83.27 203.00 95.00 C 203.84 106.73 198.79 125.54 213.67 127.33 C 228.56 129.12 241.11 127.38 256.00 128.00
C 256.00 131.33 256.00 134.67 256.00 138.00
C 263.00 138.00 270.00 138.00 277.00 138.00
C 275.04 123.99 278.56 112.39 277.00 98.00 C 275.44 83.61 293.47 83.65 304.00 85.00
C 314.50 72.55 285.85 63.64 294.92 50.92 C 304.00 38.21 312.17 36.94 321.25 24.25 C 330.33 11.56 345.89 16.76 353.00 30.00
C 356.12 29.43 358.76 27.32 362.00 27.00
C 362.48 17.59 359.34 5.21 369.00 0.00
L 0.00 0.00
L 0.00 152.00 Z"/>
</g>
<g fill="None" fill-opacity="0.0" stroke="#3D4249" stroke-opacity="0.98" stroke-width="0.3"><path d="
M 277.00 138.00 
C 279.82 158.22 306.09 139.51 308.00 159.00
C 297.34 165.68 289.23 178.06 299.25 187.75 C 309.27 197.44 314.30 201.88 323.75 212.25 C 333.20 222.62 346.38 215.17 353.00 204.00
C 372.40 203.76 354.03 232.33 372.00 234.00
C 379.38 234.91 388.23 234.35 395.00 235.00
C 403.72 235.84 414.23 236.85 422.23 233.23 C 430.23 229.61 425.94 214.80 427.00 208.00
C 439.45 197.50 448.36 226.15 461.08 217.08 C 473.79 208.00 475.06 199.83 487.75 190.75 C 500.45 181.67 495.24 166.11 482.00 159.00
C 482.57 155.88 484.68 153.24 485.00 150.00
C 494.41 149.52 506.79 152.66 512.00 143.00
L 512.00 91.00
C 506.38 82.01 494.26 85.73 485.00 85.00
C 485.47 81.55 482.15 79.29 482.00 76.00
C 489.79 69.66 501.77 59.12 493.00 49.00
C 484.24 38.95 473.00 27.72 463.00 19.00
C 452.27 11.02 442.71 21.70 436.00 30.00
C 432.74 29.82 430.47 26.54 427.00 27.00
C 426.29 17.72 429.96 5.62 421.00 0.00
L 369.00 0.00
C 359.34 5.21 362.48 17.59 362.00 27.00
C 358.76 27.32 356.12 29.43 353.00 30.00
C 345.89 16.76 330.33 11.56 321.25 24.25 C 312.17 36.94 304.00 38.21 294.92 50.92 C 285.85 63.64 314.50 72.55 304.00 85.00
C 293.47 83.65 275.44 83.61 277.00 98.00 C 278.56 112.39 275.04 123.99 277.00 138.00
M 405.00 21.00 
C 399.76 38.70 411.86 43.74 424.22 48.78 C 436.59 53.81 446.11 56.17 454.00 42.00
C 460.36 44.67 464.16 52.22 470.00 56.00
C 468.07 62.86 454.91 67.25 458.00 76.00 C 461.09 84.75 464.63 89.78 466.98 99.02 C 469.32 108.27 483.50 107.40 491.00 107.00
C 491.00 114.00 491.00 121.00 491.00 128.00
C 473.16 122.52 468.45 134.79 463.08 147.08 C 457.70 159.37 456.25 169.12 470.00 177.00
C 465.98 182.48 459.97 186.56 456.00 192.00
C 446.39 181.08 437.73 179.10 425.31 185.31 C 412.88 191.51 399.93 194.46 405.00 213.00
C 398.00 213.00 391.00 213.00 384.00 213.00
C 389.53 194.42 376.61 191.38 364.31 185.69 C 352.00 180.01 343.04 179.18 335.00 193.00
C 329.18 188.65 324.77 182.30 319.00 178.00
C 331.18 168.86 332.69 160.87 326.70 148.31 C 320.70 135.74 318.00 122.49 299.00 128.00
C 299.00 121.00 299.00 114.00 299.00 107.00
C 316.64 112.32 321.00 99.19 326.31 87.31 C 331.62 75.42 333.72 65.91 320.00 58.00
C 322.67 51.64 330.22 47.84 334.00 42.00
C 343.04 54.40 351.60 54.88 364.23 49.23 C 376.86 43.58 389.51 39.37 384.00 21.00
C 391.00 21.00 398.00 21.00 405.00 21.00 Z"/>
</g>
<g fill="None" fill-opacity="0.0" stroke="#000000" stroke-opacity="0.00" stroke-width="0.3"><path d="
M 463.00 19.00 
C 473.31 26.67 485.37 38.74 493.00 49.00
C 501.77 59.12 489.79 69.66 482.00 76.00
C 482.15 79.29 485.47 81.55 485.00 85.00
C 494.26 85.73 506.38 82.01 512.00 91.00
L 512.00 0.00
L 421.00 0.00
C 429.96 5.62 426.29 17.72 427.00 27.00
C 430.47 26.54 432.74 29.82 436.00 30.00
C 442.71 21.70 452.27 11.02 463.00 19.00 Z"/>
</g>
<g fill="None" fill-opacity="0.0" stroke="#3D4249" stroke-opacity="0.97" stroke-width="0.3"><path d="
M 188.00 138.00 
C 206.06 155.37 232.64 147.24 256.00 149.00
C 256.00 145.33 256.00 141.67 256.00 138.00
C 256.00 134.67 256.00 131.33 256.00 128.00
C 241.11 127.38 228.56 129.12 213.67 127.33 C 198.79 125.54 203.84 106.73 203.00 95.00 C 202.16 83.27 205.14 64.53 201.32 53.68 C 197.51 42.83 190.90 35.44 179.22 32.78 C 167.54 30.11 149.55 33.16 137.00 32.00
C 126.08 -1.35 74.84 7.00 74.00 42.00 C 73.16 77.00 125.42 87.88 137.00 54.00
C 147.88 57.80 170.41 47.31 178.25 57.75 C 186.08 68.20 178.89 87.43 181.00 100.00 C 183.11 112.57 177.64 128.04 188.00 138.00
M 110.00 32.00 
C 123.32 34.82 116.01 58.17 103.00 53.00 C 89.99 47.83 97.19 29.29 110.00 32.00 Z"/>
</g>
<g fill="None" fill-opacity="0.0" stroke="#334D4D" stroke-opacity="0.04" stroke-width="0.3"><path d="
M 493.00 49.00 
C 485.37 38.74 473.31 26.67 463.00 19.00
C 473.00 27.72 484.24 38.95 493.00 49.00 Z"/>
</g>
<g fill="None" fill-opacity="0.0" stroke="#FBCB2A" stroke-opacity="1.00" stroke-width="0.3"><path d="
M 405.00 21.00 
C 398.00 21.00 391.00 21.00 384.00 21.00
C 389.51 39.37 376.86 43.58 364.23 49.23 C 351.60 54.88 343.04 54.40 334.00 42.00
C 330.22 47.84 322.67 51.64 320.00 58.00
C 333.72 65.91 331.62 75.42 326.31 87.31 C 321.00 99.19 316.64 112.32 299.00 107.00
C 299.00 114.00 299.00 121.00 299.00 128.00
C 318.00 122.49 320.70 135.74 326.70 148.31 C 332.69 160.87 331.18 168.86 319.00 178.00
C 324.77 182.30 329.18 188.65 335.00 193.00
C 343.04 179.18 352.00 180.01 364.31 185.69 C 376.61 191.38 389.53 194.42 384.00 213.00
C 391.00 213.00 398.00 213.00 405.00 213.00
C 399.93 194.46 412.88 191.51 425.31 185.31 C 437.73 179.10 446.39 181.08 456.00 192.00
C 459.97 186.56 465.98 182.48 470.00 177.00
C 456.25 169.12 457.70 159.37 463.08 147.08 C 468.45 134.79 473.16 122.52 491.00 128.00
C 491.00 121.00 491.00 114.00 491.00 107.00
C 483.50 107.40 469.32 108.27 466.98 99.02 C 464.63 89.78 461.09 84.75 458.00 76.00 C 454.91 67.25 468.07 62.86 470.00 56.00
C 464.16 52.22 460.36 44.67 454.00 42.00
C 446.11 56.17 436.59 53.81 424.22 48.78 C 411.86 43.74 399.76 38.70 405.00 21.00
M 401.00 75.00 
C 432.09 79.44 447.46 119.01 428.25 143.25 C 409.03 167.48 370.30 164.73 356.23 135.77 C 342.16 106.81 367.42 70.20 401.00 75.00 Z"/>
</g>
<g fill="None" fill-opacity="0.0" stroke="#F7F7F8" stroke-opacity="1.00" stroke-width="0.3"><path d="
M 110.00 32.00 
C 97.19 29.29 89.99 47.83 103.00 53.00 C 116.01 58.17 123.32 34.82 110.00 32.00 Z"/>
</g>
<g fill="None" fill-opacity="0.0" stroke="#3D4249" stroke-opacity="0.98" stroke-width="0.3"><path d="
M 401.00 75.00 
C 367.42 70.20 342.16 106.81 356.23 135.77 C 370.30 164.73 409.03 167.48 428.25 143.25 C 447.46 119.01 432.09 79.44 401.00 75.00
M 400.00 97.00 
C 425.32 102.24 415.43 144.74 389.78 137.22 C 364.12 129.70 373.45 91.50 400.00 97.00 Z"/>
</g>
<g fill="None" fill-opacity="0.0" stroke="#000000" stroke-opacity="0.00" stroke-width="0.3"><path d="
M 400.00 97.00 
C 373.45 91.50 364.12 129.70 389.78 137.22 C 415.43 144.74 425.32 102.24 400.00 97.00 Z"/>
</g>
<g fill="None" fill-opacity="0.0" stroke="#3D4249" stroke-opacity="0.99" stroke-width="0.3"><path d="
M 0.00 152.00 
L 0.00 424.00
C 7.28 447.83 28.73 449.37 52.00 448.00 C 75.27 446.63 104.21 449.02 128.00 448.00
C 128.00 462.00 128.00 476.00 128.00 490.00
C 120.67 490.00 113.33 490.00 106.00 490.00
C 106.00 497.33 106.00 504.67 106.00 512.00
L 299.00 512.00
C 299.00 504.67 299.00 497.33 299.00 490.00
C 292.00 490.00 285.00 490.00 278.00 490.00
C 278.00 476.00 278.00 462.00 278.00 448.00
C 308.30 449.65 336.49 445.80 367.00 448.00 C 397.51 450.20 408.91 426.31 406.00 398.00 C 403.09 369.69 408.19 337.65 406.00 309.00
C 402.33 309.00 398.67 309.00 395.00 309.00
C 392.06 309.28 387.65 310.86 384.00 310.00
C 380.75 314.65 385.42 325.10 384.00 331.00 C 382.58 336.90 384.53 345.57 384.00 352.00 C 383.47 358.43 384.00 366.43 384.00 373.00
C 384.00 387.32 387.06 404.77 383.67 418.67 C 380.28 432.57 358.36 425.90 346.00 427.00 C 333.64 428.10 313.98 426.53 300.00 427.00 C 286.02 427.47 268.69 426.83 254.00 427.00 C 239.31 427.17 222.97 427.03 208.00 427.00 C 193.03 426.97 177.00 427.25 162.00 427.00 C 147.00 426.75 130.82 427.63 116.00 427.00 C 101.18 426.37 84.29 428.44 70.00 427.00 C 55.71 425.56 38.50 431.22 26.26 424.74 C 14.01 418.27 24.66 394.79 21.00 384.00
C 102.67 384.00 184.33 384.00 266.00 384.00
C 266.00 380.33 266.00 376.67 266.00 373.00
C 266.00 369.67 266.00 366.33 266.00 363.00
C 261.49 359.84 251.75 364.41 246.00 363.00 C 240.25 361.59 232.37 363.61 226.00 363.00 C 219.63 362.39 211.62 363.29 205.00 363.00 C 198.38 362.71 191.74 363.12 185.00 363.00 C 178.26 362.88 170.77 363.06 164.00 363.00 C 157.23 362.94 150.76 363.03 144.00 363.00 C 137.24 362.97 130.81 363.01 124.00 363.00 C 117.19 362.99 109.83 363.01 103.00 363.00 C 96.17 362.99 89.84 363.00 83.00 363.00 C 76.16 363.00 68.85 363.00 62.00 363.00 C 55.15 363.00 48.87 363.00 42.00 363.00 C 35.13 363.00 27.90 363.00 21.00 363.00
C 20.98 348.02 21.02 332.97 21.00 318.00 C 20.98 303.03 21.04 286.83 21.00 272.00 C 20.96 257.17 21.09 241.44 21.00 227.00 C 20.91 212.56 21.20 194.61 21.00 181.00 C 20.80 167.39 18.01 149.79 34.01 149.01 C 50.01 148.23 64.42 149.36 80.00 149.00 C 95.58 148.64 109.60 149.19 125.00 149.00 C 140.40 148.81 155.62 149.14 171.00 149.00
C 171.00 145.33 171.00 141.67 171.00 138.00
C 171.00 134.67 171.00 131.33 171.00 128.00
C 140.69 128.31 102.53 127.59 73.00 128.00 C 43.47 128.41 11.01 120.37 0.00 152.00
M 256.00 448.00 
C 256.00 462.33 256.00 476.67 256.00 491.00
C 220.33 491.00 184.67 491.00 149.00 491.00
C 149.00 476.67 149.00 462.33 149.00 448.00
C 184.67 448.00 220.33 448.00 256.00 448.00 Z"/>
</g>
<g fill="None" fill-opacity="0.0" stroke="#26C3B0" stroke-opacity="1.00" stroke-width="0.3"><path d="
M 266.00 363.00 
C 267.90 364.33 267.21 370.70 267.00 373.00
C 275.76 374.92 286.43 370.44 295.00 373.00
C 287.49 363.20 286.79 350.35 290.93 338.93 C 295.07 327.50 310.70 326.11 309.00 313.00 C 307.30 299.89 309.80 287.93 317.75 277.75 C 325.71 267.57 338.97 266.61 351.00 267.00 C 363.03 267.39 381.73 270.87 384.00 256.00
C 387.33 256.00 390.67 256.00 394.00 256.00
C 393.40 249.38 393.40 241.62 394.00 235.00
C 386.74 235.00 378.47 235.60 372.00 234.00
C 354.03 232.33 372.40 203.76 353.00 204.00
C 346.38 215.17 333.20 222.62 323.75 212.25 C 314.30 201.88 309.27 197.44 299.25 187.75 C 289.23 178.06 297.34 165.68 308.00 159.00
C 306.09 139.51 279.82 158.22 277.00 138.00
C 270.00 138.00 263.00 138.00 256.00 138.00
C 256.00 141.67 256.00 145.33 256.00 149.00
C 232.64 147.24 206.06 155.37 188.00 138.00
C 182.62 136.77 176.45 138.92 171.00 138.00
C 171.00 141.67 171.00 145.33 171.00 149.00
C 155.62 149.14 140.40 148.81 125.00 149.00 C 109.60 149.19 95.58 148.64 80.00 149.00 C 64.42 149.36 50.01 148.23 34.01 149.01 C 18.01 149.79 20.80 167.39 21.00 181.00 C 21.20 194.61 20.91 212.56 21.00 227.00 C 21.09 241.44 20.96 257.17 21.00 272.00 C 21.04 286.83 20.98 303.03 21.00 318.00 C 21.02 332.97 20.98 348.02 21.00 363.00
C 27.90 363.00 35.13 363.00 42.00 363.00 C 48.87 363.00 55.15 363.00 62.00 363.00 C 68.85 363.00 76.16 363.00 83.00 363.00 C 89.84 363.00 96.17 362.99 103.00 363.00 C 109.83 363.01 117.19 362.99 124.00 363.00 C 130.81 363.01 137.24 362.97 144.00 363.00 C 150.76 363.03 157.23 362.94 164.00 363.00 C 170.77 363.06 178.26 362.88 185.00 363.00 C 191.74 363.12 198.38 362.71 205.00 363.00 C 211.62 363.29 219.63 362.39 226.00 363.00 C 232.37 363.61 240.25 361.59 246.00 363.00 C 251.75 364.41 261.49 359.84 266.00 363.00
M 136.00 213.00 
C 153.36 212.50 171.74 213.66 189.00 213.00 C 206.26 212.34 226.21 214.25 243.00 213.00 C 259.79 211.75 278.45 218.73 290.00 206.00
C 296.36 208.67 300.16 216.22 306.00 220.00
C 287.49 244.72 257.47 233.08 229.00 235.00 C 200.53 236.92 165.10 233.56 136.00 235.00
C 124.79 268.05 75.05 258.31 75.00 224.00 C 74.95 189.69 124.85 179.94 136.00 213.00 Z"/>
</g>
<g fill="None" fill-opacity="0.0" stroke="#000000" stroke-opacity="0.00" stroke-width="0.3"><path d="
M 395.00 235.00 
C 395.59 241.63 395.60 249.37 395.00 256.00
C 398.67 256.00 402.33 256.00 406.00 256.00
C 405.09 264.77 402.42 274.37 395.00 280.00
C 395.82 289.15 395.83 299.85 395.00 309.00
C 398.67 309.00 402.33 309.00 406.00 309.00
C 408.19 337.65 403.09 369.69 406.00 398.00 C 408.91 426.31 397.51 450.20 367.00 448.00 C 336.49 445.80 308.30 449.65 278.00 448.00
C 278.00 462.00 278.00 476.00 278.00 490.00
C 285.00 490.00 292.00 490.00 299.00 490.00
C 299.00 497.33 299.00 504.67 299.00 512.00
L 512.00 512.00
L 512.00 143.00
C 506.79 152.66 494.41 149.52 485.00 150.00
C 484.68 153.24 482.57 155.88 482.00 159.00
C 495.24 166.11 500.45 181.67 487.75 190.75 C 475.06 199.83 473.79 208.00 461.08 217.08 C 448.36 226.15 439.45 197.50 427.00 208.00
C 425.94 214.80 430.23 229.61 422.23 233.23 C 414.23 236.85 403.72 235.84 395.00 235.00 Z"/>
</g>
<g fill="None" fill-opacity="0.0" stroke="#3D444B" stroke-opacity="1.00" stroke-width="0.3"><path d="
M 136.00 213.00 
C 124.85 179.94 74.95 189.69 75.00 224.00 C 75.05 258.31 124.79 268.05 136.00 235.00
C 165.10 233.56 200.53 236.92 229.00 235.00 C 257.47 233.08 287.49 244.72 306.00 220.00
C 300.16 216.22 296.36 208.67 290.00 206.00
C 278.45 218.73 259.79 211.75 243.00 213.00 C 226.21 214.25 206.26 212.34 189.00 213.00 C 171.74 213.66 153.36 212.50 136.00 213.00
M 108.00 213.00 
C 121.21 214.41 118.88 236.50 105.32 234.66 C 91.76 232.83 94.51 211.56 108.00 213.00 Z"/>
</g>
<g fill="None" fill-opacity="0.0" stroke="#F8F8F9" stroke-opacity="1.00" stroke-width="0.3"><path d="
M 108.00 213.00 
C 94.51 211.56 91.76 232.83 105.32 234.66 C 118.88 236.50 121.21 214.41 108.00 213.00 Z"/>
</g>
<g fill="None" fill-opacity="0.0" stroke="#356E6C" stroke-opacity="1.00" stroke-width="0.3"><path d="
M 394.00 235.00 
C 394.50 235.00 395.00 235.00 395.00 235.00
C 388.23 234.35 379.38 234.91 372.00 234.00
C 378.47 235.60 386.74 235.00 394.00 235.00 Z"/>
</g>
<g fill="None" fill-opacity="0.0" stroke="#26C4B2" stroke-opacity="0.66" stroke-width="0.3"><path d="
M 394.00 256.00 
C 394.50 256.00 395.00 256.00 395.00 256.00
C 395.60 249.37 395.59 241.63 395.00 235.00
C 395.00 235.00 394.50 235.00 394.00 235.00
C 393.40 241.62 393.40 249.38 394.00 256.00 Z"/>
</g>
<g fill="None" fill-opacity="0.0" stroke="#3D4349" stroke-opacity="1.00" stroke-width="0.3"><path d="
M 295.00 373.00 
C 306.20 387.62 333.82 387.59 345.00 373.00
C 351.07 365.08 352.10 354.50 351.01 344.99 C 349.92 335.49 341.24 329.31 334.92 324.08 C 328.60 318.85 327.84 300.57 332.75 292.75 C 337.67 284.94 355.52 287.83 365.00 288.00 C 374.48 288.17 385.96 286.14 394.00 280.00
C 394.32 279.76 395.00 280.00 395.00 280.00
C 402.42 274.37 405.09 264.77 406.00 256.00
C 402.33 256.00 398.67 256.00 395.00 256.00
C 395.00 256.00 394.50 256.00 394.00 256.00
C 390.67 256.00 387.33 256.00 384.00 256.00
C 381.73 270.87 363.03 267.39 351.00 267.00 C 338.97 266.61 325.71 267.57 317.75 277.75 C 309.80 287.93 307.30 299.89 309.00 313.00 C 310.70 326.11 295.07 327.50 290.93 338.93 C 286.79 350.35 287.49 363.20 295.00 373.00
M 321.00 341.00 
C 334.01 342.03 333.04 363.60 319.31 362.65 C 305.57 361.69 307.22 339.90 321.00 341.00 Z"/>
</g>
<g fill="None" fill-opacity="0.0" stroke="#26C3B0" stroke-opacity="1.00" stroke-width="0.3"><path d="
M 345.00 373.00 
C 356.93 369.43 371.80 375.68 384.00 373.00
C 384.00 366.43 383.47 358.43 384.00 352.00 C 384.53 345.57 382.58 336.90 384.00 331.00 C 385.42 325.10 380.75 314.65 384.00 310.00
C 385.43 307.95 391.57 309.00 394.00 309.00
C 393.18 299.85 393.17 289.15 394.00 280.00
C 385.96 286.14 374.48 288.17 365.00 288.00 C 355.52 287.83 337.67 284.94 332.75 292.75 C 327.84 300.57 328.60 318.85 334.92 324.08 C 341.24 329.31 349.92 335.49 351.01 344.99 C 352.10 354.50 351.07 365.08 345.00 373.00 Z"/>
</g>
<g fill="None" fill-opacity="0.0" stroke="#26C3B1" stroke-opacity="0.66" stroke-width="0.3"><path d="
M 394.00 309.00 
C 394.50 309.00 395.00 309.00 395.00 309.00
C 395.83 299.85 395.82 289.15 395.00 280.00
C 395.00 280.00 394.32 279.76 394.00 280.00
C 393.17 289.15 393.18 299.85 394.00 309.00 Z"/>
</g>
<g fill="None" fill-opacity="0.0" stroke="#356C6B" stroke-opacity="0.99" stroke-width="0.3"><path d="
M 384.00 310.00 
C 387.65 310.86 392.06 309.28 395.00 309.00
C 395.00 309.00 394.50 309.00 394.00 309.00
C 391.57 309.00 385.43 307.95 384.00 310.00 Z"/>
</g>
<g fill="None" fill-opacity="0.0" stroke="#F9F9F9" stroke-opacity="1.00" stroke-width="0.3"><path d="
M 321.00 341.00 
C 307.22 339.90 305.57 361.69 319.31 362.65 C 333.04 363.60 334.01 342.03 321.00 341.00 Z"/>
</g>
<g fill="None" fill-opacity="0.0" stroke="#356E6C" stroke-opacity="1.00" stroke-width="0.3"><path d="
M 266.00 373.00 
C 266.00 372.96 267.00 373.00 267.00 373.00
C 267.21 370.70 267.90 364.33 266.00 363.00
C 266.00 366.33 266.00 369.67 266.00 373.00 Z"/>
</g>
<g fill="None" fill-opacity="0.0" stroke="#6B727A" stroke-opacity="0.99" stroke-width="0.3"><path d="
M 266.00 384.00 
C 267.99 382.61 267.22 375.42 267.00 373.00
C 267.00 373.00 266.00 372.96 266.00 373.00
C 266.00 376.67 266.00 380.33 266.00 384.00 Z"/>
</g>
<g fill="None" fill-opacity="0.0" stroke="#C9D1D9" stroke-opacity="1.00" stroke-width="0.3"><path d="
M 266.00 384.00 
C 184.33 384.00 102.67 384.00 21.00 384.00
C 24.66 394.79 14.01 418.27 26.26 424.74 C 38.50 431.22 55.71 425.56 70.00 427.00 C 84.29 428.44 101.18 426.37 116.00 427.00 C 130.82 427.63 147.00 426.75 162.00 427.00 C 177.00 427.25 193.03 426.97 208.00 427.00 C 222.97 427.03 239.31 427.17 254.00 427.00 C 268.69 426.83 286.02 427.47 300.00 427.00 C 313.98 426.53 333.64 428.10 346.00 427.00 C 358.36 425.90 380.28 432.57 383.67 418.67 C 387.06 404.77 384.00 387.32 384.00 373.00
C 371.80 375.68 356.93 369.43 345.00 373.00
C 333.82 387.59 306.20 387.62 295.00 373.00
C 286.43 370.44 275.76 374.92 267.00 373.00
C 267.22 375.42 267.99 382.61 266.00 384.00 Z"/>
</g>
<g fill="None" fill-opacity="0.0" stroke="#000000" stroke-opacity="0.00" stroke-width="0.3"><path d="
M 0.00 512.00 
L 106.00 512.00
C 106.00 504.67 106.00 497.33 106.00 490.00
C 113.33 490.00 120.67 490.00 128.00 490.00
C 128.00 476.00 128.00 462.00 128.00 448.00
C 104.21 449.02 75.27 446.63 52.00 448.00 C 28.73 449.37 7.28 447.83 0.00 424.00
L 0.00 512.00 Z"/>
</g>
<g fill="None" fill-opacity="0.0" stroke="#6B8098" stroke-opacity="1.00" stroke-width="0.3"><path d="
M 256.00 448.00 
C 220.33 448.00 184.67 448.00 149.00 448.00
C 149.00 462.33 149.00 476.67 149.00 491.00
C 184.67 491.00 220.33 491.00 256.00 491.00
C 256.00 476.67 256.00 462.33 256.00 448.00 Z"/>
</g>
<g fill="#000000" fill-opacity="0.00" stroke="None">
<path d="
M 0.00 152.00 
C 11.01 120.37 43.47 128.41 73.00 128.00 C 102.53 127.59 140.69 128.31 171.00 128.00
C 171.00 131.33 171.00 134.67 171.00 138.00
C 176.45 138.92 182.62 136.77 188.00 138.00
C 177.64 128.04 183.11 112.57 181.00 100.00 C 178.89 87.43 186.08 68.20 178.25 57.75 C 170.41 47.31 147.88 57.80 137.00 54.00
C 125.42 87.88 73.16 77.00 74.00 42.00 C 74.84 7.00 126.08 -1.35 137.00 32.00
C 149.55 33.16 167.54 30.11 179.22 32.78 C 190.90 35.44 197.51 42.83 201.32 53.68 C 205.14 64.53 202.16 83.27 203.00 95.00 C 203.84 106.73 198.79 125.54 213.67 127.33 C 228.56 129.12 241.11 127.38 256.00 128.00
C 256.00 131.33 256.00 134.67 256.00 138.00
C 263.00 138.00 270.00 138.00 277.00 138.00
C 275.04 123.99 278.56 112.39 277.00 98.00 C 275.44 83.61 293.47 83.65 304.00 85.00
C 314.50 72.55 285.85 63.64 294.92 50.92 C 304.00 38.21 312.17 36.94 321.25 24.25 C 330.33 11.56 345.89 16.76 353.00 30.00
C 356.12 29.43 358.76 27.32 362.00 27.00
C 362.48 17.59 359.34 5.21 369.00 0.00
L 0.00 0.00
L 0.00 152.00 Z"/>
</g>
<g fill="#3D4249" fill-opacity="0.98" stroke="None">
<path d="
M 277.00 138.00 
C 279.82 158.22 306.09 139.51 308.00 159.00
C 297.34 165.68 289.23 178.06 299.25 187.75 C 309.27 197.44 314.30 201.88 323.75 212.25 C 333.20 222.62 346.38 215.17 353.00 204.00
C 372.40 203.76 354.03 232.33 372.00 234.00
C 379.38 234.91 388.23 234.35 395.00 235.00
C 403.72 235.84 414.23 236.85 422.23 233.23 C 430.23 229.61 425.94 214.80 427.00 208.00
C 439.45 197.50 448.36 226.15 461.08 217.08 C 473.79 208.00 475.06 199.83 487.75 190.75 C 500.45 181.67 495.24 166.11 482.00 159.00
C 482.57 155.88 484.68 153.24 485.00 150.00
C 494.41 149.52 506.79 152.66 512.00 143.00
L 512.00 91.00
C 506.38 82.01 494.26 85.73 485.00 85.00
C 485.47 81.55 482.15 79.29 482.00 76.00
C 489.79 69.66 501.77 59.12 493.00 49.00
C 484.24 38.95 473.00 27.72 463.00 19.00
C 452.27 11.02 442.71 21.70 436.00 30.00
C 432.74 29.82 430.47 26.54 427.00 27.00
C 426.29 17.72 429.96 5.62 421.00 0.00
L 369.00 0.00
C 359.34 5.21 362.48 17.59 362.00 27.00
C 358.76 27.32 356.12 29.43 353.00 30.00
C 345.89 16.76 330.33 11.56 321.25 24.25 C 312.17 36.94 304.00 38.21 294.92 50.92 C 285.85 63.64 314.50 72.55 304.00 85.00
C 293.47 83.65 275.44 83.61 277.00 98.00 C 278.56 112.39 275.04 123.99 277.00 138.00
M 405.00 21.00 
C 399.76 38.70 411.86 43.74 424.22 48.78 C 436.59 53.81 446.11 56.17 454.00 42.00
C 460.36 44.67 464.16 52.22 470.00 56.00
C 468.07 62.86 454.91 67.25 458.00 76.00 C 461.09 84.75 464.63 89.78 466.98 99.02 C 469.32 108.27 483.50 107.40 491.00 107.00
C 491.00 114.00 491.00 121.00 491.00 128.00
C 473.16 122.52 468.45 134.79 463.08 147.08 C 457.70 159.37 456.25 169.12 470.00 177.00
C 465.98 182.48 459.97 186.56 456.00 192.00
C 446.39 181.08 437.73 179.10 425.31 185.31 C 412.88 191.51 399.93 194.46 405.00 213.00
C 398.00 213.00 391.00 213.00 384.00 213.00
C 389.53 194.42 376.61 191.38 364.31 185.69 C 352.00 180.01 343.04 179.18 335.00 193.00
C 329.18 188.65 324.77 182.30 319.00 178.00
C 331.18 168.86 332.69 160.87 326.70 148.31 C 320.70 135.74 318.00 122.49 299.00 128.00
C 299.00 121.00 299.00 114.00 299.00 107.00
C 316.64 112.32 321.00 99.19 326.31 87.31 C 331.62 75.42 333.72 65.91 320.00 58.00
C 322.67 51.64 330.22 47.84 334.00 42.00
C 343.04 54.40 351.60 54.88 364.23 49.23 C 376.86 43.58 389.51 39.37 384.00 21.00
C 391.00 21.00 398.00 21.00 405.00 21.00 Z"/>
</g>
<g fill="#000000" fill-opacity="0.00" stroke="None">
<path d="
M 463.00 19.00 
C 473.31 26.67 485.37 38.74 493.00 49.00
C 501.77 59.12 489.79 69.66 482.00 76.00
C 482.15 79.29 485.47 81.55 485.00 85.00
C 494.26 85.73 506.38 82.01 512.00 91.00
L 512.00 0.00
L 421.00 0.00
C 429.96 5.62 426.29 17.72 427.00 27.00
C 430.47 26.54 432.74 29.82 436.00 30.00
C 442.71 21.70 452.27 11.02 463.00 19.00 Z"/>
</g>
<g fill="#3D4249" fill-opacity="0.97" stroke="None">
<path d="
M 188.00 138.00 
C 206.06 155.37 232.64 147.24 256.00 149.00
C 256.00 145.33 256.00 141.67 256.00 138.00
C 256.00 134.67 256.00 131.33 256.00 128.00
C 241.11 127.38 228.56 129.12 213.67 127.33 C 198.79 125.54 203.84 106.73 203.00 95.00 C 202.16 83.27 205.14 64.53 201.32 53.68 C 197.51 42.83 190.90 35.44 179.22 32.78 C 167.54 30.11 149.55 33.16 137.00 32.00
C 126.08 -1.35 74.84 7.00 74.00 42.00 C 73.16 77.00 125.42 87.88 137.00 54.00
C 147.88 57.80 170.41 47.31 178.25 57.75 C 186.08 68.20 178.89 87.43 181.00 100.00 C 183.11 112.57 177.64 128.04 188.00 138.00
M 110.00 32.00 
C 123.32 34.82 116.01 58.17 103.00 53.00 C 89.99 47.83 97.19 29.29 110.00 32.00 Z"/>
</g>
<g fill="#334D4D" fill-opacity="0.04" stroke="None">
<path d="
M 493.00 49.00 
C 485.37 38.74 473.31 26.67 463.00 19.00
C 473.00 27.72 484.24 38.95 493.00 49.00 Z"/>
</g>
<g fill="#FBCB2A" fill-opacity="1.00" stroke="None">
<path d="
M 405.00 21.00 
C 398.00 21.00 391.00 21.00 384.00 21.00
C 389.51 39.37 376.86 43.58 364.23 49.23 C 351.60 54.88 343.04 54.40 334.00 42.00
C 330.22 47.84 322.67 51.64 320.00 58.00
C 333.72 65.91 331.62 75.42 326.31 87.31 C 321.00 99.19 316.64 112.32 299.00 107.00
C 299.00 114.00 299.00 121.00 299.00 128.00
C 318.00 122.49 320.70 135.74 326.70 148.31 C 332.69 160.87 331.18 168.86 319.00 178.00
C 324.77 182.30 329.18 188.65 335.00 193.00
C 343.04 179.18 352.00 180.01 364.31 185.69 C 376.61 191.38 389.53 194.42 384.00 213.00
C 391.00 213.00 398.00 213.00 405.00 213.00
C 399.93 194.46 412.88 191.51 425.31 185.31 C 437.73 179.10 446.39 181.08 456.00 192.00
C 459.97 186.56 465.98 182.48 470.00 177.00
C 456.25 169.12 457.70 159.37 463.08 147.08 C 468.45 134.79 473.16 122.52 491.00 128.00
C 491.00 121.00 491.00 114.00 491.00 107.00
C 483.50 107.40 469.32 108.27 466.98 99.02 C 464.63 89.78 461.09 84.75 458.00 76.00 C 454.91 67.25 468.07 62.86 470.00 56.00
C 464.16 52.22 460.36 44.67 454.00 42.00
C 446.11 56.17 436.59 53.81 424.22 48.78 C 411.86 43.74 399.76 38.70 405.00 21.00
M 401.00 75.00 
C 432.09 79.44 447.46 119.01 428.25 143.25 C 409.03 167.48 370.30 164.73 356.23 135.77 C 342.16 106.81 367.42 70.20 401.00 75.00 Z"/>
</g>
<g fill="#F7F7F8" fill-opacity="1.00" stroke="None">
<path d="
M 110.00 32.00 
C 97.19 29.29 89.99 47.83 103.00 53.00 C 116.01 58.17 123.32 34.82 110.00 32.00 Z"/>
</g>
<g fill="#3D4249" fill-opacity="0.98" stroke="None">
<path d="
M 401.00 75.00 
C 367.42 70.20 342.16 106.81 356.23 135.77 C 370.30 164.73 409.03 167.48 428.25 143.25 C 447.46 119.01 432.09 79.44 401.00 75.00
M 400.00 97.00 
C 425.32 102.24 415.43 144.74 389.78 137.22 C 364.12 129.70 373.45 91.50 400.00 97.00 Z"/>
</g>
<g fill="#000000" fill-opacity="0.00" stroke="None">
<path d="
M 400.00 97.00 
C 373.45 91.50 364.12 129.70 389.78 137.22 C 415.43 144.74 425.32 102.24 400.00 97.00 Z"/>
</g>
<g fill="#3D4249" fill-opacity="0.99" stroke="None">
<path d="
M 0.00 152.00 
L 0.00 424.00
C 7.28 447.83 28.73 449.37 52.00 448.00 C 75.27 446.63 104.21 449.02 128.00 448.00
C 128.00 462.00 128.00 476.00 128.00 490.00
C 120.67 490.00 113.33 490.00 106.00 490.00
C 106.00 497.33 106.00 504.67 106.00 512.00
L 299.00 512.00
C 299.00 504.67 299.00 497.33 299.00 490.00
C 292.00 490.00 285.00 490.00 278.00 490.00
C 278.00 476.00 278.00 462.00 278.00 448.00
C 308.30 449.65 336.49 445.80 367.00 448.00 C 397.51 450.20 408.91 426.31 406.00 398.00 C 403.09 369.69 408.19 337.65 406.00 309.00
C 402.33 309.00 398.67 309.00 395.00 309.00
C 392.06 309.28 387.65 310.86 384.00 310.00
C 380.75 314.65 385.42 325.10 384.00 331.00 C 382.58 336.90 384.53 345.57 384.00 352.00 C 383.47 358.43 384.00 366.43 384.00 373.00
C 384.00 387.32 387.06 404.77 383.67 418.67 C 380.28 432.57 358.36 425.90 346.00 427.00 C 333.64 428.10 313.98 426.53 300.00 427.00 C 286.02 427.47 268.69 426.83 254.00 427.00 C 239.31 427.17 222.97 427.03 208.00 427.00 C 193.03 426.97 177.00 427.25 162.00 427.00 C 147.00 426.75 130.82 427.63 116.00 427.00 C 101.18 426.37 84.29 428.44 70.00 427.00 C 55.71 425.56 38.50 431.22 26.26 424.74 C 14.01 418.27 24.66 394.79 21.00 384.00
C 102.67 384.00 184.33 384.00 266.00 384.00
C 266.00 380.33 266.00 376.67 266.00 373.00
C 266.00 369.67 266.00 366.33 266.00 363.00
C 261.49 359.84 251.75 364.41 246.00 363.00 C 240.25 361.59 232.37 363.61 226.00 363.00 C 219.63 362.39 211.62 363.29 205.00 363.00 C 198.38 362.71 191.74 363.12 185.00 363.00 C 178.26 362.88 170.77 363.06 164.00 363.00 C 157.23 362.94 150.76 363.03 144.00 363.00 C 137.24 362.97 130.81 363.01 124.00 363.00 C 117.19 362.99 109.83 363.01 103.00 363.00 C 96.17 362.99 89.84 363.00 83.00 363.00 C 76.16 363.00 68.85 363.00 62.00 363.00 C 55.15 363.00 48.87 363.00 42.00 363.00 C 35.13 363.00 27.90 363.00 21.00 363.00
C 20.98 348.02 21.02 332.97 21.00 318.00 C 20.98 303.03 21.04 286.83 21.00 272.00 C 20.96 257.17 21.09 241.44 21.00 227.00 C 20.91 212.56 21.20 194.61 21.00 181.00 C 20.80 167.39 18.01 149.79 34.01 149.01 C 50.01 148.23 64.42 149.36 80.00 149.00 C 95.58 148.64 109.60 149.19 125.00 149.00 C 140.40 148.81 155.62 149.14 171.00 149.00
C 171.00 145.33 171.00 141.67 171.00 138.00
C 171.00 134.67 171.00 131.33 171.00 128.00
C 140.69 128.31 102.53 127.59 73.00 128.00 C 43.47 128.41 11.01 120.37 0.00 152.00
M 256.00 448.00 
C 256.00 462.33 256.00 476.67 256.00 491.00
C 220.33 491.00 184.67 491.00 149.00 491.00
C 149.00 476.67 149.00 462.33 149.00 448.00
C 184.67 448.00 220.33 448.00 256.00 448.00 Z"/>
</g>
<g fill="#26C3B0" fill-opacity="1.00" stroke="None">
<path d="
M 266.00 363.00 
C 267.90 364.33 267.21 370.70 267.00 373.00
C 275.76 374.92 286.43 370.44 295.00 373.00
C 287.49 363.20 286.79 350.35 290.93 338.93 C 295.07 327.50 310.70 326.11 309.00 313.00 C 307.30 299.89 309.80 287.93 317.75 277.75 C 325.71 267.57 338.97 266.61 351.00 267.00 C 363.03 267.39 381.73 270.87 384.00 256.00
C 387.33 256.00 390.67 256.00 394.00 256.00
C 393.40 249.38 393.40 241.62 394.00 235.00
C 386.74 235.00 378.47 235.60 372.00 234.00
C 354.03 232.33 372.40 203.76 353.00 204.00
C 346.38 215.17 333.20 222.62 323.75 212.25 C 314.30 201.88 309.27 197.44 299.25 187.75 C 289.23 178.06 297.34 165.68 308.00 159.00
C 306.09 139.51 279.82 158.22 277.00 138.00
C 270.00 138.00 263.00 138.00 256.00 138.00
C 256.00 141.67 256.00 145.33 256.00 149.00
C 232.64 147.24 206.06 155.37 188.00 138.00
C 182.62 136.77 176.45 138.92 171.00 138.00
C 171.00 141.67 171.00 145.33 171.00 149.00
C 155.62 149.14 140.40 148.81 125.00 149.00 C 109.60 149.19 95.58 148.64 80.00 149.00 C 64.42 149.36 50.01 148.23 34.01 149.01 C 18.01 149.79 20.80 167.39 21.00 181.00 C 21.20 194.61 20.91 212.56 21.00 227.00 C 21.09 241.44 20.96 257.17 21.00 272.00 C 21.04 286.83 20.98 303.03 21.00 318.00 C 21.02 332.97 20.98 348.02 21.00 363.00
C 27.90 363.00 35.13 363.00 42.00 363.00 C 48.87 363.00 55.15 363.00 62.00 363.00 C 68.85 363.00 76.16 363.00 83.00 363.00 C 89.84 363.00 96.17 362.99 103.00 363.00 C 109.83 363.01 117.19 362.99 124.00 363.00 C 130.81 363.01 137.24 362.97 144.00 363.00 C 150.76 363.03 157.23 362.94 164.00 363.00 C 170.77 363.06 178.26 362.88 185.00 363.00 C 191.74 363.12 198.38 362.71 205.00 363.00 C 211.62 363.29 219.63 362.39 226.00 363.00 C 232.37 363.61 240.25 361.59 246.00 363.00 C 251.75 364.41 261.49 359.84 266.00 363.00
M 136.00 213.00 
C 153.36 212.50 171.74 213.66 189.00 213.00 C 206.26 212.34 226.21 214.25 243.00 213.00 C 259.79 211.75 278.45 218.73 290.00 206.00
C 296.36 208.67 300.16 216.22 306.00 220.00
C 287.49 244.72 257.47 233.08 229.00 235.00 C 200.53 236.92 165.10 233.56 136.00 235.00
C 124.79 268.05 75.05 258.31 75.00 224.00 C 74.95 189.69 124.85 179.94 136.00 213.00 Z"/>
</g>
<g fill="#000000" fill-opacity="0.00" stroke="None">
<path d="
M 395.00 235.00 
C 395.59 241.63 395.60 249.37 395.00 256.00
C 398.67 256.00 402.33 256.00 406.00 256.00
C 405.09 264.77 402.42 274.37 395.00 280.00
C 395.82 289.15 395.83 299.85 395.00 309.00
C 398.67 309.00 402.33 309.00 406.00 309.00
C 408.19 337.65 403.09 369.69 406.00 398.00 C 408.91 426.31 397.51 450.20 367.00 448.00 C 336.49 445.80 308.30 449.65 278.00 448.00
C 278.00 462.00 278.00 476.00 278.00 490.00
C 285.00 490.00 292.00 490.00 299.00 490.00
C 299.00 497.33 299.00 504.67 299.00 512.00
L 512.00 512.00
L 512.00 143.00
C 506.79 152.66 494.41 149.52 485.00 150.00
C 484.68 153.24 482.57 155.88 482.00 159.00
C 495.24 166.11 500.45 181.67 487.75 190.75 C 475.06 199.83 473.79 208.00 461.08 217.08 C 448.36 226.15 439.45 197.50 427.00 208.00
C 425.94 214.80 430.23 229.61 422.23 233.23 C 414.23 236.85 403.72 235.84 395.00 235.00 Z"/>
</g>
<g fill="#3D444B" fill-opacity="1.00" stroke="None">
<path d="
M 136.00 213.00 
C 124.85 179.94 74.95 189.69 75.00 224.00 C 75.05 258.31 124.79 268.05 136.00 235.00
C 165.10 233.56 200.53 236.92 229.00 235.00 C 257.47 233.08 287.49 244.72 306.00 220.00
C 300.16 216.22 296.36 208.67 290.00 206.00
C 278.45 218.73 259.79 211.75 243.00 213.00 C 226.21 214.25 206.26 212.34 189.00 213.00 C 171.74 213.66 153.36 212.50 136.00 213.00
M 108.00 213.00 
C 121.21 214.41 118.88 236.50 105.32 234.66 C 91.76 232.83 94.51 211.56 108.00 213.00 Z"/>
</g>
<g fill="#F8F8F9" fill-opacity="1.00" stroke="None">
<path d="
M 108.00 213.00 
C 94.51 211.56 91.76 232.83 105.32 234.66 C 118.88 236.50 121.21 214.41 108.00 213.00 Z"/>
</g>
<g fill="#356E6C" fill-opacity="1.00" stroke="None">
<path d="
M 394.00 235.00 
C 394.50 235.00 395.00 235.00 395.00 235.00
C 388.23 234.35 379.38 234.91 372.00 234.00
C 378.47 235.60 386.74 235.00 394.00 235.00 Z"/>
</g>
<g fill="#26C4B2" fill-opacity="0.66" stroke="None">
<path d="
M 394.00 256.00 
C 394.50 256.00 395.00 256.00 395.00 256.00
C 395.60 249.37 395.59 241.63 395.00 235.00
C 395.00 235.00 394.50 235.00 394.00 235.00
C 393.40 241.62 393.40 249.38 394.00 256.00 Z"/>
</g>
<g fill="#3D4349" fill-opacity="1.00" stroke="None">
<path d="
M 295.00 373.00 
C 306.20 387.62 333.82 387.59 345.00 373.00
C 351.07 365.08 352.10 354.50 351.01 344.99 C 349.92 335.49 341.24 329.31 334.92 324.08 C 328.60 318.85 327.84 300.57 332.75 292.75 C 337.67 284.94 355.52 287.83 365.00 288.00 C 374.48 288.17 385.96 286.14 394.00 280.00
C 394.32 279.76 395.00 280.00 395.00 280.00
C 402.42 274.37 405.09 264.77 406.00 256.00
C 402.33 256.00 398.67 256.00 395.00 256.00
C 395.00 256.00 394.50 256.00 394.00 256.00
C 390.67 256.00 387.33 256.00 384.00 256.00
C 381.73 270.87 363.03 267.39 351.00 267.00 C 338.97 266.61 325.71 267.57 317.75 277.75 C 309.80 287.93 307.30 299.89 309.00 313.00 C 310.70 326.11 295.07 327.50 290.93 338.93 C 286.79 350.35 287.49 363.20 295.00 373.00
M 321.00 341.00 
C 334.01 342.03 333.04 363.60 319.31 362.65 C 305.57 361.69 307.22 339.90 321.00 341.00 Z"/>
</g>
<g fill="#26C3B0" fill-opacity="1.00" stroke="None">
<path d="
M 345.00 373.00 
C 356.93 369.43 371.80 375.68 384.00 373.00
C 384.00 366.43 383.47 358.43 384.00 352.00 C 384.53 345.57 382.58 336.90 384.00 331.00 C 385.42 325.10 380.75 314.65 384.00 310.00
C 385.43 307.95 391.57 309.00 394.00 309.00
C 393.18 299.85 393.17 289.15 394.00 280.00
C 385.96 286.14 374.48 288.17 365.00 288.00 C 355.52 287.83 337.67 284.94 332.75 292.75 C 327.84 300.57 328.60 318.85 334.92 324.08 C 341.24 329.31 349.92 335.49 351.01 344.99 C 352.10 354.50 351.07 365.08 345.00 373.00 Z"/>
</g>
<g fill="#26C3B1" fill-opacity="0.66" stroke="None">
<path d="
M 394.00 309.00 
C 394.50 309.00 395.00 309.00 395.00 309.00
C 395.83 299.85 395.82 289.15 395.00 280.00
C 395.00 280.00 394.32 279.76 394.00 280.00
C 393.17 289.15 393.18 299.85 394.00 309.00 Z"/>
</g>
<g fill="#356C6B" fill-opacity="0.99" stroke="None">
<path d="
M 384.00 310.00 
C 387.65 310.86 392.06 309.28 395.00 309.00
C 395.00 309.00 394.50 309.00 394.00 309.00
C 391.57 309.00 385.43 307.95 384.00 310.00 Z"/>
</g>
<g fill="#F9F9F9" fill-opacity="1.00" stroke="None">
<path d="
M 321.00 341.00 
C 307.22 339.90 305.57 361.69 319.31 362.65 C 333.04 363.60 334.01 342.03 321.00 341.00 Z"/>
</g>
<g fill="#356E6C" fill-opacity="1.00" stroke="None">
<path d="
M 266.00 373.00 
C 266.00 372.96 267.00 373.00 267.00 373.00
C 267.21 370.70 267.90 364.33 266.00 363.00
C 266.00 366.33 266.00 369.67 266.00 373.00 Z"/>
</g>
<g fill="#6B727A" fill-opacity="0.99" stroke="None">
<path d="
M 266.00 384.00 
C 267.99 382.61 267.22 375.42 267.00 373.00
C 267.00 373.00 266.00 372.96 266.00 373.00
C 266.00 376.67 266.00 380.33 266.00 384.00 Z"/>
</g>
<g fill="#C9D1D9" fill-opacity="1.00" stroke="None">
<path d="
M 266.00 384.00 
C 184.33 384.00 102.67 384.00 21.00 384.00
C 24.66 394.79 14.01 418.27 26.26 424.74 C 38.50 431.22 55.71 425.56 70.00 427.00 C 84.29 428.44 101.18 426.37 116.00 427.00 C 130.82 427.63 147.00 426.75 162.00 427.00 C 177.00 427.25 193.03 426.97 208.00 427.00 C 222.97 427.03 239.31 427.17 254.00 427.00 C 268.69 426.83 286.02 427.47 300.00 427.00 C 313.98 426.53 333.64 428.10 346.00 427.00 C 358.36 425.90 380.28 432.57 383.67 418.67 C 387.06 404.77 384.00 387.32 384.00 373.00
C 371.80 375.68 356.93 369.43 345.00 373.00
C 333.82 387.59 306.20 387.62 295.00 373.00
C 286.43 370.44 275.76 374.92 267.00 373.00
C 267.22 375.42 267.99 382.61 266.00 384.00 Z"/>
</g>
<g fill="#000000" fill-opacity="0.00" stroke="None">
<path d="
M 0.00 512.00 
L 106.00 512.00
C 106.00 504.67 106.00 497.33 106.00 490.00
C 113.33 490.00 120.67 490.00 128.00 490.00
C 128.00 476.00 128.00 462.00 128.00 448.00
C 104.21 449.02 75.27 446.63 52.00 448.00 C 28.73 449.37 7.28 447.83 0.00 424.00
L 0.00 512.00 Z"/>
</g>
<g fill="#6B8098" fill-opacity="1.00" stroke="None">
<path d="
M 256.00 448.00 
C 220.33 448.00 184.67 448.00 149.00 448.00
C 149.00 462.33 149.00 476.67 149.00 491.00
C 184.67 491.00 220.33 491.00 256.00 491.00
C 256.00 476.67 256.00 462.33 256.00 448.00 Z"/>
</g>
</svg>