<?xml version="1.0" encoding="UTF-8"?>
<svg version="1.1" xmlns="http://www.w3.org/2000/svg" width="512" height="512">
<path d="M0 0 C3.13027503 1.59259607 5.11471008 2.81007096 7.20043945 5.61352539 C10.04810212 7.80751214 12.69327621 7.36914464 16.23046875 7.37109375 C17.68815322 7.38849038 19.14583546 7.40607459 20.60351562 7.42382812 C22.88977448 7.4338545 25.17587839 7.43750873 27.4621582 7.43579102 C29.67705481 7.43939482 31.89078286 7.46687238 34.10546875 7.49609375 C34.77660202 7.48791122 35.44773529 7.4797287 36.13920593 7.47129822 C45.94614272 7.62261804 51.71978231 13.13814274 58.21875 19.828125 C58.96209595 20.57713074 59.70544189 21.32613647 60.47131348 22.09783936 C62.82383676 24.47260301 65.1620009 26.86094447 67.5 29.25 C69.1006312 30.87071196 70.70218477 32.49051352 72.3046875 34.109375 C76.21385673 38.06244775 80.11135776 42.02673863 84 46 C86.58568017 44.79950564 88.16893635 43.83575632 90.25 41.8125 C93.31863698 39.78998927 94.8546981 39.66870138 98.4296875 40.30078125 C101.17285555 41.04702301 103.83321276 41.96819924 106.51074219 42.92089844 C115.13629577 46.14182858 115.13629577 46.14182858 124 45 C124.98355469 44.7628125 125.96710938 44.525625 126.98046875 44.28125 C135.82870804 41.37678693 138.92788084 36.85608931 143.125 28.8125 C144.39879593 26.24776571 145.65443304 23.68068298 146.85595703 21.08129883 C148.8723944 17.41289751 148.8723944 17.41289751 151 16 C153.88199075 15.66503754 156.54367271 15.50813682 159.4296875 15.49609375 C160.67070724 15.48111595 160.67070724 15.48111595 161.9367981 15.46583557 C163.68681844 15.45065197 165.43692557 15.44360986 167.18701172 15.4440918 C169.85921153 15.43753872 172.52767817 15.3830918 175.19921875 15.32617188 C176.90102898 15.31736765 178.60285683 15.31141487 180.3046875 15.30859375 C181.10067352 15.2870372 181.89665955 15.26548065 182.71676636 15.24327087 C188.12000797 15.3097015 188.12000797 15.3097015 190.57717896 17.23719788 C192.89364859 19.919405 194.6669043 22.88609126 196.0703125 26.12890625 C200.35987363 36.0928184 200.35987363 36.0928184 208.75 42.4375 C210.48593279 43.0034547 212.23645658 43.52704972 214 44 C214.86367188 44.36351562 215.72734375 44.72703125 216.6171875 45.1015625 C223.14795793 47.56398414 230.31054762 44.02415245 236.45654297 41.64038086 C241.01657601 39.97451423 244.29802928 39.81880104 249 41 C251.9375 43.5625 251.9375 43.5625 254 46 C257.0201653 44.65054691 259.07260713 43.15920865 261.37231445 40.79125977 C262.0101033 40.14040909 262.64789215 39.48955841 263.30500793 38.81898499 C263.98423813 38.116884 264.66346832 37.41478302 265.36328125 36.69140625 C266.82198446 35.20740587 268.28097797 33.72369079 269.74023438 32.24023438 C272.02835138 29.90254109 274.31316986 27.56181049 276.5925293 25.21557617 C278.79888213 22.94860531 281.01767708 20.69440694 283.23828125 18.44140625 C284.2480175 17.39129112 284.2480175 17.39129112 285.27815247 16.31996155 C290.36570419 11.1792937 294.29242318 8.33667567 301.71289062 7.6628418 C303.01419922 7.67484619 304.31550781 7.68685059 305.65625 7.69921875 C307.10547333 7.69157983 308.55469239 7.68309048 310.00390625 7.67382812 C312.25538778 7.67603787 314.50600431 7.68757338 316.75732422 7.71508789 C326.74099738 8.17878254 326.74099738 8.17878254 335.40625 4.01953125 C336.2621875 3.02308594 337.118125 2.02664062 338 1 C342.18611152 -1.09305576 347.44132948 -0.42364608 352 0 C356.8846525 2.26787438 359.73212562 5.1153475 362 10 C362.75381535 15.5997712 362.77303575 20.33499991 360.375 25.5 C355.80134327 30.3143755 352.6912538 32.25156236 346 32.5 C340.89459489 32.32918719 337.89451846 31.49508067 334 28 C333.57219238 27.48985352 333.14438477 26.97970703 332.70361328 26.45410156 C327.21574506 21.76998819 316.626003 22.23913518 309.765625 22.703125 C292.28415362 24.7738027 278.57867923 45.4488189 268 58 C269.20049436 60.58568017 270.16424368 62.16893635 272.1875 64.25 C274.24193279 67.36707044 274.28607133 68.9828969 273.62890625 72.61157227 C272.8558578 75.54741583 271.9110336 78.40188663 270.9375 81.27734375 C270.57527344 82.35105225 270.21304687 83.42476074 269.83984375 84.53100586 C269.42412109 85.75315796 269.42412109 85.75315796 269 87 C279.04886253 87.13922771 289.09749436 87.24573619 299.1471262 87.31087303 C303.8140077 87.34214121 308.4802277 87.38453053 313.14672852 87.45263672 C317.65310573 87.51799182 322.15884808 87.55373999 326.66566277 87.56926346 C328.38207935 87.580321 330.09846248 87.60191465 331.81460762 87.63438034 C342.31975935 88.25035564 342.31975935 88.25035564 351.48413086 84.02587891 C352.31436768 83.02733887 353.14460449 82.02879883 354 81 C358.18611152 78.90694424 363.44132948 79.57635392 368 80 C372.8846525 82.26787438 375.73212562 85.1153475 378 90 C378.75381535 95.5997712 378.77303575 100.33499991 376.375 105.5 C371.80134327 110.3143755 368.6912538 112.25156236 362 112.5 C356.89459489 112.32918719 353.89451846 111.49508067 350 108 C349.60374924 107.4669072 349.20749847 106.93381439 348.79924011 106.38456726 C346.0282345 104.25219837 343.12687055 104.6070627 339.7746582 104.65942383 C339.04270233 104.65898575 338.31074646 104.65854767 337.55661011 104.65809631 C335.13772895 104.66018602 332.71954129 104.68352485 330.30078125 104.70703125 C328.62355427 104.71262658 326.94632238 104.71689697 325.26908875 104.71989441 C320.85487325 104.73134822 316.44095395 104.76081989 312.02685547 104.79400635 C307.5225017 104.82469575 303.01810006 104.83839732 298.51367188 104.85351562 C289.67565113 104.88568917 280.83785019 104.93689192 272 105 C274.05259489 109.35055991 275.22758483 111.6718589 279.5625 113.88671875 C280.44164062 114.35013672 281.32078125 114.81355469 282.2265625 115.29101562 C283.14179688 115.75185547 284.05703125 116.21269531 285 116.6875 C286.81486934 117.62433044 288.62747224 118.56556787 290.4375 119.51171875 C291.24058594 119.91865967 292.04367187 120.32560059 292.87109375 120.74487305 C295.03424268 122.02018826 296.41656201 123.05720824 298 125 C298.34057617 127.0847168 298.34057617 127.0847168 298.29296875 129.44921875 C298.28330078 130.29677734 298.27363281 131.14433594 298.26367188 132.01757812 C298.23853516 132.89865234 298.21339844 133.77972656 298.1875 134.6875 C298.17396484 135.58017578 298.16042969 136.47285156 298.14648438 137.39257812 C298.11114079 139.59566166 298.06180493 141.79752582 298 144 C298.95942505 143.99111755 299.9188501 143.98223511 300.90734863 143.9730835 C309.96993447 143.89183009 319.03244594 143.83195441 328.09531403 143.79275131 C332.75412738 143.77191863 337.41264556 143.74368039 342.07128906 143.69824219 C346.57115054 143.6546297 351.07072893 143.63083043 355.57078552 143.62049103 C357.28352817 143.61312721 358.99625615 143.59874745 360.70887756 143.57707977 C378.76816331 143.357783 378.76816331 143.357783 386.4609375 150.18359375 C387.09257812 150.92738281 387.72421875 151.67117187 388.375 152.4375 C389.02210938 153.17871094 389.66921875 153.91992188 390.3359375 154.68359375 C393.20438768 158.67653027 394.25038049 162.19067371 394.24609566 167.08180714 C394.25007775 168.08801351 394.25405985 169.09421989 394.25816262 170.13091737 C394.25233693 171.22916438 394.24651125 172.32741138 394.24050903 173.4589386 C394.24307231 175.21719075 394.24307231 175.21719075 394.24568737 177.01096314 C394.24841157 180.26057599 394.24216281 183.5100292 394.23213124 186.75962317 C394.22349325 190.26536211 394.22641715 193.77109362 394.22793579 197.27684021 C394.22898442 203.34947281 394.22271012 209.42206243 394.21146011 215.49468422 C394.1952051 224.27466639 394.18999711 233.05462777 394.18748413 241.83462336 C394.18310703 256.07962071 394.16979751 270.32459516 394.15087891 284.56958008 C394.1325205 298.40714402 394.1183638 312.24470173 394.10986328 326.08227539 C394.10933783 326.93524251 394.10881239 327.78820963 394.10827102 328.66702423 C394.10566094 332.9461154 394.10313352 337.22520661 394.10064721 341.50429785 C394.07991424 377.00288156 394.0446883 412.50143867 394 448 C394.82725586 447.97905273 395.65451172 447.95810547 396.50683594 447.93652344 C400.2544337 447.85338381 404.00183749 447.80134469 407.75 447.75 C409.05195313 447.71648437 410.35390625 447.68296875 411.6953125 447.6484375 C412.94570313 447.63554687 414.19609375 447.62265625 415.484375 447.609375 C416.63647461 447.58842773 417.78857422 447.56748047 418.97558594 447.54589844 C422.6428052 448.09651418 423.78756206 449.07952542 426 452 C426.51757812 454.71386719 426.51757812 454.71386719 426.53125 457.796875 C426.53640625 458.9209375 426.5415625 460.045 426.546875 461.203125 C426.53140625 462.37359375 426.5159375 463.5440625 426.5 464.75 C426.51546875 465.905 426.5309375 467.06 426.546875 468.25 C426.50883223 476.58136669 425.38606597 482.18386125 419.81640625 488.4609375 C418.70072266 489.40839844 418.70072266 489.40839844 417.5625 490.375 C416.82128906 491.02210938 416.08007812 491.66921875 415.31640625 492.3359375 C410.38334016 495.87975901 405.91661285 496.28991998 399.97323895 496.25726891 C399.16620062 496.26077498 398.3591623 496.26428105 397.52766827 496.26789337 C394.81229723 496.2772276 392.09713972 496.27227884 389.38175964 496.26742554 C387.41973915 496.27116078 385.45772015 496.27576179 383.49570352 496.28115618 C378.09527905 496.29341719 372.69491638 496.29312207 367.29448116 496.29076743 C361.47362932 496.29036005 355.65279751 496.30139088 349.83195496 496.31088257 C338.42453716 496.32751045 327.01714003 496.33299292 315.60971113 496.33410732 C306.33929999 496.33505694 297.06889569 496.33916287 287.79848671 496.34550858 C285.13073566 496.34729758 282.46298461 496.34908327 279.79523355 496.35085833 C279.1320363 496.35130043 278.46883905 496.35174252 277.78554491 496.35219802 C259.12895078 496.3645078 240.47235898 496.372399 221.81576061 496.37151146 C221.11225096 496.3714803 220.4087413 496.37144914 219.68391317 496.37141704 C216.11817354 496.37125083 212.55243392 496.37105274 208.9866943 496.37084763 C207.92442729 496.37078779 207.92442729 496.37078779 206.84070035 496.37072675 C205.40859156 496.37064587 203.97648276 496.37056228 202.54437397 496.37047596 C180.26222257 496.36925041 157.98013203 496.38426393 135.69799805 496.41162109 C110.6683397 496.44233885 85.63872134 496.45955378 60.60904294 496.45769465 C47.35475935 496.45695332 34.1005415 496.46255348 20.84627342 496.48405075 C9.5620266 496.50223521 -1.72212048 496.50663237 -13.00637559 496.4930319 C-18.76530404 496.48648851 -24.52404096 496.4864346 -30.28295135 496.5037384 C-35.55390936 496.51941337 -40.82452309 496.51666252 -46.09547242 496.49917014 C-48.00326038 496.49608794 -49.91107369 496.49977828 -51.81883178 496.51089029 C-54.41154366 496.52499283 -57.00304484 496.51444011 -59.59571552 496.49777794 C-60.70755015 496.51268248 -60.70755015 496.51268248 -61.84184608 496.52788812 C-68.42277527 496.43843294 -73.54554296 494.17784362 -78.4609375 489.81640625 C-79.40839844 488.70072266 -79.40839844 488.70072266 -80.375 487.5625 C-81.02210937 486.82128906 -81.66921875 486.08007812 -82.3359375 485.31640625 C-86.89806271 478.96584229 -86.3667752 472.46730569 -86.375 464.9375 C-86.39949219 463.75349609 -86.42398438 462.56949219 -86.44921875 461.34960938 C-86.45308594 460.21201172 -86.45695312 459.07441406 -86.4609375 457.90234375 C-86.46915527 456.86585693 -86.47737305 455.82937012 -86.48583984 454.76147461 C-85.85865491 451.19660588 -84.83762506 450.21080449 -82 448 C-78.97558594 447.54589844 -78.97558594 447.54589844 -75.484375 447.609375 C-74.23398438 447.62226563 -72.98359375 447.63515625 -71.6953125 447.6484375 C-69.74238281 447.69871094 -69.74238281 447.69871094 -67.75 447.75 C-66.43257812 447.76804687 -65.11515625 447.78609375 -63.7578125 447.8046875 C-60.50447692 447.85183729 -57.25260375 447.91763956 -54 448 C-54.00151888 447.39787044 -54.00303776 446.79574088 -54.00460267 446.17536497 C-54.09412287 410.48506429 -54.16275021 374.79478294 -54.20426132 339.10439333 C-54.20926412 334.8186188 -54.21444141 330.5328445 -54.21972656 326.24707031 C-54.2207758 325.39385297 -54.22182505 324.54063563 -54.22290608 323.66156322 C-54.24030939 309.84796533 -54.27184667 296.03443406 -54.30861118 282.22087568 C-54.34602267 268.04596565 -54.36823629 253.87109051 -54.37635398 239.69613314 C-54.38184133 230.95001856 -54.39917007 222.20409227 -54.43166587 213.45803565 C-54.45281632 207.45981977 -54.45919885 201.46170118 -54.45400551 195.46345073 C-54.45144453 192.0031752 -54.45535898 188.54322861 -54.4768219 185.08301163 C-54.49671119 181.32831236 -54.49194184 177.57441993 -54.48101807 173.81970215 C-54.49266943 172.73019367 -54.5043208 171.64068519 -54.51632524 170.5181613 C-54.45549276 162.78688472 -52.99199756 157.37201872 -47.81640625 151.5390625 C-47.07261719 150.90742188 -46.32882813 150.27578125 -45.5625 149.625 C-44.82128906 148.97789062 -44.08007812 148.33078125 -43.31640625 147.6640625 C-38.46905501 144.18181692 -34.11724494 143.71386841 -28.2722168 143.77294922 C-27.51070816 143.77265717 -26.74919952 143.77236511 -25.96461487 143.77206421 C-23.45936502 143.77345232 -20.95441634 143.78898888 -18.44921875 143.8046875 C-16.70758731 143.80841948 -14.96595376 143.81126558 -13.22431946 143.81326294 C-8.64910038 143.82088484 -4.07400907 143.84052092 0.50115967 143.8626709 C5.17328157 143.88316044 9.8454242 143.8922713 14.51757812 143.90234375 C23.67844143 143.92376818 32.83921007 143.95788669 42 144 C41.93039063 142.68644531 41.86078125 141.37289062 41.7890625 140.01953125 C41.73277193 138.28390542 41.67817317 136.54822414 41.625 134.8125 C41.57472656 133.94818359 41.52445312 133.08386719 41.47265625 132.19335938 C41.32754011 125.88080715 41.32754011 125.88080715 43.28516865 123.31664944 C45.98609976 121.04143494 49.01263167 119.25970736 52.19921875 117.75390625 C52.93333984 117.39103516 53.66746094 117.02816406 54.42382812 116.65429688 C55.9409412 115.92257452 57.46185276 115.1986792 58.98632812 114.48242188 C59.71658203 114.11826172 60.44683594 113.75410156 61.19921875 113.37890625 C61.85752686 113.0651001 62.51583496 112.75129395 63.1940918 112.42797852 C65.73812929 110.416342 66.62120261 107.89326466 68 105 C58.3422556 104.86074888 48.68485873 104.75425266 39.02632809 104.68912697 C34.54103478 104.6578636 30.05643017 104.61548364 25.5715332 104.54736328 C21.24021741 104.48199017 16.90956242 104.4462564 12.57779121 104.43073654 C10.92835657 104.41968215 9.27895658 104.39809459 7.62980461 104.36561966 C-2.56516416 103.79323975 -2.56516416 103.79323975 -11.44311523 107.97412109 C-12.28688721 108.97266113 -13.13065918 109.97120117 -14 111 C-18.18611152 113.09305576 -23.44132948 112.42364608 -28 112 C-32.8846525 109.73212562 -35.73212562 106.8846525 -38 102 C-38.75381535 96.4002288 -38.77303575 91.66500009 -36.375 86.5 C-31.80134327 81.6856245 -28.6912538 79.74843764 -22 79.5 C-16.89459489 79.67081281 -13.89451846 80.50491933 -10 84 C-9.60942917 84.5330928 -9.21885834 85.06618561 -8.81645203 85.61543274 C-5.97296294 87.78284582 -2.92921675 87.39206002 0.50073242 87.34057617 C1.6425573 87.34123329 1.6425573 87.34123329 2.80744934 87.34190369 C5.32371666 87.33981353 7.83931782 87.31647235 10.35546875 87.29296875 C12.09995662 87.28737359 13.84444921 87.28310311 15.58894348 87.28010559 C20.18070487 87.26865049 24.77218164 87.23917765 29.36383057 87.20599365 C34.04915517 87.17530707 38.73452575 87.16160328 43.41992188 87.14648438 C52.61340631 87.11430854 61.80667949 87.06310418 71 87 C70.62746094 85.99839844 70.25492188 84.99679688 69.87109375 83.96484375 C69.39242128 82.62268369 68.91460191 81.28021916 68.4375 79.9375 C68.19064453 79.28072266 67.94378906 78.62394531 67.68945312 77.94726562 C66.06250808 73.29557768 65.74997607 69.90394005 67 65 C69.5625 62.0625 69.5625 62.0625 72 60 C66.05319855 47.26626245 49.80291247 29.59102397 36.84155273 24.08270264 C27.98072139 21.46477585 17.67505024 22.01868616 9 25 C6.26974525 26.72192203 4.20047188 28.66435873 2 31 C-2.18611152 33.09305576 -7.44132948 32.42364608 -12 32 C-16.8846525 29.73212562 -19.73212562 26.8846525 -22 22 C-22.75381535 16.4002288 -22.77303575 11.66500009 -20.375 6.5 C-14.15320043 -0.0492627 -8.85861567 -1.22732535 0 0 Z M133.59375 113.0625 C125.67337996 122.69118515 123 131.64561413 123 144 C154.02 144 185.04 144 217 144 C217 129.19337206 212.15297693 119.55202041 202.3125 108.75 C192.86798193 99.6552789 180.99857616 96.57945505 168.32446289 96.63647461 C154.28348538 96.93928492 143.1929118 102.91998942 133.59375 113.0625 Z " fill="#B1CAEC" transform="translate(86,8)"/>
<path d="M0 0 C0.64275597 -0.00406073 1.28551193 -0.00812145 1.94774535 -0.01230523 C4.11640469 -0.02230567 6.28442511 -0.01079341 8.45307064 0.00050831 C10.01753651 -0.00223041 11.58200055 -0.00628087 13.14646 -0.01153535 C17.4570889 -0.02215858 21.76751154 -0.01396979 26.07813156 -0.00278485 C30.72234159 0.00603247 35.3665239 -0.00237916 40.0107336 -0.00864697 C49.11302861 -0.01815123 58.21524453 -0.01152103 67.31753368 0.00061598 C77.90815146 0.01421338 88.49875024 0.01260014 99.08937453 0.01048265 C117.97966073 0.00729042 136.86990926 0.01897416 155.76018429 0.03854847 C174.10850325 0.05755632 192.45677806 0.0646356 210.80510616 0.05905628 C230.76601236 0.0530046 250.72689911 0.05316413 270.68780369 0.06454211 C272.81438251 0.06574946 274.94096134 0.06695544 277.06754017 0.06816006 C278.11397157 0.0687636 279.16040298 0.06936713 280.23854442 0.06998896 C287.62851204 0.07387541 295.01847244 0.07347169 302.40844059 0.07157421 C311.40809276 0.06945664 320.40770616 0.07464301 329.40734739 0.08918776 C334.00296296 0.09645355 338.59852195 0.10049026 343.19414234 0.0959444 C347.39524908 0.09188973 351.59623862 0.09697097 355.79732751 0.10957048 C357.3228326 0.11251603 358.84834862 0.11204003 360.37385101 0.1079274 C362.43629678 0.10286908 364.49834301 0.10994254 366.5607605 0.12025452 C368.28415007 0.12155468 368.28415007 0.12155468 370.0423556 0.12288111 C372.71745968 0.37473011 372.71745968 0.37473011 374.71745968 2.37473011 C374.9178141 5.45142812 374.99098912 8.43845701 374.97815609 11.51656055 C374.98198164 12.47578751 374.98580718 13.43501447 374.98974866 14.42330891 C375.00011926 17.65774038 374.99607883 20.89199567 374.99211788 24.12643909 C374.99646211 26.43710972 375.00164428 28.74777891 375.00760555 31.05844593 C375.02103787 37.34966674 375.02156953 43.64082764 375.01904225 49.93206 C375.01797541 55.17592515 375.02284853 60.41977803 375.02764767 65.66364056 C375.03939349 78.73827586 375.03850942 91.81287689 375.03209087 104.88751442 C375.02692106 116.25031504 375.03817708 127.61302995 375.05718908 138.97581362 C375.07654668 150.63423874 375.08453537 162.29261959 375.08106583 173.95106083 C375.07924834 180.49994716 375.08193542 187.04875499 375.09578037 193.59762859 C375.10830834 199.75436225 375.10646246 205.91092375 375.09336948 212.06765461 C375.09099315 214.33203977 375.09377589 216.59643687 375.10199261 218.86080837 C375.1123726 221.94271391 375.10443005 225.02403233 375.09168148 228.10591602 C375.09905577 229.01018611 375.10643005 229.91445619 375.1140278 230.8461284 C375.10682126 231.66946611 375.09961471 232.49280382 375.09218979 233.34109116 C375.0922448 234.05274207 375.09229982 234.76439299 375.0923565 235.49760908 C374.57717273 238.0771516 373.8954083 238.89344976 371.71745968 240.37473011 C368.91700643 240.74962693 368.91700643 240.74962693 365.43491936 240.74946022 C364.79216339 240.75352095 364.14940742 240.75758167 363.487174 240.76176545 C361.31851466 240.77176589 359.15049424 240.76025363 356.98184872 240.74895191 C355.41738284 240.75169063 353.85291881 240.75574109 352.28845936 240.76099557 C347.97783046 240.7716188 343.66740782 240.76343001 339.3567878 240.75224507 C334.71257777 240.74342775 330.06839546 240.75183938 325.42418575 240.75810719 C316.32189075 240.76761145 307.21967483 240.76098125 298.11738568 240.74884424 C287.5267679 240.73524684 276.93616911 240.73686008 266.34554482 240.73897757 C247.45525862 240.7421698 228.5650101 240.73048606 209.67473507 240.71091175 C191.32641611 240.6919039 172.9781413 240.68482462 154.62981319 240.69040394 C134.668907 240.69645562 114.70802025 240.69629609 94.74711567 240.68491811 C92.62053684 240.68371076 90.49395802 240.68250478 88.36737919 240.68130016 C87.32094778 240.68069662 86.27451638 240.68009309 85.19637493 240.67947126 C77.80640732 240.67558481 70.41644692 240.67598853 63.02647877 240.67788601 C54.0268266 240.68000358 45.02721319 240.67481721 36.02757197 240.66027246 C31.4319564 240.65300667 26.8363974 240.64896996 22.24077702 240.65351582 C18.03967028 240.65757049 13.83868073 240.65248925 9.63759185 240.63988974 C8.11208676 240.63694419 6.58657074 240.63742019 5.06106835 240.64153282 C2.99862258 240.64659114 0.93657634 240.63951768 -1.12584114 240.6292057 C-2.27476752 240.62833893 -3.42369391 240.62747215 -4.60743624 240.62657911 C-7.28254032 240.37473011 -7.28254032 240.37473011 -9.28254032 238.37473011 C-9.48289474 235.2980321 -9.55606976 232.31100321 -9.54323673 229.23289967 C-9.54706228 228.27367271 -9.55088783 227.31444575 -9.5548293 226.32615131 C-9.56519991 223.09171984 -9.56115947 219.85746455 -9.55719852 216.62302113 C-9.56154275 214.3123505 -9.56672492 212.00168131 -9.5726862 209.69101429 C-9.58611851 203.39979348 -9.58665018 197.10863258 -9.5841229 190.81740022 C-9.58305605 185.57353507 -9.58792917 180.32968219 -9.59272832 175.08581966 C-9.60447414 162.01118436 -9.60359006 148.93658333 -9.59717151 135.8619458 C-9.5920017 124.49914518 -9.60325773 113.13643027 -9.62226973 101.7736466 C-9.64162732 90.11522148 -9.64961601 78.45684063 -9.64614648 66.79839939 C-9.64432898 60.24951306 -9.64701606 53.70070523 -9.66086102 47.15183163 C-9.67338898 40.99509797 -9.67154311 34.83853647 -9.65845013 28.68180561 C-9.65607379 26.41742045 -9.65885654 24.15302335 -9.66707325 21.88865185 C-9.67745325 18.80674632 -9.66951069 15.72542789 -9.65676212 12.6435442 C-9.66413641 11.73927411 -9.67151069 10.83500403 -9.67910844 9.90333182 C-9.6719019 9.07999411 -9.66469535 8.2566564 -9.65727043 7.40836906 C-9.65732545 6.69671815 -9.65738046 5.98506724 -9.65743715 5.25185114 C-8.5916331 -0.08466564 -4.7419055 -0.00022703 0 0 Z " fill="#01BFF9" transform="translate(73.2825403213501,183.62526988983154)"/>
<path d="M0 0 C3.13027503 1.59259607 5.11471008 2.81007096 7.20043945 5.61352539 C10.04810212 7.80751214 12.69327621 7.36914464 16.23046875 7.37109375 C17.68815322 7.38849038 19.14583546 7.40607459 20.60351562 7.42382812 C22.88977448 7.4338545 25.17587839 7.43750873 27.4621582 7.43579102 C29.67705481 7.43939482 31.89078286 7.46687238 34.10546875 7.49609375 C34.77660202 7.48791122 35.44773529 7.4797287 36.13920593 7.47129822 C45.94614272 7.62261804 51.71978231 13.13814274 58.21875 19.828125 C58.96209595 20.57713074 59.70544189 21.32613647 60.47131348 22.09783936 C62.82383676 24.47260301 65.1620009 26.86094447 67.5 29.25 C69.1006312 30.87071196 70.70218477 32.49051352 72.3046875 34.109375 C76.21385673 38.06244775 80.11135776 42.02673863 84 46 C86.58568017 44.79950564 88.16893635 43.83575632 90.25 41.8125 C93.31863698 39.78998927 94.8546981 39.66870138 98.4296875 40.30078125 C101.17285555 41.04702301 103.83321276 41.96819924 106.51074219 42.92089844 C115.13629577 46.14182858 115.13629577 46.14182858 124 45 C124.98355469 44.7628125 125.96710938 44.525625 126.98046875 44.28125 C135.82870804 41.37678693 138.92788084 36.85608931 143.125 28.8125 C144.39879593 26.24776571 145.65443304 23.68068298 146.85595703 21.08129883 C148.8723944 17.41289751 148.8723944 17.41289751 151 16 C153.88199075 15.66503754 156.54367271 15.50813682 159.4296875 15.49609375 C160.67070724 15.48111595 160.67070724 15.48111595 161.9367981 15.46583557 C163.68681844 15.45065197 165.43692557 15.44360986 167.18701172 15.4440918 C169.85921153 15.43753872 172.52767817 15.3830918 175.19921875 15.32617188 C176.90102898 15.31736765 178.60285683 15.31141487 180.3046875 15.30859375 C181.10067352 15.2870372 181.89665955 15.26548065 182.71676636 15.24327087 C188.12000797 15.3097015 188.12000797 15.3097015 190.57717896 17.23719788 C192.89364859 19.919405 194.6669043 22.88609126 196.0703125 26.12890625 C200.35987363 36.0928184 200.35987363 36.0928184 208.75 42.4375 C210.48593279 43.0034547 212.23645658 43.52704972 214 44 C214.86367188 44.36351562 215.72734375 44.72703125 216.6171875 45.1015625 C223.14795793 47.56398414 230.31054762 44.02415245 236.45654297 41.64038086 C241.01657601 39.97451423 244.29802928 39.81880104 249 41 C251.9375 43.5625 251.9375 43.5625 254 46 C257.0201653 44.65054691 259.07260713 43.15920865 261.37231445 40.79125977 C262.0101033 40.14040909 262.64789215 39.48955841 263.30500793 38.81898499 C263.98423813 38.116884 264.66346832 37.41478302 265.36328125 36.69140625 C266.82198446 35.20740587 268.28097797 33.72369079 269.74023438 32.24023438 C272.02835138 29.90254109 274.31316986 27.56181049 276.5925293 25.21557617 C278.79888213 22.94860531 281.01767708 20.69440694 283.23828125 18.44140625 C284.2480175 17.39129112 284.2480175 17.39129112 285.27815247 16.31996155 C290.36570419 11.1792937 294.29242318 8.33667567 301.71289062 7.6628418 C303.01419922 7.67484619 304.31550781 7.68685059 305.65625 7.69921875 C307.10547333 7.69157983 308.55469239 7.68309048 310.00390625 7.67382812 C312.25538778 7.67603787 314.50600431 7.68757338 316.75732422 7.71508789 C326.74099738 8.17878254 326.74099738 8.17878254 335.40625 4.01953125 C336.2621875 3.02308594 337.118125 2.02664062 338 1 C342.18611152 -1.09305576 347.44132948 -0.42364608 352 0 C356.8846525 2.26787438 359.73212562 5.1153475 362 10 C362.75381535 15.5997712 362.77303575 20.33499991 360.375 25.5 C355.80134327 30.3143755 352.6912538 32.25156236 346 32.5 C340.89459489 32.32918719 337.89451846 31.49508067 334 28 C333.57219238 27.48985352 333.14438477 26.97970703 332.70361328 26.45410156 C327.21574506 21.76998819 316.626003 22.23913518 309.765625 22.703125 C292.28415362 24.7738027 278.57867923 45.4488189 268 58 C269.20049436 60.58568017 270.16424368 62.16893635 272.1875 64.25 C274.24193279 67.36707044 274.28607133 68.9828969 273.62890625 72.61157227 C272.8558578 75.54741583 271.9110336 78.40188663 270.9375 81.27734375 C270.57527344 82.35105225 270.21304687 83.42476074 269.83984375 84.53100586 C269.42412109 85.75315796 269.42412109 85.75315796 269 87 C279.04886253 87.13922771 289.09749436 87.24573619 299.1471262 87.31087303 C303.8140077 87.34214121 308.4802277 87.38453053 313.14672852 87.45263672 C317.65310573 87.51799182 322.15884808 87.55373999 326.66566277 87.56926346 C328.38207935 87.580321 330.09846248 87.60191465 331.81460762 87.63438034 C342.31975935 88.25035564 342.31975935 88.25035564 351.48413086 84.02587891 C352.31436768 83.02733887 353.14460449 82.02879883 354 81 C358.18611152 78.90694424 363.44132948 79.57635392 368 80 C372.8846525 82.26787438 375.73212562 85.1153475 378 90 C378.75381535 95.5997712 378.77303575 100.33499991 376.375 105.5 C371.80134327 110.3143755 368.6912538 112.25156236 362 112.5 C356.89459489 112.32918719 353.89451846 111.49508067 350 108 C349.60374924 107.4669072 349.20749847 106.93381439 348.79924011 106.38456726 C346.0282345 104.25219837 343.12687055 104.6070627 339.7746582 104.65942383 C339.04270233 104.65898575 338.31074646 104.65854767 337.55661011 104.65809631 C335.13772895 104.66018602 332.71954129 104.68352485 330.30078125 104.70703125 C328.62355427 104.71262658 326.94632238 104.71689697 325.26908875 104.71989441 C320.85487325 104.73134822 316.44095395 104.76081989 312.02685547 104.79400635 C307.5225017 104.82469575 303.01810006 104.83839732 298.51367188 104.85351562 C289.67565113 104.88568917 280.83785019 104.93689192 272 105 C274.05259489 109.35055991 275.22758483 111.6718589 279.5625 113.88671875 C280.44164062 114.35013672 281.32078125 114.81355469 282.2265625 115.29101562 C283.14179688 115.75185547 284.05703125 116.21269531 285 116.6875 C286.81486934 117.62433044 288.62747224 118.56556787 290.4375 119.51171875 C291.24058594 119.91865967 292.04367187 120.32560059 292.87109375 120.74487305 C295 122 295 122 298 125 C298 131.27 298 137.54 298 144 C271.27 144 244.54 144 217 144 C216.34 139.71 215.68 135.42 215 131 C210.92962334 118.33660593 202.78195302 108.3105658 190.875 102.1875 C179.62975313 96.78609454 166.46446748 95.91843833 154.4375 99.5625 C142.01302709 104.51842643 132.53074711 113.5299333 126.9609375 125.66015625 C124.38687408 131.92789604 123.76541921 137.11122713 123 144 C96.27 144 69.54 144 42 144 C42 137.73 42 131.46 42 125 C48.72557512 119.39535407 48.72557512 119.39535407 52.19921875 117.75390625 C52.93333984 117.39103516 53.66746094 117.02816406 54.42382812 116.65429688 C55.9409412 115.92257452 57.46185276 115.1986792 58.98632812 114.48242188 C59.71658203 114.11826172 60.44683594 113.75410156 61.19921875 113.37890625 C61.85752686 113.0651001 62.51583496 112.75129395 63.1940918 112.42797852 C65.73812929 110.416342 66.62120261 107.89326466 68 105 C58.3422556 104.86074888 48.68485873 104.75425266 39.02632809 104.68912697 C34.54103478 104.6578636 30.05643017 104.61548364 25.5715332 104.54736328 C21.24021741 104.48199017 16.90956242 104.4462564 12.57779121 104.43073654 C10.92835657 104.41968215 9.27895658 104.39809459 7.62980461 104.36561966 C-2.56516416 103.79323975 -2.56516416 103.79323975 -11.44311523 107.97412109 C-12.28688721 108.97266113 -13.13065918 109.97120117 -14 111 C-18.18611152 113.09305576 -23.44132948 112.42364608 -28 112 C-32.8846525 109.73212562 -35.73212562 106.8846525 -38 102 C-38.75381535 96.4002288 -38.77303575 91.66500009 -36.375 86.5 C-31.80134327 81.6856245 -28.6912538 79.74843764 -22 79.5 C-16.89459489 79.67081281 -13.89451846 80.50491933 -10 84 C-9.60942917 84.5330928 -9.21885834 85.06618561 -8.81645203 85.61543274 C-5.97296294 87.78284582 -2.92921675 87.39206002 0.50073242 87.34057617 C1.6425573 87.34123329 1.6425573 87.34123329 2.80744934 87.34190369 C5.32371666 87.33981353 7.83931782 87.31647235 10.35546875 87.29296875 C12.09995662 87.28737359 13.84444921 87.28310311 15.58894348 87.28010559 C20.18070487 87.26865049 24.77218164 87.23917765 29.36383057 87.20599365 C34.04915517 87.17530707 38.73452575 87.16160328 43.41992188 87.14648438 C52.61340631 87.11430854 61.80667949 87.06310418 71 87 C70.62746094 85.99839844 70.25492187 84.99679688 69.87109375 83.96484375 C69.39242128 82.62268369 68.91460191 81.28021916 68.4375 79.9375 C68.19064453 79.28072266 67.94378906 78.62394531 67.68945312 77.94726562 C66.06250808 73.29557768 65.74997607 69.90394005 67 65 C69.5625 62.0625 69.5625 62.0625 72 60 C66.05319855 47.26626245 49.80291247 29.59102397 36.84155273 24.08270264 C27.98072139 21.46477585 17.67505024 22.01868616 9 25 C6.26974525 26.72192203 4.20047188 28.66435873 2 31 C-2.18611152 33.09305576 -7.44132948 32.42364608 -12 32 C-16.8846525 29.73212562 -19.73212562 26.8846525 -22 22 C-22.75381535 16.4002288 -22.77303575 11.66500009 -20.375 6.5 C-14.15320043 -0.0492627 -8.85861567 -1.22732535 0 0 Z " fill="#7FD160" transform="translate(86,8)"/>
<path d="M0 0 C1.13702922 -0.00935994 1.13702922 -0.00935994 2.29702872 -0.01890898 C4.83901579 -0.03487357 7.38004853 -0.02222156 9.92204285 -0.00964355 C11.74376994 -0.01506329 13.56549265 -0.02218511 15.38720703 -0.03088379 C20.33780452 -0.04914166 25.28806908 -0.04203841 30.23867249 -0.02936745 C35.4190831 -0.01924793 40.599465 -0.02863064 45.77987671 -0.03491211 C54.48324199 -0.04219352 63.1864716 -0.03258989 71.88981628 -0.0135498 C81.94753853 0.00819936 92.00493619 0.00118374 102.0626505 -0.02085543 C110.69804147 -0.03901982 119.33333483 -0.04156203 127.96873873 -0.03110075 C133.12605175 -0.02486891 138.28321234 -0.02402131 143.44051552 -0.0372467 C148.29235035 -0.04881892 153.14376793 -0.04075429 157.99555779 -0.01766968 C159.77448967 -0.01238905 161.55345679 -0.01388531 163.33237457 -0.02272034 C165.76494135 -0.03368584 168.1961795 -0.01990116 170.62866211 0 C171.67955913 -0.01338433 171.67955913 -0.01338433 172.75168639 -0.02703905 C178.810829 0.06881258 182.99813153 2.15599261 187.40324402 6.28918457 C188.38541073 7.43244741 189.36459767 8.57827711 190.34074402 9.72668457 C199.32312824 17.12012718 209.83097224 16.11151757 220.84465027 16.07434082 C222.73597518 16.07958329 224.62729748 16.08586205 226.51861572 16.09312439 C230.47173922 16.10350035 234.42450212 16.09900769 238.37760925 16.08435059 C243.42242155 16.06716888 248.46609416 16.09066526 253.51077938 16.12584019 C257.41353786 16.14788937 261.3160268 16.14635453 265.2188282 16.13807487 C267.07781283 16.13725944 268.93681806 16.14404423 270.79574394 16.1588459 C286.36937254 16.30904071 286.36937254 16.30904071 299.56741333 8.63539124 C300.69187234 7.50928497 301.78545996 6.35099673 302.83683777 5.15637207 C306.55532346 1.48142836 309.77200331 0.16934231 315.02593714 0.10204226 C315.73625179 0.1080523 316.44656643 0.11406235 317.17840576 0.12025452 C317.94347991 0.11486898 318.70855407 0.10948344 319.49681228 0.10393471 C322.0563634 0.08964521 324.61539808 0.0967611 327.17497253 0.10388184 C329.01156531 0.09817888 330.84815453 0.0912149 332.68473816 0.08308411 C337.67013991 0.06513193 342.65536585 0.06632465 347.64079022 0.07202649 C351.8011165 0.07511456 355.96140882 0.06903033 360.12173027 0.06298774 C369.93361444 0.04893812 379.74541156 0.0505082 389.55729675 0.06188965 C399.68609317 0.07337891 409.81462505 0.05928258 419.94338661 0.03249317 C428.63649061 0.01036021 437.32951142 0.00369314 446.0226416 0.00956959 C451.21618386 0.01294521 456.40955642 0.01048365 461.60307503 -0.00668144 C466.48444392 -0.02211083 471.36541963 -0.01823974 476.24677277 0.0006237 C478.03987234 0.00432034 479.8330008 0.00116997 481.62607384 -0.00926208 C484.07057052 -0.02240035 486.5137516 -0.0109896 488.95819092 0.00672913 C489.67073628 -0.00287588 490.38328165 -0.01248089 491.1174193 -0.02237695 C494.48780946 0.02802563 496.23155075 0.29938313 498.94412136 2.36964321 C500.97364336 5.15028691 501.02087214 6.8807321 501.03605652 10.30480957 C501.04121277 11.42887207 501.04636902 12.55293457 501.05168152 13.71105957 C501.03621277 14.88152832 501.02074402 16.05199707 501.00480652 17.25793457 C501.02027527 18.41293457 501.03574402 19.56793457 501.05168152 20.75793457 C501.01363875 29.08930126 499.89087249 34.69179582 494.32121277 40.96887207 C493.20552917 41.91633301 493.20552917 41.91633301 492.06730652 42.88293457 C490.95549011 43.85359863 490.95549011 43.85359863 489.82121277 44.84387207 C484.88814668 48.38769358 480.42141936 48.79785455 474.47804546 48.76520348 C473.67100714 48.76870955 472.86396882 48.77221563 472.03247479 48.77582794 C469.31710375 48.78516217 466.60194624 48.78021341 463.88656616 48.77536011 C461.92454567 48.77909535 459.96252667 48.78369636 458.00051004 48.78909075 C452.60008557 48.80135176 447.1997229 48.80105664 441.79928768 48.798702 C435.97843584 48.79829462 430.15760403 48.80932546 424.33676147 48.81881714 C412.92934368 48.83544502 401.52194655 48.84092749 390.11451765 48.84204189 C380.84410651 48.84299151 371.57370221 48.84709744 362.30329323 48.85344315 C359.63554218 48.85523215 356.96779113 48.85701784 354.30004007 48.8587929 C353.63684282 48.859235 352.97364556 48.85967709 352.29035143 48.86013259 C333.6337573 48.87244237 314.9771655 48.88033357 296.32056713 48.87944603 C295.61705747 48.87941487 294.91354782 48.87938371 294.18871969 48.87935161 C290.62298006 48.8791854 287.05724044 48.87898731 283.49150082 48.8787822 C282.42923381 48.87872236 282.42923381 48.87872236 281.34550687 48.87866132 C279.91339807 48.87858044 278.48128928 48.87849685 277.04918049 48.87841053 C254.76702909 48.87718498 232.48493855 48.8921985 210.20280457 48.91955566 C185.17314622 48.95027342 160.14352785 48.96748835 135.11384946 48.96562922 C121.85956587 48.96488789 108.60534802 48.97048805 95.35107994 48.99198532 C84.06683311 49.01016978 72.78268604 49.01456694 61.49843093 49.00096647 C55.73950248 48.99442308 49.98076556 48.99436917 44.22185516 49.01167297 C38.95089716 49.02734794 33.68028343 49.02459709 28.4093341 49.00710471 C26.50154614 49.00402251 24.59373283 49.00771286 22.68597474 49.01882486 C20.09326286 49.0329274 17.50176168 49.02237468 14.909091 49.00571251 C14.16786791 49.01564887 13.42664483 49.02558523 12.66296044 49.03582269 C6.08203125 48.94636751 0.95926355 46.68577819 -3.95613098 42.32434082 C-4.58777161 41.58055176 -5.21941223 40.8367627 -5.87019348 40.07043457 C-6.51730286 39.32922363 -7.16441223 38.5880127 -7.83113098 37.82434082 C-12.39325619 31.47377686 -11.86196868 24.97524026 -11.87019348 17.44543457 C-11.89468567 16.26143066 -11.91917786 15.07742676 -11.94441223 13.85754395 C-11.94827942 12.71994629 -11.95214661 11.58234863 -11.95613098 10.41027832 C-11.96434875 9.3737915 -11.97256653 8.33730469 -11.98103333 7.26940918 C-10.79391698 0.52193535 -5.99006286 -0.07556821 0 0 Z " fill="#D2E0F4" transform="translate(11.495193481445313,455.4920654296875)"/>
<path d="M0 0 C5.51756476 -0.0493521 11.03500171 -0.08569662 16.55273438 -0.10986328 C18.43068682 -0.11993534 20.30862353 -0.13359362 22.18652344 -0.15087891 C24.8822009 -0.17507453 27.57767146 -0.18647083 30.2734375 -0.1953125 C31.11619232 -0.20563507 31.95894714 -0.21595764 32.82723999 -0.22659302 C34.88621247 -0.22699144 36.94467935 -0.12257588 39 0 C41.68589947 2.68589947 41.24620541 4.74398467 41.27214891 8.3948583 C41.26836958 9.30135911 41.26459026 10.20785992 41.26069641 11.14183044 C41.26452196 12.1010574 41.26834751 13.06028436 41.27228898 14.0485788 C41.28265958 17.28301027 41.27861915 20.51726556 41.2746582 23.75170898 C41.27900243 26.06237961 41.2841846 28.3730488 41.29014587 30.68371582 C41.30357819 36.97493663 41.30410985 43.26609753 41.30158257 49.55732989 C41.30051573 54.80119504 41.30538885 60.04504792 41.310188 65.28891045 C41.32193381 78.36354575 41.32104974 91.43814678 41.31463119 104.51278431 C41.30946138 115.87558493 41.3207174 127.23829984 41.33972941 138.60108351 C41.359087 150.25950863 41.36707569 161.91788948 41.36360615 173.57633072 C41.36178866 180.12521705 41.36447574 186.67402488 41.37832069 193.22289848 C41.39084866 199.37963214 41.38900279 205.53619364 41.37590981 211.6929245 C41.37353347 213.95730966 41.37631622 216.22170676 41.38453293 218.48607826 C41.39491292 221.56798379 41.38697037 224.64930222 41.3742218 227.73118591 C41.38159609 228.635456 41.38897037 229.53972608 41.39656812 230.47139829 C41.38936158 231.294736 41.38215503 232.11807371 41.37473011 232.96636105 C41.37478513 233.67801196 41.37484014 234.38966287 41.37489682 235.12287897 C40.85971305 237.70242149 40.17794862 238.51871965 38 240 C35.19954675 240.37489682 35.19954675 240.37489682 31.71745968 240.37473011 C31.07470371 240.37879084 30.43194775 240.38285156 29.76971433 240.38703534 C27.60105499 240.39703578 25.43303456 240.38552352 23.26438904 240.3742218 C21.69992317 240.37696052 20.13545913 240.38101098 18.57099968 240.38626546 C14.26037078 240.39688869 9.94994814 240.3886999 5.63932812 240.37751496 C0.99511809 240.36869764 -3.64906422 240.37710927 -8.29327393 240.38337708 C-17.39556893 240.39288134 -26.49778485 240.38625114 -35.600074 240.37411413 C-46.19069178 240.36051673 -56.78129057 240.36212997 -67.37191486 240.36424746 C-86.26220105 240.36743969 -105.15244958 240.35575595 -124.04272461 240.33618164 C-142.39104357 240.31717379 -160.73931838 240.31009451 -179.08764648 240.31567383 C-199.04855268 240.32172551 -219.00943943 240.32156598 -238.97034401 240.310188 C-241.09692283 240.30898065 -243.22350166 240.30777467 -245.35008049 240.30657005 C-246.39651189 240.30596651 -247.4429433 240.30536298 -248.52108474 240.30474115 C-255.91105236 240.3008547 -263.30101276 240.30125842 -270.69098091 240.3031559 C-279.69063308 240.30527347 -288.69024648 240.3000871 -297.68988771 240.28554235 C-302.28550328 240.27827656 -306.88106227 240.27423985 -311.47668266 240.27878571 C-315.6777894 240.28284038 -319.87877895 240.27775914 -324.07986783 240.26515963 C-325.60537292 240.26221408 -327.13088894 240.26269008 -328.65639133 240.26680271 C-330.7188371 240.27186103 -332.78088334 240.26478757 -334.84330082 240.25447559 C-335.9922272 240.25360882 -337.14115358 240.25274204 -338.32489592 240.251849 C-341 240 -341 240 -343 238 C-343.22705078 236.02880859 -343.22705078 236.02880859 -343.1953125 233.6484375 C-343.18886719 232.79765625 -343.18242187 231.946875 -343.17578125 231.0703125 C-343.15902344 230.18085938 -343.14226562 229.29140625 -343.125 228.375 C-343.11597656 227.4778125 -343.10695313 226.580625 -343.09765625 225.65625 C-343.0740497 223.43723414 -343.0411231 221.21874923 -343 219 C-342.41745624 218.99940291 -341.83491248 218.99880582 -341.23471588 218.99819064 C-306.6628538 218.96225035 -272.09108911 218.90554041 -237.5193088 218.82207905 C-233.3627264 218.8120623 -229.20614361 218.80221805 -225.04956055 218.79248047 C-224.2221043 218.7905391 -223.39464805 218.78859772 -222.54211736 218.78659752 C-209.16654506 218.75562661 -195.7909899 218.7386106 -182.41538852 218.72680578 C-168.67770665 218.71436872 -154.94011429 218.68680989 -141.20248896 218.64538693 C-132.73436047 218.62032443 -124.26638055 218.6068774 -115.79821444 218.60857043 C-109.98117938 218.60860032 -104.16429498 218.59386332 -98.3473187 218.56783572 C-94.99752691 218.55327342 -91.64830148 218.54711264 -88.29844666 218.55419731 C-65.08056852 218.596742 -45.09020521 216.13342804 -27 200 C-26.46761719 199.43796875 -25.93523437 198.8759375 -25.38671875 198.296875 C-24 197 -24 197 -22 197 C-21.73445313 196.41734375 -21.46890625 195.8346875 -21.1953125 195.234375 C-19.96463346 192.93388999 -18.57339787 191.22488125 -16.875 189.25 C-6.89538144 176.59801497 -0.93566751 160.66747866 -0.84178162 144.54592896 C-0.8319928 143.26714371 -0.82220398 141.98835846 -0.81211853 140.67082214 C-0.8062155 139.26638831 -0.80040498 137.86195409 -0.79467773 136.45751953 C-0.78509082 134.96896599 -0.77508027 133.48041513 -0.76467896 131.99186707 C-0.73771193 127.96137634 -0.71665812 123.93087401 -0.69667697 119.90034342 C-0.67476665 115.68426316 -0.64740271 111.46821836 -0.62062073 107.25216675 C-0.57076195 99.27316856 -0.52579791 91.29415062 -0.48259836 83.3151139 C-0.43316766 74.22927175 -0.3782712 65.14346518 -0.32291877 56.05765748 C-0.20920337 37.37180472 -0.1023417 18.68591834 0 0 Z " fill="#07A9F1" transform="translate(407,184)"/>
<path d="M0 0 C0.85872208 -0.0049649 1.71744415 -0.00992981 2.60218811 -0.01504517 C5.45192254 -0.0296868 8.30160127 -0.03647286 11.15136719 -0.04199219 C13.12953697 -0.04774293 15.10770673 -0.05350068 17.08587646 -0.05926514 C21.23873149 -0.06978146 25.39156712 -0.07561968 29.54443359 -0.07910156 C34.86193515 -0.08458112 40.17917998 -0.10859501 45.4966011 -0.13707352 C49.58529402 -0.15571404 53.67392535 -0.1609063 57.76265717 -0.16243744 C59.72263743 -0.16546237 61.68261666 -0.17348553 63.64255524 -0.18662262 C66.38820286 -0.20370911 69.13322679 -0.20179626 71.87890625 -0.1953125 C72.68640823 -0.20452728 73.49391022 -0.21374207 74.32588196 -0.22323608 C79.85817635 -0.18238554 84.1439062 0.7766814 88.34277344 4.69628906 C92.53188771 10.17436157 93.31976621 13.347388 92.69824219 20.16113281 C90.87289627 25.43435434 88.09105016 27.95804367 83.69824219 31.16113281 C80.34089082 32.28024994 77.81618833 32.27478868 74.28027344 32.25878906 C73.02666016 32.25556641 71.77304687 32.25234375 70.48144531 32.24902344 C69.17111328 32.24064453 67.86078125 32.23226562 66.51074219 32.22363281 C65.17545738 32.21861599 63.84017078 32.2140534 62.50488281 32.20996094 C59.23595746 32.19815976 55.96712228 32.18169579 52.69824219 32.16113281 C52.70100757 32.83589472 52.70377295 33.51065662 52.70662212 34.20586586 C52.77290179 50.63130662 52.82253239 67.05670497 52.8536787 83.48224831 C52.86914153 91.42555166 52.89021983 99.3687657 52.92456055 107.31201172 C52.95448085 114.23609235 52.97382144 121.16010828 52.98050767 128.08425176 C52.98441549 131.74987953 52.99358709 135.41532225 53.01543236 139.08089066 C53.03963285 143.17494128 53.04021049 147.26867103 53.03881836 151.36279297 C53.04960419 152.5755188 53.06039001 153.78824463 53.07150269 155.03771973 C53.04714647 161.64601649 52.86185521 166.69269249 48.19824219 171.80566406 C42.79103354 176.01596455 38.41930542 176.98975705 31.69824219 176.16113281 C26.39471939 173.45933818 22.5999192 169.86616386 20.69824219 164.16113281 C20.60768535 162.37231023 20.57628671 160.58025126 20.57798767 158.78913879 C20.57661301 157.67434647 20.57523834 156.55955414 20.57382202 155.41098022 C20.57921494 153.57571274 20.57921494 153.57571274 20.5847168 151.70336914 C20.58457077 150.41545975 20.58442474 149.12755035 20.58427429 147.8006134 C20.58398706 144.26783195 20.58987187 140.73508437 20.59684825 137.2023108 C20.60309406 133.51074536 20.60368656 129.81917916 20.60487366 126.12760925 C20.60798334 119.13658972 20.61619186 112.1455858 20.62622315 105.15457314 C20.63739552 97.19576961 20.64289757 89.23696534 20.64791858 81.27815592 C20.65837476 64.90580574 20.67596721 48.53347127 20.69824219 32.16113281 C19.85116699 32.18208008 19.0040918 32.20302734 18.13134766 32.22460938 C14.96683826 32.29307336 11.80270828 32.34307269 8.63769531 32.38085938 C7.27200851 32.400886 5.9064065 32.42811613 4.54101562 32.46289062 C2.57037117 32.51179713 0.59908236 32.53204629 -1.37207031 32.55175781 C-2.55559082 32.57270508 -3.73911133 32.59365234 -4.95849609 32.61523438 C-10.12977467 31.91284076 -13.18147903 29.40252281 -16.61425781 25.59863281 C-19.75861717 21.05678041 -19.96213865 16.51755516 -19.30175781 11.16113281 C-14.82930392 2.38187146 -9.29392982 0.01273825 0 0 Z " fill="#DEF5FC" transform="translate(259.3017578125,215.8388671875)"/>
<path d="M0 0 C4.8846525 2.26787438 7.73212562 5.1153475 10 10 C10.75381535 15.5997712 10.77303575 20.33499991 8.375 25.5 C3.80134327 30.3143755 0.6912538 32.25156236 -6 32.5 C-11.10540511 32.32918719 -14.10548154 31.49508067 -18 28 C-18.64171143 27.23478027 -18.64171143 27.23478027 -19.29638672 26.45410156 C-24.78425494 21.76998819 -35.373997 22.23913518 -42.234375 22.703125 C-59.71584638 24.7738027 -73.42132077 45.4488189 -84 58 C-82.79950564 60.58568017 -81.83575632 62.16893635 -79.8125 64.25 C-77.75806721 67.36707044 -77.71392867 68.9828969 -78.37109375 72.61157227 C-79.1441422 75.54741583 -80.0889664 78.40188663 -81.0625 81.27734375 C-81.42472656 82.35105225 -81.78695312 83.42476074 -82.16015625 84.53100586 C-82.43730469 85.34577393 -82.71445312 86.16054199 -83 87 C-72.95113747 87.13922771 -62.90250564 87.24573619 -52.8528738 87.31087303 C-48.1859923 87.34214121 -43.5197723 87.38453053 -38.85327148 87.45263672 C-34.34689427 87.51799182 -29.84115192 87.55373999 -25.33433723 87.56926346 C-23.61792065 87.580321 -21.90153752 87.60191465 -20.18539238 87.63438034 C-9.68024065 88.25035564 -9.68024065 88.25035564 -0.51586914 84.02587891 C0.72948608 82.52806885 0.72948608 82.52806885 2 81 C6.18611152 78.90694424 11.44132948 79.57635392 16 80 C20.8846525 82.26787438 23.73212562 85.1153475 26 90 C26.75381535 95.5997712 26.77303575 100.33499991 24.375 105.5 C19.80134327 110.3143755 16.6912538 112.25156236 10 112.5 C4.89459489 112.32918719 1.89451846 111.49508067 -2 108 C-2.39625076 107.4669072 -2.79250153 106.93381439 -3.20075989 106.38456726 C-5.9717655 104.25219837 -8.87312945 104.6070627 -12.2253418 104.65942383 C-12.95729767 104.65898575 -13.68925354 104.65854767 -14.44338989 104.65809631 C-16.86227105 104.66018602 -19.28045871 104.68352485 -21.69921875 104.70703125 C-23.37644573 104.71262658 -25.05367762 104.71689697 -26.73091125 104.71989441 C-31.14512675 104.73134822 -35.55904605 104.76081989 -39.97314453 104.79400635 C-44.4774983 104.82469575 -48.98189994 104.83839732 -53.48632812 104.85351562 C-62.32434887 104.88568917 -71.16214981 104.93689192 -80 105 C-77.94740511 109.35055991 -76.77241517 111.6718589 -72.4375 113.88671875 C-71.55835938 114.35013672 -70.67921875 114.81355469 -69.7734375 115.29101562 C-68.85820312 115.75185547 -67.94296875 116.21269531 -67 116.6875 C-65.18513066 117.62433044 -63.37252776 118.56556787 -61.5625 119.51171875 C-60.75941406 119.91865967 -59.95632813 120.32560059 -59.12890625 120.74487305 C-57 122 -57 122 -54 125 C-54 131.27 -54 137.54 -54 144 C-67.53 144 -81.06 144 -95 144 C-95.37125 140.308125 -95.7425 136.61625 -96.125 132.8125 C-98.13171054 115.24601156 -102.38554752 99.21744914 -111.02832031 83.74316406 C-111.93802391 82.11118323 -112.81031981 80.4585079 -113.6796875 78.8046875 C-120.75974551 65.83022713 -132.88899521 50.18990585 -146 43 C-145.67 42.34 -145.34 41.68 -145 41 C-144.2265625 41.37253906 -143.453125 41.74507812 -142.65625 42.12890625 C-132.59778232 46.69754194 -127.5281813 45.93410197 -117.4375 42.375 C-116.81190186 42.13281738 -116.18630371 41.89063477 -115.54174805 41.64111328 C-110.9832227 39.972469 -107.70090974 39.81906758 -103 41 C-100.0625 43.5625 -100.0625 43.5625 -98 46 C-94.9798347 44.65054691 -92.92739287 43.15920865 -90.62768555 40.79125977 C-89.9898967 40.14040909 -89.35210785 39.48955841 -88.69499207 38.81898499 C-88.01576187 38.116884 -87.33653168 37.41478302 -86.63671875 36.69140625 C-85.17801554 35.20740587 -83.71902203 33.72369079 -82.25976562 32.24023438 C-79.97164862 29.90254109 -77.68683014 27.56181049 -75.4074707 25.21557617 C-73.20111787 22.94860531 -70.98232292 20.69440694 -68.76171875 18.44140625 C-68.08856125 17.7413295 -67.41540375 17.04125275 -66.72184753 16.31996155 C-61.63429581 11.1792937 -57.70757682 8.33667567 -50.28710938 7.6628418 C-48.98580078 7.67484619 -47.68449219 7.68685059 -46.34375 7.69921875 C-44.89452667 7.69157983 -43.44530761 7.68309048 -41.99609375 7.67382812 C-39.74461222 7.67603787 -37.49399569 7.68757338 -35.24267578 7.71508789 C-25.25900262 8.17878254 -25.25900262 8.17878254 -16.59375 4.01953125 C-15.7378125 3.02308594 -14.881875 2.02664062 -14 1 C-9.81388848 -1.09305576 -4.55867052 -0.42364608 0 0 Z " fill="#50C124" transform="translate(438,8)"/>
<path d="M0 0 C5.67476113 1.96434039 9.31400331 5.62800662 12 11 C12.1004178 13.00089746 12.13511447 15.00519736 12.14044189 17.00860596 C12.14615204 18.2900499 12.15186218 19.57149384 12.15774536 20.89176941 C12.15899079 22.32009878 12.16011587 23.74842826 12.16113281 25.17675781 C12.16576003 26.67468895 12.17078455 28.17261891 12.17617798 29.67054749 C12.18931512 33.74714773 12.19574973 37.8237315 12.20018864 41.90034962 C12.20311783 44.44689214 12.20722239 46.99343014 12.21169281 49.5399704 C12.22537249 57.50630048 12.23503629 65.47262025 12.2388947 73.43896127 C12.24337386 82.63678841 12.26091316 91.83446682 12.2898953 101.03224874 C12.31151378 108.13975811 12.3215991 115.24722566 12.32293582 122.35476756 C12.32398392 126.60049447 12.32989253 130.84608167 12.34775543 135.09177399 C12.36423857 139.0874302 12.36639051 143.08284172 12.35761642 147.07851982 C12.35684612 148.54343509 12.36118795 150.00836352 12.37107468 151.47324562 C12.38380034 153.47661018 12.37612342 155.48007309 12.36749268 157.48345947 C12.36895924 158.60360569 12.3704258 159.72375191 12.3719368 160.87784195 C11.86700711 165.11638544 10.38653558 168.47986594 7.5 171.64453125 C2.09279135 175.85483174 -2.27893677 176.82862423 -9 176 C-14.3035228 173.29820537 -18.09832298 169.70503105 -20 164 C-20.09991767 161.95890176 -20.13935779 159.91466699 -20.14717102 157.87113953 C-20.15432632 156.58832092 -20.16148163 155.30550232 -20.16885376 153.98381042 C-20.17169399 152.55911279 -20.17440572 151.1344149 -20.17700195 149.7097168 C-20.18326736 148.2116378 -20.18991423 146.71356036 -20.19691467 145.21548462 C-20.21794636 140.29340699 -20.22831543 135.37132907 -20.23828125 130.44921875 C-20.24232898 128.75452979 -20.24644591 127.05984099 -20.25063133 125.36515236 C-20.26968014 117.4041679 -20.28391247 109.4431927 -20.2922433 101.48218983 C-20.30201845 92.29281894 -20.32834639 83.10368874 -20.36874419 73.91440266 C-20.39890003 66.81112039 -20.41371162 59.70790715 -20.41702431 52.6045621 C-20.4193752 48.36215302 -20.42834065 44.12000117 -20.45348549 39.87766075 C-20.47676241 35.88604396 -20.48100118 31.89485386 -20.47072411 27.9031868 C-20.47022855 26.43987547 -20.47655479 24.97654317 -20.49028015 23.51329613 C-20.50799721 21.5122128 -20.49850824 19.51094422 -20.48774719 17.5098114 C-20.49013555 16.390964 -20.4925239 15.2721166 -20.49498463 14.11936474 C-19.69697429 9.09034936 -17.1280618 5.99376873 -13.375 2.6875 C-8.92314854 -0.47565762 -5.3540278 -0.48837416 0 0 Z " fill="#DEF5FC" transform="translate(196,216)"/>
<path d="M0 0 C4.8846525 2.26787438 7.73212562 5.1153475 10 10 C10.75381535 15.5997712 10.77303575 20.33499991 8.375 25.5 C3.80134327 30.3143755 0.6912538 32.25156236 -6 32.5 C-11.10540511 32.32918719 -14.10548154 31.49508067 -18 28 C-18.42853271 27.49057861 -18.85706543 26.98115723 -19.29858398 26.45629883 C-24.78664029 21.75888803 -35.30003342 22.16111077 -42.16796875 22.63671875 C-59.97078768 24.79536703 -74.20339116 46.20177777 -85 59 C-89.52615993 55.32167983 -93.39424999 51.58913637 -97 47 C-92.0154796 41.91380763 -87.01514422 36.84356332 -82.00366211 31.78393555 C-80.30176169 30.06195752 -78.6034734 28.3364015 -76.90893555 26.60717773 C-74.46830932 24.11786785 -72.01485223 21.64184347 -69.55859375 19.16796875 C-68.80726669 18.39599655 -68.05593964 17.62402435 -67.28184509 16.82865906 C-61.94917467 11.49375164 -58.02247171 8.36527048 -50.28710938 7.6628418 C-48.98580078 7.67484619 -47.68449219 7.68685059 -46.34375 7.69921875 C-44.89452667 7.69157983 -43.44530761 7.68309048 -41.99609375 7.67382812 C-39.74461222 7.67603787 -37.49399569 7.68757338 -35.24267578 7.71508789 C-25.25900262 8.17878254 -25.25900262 8.17878254 -16.59375 4.01953125 C-15.7378125 3.02308594 -14.881875 2.02664062 -14 1 C-9.81388848 -1.09305576 -4.55867052 -0.42364608 0 0 Z " fill="#FD6830" transform="translate(438,8)"/>
<path d="M0 0 C3.13027503 1.59259607 5.11471008 2.81007096 7.20043945 5.61352539 C10.04810212 7.80751214 12.69327621 7.36914464 16.23046875 7.37109375 C17.68815322 7.38849038 19.14583546 7.40607459 20.60351562 7.42382812 C22.88977448 7.4338545 25.17587839 7.43750873 27.4621582 7.43579102 C29.67705481 7.43939482 31.89078286 7.46687238 34.10546875 7.49609375 C34.77660202 7.48791122 35.44773529 7.4797287 36.13920593 7.47129822 C46.0659302 7.62446635 51.86120335 13.28312829 58.4375 20.046875 C59.20304199 20.81807678 59.96858398 21.58927856 60.75732422 22.3838501 C63.18116832 24.8299421 65.59066822 27.28962101 68 29.75 C69.64880894 31.41888871 71.29853949 33.08686743 72.94921875 34.75390625 C76.97686858 38.82546966 80.99285809 42.9082569 85 47 C81.32167983 51.52615993 77.58913637 55.39424999 73 59 C72.64066376 58.57404541 72.28132751 58.14809082 71.91110229 57.70922852 C54.46452735 35.08020005 54.46452735 35.08020005 30.30859375 22.53125 C22.49526502 21.90125086 13.44865563 22.1528604 6.69287109 26.4765625 C5.01193255 27.90736909 3.51935074 29.40372384 2 31 C-2.18611152 33.09305576 -7.44132948 32.42364608 -12 32 C-16.8846525 29.73212562 -19.73212562 26.8846525 -22 22 C-22.75381535 16.4002288 -22.77303575 11.66500009 -20.375 6.5 C-14.15320043 -0.0492627 -8.85861567 -1.22732535 0 0 Z " fill="#FD6830" transform="translate(86,8)"/>
<path d="M0 0 C3.12518539 1.5900066 5.11677835 2.79318727 7.17880249 5.61068726 C10.0364096 7.79063202 13.12416038 7.43079269 16.57666016 7.41650391 C17.73070595 7.42938194 17.73070595 7.42938194 18.9080658 7.44252014 C21.45182394 7.46762088 23.99519175 7.47196205 26.5390625 7.4765625 C28.30359089 7.49086709 30.06810806 7.50662311 31.83261108 7.52377319 C36.47808609 7.56566583 41.12349157 7.59063853 45.769104 7.61126709 C53.21270605 7.64706052 60.65613676 7.70791446 68.09955978 7.76975632 C70.70599063 7.78891131 73.31237564 7.80059459 75.91885376 7.81118774 C77.50661317 7.82139449 79.09437163 7.83175196 80.68212891 7.84228516 C81.41252884 7.84332748 82.14292877 7.84436981 82.89546204 7.84544373 C87.88657394 7.88657394 87.88657394 7.88657394 89 9 C89.46849088 14.43449422 89.19530921 17.61357023 86.32480812 22.47279167 C85 24 85 24 81.68083191 24.83937073 C80.34740991 24.85904224 79.01308321 24.84034892 77.68041992 24.79125977 C76.9498085 24.79239777 76.21919708 24.79353577 75.46644592 24.79470825 C73.88291636 24.79262157 72.29934398 24.7744087 70.71614647 24.74191475 C68.20528018 24.69089442 65.69745768 24.68272485 63.18611145 24.68553162 C57.85265784 24.68343677 52.52053098 24.62531911 47.1875 24.5625 C41.01617985 24.49409815 34.84594185 24.44883624 28.67421913 24.45112419 C26.20778187 24.44156062 23.74382144 24.39537636 21.27787781 24.3473053 C12.31142251 24.02990924 12.31142251 24.02990924 4.55200195 27.97241211 C3.70984131 28.97151611 2.86768066 29.97062012 2 31 C-2.18611152 33.09305576 -7.44132948 32.42364608 -12 32 C-16.8846525 29.73212562 -19.73212562 26.8846525 -22 22 C-22.75381535 16.4002288 -22.77303575 11.66500009 -20.375 6.5 C-14.15320043 -0.0492627 -8.85861567 -1.22732535 0 0 Z " fill="#FC682F" transform="translate(70,88)"/>
<path d="M0 0 C4.8846525 2.26787438 7.73212562 5.1153475 10 10 C10.75381535 15.5997712 10.77303575 20.33499991 8.375 25.5 C3.80134327 30.3143755 0.6912538 32.25156236 -6 32.5 C-11.10540511 32.32918719 -14.10548154 31.49508067 -18 28 C-18.39435745 27.46880051 -18.7887149 26.93760101 -19.19502258 26.39030457 C-21.98281518 24.24297533 -24.93803188 24.56069807 -28.31713867 24.56762695 C-29.42970284 24.55233948 -29.42970284 24.55233948 -30.56474304 24.53674316 C-33.01589451 24.50655337 -35.46665559 24.49733837 -37.91796875 24.48828125 C-39.61763311 24.47143895 -41.31728497 24.45328932 -43.016922 24.43388367 C-47.49014381 24.38632858 -51.963315 24.35655498 -56.43670654 24.33044434 C-61.00152589 24.30066651 -65.56617068 24.25412669 -70.13085938 24.20898438 C-79.08714838 24.12288867 -88.04347324 24.05557135 -97 24 C-97.66848644 22.75312829 -98.32663735 21.50071229 -98.98046875 20.24609375 C-99.34809326 19.5492749 -99.71571777 18.85245605 -100.09448242 18.13452148 C-101.41315424 15.02609664 -101.33856667 12.31795338 -101 9 C-99.30584731 7.30584731 -97.19964774 7.8826198 -94.93989563 7.87876892 C-94.21577988 7.88243973 -93.49166412 7.88611053 -92.74560547 7.88989258 C-91.17088825 7.88934964 -89.59617105 7.88876261 -88.02145386 7.88813782 C-87.18203121 7.88956598 -86.34260857 7.89099415 -85.47774887 7.89246559 C-81.04239537 7.89597515 -76.60717029 7.87018572 -72.171875 7.84960938 C-66.52300476 7.82529428 -60.87450109 7.80953603 -55.22558594 7.82495117 C-50.66589882 7.83663133 -46.1071253 7.81916133 -41.54758072 7.78250694 C-39.81174813 7.77390322 -38.07582785 7.77595408 -36.34002304 7.789011 C-25.74243316 8.29501343 -25.74243316 8.29501343 -16.50439453 4.0144043 C-15.26471924 2.52227417 -15.26471924 2.52227417 -14 1 C-9.81388848 -1.09305576 -4.55867052 -0.42364608 0 0 Z " fill="#FC682F" transform="translate(454,88)"/>
</svg>
