<?xml version="1.0" encoding="UTF-8"?>
<svg version="1.1" xmlns="http://www.w3.org/2000/svg" width="512" height="512">
<path d="M0 0 C13.95155306 11.38315227 23.91338268 24.59578582 27.75 42.5 C28.37360836 51.230517 27.78972614 59.48747813 26.5 68.125 C23.86282933 87.5775795 22.02502013 109.19882221 31.23046875 127.23046875 C32 129 32 129 32 132 C31.38294189 132.3309668 30.76588379 132.66193359 30.13012695 133.00292969 C16.22840188 140.46959877 2.4313784 148.08604272 -11.22607422 155.99121094 C-12.46485877 156.69567801 -13.72536718 157.36268359 -15 158 C-13.96613159 158.01401855 -13.96613159 158.01401855 -12.91137695 158.02832031 C12.23334164 158.45674448 12.23334164 158.45674448 23 163 C23.93328125 163.37253906 24.8665625 163.74507812 25.828125 164.12890625 C26.54484375 164.41636719 27.2615625 164.70382813 28 165 C28.38929688 164.57589844 28.77859375 164.15179688 29.1796875 163.71484375 C44.99795724 147.13117386 68.73565448 137.43970039 91.49609375 136.6640625 C119.92602651 136.29373271 148.25249456 141.13449023 170 161 C179 170.13392857 179 170.13392857 179 173 C184.94817325 171.58999347 188.65858015 168.31525718 193.1875 164.4375 C194.59442048 163.24487022 196.00445031 162.05589613 197.41796875 160.87109375 C198.03438232 160.34443115 198.6507959 159.81776855 199.28588867 159.27514648 C201 158 201 158 204 157 C203.5875 156.55011719 203.175 156.10023438 202.75 155.63671875 C189.10875857 140.44256814 181.4948519 125.13543563 177.21484375 105.375 C175.77281037 101.36883653 174.0540028 99.7313033 170.875 96.9375 C160.66710848 87.4020651 154.43598352 75.12524921 153.69140625 61.10546875 C153.02211423 40.93005275 159.03175761 25.04551541 172.40234375 9.71875 C188.50312138 -7.1325902 211.00318183 -15.67067985 234.04467773 -16.28100586 C258.86646747 -16.58396838 283.13770453 -10.42270807 302.20703125 6.203125 C315.01835497 19.03236665 320.82849719 34.88422914 321.3125 52.8125 C320.99350721 69.88799647 315.86458142 88.24677584 304 101 C302.90365234 101.495 302.90365234 101.495 301.78515625 102 C301.19605469 102.33 300.60695313 102.66 300 103 C299.47781389 105.14737572 299.47781389 105.14737572 299.5625 107.6875 C298.43545305 127.23151872 286.82703318 143.95073744 273 157 C283.61769322 167.7528275 290.29240994 172.78989867 305.47265625 173.66796875 C317.88182113 174.39701041 329.89814049 180.78074091 338.3125 189.8828125 C359.22847271 216.12461159 352 246.3469957 352 280 C260.425 280.495 260.425 280.495 167 281 C165.02 286.61 163.04 292.22 161 298 C155.77611232 308.35923488 150.12756041 315.84719872 142 324 C141.23171875 324.77085937 140.4634375 325.54171875 139.671875 326.3359375 C139.12015625 326.88507813 138.5684375 327.43421875 138 328 C140.18434976 329.8995663 142.37232283 331.79467211 144.5625 333.6875 C145.17158203 334.21794922 145.78066406 334.74839844 146.40820312 335.29492188 C148.25379488 336.8866227 150.1214131 338.4474366 152 340 C152.57024902 340.48968262 153.14049805 340.97936523 153.72802734 341.48388672 C158.23055301 345.08410263 161.81088554 345.73982269 167.5 345.75 C168.9479841 345.78367405 170.39590693 345.82010258 171.84375 345.859375 C172.88873657 345.87786499 172.88873657 345.87786499 173.95483398 345.89672852 C176 346 176 346 179.81640625 346.63671875 C183.18818144 347.33678305 183.18818144 347.33678305 186.4375 345.0625 C187.283125 344.381875 188.12875 343.70125 189 343 C191.97 345.97 194.94 348.94 198 352 C199.46759766 351.27683594 199.46759766 351.27683594 200.96484375 350.5390625 C207.91128921 347.17261955 214.30739886 344.21462123 222 343 C222 338.38 222 333.76 222 329 C228.76180724 327.87303213 228.76180724 327.87303213 232.05859375 327.8671875 C232.77466797 327.86589844 233.49074219 327.86460937 234.22851562 327.86328125 C234.95748047 327.86714844 235.68644531 327.87101562 236.4375 327.875 C237.16259766 327.87113281 237.88769531 327.86726563 238.63476562 327.86328125 C243.18953626 327.87146592 247.50633814 328.25401661 252 329 C252.33 333.62 252.66 338.24 253 343 C254.815 343.5775 256.63 344.155 258.5 344.75 C262.35931481 346.01975098 265.9311443 347.37261063 269.5 349.3125 C272.65384636 351.20005487 272.65384636 351.20005487 274.984375 350.828125 C277.50866121 349.79101516 278.88057522 348.41477621 280.75 346.4375 C281.36359375 345.79683594 281.9771875 345.15617187 282.609375 344.49609375 C283.06828125 344.00238281 283.5271875 343.50867188 284 343 C291.8487223 347.43501777 301.05026078 354.65371848 305 363 C304.75871153 366.62642373 303.00535685 368.32220807 300.4375 370.75 C299.79683594 371.36359375 299.15617187 371.9771875 298.49609375 372.609375 C298.00238281 373.06828125 297.50867188 373.5271875 297 374 C297.74056641 375.485 297.74056641 375.485 298.49609375 377 C299.14383752 378.3330379 299.79093867 379.66638818 300.4375 381 C300.76298828 381.64839844 301.08847656 382.29679687 301.42382812 382.96484375 C303.69605744 387.69670273 304.58512444 391.76438733 305 397 C309.62 397 314.24 397 319 397 C320.3463268 399.69265361 320.12962636 401.80114249 320.1328125 404.8125 C320.13410156 405.97007812 320.13539063 407.12765625 320.13671875 408.3203125 C320.13285156 409.53460938 320.12898438 410.74890625 320.125 412 C320.12886719 413.21429688 320.13273437 414.42859375 320.13671875 415.6796875 C320.13478516 417.41605469 320.13478516 417.41605469 320.1328125 419.1875 C320.13168457 420.25355469 320.13055664 421.31960938 320.12939453 422.41796875 C320 425 320 425 319 427 C314.38 427 309.76 427 305 427 C304.979375 428.03125 304.95875 429.0625 304.9375 430.125 C304.3606986 435.31621258 301.82560789 439.61817119 299.26342773 444.07470703 C297.31332373 447.47572975 297.31332373 447.47572975 297.59375 451.234375 C299.47124164 453.59167006 301.57882446 455.47542717 303.85546875 457.4375 C305 459 305 459 304.9921875 460.8203125 C303.5441431 464.00144942 301.30667414 466.35807261 298.9375 468.875 C298.44596436 469.40512695 297.95442871 469.93525391 297.44799805 470.48144531 C293.64890299 474.49842511 289.63901928 477.9693513 285 481 C283.87411986 480.04270084 282.7493285 479.08412105 281.625 478.125 C280.99851562 477.59132813 280.37203125 477.05765625 279.7265625 476.5078125 C278.44163349 475.38567993 277.20628025 474.20628025 276 473 C272.27648795 473.3561077 269.49566855 474.65026094 266.25 476.4375 C261.52559863 478.89191873 257.22975672 480.07213994 252 481 C252 485.62 252 490.24 252 495 C248.18558529 495.63573578 245.17254917 496.1270571 241.43359375 496.1328125 C240.61826172 496.13410156 239.80292969 496.13539063 238.96289062 496.13671875 C238.12951172 496.13285156 237.29613281 496.12898437 236.4375 496.125 C235.60025391 496.12886719 234.76300781 496.13273438 233.90039062 496.13671875 C233.08634766 496.13542969 232.27230469 496.13414062 231.43359375 496.1328125 C230.33615845 496.13112061 230.33615845 496.13112061 229.21655273 496.12939453 C227 496 227 496 222 495 C222 490.38 222 485.76 222 481 C220.1746875 480.690625 220.1746875 480.690625 218.3125 480.375 C212.73145801 479.18792123 207.95289693 476.66960939 202.91796875 474.046875 C200.13961204 472.72822794 200.13961204 472.72822794 197.81640625 473.6328125 C195.96560993 475.025885 194.35116782 476.45105183 192.75 478.125 C191.8425 479.07375 190.935 480.0225 190 481 C185.38172678 479.55146412 182.32252558 476.89198185 178.875 473.625 C178.08802734 472.90183594 178.08802734 472.90183594 177.28515625 472.1640625 C173.19487353 468.35336873 173.19487353 468.35336873 171.82096386 465.86202621 C169.48321276 463.47155932 167.68568583 463.51106647 164.43047935 463.45750165 C163.28797549 463.46914228 163.28797549 463.46914228 162.12239075 463.48101807 C161.31128411 463.47351681 160.50017746 463.46601556 159.66449183 463.458287 C156.93728488 463.43793165 154.21090312 463.44612766 151.48364258 463.45410156 C149.53247755 463.4453708 147.5813197 463.43488677 145.63017273 463.42277527 C140.32467786 463.3948338 135.01941567 463.39151238 129.71385789 463.39249516 C124.17244095 463.38937304 118.6311299 463.36376952 113.08976746 463.34051514 C102.59257609 463.29989773 92.09544693 463.27960094 81.59818906 463.26654124 C69.64907685 463.25069062 57.70007081 463.2122832 45.75102007 463.17194796 C21.16738231 463.08947045 -3.41625261 463.03542742 -28 463 C-28.04677224 455.56644908 -28.08209343 448.13291382 -28.10362434 440.69924831 C-28.11396899 437.24581566 -28.1279528 433.7924852 -28.15087891 430.33911133 C-28.17719111 426.34976337 -28.18654957 422.36051918 -28.1953125 418.37109375 C-28.20563507 417.15796005 -28.21595764 415.94482635 -28.22659302 414.69493103 C-28.22925837 393.87325578 -24.21775931 377.58841703 -9.98046875 361.75390625 C-0.72523359 352.67563543 12.97434594 346.0977187 25.96875 345.95703125 C36.37582038 345.81859333 41.31519157 344.43186019 49 337 C51.33325108 335.11095095 53.72724357 333.30608124 56.125 331.5 C57.25327459 330.63629174 58.38093762 329.77178365 59.5078125 328.90625 C60.33023438 328.2771875 61.15265625 327.648125 62 327 C61.154375 326.01 60.30875 325.02 59.4375 324 C58.88578125 323.34902344 58.3340625 322.69804687 57.765625 322.02734375 C56.66288648 320.7611462 55.5312147 319.51893699 54.359375 318.31640625 C50.32320035 314.08219499 47.29008027 309.47827357 44.375 304.4375 C44.01494873 303.83172119 43.65489746 303.22594238 43.28393555 302.60180664 C39.35411207 295.5764089 37.66395116 288.99185349 35 281 C-58.555 280.505 -58.555 280.505 -154 280 C-154 193.91796275 -154 193.91796275 -135.68359375 175.5546875 C-123.0523119 163.53014844 -108.66552096 158.86779008 -91.5 158.375 C-90.39140625 158.33632812 -89.2828125 158.29765625 -88.140625 158.2578125 C-85.42724203 158.16424757 -82.71385339 158.07850517 -80 158 C-82.97793072 156.28950623 -85.95749826 154.58188291 -88.9375 152.875 C-89.86014648 152.34600098 -90.78279297 151.81700195 -91.73339844 151.27197266 C-97.11097624 148.19664239 -102.5056734 145.15605812 -107.92578125 142.15625 C-109.63036499 141.21096436 -109.63036499 141.21096436 -111.36938477 140.24658203 C-113.60560261 139.00856326 -115.84434161 137.77508646 -118.08569336 136.54638672 C-119.1041333 135.98193848 -120.12257324 135.41749023 -121.171875 134.8359375 C-122.0803418 134.33626465 -122.98880859 133.8365918 -123.92480469 133.32177734 C-126 132 -126 132 -127 130 C-126.07421875 127.71484375 -126.07421875 127.71484375 -124.6875 124.9375 C-122.35098915 119.97322349 -120.83972511 115.40939199 -120 110 C-119.88914063 109.30648437 -119.77828125 108.61296875 -119.6640625 107.8984375 C-117.73128227 93.53317905 -119.01270526 78.14858253 -121.55078125 63.91015625 C-124.35170733 45.76502646 -120.38712755 29.78260826 -109.7421875 14.828125 C-83.22737914 -18.7629827 -34.39046092 -25.72721504 0 0 Z M231 168 C234.47825081 172.0745356 234.47825081 172.0745356 238 173 C241.20212693 171.19867777 241.20212693 171.19867777 244 169 C244 168.67 244 168.34 244 168 C239.71 168 235.42 168 231 168 Z M92 340 C95.41854332 343.80675881 95.41854332 343.80675881 97.875 345 C101.32945499 345 103.34932766 343.04824681 106 341 C106 340.67 106 340.34 106 340 C101.38 340 96.76 340 92 340 Z " fill="#63B8FB" transform="translate(157,16)"/>
<path d="M0 0 C6.2031554 2.06771847 9.53836462 11.19534363 12.4921875 16.86328125 C19.09209189 31.35437568 20.37842542 46.11776768 20.4375 61.8125 C20.4436734 62.50942963 20.4498468 63.20635925 20.45620728 63.92440796 C20.5906685 87.54128818 13.1222161 108.80184699 -3.55175781 125.81323242 C-5.66700185 127.91241045 -7.82080476 129.9674422 -10 132 C-7.81565024 133.8995663 -5.62767717 135.79467211 -3.4375 137.6875 C-2.82841797 138.21794922 -2.21933594 138.74839844 -1.59179688 139.29492188 C0.25379488 140.8866227 2.1214131 142.4474366 4 144 C4.57024902 144.48968262 5.14049805 144.97936523 5.72802734 145.48388672 C10.23055301 149.08410263 13.81088554 149.73982269 19.5 149.75 C20.9479841 149.78367405 22.39590693 149.82010258 23.84375 149.859375 C24.88873657 149.87786499 24.88873657 149.87786499 25.95483398 149.89672852 C28 150 28 150 31.81640625 150.63671875 C35.18818144 151.33678305 35.18818144 151.33678305 38.4375 149.0625 C39.283125 148.381875 40.12875 147.70125 41 147 C43.97 149.97 46.94 152.94 50 156 C51.46759766 155.27683594 51.46759766 155.27683594 52.96484375 154.5390625 C59.91128921 151.17261955 66.30739886 148.21462123 74 147 C74 142.38 74 137.76 74 133 C80.76180724 131.87303213 80.76180724 131.87303213 84.05859375 131.8671875 C84.77466797 131.86589844 85.49074219 131.86460937 86.22851562 131.86328125 C86.95748047 131.86714844 87.68644531 131.87101563 88.4375 131.875 C89.16259766 131.87113281 89.88769531 131.86726562 90.63476562 131.86328125 C95.18953626 131.87146592 99.50633814 132.25401661 104 133 C104.33 137.62 104.66 142.24 105 147 C106.815 147.5775 108.63 148.155 110.5 148.75 C114.35931481 150.01975098 117.9311443 151.37261063 121.5 153.3125 C124.65384636 155.20005487 124.65384636 155.20005487 126.984375 154.828125 C129.50866121 153.79101516 130.88057522 152.41477621 132.75 150.4375 C133.36359375 149.79683594 133.9771875 149.15617188 134.609375 148.49609375 C135.06828125 148.00238281 135.5271875 147.50867188 136 147 C143.8487223 151.43501777 153.05026078 158.65371848 157 167 C156.75871153 170.62642373 155.00535685 172.32220807 152.4375 174.75 C151.79683594 175.36359375 151.15617187 175.9771875 150.49609375 176.609375 C150.00238281 177.06828125 149.50867188 177.5271875 149 178 C149.49371094 178.99 149.98742187 179.98 150.49609375 181 C151.14383752 182.3330379 151.79093867 183.66638818 152.4375 185 C152.92573242 185.97259766 152.92573242 185.97259766 153.42382812 186.96484375 C155.69605744 191.69670273 156.58512444 195.76438733 157 201 C161.62 201 166.24 201 171 201 C172.3463268 203.69265361 172.12962636 205.80114249 172.1328125 208.8125 C172.13410156 209.97007812 172.13539063 211.12765625 172.13671875 212.3203125 C172.13285156 213.53460938 172.12898438 214.74890625 172.125 216 C172.12886719 217.21429688 172.13273437 218.42859375 172.13671875 219.6796875 C172.13478516 221.41605469 172.13478516 221.41605469 172.1328125 223.1875 C172.13168457 224.25355469 172.13055664 225.31960938 172.12939453 226.41796875 C172 229 172 229 171 231 C166.38 231 161.76 231 157 231 C156.979375 232.03125 156.95875 233.0625 156.9375 234.125 C156.3606986 239.31621258 153.82560789 243.61817119 151.26342773 248.07470703 C149.31332373 251.47572975 149.31332373 251.47572975 149.59375 255.234375 C151.47124164 257.59167006 153.57882446 259.47542717 155.85546875 261.4375 C157 263 157 263 156.9921875 264.8203125 C155.5441431 268.00144942 153.30667414 270.35807261 150.9375 272.875 C150.44596436 273.40512695 149.95442871 273.93525391 149.44799805 274.48144531 C145.64890299 278.49842511 141.63901928 281.9693513 137 285 C135.87411986 284.04270084 134.7493285 283.08412105 133.625 282.125 C132.99851562 281.59132813 132.37203125 281.05765625 131.7265625 280.5078125 C130.44163349 279.38567993 129.20628025 278.20628025 128 277 C124.27648795 277.3561077 121.49566855 278.65026094 118.25 280.4375 C113.52559863 282.89191873 109.22975672 284.07213994 104 285 C104 289.62 104 294.24 104 299 C100.18558529 299.63573578 97.17254917 300.1270571 93.43359375 300.1328125 C92.61826172 300.13410156 91.80292969 300.13539063 90.96289062 300.13671875 C89.71282227 300.13091797 89.71282227 300.13091797 88.4375 300.125 C87.60025391 300.12886719 86.76300781 300.13273437 85.90039062 300.13671875 C85.08634766 300.13542969 84.27230469 300.13414062 83.43359375 300.1328125 C82.70197021 300.13168457 81.97034668 300.13055664 81.21655273 300.12939453 C79 300 79 300 74 299 C74 294.38 74 289.76 74 285 C72.783125 284.79375 71.56625 284.5875 70.3125 284.375 C64.73145801 283.18792123 59.95289693 280.66960939 54.91796875 278.046875 C52.13961204 276.72822794 52.13961204 276.72822794 49.81640625 277.6328125 C47.96560993 279.025885 46.35116782 280.45105183 44.75 282.125 C43.8425 283.07375 42.935 284.0225 42 285 C37.38172678 283.55146412 34.32252558 280.89198185 30.875 277.625 C30.35035156 277.14289063 29.82570313 276.66078125 29.28515625 276.1640625 C25.19487353 272.35336873 25.19487353 272.35336873 23.82096386 269.86202621 C21.48321276 267.47155932 19.68568583 267.51106647 16.43047935 267.45750165 C15.28797549 267.46914228 15.28797549 267.46914228 14.12239075 267.48101807 C13.31128411 267.47351681 12.50017746 267.46601556 11.66449183 267.458287 C8.93728488 267.43793165 6.21090312 267.44612766 3.48364258 267.45410156 C1.53247755 267.4453708 -0.4186803 267.43488677 -2.36982727 267.42277527 C-7.67532214 267.3948338 -12.98058433 267.39151238 -18.28614211 267.39249516 C-23.82755905 267.38937304 -29.3688701 267.36376952 -34.91023254 267.34051514 C-45.40742391 267.29989773 -55.90455307 267.27960094 -66.40181094 267.26654124 C-78.35092315 267.25069062 -90.29992919 267.2122832 -102.24897993 267.17194796 C-126.83261769 267.08947045 -151.41625261 267.03542742 -176 267 C-176.04677224 259.56644908 -176.08209343 252.13291382 -176.10362434 244.69924831 C-176.11396899 241.24581566 -176.1279528 237.7924852 -176.15087891 234.33911133 C-176.17719111 230.34976337 -176.18654957 226.36051918 -176.1953125 222.37109375 C-176.20563507 221.15796005 -176.21595764 219.94482635 -176.22659302 218.69493103 C-176.22925837 197.87325578 -172.21775931 181.58841703 -157.98046875 165.75390625 C-148.72523359 156.67563543 -135.02565406 150.0977187 -122.03125 149.95703125 C-111.62417962 149.81859333 -106.68480843 148.43186019 -99 141 C-96.66674892 139.11095095 -94.27275643 137.30608124 -91.875 135.5 C-90.74672541 134.63629174 -89.61906238 133.77178365 -88.4921875 132.90625 C-87.66976562 132.2771875 -86.84734375 131.648125 -86 131 C-86.845625 130.01 -87.69125 129.02 -88.5625 128 C-89.11421875 127.34902344 -89.6659375 126.69804687 -90.234375 126.02734375 C-91.33711352 124.7611462 -92.4687853 123.51893699 -93.640625 122.31640625 C-108.03857549 107.21201427 -113.68381895 87.30608115 -115 67 C-115.0721875 65.96746094 -115.144375 64.93492187 -115.21875 63.87109375 C-115.55750778 54.17415239 -114.04516082 44.18119546 -107.59765625 36.640625 C-97.35659494 26.12413172 -84.91568922 23.19041612 -70.65625 22.78125 C-57.36298243 22.62384855 -57.36298243 22.62384855 -52 24 C-36.71949676 25.07231602 -19.74139012 17.30678089 -8.19140625 7.65234375 C-5.40499122 5.15840349 -2.64473972 2.64473972 0 0 Z M-56 144 C-52.58145668 147.80675881 -52.58145668 147.80675881 -50.125 149 C-46.67054501 149 -44.65067234 147.04824681 -42 145 C-42 144.67 -42 144.34 -42 144 C-46.62 144 -51.24 144 -56 144 Z " fill="#CBE3FE" transform="translate(305,212)"/>
<path d="M0 0 C12.56305214 10.95325549 20.25151538 25.74598316 21.75 42.375 C23.00529502 61.54066498 18.15574171 79.88415421 6.6796875 95.30078125 C4.75 97.375 4.75 97.375 2.53515625 98.375 C1.94605469 98.705 1.35695313 99.035 0.75 99.375 C0.22781389 101.52237572 0.22781389 101.52237572 0.3125 104.0625 C-0.81454695 123.60651872 -12.42296682 140.32573744 -26.25 153.375 C-15.63230678 164.1278275 -8.95759006 169.16489867 6.22265625 170.04296875 C18.63182113 170.77201041 30.64814049 177.15574091 39.0625 186.2578125 C59.97847271 212.49961159 52.75 242.7219957 52.75 276.375 C11.17 276.375 -30.41 276.375 -73.25 276.375 C-82.23473654 258.40552693 -82.23473654 258.40552693 -80.25 247.375 C-79.93164229 244.85002583 -79.65009282 242.32219905 -79.3687439 239.79284668 C-79.0556031 236.98884538 -78.72332464 234.18775828 -78.38476562 231.38671875 C-78.27044189 230.43974121 -78.15611816 229.49276367 -78.03833008 228.51708984 C-77.80356123 226.5817581 -77.5678773 224.64653715 -77.33129883 222.71142578 C-76.98576092 219.87586279 -76.64680266 217.03957018 -76.30859375 214.203125 C-76.14924599 212.92311615 -76.14924599 212.92311615 -75.98667908 211.61724854 C-74.73630569 201.15014122 -74.73630569 201.15014122 -76.25 190.8125 C-76.745 189.1109375 -76.745 189.1109375 -77.25 187.375 C-77.83007812 188.04208984 -77.83007812 188.04208984 -78.421875 188.72265625 C-78.94265625 189.28855469 -79.4634375 189.85445312 -80 190.4375 C-80.76570313 191.29021484 -80.76570313 191.29021484 -81.546875 192.16015625 C-83.25 193.375 -83.25 193.375 -85.11010742 193.13085938 C-87.57056398 192.26176942 -89.15485151 191.12489218 -91.19140625 189.49609375 C-91.93535645 188.90779785 -92.67930664 188.31950195 -93.44580078 187.71337891 C-94.22681152 187.08608887 -95.00782227 186.45879883 -95.8125 185.8125 C-97.42473225 184.53643394 -99.03801195 183.26169016 -100.65234375 181.98828125 C-101.43593262 181.36904785 -102.21952148 180.74981445 -103.02685547 180.11181641 C-107.34283622 176.73998607 -111.7829098 173.54328865 -116.25 170.375 C-112.36337673 166.38473344 -108.28492877 162.6937005 -104.0625 159.0625 C-103.43408203 158.51271484 -102.80566406 157.96292969 -102.15820312 157.39648438 C-97.48728649 153.375 -97.48728649 153.375 -95.25 153.375 C-95.6625 152.92511719 -96.075 152.47523438 -96.5 152.01171875 C-110.14124143 136.81756814 -117.7551481 121.51043563 -122.03515625 101.75 C-123.47718963 97.74383653 -125.1959972 96.1063033 -128.375 93.3125 C-138.58289152 83.7770651 -144.81401648 71.50024921 -145.55859375 57.48046875 C-146.22788577 37.30505275 -140.21824239 21.42051541 -126.84765625 6.09375 C-94.59279956 -27.66471655 -35.95094345 -28.04264489 0 0 Z M-68.25 164.375 C-64.77174919 168.4495356 -64.77174919 168.4495356 -61.25 169.375 C-58.04787307 167.57367777 -58.04787307 167.57367777 -55.25 165.375 C-55.25 165.045 -55.25 164.715 -55.25 164.375 C-59.54 164.375 -63.83 164.375 -68.25 164.375 Z " fill="#FECDBE" transform="translate(456.25,19.625)"/>
<path d="M0 0 C0.71607422 -0.00128906 1.43214844 -0.00257813 2.16992188 -0.00390625 C2.89888672 -0.00003906 3.62785156 0.00382812 4.37890625 0.0078125 C5.10400391 0.00394531 5.82910156 0.00007813 6.57617188 -0.00390625 C11.13094251 0.00427842 15.44774439 0.38682911 19.94140625 1.1328125 C20.43640625 8.0628125 20.43640625 8.0628125 20.94140625 15.1328125 C23.66390625 15.9990625 23.66390625 15.9990625 26.44140625 16.8828125 C30.30072106 18.15256348 33.87255055 19.50542313 37.44140625 21.4453125 C40.59525261 23.33286737 40.59525261 23.33286737 42.92578125 22.9609375 C45.45006746 21.92382766 46.82198147 20.54758871 48.69140625 18.5703125 C49.61179687 17.60931641 49.61179687 17.60931641 50.55078125 16.62890625 C51.0096875 16.13519531 51.46859375 15.64148438 51.94140625 15.1328125 C59.79012855 19.56783027 68.99166703 26.78653098 72.94140625 35.1328125 C72.70011778 38.75923623 70.9467631 40.45502057 68.37890625 42.8828125 C67.73824219 43.49640625 67.09757813 44.11 66.4375 44.7421875 C65.94378906 45.20109375 65.45007813 45.66 64.94140625 46.1328125 C65.43511719 47.1228125 65.92882812 48.1128125 66.4375 49.1328125 C67.08524377 50.4658504 67.73234492 51.79920068 68.37890625 53.1328125 C68.70439453 53.78121094 69.02988281 54.42960937 69.36523438 55.09765625 C71.63746369 59.82951523 72.52653069 63.89719983 72.94140625 69.1328125 C77.56140625 69.1328125 82.18140625 69.1328125 86.94140625 69.1328125 C88.28773305 71.82546611 88.07103261 73.93395499 88.07421875 76.9453125 C88.07550781 78.10289062 88.07679688 79.26046875 88.078125 80.453125 C88.07425781 81.66742188 88.07039062 82.88171875 88.06640625 84.1328125 C88.07027344 85.34710938 88.07414063 86.56140625 88.078125 87.8125 C88.07619141 89.54886719 88.07619141 89.54886719 88.07421875 91.3203125 C88.07309082 92.38636719 88.07196289 93.45242188 88.07080078 94.55078125 C87.94140625 97.1328125 87.94140625 97.1328125 86.94140625 99.1328125 C82.32140625 99.1328125 77.70140625 99.1328125 72.94140625 99.1328125 C72.92078125 100.1640625 72.90015625 101.1953125 72.87890625 102.2578125 C72.30210485 107.44902508 69.76701414 111.75098369 67.20483398 116.20751953 C65.25472998 119.60854225 65.25472998 119.60854225 65.53515625 123.3671875 C67.41264789 125.72448256 69.52023071 127.60823967 71.796875 129.5703125 C72.94140625 131.1328125 72.94140625 131.1328125 72.93359375 132.953125 C71.48554935 136.13426192 69.24808039 138.49088511 66.87890625 141.0078125 C66.38737061 141.53793945 65.89583496 142.06806641 65.3894043 142.61425781 C61.59030924 146.63123761 57.58042553 150.1021638 52.94140625 153.1328125 C51.81552611 152.17551334 50.69073475 151.21693355 49.56640625 150.2578125 C48.93992187 149.72414063 48.3134375 149.19046875 47.66796875 148.640625 C46.38303974 147.51849243 45.1476865 146.33909275 43.94140625 145.1328125 C40.2178942 145.4889202 37.4370748 146.78307344 34.19140625 148.5703125 C29.46700488 151.02473123 25.17116297 152.20495244 19.94140625 153.1328125 C19.94140625 157.7528125 19.94140625 162.3728125 19.94140625 167.1328125 C16.12699154 167.76854828 13.11395542 168.2598696 9.375 168.265625 C8.15200195 168.26755859 8.15200195 168.26755859 6.90429688 168.26953125 C6.07091797 168.26566406 5.23753906 168.26179687 4.37890625 168.2578125 C3.54166016 168.26167969 2.70441406 168.26554688 1.84179688 168.26953125 C0.62073242 168.26759766 0.62073242 168.26759766 -0.625 168.265625 C-1.35662354 168.26449707 -2.08824707 168.26336914 -2.84204102 168.26220703 C-5.05859375 168.1328125 -5.05859375 168.1328125 -10.05859375 167.1328125 C-10.05859375 162.5128125 -10.05859375 157.8928125 -10.05859375 153.1328125 C-11.27546875 152.9265625 -12.49234375 152.7203125 -13.74609375 152.5078125 C-19.32713574 151.32073373 -24.10569682 148.80242189 -29.140625 146.1796875 C-31.91898171 144.86104044 -31.91898171 144.86104044 -34.2421875 145.765625 C-36.09298382 147.1586975 -37.70742593 148.58386433 -39.30859375 150.2578125 C-40.21609375 151.2065625 -41.12359375 152.1553125 -42.05859375 153.1328125 C-46.62380601 151.68674158 -49.69031503 149.10213441 -53.12109375 145.8828125 C-53.63736328 145.41746094 -54.15363281 144.95210937 -54.68554688 144.47265625 C-58.06060528 141.35126466 -60.8471875 138.21371181 -63.05859375 134.1328125 C-62.9916053 131.44370452 -62.46998547 130.55754665 -60.61328125 128.640625 C-59.49292661 127.71828653 -58.36789316 126.80160234 -57.23828125 125.890625 C-55.78248255 124.09882452 -55.78248255 124.09882452 -56.19140625 121.34375 C-57.13423663 117.8527294 -58.45449106 114.87186602 -60.05859375 111.6328125 C-62.28666959 107.1338132 -63.20690927 104.24291939 -64.05859375 99.1328125 C-68.67859375 99.1328125 -73.29859375 99.1328125 -78.05859375 99.1328125 C-78.78650652 95.49324867 -79.18652756 92.7657863 -79.19140625 89.15625 C-79.19269531 88.2384375 -79.19398438 87.320625 -79.1953125 86.375 C-79.19144531 85.42882812 -79.18757813 84.48265625 -79.18359375 83.5078125 C-79.18746094 82.55390625 -79.19132812 81.6 -79.1953125 80.6171875 C-79.19402344 79.70195312 -79.19273437 78.78671875 -79.19140625 77.84375 C-79.18971436 76.59537354 -79.18971436 76.59537354 -79.18798828 75.32177734 C-79.05859375 73.1328125 -79.05859375 73.1328125 -78.05859375 70.1328125 C-73.43859375 70.1328125 -68.81859375 70.1328125 -64.05859375 70.1328125 C-63.74921875 68.0290625 -63.74921875 68.0290625 -63.43359375 65.8828125 C-62.3595886 60.29003013 -60.00753964 55.81375037 -57.203125 50.89453125 C-55.87539926 47.69076983 -55.8565476 46.35623672 -57.05859375 43.1328125 C-58.54304586 41.42769859 -60.14356416 40.103609 -61.87890625 38.66015625 C-63.05859375 37.1328125 -63.05859375 37.1328125 -63.05859375 35.31640625 C-61.59661387 32.12403612 -59.32314688 29.77628559 -56.93359375 27.2578125 C-56.43947998 26.72768555 -55.94536621 26.19755859 -55.4362793 25.65136719 C-51.8576701 21.8576567 -48.13462418 18.39363684 -44.05859375 15.1328125 C-43.37023437 15.73029297 -43.37023437 15.73029297 -42.66796875 16.33984375 C-41.74757813 17.13455078 -41.74757813 17.13455078 -40.80859375 17.9453125 C-40.2053125 18.46738281 -39.60203125 18.98945313 -38.98046875 19.52734375 C-37.05509737 21.13573326 -35.07807806 22.64500658 -33.05859375 24.1328125 C-32.15238281 23.65070313 -31.24617188 23.16859375 -30.3125 22.671875 C-23.61642281 19.17662943 -17.60394596 16.30364302 -10.05859375 15.1328125 C-10.05859375 10.5128125 -10.05859375 5.8928125 -10.05859375 1.1328125 C-3.29678651 0.00584463 -3.29678651 0.00584463 0 0 Z " fill="#64B9FC" transform="translate(389.05859375,343.8671875)"/>
<path d="M0 0 C6.15183413 4.69879355 11.69334848 10.05051234 16.421875 16.1953125 C16.421875 16.8553125 16.421875 17.5153125 16.421875 18.1953125 C17.52656128 18.35374634 17.52656128 18.35374634 18.65356445 18.51538086 C21.64487769 19.25008475 23.26648495 20.23536582 25.71484375 22.07421875 C26.50560303 22.66259521 27.2963623 23.25097168 28.11108398 23.85717773 C28.93552002 24.48438721 29.75995605 25.11159668 30.609375 25.7578125 C31.45636963 26.38953369 32.30336426 27.02125488 33.17602539 27.67211914 C38.4436973 31.62072352 43.57765789 35.67419865 48.51171875 40.03515625 C50.34759439 41.39696347 50.34759439 41.39696347 52.5078125 41.078125 C54.71117996 40.06187797 55.66239622 39.06363908 57.109375 37.1328125 C58.2540625 35.67875 58.2540625 35.67875 59.421875 34.1953125 C59.751875 34.1953125 60.081875 34.1953125 60.421875 34.1953125 C60.76709627 35.67174991 61.09724987 37.15171032 61.421875 38.6328125 C61.6075 39.45652344 61.793125 40.28023437 61.984375 41.12890625 C63.12937022 49.15409594 62.09806385 57.0060792 61.07421875 64.984375 C60.79603321 67.24737239 60.51804429 69.51039396 60.24023438 71.7734375 C59.80004834 75.30673627 59.35693053 78.83962928 58.90991211 82.37207031 C58.47765387 85.80441505 58.05658752 89.23799593 57.63671875 92.671875 C57.50031479 93.72307526 57.36391083 94.77427551 57.22337341 95.85733032 C56.21287212 104.19253728 56.4185293 109.94322488 60.484375 117.5078125 C63.421875 123.01648897 63.421875 123.01648897 63.421875 125.1953125 C43.951875 125.1953125 24.481875 125.1953125 4.421875 125.1953125 C4.5765625 116.2234375 4.5765625 116.2234375 4.734375 107.0703125 C4.86880307 82.6478653 1.41944118 62.64609961 -12.578125 42.1953125 C-16.04367144 43.68166425 -18.22573055 45.67843095 -20.890625 48.3203125 C-30.51228138 57.1071487 -42.04400713 61.99395772 -54.578125 65.1953125 C-55.27550781 65.38996094 -55.97289062 65.58460938 -56.69140625 65.78515625 C-58.70481907 66.22285469 -60.51945119 66.32835419 -62.578125 66.3203125 C-63.238125 66.32289063 -63.898125 66.32546875 -64.578125 66.328125 C-66.578125 66.1953125 -66.578125 66.1953125 -68.44042969 65.69970703 C-82.20837019 62.45112719 -102.13396736 64.71938728 -114.39453125 71.625 C-121.59558999 76.80357892 -125.47225211 82.67704419 -127.578125 91.1953125 C-128.14704947 94.70648347 -128.48217204 98.21335028 -128.765625 101.7578125 C-128.84748047 102.67111328 -128.92933594 103.58441406 -129.01367188 104.52539062 C-129.21149981 106.74804563 -129.39947824 108.97104805 -129.578125 111.1953125 C-143.38297397 103.64995568 -150.1759195 88.55948103 -154.578125 74.1953125 C-158.95214254 56.69924236 -153.45695073 39.22566586 -144.578125 24.1953125 C-142.11434991 20.33960148 -139.4696214 16.73972744 -136.578125 13.1953125 C-135.51271484 11.88433594 -135.51271484 11.88433594 -134.42578125 10.546875 C-102.71406344 -26.57088257 -38.26422006 -26.78495404 0 0 Z " fill="#407093" transform="translate(319.578125,170.8046875)"/>
<path d="M0 0 C6.2031554 2.06771847 9.53836462 11.19534363 12.4921875 16.86328125 C19.09209189 31.35437568 20.37842542 46.11776768 20.4375 61.8125 C20.4436734 62.50942963 20.4498468 63.20635925 20.45620728 63.92440796 C20.5932921 88.00210034 12.72323695 108.4887097 -3.5625 126.25 C-16.70396853 138.83706282 -33.70386613 144.71683068 -51.6953125 144.33984375 C-63.07125884 143.7226436 -72.84480204 138.46800675 -82 132 C-83.051875 131.360625 -84.10375 130.72125 -85.1875 130.0625 C-99.570362 119.51506786 -110.42033501 100.53131162 -113.3425293 82.93774414 C-113.64012048 80.71094116 -113.894039 78.48468443 -114.125 76.25 C-114.2077417 75.45505127 -114.2904834 74.66010254 -114.37573242 73.84106445 C-115.5506262 61.97258457 -116.51670474 48.71471842 -109.1875 38.5 C-100.20191768 27.99106343 -89.40052551 24.3245989 -76 23 C-59.37343143 22.10796353 -59.37343143 22.10796353 -52 24 C-36.71949676 25.07231602 -19.74139012 17.30678089 -8.19140625 7.65234375 C-5.40499122 5.15840349 -2.64473972 2.64473972 0 0 Z " fill="#FECDBE" transform="translate(305,212)"/>
<path d="M0 0 C13.95155306 11.38315227 23.91338268 24.59578582 27.75 42.5 C28.37360836 51.230517 27.78972614 59.48747813 26.5 68.125 C23.86282933 87.5775795 22.02502013 109.19882221 31.23046875 127.23046875 C32 129 32 129 32 132 C31.38294189 132.3309668 30.76588379 132.66193359 30.13012695 133.00292969 C17.90971255 139.56656045 5.73437837 146.17835956 -6.22143555 153.21582031 C-10.4032958 155.64844666 -14.29920931 157.69929578 -19 159 C-20.64308598 140.68338303 -20.64308598 140.68338303 -17.01953125 134.765625 C-14.4375 132.375 -14.4375 132.375 -11.671875 130.171875 C-0.39008051 121.00129351 4.27046323 103.79543897 6 90 C6.47205206 82.61466943 6.39217964 75.28648857 5 68 C4.38253906 67.92523438 3.76507813 67.85046875 3.12890625 67.7734375 C-6.5325511 66.27348522 -13.30933329 61.71217443 -19.5 54.203125 C-23.62352557 48.14669682 -25.42819297 41.07313162 -27 34 C-27.556875 34.66386719 -28.11375 35.32773437 -28.6875 36.01171875 C-33.3460328 41.40208187 -37.57545511 45.84810862 -44 49 C-44.74765625 49.36738281 -45.4953125 49.73476562 -46.265625 50.11328125 C-58.73676059 55.64483333 -71.88415672 55.20897788 -85.2421875 54.65820312 C-92.11150872 54.39477962 -92.11150872 54.39477962 -98.23046875 57.08203125 C-105.56382234 69.17477989 -104.21924298 87.3504417 -101.03515625 100.45703125 C-97.16071149 113.71786672 -92.09301112 125.70122232 -80.5 133.9375 C-77.76851438 136.20120827 -76.22422703 137.80295727 -75.56152344 141.34082031 C-75.13139615 147.24372292 -75.44837731 153.11461019 -76 159 C-81.57649551 156.86428118 -86.69797246 154.03458147 -91.9375 151.1875 C-92.98550781 150.61942627 -94.03351563 150.05135254 -95.11328125 149.46606445 C-105.90012756 143.57711246 -116.47375616 137.34052501 -127 131 C-126.49339844 129.85724609 -126.49339844 129.85724609 -125.9765625 128.69140625 C-123.30886504 122.51560952 -121.04999707 116.65405118 -120 110 C-119.88914062 109.30777344 -119.77828125 108.61554688 -119.6640625 107.90234375 C-117.73438795 93.53409139 -119.01220573 78.15138487 -121.55078125 63.91015625 C-124.35170733 45.76502646 -120.38712755 29.78260826 -109.7421875 14.828125 C-83.22737914 -18.7629827 -34.39046092 -25.72721504 0 0 Z " fill="#407093" transform="translate(157,16)"/>
<path d="M0 0 C1.77917644 3.17386984 2.52534856 6.13392085 3.25 9.6875 C5.46144915 18.76549876 10.25115554 25.72671635 18 31 C22.65569596 33.41098541 26.79460994 34.46883775 32 35 C37.59210099 52.28872656 33.0486851 71.43747739 24.98681641 87.22851562 C22.23954772 92.16027753 18.68483529 96.84026339 14.27064514 100.39112854 C11.47536427 102.77521657 9.30697603 104.66403519 8.46505737 108.32807922 C8.37023903 111.03374275 8.44102707 113.69375413 8.55859375 116.3984375 C8.53852818 129.86452815 4.6670352 141.10373483 0.0625 153.625 C-0.71786509 155.81658233 -1.49526542 158.00922248 -2.26977539 160.20288086 C-3.79275212 164.50544126 -5.33094088 168.80201932 -6.8828125 173.09423828 C-8.74469873 178.26009864 -10.53637858 183.44592402 -12.28125 188.65234375 C-12.51622696 189.35093506 -12.75120392 190.04952637 -12.99330139 190.76928711 C-14.04302754 193.89191978 -15.08865746 197.01587959 -16.13061523 200.14111328 C-16.66730835 201.7128833 -16.66730835 201.7128833 -17.21484375 203.31640625 C-17.51511475 204.20787354 -17.81538574 205.09934082 -18.12475586 206.01782227 C-19 208 -19 208 -21 209 C-21.24754532 208.26767151 -21.49509064 207.53534302 -21.75013733 206.78082275 C-24.11619309 199.78180673 -26.48329639 192.78314619 -28.85149479 185.78485489 C-30.30566692 181.48747672 -31.75898112 177.18980979 -33.21159267 172.89190388 C-34.14946533 170.11795316 -35.08853965 167.34440973 -36.02757454 164.57085228 C-36.72142785 162.51925716 -37.41322132 160.46697538 -38.10484314 158.41462708 C-40.08479755 152.55147596 -42.08669674 146.70166857 -44.23461914 140.8972168 C-47.33087236 132.51204198 -49.90538808 125.38495321 -49.3125 116.3125 C-49.24595205 109.83466476 -49.24595205 109.83466476 -51.984375 104.1328125 C-54.53164037 101.90234856 -54.53164037 101.90234856 -57.30078125 99.97265625 C-68.88357086 91.50766529 -73.96978362 75.08177002 -76.53125 61.52734375 C-77.99099103 50.54279247 -77.72670084 38.55686587 -74 28 C-71.44921875 25.1328125 -71.44921875 25.1328125 -69 23 C-68.67 22.67 -68.34 22.34 -68 22 C-66.07914973 21.93658998 -64.15600821 21.9408383 -62.234375 21.97265625 C-60.43226562 21.99102539 -60.43226562 21.99102539 -58.59375 22.00976562 C-56.07805848 22.04427969 -53.56242227 22.08316987 -51.046875 22.12695312 C-36.23895654 22.26028714 -20.90189583 20.73791477 -9 11 C-3.92963516 5.92293811 -3.92963516 5.92293811 0 0 Z " fill="#FECDBE" transform="translate(130,48)"/>
<path d="M0 0 C12.56305214 10.95325549 20.25151538 25.74598316 21.75 42.375 C23.00529502 61.54066498 18.15574171 79.88415421 6.6796875 95.30078125 C4.75714377 97.36732118 3.27061573 98.20768445 0.75 99.375 C0.73018066 98.7766333 0.71036133 98.1782666 0.68994141 97.56176758 C-0.32373022 64.24398571 -0.32373022 64.24398571 -15.9609375 35.546875 C-16.38632812 35.16015625 -16.81171875 34.7734375 -17.25 34.375 C-17.73726563 34.931875 -18.22453125 35.48875 -18.7265625 36.0625 C-29.16643674 47.299601 -43.03172325 54.2827541 -58.25 56.375 C-60.77193183 56.41010055 -63.29492202 56.3911031 -65.81640625 56.33203125 C-67.28709552 56.30961836 -68.75779967 56.28816569 -70.22851562 56.26757812 C-72.51027127 56.2307874 -74.79123672 56.18805817 -77.07250977 56.12817383 C-89.43111233 55.81998261 -101.65665508 56.3918222 -111.6015625 64.7421875 C-119.1580788 72.22707805 -120.49891292 80.00928114 -120.875 90.3125 C-120.91367187 91.18712891 -120.95234375 92.06175781 -120.9921875 92.96289062 C-121.0856107 95.09994631 -121.16885398 97.23744294 -121.25 99.375 C-133.52620401 89.02988426 -143.94923377 76.69658234 -145.46728516 59.98266602 C-146.46133973 38.82321212 -140.94622935 22.25501026 -126.84765625 6.09375 C-94.59279956 -27.66471655 -35.95094345 -28.04264489 0 0 Z " fill="#407093" transform="translate(456.25,19.625)"/>
<path d="M0 0 C14.74040691 3.51888702 26.02491898 11.40475333 34.4375 24.0625 C43.70373397 40.92317215 42.4786241 58.00412121 42.25 76.8125 C42.1675 86.403125 42.085 95.99375 42 105.875 C7.68 105.875 -26.64 105.875 -62 105.875 C-60.28049045 101.57622612 -58.33687018 97.84158311 -56.0234375 93.86328125 C-53.56212078 86.6766122 -55.13614154 78.38335532 -56.09375 70.984375 C-56.32171956 69.12110659 -56.54958073 67.25782492 -56.77734375 65.39453125 C-57.13676176 62.51380811 -57.49892838 59.63345929 -57.86376953 56.75341797 C-61.59521103 27.11003445 -61.59521103 27.11003445 -58 15.875 C-55.69 17.855 -53.38 19.835 -51 21.875 C-47.50336327 20.60961938 -44.80135463 19.17011491 -41.890625 16.86328125 C-41.13523437 16.26966797 -40.37984375 15.67605469 -39.6015625 15.06445312 C-38.82554687 14.44505859 -38.04953125 13.82566406 -37.25 13.1875 C-34.94323564 11.36750202 -32.63647975 9.5475193 -30.32739258 7.73046875 C-28.7412864 6.46597626 -27.17125757 5.18111387 -25.6159668 3.87890625 C-17.09953663 -3.11987632 -10.54487368 -1.90668058 0 0 Z " fill="#64B8FB" transform="translate(467,190.125)"/>
<path d="M0 0 C0.81210937 0.31582031 1.62421875 0.63164062 2.4609375 0.95703125 C1.5859375 1.97786458 0.7109375 2.99869792 -0.1640625 4.01953125 C-0.97423828 4.97472656 -0.97423828 4.97472656 -1.80078125 5.94921875 C-2.94371094 7.26936676 -4.11274257 8.56743698 -5.30859375 9.83984375 C-5.85902344 10.43539063 -6.40945313 11.0309375 -6.9765625 11.64453125 C-7.49089844 12.18464844 -8.00523437 12.72476562 -8.53515625 13.28125 C-9.73629984 14.92286969 -9.73629984 14.92286969 -9.39453125 16.984375 C-8.15010274 19.85394758 -6.1131561 21.26824609 -3.71875 23.19921875 C-2.5390625 24.95703125 -2.5390625 24.95703125 -2.67578125 27.75 C-3.60763003 31.21175496 -4.89714529 34.17777199 -6.4765625 37.39453125 C-8.62401837 41.89543397 -10.41080096 46.10550661 -11.5390625 50.95703125 C-16.1590625 50.95703125 -20.7790625 50.95703125 -25.5390625 50.95703125 C-25.5390625 60.52703125 -25.5390625 70.09703125 -25.5390625 79.95703125 C-20.9190625 79.95703125 -16.2990625 79.95703125 -11.5390625 79.95703125 C-11.14074219 80.97023438 -10.74242187 81.9834375 -10.33203125 83.02734375 C-9.79701571 84.37896196 -9.26185154 85.73052134 -8.7265625 87.08203125 C-8.46552734 87.7471875 -8.20449219 88.41234375 -7.93554688 89.09765625 C-6.68409052 92.24947226 -5.38283153 95.26445348 -3.84375 98.29296875 C-2.5390625 100.95703125 -2.5390625 100.95703125 -2.4765625 103.45703125 C-3.8067274 106.58683103 -5.69483315 108.24934467 -8.26171875 110.4296875 C-9.96675197 112.13658143 -9.96675197 112.13658143 -9.5390625 115.95703125 C-36.9290625 115.95703125 -64.3190625 115.95703125 -92.5390625 115.95703125 C-102.85050265 96.47986652 -102.85050265 96.47986652 -101.5390625 88.95703125 C-101.45060059 88.13096375 -101.36213867 87.30489624 -101.27099609 86.45379639 C-100.98090209 83.78514449 -100.61206118 81.13692498 -100.2265625 78.48046875 C-99.95292329 76.48961105 -99.67949245 74.4987247 -99.40625 72.5078125 C-98.97546305 69.42734393 -98.54125437 66.34741599 -98.10253906 63.26806641 C-94.84623944 42.23592119 -94.84623944 42.23592119 -96.7265625 21.20703125 C-97.19498176 17.23747825 -96.64717546 16.11128998 -94.296875 12.7578125 C-91.56066274 9.62027662 -88.58872888 6.78796294 -85.5390625 3.95703125 C-84.20131419 2.62812756 -82.86604673 1.29668359 -81.5390625 -0.04296875 C-73.5412055 3.30326108 -67.54049799 11.80494111 -62.01171875 18.26171875 C-60.27843856 20.25705987 -58.44538922 22.12695759 -56.5390625 23.95703125 C-53.08559232 22.70418797 -50.40582862 21.3013007 -47.53515625 19.015625 C-46.80103516 18.43570801 -46.06691406 17.85579102 -45.31054688 17.25830078 C-44.54033203 16.64325684 -43.77011719 16.02821289 -42.9765625 15.39453125 C-42.17154297 14.7691748 -41.36652344 14.14381836 -40.53710938 13.49951172 C-37.03356545 10.773676 -33.57983571 8.05106045 -30.32421875 5.03125 C-21.49769465 -2.73064427 -11.06769385 -3.26167137 0 0 Z " fill="#CBE3FE" transform="translate(336.5390625,363.04296875)"/>
<path d="M0 0 C1.39899359 1.03070277 2.77563283 2.09263037 4.125 3.1875 C5.06279297 3.93966797 5.06279297 3.93966797 6.01953125 4.70703125 C13.18418133 11.12243688 17.78446574 20.55472841 18.36328125 30.12890625 C18.67376096 43.0319955 17.16727203 53.33788225 8.125 63.1875 C1.17798128 70.46016022 -7.52871594 76.55405404 -17.875 77.1875 C-18.73480469 77.249375 -19.59460938 77.31125 -20.48046875 77.375 C-33.81325068 77.92693923 -43.98431498 73.16832472 -53.83984375 64.44921875 C-61.0716893 57.05912712 -65.20665866 47.23999025 -65.375 36.9375 C-65.25707708 34.68441945 -65.09413885 32.43299681 -64.875 30.1875 C-64.76478516 28.86105469 -64.76478516 28.86105469 -64.65234375 27.5078125 C-63.22475606 17.23574479 -57.17702219 8.35065617 -49.26953125 1.87109375 C-34.0447032 -8.8334754 -16.01135322 -10.13961757 0 0 Z " fill="#F1FAFE" transform="translate(416.875,392.8125)"/>
<path d="M0 0 C3.79855079 1.56877504 6.20022003 3.96523122 9.0625 6.875 C10.34833984 8.17050781 10.34833984 8.17050781 11.66015625 9.4921875 C15.58592747 13.69977535 15.58592747 13.69977535 17 16 C16.82583499 18.02031409 16.62769206 20.04026548 16.33862305 22.04736328 C14.62776104 36.96529051 16.88083872 51.75120642 19 66.5 C19.43306756 69.55666251 19.8624025 72.61372173 20.28393555 75.67199707 C20.54389911 77.55409865 20.81047754 79.43530437 21.08520508 81.31530762 C23.38566564 97.82508513 23.38566564 97.82508513 20.03125 103.6953125 C19.66580078 104.36062988 19.30035156 105.02594727 18.92382812 105.71142578 C18.45396484 106.50790527 17.98410156 107.30438477 17.5 108.125 C16.015 110.72375 14.53 113.3225 13 116 C5.08 116 -2.84 116 -11 116 C-12.485 113.40125 -13.97 110.8025 -15.5 108.125 C-15.96986328 107.32852051 -16.43972656 106.53204102 -16.92382812 105.71142578 C-17.47200195 104.71344971 -17.47200195 104.71344971 -18.03125 103.6953125 C-18.59682617 102.7055542 -18.59682617 102.7055542 -19.17382812 101.69580078 C-21.44078719 94.29870799 -19.77687271 86.03026206 -18.6875 78.5234375 C-18.41386079 76.5325798 -18.14042995 74.54169345 -17.8671875 72.55078125 C-17.43640055 69.47031268 -17.00219187 66.39038474 -16.56347656 63.31103516 C-13.30717694 42.27888994 -13.30717694 42.27888994 -15.1875 21.25 C-15.65591926 17.280447 -15.10811296 16.15425873 -12.7578125 12.80078125 C-10.02160024 9.66324537 -7.04966638 6.83093169 -4 4 C-2.66225169 2.67109631 -1.32698423 1.33965234 0 0 Z " fill="#FD6570" transform="translate(255,363)"/>
<path d="M0 0 C3.36251945 0.61931203 5.46633735 1.84438265 8.1953125 3.87890625 C8.98929443 4.46728271 9.78327637 5.05565918 10.60131836 5.66186523 C11.4341333 6.28907471 12.26694824 6.91628418 13.125 7.5625 C13.97650635 8.19422119 14.8280127 8.82594238 15.70532227 9.47680664 C20.99637444 13.4217254 26.14328427 17.46783927 31.08984375 21.83984375 C32.92571939 23.20165097 32.92571939 23.20165097 35.0859375 22.8828125 C37.28930496 21.86656547 38.24052122 20.86832658 39.6875 18.9375 C40.450625 17.968125 41.21375 16.99875 42 16 C42.33 16 42.66 16 43 16 C43.34522127 17.47643741 43.67537487 18.95639782 44 20.4375 C44.185625 21.26121094 44.37125 22.08492187 44.5625 22.93359375 C45.70749522 30.95878344 44.67618885 38.8107667 43.65234375 46.7890625 C43.37415821 49.05205989 43.09616929 51.31508146 42.81835938 53.578125 C42.37817334 57.11142377 41.93505553 60.64431678 41.48803711 64.17675781 C41.05577887 67.60910255 40.63471252 71.04268343 40.21484375 74.4765625 C40.01023781 76.05336288 40.01023781 76.05336288 39.80149841 77.66201782 C38.79099712 85.99722478 38.9966543 91.74791238 43.0625 99.3125 C46 104.82117647 46 104.82117647 46 107 C26.53 107 7.06 107 -13 107 C-11.92740015 94.12880176 -11.92740015 94.12880176 -6.9609375 89.8515625 C4.36006095 79.16201416 9.42256162 58.64276927 10.16796875 43.61328125 C10.25013458 29.72725591 8.65949564 16.37478808 1.33984375 4.25 C0 2 0 2 0 0 Z " fill="#64B8FB" transform="translate(337,189)"/>
<path d="M0 0 C3.8287839 3.20427802 7.57190789 6.36525921 10.875 10.125 C11.44992187 10.76695312 12.02484375 11.40890625 12.6171875 12.0703125 C14.13468676 14.18795271 14.70679383 15.41789407 15 18 C14.84450684 18.90991699 14.68901367 19.81983398 14.52880859 20.75732422 C12.42848305 33.6366058 14.87744615 46.94162523 16.5 59.75 C16.86083558 62.61973262 17.21900928 65.48969595 17.56994629 68.36065674 C17.78657231 70.1312108 18.00871885 71.90110258 18.2376709 73.67010498 C19.40461104 83.17021868 20.06001605 90.74044408 15 99.125 C13.02 102.528125 13.02 102.528125 11 106 C3.74 106 -3.52 106 -11 106 C-13.0109375 102.4421875 -13.0109375 102.4421875 -15.0625 98.8125 C-15.48926025 98.09553955 -15.91602051 97.3785791 -16.35571289 96.63989258 C-19.88039044 89.99392785 -18.96023665 84.26266023 -18 77 C-17.80819935 75.35881811 -17.61952674 73.71726878 -17.43334961 72.07543945 C-16.68058725 65.49199095 -15.88541836 58.91378185 -15.08129883 52.33642578 C-14.73576092 49.50086279 -14.39680266 46.66457018 -14.05859375 43.828125 C-13.89924599 42.54811615 -13.89924599 42.54811615 -13.73667908 41.24224854 C-12.46477869 31.52237435 -12.46477869 31.52237435 -14 22 C-14.89614626 15.33491223 -14.89614626 15.33491223 -12.68359375 12.0390625 C-10.86940189 10.08281983 -8.9833396 8.28423987 -7 6.5 C-6.33226562 5.86835938 -5.66453125 5.23671875 -4.9765625 4.5859375 C-3.3343527 3.03756826 -1.67657165 1.51095287 0 0 Z " fill="#FB6470" transform="translate(394,190)"/>
<path d="M0 0 C2.94919782 1.40787498 5.63308305 3.03914416 8.375 4.8125 C13.60077482 8.00215811 18.99968964 9.83639374 24.7890625 11.7578125 C27.69456954 12.88184077 29.66352205 13.99946104 32.0625 15.9375 C33.031875 16.618125 34.00125 17.29875 35 18 C38.03076169 17.42271206 39.74931167 16.1645805 42.30859375 14.484375 C45.09485009 12.94768791 47.32837988 12.35371265 50.4375 11.75 C56.87969903 10.26518089 62.17892251 7.61395352 67.96875 4.5234375 C72.30134636 2.34597284 72.30134636 2.34597284 75 2 C77.45179219 3.79778185 79.59490816 5.57105932 81.8125 7.625 C86.36761371 11.74794916 90.9354222 15.51121273 96 19 C91.81307442 23.42879977 87.20197746 27.10292504 82.375 30.8125 C81.5804541 31.42689941 80.7859082 32.04129883 79.96728516 32.67431641 C74.05736195 37.22825723 68.08611109 41.68341901 62 46 C58.23309364 44.26142784 55.78767463 42.09741625 53 39 C53 38.34 53 37.68 53 37 C52.41089844 36.74863281 51.82179688 36.49726563 51.21484375 36.23828125 C48.72355798 34.84544599 47.37699586 33.3791428 45.5625 31.1875 C42.83435639 27.9595887 40.03297715 24.94106875 37 22 C33.42723096 23.51374725 31.14319629 25.61894388 28.4375 28.375 C27.67308594 29.14585937 26.90867188 29.91671875 26.12109375 30.7109375 C23.98461445 32.92340496 23.98461445 32.92340496 22.34765625 35.2890625 C21.90292969 35.85367188 21.45820313 36.41828125 21 37 C20.34 37 19.68 37 19 37 C18.773125 37.556875 18.54625 38.11375 18.3125 38.6875 C16.64103234 41.63246684 14.44723648 43.68156544 12 46 C7.22260244 44.47051302 3.97666771 41.77955588 0.1875 38.625 C-5.42786459 34.03555327 -11.1230737 29.58483036 -16.9375 25.25 C-17.99384644 24.46230225 -17.99384644 24.46230225 -19.0715332 23.65869141 C-20.71288706 22.43715206 -22.35621149 21.21826113 -24 20 C-20.25446732 16.09130965 -16.28526293 12.73843438 -12 9.4375 C-10.79153187 8.49887144 -9.5831962 7.56007232 -8.375 6.62109375 C-7.80394531 6.17878418 -7.23289063 5.73647461 -6.64453125 5.28076172 C-4.4121994 3.54222062 -2.20409808 1.77413197 0 0 Z " fill="#9DC5FA" transform="translate(220,342)"/>
<path d="M0 0 C18.48 0 36.96 0 56 0 C52.62412002 11.25293327 52.62412002 11.25293327 51.31762695 15.17651367 C50.8762011 16.50551949 50.8762011 16.50551949 50.42585754 17.8613739 C50.11645737 18.7875502 49.80705719 19.7137265 49.48828125 20.66796875 C49.15636276 21.66468094 48.82444427 22.66139313 48.48246765 23.68830872 C47.78144795 25.79204467 47.07967923 27.89553117 46.37719727 29.9987793 C45.33062486 33.13321686 44.28720151 36.26868929 43.24414062 39.40429688 C41.52753392 44.55766359 39.79945447 49.70705536 38.06207275 54.85345459 C37.33532713 57.00654447 36.61043989 59.16026227 35.887146 61.31451416 C34.80115083 64.54184491 33.70480137 67.76547274 32.60546875 70.98828125 C32.27283524 71.98095505 31.94020172 72.97362885 31.5974884 73.99638367 C31.28583237 74.90290176 30.97417633 75.80941986 30.65307617 76.7434082 C30.38130051 77.54382034 30.10952484 78.34423248 29.82951355 79.16889954 C29 81 29 81 27 82 C26.75023407 81.26100967 26.50046814 80.52201935 26.24313354 79.76063538 C23.86211626 72.71651391 21.47999144 65.67276834 19.09669304 58.62941837 C17.87214219 55.01038693 16.64798564 51.39122322 15.42480469 47.77172852 C14.24251989 44.273374 13.05934163 40.77532312 11.87528229 37.27756882 C11.41203852 35.90906311 10.94897965 34.54049479 10.48610687 33.17186356 C7.60059677 24.64337172 4.69548062 16.12300692 1.57955933 7.67530823 C0.58932034 4.94455401 0 2.93767107 0 0 Z " fill="#F1FAFE" transform="translate(82,175)"/>
<path d="M0 0 C2.86926119 0.99339974 5.20708012 2.4788867 7.78515625 4.08203125 C12.65518149 6.99216828 17.36551218 9.06328084 22.73046875 10.859375 C26.17679274 12.11798548 29.11315226 13.83472877 32.22265625 15.76953125 C33.29515625 15.00640625 34.36765625 14.24328125 35.47265625 13.45703125 C38.94630957 11.26378982 42.02758284 10.19938091 46.03515625 9.33203125 C51.63218286 8.11189364 55.97862002 5.95449984 60.84765625 2.9765625 C63.22265625 1.76953125 63.22265625 1.76953125 67.22265625 1.76953125 C68.8984375 2.73168945 68.8984375 2.73168945 70.53515625 4.0703125 C71.13585937 4.55306641 71.7365625 5.03582031 72.35546875 5.53320312 C72.97164063 6.04431641 73.5878125 6.55542969 74.22265625 7.08203125 C75.4516497 8.0783387 76.6808119 9.07443805 77.91015625 10.0703125 C78.76867187 10.77341553 78.76867187 10.77341553 79.64453125 11.49072266 C81.46734369 12.96780984 83.33003286 14.38318462 85.22265625 15.76953125 C83.74525574 19.41694246 81.80535794 21.14401514 78.6796875 23.484375 C77.77025391 24.17080078 76.86082031 24.85722656 75.92382812 25.56445312 C74.97056641 26.27150391 74.01730469 26.97855469 73.03515625 27.70703125 C72.10123047 28.41021484 71.16730469 29.11339844 70.20507812 29.83789062 C65.25937834 33.55151601 60.27318005 37.19993559 55.22265625 40.76953125 C50.8657306 39.10114752 48.04067131 35.84824912 44.84765625 32.58203125 C44.27055908 31.99848877 43.69346191 31.41494629 43.09887695 30.8137207 C39.29294729 26.93879813 35.65297837 22.983927 32.22265625 18.76953125 C24.17199475 25.47841583 17.01250708 32.79145652 10.22265625 40.76953125 C6.88706995 40.16073915 4.91662001 38.99834469 2.28125 36.890625 C1.16532471 36.00818115 1.16532471 36.00818115 0.02685547 35.10791016 C-0.75415527 34.48062012 -1.53516602 33.85333008 -2.33984375 33.20703125 C-3.952076 31.93096519 -5.5653557 30.65622141 -7.1796875 29.3828125 C-7.96327637 28.7635791 -8.74686523 28.1443457 -9.55419922 27.50634766 C-13.87017997 24.13451732 -18.31025355 20.9378199 -22.77734375 17.76953125 C-18.90126214 13.78270446 -14.81978163 10.12624944 -10.58984375 6.51953125 C-9.6472168 5.70742187 -9.6472168 5.70742187 -8.68554688 4.87890625 C-2.59069906 -0.3359368 -2.59069906 -0.3359368 0 0 Z " fill="#CBE3FE" transform="translate(362.77734375,172.23046875)"/>
<path d="M0 0 C9.57 0 19.14 0 29 0 C29 3 29 3 27.75 4.578125 C26.88375 5.40570313 26.88375 5.40570313 26 6.25 C25.36578125 6.85972656 24.7315625 7.46945313 24.078125 8.09765625 C21.37350353 10.57350335 18.60716966 12.96919182 15.796875 15.32421875 C13.63627016 17.24075831 13.63627016 17.24075831 11 21 C14.3 24.3 17.6 27.6 21 31 C19.30427347 34.39145307 18.41745372 35.7940711 15.8125 38.25 C13.31189461 40.61591236 11.03540528 43.09561082 8.79296875 45.703125 C4.2339165 50.95466851 -0.72492123 55.77456486 -5.68359375 60.64453125 C-9.79871604 64.71500483 -13.71568289 68.8758501 -17.49072266 73.26367188 C-19.22719891 75.26137798 -21.04689317 77.14797698 -22.9375 79 C-23.52402344 79.5775 -24.11054687 80.155 -24.71484375 80.75 C-25.13894531 81.1625 -25.56304687 81.575 -26 82 C-27.54127252 78.04960614 -26.39869252 75.370272 -25.06567383 71.46240234 C-24.8479129 70.81463837 -24.63015198 70.16687439 -24.40579224 69.4994812 C-23.68299388 67.35804878 -22.94522683 65.22210619 -22.20703125 63.0859375 C-21.69867522 61.59132061 -21.19117571 60.09641214 -20.68449402 58.60122681 C-19.61885578 55.46354697 -18.54642843 52.32830478 -17.46850586 49.19482422 C-16.09559211 45.20370651 -14.73397416 41.20886332 -13.37682056 37.21236229 C-12.07401647 33.37725884 -10.76584957 29.54399184 -9.45703125 25.7109375 C-9.2114982 24.99068768 -8.96596516 24.27043785 -8.71299171 23.52836227 C-8.00530587 21.45589627 -7.29388478 19.38475044 -6.58129883 17.31396484 C-6.17857254 16.14022308 -5.77584625 14.96648132 -5.36091614 13.75717163 C-3.68479106 9.12978173 -1.82783582 4.56958956 0 0 Z " fill="#33A7FB" transform="translate(138,175)"/>
<path d="M0 0 C1.20970459 0.00523682 2.41940918 0.01047363 3.66577148 0.01586914 C4.97094727 0.0190918 6.27612305 0.02231445 7.62084961 0.02563477 C9.00952213 0.03399138 10.39819401 0.04245634 11.78686523 0.05102539 C13.17944179 0.05603873 14.57202005 0.06060193 15.96459961 0.06469727 C19.38456394 0.07653105 22.80444367 0.09301659 26.22436523 0.11352539 C26.49110046 0.90342361 26.75783569 1.69332184 27.03265381 2.50715637 C29.56131577 9.99467841 32.09121 17.48178273 34.62244797 24.96843433 C35.92336346 28.81629638 37.22382185 32.66431158 38.52319336 36.51269531 C39.77996622 40.23485563 41.03799491 43.9565894 42.29685211 47.67804527 C42.77405702 49.08946672 43.25082871 50.50103473 43.7271347 51.91275978 C44.40047835 53.90822725 45.07532921 55.90317801 45.75073242 57.89794922 C46.16722046 59.12840973 46.5837085 60.35887024 47.01281738 61.62661743 C48.43002664 65.70543135 49.95253339 69.73815437 51.5322876 73.75663757 C52.28382215 76.3160074 52.35081021 78.46026368 52.22436523 81.11352539 C47.15255767 76.86523297 42.38695068 72.42995157 37.72436523 67.73852539 C37.09916992 67.11719727 36.47397461 66.49586914 35.82983398 65.85571289 C32.70595292 62.72536417 29.69657804 59.54632823 26.81420898 56.19165039 C22.16105601 50.80164986 17.02625261 45.9031404 11.92553711 40.94165039 C11.19012695 40.21719727 10.4547168 39.49274414 9.69702148 38.74633789 C9.02936768 38.09552246 8.36171387 37.44470703 7.67382812 36.77416992 C6.22436523 35.11352539 6.22436523 35.11352539 6.22436523 33.11352539 C5.56436523 33.11352539 4.90436523 33.11352539 4.22436523 33.11352539 C5.72785901 29.44566146 7.86165316 27.42442146 10.84936523 24.86352539 C11.66663086 24.15711914 12.48389648 23.45071289 13.32592773 22.72290039 C13.95241211 22.19180664 14.57889648 21.66071289 15.22436523 21.11352539 C11.4825259 16.52977221 7.6339259 12.64824384 3.12670898 8.82446289 C0.50419579 6.46581653 -1.60805134 3.89074165 -3.77563477 1.11352539 C-2.77563477 0.11352539 -2.77563477 0.11352539 0 0 Z " fill="#33A7FB" transform="translate(55.775634765625,174.886474609375)"/>
<path d="M0 0 C6.2031554 2.06771847 9.53836462 11.19534363 12.4921875 16.86328125 C19.09209189 31.35437568 20.37842542 46.11776768 20.4375 61.8125 C20.4436734 62.50942963 20.4498468 63.20635925 20.45620728 63.92440796 C20.5932921 88.00210034 12.72323695 108.4887097 -3.5625 126.25 C-11.69809338 134.04237303 -22.9789093 140.43639847 -34 143 C-34.94875 143.226875 -35.8975 143.45375 -36.875 143.6875 C-41.58170316 144.15817032 -46.27423354 144.07567953 -51 144 C-47.76200657 142.21754689 -44.56022025 141.27672632 -41 140.3125 C-23.97442438 135.06801465 -11.38433572 123.48508751 -2.640625 108.18359375 C10.20327449 83.26031259 13.28198651 54.39531837 4.8984375 27.4609375 C2.55431228 21.0032506 -0.4230866 15.16541545 -4.05859375 9.33984375 C-5 7 -5 7 -4.26171875 4.80078125 C-2.98664392 2.9809376 -1.64254342 1.49322129 0 0 Z " fill="#FDB09F" transform="translate(305,212)"/>
<path d="M0 0 C12.68999757 11.85695615 17.14037382 30.6686702 18.22094727 47.42651367 C19.05580758 72.4067397 15.32453208 94.02048213 -2 113 C-2.55171875 113.64324219 -3.1034375 114.28648437 -3.671875 114.94921875 C-11.70046542 123.76155252 -24.34982234 129.10475579 -36 131 C-37.43628457 131.06266512 -38.8750555 131.08686347 -40.3125 131.0625 C-42.1378125 131.0315625 -42.1378125 131.0315625 -44 131 C-41.71689838 128.71689838 -40.5149066 128.47250356 -37.4375 127.6875 C-27.37004329 124.75537129 -20.43203804 119.28339728 -13 112 C-12.05640625 111.11054688 -12.05640625 111.11054688 -11.09375 110.203125 C2.94012779 95.78650509 8.39277816 73.08601094 8.30249023 53.65869141 C7.93786347 38.47325864 5.19281028 17.19281028 -6 6 C-4.02 4.02 -2.04 2.04 0 0 Z " fill="#FCB09F" transform="translate(439,53)"/>
<path d="M0 0 C1.77917644 3.17386984 2.52534856 6.13392085 3.25 9.6875 C5.46144915 18.76549876 10.25115554 25.72671635 18 31 C22.65569596 33.41098541 26.79460994 34.46883775 32 35 C37.59210099 52.28872656 33.0486851 71.43747739 24.98681641 87.22851562 C22.53526747 91.62941595 19.40215802 95.31661521 16 99 C15.505 99.62003906 15.01 100.24007812 14.5 100.87890625 C7.66105317 108.83986779 -6.041962 115.36131316 -16.43359375 116.1953125 C-19.21679688 116.09765625 -19.21679688 116.09765625 -22 116 C-19.20591677 114.13727785 -17.08888425 113.28383541 -13.9375 112.25 C0.89815606 106.92638727 11.22334616 97.28505904 18 83 C22.338633 72.34642541 25.1862072 62.10005673 25.125 50.5625 C25.12886719 49.83740234 25.13273437 49.11230469 25.13671875 48.36523438 C25.12853408 43.81046374 24.74598339 39.49366186 24 35 C22.2984375 35.1546875 22.2984375 35.1546875 20.5625 35.3125 C13.58223633 35.28783476 8.21175424 31.36733746 3.25 26.75 C-1.27143432 21.93346041 -5 16.71509201 -5 10 C-5.66 9.67 -6.32 9.34 -7 9 C-6.57847656 8.51789062 -6.15695313 8.03578125 -5.72265625 7.5390625 C-5.17480469 6.90742187 -4.62695312 6.27578125 -4.0625 5.625 C-3.24458984 4.68527344 -3.24458984 4.68527344 -2.41015625 3.7265625 C-0.93041376 2.04367666 -0.93041376 2.04367666 0 0 Z " fill="#FAAF9F" transform="translate(130,48)"/>
<path d="M0 0 C2.57127382 1.99952998 3.83794343 3.1856457 4.48101807 6.41717529 C4.47213562 7.31430237 4.46325317 8.21142944 4.45410156 9.13574219 C4.45379944 10.15649841 4.45349731 11.17725464 4.45318604 12.22894287 C4.43254089 13.32386047 4.41189575 14.41877808 4.390625 15.546875 C4.38496521 16.6732135 4.37930542 17.799552 4.37347412 18.96002197 C4.35108545 22.55711382 4.30088213 26.15320926 4.25 29.75 C4.22993833 32.1887877 4.21168698 34.62759101 4.1953125 37.06640625 C4.15121211 43.0446547 4.0821653 49.02215842 4 55 C-0.62 55 -5.24 55 -10 55 C-10.07404948 47.64935524 -10.12855489 40.29892665 -10.16479492 32.94799805 C-10.17989944 30.44633198 -10.20038429 27.94469247 -10.22631836 25.44311523 C-10.26262775 21.85133316 -10.27970975 18.25990059 -10.29296875 14.66796875 C-10.31619453 12.98503975 -10.31619453 12.98503975 -10.33988953 11.26811218 C-10.34022942 9.70683342 -10.34022942 9.70683342 -10.34057617 8.11401367 C-10.34723801 7.19690109 -10.35389984 6.27978851 -10.36076355 5.33488464 C-10 3 -10 3 -8.69355774 1.2077179 C-5.82180337 -0.84020115 -3.39480602 -0.416906 0 0 Z " fill="#9DC6FB" transform="translate(179,424)"/>
<path d="M0 0 C3.79855079 1.56877504 6.20022003 3.96523122 9.0625 6.875 C10.34833984 8.17050781 10.34833984 8.17050781 11.66015625 9.4921875 C16.94209221 15.15329415 16.94209221 15.15329415 17.14453125 18.11328125 C17.03496094 18.83902344 16.92539062 19.56476563 16.8125 20.3125 C16.71582031 21.03050781 16.61914062 21.74851562 16.51953125 22.48828125 C15.85516641 25.7002105 14.90106311 28.84627912 14 32 C5.42 32 -3.16 32 -12 32 C-15.69109948 19.69633508 -15.69109948 19.69633508 -15 16 C-13.30487102 13.70280797 -11.74757807 11.86241228 -9.75 9.875 C-9.25886719 9.36324219 -8.76773438 8.85148437 -8.26171875 8.32421875 C-6.85715007 6.86721284 -5.42903025 5.43302196 -4 4 C-3.22140625 3.21882813 -2.4428125 2.43765625 -1.640625 1.6328125 C-1.09921875 1.09398437 -0.5578125 0.55515625 0 0 Z " fill="#E32230" transform="translate(255,363)"/>
<path d="M0 0 C2.19824219 1.36035156 2.19824219 1.36035156 4 4 C4.56093528 7.55909949 4.46429714 11.07689012 4.390625 14.671875 C4.38496521 15.70942932 4.37930542 16.74698364 4.37347412 17.815979 C4.35109491 21.12778992 4.30089419 24.43851644 4.25 27.75 C4.22993706 29.99607812 4.21168594 32.24217321 4.1953125 34.48828125 C4.1512248 39.99260492 4.08218523 45.49611865 4 51 C-0.62 51 -5.24 51 -10 51 C-10.0740655 44.21901858 -10.12856234 37.43827175 -10.16479492 30.65698242 C-10.17989676 28.34932352 -10.20037969 26.04169339 -10.22631836 23.73413086 C-10.26263975 20.42033801 -10.27971236 17.10692408 -10.29296875 13.79296875 C-10.30845261 12.7585112 -10.32393646 11.72405365 -10.33988953 10.6582489 C-10.34011612 9.6974794 -10.34034271 8.7367099 -10.34057617 7.74682617 C-10.34723801 6.90077316 -10.35389984 6.05472015 -10.36076355 5.18302917 C-9.40250428 -0.61552767 -5.08279993 -0.6242035 0 0 Z " fill="#31A7FB" transform="translate(470,245)"/>
<path d="M0 0 C3.8287839 3.20427802 7.57190789 6.36525921 10.875 10.125 C11.44992187 10.76695312 12.02484375 11.40890625 12.6171875 12.0703125 C14.6418865 14.89573992 15.15401224 16.84293367 14.6953125 20.2890625 C14.50710938 21.05992187 14.31890625 21.83078125 14.125 22.625 C13.94195312 23.40101563 13.75890625 24.17703125 13.5703125 24.9765625 C13 27 13 27 12 29 C4.08 29 -3.84 29 -12 29 C-15.07327141 18.24355005 -15.07327141 18.24355005 -14 14 C-12.02607385 11.09167094 -9.60434869 8.84290828 -7 6.5 C-6.33226562 5.86835938 -5.66453125 5.23671875 -4.9765625 4.5859375 C-3.3343527 3.03756826 -1.67657165 1.51095287 0 0 Z " fill="#E2202F" transform="translate(394,190)"/>
<path d="M0 0 C12.76400979 -0.82793577 23.96591205 1.85839229 34 10 C34.62519531 10.50144531 35.25039063 11.00289063 35.89453125 11.51953125 C43.05918133 17.93493688 47.65946574 27.36722841 48.23828125 36.94140625 C48.54876096 49.8444955 47.04227203 60.15038225 38 70 C31.05298128 77.27266022 22.34628406 83.36655404 12 84 C7.99831057 84.06196164 4.00167481 84.05827682 0 84 C0 83.67 0 83.34 0 83 C1.30710937 82.88785156 1.30710937 82.88785156 2.640625 82.7734375 C14.46000752 81.46870047 24.12744315 78.04853894 32.31640625 69.14453125 C41.22891745 57.79193578 42.15804801 45.95284956 41 32 C39.10085459 22.64073847 32.42573583 14.25816927 25.06640625 8.34765625 C17.28068635 3.27001284 9.21111145 1.1994532 0 1 C0 0.67 0 0.34 0 0 Z " fill="#CAE3FE" transform="translate(387,386)"/>
<path d="M0 0 C-0.33 0.66 -0.66 1.32 -1 2 C-3.75078884 2.91692961 -5.35948913 3.10886083 -8.1875 3.0625 C-10.0746875 3.0315625 -10.0746875 3.0315625 -12 3 C-8.52582963 0.68388642 -4.04642977 -2.02321489 0 0 Z " fill="#FFB6A5" transform="translate(120,161)"/>
</svg>
