<svg xmlns="http://www.w3.org/2000/svg" xmlns:v="https://svgstorm.com"
viewBox = "0 0 512 512"
width="512"
height="512">
<g fill="None" fill-opacity="0.0" stroke="#000000" stroke-opacity="0.00" stroke-width="0.3"><path d="
M 0.00 512.00 
L 512.00 512.00
L 512.00 0.00
L 0.00 0.00
L 0.00 512.00
M 408.00 215.00 
C 408.00 221.67 408.00 228.33 408.00 235.00
C 412.92 232.33 418.48 231.67 424.00 231.00
C 416.32 265.52 450.06 285.12 454.00 316.00
C 460.11 314.04 465.63 310.33 472.00 309.00
C 464.15 345.81 497.93 370.86 501.99 404.01 C 506.05 437.16 501.75 473.58 468.92 491.92 C 436.08 510.26 394.39 503.05 355.00 504.00 C 315.61 504.95 270.59 503.51 230.00 504.00 C 189.41 504.49 144.94 503.63 104.00 504.00
C 104.00 477.33 104.00 450.67 104.00 424.00
C 78.11 421.82 54.71 427.32 28.93 423.07 C 3.14 418.82 7.73 389.43 8.00 367.00 C 8.27 344.57 7.68 314.72 8.00 291.00 C 8.32 267.28 7.41 237.80 8.00 214.00 C 8.59 190.20 6.74 160.71 8.00 138.00 C 9.26 115.29 2.16 91.39 15.75 78.75 C 29.35 66.12 51.75 73.38 75.00 72.00 C 98.25 70.62 127.55 72.65 152.00 72.00 C 176.45 71.35 203.02 72.34 228.00 72.00 C 252.98 71.66 279.85 72.25 305.00 72.00
C 311.71 48.61 336.61 26.90 358.77 16.42 C 380.93 5.95 419.63 5.95 442.30 17.71 C 464.98 29.48 489.51 49.60 497.76 75.25 C 506.01 100.90 506.05 136.11 493.07 159.08 C 480.08 182.05 443.56 217.11 408.00 215.00 Z"/>
</g>
<g fill="None" fill-opacity="0.0" stroke="#000000" stroke-opacity="1.00" stroke-width="0.3"><path d="
M 408.00 215.00 
C 443.56 217.11 480.08 182.05 493.07 159.08 C 506.05 136.11 506.01 100.90 497.76 75.25 C 489.51 49.60 464.98 29.48 442.30 17.71 C 419.63 5.95 380.93 5.95 358.77 16.42 C 336.61 26.90 311.71 48.61 305.00 72.00
C 279.85 72.25 252.98 71.66 228.00 72.00 C 203.02 72.34 176.45 71.35 152.00 72.00 C 127.55 72.65 98.25 70.62 75.00 72.00 C 51.75 73.38 29.35 66.12 15.75 78.75 C 2.16 91.39 9.26 115.29 8.00 138.00 C 6.74 160.71 8.59 190.20 8.00 214.00 C 7.41 237.80 8.32 267.28 8.00 291.00 C 7.68 314.72 8.27 344.57 8.00 367.00 C 7.73 389.43 3.14 418.82 28.93 423.07 C 54.71 427.32 78.11 421.82 104.00 424.00
C 104.00 450.67 104.00 477.33 104.00 504.00
C 144.94 503.63 189.41 504.49 230.00 504.00 C 270.59 503.51 315.61 504.95 355.00 504.00 C 394.39 503.05 436.08 510.26 468.92 491.92 C 501.75 473.58 506.05 437.16 501.99 404.01 C 497.93 370.86 464.15 345.81 472.00 309.00
C 465.63 310.33 460.11 314.04 454.00 316.00
C 450.06 285.12 416.32 265.52 424.00 231.00
C 418.48 231.67 412.92 232.33 408.00 235.00
C 408.00 228.33 408.00 221.67 408.00 215.00
M 424.00 56.00 
C 408.00 56.00 392.00 56.00 376.00 56.00
C 380.32 46.39 385.53 23.98 400.01 24.01 C 414.49 24.04 419.66 46.34 424.00 56.00
M 370.00 30.00 
C 365.12 37.37 363.90 43.30 360.68 51.68 C 357.46 60.06 340.94 54.36 333.00 56.00
C 341.77 43.37 355.83 34.54 370.00 30.00
M 467.00 56.00 
C 459.31 54.10 443.21 60.15 439.68 52.32 C 436.15 44.50 435.06 37.06 430.00 30.00
C 444.15 34.33 458.22 43.48 467.00 56.00
M 355.00 72.00 
C 354.12 82.68 352.02 93.08 352.00 104.00
C 339.00 104.00 326.00 104.00 313.00 104.00
C 312.42 92.44 317.80 82.47 321.00 72.00
C 332.33 72.00 343.67 72.00 355.00 72.00
M 432.00 104.00 
C 410.67 104.00 389.33 104.00 368.00 104.00
C 370.64 96.46 367.19 81.71 371.00 75.00 C 374.81 68.29 392.62 72.02 400.00 72.00 C 407.38 71.98 425.23 68.31 428.92 75.08 C 432.62 81.84 429.53 96.39 432.00 104.00
M 479.00 72.00 
C 482.19 82.44 487.58 92.42 487.00 104.00
C 474.00 104.00 461.00 104.00 448.00 104.00
C 447.73 93.15 446.02 82.68 445.00 72.00
C 456.33 72.00 467.67 72.00 479.00 72.00
M 299.00 88.00 
C 291.55 115.25 298.23 144.47 312.00 168.00
C 216.00 168.00 120.00 168.00 24.00 168.00
C 25.21 155.53 22.38 135.74 24.00 124.00 C 25.62 112.26 17.58 90.23 32.01 88.01 C 46.43 85.78 62.37 89.02 77.00 88.00 C 91.63 86.98 106.31 88.46 121.00 88.00 C 135.69 87.54 150.22 88.20 165.00 88.00 C 179.78 87.80 195.18 88.10 210.00 88.00 C 224.82 87.90 239.15 88.05 254.00 88.00 C 268.85 87.95 284.11 88.04 299.00 88.00
M 352.00 120.00 
C 352.02 130.91 354.12 141.29 355.00 152.00
C 343.67 152.00 332.33 152.00 321.00 152.00
C 317.81 141.56 312.42 131.58 313.00 120.00
C 326.00 120.00 339.00 120.00 352.00 120.00
M 432.00 120.00 
C 429.15 127.49 432.89 142.30 429.00 149.00 C 425.11 155.70 407.44 151.98 400.00 152.00 C 392.56 152.02 374.86 155.68 371.08 148.92 C 367.30 142.17 370.67 127.56 368.00 120.00
C 389.33 120.00 410.67 120.00 432.00 120.00
M 487.00 120.00 
C 487.61 131.55 482.03 141.49 479.00 152.00
C 467.67 152.00 456.33 152.00 445.00 152.00
C 445.88 141.32 447.98 130.92 448.00 120.00
C 461.00 120.00 474.00 120.00 487.00 120.00
M 370.00 194.00 
C 355.76 189.59 341.90 180.40 333.00 168.00
C 340.69 169.90 356.79 163.85 360.32 171.68 C 363.85 179.50 364.94 186.94 370.00 194.00
M 424.00 168.00 
C 419.68 177.61 414.47 200.02 399.99 199.99 C 385.51 199.96 380.34 177.66 376.00 168.00
C 392.00 168.00 408.00 168.00 424.00 168.00
M 467.00 168.00 
C 458.32 180.78 444.13 189.39 430.00 194.00
C 434.89 186.63 436.10 180.70 439.32 172.32 C 442.54 163.94 459.06 169.64 467.00 168.00
M 392.00 215.00 
C 390.55 224.59 395.14 239.66 389.25 247.25 C 383.35 254.83 378.70 259.97 376.00 269.00
C 364.38 249.08 344.06 231.66 320.00 231.00
C 327.38 267.17 290.22 287.34 289.00 321.00
C 281.45 315.00 272.72 311.63 264.00 308.00
C 263.82 318.66 264.63 327.79 262.01 338.01 C 259.39 348.22 244.81 343.24 235.00 344.00 C 225.19 344.76 212.38 343.64 202.00 344.00 C 191.62 344.36 180.67 343.84 170.00 344.00 C 159.33 344.16 147.83 343.92 137.00 344.00 C 126.17 344.08 114.87 343.94 104.00 344.00
C 104.00 365.33 104.00 386.67 104.00 408.00
C 92.18 406.34 71.99 410.21 61.00 408.00 C 50.01 405.79 27.79 414.87 24.08 401.92 C 20.36 388.98 25.66 371.78 24.00 358.00 C 22.34 344.22 24.74 329.19 24.00 315.00 C 23.26 300.81 24.35 285.37 24.00 271.00 C 23.65 256.63 24.18 242.46 24.00 228.00 C 23.82 213.54 24.13 198.51 24.00 184.00
C 42.97 183.92 62.03 184.11 81.00 184.00 C 99.97 183.89 119.07 184.21 138.00 184.00 C 156.93 183.79 176.14 184.45 195.00 184.00 C 213.86 183.55 233.31 184.99 252.00 184.00 C 270.69 183.01 290.68 186.19 309.00 184.00 C 327.32 181.81 334.31 193.59 348.08 201.92 C 361.85 210.24 375.98 214.23 392.00 215.00
M 368.00 312.00 
C 373.33 312.00 378.67 312.00 384.00 312.00
C 383.98 289.72 388.94 264.81 409.00 252.00
C 410.37 280.93 440.85 298.26 440.00 328.00
C 422.70 344.46 415.93 368.42 416.00 392.00
C 421.33 392.00 426.67 392.00 432.00 392.00
C 431.95 370.15 438.95 347.86 457.00 334.00
C 464.93 367.72 491.93 394.57 488.00 432.00 C 484.07 469.43 452.45 492.31 415.00 488.00
C 439.33 466.51 434.34 429.25 416.23 406.77 C 398.12 384.29 386.08 361.78 369.00 339.00
C 349.29 359.00 339.52 383.58 320.70 405.70 C 301.87 427.81 296.20 466.38 321.00 488.00
C 283.45 492.33 251.95 469.39 248.07 431.93 C 244.19 394.46 270.96 367.78 279.00 334.00
C 297.09 347.92 304.02 370.10 304.00 392.00
C 309.33 392.00 314.67 392.00 320.00 392.00
C 320.78 374.29 315.44 357.62 307.25 342.75 C 299.05 327.89 306.73 307.39 315.25 294.25 C 323.78 281.12 335.43 267.87 335.00 251.00
C 358.57 260.96 368.67 287.86 368.00 312.00
M 136.00 360.00 
C 136.00 370.67 136.00 381.33 136.00 392.00
C 130.67 392.00 125.33 392.00 120.00 392.00
C 120.00 381.33 120.00 370.67 120.00 360.00
C 125.33 360.00 130.67 360.00 136.00 360.00
M 184.00 360.00 
C 184.00 370.67 184.00 381.33 184.00 392.00
C 173.33 392.00 162.67 392.00 152.00 392.00
C 152.00 381.33 152.00 370.67 152.00 360.00
C 162.67 360.00 173.33 360.00 184.00 360.00
M 252.00 360.00 
C 248.20 366.38 245.30 371.23 242.08 378.08 C 238.85 384.92 237.60 393.73 228.00 392.00 C 218.40 390.27 209.54 393.30 200.00 392.00
C 200.00 381.33 200.00 370.67 200.00 360.00
C 217.33 360.00 234.67 360.00 252.00 360.00
M 369.00 367.00 
C 385.23 399.40 433.56 431.98 408.00 471.00
C 408.42 462.64 403.90 455.99 399.75 449.25 C 395.60 442.52 391.38 438.87 387.25 431.75 C 383.11 424.64 379.14 422.23 375.08 413.92 C 371.03 405.61 365.41 404.57 361.25 413.25 C 357.08 421.92 353.38 423.86 349.08 431.08 C 344.78 438.31 341.00 441.89 336.70 448.70 C 332.39 455.50 327.35 462.34 328.00 471.00
C 312.70 453.82 321.81 428.88 334.75 413.75 C 347.70 398.63 354.79 380.05 369.00 367.00
M 152.00 408.00 
C 152.00 418.67 152.00 429.33 152.00 440.00
C 141.33 440.00 130.67 440.00 120.00 440.00
C 120.00 429.33 120.00 418.67 120.00 408.00
C 130.67 408.00 141.33 408.00 152.00 408.00
M 200.00 408.00 
C 200.00 418.67 200.00 429.33 200.00 440.00
C 189.33 440.00 178.67 440.00 168.00 440.00
C 168.00 429.33 168.00 418.67 168.00 408.00
C 178.67 408.00 189.33 408.00 200.00 408.00
M 233.00 408.00 
C 231.80 418.45 231.41 429.56 233.00 440.00
C 227.33 440.00 221.67 440.00 216.00 440.00
C 216.00 429.33 216.00 418.67 216.00 408.00
C 221.67 408.00 227.33 408.00 233.00 408.00
M 369.00 433.00 
C 372.89 433.81 374.28 443.30 377.92 446.08 C 381.55 448.87 383.91 455.96 387.30 459.70 C 390.70 463.43 393.80 471.95 391.02 477.02 C 388.25 482.10 385.13 486.76 378.78 487.78 C 372.42 488.79 363.06 488.03 356.78 487.22 C 350.49 486.42 347.03 481.25 345.03 475.97 C 343.02 470.70 345.25 462.71 348.92 458.92 C 352.59 455.13 355.09 448.22 358.30 445.30 C 361.52 442.39 364.75 432.12 369.00 433.00
M 136.00 456.00 
C 136.00 466.67 136.00 477.33 136.00 488.00
C 130.67 488.00 125.33 488.00 120.00 488.00
C 120.00 477.33 120.00 466.67 120.00 456.00
C 125.33 456.00 130.67 456.00 136.00 456.00
M 184.00 456.00 
C 184.00 466.67 184.00 477.33 184.00 488.00
C 173.33 488.00 162.67 488.00 152.00 488.00
C 152.00 477.33 152.00 466.67 152.00 456.00
C 162.67 456.00 173.33 456.00 184.00 456.00
M 238.00 456.00 
C 241.53 467.94 248.96 480.15 260.00 487.00
C 240.90 489.33 219.85 487.34 200.00 488.00
C 200.00 477.33 200.00 466.67 200.00 456.00
C 212.67 456.00 225.33 456.00 238.00 456.00 Z"/>
</g>
<g fill="None" fill-opacity="0.0" stroke="#67D3F1" stroke-opacity="1.00" stroke-width="0.3"><path d="
M 424.00 56.00 
C 419.66 46.34 414.49 24.04 400.01 24.01 C 385.53 23.98 380.32 46.39 376.00 56.00
C 392.00 56.00 408.00 56.00 424.00 56.00 Z"/>
</g>
<g fill="None" fill-opacity="0.0" stroke="#66D1EE" stroke-opacity="1.00" stroke-width="0.3"><path d="
M 370.00 30.00 
C 355.83 34.54 341.77 43.37 333.00 56.00
C 340.94 54.36 357.46 60.06 360.68 51.68 C 363.90 43.30 365.12 37.37 370.00 30.00 Z"/>
</g>
<g fill="None" fill-opacity="0.0" stroke="#66D1EE" stroke-opacity="1.00" stroke-width="0.3"><path d="
M 467.00 56.00 
C 458.22 43.48 444.15 34.33 430.00 30.00
C 435.06 37.06 436.15 44.50 439.68 52.32 C 443.21 60.15 459.31 54.10 467.00 56.00 Z"/>
</g>
<g fill="None" fill-opacity="0.0" stroke="#68D5F2" stroke-opacity="1.00" stroke-width="0.3"><path d="
M 355.00 72.00 
C 343.67 72.00 332.33 72.00 321.00 72.00
C 317.80 82.47 312.42 92.44 313.00 104.00
C 326.00 104.00 339.00 104.00 352.00 104.00
C 352.02 93.08 354.12 82.68 355.00 72.00 Z"/>
</g>
<g fill="None" fill-opacity="0.0" stroke="#68D4F2" stroke-opacity="1.00" stroke-width="0.3"><path d="
M 432.00 104.00 
C 429.53 96.39 432.62 81.84 428.92 75.08 C 425.23 68.31 407.38 71.98 400.00 72.00 C 392.62 72.02 374.81 68.29 371.00 75.00 C 367.19 81.71 370.64 96.46 368.00 104.00
C 389.33 104.00 410.67 104.00 432.00 104.00 Z"/>
</g>
<g fill="None" fill-opacity="0.0" stroke="#68D4F2" stroke-opacity="1.00" stroke-width="0.3"><path d="
M 479.00 72.00 
C 467.67 72.00 456.33 72.00 445.00 72.00
C 446.02 82.68 447.73 93.15 448.00 104.00
C 461.00 104.00 474.00 104.00 487.00 104.00
C 487.58 92.42 482.19 82.44 479.00 72.00 Z"/>
</g>
<g fill="None" fill-opacity="0.0" stroke="#B3DC7E" stroke-opacity="1.00" stroke-width="0.3"><path d="
M 299.00 88.00 
C 284.11 88.04 268.85 87.95 254.00 88.00 C 239.15 88.05 224.82 87.90 210.00 88.00 C 195.18 88.10 179.78 87.80 165.00 88.00 C 150.22 88.20 135.69 87.54 121.00 88.00 C 106.31 88.46 91.63 86.98 77.00 88.00 C 62.37 89.02 46.43 85.78 32.01 88.01 C 17.58 90.23 25.62 112.26 24.00 124.00 C 22.38 135.74 25.21 155.53 24.00 168.00
C 120.00 168.00 216.00 168.00 312.00 168.00
C 298.23 144.47 291.55 115.25 299.00 88.00
M 88.00 104.00 
C 88.00 120.00 88.00 136.00 88.00 152.00
C 72.00 152.00 56.00 152.00 40.00 152.00
C 40.00 136.00 40.00 120.00 40.00 104.00
C 56.00 104.00 72.00 104.00 88.00 104.00
M 152.00 104.00 
C 152.00 120.00 152.00 136.00 152.00 152.00
C 136.00 152.00 120.00 152.00 104.00 152.00
C 104.00 136.00 104.00 120.00 104.00 104.00
C 120.00 104.00 136.00 104.00 152.00 104.00
M 216.00 104.00 
C 216.00 120.00 216.00 136.00 216.00 152.00
C 200.00 152.00 184.00 152.00 168.00 152.00
C 168.00 136.00 168.00 120.00 168.00 104.00
C 184.00 104.00 200.00 104.00 216.00 104.00 Z"/>
</g>
<g fill="None" fill-opacity="0.0" stroke="#000000" stroke-opacity="1.00" stroke-width="0.3"><path d="
M 88.00 104.00 
C 72.00 104.00 56.00 104.00 40.00 104.00
C 40.00 120.00 40.00 136.00 40.00 152.00
C 56.00 152.00 72.00 152.00 88.00 152.00
C 88.00 136.00 88.00 120.00 88.00 104.00
M 72.00 120.00 
C 72.00 125.33 72.00 130.67 72.00 136.00
C 66.67 136.00 61.33 136.00 56.00 136.00
C 56.00 130.67 56.00 125.33 56.00 120.00
C 61.33 120.00 66.67 120.00 72.00 120.00 Z"/>
</g>
<g fill="None" fill-opacity="0.0" stroke="#000000" stroke-opacity="1.00" stroke-width="0.3"><path d="
M 152.00 104.00 
C 136.00 104.00 120.00 104.00 104.00 104.00
C 104.00 120.00 104.00 136.00 104.00 152.00
C 120.00 152.00 136.00 152.00 152.00 152.00
C 152.00 136.00 152.00 120.00 152.00 104.00
M 136.00 120.00 
C 136.00 125.33 136.00 130.67 136.00 136.00
C 130.67 136.00 125.33 136.00 120.00 136.00
C 120.00 130.67 120.00 125.33 120.00 120.00
C 125.33 120.00 130.67 120.00 136.00 120.00 Z"/>
</g>
<g fill="None" fill-opacity="0.0" stroke="#000000" stroke-opacity="1.00" stroke-width="0.3"><path d="
M 216.00 104.00 
C 200.00 104.00 184.00 104.00 168.00 104.00
C 168.00 120.00 168.00 136.00 168.00 152.00
C 184.00 152.00 200.00 152.00 216.00 152.00
C 216.00 136.00 216.00 120.00 216.00 104.00
M 200.00 120.00 
C 200.00 125.33 200.00 130.67 200.00 136.00
C 194.67 136.00 189.33 136.00 184.00 136.00
C 184.00 130.67 184.00 125.33 184.00 120.00
C 189.33 120.00 194.67 120.00 200.00 120.00 Z"/>
</g>
<g fill="None" fill-opacity="0.0" stroke="#E6E9ED" stroke-opacity="1.00" stroke-width="0.3"><path d="
M 72.00 120.00 
C 66.67 120.00 61.33 120.00 56.00 120.00
C 56.00 125.33 56.00 130.67 56.00 136.00
C 61.33 136.00 66.67 136.00 72.00 136.00
C 72.00 130.67 72.00 125.33 72.00 120.00 Z"/>
</g>
<g fill="None" fill-opacity="0.0" stroke="#E6E9ED" stroke-opacity="1.00" stroke-width="0.3"><path d="
M 136.00 120.00 
C 130.67 120.00 125.33 120.00 120.00 120.00
C 120.00 125.33 120.00 130.67 120.00 136.00
C 125.33 136.00 130.67 136.00 136.00 136.00
C 136.00 130.67 136.00 125.33 136.00 120.00 Z"/>
</g>
<g fill="None" fill-opacity="0.0" stroke="#E6E9ED" stroke-opacity="1.00" stroke-width="0.3"><path d="
M 200.00 120.00 
C 194.67 120.00 189.33 120.00 184.00 120.00
C 184.00 125.33 184.00 130.67 184.00 136.00
C 189.33 136.00 194.67 136.00 200.00 136.00
C 200.00 130.67 200.00 125.33 200.00 120.00 Z"/>
</g>
<g fill="None" fill-opacity="0.0" stroke="#68D5F2" stroke-opacity="1.00" stroke-width="0.3"><path d="
M 352.00 120.00 
C 339.00 120.00 326.00 120.00 313.00 120.00
C 312.42 131.58 317.81 141.56 321.00 152.00
C 332.33 152.00 343.67 152.00 355.00 152.00
C 354.12 141.29 352.02 130.91 352.00 120.00 Z"/>
</g>
<g fill="None" fill-opacity="0.0" stroke="#68D5F2" stroke-opacity="1.00" stroke-width="0.3"><path d="
M 432.00 120.00 
C 410.67 120.00 389.33 120.00 368.00 120.00
C 370.67 127.56 367.30 142.17 371.08 148.92 C 374.86 155.68 392.56 152.02 400.00 152.00 C 407.44 151.98 425.11 155.70 429.00 149.00 C 432.89 142.30 429.15 127.49 432.00 120.00 Z"/>
</g>
<g fill="None" fill-opacity="0.0" stroke="#68D5F2" stroke-opacity="1.00" stroke-width="0.3"><path d="
M 487.00 120.00 
C 474.00 120.00 461.00 120.00 448.00 120.00
C 447.98 130.92 445.88 141.32 445.00 152.00
C 456.33 152.00 467.67 152.00 479.00 152.00
C 482.03 141.49 487.61 131.55 487.00 120.00 Z"/>
</g>
<g fill="None" fill-opacity="0.0" stroke="#66D1EF" stroke-opacity="1.00" stroke-width="0.3"><path d="
M 370.00 194.00 
C 364.94 186.94 363.85 179.50 360.32 171.68 C 356.79 163.85 340.69 169.90 333.00 168.00
C 341.90 180.40 355.76 189.59 370.00 194.00 Z"/>
</g>
<g fill="None" fill-opacity="0.0" stroke="#67D3F1" stroke-opacity="1.00" stroke-width="0.3"><path d="
M 424.00 168.00 
C 408.00 168.00 392.00 168.00 376.00 168.00
C 380.34 177.66 385.51 199.96 399.99 199.99 C 414.47 200.02 419.68 177.61 424.00 168.00 Z"/>
</g>
<g fill="None" fill-opacity="0.0" stroke="#66D1EE" stroke-opacity="1.00" stroke-width="0.3"><path d="
M 467.00 168.00 
C 459.06 169.64 442.54 163.94 439.32 172.32 C 436.10 180.70 434.89 186.63 430.00 194.00
C 444.13 189.39 458.32 180.78 467.00 168.00 Z"/>
</g>
<g fill="None" fill-opacity="0.0" stroke="#E5E8EC" stroke-opacity="1.00" stroke-width="0.3"><path d="
M 392.00 215.00 
C 375.98 214.23 361.85 210.24 348.08 201.92 C 334.31 193.59 327.32 181.81 309.00 184.00 C 290.68 186.19 270.69 183.01 252.00 184.00 C 233.31 184.99 213.86 183.55 195.00 184.00 C 176.14 184.45 156.93 183.79 138.00 184.00 C 119.07 184.21 99.97 183.89 81.00 184.00 C 62.03 184.11 42.97 183.92 24.00 184.00
C 24.13 198.51 23.82 213.54 24.00 228.00 C 24.18 242.46 23.65 256.63 24.00 271.00 C 24.35 285.37 23.26 300.81 24.00 315.00 C 24.74 329.19 22.34 344.22 24.00 358.00 C 25.66 371.78 20.36 388.98 24.08 401.92 C 27.79 414.87 50.01 405.79 61.00 408.00 C 71.99 410.21 92.18 406.34 104.00 408.00
C 104.00 386.67 104.00 365.33 104.00 344.00
C 114.87 343.94 126.17 344.08 137.00 344.00 C 147.83 343.92 159.33 344.16 170.00 344.00 C 180.67 343.84 191.62 344.36 202.00 344.00 C 212.38 343.64 225.19 344.76 235.00 344.00 C 244.81 343.24 259.39 348.22 262.01 338.01 C 264.63 327.79 263.82 318.66 264.00 308.00
C 272.72 311.63 281.45 315.00 289.00 321.00
C 290.22 287.34 327.38 267.17 320.00 231.00
C 344.06 231.66 364.38 249.08 376.00 269.00
C 378.70 259.97 383.35 254.83 389.25 247.25 C 395.14 239.66 390.55 224.59 392.00 215.00
M 184.00 200.00 
C 184.00 242.67 184.00 285.33 184.00 328.00
C 136.00 328.00 88.00 328.00 40.00 328.00
C 40.00 285.33 40.00 242.67 40.00 200.00
C 88.00 200.00 136.00 200.00 184.00 200.00
M 312.00 200.00 
C 312.00 205.33 312.00 210.67 312.00 216.00
C 274.67 216.00 237.33 216.00 200.00 216.00
C 200.00 210.67 200.00 205.33 200.00 200.00
C 237.33 200.00 274.67 200.00 312.00 200.00
M 296.00 232.00 
C 296.00 237.33 296.00 242.67 296.00 248.00
C 264.00 248.00 232.00 248.00 200.00 248.00
C 200.00 242.67 200.00 237.33 200.00 232.00
C 232.00 232.00 264.00 232.00 296.00 232.00
M 296.00 264.00 
C 296.00 269.33 296.00 274.67 296.00 280.00
C 264.00 280.00 232.00 280.00 200.00 280.00
C 200.00 274.67 200.00 269.33 200.00 264.00
C 232.00 264.00 264.00 264.00 296.00 264.00
M 248.00 296.00 
C 248.00 301.33 248.00 306.67 248.00 312.00
C 232.00 312.00 216.00 312.00 200.00 312.00
C 200.00 306.67 200.00 301.33 200.00 296.00
C 216.00 296.00 232.00 296.00 248.00 296.00
M 88.00 344.00 
C 88.00 349.33 88.00 354.67 88.00 360.00
C 72.00 360.00 56.00 360.00 40.00 360.00
C 40.00 354.67 40.00 349.33 40.00 344.00
C 56.00 344.00 72.00 344.00 88.00 344.00
M 88.00 376.00 
C 88.00 381.33 88.00 386.67 88.00 392.00
C 72.00 392.00 56.00 392.00 40.00 392.00
C 40.00 386.67 40.00 381.33 40.00 376.00
C 56.00 376.00 72.00 376.00 88.00 376.00 Z"/>
</g>
<g fill="None" fill-opacity="0.0" stroke="#000000" stroke-opacity="1.00" stroke-width="0.3"><path d="
M 184.00 200.00 
C 136.00 200.00 88.00 200.00 40.00 200.00
C 40.00 242.67 40.00 285.33 40.00 328.00
C 88.00 328.00 136.00 328.00 184.00 328.00
C 184.00 285.33 184.00 242.67 184.00 200.00
M 168.00 216.00 
C 168.00 248.00 168.00 280.00 168.00 312.00
C 130.67 312.00 93.33 312.00 56.00 312.00
C 56.00 280.00 56.00 248.00 56.00 216.00
C 93.33 216.00 130.67 216.00 168.00 216.00 Z"/>
</g>
<g fill="None" fill-opacity="0.0" stroke="#000000" stroke-opacity="1.00" stroke-width="0.3"><path d="
M 312.00 200.00 
C 274.67 200.00 237.33 200.00 200.00 200.00
C 200.00 205.33 200.00 210.67 200.00 216.00
C 237.33 216.00 274.67 216.00 312.00 216.00
C 312.00 210.67 312.00 205.33 312.00 200.00 Z"/>
</g>
<g fill="None" fill-opacity="0.0" stroke="#FCD76F" stroke-opacity="1.00" stroke-width="0.3"><path d="
M 168.00 216.00 
C 130.67 216.00 93.33 216.00 56.00 216.00
C 56.00 248.00 56.00 280.00 56.00 312.00
C 93.33 312.00 130.67 312.00 168.00 312.00
C 168.00 280.00 168.00 248.00 168.00 216.00 Z"/>
</g>
<g fill="None" fill-opacity="0.0" stroke="#000000" stroke-opacity="1.00" stroke-width="0.3"><path d="
M 296.00 232.00 
C 264.00 232.00 232.00 232.00 200.00 232.00
C 200.00 237.33 200.00 242.67 200.00 248.00
C 232.00 248.00 264.00 248.00 296.00 248.00
C 296.00 242.67 296.00 237.33 296.00 232.00 Z"/>
</g>
<g fill="None" fill-opacity="0.0" stroke="#FD816D" stroke-opacity="1.00" stroke-width="0.3"><path d="
M 368.00 312.00 
C 368.67 287.86 358.57 260.96 335.00 251.00
C 335.43 267.87 323.78 281.12 315.25 294.25 C 306.73 307.39 299.05 327.89 307.25 342.75 C 315.44 357.62 320.78 374.29 320.00 392.00
C 314.67 392.00 309.33 392.00 304.00 392.00
C 304.02 370.10 297.09 347.92 279.00 334.00
C 270.96 367.78 244.19 394.46 248.07 431.93 C 251.95 469.39 283.45 492.33 321.00 488.00
C 296.20 466.38 301.87 427.81 320.70 405.70 C 339.52 383.58 349.29 359.00 369.00 339.00
C 386.08 361.78 398.12 384.29 416.23 406.77 C 434.34 429.25 439.33 466.51 415.00 488.00
C 452.45 492.31 484.07 469.43 488.00 432.00 C 491.93 394.57 464.93 367.72 457.00 334.00
C 438.95 347.86 431.95 370.15 432.00 392.00
C 426.67 392.00 421.33 392.00 416.00 392.00
C 415.93 368.42 422.70 344.46 440.00 328.00
C 440.85 298.26 410.37 280.93 409.00 252.00
C 388.94 264.81 383.98 289.72 384.00 312.00
C 378.67 312.00 373.33 312.00 368.00 312.00 Z"/>
</g>
<g fill="None" fill-opacity="0.0" stroke="#000000" stroke-opacity="1.00" stroke-width="0.3"><path d="
M 296.00 264.00 
C 264.00 264.00 232.00 264.00 200.00 264.00
C 200.00 269.33 200.00 274.67 200.00 280.00
C 232.00 280.00 264.00 280.00 296.00 280.00
C 296.00 274.67 296.00 269.33 296.00 264.00 Z"/>
</g>
<g fill="None" fill-opacity="0.0" stroke="#000000" stroke-opacity="1.00" stroke-width="0.3"><path d="
M 248.00 296.00 
C 232.00 296.00 216.00 296.00 200.00 296.00
C 200.00 301.33 200.00 306.67 200.00 312.00
C 216.00 312.00 232.00 312.00 248.00 312.00
C 248.00 306.67 248.00 301.33 248.00 296.00 Z"/>
</g>
<g fill="None" fill-opacity="0.0" stroke="#000000" stroke-opacity="1.00" stroke-width="0.3"><path d="
M 88.00 344.00 
C 72.00 344.00 56.00 344.00 40.00 344.00
C 40.00 349.33 40.00 354.67 40.00 360.00
C 56.00 360.00 72.00 360.00 88.00 360.00
C 88.00 354.67 88.00 349.33 88.00 344.00 Z"/>
</g>
<g fill="None" fill-opacity="0.0" stroke="#B27946" stroke-opacity="1.00" stroke-width="0.3"><path d="
M 136.00 360.00 
C 130.67 360.00 125.33 360.00 120.00 360.00
C 120.00 370.67 120.00 381.33 120.00 392.00
C 125.33 392.00 130.67 392.00 136.00 392.00
C 136.00 381.33 136.00 370.67 136.00 360.00 Z"/>
</g>
<g fill="None" fill-opacity="0.0" stroke="#D2A06B" stroke-opacity="1.00" stroke-width="0.3"><path d="
M 184.00 360.00 
C 173.33 360.00 162.67 360.00 152.00 360.00
C 152.00 370.67 152.00 381.33 152.00 392.00
C 162.67 392.00 173.33 392.00 184.00 392.00
C 184.00 381.33 184.00 370.67 184.00 360.00 Z"/>
</g>
<g fill="None" fill-opacity="0.0" stroke="#B17845" stroke-opacity="1.00" stroke-width="0.3"><path d="
M 252.00 360.00 
C 234.67 360.00 217.33 360.00 200.00 360.00
C 200.00 370.67 200.00 381.33 200.00 392.00
C 209.54 393.30 218.40 390.27 228.00 392.00 C 237.60 393.73 238.85 384.92 242.08 378.08 C 245.30 371.23 248.20 366.38 252.00 360.00 Z"/>
</g>
<g fill="None" fill-opacity="0.0" stroke="#F86C4F" stroke-opacity="1.00" stroke-width="0.3"><path d="
M 369.00 367.00 
C 354.79 380.05 347.70 398.63 334.75 413.75 C 321.81 428.88 312.70 453.82 328.00 471.00
C 327.35 462.34 332.39 455.50 336.70 448.70 C 341.00 441.89 344.78 438.31 349.08 431.08 C 353.38 423.86 357.08 421.92 361.25 413.25 C 365.41 404.57 371.03 405.61 375.08 413.92 C 379.14 422.23 383.11 424.64 387.25 431.75 C 391.38 438.87 395.60 442.52 399.75 449.25 C 403.90 455.99 408.42 462.64 408.00 471.00
C 433.56 431.98 385.23 399.40 369.00 367.00 Z"/>
</g>
<g fill="None" fill-opacity="0.0" stroke="#000000" stroke-opacity="1.00" stroke-width="0.3"><path d="
M 88.00 376.00 
C 72.00 376.00 56.00 376.00 40.00 376.00
C 40.00 381.33 40.00 386.67 40.00 392.00
C 56.00 392.00 72.00 392.00 88.00 392.00
C 88.00 386.67 88.00 381.33 88.00 376.00 Z"/>
</g>
<g fill="None" fill-opacity="0.0" stroke="#D2A06B" stroke-opacity="1.00" stroke-width="0.3"><path d="
M 152.00 408.00 
C 141.33 408.00 130.67 408.00 120.00 408.00
C 120.00 418.67 120.00 429.33 120.00 440.00
C 130.67 440.00 141.33 440.00 152.00 440.00
C 152.00 429.33 152.00 418.67 152.00 408.00 Z"/>
</g>
<g fill="None" fill-opacity="0.0" stroke="#B27946" stroke-opacity="1.00" stroke-width="0.3"><path d="
M 200.00 408.00 
C 189.33 408.00 178.67 408.00 168.00 408.00
C 168.00 418.67 168.00 429.33 168.00 440.00
C 178.67 440.00 189.33 440.00 200.00 440.00
C 200.00 429.33 200.00 418.67 200.00 408.00 Z"/>
</g>
<g fill="None" fill-opacity="0.0" stroke="#D29F6B" stroke-opacity="1.00" stroke-width="0.3"><path d="
M 233.00 408.00 
C 227.33 408.00 221.67 408.00 216.00 408.00
C 216.00 418.67 216.00 429.33 216.00 440.00
C 221.67 440.00 227.33 440.00 233.00 440.00
C 231.41 429.56 231.80 418.45 233.00 408.00 Z"/>
</g>
<g fill="None" fill-opacity="0.0" stroke="#FC806D" stroke-opacity="1.00" stroke-width="0.3"><path d="
M 369.00 433.00 
C 364.75 432.12 361.52 442.39 358.30 445.30 C 355.09 448.22 352.59 455.13 348.92 458.92 C 345.25 462.71 343.02 470.70 345.03 475.97 C 347.03 481.25 350.49 486.42 356.78 487.22 C 363.06 488.03 372.42 488.79 378.78 487.78 C 385.13 486.76 388.25 482.10 391.02 477.02 C 393.80 471.95 390.70 463.43 387.30 459.70 C 383.91 455.96 381.55 448.87 377.92 446.08 C 374.28 443.30 372.89 433.81 369.00 433.00 Z"/>
</g>
<g fill="None" fill-opacity="0.0" stroke="#B27946" stroke-opacity="1.00" stroke-width="0.3"><path d="
M 136.00 456.00 
C 130.67 456.00 125.33 456.00 120.00 456.00
C 120.00 466.67 120.00 477.33 120.00 488.00
C 125.33 488.00 130.67 488.00 136.00 488.00
C 136.00 477.33 136.00 466.67 136.00 456.00 Z"/>
</g>
<g fill="None" fill-opacity="0.0" stroke="#D2A06B" stroke-opacity="1.00" stroke-width="0.3"><path d="
M 184.00 456.00 
C 173.33 456.00 162.67 456.00 152.00 456.00
C 152.00 466.67 152.00 477.33 152.00 488.00
C 162.67 488.00 173.33 488.00 184.00 488.00
C 184.00 477.33 184.00 466.67 184.00 456.00 Z"/>
</g>
<g fill="None" fill-opacity="0.0" stroke="#B17845" stroke-opacity="1.00" stroke-width="0.3"><path d="
M 238.00 456.00 
C 225.33 456.00 212.67 456.00 200.00 456.00
C 200.00 466.67 200.00 477.33 200.00 488.00
C 219.85 487.34 240.90 489.33 260.00 487.00
C 248.96 480.15 241.53 467.94 238.00 456.00 Z"/>
</g>
<g fill="#000000" fill-opacity="0.00" stroke="None">
<path d="
M 0.00 512.00 
L 512.00 512.00
L 512.00 0.00
L 0.00 0.00
L 0.00 512.00
M 408.00 215.00 
C 408.00 221.67 408.00 228.33 408.00 235.00
C 412.92 232.33 418.48 231.67 424.00 231.00
C 416.32 265.52 450.06 285.12 454.00 316.00
C 460.11 314.04 465.63 310.33 472.00 309.00
C 464.15 345.81 497.93 370.86 501.99 404.01 C 506.05 437.16 501.75 473.58 468.92 491.92 C 436.08 510.26 394.39 503.05 355.00 504.00 C 315.61 504.95 270.59 503.51 230.00 504.00 C 189.41 504.49 144.94 503.63 104.00 504.00
C 104.00 477.33 104.00 450.67 104.00 424.00
C 78.11 421.82 54.71 427.32 28.93 423.07 C 3.14 418.82 7.73 389.43 8.00 367.00 C 8.27 344.57 7.68 314.72 8.00 291.00 C 8.32 267.28 7.41 237.80 8.00 214.00 C 8.59 190.20 6.74 160.71 8.00 138.00 C 9.26 115.29 2.16 91.39 15.75 78.75 C 29.35 66.12 51.75 73.38 75.00 72.00 C 98.25 70.62 127.55 72.65 152.00 72.00 C 176.45 71.35 203.02 72.34 228.00 72.00 C 252.98 71.66 279.85 72.25 305.00 72.00
C 311.71 48.61 336.61 26.90 358.77 16.42 C 380.93 5.95 419.63 5.95 442.30 17.71 C 464.98 29.48 489.51 49.60 497.76 75.25 C 506.01 100.90 506.05 136.11 493.07 159.08 C 480.08 182.05 443.56 217.11 408.00 215.00 Z"/>
</g>
<g fill="#000000" fill-opacity="1.00" stroke="None">
<path d="
M 408.00 215.00 
C 443.56 217.11 480.08 182.05 493.07 159.08 C 506.05 136.11 506.01 100.90 497.76 75.25 C 489.51 49.60 464.98 29.48 442.30 17.71 C 419.63 5.95 380.93 5.95 358.77 16.42 C 336.61 26.90 311.71 48.61 305.00 72.00
C 279.85 72.25 252.98 71.66 228.00 72.00 C 203.02 72.34 176.45 71.35 152.00 72.00 C 127.55 72.65 98.25 70.62 75.00 72.00 C 51.75 73.38 29.35 66.12 15.75 78.75 C 2.16 91.39 9.26 115.29 8.00 138.00 C 6.74 160.71 8.59 190.20 8.00 214.00 C 7.41 237.80 8.32 267.28 8.00 291.00 C 7.68 314.72 8.27 344.57 8.00 367.00 C 7.73 389.43 3.14 418.82 28.93 423.07 C 54.71 427.32 78.11 421.82 104.00 424.00
C 104.00 450.67 104.00 477.33 104.00 504.00
C 144.94 503.63 189.41 504.49 230.00 504.00 C 270.59 503.51 315.61 504.95 355.00 504.00 C 394.39 503.05 436.08 510.26 468.92 491.92 C 501.75 473.58 506.05 437.16 501.99 404.01 C 497.93 370.86 464.15 345.81 472.00 309.00
C 465.63 310.33 460.11 314.04 454.00 316.00
C 450.06 285.12 416.32 265.52 424.00 231.00
C 418.48 231.67 412.92 232.33 408.00 235.00
C 408.00 228.33 408.00 221.67 408.00 215.00
M 424.00 56.00 
C 408.00 56.00 392.00 56.00 376.00 56.00
C 380.32 46.39 385.53 23.98 400.01 24.01 C 414.49 24.04 419.66 46.34 424.00 56.00
M 370.00 30.00 
C 365.12 37.37 363.90 43.30 360.68 51.68 C 357.46 60.06 340.94 54.36 333.00 56.00
C 341.77 43.37 355.83 34.54 370.00 30.00
M 467.00 56.00 
C 459.31 54.10 443.21 60.15 439.68 52.32 C 436.15 44.50 435.06 37.06 430.00 30.00
C 444.15 34.33 458.22 43.48 467.00 56.00
M 355.00 72.00 
C 354.12 82.68 352.02 93.08 352.00 104.00
C 339.00 104.00 326.00 104.00 313.00 104.00
C 312.42 92.44 317.80 82.47 321.00 72.00
C 332.33 72.00 343.67 72.00 355.00 72.00
M 432.00 104.00 
C 410.67 104.00 389.33 104.00 368.00 104.00
C 370.64 96.46 367.19 81.71 371.00 75.00 C 374.81 68.29 392.62 72.02 400.00 72.00 C 407.38 71.98 425.23 68.31 428.92 75.08 C 432.62 81.84 429.53 96.39 432.00 104.00
M 479.00 72.00 
C 482.19 82.44 487.58 92.42 487.00 104.00
C 474.00 104.00 461.00 104.00 448.00 104.00
C 447.73 93.15 446.02 82.68 445.00 72.00
C 456.33 72.00 467.67 72.00 479.00 72.00
M 299.00 88.00 
C 291.55 115.25 298.23 144.47 312.00 168.00
C 216.00 168.00 120.00 168.00 24.00 168.00
C 25.21 155.53 22.38 135.74 24.00 124.00 C 25.62 112.26 17.58 90.23 32.01 88.01 C 46.43 85.78 62.37 89.02 77.00 88.00 C 91.63 86.98 106.31 88.46 121.00 88.00 C 135.69 87.54 150.22 88.20 165.00 88.00 C 179.78 87.80 195.18 88.10 210.00 88.00 C 224.82 87.90 239.15 88.05 254.00 88.00 C 268.85 87.95 284.11 88.04 299.00 88.00
M 352.00 120.00 
C 352.02 130.91 354.12 141.29 355.00 152.00
C 343.67 152.00 332.33 152.00 321.00 152.00
C 317.81 141.56 312.42 131.58 313.00 120.00
C 326.00 120.00 339.00 120.00 352.00 120.00
M 432.00 120.00 
C 429.15 127.49 432.89 142.30 429.00 149.00 C 425.11 155.70 407.44 151.98 400.00 152.00 C 392.56 152.02 374.86 155.68 371.08 148.92 C 367.30 142.17 370.67 127.56 368.00 120.00
C 389.33 120.00 410.67 120.00 432.00 120.00
M 487.00 120.00 
C 487.61 131.55 482.03 141.49 479.00 152.00
C 467.67 152.00 456.33 152.00 445.00 152.00
C 445.88 141.32 447.98 130.92 448.00 120.00
C 461.00 120.00 474.00 120.00 487.00 120.00
M 370.00 194.00 
C 355.76 189.59 341.90 180.40 333.00 168.00
C 340.69 169.90 356.79 163.85 360.32 171.68 C 363.85 179.50 364.94 186.94 370.00 194.00
M 424.00 168.00 
C 419.68 177.61 414.47 200.02 399.99 199.99 C 385.51 199.96 380.34 177.66 376.00 168.00
C 392.00 168.00 408.00 168.00 424.00 168.00
M 467.00 168.00 
C 458.32 180.78 444.13 189.39 430.00 194.00
C 434.89 186.63 436.10 180.70 439.32 172.32 C 442.54 163.94 459.06 169.64 467.00 168.00
M 392.00 215.00 
C 390.55 224.59 395.14 239.66 389.25 247.25 C 383.35 254.83 378.70 259.97 376.00 269.00
C 364.38 249.08 344.06 231.66 320.00 231.00
C 327.38 267.17 290.22 287.34 289.00 321.00
C 281.45 315.00 272.72 311.63 264.00 308.00
C 263.82 318.66 264.63 327.79 262.01 338.01 C 259.39 348.22 244.81 343.24 235.00 344.00 C 225.19 344.76 212.38 343.64 202.00 344.00 C 191.62 344.36 180.67 343.84 170.00 344.00 C 159.33 344.16 147.83 343.92 137.00 344.00 C 126.17 344.08 114.87 343.94 104.00 344.00
C 104.00 365.33 104.00 386.67 104.00 408.00
C 92.18 406.34 71.99 410.21 61.00 408.00 C 50.01 405.79 27.79 414.87 24.08 401.92 C 20.36 388.98 25.66 371.78 24.00 358.00 C 22.34 344.22 24.74 329.19 24.00 315.00 C 23.26 300.81 24.35 285.37 24.00 271.00 C 23.65 256.63 24.18 242.46 24.00 228.00 C 23.82 213.54 24.13 198.51 24.00 184.00
C 42.97 183.92 62.03 184.11 81.00 184.00 C 99.97 183.89 119.07 184.21 138.00 184.00 C 156.93 183.79 176.14 184.45 195.00 184.00 C 213.86 183.55 233.31 184.99 252.00 184.00 C 270.69 183.01 290.68 186.19 309.00 184.00 C 327.32 181.81 334.31 193.59 348.08 201.92 C 361.85 210.24 375.98 214.23 392.00 215.00
M 368.00 312.00 
C 373.33 312.00 378.67 312.00 384.00 312.00
C 383.98 289.72 388.94 264.81 409.00 252.00
C 410.37 280.93 440.85 298.26 440.00 328.00
C 422.70 344.46 415.93 368.42 416.00 392.00
C 421.33 392.00 426.67 392.00 432.00 392.00
C 431.95 370.15 438.95 347.86 457.00 334.00
C 464.93 367.72 491.93 394.57 488.00 432.00 C 484.07 469.43 452.45 492.31 415.00 488.00
C 439.33 466.51 434.34 429.25 416.23 406.77 C 398.12 384.29 386.08 361.78 369.00 339.00
C 349.29 359.00 339.52 383.58 320.70 405.70 C 301.87 427.81 296.20 466.38 321.00 488.00
C 283.45 492.33 251.95 469.39 248.07 431.93 C 244.19 394.46 270.96 367.78 279.00 334.00
C 297.09 347.92 304.02 370.10 304.00 392.00
C 309.33 392.00 314.67 392.00 320.00 392.00
C 320.78 374.29 315.44 357.62 307.25 342.75 C 299.05 327.89 306.73 307.39 315.25 294.25 C 323.78 281.12 335.43 267.87 335.00 251.00
C 358.57 260.96 368.67 287.86 368.00 312.00
M 136.00 360.00 
C 136.00 370.67 136.00 381.33 136.00 392.00
C 130.67 392.00 125.33 392.00 120.00 392.00
C 120.00 381.33 120.00 370.67 120.00 360.00
C 125.33 360.00 130.67 360.00 136.00 360.00
M 184.00 360.00 
C 184.00 370.67 184.00 381.33 184.00 392.00
C 173.33 392.00 162.67 392.00 152.00 392.00
C 152.00 381.33 152.00 370.67 152.00 360.00
C 162.67 360.00 173.33 360.00 184.00 360.00
M 252.00 360.00 
C 248.20 366.38 245.30 371.23 242.08 378.08 C 238.85 384.92 237.60 393.73 228.00 392.00 C 218.40 390.27 209.54 393.30 200.00 392.00
C 200.00 381.33 200.00 370.67 200.00 360.00
C 217.33 360.00 234.67 360.00 252.00 360.00
M 369.00 367.00 
C 385.23 399.40 433.56 431.98 408.00 471.00
C 408.42 462.64 403.90 455.99 399.75 449.25 C 395.60 442.52 391.38 438.87 387.25 431.75 C 383.11 424.64 379.14 422.23 375.08 413.92 C 371.03 405.61 365.41 404.57 361.25 413.25 C 357.08 421.92 353.38 423.86 349.08 431.08 C 344.78 438.31 341.00 441.89 336.70 448.70 C 332.39 455.50 327.35 462.34 328.00 471.00
C 312.70 453.82 321.81 428.88 334.75 413.75 C 347.70 398.63 354.79 380.05 369.00 367.00
M 152.00 408.00 
C 152.00 418.67 152.00 429.33 152.00 440.00
C 141.33 440.00 130.67 440.00 120.00 440.00
C 120.00 429.33 120.00 418.67 120.00 408.00
C 130.67 408.00 141.33 408.00 152.00 408.00
M 200.00 408.00 
C 200.00 418.67 200.00 429.33 200.00 440.00
C 189.33 440.00 178.67 440.00 168.00 440.00
C 168.00 429.33 168.00 418.67 168.00 408.00
C 178.67 408.00 189.33 408.00 200.00 408.00
M 233.00 408.00 
C 231.80 418.45 231.41 429.56 233.00 440.00
C 227.33 440.00 221.67 440.00 216.00 440.00
C 216.00 429.33 216.00 418.67 216.00 408.00
C 221.67 408.00 227.33 408.00 233.00 408.00
M 369.00 433.00 
C 372.89 433.81 374.28 443.30 377.92 446.08 C 381.55 448.87 383.91 455.96 387.30 459.70 C 390.70 463.43 393.80 471.95 391.02 477.02 C 388.25 482.10 385.13 486.76 378.78 487.78 C 372.42 488.79 363.06 488.03 356.78 487.22 C 350.49 486.42 347.03 481.25 345.03 475.97 C 343.02 470.70 345.25 462.71 348.92 458.92 C 352.59 455.13 355.09 448.22 358.30 445.30 C 361.52 442.39 364.75 432.12 369.00 433.00
M 136.00 456.00 
C 136.00 466.67 136.00 477.33 136.00 488.00
C 130.67 488.00 125.33 488.00 120.00 488.00
C 120.00 477.33 120.00 466.67 120.00 456.00
C 125.33 456.00 130.67 456.00 136.00 456.00
M 184.00 456.00 
C 184.00 466.67 184.00 477.33 184.00 488.00
C 173.33 488.00 162.67 488.00 152.00 488.00
C 152.00 477.33 152.00 466.67 152.00 456.00
C 162.67 456.00 173.33 456.00 184.00 456.00
M 238.00 456.00 
C 241.53 467.94 248.96 480.15 260.00 487.00
C 240.90 489.33 219.85 487.34 200.00 488.00
C 200.00 477.33 200.00 466.67 200.00 456.00
C 212.67 456.00 225.33 456.00 238.00 456.00 Z"/>
</g>
<g fill="#67D3F1" fill-opacity="1.00" stroke="None">
<path d="
M 424.00 56.00 
C 419.66 46.34 414.49 24.04 400.01 24.01 C 385.53 23.98 380.32 46.39 376.00 56.00
C 392.00 56.00 408.00 56.00 424.00 56.00 Z"/>
</g>
<g fill="#66D1EE" fill-opacity="1.00" stroke="None">
<path d="
M 370.00 30.00 
C 355.83 34.54 341.77 43.37 333.00 56.00
C 340.94 54.36 357.46 60.06 360.68 51.68 C 363.90 43.30 365.12 37.37 370.00 30.00 Z"/>
</g>
<g fill="#66D1EE" fill-opacity="1.00" stroke="None">
<path d="
M 467.00 56.00 
C 458.22 43.48 444.15 34.33 430.00 30.00
C 435.06 37.06 436.15 44.50 439.68 52.32 C 443.21 60.15 459.31 54.10 467.00 56.00 Z"/>
</g>
<g fill="#68D5F2" fill-opacity="1.00" stroke="None">
<path d="
M 355.00 72.00 
C 343.67 72.00 332.33 72.00 321.00 72.00
C 317.80 82.47 312.42 92.44 313.00 104.00
C 326.00 104.00 339.00 104.00 352.00 104.00
C 352.02 93.08 354.12 82.68 355.00 72.00 Z"/>
</g>
<g fill="#68D4F2" fill-opacity="1.00" stroke="None">
<path d="
M 432.00 104.00 
C 429.53 96.39 432.62 81.84 428.92 75.08 C 425.23 68.31 407.38 71.98 400.00 72.00 C 392.62 72.02 374.81 68.29 371.00 75.00 C 367.19 81.71 370.64 96.46 368.00 104.00
C 389.33 104.00 410.67 104.00 432.00 104.00 Z"/>
</g>
<g fill="#68D4F2" fill-opacity="1.00" stroke="None">
<path d="
M 479.00 72.00 
C 467.67 72.00 456.33 72.00 445.00 72.00
C 446.02 82.68 447.73 93.15 448.00 104.00
C 461.00 104.00 474.00 104.00 487.00 104.00
C 487.58 92.42 482.19 82.44 479.00 72.00 Z"/>
</g>
<g fill="#B3DC7E" fill-opacity="1.00" stroke="None">
<path d="
M 299.00 88.00 
C 284.11 88.04 268.85 87.95 254.00 88.00 C 239.15 88.05 224.82 87.90 210.00 88.00 C 195.18 88.10 179.78 87.80 165.00 88.00 C 150.22 88.20 135.69 87.54 121.00 88.00 C 106.31 88.46 91.63 86.98 77.00 88.00 C 62.37 89.02 46.43 85.78 32.01 88.01 C 17.58 90.23 25.62 112.26 24.00 124.00 C 22.38 135.74 25.21 155.53 24.00 168.00
C 120.00 168.00 216.00 168.00 312.00 168.00
C 298.23 144.47 291.55 115.25 299.00 88.00
M 88.00 104.00 
C 88.00 120.00 88.00 136.00 88.00 152.00
C 72.00 152.00 56.00 152.00 40.00 152.00
C 40.00 136.00 40.00 120.00 40.00 104.00
C 56.00 104.00 72.00 104.00 88.00 104.00
M 152.00 104.00 
C 152.00 120.00 152.00 136.00 152.00 152.00
C 136.00 152.00 120.00 152.00 104.00 152.00
C 104.00 136.00 104.00 120.00 104.00 104.00
C 120.00 104.00 136.00 104.00 152.00 104.00
M 216.00 104.00 
C 216.00 120.00 216.00 136.00 216.00 152.00
C 200.00 152.00 184.00 152.00 168.00 152.00
C 168.00 136.00 168.00 120.00 168.00 104.00
C 184.00 104.00 200.00 104.00 216.00 104.00 Z"/>
</g>
<g fill="#000000" fill-opacity="1.00" stroke="None">
<path d="
M 88.00 104.00 
C 72.00 104.00 56.00 104.00 40.00 104.00
C 40.00 120.00 40.00 136.00 40.00 152.00
C 56.00 152.00 72.00 152.00 88.00 152.00
C 88.00 136.00 88.00 120.00 88.00 104.00
M 72.00 120.00 
C 72.00 125.33 72.00 130.67 72.00 136.00
C 66.67 136.00 61.33 136.00 56.00 136.00
C 56.00 130.67 56.00 125.33 56.00 120.00
C 61.33 120.00 66.67 120.00 72.00 120.00 Z"/>
</g>
<g fill="#000000" fill-opacity="1.00" stroke="None">
<path d="
M 152.00 104.00 
C 136.00 104.00 120.00 104.00 104.00 104.00
C 104.00 120.00 104.00 136.00 104.00 152.00
C 120.00 152.00 136.00 152.00 152.00 152.00
C 152.00 136.00 152.00 120.00 152.00 104.00
M 136.00 120.00 
C 136.00 125.33 136.00 130.67 136.00 136.00
C 130.67 136.00 125.33 136.00 120.00 136.00
C 120.00 130.67 120.00 125.33 120.00 120.00
C 125.33 120.00 130.67 120.00 136.00 120.00 Z"/>
</g>
<g fill="#000000" fill-opacity="1.00" stroke="None">
<path d="
M 216.00 104.00 
C 200.00 104.00 184.00 104.00 168.00 104.00
C 168.00 120.00 168.00 136.00 168.00 152.00
C 184.00 152.00 200.00 152.00 216.00 152.00
C 216.00 136.00 216.00 120.00 216.00 104.00
M 200.00 120.00 
C 200.00 125.33 200.00 130.67 200.00 136.00
C 194.67 136.00 189.33 136.00 184.00 136.00
C 184.00 130.67 184.00 125.33 184.00 120.00
C 189.33 120.00 194.67 120.00 200.00 120.00 Z"/>
</g>
<g fill="#E6E9ED" fill-opacity="1.00" stroke="None">
<path d="
M 72.00 120.00 
C 66.67 120.00 61.33 120.00 56.00 120.00
C 56.00 125.33 56.00 130.67 56.00 136.00
C 61.33 136.00 66.67 136.00 72.00 136.00
C 72.00 130.67 72.00 125.33 72.00 120.00 Z"/>
</g>
<g fill="#E6E9ED" fill-opacity="1.00" stroke="None">
<path d="
M 136.00 120.00 
C 130.67 120.00 125.33 120.00 120.00 120.00
C 120.00 125.33 120.00 130.67 120.00 136.00
C 125.33 136.00 130.67 136.00 136.00 136.00
C 136.00 130.67 136.00 125.33 136.00 120.00 Z"/>
</g>
<g fill="#E6E9ED" fill-opacity="1.00" stroke="None">
<path d="
M 200.00 120.00 
C 194.67 120.00 189.33 120.00 184.00 120.00
C 184.00 125.33 184.00 130.67 184.00 136.00
C 189.33 136.00 194.67 136.00 200.00 136.00
C 200.00 130.67 200.00 125.33 200.00 120.00 Z"/>
</g>
<g fill="#68D5F2" fill-opacity="1.00" stroke="None">
<path d="
M 352.00 120.00 
C 339.00 120.00 326.00 120.00 313.00 120.00
C 312.42 131.58 317.81 141.56 321.00 152.00
C 332.33 152.00 343.67 152.00 355.00 152.00
C 354.12 141.29 352.02 130.91 352.00 120.00 Z"/>
</g>
<g fill="#68D5F2" fill-opacity="1.00" stroke="None">
<path d="
M 432.00 120.00 
C 410.67 120.00 389.33 120.00 368.00 120.00
C 370.67 127.56 367.30 142.17 371.08 148.92 C 374.86 155.68 392.56 152.02 400.00 152.00 C 407.44 151.98 425.11 155.70 429.00 149.00 C 432.89 142.30 429.15 127.49 432.00 120.00 Z"/>
</g>
<g fill="#68D5F2" fill-opacity="1.00" stroke="None">
<path d="
M 487.00 120.00 
C 474.00 120.00 461.00 120.00 448.00 120.00
C 447.98 130.92 445.88 141.32 445.00 152.00
C 456.33 152.00 467.67 152.00 479.00 152.00
C 482.03 141.49 487.61 131.55 487.00 120.00 Z"/>
</g>
<g fill="#66D1EF" fill-opacity="1.00" stroke="None">
<path d="
M 370.00 194.00 
C 364.94 186.94 363.85 179.50 360.32 171.68 C 356.79 163.85 340.69 169.90 333.00 168.00
C 341.90 180.40 355.76 189.59 370.00 194.00 Z"/>
</g>
<g fill="#67D3F1" fill-opacity="1.00" stroke="None">
<path d="
M 424.00 168.00 
C 408.00 168.00 392.00 168.00 376.00 168.00
C 380.34 177.66 385.51 199.96 399.99 199.99 C 414.47 200.02 419.68 177.61 424.00 168.00 Z"/>
</g>
<g fill="#66D1EE" fill-opacity="1.00" stroke="None">
<path d="
M 467.00 168.00 
C 459.06 169.64 442.54 163.94 439.32 172.32 C 436.10 180.70 434.89 186.63 430.00 194.00
C 444.13 189.39 458.32 180.78 467.00 168.00 Z"/>
</g>
<g fill="#E5E8EC" fill-opacity="1.00" stroke="None">
<path d="
M 392.00 215.00 
C 375.98 214.23 361.85 210.24 348.08 201.92 C 334.31 193.59 327.32 181.81 309.00 184.00 C 290.68 186.19 270.69 183.01 252.00 184.00 C 233.31 184.99 213.86 183.55 195.00 184.00 C 176.14 184.45 156.93 183.79 138.00 184.00 C 119.07 184.21 99.97 183.89 81.00 184.00 C 62.03 184.11 42.97 183.92 24.00 184.00
C 24.13 198.51 23.82 213.54 24.00 228.00 C 24.18 242.46 23.65 256.63 24.00 271.00 C 24.35 285.37 23.26 300.81 24.00 315.00 C 24.74 329.19 22.34 344.22 24.00 358.00 C 25.66 371.78 20.36 388.98 24.08 401.92 C 27.79 414.87 50.01 405.79 61.00 408.00 C 71.99 410.21 92.18 406.34 104.00 408.00
C 104.00 386.67 104.00 365.33 104.00 344.00
C 114.87 343.94 126.17 344.08 137.00 344.00 C 147.83 343.92 159.33 344.16 170.00 344.00 C 180.67 343.84 191.62 344.36 202.00 344.00 C 212.38 343.64 225.19 344.76 235.00 344.00 C 244.81 343.24 259.39 348.22 262.01 338.01 C 264.63 327.79 263.82 318.66 264.00 308.00
C 272.72 311.63 281.45 315.00 289.00 321.00
C 290.22 287.34 327.38 267.17 320.00 231.00
C 344.06 231.66 364.38 249.08 376.00 269.00
C 378.70 259.97 383.35 254.83 389.25 247.25 C 395.14 239.66 390.55 224.59 392.00 215.00
M 184.00 200.00 
C 184.00 242.67 184.00 285.33 184.00 328.00
C 136.00 328.00 88.00 328.00 40.00 328.00
C 40.00 285.33 40.00 242.67 40.00 200.00
C 88.00 200.00 136.00 200.00 184.00 200.00
M 312.00 200.00 
C 312.00 205.33 312.00 210.67 312.00 216.00
C 274.67 216.00 237.33 216.00 200.00 216.00
C 200.00 210.67 200.00 205.33 200.00 200.00
C 237.33 200.00 274.67 200.00 312.00 200.00
M 296.00 232.00 
C 296.00 237.33 296.00 242.67 296.00 248.00
C 264.00 248.00 232.00 248.00 200.00 248.00
C 200.00 242.67 200.00 237.33 200.00 232.00
C 232.00 232.00 264.00 232.00 296.00 232.00
M 296.00 264.00 
C 296.00 269.33 296.00 274.67 296.00 280.00
C 264.00 280.00 232.00 280.00 200.00 280.00
C 200.00 274.67 200.00 269.33 200.00 264.00
C 232.00 264.00 264.00 264.00 296.00 264.00
M 248.00 296.00 
C 248.00 301.33 248.00 306.67 248.00 312.00
C 232.00 312.00 216.00 312.00 200.00 312.00
C 200.00 306.67 200.00 301.33 200.00 296.00
C 216.00 296.00 232.00 296.00 248.00 296.00
M 88.00 344.00 
C 88.00 349.33 88.00 354.67 88.00 360.00
C 72.00 360.00 56.00 360.00 40.00 360.00
C 40.00 354.67 40.00 349.33 40.00 344.00
C 56.00 344.00 72.00 344.00 88.00 344.00
M 88.00 376.00 
C 88.00 381.33 88.00 386.67 88.00 392.00
C 72.00 392.00 56.00 392.00 40.00 392.00
C 40.00 386.67 40.00 381.33 40.00 376.00
C 56.00 376.00 72.00 376.00 88.00 376.00 Z"/>
</g>
<g fill="#000000" fill-opacity="1.00" stroke="None">
<path d="
M 184.00 200.00 
C 136.00 200.00 88.00 200.00 40.00 200.00
C 40.00 242.67 40.00 285.33 40.00 328.00
C 88.00 328.00 136.00 328.00 184.00 328.00
C 184.00 285.33 184.00 242.67 184.00 200.00
M 168.00 216.00 
C 168.00 248.00 168.00 280.00 168.00 312.00
C 130.67 312.00 93.33 312.00 56.00 312.00
C 56.00 280.00 56.00 248.00 56.00 216.00
C 93.33 216.00 130.67 216.00 168.00 216.00 Z"/>
</g>
<g fill="#000000" fill-opacity="1.00" stroke="None">
<path d="
M 312.00 200.00 
C 274.67 200.00 237.33 200.00 200.00 200.00
C 200.00 205.33 200.00 210.67 200.00 216.00
C 237.33 216.00 274.67 216.00 312.00 216.00
C 312.00 210.67 312.00 205.33 312.00 200.00 Z"/>
</g>
<g fill="#FCD76F" fill-opacity="1.00" stroke="None">
<path d="
M 168.00 216.00 
C 130.67 216.00 93.33 216.00 56.00 216.00
C 56.00 248.00 56.00 280.00 56.00 312.00
C 93.33 312.00 130.67 312.00 168.00 312.00
C 168.00 280.00 168.00 248.00 168.00 216.00 Z"/>
</g>
<g fill="#000000" fill-opacity="1.00" stroke="None">
<path d="
M 296.00 232.00 
C 264.00 232.00 232.00 232.00 200.00 232.00
C 200.00 237.33 200.00 242.67 200.00 248.00
C 232.00 248.00 264.00 248.00 296.00 248.00
C 296.00 242.67 296.00 237.33 296.00 232.00 Z"/>
</g>
<g fill="#FD816D" fill-opacity="1.00" stroke="None">
<path d="
M 368.00 312.00 
C 368.67 287.86 358.57 260.96 335.00 251.00
C 335.43 267.87 323.78 281.12 315.25 294.25 C 306.73 307.39 299.05 327.89 307.25 342.75 C 315.44 357.62 320.78 374.29 320.00 392.00
C 314.67 392.00 309.33 392.00 304.00 392.00
C 304.02 370.10 297.09 347.92 279.00 334.00
C 270.96 367.78 244.19 394.46 248.07 431.93 C 251.95 469.39 283.45 492.33 321.00 488.00
C 296.20 466.38 301.87 427.81 320.70 405.70 C 339.52 383.58 349.29 359.00 369.00 339.00
C 386.08 361.78 398.12 384.29 416.23 406.77 C 434.34 429.25 439.33 466.51 415.00 488.00
C 452.45 492.31 484.07 469.43 488.00 432.00 C 491.93 394.57 464.93 367.72 457.00 334.00
C 438.95 347.86 431.95 370.15 432.00 392.00
C 426.67 392.00 421.33 392.00 416.00 392.00
C 415.93 368.42 422.70 344.46 440.00 328.00
C 440.85 298.26 410.37 280.93 409.00 252.00
C 388.94 264.81 383.98 289.72 384.00 312.00
C 378.67 312.00 373.33 312.00 368.00 312.00 Z"/>
</g>
<g fill="#000000" fill-opacity="1.00" stroke="None">
<path d="
M 296.00 264.00 
C 264.00 264.00 232.00 264.00 200.00 264.00
C 200.00 269.33 200.00 274.67 200.00 280.00
C 232.00 280.00 264.00 280.00 296.00 280.00
C 296.00 274.67 296.00 269.33 296.00 264.00 Z"/>
</g>
<g fill="#000000" fill-opacity="1.00" stroke="None">
<path d="
M 248.00 296.00 
C 232.00 296.00 216.00 296.00 200.00 296.00
C 200.00 301.33 200.00 306.67 200.00 312.00
C 216.00 312.00 232.00 312.00 248.00 312.00
C 248.00 306.67 248.00 301.33 248.00 296.00 Z"/>
</g>
<g fill="#000000" fill-opacity="1.00" stroke="None">
<path d="
M 88.00 344.00 
C 72.00 344.00 56.00 344.00 40.00 344.00
C 40.00 349.33 40.00 354.67 40.00 360.00
C 56.00 360.00 72.00 360.00 88.00 360.00
C 88.00 354.67 88.00 349.33 88.00 344.00 Z"/>
</g>
<g fill="#B27946" fill-opacity="1.00" stroke="None">
<path d="
M 136.00 360.00 
C 130.67 360.00 125.33 360.00 120.00 360.00
C 120.00 370.67 120.00 381.33 120.00 392.00
C 125.33 392.00 130.67 392.00 136.00 392.00
C 136.00 381.33 136.00 370.67 136.00 360.00 Z"/>
</g>
<g fill="#D2A06B" fill-opacity="1.00" stroke="None">
<path d="
M 184.00 360.00 
C 173.33 360.00 162.67 360.00 152.00 360.00
C 152.00 370.67 152.00 381.33 152.00 392.00
C 162.67 392.00 173.33 392.00 184.00 392.00
C 184.00 381.33 184.00 370.67 184.00 360.00 Z"/>
</g>
<g fill="#B17845" fill-opacity="1.00" stroke="None">
<path d="
M 252.00 360.00 
C 234.67 360.00 217.33 360.00 200.00 360.00
C 200.00 370.67 200.00 381.33 200.00 392.00
C 209.54 393.30 218.40 390.27 228.00 392.00 C 237.60 393.73 238.85 384.92 242.08 378.08 C 245.30 371.23 248.20 366.38 252.00 360.00 Z"/>
</g>
<g fill="#F86C4F" fill-opacity="1.00" stroke="None">
<path d="
M 369.00 367.00 
C 354.79 380.05 347.70 398.63 334.75 413.75 C 321.81 428.88 312.70 453.82 328.00 471.00
C 327.35 462.34 332.39 455.50 336.70 448.70 C 341.00 441.89 344.78 438.31 349.08 431.08 C 353.38 423.86 357.08 421.92 361.25 413.25 C 365.41 404.57 371.03 405.61 375.08 413.92 C 379.14 422.23 383.11 424.64 387.25 431.75 C 391.38 438.87 395.60 442.52 399.75 449.25 C 403.90 455.99 408.42 462.64 408.00 471.00
C 433.56 431.98 385.23 399.40 369.00 367.00 Z"/>
</g>
<g fill="#000000" fill-opacity="1.00" stroke="None">
<path d="
M 88.00 376.00 
C 72.00 376.00 56.00 376.00 40.00 376.00
C 40.00 381.33 40.00 386.67 40.00 392.00
C 56.00 392.00 72.00 392.00 88.00 392.00
C 88.00 386.67 88.00 381.33 88.00 376.00 Z"/>
</g>
<g fill="#D2A06B" fill-opacity="1.00" stroke="None">
<path d="
M 152.00 408.00 
C 141.33 408.00 130.67 408.00 120.00 408.00
C 120.00 418.67 120.00 429.33 120.00 440.00
C 130.67 440.00 141.33 440.00 152.00 440.00
C 152.00 429.33 152.00 418.67 152.00 408.00 Z"/>
</g>
<g fill="#B27946" fill-opacity="1.00" stroke="None">
<path d="
M 200.00 408.00 
C 189.33 408.00 178.67 408.00 168.00 408.00
C 168.00 418.67 168.00 429.33 168.00 440.00
C 178.67 440.00 189.33 440.00 200.00 440.00
C 200.00 429.33 200.00 418.67 200.00 408.00 Z"/>
</g>
<g fill="#D29F6B" fill-opacity="1.00" stroke="None">
<path d="
M 233.00 408.00 
C 227.33 408.00 221.67 408.00 216.00 408.00
C 216.00 418.67 216.00 429.33 216.00 440.00
C 221.67 440.00 227.33 440.00 233.00 440.00
C 231.41 429.56 231.80 418.45 233.00 408.00 Z"/>
</g>
<g fill="#FC806D" fill-opacity="1.00" stroke="None">
<path d="
M 369.00 433.00 
C 364.75 432.12 361.52 442.39 358.30 445.30 C 355.09 448.22 352.59 455.13 348.92 458.92 C 345.25 462.71 343.02 470.70 345.03 475.97 C 347.03 481.25 350.49 486.42 356.78 487.22 C 363.06 488.03 372.42 488.79 378.78 487.78 C 385.13 486.76 388.25 482.10 391.02 477.02 C 393.80 471.95 390.70 463.43 387.30 459.70 C 383.91 455.96 381.55 448.87 377.92 446.08 C 374.28 443.30 372.89 433.81 369.00 433.00 Z"/>
</g>
<g fill="#B27946" fill-opacity="1.00" stroke="None">
<path d="
M 136.00 456.00 
C 130.67 456.00 125.33 456.00 120.00 456.00
C 120.00 466.67 120.00 477.33 120.00 488.00
C 125.33 488.00 130.67 488.00 136.00 488.00
C 136.00 477.33 136.00 466.67 136.00 456.00 Z"/>
</g>
<g fill="#D2A06B" fill-opacity="1.00" stroke="None">
<path d="
M 184.00 456.00 
C 173.33 456.00 162.67 456.00 152.00 456.00
C 152.00 466.67 152.00 477.33 152.00 488.00
C 162.67 488.00 173.33 488.00 184.00 488.00
C 184.00 477.33 184.00 466.67 184.00 456.00 Z"/>
</g>
<g fill="#B17845" fill-opacity="1.00" stroke="None">
<path d="
M 238.00 456.00 
C 225.33 456.00 212.67 456.00 200.00 456.00
C 200.00 466.67 200.00 477.33 200.00 488.00
C 219.85 487.34 240.90 489.33 260.00 487.00
C 248.96 480.15 241.53 467.94 238.00 456.00 Z"/>
</g>
</svg>