<svg xmlns="http://www.w3.org/2000/svg" xmlns:v="https://svgstorm.com"
viewBox = "0 0 512 512"
width="512"
height="512">
<g fill="None" fill-opacity="0.0" stroke="#000000" stroke-opacity="0.10" stroke-width="0.3"><path d="
M 0.00 20.00 
C 1.78 9.00 9.13 1.99 20.00 0.00
L 0.00 0.00
L 0.00 20.00 Z"/>
</g>
<g fill="None" fill-opacity="0.0" stroke="#000000" stroke-opacity="1.00" stroke-width="0.3"><path d="
M 0.00 20.00 
L 0.00 213.00
C 3.88 239.76 38.22 230.71 63.00 232.00
C 63.19 245.06 62.74 257.93 63.00 271.00 C 63.26 284.07 62.51 296.86 63.00 310.00 C 63.49 323.14 61.95 335.69 63.00 349.00 C 64.05 362.31 43.82 359.09 33.00 358.00 C 22.18 356.91 13.86 358.96 16.71 367.30 C 19.57 375.64 23.08 377.14 27.24 383.77 C 31.39 390.40 33.65 394.62 37.39 400.75 C 41.14 406.89 46.10 411.20 49.75 417.25 C 53.39 423.31 56.06 428.10 60.13 433.92 C 64.20 439.73 67.41 444.79 71.59 450.75 C 75.76 456.72 77.73 461.04 82.71 467.30 C 87.69 473.57 93.14 483.83 98.30 490.70 C 103.47 497.57 108.02 508.57 116.00 512.00
L 118.00 512.00
C 128.50 501.53 136.44 485.83 144.92 473.92 C 153.40 462.00 158.93 453.95 165.57 444.23 C 172.21 434.51 177.22 425.71 183.39 416.25 C 189.57 406.78 197.14 398.07 202.26 388.25 C 207.39 378.43 222.01 369.39 213.00 357.00
C 199.15 359.25 184.26 357.39 170.00 358.00
C 170.00 316.00 170.00 274.00 170.00 232.00
C 184.39 229.69 206.63 235.60 217.90 230.88 C 229.17 226.16 233.25 218.72 232.00 205.00 C 230.75 191.28 233.45 166.19 232.00 152.00 C 230.55 137.81 237.70 115.51 225.00 113.00
C 220.36 113.70 219.29 114.75 218.00 119.00
C 215.50 133.79 220.03 150.17 218.00 165.00 C 215.97 179.83 221.36 197.22 217.00 211.00
C 215.79 214.83 214.85 215.78 211.00 217.00
C 197.01 221.42 179.24 216.93 164.00 218.00 C 148.76 219.07 131.38 218.12 116.00 218.00 C 100.62 217.88 83.11 219.38 68.00 218.00 C 52.89 216.62 34.59 222.02 21.00 217.00
C 15.08 214.82 15.00 210.89 15.00 205.00
C 15.00 188.57 14.87 171.35 15.00 155.00 C 15.13 138.65 14.67 119.96 15.00 104.00 C 15.33 88.04 14.22 68.94 15.00 54.00 C 15.78 39.06 8.62 15.34 27.00 15.00 C 45.38 14.66 59.97 15.25 78.00 15.00
C 78.37 22.87 77.51 33.39 78.00 41.00 C 78.49 48.61 74.96 59.26 84.00 61.00
C 93.98 62.69 105.82 61.26 116.00 61.00 C 126.18 60.74 139.06 63.20 149.00 61.00
C 163.22 55.75 150.77 26.31 155.00 15.00
C 165.00 15.00 175.00 15.00 185.00 15.00
C 194.13 15.00 213.25 10.85 217.00 21.00
C 220.56 30.64 216.33 42.42 218.00 53.00 C 219.67 63.58 215.67 76.47 218.00 87.00
C 219.15 90.11 221.39 92.66 225.00 93.00
C 227.77 93.26 228.78 88.67 232.00 90.00
C 233.24 72.19 230.41 46.90 232.00 29.00 C 233.59 11.10 226.20 3.67 212.00 0.00
L 20.00 0.00
C 9.13 1.99 1.78 9.00 0.00 20.00
M 140.00 15.00 
C 140.12 24.29 139.84 31.51 140.00 41.00 C 140.16 50.49 127.82 46.46 120.00 47.00 C 112.18 47.54 101.11 46.59 93.00 47.00
C 93.00 36.33 93.00 25.67 93.00 15.00
C 108.67 15.00 124.33 15.00 140.00 15.00
M 155.00 233.00 
C 158.05 237.35 153.70 246.37 155.00 252.00 C 156.30 257.63 154.40 265.82 155.00 272.00 C 155.60 278.18 154.69 285.59 155.00 292.00 C 155.31 298.41 154.78 305.54 155.00 312.00 C 155.22 318.46 154.72 325.63 155.00 332.00 C 155.28 338.37 154.46 345.92 155.00 352.00 C 155.54 358.08 153.01 365.14 157.26 369.74 C 161.50 374.35 169.12 371.26 175.00 372.00 C 180.88 372.74 188.93 371.45 195.00 372.00
C 169.66 412.00 142.50 451.75 116.00 491.00
C 90.12 451.02 63.27 411.73 37.00 372.00
C 48.02 372.95 54.53 370.73 66.00 372.00 C 77.47 373.27 77.81 362.63 77.00 353.00 C 76.19 343.37 77.37 332.83 77.00 323.00 C 76.63 313.17 77.17 302.92 77.00 293.00 C 76.83 283.08 77.09 272.96 77.00 263.00 C 76.91 253.04 77.07 242.97 77.00 233.00
C 79.61 229.27 91.12 232.85 96.00 232.00 C 100.88 231.15 110.67 232.00 116.00 232.00 C 121.33 232.00 131.10 231.16 136.00 232.00 C 140.90 232.84 152.40 229.29 155.00 233.00 Z"/>
</g>
<g fill="None" fill-opacity="0.0" stroke="#000000" stroke-opacity="0.01" stroke-width="0.3"><path d="
M 225.00 93.00 
C 225.00 99.67 225.00 106.33 225.00 113.00
C 237.70 115.51 230.55 137.81 232.00 152.00 C 233.45 166.19 230.75 191.28 232.00 205.00 C 233.25 218.72 229.17 226.16 217.90 230.88 C 206.63 235.60 184.39 229.69 170.00 232.00
C 170.00 274.00 170.00 316.00 170.00 358.00
C 184.26 357.39 199.15 359.25 213.00 357.00
C 222.01 369.39 207.39 378.43 202.26 388.25 C 197.14 398.07 189.57 406.78 183.39 416.25 C 177.22 425.71 172.21 434.51 165.57 444.23 C 158.93 453.95 153.40 462.00 144.92 473.92 C 136.44 485.83 128.50 501.53 118.00 512.00
L 277.00 512.00
C 244.38 503.84 256.59 466.72 255.00 438.00 C 253.41 409.28 256.19 370.62 255.00 341.00
C 232.73 347.22 225.97 321.51 236.26 312.25 C 246.55 302.99 245.24 291.59 258.75 283.61 C 272.27 275.63 299.45 282.05 318.00 280.00
C 318.49 266.98 317.35 255.14 318.00 242.00 C 318.65 228.86 316.75 217.58 318.00 204.00 C 319.25 190.42 315.32 180.63 318.00 166.00 C 320.68 151.37 303.45 152.66 292.00 154.00 C 280.55 155.34 271.20 155.14 270.98 146.97 C 270.76 138.80 277.46 137.14 280.70 130.70 C 283.93 124.25 287.26 119.68 290.80 113.75 C 294.34 107.82 298.93 103.37 302.70 97.70 C 306.47 92.03 308.49 86.72 312.39 81.25 C 316.30 75.77 320.29 70.54 324.09 65.08 C 327.89 59.63 330.33 53.98 334.19 48.75 C 338.05 43.51 341.82 37.72 345.26 32.25 C 348.71 26.78 352.73 21.86 356.57 16.23 C 360.41 10.60 362.42 3.89 370.00 0.00
L 212.00 0.00
C 226.20 3.67 233.59 11.10 232.00 29.00 C 230.41 46.90 233.24 72.19 232.00 90.00
C 228.78 88.67 227.77 93.26 225.00 93.00 Z"/>
</g>
<g fill="None" fill-opacity="0.0" stroke="#000000" stroke-opacity="0.99" stroke-width="0.3"><path d="
M 277.00 512.00 
L 471.00 512.00
C 497.12 495.72 485.02 463.51 487.00 435.00 C 488.98 406.49 485.51 370.22 487.00 341.00
C 497.38 342.68 509.92 339.04 512.00 328.00
L 512.00 325.00
C 505.06 308.68 500.21 303.39 489.30 288.70 C 478.40 274.00 445.42 281.63 425.00 280.00
C 422.35 268.15 431.50 246.85 418.00 245.00
C 401.24 246.38 415.93 270.53 410.00 279.00
C 407.39 282.73 395.88 279.15 391.00 280.00 C 386.12 280.85 376.33 280.00 371.00 280.00 C 365.67 280.00 355.90 280.84 351.00 280.00 C 346.10 279.16 334.60 282.71 332.00 279.00
C 329.10 274.86 333.23 266.36 332.00 261.00 C 330.77 255.64 332.57 247.89 332.00 242.00 C 331.43 236.11 332.29 229.13 332.00 223.00 C 331.71 216.87 332.21 210.23 332.00 204.00 C 331.79 197.77 332.26 191.26 332.00 185.00 C 331.74 178.74 332.49 172.23 332.00 166.00 C 331.51 159.77 333.04 153.14 332.00 147.00
C 327.60 132.51 303.47 143.39 292.00 140.00
C 315.36 104.96 338.65 70.02 362.00 35.00
C 365.03 30.30 368.40 25.92 371.00 21.00
C 397.54 60.30 424.65 99.98 450.00 140.00
C 440.63 143.45 415.01 133.22 411.03 145.03 C 407.04 156.83 410.51 175.72 410.00 188.00 C 409.49 200.28 405.54 220.01 418.00 224.00
C 429.28 224.93 424.32 206.62 425.00 196.00 C 425.68 185.38 424.49 165.46 425.00 154.00
C 440.36 151.91 459.81 158.18 472.00 151.00
C 468.59 135.39 457.60 124.04 449.74 111.25 C 441.87 98.45 432.87 86.81 424.43 74.23 C 415.99 61.65 409.08 49.16 400.20 36.75 C 391.32 24.34 384.71 10.42 372.00 0.00
L 370.00 0.00
C 362.42 3.89 360.41 10.60 356.57 16.23 C 352.73 21.86 348.71 26.78 345.26 32.25 C 341.82 37.72 338.05 43.51 334.19 48.75 C 330.33 53.98 327.89 59.63 324.09 65.08 C 320.29 70.54 316.30 75.77 312.39 81.25 C 308.49 86.72 306.47 92.03 302.70 97.70 C 298.93 103.37 294.34 107.82 290.80 113.75 C 287.26 119.68 283.93 124.25 280.70 130.70 C 277.46 137.14 270.76 138.80 270.98 146.97 C 271.20 155.14 280.55 155.34 292.00 154.00 C 303.45 152.66 320.68 151.37 318.00 166.00 C 315.32 180.63 319.25 190.42 318.00 204.00 C 316.75 217.58 318.65 228.86 318.00 242.00 C 317.35 255.14 318.49 266.98 318.00 280.00
C 299.45 282.05 272.27 275.63 258.75 283.61 C 245.24 291.59 246.55 302.99 236.26 312.25 C 225.97 321.51 232.73 347.22 255.00 341.00
C 256.19 370.62 253.41 409.28 255.00 438.00 C 256.59 466.72 244.38 503.84 277.00 512.00
M 356.00 296.00 
C 355.58 302.82 346.77 306.97 344.70 313.70 C 342.63 320.42 335.14 326.76 328.00 326.00 C 320.86 325.24 305.56 323.50 305.00 333.00
C 304.26 345.64 326.34 340.57 335.00 341.00 C 343.66 341.43 351.67 330.92 355.77 323.77 C 359.87 316.62 366.69 308.30 371.00 301.00
C 383.45 313.94 388.23 338.76 409.00 341.00
C 415.59 341.45 423.56 340.27 430.00 341.00 C 436.44 341.73 445.08 339.50 451.00 341.00 C 456.92 342.50 467.31 337.72 472.00 341.00
C 476.20 343.94 471.84 355.34 473.00 361.00 C 474.16 366.66 472.48 376.47 473.00 383.00 C 473.52 389.53 472.78 398.13 473.00 405.00 C 473.22 411.87 472.97 418.95 473.00 426.00 C 473.03 433.05 473.12 440.89 473.00 448.00 C 472.88 455.11 473.34 462.96 473.00 470.00 C 472.66 477.04 474.25 484.90 472.00 491.00
C 467.48 503.25 446.03 495.42 434.00 497.00 C 421.97 498.58 403.41 496.37 390.00 497.00 C 376.59 497.63 359.95 496.91 346.00 497.00 C 332.05 497.09 316.02 497.40 302.00 497.00 C 287.98 496.60 270.00 502.46 270.00 484.00
C 270.00 436.33 270.00 388.67 270.00 341.00
C 276.02 341.59 284.10 341.43 285.00 334.00
C 285.27 326.28 276.47 325.57 270.00 326.00 C 263.53 326.43 252.86 325.68 246.00 326.00
C 253.92 315.96 258.45 300.77 270.00 295.00
C 276.17 293.13 284.06 294.11 291.00 294.00 C 297.94 293.89 307.26 293.91 314.00 294.00 C 320.74 294.09 331.09 293.66 337.00 294.00 C 342.91 294.34 356.23 292.27 356.00 296.00
M 473.00 295.00 
C 485.13 298.84 488.04 317.94 497.00 326.00
C 473.61 328.50 449.30 322.66 426.00 326.00 C 402.70 329.34 396.46 311.90 386.00 295.00
C 399.27 294.07 415.03 292.80 429.00 294.00 C 442.97 295.20 460.14 290.93 473.00 295.00 Z"/>
</g>
<g fill="None" fill-opacity="0.0" stroke="#000000" stroke-opacity="0.01" stroke-width="0.3"><path d="
M 418.00 224.00 
C 418.00 231.00 418.00 238.00 418.00 245.00
C 431.50 246.85 422.35 268.15 425.00 280.00
C 445.42 281.63 478.40 274.00 489.30 288.70 C 500.21 303.39 505.06 308.68 512.00 325.00
L 512.00 0.00
L 372.00 0.00
C 384.71 10.42 391.32 24.34 400.20 36.75 C 409.08 49.16 415.99 61.65 424.43 74.23 C 432.87 86.81 441.87 98.45 449.74 111.25 C 457.60 124.04 468.59 135.39 472.00 151.00
C 459.81 158.18 440.36 151.91 425.00 154.00
C 424.49 165.46 425.68 185.38 425.00 196.00 C 424.32 206.62 429.28 224.93 418.00 224.00 Z"/>
</g>
<g fill="None" fill-opacity="0.0" stroke="#FDA85B" stroke-opacity="1.00" stroke-width="0.3"><path d="
M 15.00 205.00 
C 37.69 205.35 61.41 204.54 84.00 205.00 C 106.59 205.46 129.01 205.41 150.00 202.00
C 148.45 201.87 148.03 201.34 147.00 201.00
C 138.24 198.10 139.04 188.39 140.00 180.00 C 140.96 171.61 136.21 159.58 145.00 156.00
C 155.25 151.83 173.45 155.00 185.00 155.00
C 185.00 108.33 185.00 61.67 185.00 15.00
C 175.00 15.00 165.00 15.00 155.00 15.00
C 150.77 26.31 163.22 55.75 149.00 61.00
C 140.12 64.28 127.00 61.86 117.00 62.00 C 107.00 62.14 93.07 63.75 84.00 61.00
C 74.96 59.26 78.49 48.61 78.00 41.00 C 77.51 33.39 78.37 22.87 78.00 15.00
C 59.97 15.25 45.38 14.66 27.00 15.00 C 8.62 15.34 15.78 39.06 15.00 54.00 C 14.22 68.94 15.33 88.04 15.00 104.00 C 14.67 119.96 15.13 138.65 15.00 155.00 C 14.87 171.35 15.00 188.57 15.00 205.00 Z"/>
</g>
<g fill="None" fill-opacity="0.0" stroke="#F9D7B9" stroke-opacity="1.00" stroke-width="0.3"><path d="
M 140.00 15.00 
C 124.33 15.00 108.67 15.00 93.00 15.00
C 93.00 25.67 93.00 36.33 93.00 47.00
C 101.11 46.59 112.18 47.54 120.00 47.00 C 127.82 46.46 140.16 50.49 140.00 41.00 C 139.84 31.51 140.12 24.29 140.00 15.00 Z"/>
</g>
<g fill="None" fill-opacity="0.0" stroke="#FD9637" stroke-opacity="1.00" stroke-width="0.3"><path d="
M 185.00 155.00 
C 188.90 155.00 192.80 154.82 196.00 156.00
C 204.57 159.16 200.44 170.84 201.00 179.00 C 201.56 187.16 203.50 198.65 194.00 201.00
C 181.74 204.04 163.19 203.13 150.00 202.00
C 129.01 205.41 106.59 205.46 84.00 205.00 C 61.41 204.54 37.69 205.35 15.00 205.00
C 15.00 210.89 15.08 214.82 21.00 217.00
C 35.94 220.31 52.60 215.75 68.00 217.00 C 83.40 218.25 100.44 216.89 116.00 217.00 C 131.56 217.11 147.48 218.02 163.00 217.00 C 178.52 215.98 195.71 219.74 211.00 217.00
C 214.85 215.78 215.79 214.83 217.00 211.00
C 219.65 196.23 214.97 179.85 217.00 165.00 C 219.03 150.15 213.80 132.85 218.00 119.00
C 219.29 114.75 220.36 113.70 225.00 113.00
C 225.00 106.33 225.00 99.67 225.00 93.00
C 221.39 92.66 219.15 90.11 218.00 87.00
C 214.44 77.36 218.67 65.58 217.00 55.00 C 215.33 44.42 219.33 31.53 217.00 21.00
C 213.25 10.85 194.13 15.00 185.00 15.00
C 185.00 61.67 185.00 108.33 185.00 155.00 Z"/>
</g>
<g fill="None" fill-opacity="0.0" stroke="#714319" stroke-opacity="1.00" stroke-width="0.3"><path d="
M 218.00 87.00 
C 215.67 76.47 219.67 63.58 218.00 53.00 C 216.33 42.42 220.56 30.64 217.00 21.00
C 219.33 31.53 215.33 44.42 217.00 55.00 C 218.67 65.58 214.44 77.36 218.00 87.00 Z"/>
</g>
<g fill="None" fill-opacity="0.0" stroke="#F92B3A" stroke-opacity="1.00" stroke-width="0.3"><path d="
M 362.00 35.00 
C 369.20 43.17 374.23 53.39 380.77 62.23 C 387.31 71.07 392.82 81.76 399.75 90.25 C 406.69 98.73 414.40 112.81 405.75 121.75 C 397.10 130.70 378.70 125.34 378.02 141.02 C 377.35 156.71 377.76 172.07 378.00 187.00 C 378.24 201.93 378.00 213.67 368.25 224.25 C 358.50 234.83 347.46 236.92 333.00 236.00
C 332.33 206.50 334.33 175.68 332.00 147.00
C 333.04 153.14 331.51 159.77 332.00 166.00 C 332.49 172.23 331.74 178.74 332.00 185.00 C 332.26 191.26 331.79 197.77 332.00 204.00 C 332.21 210.23 331.71 216.87 332.00 223.00 C 332.29 229.13 331.43 236.11 332.00 242.00 C 332.57 247.89 330.77 255.64 332.00 261.00 C 333.23 266.36 329.10 274.86 332.00 279.00
C 358.00 279.00 384.00 279.00 410.00 279.00
C 415.93 270.53 401.24 246.38 418.00 245.00
C 418.00 238.00 418.00 231.00 418.00 224.00
C 405.54 220.01 409.49 200.28 410.00 188.00 C 410.51 175.72 407.04 156.83 411.03 145.03 C 415.01 133.22 440.63 143.45 450.00 140.00
C 424.65 99.98 397.54 60.30 371.00 21.00
C 368.40 25.92 365.03 30.30 362.00 35.00 Z"/>
</g>
<g fill="None" fill-opacity="0.0" stroke="#FC4654" stroke-opacity="1.00" stroke-width="0.3"><path d="
M 332.00 147.00 
C 334.33 175.68 332.33 206.50 333.00 236.00
C 347.46 236.92 358.50 234.83 368.25 224.25 C 378.00 213.67 378.24 201.93 378.00 187.00 C 377.76 172.07 377.35 156.71 378.02 141.02 C 378.70 125.34 397.10 130.70 405.75 121.75 C 414.40 112.81 406.69 98.73 399.75 90.25 C 392.82 81.76 387.31 71.07 380.77 62.23 C 374.23 53.39 369.20 43.17 362.00 35.00
C 338.65 70.02 315.36 104.96 292.00 140.00
C 303.47 143.39 327.60 132.51 332.00 147.00 Z"/>
</g>
<g fill="None" fill-opacity="0.0" stroke="#664425" stroke-opacity="1.00" stroke-width="0.3"><path d="
M 149.00 61.00 
C 139.06 63.20 126.18 60.74 116.00 61.00 C 105.82 61.26 93.98 62.69 84.00 61.00
C 93.07 63.75 107.00 62.14 117.00 62.00 C 127.00 61.86 140.12 64.28 149.00 61.00 Z"/>
</g>
<g fill="None" fill-opacity="0.0" stroke="#704218" stroke-opacity="1.00" stroke-width="0.3"><path d="
M 217.00 211.00 
C 221.36 197.22 215.97 179.83 218.00 165.00 C 220.03 150.17 215.50 133.79 218.00 119.00
C 213.80 132.85 219.03 150.15 217.00 165.00 C 214.97 179.85 219.65 196.23 217.00 211.00 Z"/>
</g>
<g fill="None" fill-opacity="0.0" stroke="#57381D" stroke-opacity="1.00" stroke-width="0.3"><path d="
M 145.00 156.00 
C 152.45 154.13 162.21 155.99 170.00 156.00 C 177.79 156.01 188.37 154.31 196.00 156.00
C 192.80 154.82 188.90 155.00 185.00 155.00
C 173.45 155.00 155.25 151.83 145.00 156.00 Z"/>
</g>
<g fill="None" fill-opacity="0.0" stroke="#000000" stroke-opacity="1.00" stroke-width="0.3"><path d="
M 147.00 201.00 
C 161.14 202.75 179.86 202.75 194.00 201.00
C 203.50 198.65 201.56 187.16 201.00 179.00 C 200.44 170.84 204.57 159.16 196.00 156.00
C 188.37 154.31 177.79 156.01 170.00 156.00 C 162.21 155.99 152.45 154.13 145.00 156.00
C 136.21 159.58 140.96 171.61 140.00 180.00 C 139.04 188.39 138.24 198.10 147.00 201.00
M 155.00 186.00 
C 153.02 184.02 153.02 171.90 155.00 170.00
C 164.77 169.11 176.23 169.12 186.00 170.00
C 190.11 173.95 187.55 190.40 180.00 187.00 C 172.45 183.60 160.63 191.63 155.00 186.00 Z"/>
</g>
<g fill="None" fill-opacity="0.0" stroke="#353535" stroke-opacity="1.00" stroke-width="0.3"><path d="
M 155.00 186.00 
C 155.00 181.00 155.00 176.00 155.00 171.00
C 155.00 170.50 155.00 170.00 155.00 170.00
C 153.02 171.90 153.02 184.02 155.00 186.00 Z"/>
</g>
<g fill="None" fill-opacity="0.0" stroke="#A8A9A9" stroke-opacity="1.00" stroke-width="0.3"><path d="
M 155.00 171.00 
C 164.77 171.88 176.23 171.88 186.00 171.00
C 186.00 170.50 186.00 170.00 186.00 170.00
C 176.23 169.12 164.77 169.11 155.00 170.00
C 155.00 170.00 155.00 170.50 155.00 171.00 Z"/>
</g>
<g fill="None" fill-opacity="0.0" stroke="#5E6262" stroke-opacity="1.00" stroke-width="0.3"><path d="
M 186.00 171.00 
C 186.00 176.00 186.00 181.00 186.00 186.00
C 175.67 186.00 165.33 186.00 155.00 186.00
C 160.63 191.63 172.45 183.60 180.00 187.00 C 187.55 190.40 190.11 173.95 186.00 170.00
C 186.00 170.00 186.00 170.50 186.00 171.00 Z"/>
</g>
<g fill="None" fill-opacity="0.0" stroke="#FAFDFD" stroke-opacity="1.00" stroke-width="0.3"><path d="
M 155.00 186.00 
C 165.33 186.00 175.67 186.00 186.00 186.00
C 186.00 181.00 186.00 176.00 186.00 171.00
C 176.23 171.88 164.77 171.88 155.00 171.00
C 155.00 176.00 155.00 181.00 155.00 186.00 Z"/>
</g>
<g fill="None" fill-opacity="0.0" stroke="#985C25" stroke-opacity="1.00" stroke-width="0.3"><path d="
M 150.00 202.00 
C 163.19 203.13 181.74 204.04 194.00 201.00
C 179.86 202.75 161.14 202.75 147.00 201.00
C 148.03 201.34 148.45 201.87 150.00 202.00 Z"/>
</g>
<g fill="None" fill-opacity="0.0" stroke="#000000" stroke-opacity="0.01" stroke-width="0.3"><path d="
M 0.00 512.00 
L 116.00 512.00
C 108.02 508.57 103.47 497.57 98.30 490.70 C 93.14 483.83 87.69 473.57 82.71 467.30 C 77.73 461.04 75.76 456.72 71.59 450.75 C 67.41 444.79 64.20 439.73 60.13 433.92 C 56.06 428.10 53.39 423.31 49.75 417.25 C 46.10 411.20 41.14 406.89 37.39 400.75 C 33.65 394.62 31.39 390.40 27.24 383.77 C 23.08 377.14 19.57 375.64 16.71 367.30 C 13.86 358.96 22.18 356.91 33.00 358.00 C 43.82 359.09 64.05 362.31 63.00 349.00 C 61.95 335.69 63.49 323.14 63.00 310.00 C 62.51 296.86 63.26 284.07 63.00 271.00 C 62.74 257.93 63.19 245.06 63.00 232.00
C 38.22 230.71 3.88 239.76 0.00 213.00
L 0.00 512.00 Z"/>
</g>
<g fill="None" fill-opacity="0.0" stroke="#764519" stroke-opacity="1.00" stroke-width="0.3"><path d="
M 211.00 217.00 
C 195.71 219.74 178.52 215.98 163.00 217.00 C 147.48 218.02 131.56 217.11 116.00 217.00 C 100.44 216.89 83.40 218.25 68.00 217.00 C 52.60 215.75 35.94 220.31 21.00 217.00
C 34.59 222.02 52.89 216.62 68.00 218.00 C 83.11 219.38 100.62 217.88 116.00 218.00 C 131.38 218.12 148.76 219.07 164.00 218.00 C 179.24 216.93 197.01 221.42 211.00 217.00 Z"/>
</g>
<g fill="None" fill-opacity="0.0" stroke="#507215" stroke-opacity="1.00" stroke-width="0.3"><path d="
M 77.00 233.00 
C 103.00 233.00 129.00 233.00 155.00 233.00
C 152.40 229.29 140.90 232.84 136.00 232.00 C 131.10 231.16 121.33 232.00 116.00 232.00 C 110.67 232.00 100.88 231.15 96.00 232.00 C 91.12 232.85 79.61 229.27 77.00 233.00 Z"/>
</g>
<g fill="None" fill-opacity="0.0" stroke="#9CDE2B" stroke-opacity="1.00" stroke-width="0.3"><path d="
M 155.00 233.00 
C 129.00 233.00 103.00 233.00 77.00 233.00
C 77.07 242.97 76.91 253.04 77.00 263.00 C 77.09 272.96 76.83 283.08 77.00 293.00 C 77.17 302.92 76.63 313.17 77.00 323.00 C 77.37 332.83 76.19 343.37 77.00 353.00 C 77.81 362.63 77.47 373.27 66.00 372.00 C 54.53 370.73 48.02 372.95 37.00 372.00
C 63.27 411.73 90.12 451.02 116.00 491.00
C 142.50 451.75 169.66 412.00 195.00 372.00
C 188.93 371.45 180.88 372.74 175.00 372.00 C 169.12 371.26 161.50 374.35 157.26 369.74 C 153.01 365.14 155.54 358.08 155.00 352.00 C 154.46 345.92 155.28 338.37 155.00 332.00 C 154.72 325.63 155.22 318.46 155.00 312.00 C 154.78 305.54 155.31 298.41 155.00 292.00 C 154.69 285.59 155.60 278.18 155.00 272.00 C 154.40 265.82 156.30 257.63 155.00 252.00 C 153.70 246.37 158.05 237.35 155.00 233.00 Z"/>
</g>
<g fill="None" fill-opacity="0.0" stroke="#85161E" stroke-opacity="1.00" stroke-width="0.3"><path d="
M 410.00 279.00 
C 384.00 279.00 358.00 279.00 332.00 279.00
C 334.60 282.71 346.10 279.16 351.00 280.00 C 355.90 280.84 365.67 280.00 371.00 280.00 C 376.33 280.00 386.12 280.85 391.00 280.00 C 395.88 279.15 407.39 282.73 410.00 279.00 Z"/>
</g>
<g fill="None" fill-opacity="0.0" stroke="#776658" stroke-opacity="1.00" stroke-width="0.3"><path d="
M 270.00 295.00 
C 283.83 292.66 298.98 295.99 313.00 295.00 C 327.02 294.01 342.76 294.91 356.00 296.00
C 356.23 292.27 342.91 294.34 337.00 294.00 C 331.09 293.66 320.74 294.09 314.00 294.00 C 307.26 293.91 297.94 293.89 291.00 294.00 C 284.06 294.11 276.17 293.13 270.00 295.00 Z"/>
</g>
<g fill="None" fill-opacity="0.0" stroke="#765D48" stroke-opacity="1.00" stroke-width="0.3"><path d="
M 386.00 295.00 
C 400.28 296.01 414.74 293.66 429.00 295.00 C 443.26 296.34 458.91 292.47 473.00 295.00
C 460.14 290.93 442.97 295.20 429.00 294.00 C 415.03 292.80 399.27 294.07 386.00 295.00 Z"/>
</g>
<g fill="None" fill-opacity="0.0" stroke="#FCDABC" stroke-opacity="1.00" stroke-width="0.3"><path d="
M 285.00 334.00 
C 290.63 332.19 300.12 336.85 305.00 333.00
C 305.56 323.50 320.86 325.24 328.00 326.00 C 335.14 326.76 342.63 320.42 344.70 313.70 C 346.77 306.97 355.58 302.82 356.00 296.00
C 342.76 294.91 327.02 294.01 313.00 295.00 C 298.98 295.99 283.83 292.66 270.00 295.00
C 258.45 300.77 253.92 315.96 246.00 326.00
C 252.86 325.68 263.53 326.43 270.00 326.00 C 276.47 325.57 285.27 326.28 285.00 334.00 Z"/>
</g>
<g fill="None" fill-opacity="0.0" stroke="#FDC99B" stroke-opacity="1.00" stroke-width="0.3"><path d="
M 473.00 295.00 
C 458.91 292.47 443.26 296.34 429.00 295.00 C 414.74 293.66 400.28 296.01 386.00 295.00
C 396.46 311.90 402.70 329.34 426.00 326.00 C 449.30 322.66 473.61 328.50 497.00 326.00
C 488.04 317.94 485.13 298.84 473.00 295.00 Z"/>
</g>
<g fill="None" fill-opacity="0.0" stroke="#FDA85B" stroke-opacity="1.00" stroke-width="0.3"><path d="
M 305.00 333.00 
C 300.12 336.85 290.63 332.19 285.00 334.00
C 284.10 341.43 276.02 341.59 270.00 341.00
C 270.00 388.67 270.00 436.33 270.00 484.00
C 293.01 484.20 317.10 483.74 340.00 484.00 C 362.90 484.26 385.75 484.81 407.00 481.00
C 390.05 480.66 397.02 468.91 395.00 456.00 C 392.98 443.09 396.54 432.50 411.00 435.00 C 425.46 437.50 434.97 433.26 449.00 435.00
C 446.53 434.39 443.13 433.39 440.00 434.00
C 440.00 403.33 440.00 372.67 440.00 342.00
C 429.83 341.33 418.34 343.33 409.00 341.00
C 388.23 338.76 383.45 313.94 371.00 301.00
C 366.69 308.30 359.87 316.62 355.77 323.77 C 351.67 330.92 343.66 341.43 335.00 341.00 C 326.34 340.57 304.26 345.64 305.00 333.00 Z"/>
</g>
<g fill="None" fill-opacity="0.0" stroke="#000000" stroke-opacity="0.02" stroke-width="0.3"><path d="
M 471.00 512.00 
L 512.00 512.00
L 512.00 328.00
C 509.92 339.04 497.38 342.68 487.00 341.00
C 485.51 370.22 488.98 406.49 487.00 435.00 C 485.02 463.51 497.12 495.72 471.00 512.00 Z"/>
</g>
<g fill="None" fill-opacity="0.0" stroke="#FD9638" stroke-opacity="1.00" stroke-width="0.3"><path d="
M 449.00 435.00 
C 461.86 438.19 453.28 450.87 456.00 462.00 C 458.72 473.13 453.58 482.94 441.00 481.00 C 428.42 479.06 419.29 481.25 407.00 481.00
C 385.75 484.81 362.90 484.26 340.00 484.00 C 317.10 483.74 293.01 484.20 270.00 484.00
C 270.00 502.46 287.98 496.60 302.00 497.00 C 316.02 497.40 332.05 497.09 346.00 497.00 C 359.95 496.91 376.59 497.63 390.00 497.00 C 403.41 496.37 421.97 498.58 434.00 497.00 C 446.03 495.42 467.48 503.25 472.00 491.00
C 475.52 475.11 470.36 457.30 472.00 441.00 C 473.64 424.70 471.14 407.48 472.00 391.00 C 472.86 374.52 471.36 357.52 472.00 341.00
C 467.31 337.72 456.92 342.50 451.00 341.00 C 445.08 339.50 436.44 341.73 430.00 341.00 C 423.56 340.27 415.59 341.45 409.00 341.00
C 418.34 343.33 429.83 341.33 440.00 342.00
C 440.00 372.67 440.00 403.33 440.00 434.00
C 443.13 433.39 446.53 434.39 449.00 435.00 Z"/>
</g>
<g fill="None" fill-opacity="0.0" stroke="#714318" stroke-opacity="1.00" stroke-width="0.3"><path d="
M 472.00 491.00 
C 474.25 484.90 472.66 477.04 473.00 470.00 C 473.34 462.96 472.88 455.11 473.00 448.00 C 473.12 440.89 473.03 433.05 473.00 426.00 C 472.97 418.95 473.22 411.87 473.00 405.00 C 472.78 398.13 473.52 389.53 473.00 383.00 C 472.48 376.47 474.16 366.66 473.00 361.00 C 471.84 355.34 476.20 343.94 472.00 341.00
C 471.36 357.52 472.86 374.52 472.00 391.00 C 471.14 407.48 473.64 424.70 472.00 441.00 C 470.36 457.30 475.52 475.11 472.00 491.00 Z"/>
</g>
<g fill="None" fill-opacity="0.0" stroke="#000000" stroke-opacity="1.00" stroke-width="0.3"><path d="
M 407.00 481.00 
C 419.29 481.25 428.42 479.06 441.00 481.00 C 453.58 482.94 458.72 473.13 456.00 462.00 C 453.28 450.87 461.86 438.19 449.00 435.00
C 434.97 433.26 425.46 437.50 411.00 435.00 C 396.54 432.50 392.98 443.09 395.00 456.00 C 397.02 468.91 390.05 480.66 407.00 481.00
M 441.00 466.00 
C 437.55 468.41 430.35 464.81 426.00 466.00 C 421.65 467.19 414.60 465.11 410.00 466.00
C 410.00 460.67 410.00 455.33 410.00 450.00
C 420.33 450.00 430.67 450.00 441.00 450.00
C 442.98 451.39 442.91 464.66 441.00 466.00 Z"/>
</g>
<g fill="None" fill-opacity="0.0" stroke="#F9FCFC" stroke-opacity="1.00" stroke-width="0.3"><path d="
M 441.00 466.00 
C 441.00 460.67 441.00 455.33 441.00 450.00
C 430.67 450.00 420.33 450.00 410.00 450.00
C 410.00 455.33 410.00 460.67 410.00 466.00
C 414.60 465.11 421.65 467.19 426.00 466.00 C 430.35 464.81 437.55 468.41 441.00 466.00 Z"/>
</g>
<g fill="None" fill-opacity="0.0" stroke="#595F5F" stroke-opacity="1.00" stroke-width="0.3"><path d="
M 441.00 466.00 
C 442.91 464.66 442.98 451.39 441.00 450.00
C 441.00 455.33 441.00 460.67 441.00 466.00 Z"/>
</g>
<g fill="#000000" fill-opacity="0.10" stroke="None">
<path d="
M 0.00 20.00 
C 1.78 9.00 9.13 1.99 20.00 0.00
L 0.00 0.00
L 0.00 20.00 Z"/>
</g>
<g fill="#000000" fill-opacity="1.00" stroke="None">
<path d="
M 0.00 20.00 
L 0.00 213.00
C 3.88 239.76 38.22 230.71 63.00 232.00
C 63.19 245.06 62.74 257.93 63.00 271.00 C 63.26 284.07 62.51 296.86 63.00 310.00 C 63.49 323.14 61.95 335.69 63.00 349.00 C 64.05 362.31 43.82 359.09 33.00 358.00 C 22.18 356.91 13.86 358.96 16.71 367.30 C 19.57 375.64 23.08 377.14 27.24 383.77 C 31.39 390.40 33.65 394.62 37.39 400.75 C 41.14 406.89 46.10 411.20 49.75 417.25 C 53.39 423.31 56.06 428.10 60.13 433.92 C 64.20 439.73 67.41 444.79 71.59 450.75 C 75.76 456.72 77.73 461.04 82.71 467.30 C 87.69 473.57 93.14 483.83 98.30 490.70 C 103.47 497.57 108.02 508.57 116.00 512.00
L 118.00 512.00
C 128.50 501.53 136.44 485.83 144.92 473.92 C 153.40 462.00 158.93 453.95 165.57 444.23 C 172.21 434.51 177.22 425.71 183.39 416.25 C 189.57 406.78 197.14 398.07 202.26 388.25 C 207.39 378.43 222.01 369.39 213.00 357.00
C 199.15 359.25 184.26 357.39 170.00 358.00
C 170.00 316.00 170.00 274.00 170.00 232.00
C 184.39 229.69 206.63 235.60 217.90 230.88 C 229.17 226.16 233.25 218.72 232.00 205.00 C 230.75 191.28 233.45 166.19 232.00 152.00 C 230.55 137.81 237.70 115.51 225.00 113.00
C 220.36 113.70 219.29 114.75 218.00 119.00
C 215.50 133.79 220.03 150.17 218.00 165.00 C 215.97 179.83 221.36 197.22 217.00 211.00
C 215.79 214.83 214.85 215.78 211.00 217.00
C 197.01 221.42 179.24 216.93 164.00 218.00 C 148.76 219.07 131.38 218.12 116.00 218.00 C 100.62 217.88 83.11 219.38 68.00 218.00 C 52.89 216.62 34.59 222.02 21.00 217.00
C 15.08 214.82 15.00 210.89 15.00 205.00
C 15.00 188.57 14.87 171.35 15.00 155.00 C 15.13 138.65 14.67 119.96 15.00 104.00 C 15.33 88.04 14.22 68.94 15.00 54.00 C 15.78 39.06 8.62 15.34 27.00 15.00 C 45.38 14.66 59.97 15.25 78.00 15.00
C 78.37 22.87 77.51 33.39 78.00 41.00 C 78.49 48.61 74.96 59.26 84.00 61.00
C 93.98 62.69 105.82 61.26 116.00 61.00 C 126.18 60.74 139.06 63.20 149.00 61.00
C 163.22 55.75 150.77 26.31 155.00 15.00
C 165.00 15.00 175.00 15.00 185.00 15.00
C 194.13 15.00 213.25 10.85 217.00 21.00
C 220.56 30.64 216.33 42.42 218.00 53.00 C 219.67 63.58 215.67 76.47 218.00 87.00
C 219.15 90.11 221.39 92.66 225.00 93.00
C 227.77 93.26 228.78 88.67 232.00 90.00
C 233.24 72.19 230.41 46.90 232.00 29.00 C 233.59 11.10 226.20 3.67 212.00 0.00
L 20.00 0.00
C 9.13 1.99 1.78 9.00 0.00 20.00
M 140.00 15.00 
C 140.12 24.29 139.84 31.51 140.00 41.00 C 140.16 50.49 127.82 46.46 120.00 47.00 C 112.18 47.54 101.11 46.59 93.00 47.00
C 93.00 36.33 93.00 25.67 93.00 15.00
C 108.67 15.00 124.33 15.00 140.00 15.00
M 155.00 233.00 
C 158.05 237.35 153.70 246.37 155.00 252.00 C 156.30 257.63 154.40 265.82 155.00 272.00 C 155.60 278.18 154.69 285.59 155.00 292.00 C 155.31 298.41 154.78 305.54 155.00 312.00 C 155.22 318.46 154.72 325.63 155.00 332.00 C 155.28 338.37 154.46 345.92 155.00 352.00 C 155.54 358.08 153.01 365.14 157.26 369.74 C 161.50 374.35 169.12 371.26 175.00 372.00 C 180.88 372.74 188.93 371.45 195.00 372.00
C 169.66 412.00 142.50 451.75 116.00 491.00
C 90.12 451.02 63.27 411.73 37.00 372.00
C 48.02 372.95 54.53 370.73 66.00 372.00 C 77.47 373.27 77.81 362.63 77.00 353.00 C 76.19 343.37 77.37 332.83 77.00 323.00 C 76.63 313.17 77.17 302.92 77.00 293.00 C 76.83 283.08 77.09 272.96 77.00 263.00 C 76.91 253.04 77.07 242.97 77.00 233.00
C 79.61 229.27 91.12 232.85 96.00 232.00 C 100.88 231.15 110.67 232.00 116.00 232.00 C 121.33 232.00 131.10 231.16 136.00 232.00 C 140.90 232.84 152.40 229.29 155.00 233.00 Z"/>
</g>
<g fill="#000000" fill-opacity="0.01" stroke="None">
<path d="
M 225.00 93.00 
C 225.00 99.67 225.00 106.33 225.00 113.00
C 237.70 115.51 230.55 137.81 232.00 152.00 C 233.45 166.19 230.75 191.28 232.00 205.00 C 233.25 218.72 229.17 226.16 217.90 230.88 C 206.63 235.60 184.39 229.69 170.00 232.00
C 170.00 274.00 170.00 316.00 170.00 358.00
C 184.26 357.39 199.15 359.25 213.00 357.00
C 222.01 369.39 207.39 378.43 202.26 388.25 C 197.14 398.07 189.57 406.78 183.39 416.25 C 177.22 425.71 172.21 434.51 165.57 444.23 C 158.93 453.95 153.40 462.00 144.92 473.92 C 136.44 485.83 128.50 501.53 118.00 512.00
L 277.00 512.00
C 244.38 503.84 256.59 466.72 255.00 438.00 C 253.41 409.28 256.19 370.62 255.00 341.00
C 232.73 347.22 225.97 321.51 236.26 312.25 C 246.55 302.99 245.24 291.59 258.75 283.61 C 272.27 275.63 299.45 282.05 318.00 280.00
C 318.49 266.98 317.35 255.14 318.00 242.00 C 318.65 228.86 316.75 217.58 318.00 204.00 C 319.25 190.42 315.32 180.63 318.00 166.00 C 320.68 151.37 303.45 152.66 292.00 154.00 C 280.55 155.34 271.20 155.14 270.98 146.97 C 270.76 138.80 277.46 137.14 280.70 130.70 C 283.93 124.25 287.26 119.68 290.80 113.75 C 294.34 107.82 298.93 103.37 302.70 97.70 C 306.47 92.03 308.49 86.72 312.39 81.25 C 316.30 75.77 320.29 70.54 324.09 65.08 C 327.89 59.63 330.33 53.98 334.19 48.75 C 338.05 43.51 341.82 37.72 345.26 32.25 C 348.71 26.78 352.73 21.86 356.57 16.23 C 360.41 10.60 362.42 3.89 370.00 0.00
L 212.00 0.00
C 226.20 3.67 233.59 11.10 232.00 29.00 C 230.41 46.90 233.24 72.19 232.00 90.00
C 228.78 88.67 227.77 93.26 225.00 93.00 Z"/>
</g>
<g fill="#000000" fill-opacity="0.99" stroke="None">
<path d="
M 277.00 512.00 
L 471.00 512.00
C 497.12 495.72 485.02 463.51 487.00 435.00 C 488.98 406.49 485.51 370.22 487.00 341.00
C 497.38 342.68 509.92 339.04 512.00 328.00
L 512.00 325.00
C 505.06 308.68 500.21 303.39 489.30 288.70 C 478.40 274.00 445.42 281.63 425.00 280.00
C 422.35 268.15 431.50 246.85 418.00 245.00
C 401.24 246.38 415.93 270.53 410.00 279.00
C 407.39 282.73 395.88 279.15 391.00 280.00 C 386.12 280.85 376.33 280.00 371.00 280.00 C 365.67 280.00 355.90 280.84 351.00 280.00 C 346.10 279.16 334.60 282.71 332.00 279.00
C 329.10 274.86 333.23 266.36 332.00 261.00 C 330.77 255.64 332.57 247.89 332.00 242.00 C 331.43 236.11 332.29 229.13 332.00 223.00 C 331.71 216.87 332.21 210.23 332.00 204.00 C 331.79 197.77 332.26 191.26 332.00 185.00 C 331.74 178.74 332.49 172.23 332.00 166.00 C 331.51 159.77 333.04 153.14 332.00 147.00
C 327.60 132.51 303.47 143.39 292.00 140.00
C 315.36 104.96 338.65 70.02 362.00 35.00
C 365.03 30.30 368.40 25.92 371.00 21.00
C 397.54 60.30 424.65 99.98 450.00 140.00
C 440.63 143.45 415.01 133.22 411.03 145.03 C 407.04 156.83 410.51 175.72 410.00 188.00 C 409.49 200.28 405.54 220.01 418.00 224.00
C 429.28 224.93 424.32 206.62 425.00 196.00 C 425.68 185.38 424.49 165.46 425.00 154.00
C 440.36 151.91 459.81 158.18 472.00 151.00
C 468.59 135.39 457.60 124.04 449.74 111.25 C 441.87 98.45 432.87 86.81 424.43 74.23 C 415.99 61.65 409.08 49.16 400.20 36.75 C 391.32 24.34 384.71 10.42 372.00 0.00
L 370.00 0.00
C 362.42 3.89 360.41 10.60 356.57 16.23 C 352.73 21.86 348.71 26.78 345.26 32.25 C 341.82 37.72 338.05 43.51 334.19 48.75 C 330.33 53.98 327.89 59.63 324.09 65.08 C 320.29 70.54 316.30 75.77 312.39 81.25 C 308.49 86.72 306.47 92.03 302.70 97.70 C 298.93 103.37 294.34 107.82 290.80 113.75 C 287.26 119.68 283.93 124.25 280.70 130.70 C 277.46 137.14 270.76 138.80 270.98 146.97 C 271.20 155.14 280.55 155.34 292.00 154.00 C 303.45 152.66 320.68 151.37 318.00 166.00 C 315.32 180.63 319.25 190.42 318.00 204.00 C 316.75 217.58 318.65 228.86 318.00 242.00 C 317.35 255.14 318.49 266.98 318.00 280.00
C 299.45 282.05 272.27 275.63 258.75 283.61 C 245.24 291.59 246.55 302.99 236.26 312.25 C 225.97 321.51 232.73 347.22 255.00 341.00
C 256.19 370.62 253.41 409.28 255.00 438.00 C 256.59 466.72 244.38 503.84 277.00 512.00
M 356.00 296.00 
C 355.58 302.82 346.77 306.97 344.70 313.70 C 342.63 320.42 335.14 326.76 328.00 326.00 C 320.86 325.24 305.56 323.50 305.00 333.00
C 304.26 345.64 326.34 340.57 335.00 341.00 C 343.66 341.43 351.67 330.92 355.77 323.77 C 359.87 316.62 366.69 308.30 371.00 301.00
C 383.45 313.94 388.23 338.76 409.00 341.00
C 415.59 341.45 423.56 340.27 430.00 341.00 C 436.44 341.73 445.08 339.50 451.00 341.00 C 456.92 342.50 467.31 337.72 472.00 341.00
C 476.20 343.94 471.84 355.34 473.00 361.00 C 474.16 366.66 472.48 376.47 473.00 383.00 C 473.52 389.53 472.78 398.13 473.00 405.00 C 473.22 411.87 472.97 418.95 473.00 426.00 C 473.03 433.05 473.12 440.89 473.00 448.00 C 472.88 455.11 473.34 462.96 473.00 470.00 C 472.66 477.04 474.25 484.90 472.00 491.00
C 467.48 503.25 446.03 495.42 434.00 497.00 C 421.97 498.58 403.41 496.37 390.00 497.00 C 376.59 497.63 359.95 496.91 346.00 497.00 C 332.05 497.09 316.02 497.40 302.00 497.00 C 287.98 496.60 270.00 502.46 270.00 484.00
C 270.00 436.33 270.00 388.67 270.00 341.00
C 276.02 341.59 284.10 341.43 285.00 334.00
C 285.27 326.28 276.47 325.57 270.00 326.00 C 263.53 326.43 252.86 325.68 246.00 326.00
C 253.92 315.96 258.45 300.77 270.00 295.00
C 276.17 293.13 284.06 294.11 291.00 294.00 C 297.94 293.89 307.26 293.91 314.00 294.00 C 320.74 294.09 331.09 293.66 337.00 294.00 C 342.91 294.34 356.23 292.27 356.00 296.00
M 473.00 295.00 
C 485.13 298.84 488.04 317.94 497.00 326.00
C 473.61 328.50 449.30 322.66 426.00 326.00 C 402.70 329.34 396.46 311.90 386.00 295.00
C 399.27 294.07 415.03 292.80 429.00 294.00 C 442.97 295.20 460.14 290.93 473.00 295.00 Z"/>
</g>
<g fill="#000000" fill-opacity="0.01" stroke="None">
<path d="
M 418.00 224.00 
C 418.00 231.00 418.00 238.00 418.00 245.00
C 431.50 246.85 422.35 268.15 425.00 280.00
C 445.42 281.63 478.40 274.00 489.30 288.70 C 500.21 303.39 505.06 308.68 512.00 325.00
L 512.00 0.00
L 372.00 0.00
C 384.71 10.42 391.32 24.34 400.20 36.75 C 409.08 49.16 415.99 61.65 424.43 74.23 C 432.87 86.81 441.87 98.45 449.74 111.25 C 457.60 124.04 468.59 135.39 472.00 151.00
C 459.81 158.18 440.36 151.91 425.00 154.00
C 424.49 165.46 425.68 185.38 425.00 196.00 C 424.32 206.62 429.28 224.93 418.00 224.00 Z"/>
</g>
<g fill="#FDA85B" fill-opacity="1.00" stroke="None">
<path d="
M 15.00 205.00 
C 37.69 205.35 61.41 204.54 84.00 205.00 C 106.59 205.46 129.01 205.41 150.00 202.00
C 148.45 201.87 148.03 201.34 147.00 201.00
C 138.24 198.10 139.04 188.39 140.00 180.00 C 140.96 171.61 136.21 159.58 145.00 156.00
C 155.25 151.83 173.45 155.00 185.00 155.00
C 185.00 108.33 185.00 61.67 185.00 15.00
C 175.00 15.00 165.00 15.00 155.00 15.00
C 150.77 26.31 163.22 55.75 149.00 61.00
C 140.12 64.28 127.00 61.86 117.00 62.00 C 107.00 62.14 93.07 63.75 84.00 61.00
C 74.96 59.26 78.49 48.61 78.00 41.00 C 77.51 33.39 78.37 22.87 78.00 15.00
C 59.97 15.25 45.38 14.66 27.00 15.00 C 8.62 15.34 15.78 39.06 15.00 54.00 C 14.22 68.94 15.33 88.04 15.00 104.00 C 14.67 119.96 15.13 138.65 15.00 155.00 C 14.87 171.35 15.00 188.57 15.00 205.00 Z"/>
</g>
<g fill="#F9D7B9" fill-opacity="1.00" stroke="None">
<path d="
M 140.00 15.00 
C 124.33 15.00 108.67 15.00 93.00 15.00
C 93.00 25.67 93.00 36.33 93.00 47.00
C 101.11 46.59 112.18 47.54 120.00 47.00 C 127.82 46.46 140.16 50.49 140.00 41.00 C 139.84 31.51 140.12 24.29 140.00 15.00 Z"/>
</g>
<g fill="#FD9637" fill-opacity="1.00" stroke="None">
<path d="
M 185.00 155.00 
C 188.90 155.00 192.80 154.82 196.00 156.00
C 204.57 159.16 200.44 170.84 201.00 179.00 C 201.56 187.16 203.50 198.65 194.00 201.00
C 181.74 204.04 163.19 203.13 150.00 202.00
C 129.01 205.41 106.59 205.46 84.00 205.00 C 61.41 204.54 37.69 205.35 15.00 205.00
C 15.00 210.89 15.08 214.82 21.00 217.00
C 35.94 220.31 52.60 215.75 68.00 217.00 C 83.40 218.25 100.44 216.89 116.00 217.00 C 131.56 217.11 147.48 218.02 163.00 217.00 C 178.52 215.98 195.71 219.74 211.00 217.00
C 214.85 215.78 215.79 214.83 217.00 211.00
C 219.65 196.23 214.97 179.85 217.00 165.00 C 219.03 150.15 213.80 132.85 218.00 119.00
C 219.29 114.75 220.36 113.70 225.00 113.00
C 225.00 106.33 225.00 99.67 225.00 93.00
C 221.39 92.66 219.15 90.11 218.00 87.00
C 214.44 77.36 218.67 65.58 217.00 55.00 C 215.33 44.42 219.33 31.53 217.00 21.00
C 213.25 10.85 194.13 15.00 185.00 15.00
C 185.00 61.67 185.00 108.33 185.00 155.00 Z"/>
</g>
<g fill="#714319" fill-opacity="1.00" stroke="None">
<path d="
M 218.00 87.00 
C 215.67 76.47 219.67 63.58 218.00 53.00 C 216.33 42.42 220.56 30.64 217.00 21.00
C 219.33 31.53 215.33 44.42 217.00 55.00 C 218.67 65.58 214.44 77.36 218.00 87.00 Z"/>
</g>
<g fill="#F92B3A" fill-opacity="1.00" stroke="None">
<path d="
M 362.00 35.00 
C 369.20 43.17 374.23 53.39 380.77 62.23 C 387.31 71.07 392.82 81.76 399.75 90.25 C 406.69 98.73 414.40 112.81 405.75 121.75 C 397.10 130.70 378.70 125.34 378.02 141.02 C 377.35 156.71 377.76 172.07 378.00 187.00 C 378.24 201.93 378.00 213.67 368.25 224.25 C 358.50 234.83 347.46 236.92 333.00 236.00
C 332.33 206.50 334.33 175.68 332.00 147.00
C 333.04 153.14 331.51 159.77 332.00 166.00 C 332.49 172.23 331.74 178.74 332.00 185.00 C 332.26 191.26 331.79 197.77 332.00 204.00 C 332.21 210.23 331.71 216.87 332.00 223.00 C 332.29 229.13 331.43 236.11 332.00 242.00 C 332.57 247.89 330.77 255.64 332.00 261.00 C 333.23 266.36 329.10 274.86 332.00 279.00
C 358.00 279.00 384.00 279.00 410.00 279.00
C 415.93 270.53 401.24 246.38 418.00 245.00
C 418.00 238.00 418.00 231.00 418.00 224.00
C 405.54 220.01 409.49 200.28 410.00 188.00 C 410.51 175.72 407.04 156.83 411.03 145.03 C 415.01 133.22 440.63 143.45 450.00 140.00
C 424.65 99.98 397.54 60.30 371.00 21.00
C 368.40 25.92 365.03 30.30 362.00 35.00 Z"/>
</g>
<g fill="#FC4654" fill-opacity="1.00" stroke="None">
<path d="
M 332.00 147.00 
C 334.33 175.68 332.33 206.50 333.00 236.00
C 347.46 236.92 358.50 234.83 368.25 224.25 C 378.00 213.67 378.24 201.93 378.00 187.00 C 377.76 172.07 377.35 156.71 378.02 141.02 C 378.70 125.34 397.10 130.70 405.75 121.75 C 414.40 112.81 406.69 98.73 399.75 90.25 C 392.82 81.76 387.31 71.07 380.77 62.23 C 374.23 53.39 369.20 43.17 362.00 35.00
C 338.65 70.02 315.36 104.96 292.00 140.00
C 303.47 143.39 327.60 132.51 332.00 147.00 Z"/>
</g>
<g fill="#664425" fill-opacity="1.00" stroke="None">
<path d="
M 149.00 61.00 
C 139.06 63.20 126.18 60.74 116.00 61.00 C 105.82 61.26 93.98 62.69 84.00 61.00
C 93.07 63.75 107.00 62.14 117.00 62.00 C 127.00 61.86 140.12 64.28 149.00 61.00 Z"/>
</g>
<g fill="#704218" fill-opacity="1.00" stroke="None">
<path d="
M 217.00 211.00 
C 221.36 197.22 215.97 179.83 218.00 165.00 C 220.03 150.17 215.50 133.79 218.00 119.00
C 213.80 132.85 219.03 150.15 217.00 165.00 C 214.97 179.85 219.65 196.23 217.00 211.00 Z"/>
</g>
<g fill="#57381D" fill-opacity="1.00" stroke="None">
<path d="
M 145.00 156.00 
C 152.45 154.13 162.21 155.99 170.00 156.00 C 177.79 156.01 188.37 154.31 196.00 156.00
C 192.80 154.82 188.90 155.00 185.00 155.00
C 173.45 155.00 155.25 151.83 145.00 156.00 Z"/>
</g>
<g fill="#000000" fill-opacity="1.00" stroke="None">
<path d="
M 147.00 201.00 
C 161.14 202.75 179.86 202.75 194.00 201.00
C 203.50 198.65 201.56 187.16 201.00 179.00 C 200.44 170.84 204.57 159.16 196.00 156.00
C 188.37 154.31 177.79 156.01 170.00 156.00 C 162.21 155.99 152.45 154.13 145.00 156.00
C 136.21 159.58 140.96 171.61 140.00 180.00 C 139.04 188.39 138.24 198.10 147.00 201.00
M 155.00 186.00 
C 153.02 184.02 153.02 171.90 155.00 170.00
C 164.77 169.11 176.23 169.12 186.00 170.00
C 190.11 173.95 187.55 190.40 180.00 187.00 C 172.45 183.60 160.63 191.63 155.00 186.00 Z"/>
</g>
<g fill="#353535" fill-opacity="1.00" stroke="None">
<path d="
M 155.00 186.00 
C 155.00 181.00 155.00 176.00 155.00 171.00
C 155.00 170.50 155.00 170.00 155.00 170.00
C 153.02 171.90 153.02 184.02 155.00 186.00 Z"/>
</g>
<g fill="#A8A9A9" fill-opacity="1.00" stroke="None">
<path d="
M 155.00 171.00 
C 164.77 171.88 176.23 171.88 186.00 171.00
C 186.00 170.50 186.00 170.00 186.00 170.00
C 176.23 169.12 164.77 169.11 155.00 170.00
C 155.00 170.00 155.00 170.50 155.00 171.00 Z"/>
</g>
<g fill="#5E6262" fill-opacity="1.00" stroke="None">
<path d="
M 186.00 171.00 
C 186.00 176.00 186.00 181.00 186.00 186.00
C 175.67 186.00 165.33 186.00 155.00 186.00
C 160.63 191.63 172.45 183.60 180.00 187.00 C 187.55 190.40 190.11 173.95 186.00 170.00
C 186.00 170.00 186.00 170.50 186.00 171.00 Z"/>
</g>
<g fill="#FAFDFD" fill-opacity="1.00" stroke="None">
<path d="
M 155.00 186.00 
C 165.33 186.00 175.67 186.00 186.00 186.00
C 186.00 181.00 186.00 176.00 186.00 171.00
C 176.23 171.88 164.77 171.88 155.00 171.00
C 155.00 176.00 155.00 181.00 155.00 186.00 Z"/>
</g>
<g fill="#985C25" fill-opacity="1.00" stroke="None">
<path d="
M 150.00 202.00 
C 163.19 203.13 181.74 204.04 194.00 201.00
C 179.86 202.75 161.14 202.75 147.00 201.00
C 148.03 201.34 148.45 201.87 150.00 202.00 Z"/>
</g>
<g fill="#000000" fill-opacity="0.01" stroke="None">
<path d="
M 0.00 512.00 
L 116.00 512.00
C 108.02 508.57 103.47 497.57 98.30 490.70 C 93.14 483.83 87.69 473.57 82.71 467.30 C 77.73 461.04 75.76 456.72 71.59 450.75 C 67.41 444.79 64.20 439.73 60.13 433.92 C 56.06 428.10 53.39 423.31 49.75 417.25 C 46.10 411.20 41.14 406.89 37.39 400.75 C 33.65 394.62 31.39 390.40 27.24 383.77 C 23.08 377.14 19.57 375.64 16.71 367.30 C 13.86 358.96 22.18 356.91 33.00 358.00 C 43.82 359.09 64.05 362.31 63.00 349.00 C 61.95 335.69 63.49 323.14 63.00 310.00 C 62.51 296.86 63.26 284.07 63.00 271.00 C 62.74 257.93 63.19 245.06 63.00 232.00
C 38.22 230.71 3.88 239.76 0.00 213.00
L 0.00 512.00 Z"/>
</g>
<g fill="#764519" fill-opacity="1.00" stroke="None">
<path d="
M 211.00 217.00 
C 195.71 219.74 178.52 215.98 163.00 217.00 C 147.48 218.02 131.56 217.11 116.00 217.00 C 100.44 216.89 83.40 218.25 68.00 217.00 C 52.60 215.75 35.94 220.31 21.00 217.00
C 34.59 222.02 52.89 216.62 68.00 218.00 C 83.11 219.38 100.62 217.88 116.00 218.00 C 131.38 218.12 148.76 219.07 164.00 218.00 C 179.24 216.93 197.01 221.42 211.00 217.00 Z"/>
</g>
<g fill="#507215" fill-opacity="1.00" stroke="None">
<path d="
M 77.00 233.00 
C 103.00 233.00 129.00 233.00 155.00 233.00
C 152.40 229.29 140.90 232.84 136.00 232.00 C 131.10 231.16 121.33 232.00 116.00 232.00 C 110.67 232.00 100.88 231.15 96.00 232.00 C 91.12 232.85 79.61 229.27 77.00 233.00 Z"/>
</g>
<g fill="#9CDE2B" fill-opacity="1.00" stroke="None">
<path d="
M 155.00 233.00 
C 129.00 233.00 103.00 233.00 77.00 233.00
C 77.07 242.97 76.91 253.04 77.00 263.00 C 77.09 272.96 76.83 283.08 77.00 293.00 C 77.17 302.92 76.63 313.17 77.00 323.00 C 77.37 332.83 76.19 343.37 77.00 353.00 C 77.81 362.63 77.47 373.27 66.00 372.00 C 54.53 370.73 48.02 372.95 37.00 372.00
C 63.27 411.73 90.12 451.02 116.00 491.00
C 142.50 451.75 169.66 412.00 195.00 372.00
C 188.93 371.45 180.88 372.74 175.00 372.00 C 169.12 371.26 161.50 374.35 157.26 369.74 C 153.01 365.14 155.54 358.08 155.00 352.00 C 154.46 345.92 155.28 338.37 155.00 332.00 C 154.72 325.63 155.22 318.46 155.00 312.00 C 154.78 305.54 155.31 298.41 155.00 292.00 C 154.69 285.59 155.60 278.18 155.00 272.00 C 154.40 265.82 156.30 257.63 155.00 252.00 C 153.70 246.37 158.05 237.35 155.00 233.00 Z"/>
</g>
<g fill="#85161E" fill-opacity="1.00" stroke="None">
<path d="
M 410.00 279.00 
C 384.00 279.00 358.00 279.00 332.00 279.00
C 334.60 282.71 346.10 279.16 351.00 280.00 C 355.90 280.84 365.67 280.00 371.00 280.00 C 376.33 280.00 386.12 280.85 391.00 280.00 C 395.88 279.15 407.39 282.73 410.00 279.00 Z"/>
</g>
<g fill="#776658" fill-opacity="1.00" stroke="None">
<path d="
M 270.00 295.00 
C 283.83 292.66 298.98 295.99 313.00 295.00 C 327.02 294.01 342.76 294.91 356.00 296.00
C 356.23 292.27 342.91 294.34 337.00 294.00 C 331.09 293.66 320.74 294.09 314.00 294.00 C 307.26 293.91 297.94 293.89 291.00 294.00 C 284.06 294.11 276.17 293.13 270.00 295.00 Z"/>
</g>
<g fill="#765D48" fill-opacity="1.00" stroke="None">
<path d="
M 386.00 295.00 
C 400.28 296.01 414.74 293.66 429.00 295.00 C 443.26 296.34 458.91 292.47 473.00 295.00
C 460.14 290.93 442.97 295.20 429.00 294.00 C 415.03 292.80 399.27 294.07 386.00 295.00 Z"/>
</g>
<g fill="#FCDABC" fill-opacity="1.00" stroke="None">
<path d="
M 285.00 334.00 
C 290.63 332.19 300.12 336.85 305.00 333.00
C 305.56 323.50 320.86 325.24 328.00 326.00 C 335.14 326.76 342.63 320.42 344.70 313.70 C 346.77 306.97 355.58 302.82 356.00 296.00
C 342.76 294.91 327.02 294.01 313.00 295.00 C 298.98 295.99 283.83 292.66 270.00 295.00
C 258.45 300.77 253.92 315.96 246.00 326.00
C 252.86 325.68 263.53 326.43 270.00 326.00 C 276.47 325.57 285.27 326.28 285.00 334.00 Z"/>
</g>
<g fill="#FDC99B" fill-opacity="1.00" stroke="None">
<path d="
M 473.00 295.00 
C 458.91 292.47 443.26 296.34 429.00 295.00 C 414.74 293.66 400.28 296.01 386.00 295.00
C 396.46 311.90 402.70 329.34 426.00 326.00 C 449.30 322.66 473.61 328.50 497.00 326.00
C 488.04 317.94 485.13 298.84 473.00 295.00 Z"/>
</g>
<g fill="#FDA85B" fill-opacity="1.00" stroke="None">
<path d="
M 305.00 333.00 
C 300.12 336.85 290.63 332.19 285.00 334.00
C 284.10 341.43 276.02 341.59 270.00 341.00
C 270.00 388.67 270.00 436.33 270.00 484.00
C 293.01 484.20 317.10 483.74 340.00 484.00 C 362.90 484.26 385.75 484.81 407.00 481.00
C 390.05 480.66 397.02 468.91 395.00 456.00 C 392.98 443.09 396.54 432.50 411.00 435.00 C 425.46 437.50 434.97 433.26 449.00 435.00
C 446.53 434.39 443.13 433.39 440.00 434.00
C 440.00 403.33 440.00 372.67 440.00 342.00
C 429.83 341.33 418.34 343.33 409.00 341.00
C 388.23 338.76 383.45 313.94 371.00 301.00
C 366.69 308.30 359.87 316.62 355.77 323.77 C 351.67 330.92 343.66 341.43 335.00 341.00 C 326.34 340.57 304.26 345.64 305.00 333.00 Z"/>
</g>
<g fill="#000000" fill-opacity="0.02" stroke="None">
<path d="
M 471.00 512.00 
L 512.00 512.00
L 512.00 328.00
C 509.92 339.04 497.38 342.68 487.00 341.00
C 485.51 370.22 488.98 406.49 487.00 435.00 C 485.02 463.51 497.12 495.72 471.00 512.00 Z"/>
</g>
<g fill="#FD9638" fill-opacity="1.00" stroke="None">
<path d="
M 449.00 435.00 
C 461.86 438.19 453.28 450.87 456.00 462.00 C 458.72 473.13 453.58 482.94 441.00 481.00 C 428.42 479.06 419.29 481.25 407.00 481.00
C 385.75 484.81 362.90 484.26 340.00 484.00 C 317.10 483.74 293.01 484.20 270.00 484.00
C 270.00 502.46 287.98 496.60 302.00 497.00 C 316.02 497.40 332.05 497.09 346.00 497.00 C 359.95 496.91 376.59 497.63 390.00 497.00 C 403.41 496.37 421.97 498.58 434.00 497.00 C 446.03 495.42 467.48 503.25 472.00 491.00
C 475.52 475.11 470.36 457.30 472.00 441.00 C 473.64 424.70 471.14 407.48 472.00 391.00 C 472.86 374.52 471.36 357.52 472.00 341.00
C 467.31 337.72 456.92 342.50 451.00 341.00 C 445.08 339.50 436.44 341.73 430.00 341.00 C 423.56 340.27 415.59 341.45 409.00 341.00
C 418.34 343.33 429.83 341.33 440.00 342.00
C 440.00 372.67 440.00 403.33 440.00 434.00
C 443.13 433.39 446.53 434.39 449.00 435.00 Z"/>
</g>
<g fill="#714318" fill-opacity="1.00" stroke="None">
<path d="
M 472.00 491.00 
C 474.25 484.90 472.66 477.04 473.00 470.00 C 473.34 462.96 472.88 455.11 473.00 448.00 C 473.12 440.89 473.03 433.05 473.00 426.00 C 472.97 418.95 473.22 411.87 473.00 405.00 C 472.78 398.13 473.52 389.53 473.00 383.00 C 472.48 376.47 474.16 366.66 473.00 361.00 C 471.84 355.34 476.20 343.94 472.00 341.00
C 471.36 357.52 472.86 374.52 472.00 391.00 C 471.14 407.48 473.64 424.70 472.00 441.00 C 470.36 457.30 475.52 475.11 472.00 491.00 Z"/>
</g>
<g fill="#000000" fill-opacity="1.00" stroke="None">
<path d="
M 407.00 481.00 
C 419.29 481.25 428.42 479.06 441.00 481.00 C 453.58 482.94 458.72 473.13 456.00 462.00 C 453.28 450.87 461.86 438.19 449.00 435.00
C 434.97 433.26 425.46 437.50 411.00 435.00 C 396.54 432.50 392.98 443.09 395.00 456.00 C 397.02 468.91 390.05 480.66 407.00 481.00
M 441.00 466.00 
C 437.55 468.41 430.35 464.81 426.00 466.00 C 421.65 467.19 414.60 465.11 410.00 466.00
C 410.00 460.67 410.00 455.33 410.00 450.00
C 420.33 450.00 430.67 450.00 441.00 450.00
C 442.98 451.39 442.91 464.66 441.00 466.00 Z"/>
</g>
<g fill="#F9FCFC" fill-opacity="1.00" stroke="None">
<path d="
M 441.00 466.00 
C 441.00 460.67 441.00 455.33 441.00 450.00
C 430.67 450.00 420.33 450.00 410.00 450.00
C 410.00 455.33 410.00 460.67 410.00 466.00
C 414.60 465.11 421.65 467.19 426.00 466.00 C 430.35 464.81 437.55 468.41 441.00 466.00 Z"/>
</g>
<g fill="#595F5F" fill-opacity="1.00" stroke="None">
<path d="
M 441.00 466.00 
C 442.91 464.66 442.98 451.39 441.00 450.00
C 441.00 455.33 441.00 460.67 441.00 466.00 Z"/>
</g>
</svg>