<svg xmlns="http://www.w3.org/2000/svg" xmlns:v="https://svgstorm.com"
viewBox = "0 0 512 512"
width="512"
height="512">
<g fill="None" fill-opacity="0.0" stroke="#000000" stroke-opacity="0.02" stroke-width="0.3"><path d="
M 0.00 512.00 
L 51.00 512.00
C 15.98 507.30 32.87 457.95 29.00 426.00
C 22.00 426.32 14.06 425.18 8.00 427.00
C -1.56 416.47 7.67 402.83 4.00 387.00 C 0.33 371.17 13.43 368.54 29.00 371.00
C 29.00 363.67 29.00 356.33 29.00 349.00
C 22.54 351.50 14.18 349.02 8.00 350.00
C 1.91 343.22 3.86 331.81 4.00 322.00 C 4.14 312.19 1.72 300.57 7.00 294.00
C 13.52 294.69 21.72 293.53 29.00 294.00
C 29.00 286.67 29.00 279.33 29.00 272.00
C 19.99 273.92 9.67 274.13 4.00 269.00
C 4.71 254.05 3.11 235.47 4.00 220.00 C 4.89 204.53 0.94 187.03 7.00 176.00
C 13.52 176.69 21.72 175.53 29.00 176.00
C 29.00 168.67 29.00 161.33 29.00 154.00
C 20.56 155.70 9.98 156.54 4.00 151.00
C 2.96 138.31 5.48 122.22 4.00 109.00 C 2.52 95.78 16.68 99.71 29.00 99.00
C 34.74 64.03 12.56 5.49 52.00 0.00
L 0.00 0.00
L 0.00 512.00 Z"/>
</g>
<g fill="None" fill-opacity="0.0" stroke="#000000" stroke-opacity="1.00" stroke-width="0.3"><path d="
M 51.00 512.00 
L 322.00 512.00
C 323.78 511.12 325.77 509.31 328.00 509.00
C 326.65 507.21 328.79 506.44 329.00 505.00
C 327.67 491.68 307.68 497.96 297.00 497.00 C 286.32 496.04 269.26 497.43 257.00 497.00 C 244.74 496.57 228.94 497.21 216.00 497.00 C 203.06 496.79 189.27 497.12 176.00 497.00 C 162.73 496.88 149.55 497.10 136.00 497.00 C 122.45 496.90 108.85 497.15 95.00 497.00 C 81.15 496.85 69.40 497.31 55.00 497.00 C 40.60 496.69 43.92 479.82 44.00 468.00 C 44.08 456.18 43.94 439.28 44.00 427.00
C 52.28 424.18 76.70 433.53 77.97 419.97 C 79.25 406.42 78.37 392.90 78.00 379.00 C 77.63 365.10 52.75 373.03 44.00 371.00
C 44.00 364.00 44.00 357.00 44.00 350.00
C 45.55 347.79 50.54 349.42 53.00 349.00
C 64.66 345.46 56.90 327.04 59.00 317.00 C 61.10 306.96 59.56 288.46 44.00 294.00
C 44.00 287.00 44.00 280.00 44.00 273.00
C 45.56 270.78 50.53 272.44 53.00 272.00
C 64.56 268.35 57.44 249.67 59.00 239.00 C 60.56 228.33 57.82 211.26 59.00 200.00 C 60.18 188.74 60.65 171.17 44.00 176.00
C 44.00 169.00 44.00 162.00 44.00 155.00
C 45.56 152.78 50.53 154.44 53.00 154.00
C 64.74 150.29 56.84 132.04 59.00 122.00 C 61.16 111.96 59.47 93.70 44.00 99.00
C 43.56 83.52 44.58 65.20 44.00 50.00 C 43.42 34.80 40.24 13.75 59.00 15.00 C 77.76 16.25 91.38 14.43 109.00 15.00 C 126.62 15.57 141.89 14.74 159.00 15.00 C 176.11 15.26 192.10 14.86 209.00 15.00 C 225.90 15.14 242.16 14.90 259.00 15.00
C 258.81 41.21 259.26 67.83 259.00 94.00 C 258.74 120.17 259.49 148.08 259.00 174.00 C 258.51 199.92 260.06 227.75 259.00 253.00 C 257.94 278.25 303.84 279.11 304.00 254.00 C 304.15 228.88 303.93 200.90 304.00 175.00 C 304.07 149.10 303.96 121.27 304.00 95.00 C 304.04 68.73 303.97 41.37 304.00 15.00
C 309.33 15.00 314.67 15.00 320.00 15.00
C 324.31 18.02 319.72 30.33 321.00 36.00 C 322.28 41.67 320.42 51.42 321.00 58.00 C 321.58 64.58 320.74 73.01 321.00 80.00 C 321.26 86.99 320.88 94.82 321.00 102.00 C 321.12 109.18 320.94 116.73 321.00 124.00 C 321.06 131.27 320.96 138.69 321.00 146.00 C 321.04 153.31 320.96 160.67 321.00 168.00 C 321.04 175.33 320.93 182.65 321.00 190.00 C 321.07 197.35 320.85 204.62 321.00 212.00 C 321.15 219.38 320.68 226.55 321.00 234.00 C 321.32 241.45 320.32 249.54 321.00 257.00
C 323.72 270.15 332.89 270.62 345.00 271.00 C 357.11 271.38 365.97 264.63 365.00 252.00 C 364.03 239.37 365.64 225.27 365.00 213.00 C 364.36 200.73 365.73 186.47 365.00 175.00 C 364.27 163.53 366.28 145.85 365.00 136.00 C 363.72 126.15 370.26 104.06 359.00 103.00
C 345.12 101.70 350.64 123.37 350.00 134.00 C 349.36 144.63 350.31 162.85 350.00 175.00 C 349.69 187.15 350.16 202.16 350.00 215.00 C 349.84 227.84 350.12 242.96 350.00 256.00
C 337.97 259.36 333.64 253.39 335.00 243.00 C 336.36 232.61 334.41 224.89 335.00 215.00 C 335.59 205.11 334.72 195.69 335.00 186.00 C 335.28 176.31 334.88 167.59 335.00 158.00 C 335.12 148.41 334.94 138.55 335.00 129.00 C 335.06 119.45 334.98 110.53 335.00 101.00 C 335.02 91.47 334.99 81.53 335.00 72.00 C 335.01 62.47 334.99 53.54 335.00 44.00 C 335.01 34.46 335.00 24.57 335.00 15.00
C 340.00 15.00 345.00 15.00 350.00 15.00
C 350.80 27.13 348.94 43.27 350.00 55.00 C 351.06 66.73 344.86 83.62 358.00 87.00
C 370.33 86.85 363.77 64.76 365.00 55.00 C 366.23 45.24 364.08 25.65 365.00 15.00
C 402.00 15.00 439.00 15.00 476.00 15.00
C 501.85 15.00 491.85 41.88 493.00 62.00 C 494.15 82.12 492.49 106.15 493.00 127.00 C 493.51 147.85 492.82 169.83 493.00 191.00 C 493.18 212.17 493.01 234.75 493.00 256.00 C 492.99 277.25 493.22 298.84 493.00 320.00 C 492.78 341.16 493.56 364.15 493.00 385.00 C 492.44 405.85 494.29 428.92 493.00 449.00 C 491.71 469.08 502.14 497.00 476.00 497.00
C 464.73 497.00 452.14 496.88 441.00 497.00 C 429.86 497.12 416.66 496.69 406.00 497.00 C 395.34 497.31 380.50 496.29 371.00 497.00 C 361.50 497.71 343.32 492.45 343.00 505.00
C 342.94 507.49 346.25 510.34 349.00 512.00
L 486.00 512.00
C 512.30 506.31 508.31 485.20 508.00 455.00 C 507.69 424.80 508.13 387.55 508.00 356.00 C 507.87 324.45 508.03 288.93 508.00 257.00 C 507.97 225.07 507.96 189.60 508.00 158.00 C 508.04 126.40 507.87 89.33 508.00 59.00 C 508.13 28.67 513.09 6.61 487.00 0.00
L 52.00 0.00
C 12.56 5.49 34.74 64.03 29.00 99.00
C 16.68 99.71 2.52 95.78 4.00 109.00 C 5.48 122.22 2.96 138.31 4.00 151.00
C 9.98 156.54 20.56 155.70 29.00 154.00
C 29.00 161.33 29.00 168.67 29.00 176.00
C 21.72 175.53 13.52 176.69 7.00 176.00
C 0.94 187.03 4.89 204.53 4.00 220.00 C 3.11 235.47 4.71 254.05 4.00 269.00
C 9.67 274.13 19.99 273.92 29.00 272.00
C 29.00 279.33 29.00 286.67 29.00 294.00
C 21.72 293.53 13.52 294.69 7.00 294.00
C 1.72 300.57 4.14 312.19 4.00 322.00 C 3.86 331.81 1.91 343.22 8.00 350.00
C 14.18 349.02 22.54 351.50 29.00 349.00
C 29.00 356.33 29.00 363.67 29.00 371.00
C 13.43 368.54 0.33 371.17 4.00 387.00 C 7.67 402.83 -1.56 416.47 8.00 427.00
C 14.06 425.18 22.00 426.32 29.00 426.00
C 32.87 457.95 15.98 507.30 51.00 512.00
M 289.00 15.00 
C 289.00 95.33 289.00 175.67 289.00 256.00
C 284.00 256.00 279.00 256.00 274.00 256.00
C 274.00 175.67 274.00 95.33 274.00 15.00
C 279.00 15.00 284.00 15.00 289.00 15.00
M 44.00 139.00 
C 42.45 141.22 34.81 140.13 32.00 140.00 C 29.19 139.87 20.67 141.38 19.00 139.00
C 17.06 136.22 19.94 130.53 19.00 127.00 C 18.06 123.47 19.71 117.73 19.00 114.00
C 27.33 114.00 35.67 114.00 44.00 114.00
C 44.00 122.33 44.00 130.67 44.00 139.00
M 44.00 257.00 
C 42.45 259.22 34.81 258.13 32.00 258.00 C 29.19 257.87 20.67 259.38 19.00 257.00
C 16.44 253.34 20.10 245.73 19.00 241.00 C 17.90 236.27 19.54 229.14 19.00 224.00 C 18.46 218.86 19.27 213.35 19.00 208.00 C 18.73 202.65 19.20 196.43 19.00 191.00
C 27.33 191.00 35.67 191.00 44.00 191.00
C 44.00 213.00 44.00 235.00 44.00 257.00
M 44.00 309.00 
C 44.00 317.67 44.00 326.33 44.00 335.00
C 35.67 335.00 27.33 335.00 19.00 335.00
C 19.00 326.33 19.00 317.67 19.00 309.00
C 27.33 309.00 35.67 309.00 44.00 309.00
M 63.00 386.00 
C 63.00 394.67 63.00 403.33 63.00 412.00
C 48.33 412.00 33.67 412.00 19.00 412.00
C 19.00 403.33 19.00 394.67 19.00 386.00
C 33.67 386.00 48.33 386.00 63.00 386.00 Z"/>
</g>
<g fill="None" fill-opacity="0.0" stroke="#000000" stroke-opacity="0.05" stroke-width="0.3"><path d="
M 486.00 512.00 
L 512.00 512.00
L 512.00 0.00
L 487.00 0.00
C 513.09 6.61 508.13 28.67 508.00 59.00 C 507.87 89.33 508.04 126.40 508.00 158.00 C 507.96 189.60 507.97 225.07 508.00 257.00 C 508.03 288.93 507.87 324.45 508.00 356.00 C 508.13 387.55 507.69 424.80 508.00 455.00 C 508.31 485.20 512.30 506.31 486.00 512.00 Z"/>
</g>
<g fill="None" fill-opacity="0.0" stroke="#94D5A3" stroke-opacity="1.00" stroke-width="0.3"><path d="
M 53.00 154.00 
C 50.49 154.79 47.16 155.47 44.00 155.00
C 44.00 162.00 44.00 169.00 44.00 176.00
C 60.65 171.17 60.18 188.74 59.00 200.00 C 57.82 211.26 60.56 228.33 59.00 239.00 C 57.44 249.67 64.56 268.35 53.00 272.00
C 50.49 272.79 47.16 273.47 44.00 273.00
C 44.00 280.00 44.00 287.00 44.00 294.00
C 59.56 288.46 61.10 306.96 59.00 317.00 C 56.90 327.04 64.66 345.46 53.00 349.00
C 50.50 349.76 47.16 350.50 44.00 350.00
C 44.00 357.00 44.00 364.00 44.00 371.00
C 52.75 373.03 77.63 365.10 78.00 379.00 C 78.37 392.90 79.25 406.42 77.97 419.97 C 76.70 433.53 52.28 424.18 44.00 427.00
C 43.94 439.28 44.08 456.18 44.00 468.00 C 43.92 479.82 40.60 496.69 55.00 497.00 C 69.40 497.31 81.15 496.85 95.00 497.00 C 108.85 497.15 122.45 496.90 136.00 497.00 C 149.55 497.10 162.73 496.88 176.00 497.00 C 189.27 497.12 203.06 496.79 216.00 497.00 C 228.94 497.21 244.74 496.57 257.00 497.00 C 269.26 497.43 286.32 496.04 297.00 497.00 C 307.68 497.96 327.67 491.68 329.00 505.00
C 331.68 504.13 340.32 504.13 343.00 505.00
C 343.32 492.45 361.50 497.71 371.00 497.00 C 380.50 496.29 395.34 497.31 406.00 497.00 C 416.66 496.69 429.86 497.12 441.00 497.00 C 452.14 496.88 464.73 497.00 476.00 497.00
C 481.97 493.78 478.07 481.60 479.00 475.00 C 479.93 468.40 478.58 456.70 479.00 449.00 C 479.42 441.31 478.80 431.14 479.00 423.00 C 479.20 414.86 478.91 406.38 479.00 398.00 C 479.09 389.62 478.96 380.50 479.00 372.00 C 479.04 363.50 478.98 354.52 479.00 346.00 C 479.02 337.48 478.99 329.54 479.00 321.00 C 479.01 312.46 479.00 303.57 479.00 295.00 C 479.00 286.43 479.00 277.55 479.00 269.00 C 479.00 260.45 479.00 252.55 479.00 244.00 C 479.00 235.45 479.00 226.57 479.00 218.00 C 479.00 209.43 479.01 200.54 479.00 192.00 C 478.99 183.46 479.02 175.52 479.00 167.00 C 478.98 158.48 479.04 149.50 479.00 141.00 C 478.96 132.50 479.09 123.38 479.00 115.00 C 478.91 106.62 479.22 98.15 479.00 90.00 C 478.78 81.85 479.47 71.73 479.00 64.00 C 478.53 56.27 480.03 44.67 479.00 38.00 C 477.97 31.33 482.29 18.40 476.00 15.00
C 439.00 15.00 402.00 15.00 365.00 15.00
C 364.08 25.65 366.23 45.24 365.00 55.00 C 363.77 64.76 370.33 86.85 358.00 87.00
C 359.31 91.66 355.82 98.97 359.00 103.00
C 370.26 104.06 363.72 126.15 365.00 136.00 C 366.28 145.85 364.27 163.53 365.00 175.00 C 365.73 186.47 364.36 200.73 365.00 213.00 C 365.64 225.27 364.03 239.37 365.00 252.00 C 365.97 264.63 357.11 271.38 345.00 271.00 C 332.89 270.62 323.72 270.15 321.00 257.00
C 315.76 231.69 321.77 203.49 320.00 177.00 C 318.23 150.51 320.92 122.73 320.00 96.00 C 319.08 69.27 320.69 41.80 320.00 15.00
C 314.67 15.00 309.33 15.00 304.00 15.00
C 303.97 41.37 304.04 68.73 304.00 95.00 C 303.96 121.27 304.07 149.10 304.00 175.00 C 303.93 200.90 304.15 228.88 304.00 254.00 C 303.84 279.11 257.94 278.25 259.00 253.00 C 260.06 227.75 258.51 199.92 259.00 174.00 C 259.49 148.08 258.74 120.17 259.00 94.00 C 259.26 67.83 258.81 41.21 259.00 15.00
C 242.16 14.90 225.90 15.14 209.00 15.00 C 192.10 14.86 176.11 15.26 159.00 15.00 C 141.89 14.74 126.62 15.57 109.00 15.00 C 91.38 14.43 77.76 16.25 59.00 15.00 C 40.24 13.75 43.42 34.80 44.00 50.00 C 44.58 65.20 43.56 83.52 44.00 99.00
C 59.47 93.70 61.16 111.96 59.00 122.00 C 56.84 132.04 64.74 150.29 53.00 154.00
M 386.00 74.00 
C 384.25 67.52 383.98 56.38 386.00 50.00
C 389.48 38.98 401.24 40.47 411.00 41.00 C 420.76 41.53 437.08 40.14 446.00 41.00 C 454.92 41.86 471.99 37.10 475.75 46.25 C 479.51 55.40 479.25 69.31 475.23 78.23 C 471.21 87.15 454.95 83.49 446.00 84.00 C 437.05 84.51 420.55 83.69 411.00 84.00 C 401.45 84.31 389.19 85.78 386.03 74.97
M 116.00 55.00 
C 127.53 58.50 113.77 77.96 102.93 69.07 C 92.08 60.19 104.15 51.40 116.00 55.00
M 163.00 55.00 
C 174.60 58.52 160.68 77.92 149.93 69.07 C 139.17 60.23 151.24 51.43 163.00 55.00
M 210.00 55.00 
C 221.57 58.51 207.70 78.02 196.93 69.07 C 186.16 60.13 198.31 51.45 210.00 55.00
M 438.00 97.00 
C 463.19 101.09 475.93 134.70 459.70 154.70 C 443.47 174.69 409.56 172.41 398.70 147.30 C 387.83 122.20 409.58 92.39 438.00 97.00
M 142.00 99.00 
C 153.74 102.91 141.44 121.28 130.33 113.67 C 119.22 106.06 130.25 95.08 142.00 99.00
M 182.00 99.00 
C 194.17 102.69 182.04 121.39 171.00 114.00 C 159.96 106.61 170.45 95.49 182.00 99.00
M 210.00 140.00 
C 218.61 141.78 222.22 145.38 224.00 154.00
C 228.40 175.25 225.16 201.65 225.00 224.00 C 224.84 246.35 228.70 273.80 224.00 295.00
C 219.78 314.04 198.27 308.34 183.00 309.00
C 183.21 320.67 180.37 336.96 188.75 345.25 C 197.13 353.53 203.73 358.44 209.00 368.00
C 214.32 384.82 207.10 406.19 210.00 424.00
C 214.79 427.35 224.85 422.53 231.00 424.00 C 237.15 425.47 246.29 423.27 253.00 424.00 C 259.71 424.73 268.16 423.51 275.00 424.00 C 281.84 424.49 289.25 423.44 296.00 424.00 C 302.75 424.56 310.45 422.26 316.23 425.77 C 322.01 429.28 322.43 435.90 322.00 442.00
C 339.29 436.52 339.89 463.32 322.00 457.00
C 324.65 482.47 297.33 475.71 279.00 476.00 C 260.67 476.29 235.91 475.98 217.00 476.00 C 198.09 476.02 173.33 476.25 155.00 476.00 C 136.67 475.75 109.61 482.33 112.00 457.00
C 94.38 462.88 94.80 436.74 112.00 442.00
C 109.28 421.68 128.84 423.35 144.00 424.00 C 159.17 424.65 178.46 423.51 194.00 424.00
C 193.07 415.61 195.24 406.30 194.00 398.00 C 192.76 389.70 196.38 379.95 194.00 372.00
C 189.15 361.64 178.95 359.65 172.25 349.75 C 165.55 339.85 168.47 321.48 168.00 309.00
C 156.81 308.67 145.14 309.45 134.00 309.00 C 122.86 308.55 110.35 310.18 99.78 308.22 C 89.21 306.26 86.69 294.04 88.00 285.00 C 89.31 275.96 83.23 259.46 96.00 258.00
C 96.00 253.00 96.00 248.00 96.00 243.00
C 84.72 243.64 88.40 228.26 88.00 220.00 C 87.60 211.74 88.39 198.25 88.00 189.00 C 87.61 179.75 88.63 167.52 88.00 158.00 C 87.37 148.48 93.27 141.93 102.00 140.00
C 118.26 136.40 138.77 139.09 156.00 139.00 C 173.23 138.91 193.77 136.64 210.00 140.00
M 401.00 194.00 
C 413.09 197.67 403.54 214.65 392.00 209.00 C 380.46 203.35 389.38 190.47 401.00 194.00
M 436.00 194.00 
C 448.04 197.65 438.59 214.74 427.00 209.00 C 415.41 203.26 424.14 190.40 436.00 194.00
M 471.00 194.00 
C 483.21 197.71 471.89 215.96 461.00 209.00 C 450.11 202.04 460.18 190.72 471.00 194.00
M 421.00 231.00 
C 432.76 234.57 421.89 252.16 411.33 245.67 C 400.77 239.18 409.85 227.62 421.00 231.00
M 451.00 231.00 
C 462.33 234.44 452.52 251.92 442.00 246.00 C 431.48 240.08 439.30 227.45 451.00 231.00
M 329.00 398.00 
C 328.15 394.58 327.56 390.09 328.00 386.00
C 324.57 382.80 319.68 386.62 319.01 378.99 C 318.34 371.36 324.88 374.06 328.00 371.00
C 328.00 368.00 328.00 365.00 328.00 362.00
C 327.00 361.89 325.27 362.47 325.00 361.00
C 317.22 357.11 317.34 350.70 325.00 347.00
C 325.82 346.44 326.60 345.55 328.00 346.00
C 328.00 343.00 328.00 340.00 328.00 337.00
C 324.55 333.62 319.74 337.62 319.01 329.99 C 318.28 322.36 324.93 324.87 328.00 322.00
C 327.54 317.90 328.17 313.37 329.00 310.00
C 331.66 299.26 340.24 297.53 351.00 299.00
C 349.02 287.02 369.13 286.21 366.00 299.00
C 369.33 299.00 372.67 299.00 376.00 299.00
C 373.03 286.36 393.96 286.34 391.00 299.00
C 394.33 299.00 397.67 299.00 401.00 299.00
C 397.86 286.23 417.98 287.01 416.00 299.00
C 431.51 294.59 442.55 307.00 439.00 322.00
C 450.64 319.61 450.67 339.16 439.00 337.00
C 439.00 340.00 439.00 343.00 439.00 346.00
C 450.32 344.12 451.05 363.88 439.00 361.00
C 439.00 364.33 439.00 367.67 439.00 371.00
C 450.65 368.83 450.65 388.39 439.00 386.00
C 442.56 400.96 431.44 413.31 416.00 409.00
C 417.98 420.98 397.87 421.79 401.00 409.00
C 397.67 409.00 394.33 409.00 391.00 409.00
C 393.96 421.47 373.06 421.50 376.00 409.00
C 372.67 409.00 369.33 409.00 366.00 409.00
C 369.14 421.77 349.02 421.00 351.00 409.00
C 342.26 409.86 329.28 409.29 329.00 398.00
M 131.00 344.00 
C 162.28 350.93 148.60 404.23 116.98 394.02 C 85.35 383.82 98.03 336.69 131.00 344.00
M 264.00 344.00 
C 295.38 350.50 281.61 404.55 249.98 394.02 C 218.35 383.49 230.96 337.16 264.00 344.00
M 439.00 462.00 
C 447.48 464.83 442.16 479.24 433.00 477.00 C 423.84 474.75 413.42 478.51 404.00 477.00 C 394.58 475.49 383.88 479.15 374.78 476.22 C 365.68 473.29 370.74 459.82 380.00 462.00 C 389.26 464.19 399.71 460.05 409.00 462.00 C 418.29 463.95 430.04 459.01 439.00 462.00 Z"/>
</g>
<g fill="None" fill-opacity="0.0" stroke="#7EB2F9" stroke-opacity="1.00" stroke-width="0.3"><path d="
M 289.00 15.00 
C 284.00 15.00 279.00 15.00 274.00 15.00
C 274.00 95.33 274.00 175.67 274.00 256.00
C 279.00 256.00 284.00 256.00 289.00 256.00
C 289.00 175.67 289.00 95.33 289.00 15.00 Z"/>
</g>
<g fill="None" fill-opacity="0.0" stroke="#3C5642" stroke-opacity="1.00" stroke-width="0.3"><path d="
M 321.00 257.00 
C 320.32 249.54 321.32 241.45 321.00 234.00 C 320.68 226.55 321.15 219.38 321.00 212.00 C 320.85 204.62 321.07 197.35 321.00 190.00 C 320.93 182.65 321.04 175.33 321.00 168.00 C 320.96 160.67 321.04 153.31 321.00 146.00 C 320.96 138.69 321.06 131.27 321.00 124.00 C 320.94 116.73 321.12 109.18 321.00 102.00 C 320.88 94.82 321.26 86.99 321.00 80.00 C 320.74 73.01 321.58 64.58 321.00 58.00 C 320.42 51.42 322.28 41.67 321.00 36.00 C 319.72 30.33 324.31 18.02 320.00 15.00
C 320.69 41.80 319.08 69.27 320.00 96.00 C 320.92 122.73 318.23 150.51 320.00 177.00 C 321.77 203.49 315.76 231.69 321.00 257.00 Z"/>
</g>
<g fill="None" fill-opacity="0.0" stroke="#7CAFF3" stroke-opacity="1.00" stroke-width="0.3"><path d="
M 359.00 103.00 
C 355.82 98.97 359.31 91.66 358.00 87.00
C 344.86 83.62 351.06 66.73 350.00 55.00 C 348.94 43.27 350.80 27.13 350.00 15.00
C 345.00 15.00 340.00 15.00 335.00 15.00
C 335.00 24.57 335.01 34.46 335.00 44.00 C 334.99 53.54 335.01 62.47 335.00 72.00 C 334.99 81.53 335.02 91.47 335.00 101.00 C 334.98 110.53 335.06 119.45 335.00 129.00 C 334.94 138.55 335.12 148.41 335.00 158.00 C 334.88 167.59 335.28 176.31 335.00 186.00 C 334.72 195.69 335.59 205.11 335.00 215.00 C 334.41 224.89 336.36 232.61 335.00 243.00 C 333.64 253.39 337.97 259.36 350.00 256.00
C 350.12 242.96 349.84 227.84 350.00 215.00 C 350.16 202.16 349.69 187.15 350.00 175.00 C 350.31 162.85 349.36 144.63 350.00 134.00 C 350.64 123.37 345.12 101.70 359.00 103.00 Z"/>
</g>
<g fill="None" fill-opacity="0.0" stroke="#77C1A3" stroke-opacity="1.00" stroke-width="0.3"><path d="
M 476.00 497.00 
C 502.14 497.00 491.71 469.08 493.00 449.00 C 494.29 428.92 492.44 405.85 493.00 385.00 C 493.56 364.15 492.78 341.16 493.00 320.00 C 493.22 298.84 492.99 277.25 493.00 256.00 C 493.01 234.75 493.18 212.17 493.00 191.00 C 492.82 169.83 493.51 147.85 493.00 127.00 C 492.49 106.15 494.15 82.12 493.00 62.00 C 491.85 41.88 501.85 15.00 476.00 15.00
C 482.29 18.40 477.97 31.33 479.00 38.00 C 480.03 44.67 478.53 56.27 479.00 64.00 C 479.47 71.73 478.78 81.85 479.00 90.00 C 479.22 98.15 478.91 106.62 479.00 115.00 C 479.09 123.38 478.96 132.50 479.00 141.00 C 479.04 149.50 478.98 158.48 479.00 167.00 C 479.02 175.52 478.99 183.46 479.00 192.00 C 479.01 200.54 479.00 209.43 479.00 218.00 C 479.00 226.57 479.00 235.45 479.00 244.00 C 479.00 252.55 479.00 260.45 479.00 269.00 C 479.00 277.55 479.00 286.43 479.00 295.00 C 479.00 303.57 479.01 312.46 479.00 321.00 C 478.99 329.54 479.02 337.48 479.00 346.00 C 478.98 354.52 479.04 363.50 479.00 372.00 C 478.96 380.50 479.09 389.62 479.00 398.00 C 478.91 406.38 479.20 414.86 479.00 423.00 C 478.80 431.14 479.42 441.31 479.00 449.00 C 478.58 456.70 479.93 468.40 479.00 475.00 C 478.07 481.60 481.97 493.78 476.00 497.00 Z"/>
</g>
<g fill="None" fill-opacity="0.0" stroke="#000000" stroke-opacity="1.00" stroke-width="0.3"><path d="
M 386.00 50.00 
C 384.79 56.75 385.03 67.21 386.00 74.00
C 389.19 85.78 401.45 84.31 411.00 84.00 C 420.55 83.69 437.05 84.51 446.00 84.00 C 454.95 83.49 471.21 87.15 475.23 78.23 C 479.25 69.31 479.51 55.40 475.75 46.25 C 471.99 37.10 454.92 41.86 446.00 41.00 C 437.08 40.14 420.76 41.53 411.00 41.00 C 401.24 40.47 389.48 38.98 386.00 50.00
M 462.00 69.00 
C 455.74 69.57 448.21 69.19 442.00 69.00 C 435.79 68.81 426.77 69.96 421.00 69.00 C 415.23 68.04 404.84 71.84 401.00 68.00
C 399.17 66.17 399.22 57.78 401.00 56.00
C 406.30 50.70 418.67 57.66 426.00 55.00 C 433.33 52.34 444.13 58.25 452.00 55.00 C 459.87 51.75 469.02 62.25 462.00 69.00 Z"/>
</g>
<g fill="None" fill-opacity="0.0" stroke="#3A5440" stroke-opacity="1.00" stroke-width="0.3"><path d="
M 386.00 74.00 
C 385.03 67.21 384.79 56.75 386.00 50.00
C 383.98 56.38 384.25 67.52 386.00 74.00 Z"/>
</g>
<g fill="None" fill-opacity="0.0" stroke="#000000" stroke-opacity="1.00" stroke-width="0.3"><path d="
M 116.00 55.00 
C 104.15 51.40 92.08 60.19 102.93 69.07 C 113.77 77.96 127.53 58.50 116.00 55.00 Z"/>
</g>
<g fill="None" fill-opacity="0.0" stroke="#000000" stroke-opacity="1.00" stroke-width="0.3"><path d="
M 163.00 55.00 
C 151.24 51.43 139.17 60.23 149.93 69.07 C 160.68 77.92 174.60 58.52 163.00 55.00 Z"/>
</g>
<g fill="None" fill-opacity="0.0" stroke="#000000" stroke-opacity="1.00" stroke-width="0.3"><path d="
M 210.00 55.00 
C 198.31 51.45 186.16 60.13 196.93 69.07 C 207.70 78.02 221.57 58.51 210.00 55.00 Z"/>
</g>
<g fill="None" fill-opacity="0.0" stroke="#63552D" stroke-opacity="1.00" stroke-width="0.3"><path d="
M 401.00 56.00 
C 405.51 52.84 415.28 57.46 421.00 56.00 C 426.72 54.54 434.69 56.73 441.00 56.00 C 447.31 55.27 455.52 56.55 462.00 56.00
C 462.00 60.00 462.00 64.00 462.00 68.00
C 462.00 68.50 462.00 69.00 462.00 69.00
C 469.02 62.25 459.87 51.75 452.00 55.00 C 444.13 58.25 433.33 52.34 426.00 55.00 C 418.67 57.66 406.30 50.70 401.00 56.00 Z"/>
</g>
<g fill="None" fill-opacity="0.0" stroke="#FDDB77" stroke-opacity="1.00" stroke-width="0.3"><path d="
M 401.00 68.00 
C 405.52 71.16 415.27 66.53 421.00 68.00 C 426.73 69.47 434.69 67.25 441.00 68.00 C 447.31 68.75 455.52 67.41 462.00 68.00
C 462.00 64.00 462.00 60.00 462.00 56.00
C 455.52 56.55 447.31 55.27 441.00 56.00 C 434.69 56.73 426.72 54.54 421.00 56.00 C 415.28 57.46 405.51 52.84 401.00 56.00
C 399.22 57.78 399.17 66.17 401.00 68.00 Z"/>
</g>
<g fill="None" fill-opacity="0.0" stroke="#BBA158" stroke-opacity="1.00" stroke-width="0.3"><path d="
M 462.00 69.00 
C 462.00 69.00 462.00 68.50 462.00 68.00
C 455.52 67.41 447.31 68.75 441.00 68.00 C 434.69 67.25 426.73 69.47 421.00 68.00 C 415.27 66.53 405.52 71.16 401.00 68.00
C 404.84 71.84 415.23 68.04 421.00 69.00 C 426.77 69.96 435.79 68.81 442.00 69.00 C 448.21 69.19 455.74 69.57 462.00 69.00 Z"/>
</g>
<g fill="None" fill-opacity="0.0" stroke="#000000" stroke-opacity="1.00" stroke-width="0.3"><path d="
M 438.00 97.00 
C 409.58 92.39 387.83 122.20 398.70 147.30 C 409.56 172.41 443.47 174.69 459.70 154.70 C 475.93 134.70 463.19 101.09 438.00 97.00
M 432.00 153.00 
C 405.02 153.49 404.40 112.37 431.00 112.00
C 457.24 111.64 458.75 152.51 432.00 153.00 Z"/>
</g>
<g fill="None" fill-opacity="0.0" stroke="#000000" stroke-opacity="1.00" stroke-width="0.3"><path d="
M 142.00 99.00 
C 130.25 95.08 119.22 106.06 130.33 113.67 C 141.44 121.28 153.74 102.91 142.00 99.00 Z"/>
</g>
<g fill="None" fill-opacity="0.0" stroke="#000000" stroke-opacity="1.00" stroke-width="0.3"><path d="
M 182.00 99.00 
C 170.45 95.49 159.96 106.61 171.00 114.00 C 182.04 121.39 194.17 102.69 182.00 99.00 Z"/>
</g>
<g fill="None" fill-opacity="0.0" stroke="#DB626C" stroke-opacity="1.00" stroke-width="0.3"><path d="
M 432.00 153.00 
C 437.40 150.73 440.22 136.85 440.00 132.00 C 439.78 127.15 436.82 113.80 431.00 112.00
C 404.40 112.37 405.02 153.49 432.00 153.00 Z"/>
</g>
<g fill="None" fill-opacity="0.0" stroke="#D54852" stroke-opacity="1.00" stroke-width="0.3"><path d="
M 432.00 153.00 
C 458.75 152.51 457.24 111.64 431.00 112.00
C 436.82 113.80 439.78 127.15 440.00 132.00 C 440.22 136.85 437.40 150.73 432.00 153.00 Z"/>
</g>
<g fill="None" fill-opacity="0.0" stroke="#FEDF7C" stroke-opacity="1.00" stroke-width="0.3"><path d="
M 19.00 139.00 
C 27.33 139.00 35.67 139.00 44.00 139.00
C 44.00 130.67 44.00 122.33 44.00 114.00
C 35.67 114.00 27.33 114.00 19.00 114.00
C 19.71 117.73 18.06 123.47 19.00 127.00 C 19.94 130.53 17.06 136.22 19.00 139.00 Z"/>
</g>
<g fill="None" fill-opacity="0.0" stroke="#877743" stroke-opacity="1.00" stroke-width="0.3"><path d="
M 44.00 139.00 
C 35.67 139.00 27.33 139.00 19.00 139.00
C 20.67 141.38 29.19 139.87 32.00 140.00 C 34.81 140.13 42.45 141.22 44.00 139.00 Z"/>
</g>
<g fill="None" fill-opacity="0.0" stroke="#4F7257" stroke-opacity="1.00" stroke-width="0.3"><path d="
M 102.00 140.00 
C 119.61 138.19 138.28 140.08 156.00 140.00 C 173.72 139.92 192.36 138.40 210.00 140.00
C 193.77 136.64 173.23 138.91 156.00 139.00 C 138.77 139.09 118.26 136.40 102.00 140.00 Z"/>
</g>
<g fill="None" fill-opacity="0.0" stroke="#000000" stroke-opacity="1.00" stroke-width="0.3"><path d="
M 96.00 243.00 
C 104.76 242.51 102.71 232.62 103.00 226.00 C 103.29 219.38 102.40 208.91 103.00 202.00 C 103.60 195.09 101.69 184.48 103.00 178.00 C 104.31 171.52 99.64 159.36 104.00 155.00
C 108.68 150.32 122.94 155.17 130.00 154.00 C 137.06 152.83 149.47 153.91 157.00 154.00 C 164.53 154.09 178.09 152.72 185.00 154.00 C 191.91 155.28 206.82 149.51 209.92 156.08 C 213.01 162.66 208.73 176.15 210.00 184.00 C 211.27 191.85 209.72 202.67 210.00 211.00 C 210.28 219.33 210.44 230.77 210.00 239.00 C 209.56 247.23 211.54 258.55 210.00 266.00 C 208.46 273.45 213.98 288.02 209.00 293.00
C 206.61 295.39 198.48 294.00 195.00 294.00
C 164.33 294.00 133.67 294.00 103.00 294.00
C 100.33 282.65 109.44 263.05 96.00 258.00
C 83.23 259.46 89.31 275.96 88.00 285.00 C 86.69 294.04 89.21 306.26 99.78 308.22 C 110.35 310.18 122.86 308.55 134.00 309.00 C 145.14 309.45 156.81 308.67 168.00 309.00
C 168.47 321.48 165.55 339.85 172.25 349.75 C 178.95 359.65 189.15 361.64 194.00 372.00
C 196.00 376.28 195.10 383.97 195.00 389.00 C 194.90 394.03 195.79 402.44 195.00 407.00 C 194.21 411.56 197.49 421.56 194.00 424.00
C 178.46 423.51 159.17 424.65 144.00 424.00 C 128.84 423.35 109.28 421.68 112.00 442.00
C 94.80 436.74 94.38 462.88 112.00 457.00
C 109.61 482.33 136.67 475.75 155.00 476.00 C 173.33 476.25 198.09 476.02 217.00 476.00 C 235.91 475.98 260.67 476.29 279.00 476.00 C 297.33 475.71 324.65 482.47 322.00 457.00
C 339.89 463.32 339.29 436.52 322.00 442.00
C 322.43 435.90 322.01 429.28 316.23 425.77 C 310.45 422.26 302.75 424.56 296.00 424.00 C 289.25 423.44 281.84 424.49 275.00 424.00 C 268.16 423.51 259.71 424.73 253.00 424.00 C 246.29 423.27 237.15 425.47 231.00 424.00 C 224.85 422.53 214.79 427.35 210.00 424.00
C 206.11 421.27 210.23 410.92 209.00 406.00 C 207.77 401.08 209.84 392.56 209.00 387.00 C 208.16 381.44 210.02 373.68 209.00 368.00
C 203.73 358.44 197.13 353.53 188.75 345.25 C 180.37 336.96 183.21 320.67 183.00 309.00
C 198.27 308.34 219.78 314.04 224.00 295.00
C 226.36 272.05 223.94 248.13 224.00 225.00 C 224.06 201.87 226.10 177.07 224.00 154.00
C 222.22 145.38 218.61 141.78 210.00 140.00
C 192.36 138.40 173.72 139.92 156.00 140.00 C 138.28 140.08 119.61 138.19 102.00 140.00
C 93.27 141.93 87.37 148.48 88.00 158.00 C 88.63 167.52 87.61 179.75 88.00 189.00 C 88.39 198.25 87.60 211.74 88.00 220.00 C 88.40 228.26 84.72 243.64 96.00 243.00
M 307.00 439.00 
C 307.00 446.33 307.00 453.67 307.00 461.00
C 247.00 461.00 187.00 461.00 127.00 461.00
C 127.00 453.67 127.00 446.33 127.00 439.00
C 187.00 439.00 247.00 439.00 307.00 439.00 Z"/>
</g>
<g fill="None" fill-opacity="0.0" stroke="#47654E" stroke-opacity="1.00" stroke-width="0.3"><path d="
M 44.00 155.00 
C 47.16 155.47 50.49 154.79 53.00 154.00
C 50.53 154.44 45.56 152.78 44.00 155.00 Z"/>
</g>
<g fill="None" fill-opacity="0.0" stroke="#747379" stroke-opacity="1.00" stroke-width="0.3"><path d="
M 104.00 155.00 
C 108.03 152.18 116.88 156.27 122.00 155.00 C 127.12 153.73 134.37 155.57 140.00 155.00 C 145.63 154.43 152.12 155.25 158.00 155.00 C 163.88 154.75 169.95 155.08 176.00 155.00 C 182.05 154.92 188.88 155.00 195.00 155.00
C 199.67 155.00 204.33 155.00 209.00 155.00
C 209.00 201.00 209.00 247.00 209.00 293.00
C 213.98 288.02 208.46 273.45 210.00 266.00 C 211.54 258.55 209.56 247.23 210.00 239.00 C 210.44 230.77 210.28 219.33 210.00 211.00 C 209.72 202.67 211.27 191.85 210.00 184.00 C 208.73 176.15 213.01 162.66 209.92 156.08 C 206.82 149.51 191.91 155.28 185.00 154.00 C 178.09 152.72 164.53 154.09 157.00 154.00 C 149.47 153.91 137.06 152.83 130.00 154.00 C 122.94 155.17 108.68 150.32 104.00 155.00 Z"/>
</g>
<g fill="None" fill-opacity="0.0" stroke="#45634C" stroke-opacity="1.00" stroke-width="0.3"><path d="
M 224.00 295.00 
C 228.70 273.80 224.84 246.35 225.00 224.00 C 225.16 201.65 228.40 175.25 224.00 154.00
C 226.10 177.07 224.06 201.87 224.00 225.00 C 223.94 248.13 226.36 272.05 224.00 295.00 Z"/>
</g>
<g fill="None" fill-opacity="0.0" stroke="#F7F4F7" stroke-opacity="1.00" stroke-width="0.3"><path d="
M 96.00 243.00 
C 96.00 248.00 96.00 253.00 96.00 258.00
C 109.44 263.05 100.33 282.65 103.00 294.00
C 133.67 294.00 164.33 294.00 195.00 294.00
C 195.50 283.84 194.33 273.10 195.00 263.00 C 195.67 252.90 193.72 241.89 195.00 232.00 C 196.28 222.11 192.69 210.72 194.00 202.00
C 185.33 214.64 174.32 224.81 174.00 241.00
C 173.83 249.30 174.56 258.47 173.00 266.00
C 170.09 280.06 157.26 279.32 145.00 279.00 C 132.74 278.68 118.57 281.40 115.00 267.00
C 112.05 255.08 114.18 239.83 114.00 227.00 C 113.82 214.17 112.53 198.93 115.00 187.00
C 117.03 177.18 122.16 172.04 132.00 170.00
C 145.46 167.21 167.63 167.04 181.00 170.00
C 186.02 171.11 191.84 173.30 195.00 178.00
C 193.86 170.51 195.86 162.54 195.00 155.00
C 188.88 155.00 182.05 154.92 176.00 155.00 C 169.95 155.08 163.88 154.75 158.00 155.00 C 152.12 155.25 145.63 154.43 140.00 155.00 C 134.37 155.57 127.12 153.73 122.00 155.00 C 116.88 156.27 108.03 152.18 104.00 155.00
C 99.64 159.36 104.31 171.52 103.00 178.00 C 101.69 184.48 103.60 195.09 103.00 202.00 C 102.40 208.91 103.29 219.38 103.00 226.00 C 102.71 232.62 104.76 242.51 96.00 243.00 Z"/>
</g>
<g fill="None" fill-opacity="0.0" stroke="#DDDAEB" stroke-opacity="1.00" stroke-width="0.3"><path d="
M 195.00 178.00 
C 196.42 187.30 200.16 193.02 194.00 202.00
C 192.69 210.72 196.28 222.11 195.00 232.00 C 193.72 241.89 195.67 252.90 195.00 263.00 C 194.33 273.10 195.50 283.84 195.00 294.00
C 198.48 294.00 206.61 295.39 209.00 293.00
C 209.00 247.00 209.00 201.00 209.00 155.00
C 204.33 155.00 199.67 155.00 195.00 155.00
C 195.86 162.54 193.86 170.51 195.00 178.00 Z"/>
</g>
<g fill="None" fill-opacity="0.0" stroke="#666466" stroke-opacity="1.00" stroke-width="0.3"><path d="
M 132.00 170.00 
C 147.34 168.61 165.68 168.43 181.00 170.00
C 167.63 167.04 145.46 167.21 132.00 170.00 Z"/>
</g>
<g fill="None" fill-opacity="0.0" stroke="#000000" stroke-opacity="1.00" stroke-width="0.3"><path d="
M 115.00 187.00 
C 113.82 200.02 114.84 213.93 115.00 227.00 C 115.16 240.07 113.39 254.05 115.00 267.00
C 118.57 281.40 132.74 278.68 145.00 279.00 C 157.26 279.32 170.09 280.06 173.00 266.00
C 173.75 257.77 173.08 248.57 174.00 241.00
C 174.32 224.81 185.33 214.64 194.00 202.00
C 200.16 193.02 196.42 187.30 195.00 178.00
C 191.84 173.30 186.02 171.11 181.00 170.00
C 165.68 168.43 147.34 168.61 132.00 170.00
C 122.16 172.04 117.03 177.18 115.00 187.00
M 179.00 185.00 
C 188.72 188.95 177.06 199.39 172.75 205.75 C 168.43 212.10 161.87 220.19 160.22 229.22 C 158.58 238.26 158.92 254.02 159.00 264.00
C 155.00 264.00 151.00 264.00 147.00 264.00
C 141.00 264.00 135.00 264.00 129.00 264.00
C 130.35 251.72 127.19 232.59 129.00 221.00 C 130.81 209.41 122.59 186.76 136.01 184.01 C 149.42 181.26 166.22 185.22 179.00 185.00 Z"/>
</g>
<g fill="None" fill-opacity="0.0" stroke="#2E5498" stroke-opacity="1.00" stroke-width="0.3"><path d="
M 147.00 264.00 
C 146.23 249.26 146.06 230.42 153.31 218.31 C 160.55 206.19 172.60 199.43 170.00 185.00
C 173.00 185.00 176.00 185.00 179.00 185.00
C 166.22 185.22 149.42 181.26 136.01 184.01 C 122.59 186.76 130.81 209.41 129.00 221.00 C 127.19 232.59 130.35 251.72 129.00 264.00
C 135.00 264.00 141.00 264.00 147.00 264.00 Z"/>
</g>
<g fill="None" fill-opacity="0.0" stroke="#25437A" stroke-opacity="1.00" stroke-width="0.3"><path d="
M 147.00 264.00 
C 151.00 264.00 155.00 264.00 159.00 264.00
C 158.92 254.02 158.58 238.26 160.22 229.22 C 161.87 220.19 168.43 212.10 172.75 205.75 C 177.06 199.39 188.72 188.95 179.00 185.00
C 176.00 185.00 173.00 185.00 170.00 185.00
C 172.60 199.43 160.55 206.19 153.31 218.31 C 146.06 230.42 146.23 249.26 147.00 264.00 Z"/>
</g>
<g fill="None" fill-opacity="0.0" stroke="#5B5A5B" stroke-opacity="1.00" stroke-width="0.3"><path d="
M 115.00 267.00 
C 113.39 254.05 115.16 240.07 115.00 227.00 C 114.84 213.93 113.82 200.02 115.00 187.00
C 112.53 198.93 113.82 214.17 114.00 227.00 C 114.18 239.83 112.05 255.08 115.00 267.00 Z"/>
</g>
<g fill="None" fill-opacity="0.0" stroke="#80B4FB" stroke-opacity="1.00" stroke-width="0.3"><path d="
M 19.00 257.00 
C 27.33 257.00 35.67 257.00 44.00 257.00
C 44.00 235.00 44.00 213.00 44.00 191.00
C 35.67 191.00 27.33 191.00 19.00 191.00
C 19.20 196.43 18.73 202.65 19.00 208.00 C 19.27 213.35 18.46 218.86 19.00 224.00 C 19.54 229.14 17.90 236.27 19.00 241.00 C 20.10 245.73 16.44 253.34 19.00 257.00 Z"/>
</g>
<g fill="None" fill-opacity="0.0" stroke="#000000" stroke-opacity="1.00" stroke-width="0.3"><path d="
M 401.00 194.00 
C 389.38 190.47 380.46 203.35 392.00 209.00 C 403.54 214.65 413.09 197.67 401.00 194.00 Z"/>
</g>
<g fill="None" fill-opacity="0.0" stroke="#000000" stroke-opacity="1.00" stroke-width="0.3"><path d="
M 436.00 194.00 
C 424.14 190.40 415.41 203.26 427.00 209.00 C 438.59 214.74 448.04 197.65 436.00 194.00 Z"/>
</g>
<g fill="None" fill-opacity="0.0" stroke="#000000" stroke-opacity="1.00" stroke-width="0.3"><path d="
M 471.00 194.00 
C 460.18 190.72 450.11 202.04 461.00 209.00 C 471.89 215.96 483.21 197.71 471.00 194.00 Z"/>
</g>
<g fill="None" fill-opacity="0.0" stroke="#000000" stroke-opacity="1.00" stroke-width="0.3"><path d="
M 421.00 231.00 
C 409.85 227.62 400.77 239.18 411.33 245.67 C 421.89 252.16 432.76 234.57 421.00 231.00 Z"/>
</g>
<g fill="None" fill-opacity="0.0" stroke="#000000" stroke-opacity="1.00" stroke-width="0.3"><path d="
M 451.00 231.00 
C 439.30 227.45 431.48 240.08 442.00 246.00 C 452.52 251.92 462.33 234.44 451.00 231.00 Z"/>
</g>
<g fill="None" fill-opacity="0.0" stroke="#616061" stroke-opacity="1.00" stroke-width="0.3"><path d="
M 173.00 266.00 
C 174.56 258.47 173.83 249.30 174.00 241.00
C 173.08 248.57 173.75 257.77 173.00 266.00 Z"/>
</g>
<g fill="None" fill-opacity="0.0" stroke="#3C5475" stroke-opacity="1.00" stroke-width="0.3"><path d="
M 44.00 257.00 
C 35.67 257.00 27.33 257.00 19.00 257.00
C 20.67 259.38 29.19 257.87 32.00 258.00 C 34.81 258.13 42.45 259.22 44.00 257.00 Z"/>
</g>
<g fill="None" fill-opacity="0.0" stroke="#507458" stroke-opacity="1.00" stroke-width="0.3"><path d="
M 44.00 273.00 
C 47.16 273.47 50.49 272.79 53.00 272.00
C 50.53 272.44 45.56 270.78 44.00 273.00 Z"/>
</g>
<g fill="None" fill-opacity="0.0" stroke="#000000" stroke-opacity="1.00" stroke-width="0.3"><path d="
M 329.00 310.00 
C 328.59 313.33 330.45 319.71 328.00 322.00
C 324.93 324.87 318.28 322.36 319.01 329.99 C 319.74 337.62 324.55 333.62 328.00 337.00
C 332.08 341.00 328.09 345.50 325.00 347.00
C 317.34 350.70 317.22 357.11 325.00 361.00
C 328.04 362.52 332.10 366.98 328.00 371.00
C 324.88 374.06 318.34 371.36 319.01 378.99 C 319.68 386.62 324.57 382.80 328.00 386.00
C 330.44 388.27 328.59 394.73 329.00 398.00
C 329.28 409.29 342.26 409.86 351.00 409.00
C 349.02 421.00 369.14 421.77 366.00 409.00
C 369.33 409.00 372.67 409.00 376.00 409.00
C 373.06 421.50 393.96 421.47 391.00 409.00
C 394.33 409.00 397.67 409.00 401.00 409.00
C 397.87 421.79 417.98 420.98 416.00 409.00
C 431.44 413.31 442.56 400.96 439.00 386.00
C 450.65 388.39 450.65 368.83 439.00 371.00
C 439.00 367.67 439.00 364.33 439.00 361.00
C 451.05 363.88 450.32 344.12 439.00 346.00
C 439.00 343.00 439.00 340.00 439.00 337.00
C 450.67 339.16 450.64 319.61 439.00 322.00
C 442.55 307.00 431.51 294.59 416.00 299.00
C 417.98 287.01 397.86 286.23 401.00 299.00
C 397.67 299.00 394.33 299.00 391.00 299.00
C 393.96 286.34 373.03 286.36 376.00 299.00
C 372.67 299.00 369.33 299.00 366.00 299.00
C 369.13 286.21 349.02 287.02 351.00 299.00
C 340.24 297.53 331.66 299.26 329.00 310.00
M 411.00 394.00 
C 388.33 394.00 365.67 394.00 343.00 394.00
C 343.00 367.33 343.00 340.67 343.00 314.00
C 365.67 314.00 388.33 314.00 411.00 314.00
C 415.33 314.00 419.67 314.00 424.00 314.00
C 424.00 340.67 424.00 367.33 424.00 394.00
C 419.67 394.00 415.33 394.00 411.00 394.00 Z"/>
</g>
<g fill="None" fill-opacity="0.0" stroke="#F4F2F4" stroke-opacity="1.00" stroke-width="0.3"><path d="
M 44.00 309.00 
C 35.67 309.00 27.33 309.00 19.00 309.00
C 19.00 317.67 19.00 326.33 19.00 335.00
C 27.33 335.00 35.67 335.00 44.00 335.00
C 44.00 326.33 44.00 317.67 44.00 309.00 Z"/>
</g>
<g fill="None" fill-opacity="0.0" stroke="#3C5742" stroke-opacity="1.00" stroke-width="0.3"><path d="
M 328.00 322.00 
C 330.45 319.71 328.59 313.33 329.00 310.00
C 328.17 313.37 327.54 317.90 328.00 322.00 Z"/>
</g>
<g fill="None" fill-opacity="0.0" stroke="#2F559A" stroke-opacity="1.00" stroke-width="0.3"><path d="
M 411.00 394.00 
C 411.00 367.33 411.00 340.67 411.00 314.00
C 388.33 314.00 365.67 314.00 343.00 314.00
C 343.00 340.67 343.00 367.33 343.00 394.00
C 365.67 394.00 388.33 394.00 411.00 394.00
M 367.00 331.00 
C 376.03 333.17 370.63 349.27 372.00 356.00 C 373.37 362.73 372.96 379.24 362.78 376.22 C 352.60 373.20 358.35 359.48 357.00 352.00 C 355.65 344.52 355.92 328.34 367.00 331.00
M 405.00 331.00 
C 413.93 333.26 408.46 349.51 410.00 356.00 C 411.54 362.49 410.45 379.83 400.33 376.67 C 390.20 373.51 396.53 359.18 395.00 352.00 C 393.47 344.82 393.79 328.16 405.00 331.00 Z"/>
</g>
<g fill="None" fill-opacity="0.0" stroke="#25437A" stroke-opacity="1.00" stroke-width="0.3"><path d="
M 411.00 394.00 
C 415.33 394.00 419.67 394.00 424.00 394.00
C 424.00 367.33 424.00 340.67 424.00 314.00
C 419.67 314.00 415.33 314.00 411.00 314.00
C 411.00 340.67 411.00 367.33 411.00 394.00 Z"/>
</g>
<g fill="None" fill-opacity="0.0" stroke="#000000" stroke-opacity="1.00" stroke-width="0.3"><path d="
M 367.00 331.00 
C 355.92 328.34 355.65 344.52 357.00 352.00 C 358.35 359.48 352.60 373.20 362.78 376.22 C 372.96 379.24 373.37 362.73 372.00 356.00 C 370.63 349.27 376.03 333.17 367.00 331.00 Z"/>
</g>
<g fill="None" fill-opacity="0.0" stroke="#000000" stroke-opacity="1.00" stroke-width="0.3"><path d="
M 405.00 331.00 
C 393.79 328.16 393.47 344.82 395.00 352.00 C 396.53 359.18 390.20 373.51 400.33 376.67 C 410.45 379.83 411.54 362.49 410.00 356.00 C 408.46 349.51 413.93 333.26 405.00 331.00 Z"/>
</g>
<g fill="None" fill-opacity="0.0" stroke="#3F5A45" stroke-opacity="1.00" stroke-width="0.3"><path d="
M 325.00 347.00 
C 328.09 345.50 332.08 341.00 328.00 337.00
C 328.00 340.00 328.00 343.00 328.00 346.00
C 326.60 345.55 325.82 346.44 325.00 347.00 Z"/>
</g>
<g fill="None" fill-opacity="0.0" stroke="#000000" stroke-opacity="1.00" stroke-width="0.3"><path d="
M 131.00 344.00 
C 98.03 336.69 85.35 383.82 116.98 394.02 C 148.60 404.23 162.28 350.93 131.00 344.00
M 128.00 359.00 
C 140.26 362.72 132.30 384.87 119.93 379.07 C 107.55 373.28 114.05 354.77 128.00 359.00 Z"/>
</g>
<g fill="None" fill-opacity="0.0" stroke="#000000" stroke-opacity="1.00" stroke-width="0.3"><path d="
M 264.00 344.00 
C 230.96 337.16 218.35 383.49 249.98 394.02 C 281.61 404.55 295.38 350.50 264.00 344.00
M 261.00 359.00 
C 273.23 362.71 265.35 384.85 252.93 379.07 C 240.50 373.30 247.20 354.81 261.00 359.00 Z"/>
</g>
<g fill="None" fill-opacity="0.0" stroke="#3C5742" stroke-opacity="1.00" stroke-width="0.3"><path d="
M 44.00 350.00 
C 47.16 350.50 50.50 349.76 53.00 349.00
C 50.54 349.42 45.55 347.79 44.00 350.00 Z"/>
</g>
<g fill="None" fill-opacity="0.0" stroke="#D8606B" stroke-opacity="1.00" stroke-width="0.3"><path d="
M 128.00 359.00 
C 114.05 354.77 107.55 373.28 119.93 379.07 C 132.30 384.87 140.26 362.72 128.00 359.00 Z"/>
</g>
<g fill="None" fill-opacity="0.0" stroke="#D8606B" stroke-opacity="1.00" stroke-width="0.3"><path d="
M 261.00 359.00 
C 247.20 354.81 240.50 373.30 252.93 379.07 C 265.35 384.85 273.23 362.71 261.00 359.00 Z"/>
</g>
<g fill="None" fill-opacity="0.0" stroke="#415D48" stroke-opacity="1.00" stroke-width="0.3"><path d="
M 328.00 371.00 
C 332.10 366.98 328.04 362.52 325.00 361.00
C 325.27 362.47 327.00 361.89 328.00 362.00
C 328.00 365.00 328.00 368.00 328.00 371.00 Z"/>
</g>
<g fill="None" fill-opacity="0.0" stroke="#507358" stroke-opacity="1.00" stroke-width="0.3"><path d="
M 210.00 424.00 
C 207.10 406.19 214.32 384.82 209.00 368.00
C 210.02 373.68 208.16 381.44 209.00 387.00 C 209.84 392.56 207.77 401.08 209.00 406.00 C 210.23 410.92 206.11 421.27 210.00 424.00 Z"/>
</g>
<g fill="None" fill-opacity="0.0" stroke="#43604A" stroke-opacity="1.00" stroke-width="0.3"><path d="
M 194.00 424.00 
C 197.49 421.56 194.21 411.56 195.00 407.00 C 195.79 402.44 194.90 394.03 195.00 389.00 C 195.10 383.97 196.00 376.28 194.00 372.00
C 196.38 379.95 192.76 389.70 194.00 398.00 C 195.24 406.30 193.07 415.61 194.00 424.00 Z"/>
</g>
<g fill="None" fill-opacity="0.0" stroke="#F7F4F7" stroke-opacity="1.00" stroke-width="0.3"><path d="
M 63.00 386.00 
C 48.33 386.00 33.67 386.00 19.00 386.00
C 19.00 394.67 19.00 403.33 19.00 412.00
C 33.67 412.00 48.33 412.00 63.00 412.00
C 63.00 403.33 63.00 394.67 63.00 386.00 Z"/>
</g>
<g fill="None" fill-opacity="0.0" stroke="#3D5743" stroke-opacity="1.00" stroke-width="0.3"><path d="
M 329.00 398.00 
C 328.59 394.73 330.44 388.27 328.00 386.00
C 327.56 390.09 328.15 394.58 329.00 398.00 Z"/>
</g>
<g fill="None" fill-opacity="0.0" stroke="#FEDE7A" stroke-opacity="1.00" stroke-width="0.3"><path d="
M 307.00 439.00 
C 247.00 439.00 187.00 439.00 127.00 439.00
C 127.00 446.33 127.00 453.67 127.00 461.00
C 187.00 461.00 247.00 461.00 307.00 461.00
C 307.00 453.67 307.00 446.33 307.00 439.00 Z"/>
</g>
<g fill="None" fill-opacity="0.0" stroke="#000000" stroke-opacity="1.00" stroke-width="0.3"><path d="
M 439.00 462.00 
C 430.04 459.01 418.29 463.95 409.00 462.00 C 399.71 460.05 389.26 464.19 380.00 462.00 C 370.74 459.82 365.68 473.29 374.78 476.22 C 383.88 479.15 394.58 475.49 404.00 477.00 C 413.42 478.51 423.84 474.75 433.00 477.00 C 442.16 479.24 447.48 464.83 439.00 462.00 Z"/>
</g>
<g fill="None" fill-opacity="0.0" stroke="#000000" stroke-opacity="0.05" stroke-width="0.3"><path d="
M 322.00 512.00 
L 349.00 512.00
C 346.25 510.34 342.94 507.49 343.00 505.00
C 340.32 504.13 331.68 504.13 329.00 505.00
C 328.79 506.44 326.65 507.21 328.00 509.00
C 325.77 509.31 323.78 511.12 322.00 512.00 Z"/>
</g>
<g fill="#000000" fill-opacity="0.02" stroke="None">
<path d="
M 0.00 512.00 
L 51.00 512.00
C 15.98 507.30 32.87 457.95 29.00 426.00
C 22.00 426.32 14.06 425.18 8.00 427.00
C -1.56 416.47 7.67 402.83 4.00 387.00 C 0.33 371.17 13.43 368.54 29.00 371.00
C 29.00 363.67 29.00 356.33 29.00 349.00
C 22.54 351.50 14.18 349.02 8.00 350.00
C 1.91 343.22 3.86 331.81 4.00 322.00 C 4.14 312.19 1.72 300.57 7.00 294.00
C 13.52 294.69 21.72 293.53 29.00 294.00
C 29.00 286.67 29.00 279.33 29.00 272.00
C 19.99 273.92 9.67 274.13 4.00 269.00
C 4.71 254.05 3.11 235.47 4.00 220.00 C 4.89 204.53 0.94 187.03 7.00 176.00
C 13.52 176.69 21.72 175.53 29.00 176.00
C 29.00 168.67 29.00 161.33 29.00 154.00
C 20.56 155.70 9.98 156.54 4.00 151.00
C 2.96 138.31 5.48 122.22 4.00 109.00 C 2.52 95.78 16.68 99.71 29.00 99.00
C 34.74 64.03 12.56 5.49 52.00 0.00
L 0.00 0.00
L 0.00 512.00 Z"/>
</g>
<g fill="#000000" fill-opacity="1.00" stroke="None">
<path d="
M 51.00 512.00 
L 322.00 512.00
C 323.78 511.12 325.77 509.31 328.00 509.00
C 326.65 507.21 328.79 506.44 329.00 505.00
C 327.67 491.68 307.68 497.96 297.00 497.00 C 286.32 496.04 269.26 497.43 257.00 497.00 C 244.74 496.57 228.94 497.21 216.00 497.00 C 203.06 496.79 189.27 497.12 176.00 497.00 C 162.73 496.88 149.55 497.10 136.00 497.00 C 122.45 496.90 108.85 497.15 95.00 497.00 C 81.15 496.85 69.40 497.31 55.00 497.00 C 40.60 496.69 43.92 479.82 44.00 468.00 C 44.08 456.18 43.94 439.28 44.00 427.00
C 52.28 424.18 76.70 433.53 77.97 419.97 C 79.25 406.42 78.37 392.90 78.00 379.00 C 77.63 365.10 52.75 373.03 44.00 371.00
C 44.00 364.00 44.00 357.00 44.00 350.00
C 45.55 347.79 50.54 349.42 53.00 349.00
C 64.66 345.46 56.90 327.04 59.00 317.00 C 61.10 306.96 59.56 288.46 44.00 294.00
C 44.00 287.00 44.00 280.00 44.00 273.00
C 45.56 270.78 50.53 272.44 53.00 272.00
C 64.56 268.35 57.44 249.67 59.00 239.00 C 60.56 228.33 57.82 211.26 59.00 200.00 C 60.18 188.74 60.65 171.17 44.00 176.00
C 44.00 169.00 44.00 162.00 44.00 155.00
C 45.56 152.78 50.53 154.44 53.00 154.00
C 64.74 150.29 56.84 132.04 59.00 122.00 C 61.16 111.96 59.47 93.70 44.00 99.00
C 43.56 83.52 44.58 65.20 44.00 50.00 C 43.42 34.80 40.24 13.75 59.00 15.00 C 77.76 16.25 91.38 14.43 109.00 15.00 C 126.62 15.57 141.89 14.74 159.00 15.00 C 176.11 15.26 192.10 14.86 209.00 15.00 C 225.90 15.14 242.16 14.90 259.00 15.00
C 258.81 41.21 259.26 67.83 259.00 94.00 C 258.74 120.17 259.49 148.08 259.00 174.00 C 258.51 199.92 260.06 227.75 259.00 253.00 C 257.94 278.25 303.84 279.11 304.00 254.00 C 304.15 228.88 303.93 200.90 304.00 175.00 C 304.07 149.10 303.96 121.27 304.00 95.00 C 304.04 68.73 303.97 41.37 304.00 15.00
C 309.33 15.00 314.67 15.00 320.00 15.00
C 324.31 18.02 319.72 30.33 321.00 36.00 C 322.28 41.67 320.42 51.42 321.00 58.00 C 321.58 64.58 320.74 73.01 321.00 80.00 C 321.26 86.99 320.88 94.82 321.00 102.00 C 321.12 109.18 320.94 116.73 321.00 124.00 C 321.06 131.27 320.96 138.69 321.00 146.00 C 321.04 153.31 320.96 160.67 321.00 168.00 C 321.04 175.33 320.93 182.65 321.00 190.00 C 321.07 197.35 320.85 204.62 321.00 212.00 C 321.15 219.38 320.68 226.55 321.00 234.00 C 321.32 241.45 320.32 249.54 321.00 257.00
C 323.72 270.15 332.89 270.62 345.00 271.00 C 357.11 271.38 365.97 264.63 365.00 252.00 C 364.03 239.37 365.64 225.27 365.00 213.00 C 364.36 200.73 365.73 186.47 365.00 175.00 C 364.27 163.53 366.28 145.85 365.00 136.00 C 363.72 126.15 370.26 104.06 359.00 103.00
C 345.12 101.70 350.64 123.37 350.00 134.00 C 349.36 144.63 350.31 162.85 350.00 175.00 C 349.69 187.15 350.16 202.16 350.00 215.00 C 349.84 227.84 350.12 242.96 350.00 256.00
C 337.97 259.36 333.64 253.39 335.00 243.00 C 336.36 232.61 334.41 224.89 335.00 215.00 C 335.59 205.11 334.72 195.69 335.00 186.00 C 335.28 176.31 334.88 167.59 335.00 158.00 C 335.12 148.41 334.94 138.55 335.00 129.00 C 335.06 119.45 334.98 110.53 335.00 101.00 C 335.02 91.47 334.99 81.53 335.00 72.00 C 335.01 62.47 334.99 53.54 335.00 44.00 C 335.01 34.46 335.00 24.57 335.00 15.00
C 340.00 15.00 345.00 15.00 350.00 15.00
C 350.80 27.13 348.94 43.27 350.00 55.00 C 351.06 66.73 344.86 83.62 358.00 87.00
C 370.33 86.85 363.77 64.76 365.00 55.00 C 366.23 45.24 364.08 25.65 365.00 15.00
C 402.00 15.00 439.00 15.00 476.00 15.00
C 501.85 15.00 491.85 41.88 493.00 62.00 C 494.15 82.12 492.49 106.15 493.00 127.00 C 493.51 147.85 492.82 169.83 493.00 191.00 C 493.18 212.17 493.01 234.75 493.00 256.00 C 492.99 277.25 493.22 298.84 493.00 320.00 C 492.78 341.16 493.56 364.15 493.00 385.00 C 492.44 405.85 494.29 428.92 493.00 449.00 C 491.71 469.08 502.14 497.00 476.00 497.00
C 464.73 497.00 452.14 496.88 441.00 497.00 C 429.86 497.12 416.66 496.69 406.00 497.00 C 395.34 497.31 380.50 496.29 371.00 497.00 C 361.50 497.71 343.32 492.45 343.00 505.00
C 342.94 507.49 346.25 510.34 349.00 512.00
L 486.00 512.00
C 512.30 506.31 508.31 485.20 508.00 455.00 C 507.69 424.80 508.13 387.55 508.00 356.00 C 507.87 324.45 508.03 288.93 508.00 257.00 C 507.97 225.07 507.96 189.60 508.00 158.00 C 508.04 126.40 507.87 89.33 508.00 59.00 C 508.13 28.67 513.09 6.61 487.00 0.00
L 52.00 0.00
C 12.56 5.49 34.74 64.03 29.00 99.00
C 16.68 99.71 2.52 95.78 4.00 109.00 C 5.48 122.22 2.96 138.31 4.00 151.00
C 9.98 156.54 20.56 155.70 29.00 154.00
C 29.00 161.33 29.00 168.67 29.00 176.00
C 21.72 175.53 13.52 176.69 7.00 176.00
C 0.94 187.03 4.89 204.53 4.00 220.00 C 3.11 235.47 4.71 254.05 4.00 269.00
C 9.67 274.13 19.99 273.92 29.00 272.00
C 29.00 279.33 29.00 286.67 29.00 294.00
C 21.72 293.53 13.52 294.69 7.00 294.00
C 1.72 300.57 4.14 312.19 4.00 322.00 C 3.86 331.81 1.91 343.22 8.00 350.00
C 14.18 349.02 22.54 351.50 29.00 349.00
C 29.00 356.33 29.00 363.67 29.00 371.00
C 13.43 368.54 0.33 371.17 4.00 387.00 C 7.67 402.83 -1.56 416.47 8.00 427.00
C 14.06 425.18 22.00 426.32 29.00 426.00
C 32.87 457.95 15.98 507.30 51.00 512.00
M 289.00 15.00 
C 289.00 95.33 289.00 175.67 289.00 256.00
C 284.00 256.00 279.00 256.00 274.00 256.00
C 274.00 175.67 274.00 95.33 274.00 15.00
C 279.00 15.00 284.00 15.00 289.00 15.00
M 44.00 139.00 
C 42.45 141.22 34.81 140.13 32.00 140.00 C 29.19 139.87 20.67 141.38 19.00 139.00
C 17.06 136.22 19.94 130.53 19.00 127.00 C 18.06 123.47 19.71 117.73 19.00 114.00
C 27.33 114.00 35.67 114.00 44.00 114.00
C 44.00 122.33 44.00 130.67 44.00 139.00
M 44.00 257.00 
C 42.45 259.22 34.81 258.13 32.00 258.00 C 29.19 257.87 20.67 259.38 19.00 257.00
C 16.44 253.34 20.10 245.73 19.00 241.00 C 17.90 236.27 19.54 229.14 19.00 224.00 C 18.46 218.86 19.27 213.35 19.00 208.00 C 18.73 202.65 19.20 196.43 19.00 191.00
C 27.33 191.00 35.67 191.00 44.00 191.00
C 44.00 213.00 44.00 235.00 44.00 257.00
M 44.00 309.00 
C 44.00 317.67 44.00 326.33 44.00 335.00
C 35.67 335.00 27.33 335.00 19.00 335.00
C 19.00 326.33 19.00 317.67 19.00 309.00
C 27.33 309.00 35.67 309.00 44.00 309.00
M 63.00 386.00 
C 63.00 394.67 63.00 403.33 63.00 412.00
C 48.33 412.00 33.67 412.00 19.00 412.00
C 19.00 403.33 19.00 394.67 19.00 386.00
C 33.67 386.00 48.33 386.00 63.00 386.00 Z"/>
</g>
<g fill="#000000" fill-opacity="0.05" stroke="None">
<path d="
M 486.00 512.00 
L 512.00 512.00
L 512.00 0.00
L 487.00 0.00
C 513.09 6.61 508.13 28.67 508.00 59.00 C 507.87 89.33 508.04 126.40 508.00 158.00 C 507.96 189.60 507.97 225.07 508.00 257.00 C 508.03 288.93 507.87 324.45 508.00 356.00 C 508.13 387.55 507.69 424.80 508.00 455.00 C 508.31 485.20 512.30 506.31 486.00 512.00 Z"/>
</g>
<g fill="#94D5A3" fill-opacity="1.00" stroke="None">
<path d="
M 53.00 154.00 
C 50.49 154.79 47.16 155.47 44.00 155.00
C 44.00 162.00 44.00 169.00 44.00 176.00
C 60.65 171.17 60.18 188.74 59.00 200.00 C 57.82 211.26 60.56 228.33 59.00 239.00 C 57.44 249.67 64.56 268.35 53.00 272.00
C 50.49 272.79 47.16 273.47 44.00 273.00
C 44.00 280.00 44.00 287.00 44.00 294.00
C 59.56 288.46 61.10 306.96 59.00 317.00 C 56.90 327.04 64.66 345.46 53.00 349.00
C 50.50 349.76 47.16 350.50 44.00 350.00
C 44.00 357.00 44.00 364.00 44.00 371.00
C 52.75 373.03 77.63 365.10 78.00 379.00 C 78.37 392.90 79.25 406.42 77.97 419.97 C 76.70 433.53 52.28 424.18 44.00 427.00
C 43.94 439.28 44.08 456.18 44.00 468.00 C 43.92 479.82 40.60 496.69 55.00 497.00 C 69.40 497.31 81.15 496.85 95.00 497.00 C 108.85 497.15 122.45 496.90 136.00 497.00 C 149.55 497.10 162.73 496.88 176.00 497.00 C 189.27 497.12 203.06 496.79 216.00 497.00 C 228.94 497.21 244.74 496.57 257.00 497.00 C 269.26 497.43 286.32 496.04 297.00 497.00 C 307.68 497.96 327.67 491.68 329.00 505.00
C 331.68 504.13 340.32 504.13 343.00 505.00
C 343.32 492.45 361.50 497.71 371.00 497.00 C 380.50 496.29 395.34 497.31 406.00 497.00 C 416.66 496.69 429.86 497.12 441.00 497.00 C 452.14 496.88 464.73 497.00 476.00 497.00
C 481.97 493.78 478.07 481.60 479.00 475.00 C 479.93 468.40 478.58 456.70 479.00 449.00 C 479.42 441.31 478.80 431.14 479.00 423.00 C 479.20 414.86 478.91 406.38 479.00 398.00 C 479.09 389.62 478.96 380.50 479.00 372.00 C 479.04 363.50 478.98 354.52 479.00 346.00 C 479.02 337.48 478.99 329.54 479.00 321.00 C 479.01 312.46 479.00 303.57 479.00 295.00 C 479.00 286.43 479.00 277.55 479.00 269.00 C 479.00 260.45 479.00 252.55 479.00 244.00 C 479.00 235.45 479.00 226.57 479.00 218.00 C 479.00 209.43 479.01 200.54 479.00 192.00 C 478.99 183.46 479.02 175.52 479.00 167.00 C 478.98 158.48 479.04 149.50 479.00 141.00 C 478.96 132.50 479.09 123.38 479.00 115.00 C 478.91 106.62 479.22 98.15 479.00 90.00 C 478.78 81.85 479.47 71.73 479.00 64.00 C 478.53 56.27 480.03 44.67 479.00 38.00 C 477.97 31.33 482.29 18.40 476.00 15.00
C 439.00 15.00 402.00 15.00 365.00 15.00
C 364.08 25.65 366.23 45.24 365.00 55.00 C 363.77 64.76 370.33 86.85 358.00 87.00
C 359.31 91.66 355.82 98.97 359.00 103.00
C 370.26 104.06 363.72 126.15 365.00 136.00 C 366.28 145.85 364.27 163.53 365.00 175.00 C 365.73 186.47 364.36 200.73 365.00 213.00 C 365.64 225.27 364.03 239.37 365.00 252.00 C 365.97 264.63 357.11 271.38 345.00 271.00 C 332.89 270.62 323.72 270.15 321.00 257.00
C 315.76 231.69 321.77 203.49 320.00 177.00 C 318.23 150.51 320.92 122.73 320.00 96.00 C 319.08 69.27 320.69 41.80 320.00 15.00
C 314.67 15.00 309.33 15.00 304.00 15.00
C 303.97 41.37 304.04 68.73 304.00 95.00 C 303.96 121.27 304.07 149.10 304.00 175.00 C 303.93 200.90 304.15 228.88 304.00 254.00 C 303.84 279.11 257.94 278.25 259.00 253.00 C 260.06 227.75 258.51 199.92 259.00 174.00 C 259.49 148.08 258.74 120.17 259.00 94.00 C 259.26 67.83 258.81 41.21 259.00 15.00
C 242.16 14.90 225.90 15.14 209.00 15.00 C 192.10 14.86 176.11 15.26 159.00 15.00 C 141.89 14.74 126.62 15.57 109.00 15.00 C 91.38 14.43 77.76 16.25 59.00 15.00 C 40.24 13.75 43.42 34.80 44.00 50.00 C 44.58 65.20 43.56 83.52 44.00 99.00
C 59.47 93.70 61.16 111.96 59.00 122.00 C 56.84 132.04 64.74 150.29 53.00 154.00
M 386.00 74.00 
C 384.25 67.52 383.98 56.38 386.00 50.00
C 389.48 38.98 401.24 40.47 411.00 41.00 C 420.76 41.53 437.08 40.14 446.00 41.00 C 454.92 41.86 471.99 37.10 475.75 46.25 C 479.51 55.40 479.25 69.31 475.23 78.23 C 471.21 87.15 454.95 83.49 446.00 84.00 C 437.05 84.51 420.55 83.69 411.00 84.00 C 401.45 84.31 389.19 85.78 386.03 74.97
M 116.00 55.00 
C 127.53 58.50 113.77 77.96 102.93 69.07 C 92.08 60.19 104.15 51.40 116.00 55.00
M 163.00 55.00 
C 174.60 58.52 160.68 77.92 149.93 69.07 C 139.17 60.23 151.24 51.43 163.00 55.00
M 210.00 55.00 
C 221.57 58.51 207.70 78.02 196.93 69.07 C 186.16 60.13 198.31 51.45 210.00 55.00
M 438.00 97.00 
C 463.19 101.09 475.93 134.70 459.70 154.70 C 443.47 174.69 409.56 172.41 398.70 147.30 C 387.83 122.20 409.58 92.39 438.00 97.00
M 142.00 99.00 
C 153.74 102.91 141.44 121.28 130.33 113.67 C 119.22 106.06 130.25 95.08 142.00 99.00
M 182.00 99.00 
C 194.17 102.69 182.04 121.39 171.00 114.00 C 159.96 106.61 170.45 95.49 182.00 99.00
M 210.00 140.00 
C 218.61 141.78 222.22 145.38 224.00 154.00
C 228.40 175.25 225.16 201.65 225.00 224.00 C 224.84 246.35 228.70 273.80 224.00 295.00
C 219.78 314.04 198.27 308.34 183.00 309.00
C 183.21 320.67 180.37 336.96 188.75 345.25 C 197.13 353.53 203.73 358.44 209.00 368.00
C 214.32 384.82 207.10 406.19 210.00 424.00
C 214.79 427.35 224.85 422.53 231.00 424.00 C 237.15 425.47 246.29 423.27 253.00 424.00 C 259.71 424.73 268.16 423.51 275.00 424.00 C 281.84 424.49 289.25 423.44 296.00 424.00 C 302.75 424.56 310.45 422.26 316.23 425.77 C 322.01 429.28 322.43 435.90 322.00 442.00
C 339.29 436.52 339.89 463.32 322.00 457.00
C 324.65 482.47 297.33 475.71 279.00 476.00 C 260.67 476.29 235.91 475.98 217.00 476.00 C 198.09 476.02 173.33 476.25 155.00 476.00 C 136.67 475.75 109.61 482.33 112.00 457.00
C 94.38 462.88 94.80 436.74 112.00 442.00
C 109.28 421.68 128.84 423.35 144.00 424.00 C 159.17 424.65 178.46 423.51 194.00 424.00
C 193.07 415.61 195.24 406.30 194.00 398.00 C 192.76 389.70 196.38 379.95 194.00 372.00
C 189.15 361.64 178.95 359.65 172.25 349.75 C 165.55 339.85 168.47 321.48 168.00 309.00
C 156.81 308.67 145.14 309.45 134.00 309.00 C 122.86 308.55 110.35 310.18 99.78 308.22 C 89.21 306.26 86.69 294.04 88.00 285.00 C 89.31 275.96 83.23 259.46 96.00 258.00
C 96.00 253.00 96.00 248.00 96.00 243.00
C 84.72 243.64 88.40 228.26 88.00 220.00 C 87.60 211.74 88.39 198.25 88.00 189.00 C 87.61 179.75 88.63 167.52 88.00 158.00 C 87.37 148.48 93.27 141.93 102.00 140.00
C 118.26 136.40 138.77 139.09 156.00 139.00 C 173.23 138.91 193.77 136.64 210.00 140.00
M 401.00 194.00 
C 413.09 197.67 403.54 214.65 392.00 209.00 C 380.46 203.35 389.38 190.47 401.00 194.00
M 436.00 194.00 
C 448.04 197.65 438.59 214.74 427.00 209.00 C 415.41 203.26 424.14 190.40 436.00 194.00
M 471.00 194.00 
C 483.21 197.71 471.89 215.96 461.00 209.00 C 450.11 202.04 460.18 190.72 471.00 194.00
M 421.00 231.00 
C 432.76 234.57 421.89 252.16 411.33 245.67 C 400.77 239.18 409.85 227.62 421.00 231.00
M 451.00 231.00 
C 462.33 234.44 452.52 251.92 442.00 246.00 C 431.48 240.08 439.30 227.45 451.00 231.00
M 329.00 398.00 
C 328.15 394.58 327.56 390.09 328.00 386.00
C 324.57 382.80 319.68 386.62 319.01 378.99 C 318.34 371.36 324.88 374.06 328.00 371.00
C 328.00 368.00 328.00 365.00 328.00 362.00
C 327.00 361.89 325.27 362.47 325.00 361.00
C 317.22 357.11 317.34 350.70 325.00 347.00
C 325.82 346.44 326.60 345.55 328.00 346.00
C 328.00 343.00 328.00 340.00 328.00 337.00
C 324.55 333.62 319.74 337.62 319.01 329.99 C 318.28 322.36 324.93 324.87 328.00 322.00
C 327.54 317.90 328.17 313.37 329.00 310.00
C 331.66 299.26 340.24 297.53 351.00 299.00
C 349.02 287.02 369.13 286.21 366.00 299.00
C 369.33 299.00 372.67 299.00 376.00 299.00
C 373.03 286.36 393.96 286.34 391.00 299.00
C 394.33 299.00 397.67 299.00 401.00 299.00
C 397.86 286.23 417.98 287.01 416.00 299.00
C 431.51 294.59 442.55 307.00 439.00 322.00
C 450.64 319.61 450.67 339.16 439.00 337.00
C 439.00 340.00 439.00 343.00 439.00 346.00
C 450.32 344.12 451.05 363.88 439.00 361.00
C 439.00 364.33 439.00 367.67 439.00 371.00
C 450.65 368.83 450.65 388.39 439.00 386.00
C 442.56 400.96 431.44 413.31 416.00 409.00
C 417.98 420.98 397.87 421.79 401.00 409.00
C 397.67 409.00 394.33 409.00 391.00 409.00
C 393.96 421.47 373.06 421.50 376.00 409.00
C 372.67 409.00 369.33 409.00 366.00 409.00
C 369.14 421.77 349.02 421.00 351.00 409.00
C 342.26 409.86 329.28 409.29 329.00 398.00
M 131.00 344.00 
C 162.28 350.93 148.60 404.23 116.98 394.02 C 85.35 383.82 98.03 336.69 131.00 344.00
M 264.00 344.00 
C 295.38 350.50 281.61 404.55 249.98 394.02 C 218.35 383.49 230.96 337.16 264.00 344.00
M 439.00 462.00 
C 447.48 464.83 442.16 479.24 433.00 477.00 C 423.84 474.75 413.42 478.51 404.00 477.00 C 394.58 475.49 383.88 479.15 374.78 476.22 C 365.68 473.29 370.74 459.82 380.00 462.00 C 389.26 464.19 399.71 460.05 409.00 462.00 C 418.29 463.95 430.04 459.01 439.00 462.00 Z"/>
</g>
<g fill="#7EB2F9" fill-opacity="1.00" stroke="None">
<path d="
M 289.00 15.00 
C 284.00 15.00 279.00 15.00 274.00 15.00
C 274.00 95.33 274.00 175.67 274.00 256.00
C 279.00 256.00 284.00 256.00 289.00 256.00
C 289.00 175.67 289.00 95.33 289.00 15.00 Z"/>
</g>
<g fill="#3C5642" fill-opacity="1.00" stroke="None">
<path d="
M 321.00 257.00 
C 320.32 249.54 321.32 241.45 321.00 234.00 C 320.68 226.55 321.15 219.38 321.00 212.00 C 320.85 204.62 321.07 197.35 321.00 190.00 C 320.93 182.65 321.04 175.33 321.00 168.00 C 320.96 160.67 321.04 153.31 321.00 146.00 C 320.96 138.69 321.06 131.27 321.00 124.00 C 320.94 116.73 321.12 109.18 321.00 102.00 C 320.88 94.82 321.26 86.99 321.00 80.00 C 320.74 73.01 321.58 64.58 321.00 58.00 C 320.42 51.42 322.28 41.67 321.00 36.00 C 319.72 30.33 324.31 18.02 320.00 15.00
C 320.69 41.80 319.08 69.27 320.00 96.00 C 320.92 122.73 318.23 150.51 320.00 177.00 C 321.77 203.49 315.76 231.69 321.00 257.00 Z"/>
</g>
<g fill="#7CAFF3" fill-opacity="1.00" stroke="None">
<path d="
M 359.00 103.00 
C 355.82 98.97 359.31 91.66 358.00 87.00
C 344.86 83.62 351.06 66.73 350.00 55.00 C 348.94 43.27 350.80 27.13 350.00 15.00
C 345.00 15.00 340.00 15.00 335.00 15.00
C 335.00 24.57 335.01 34.46 335.00 44.00 C 334.99 53.54 335.01 62.47 335.00 72.00 C 334.99 81.53 335.02 91.47 335.00 101.00 C 334.98 110.53 335.06 119.45 335.00 129.00 C 334.94 138.55 335.12 148.41 335.00 158.00 C 334.88 167.59 335.28 176.31 335.00 186.00 C 334.72 195.69 335.59 205.11 335.00 215.00 C 334.41 224.89 336.36 232.61 335.00 243.00 C 333.64 253.39 337.97 259.36 350.00 256.00
C 350.12 242.96 349.84 227.84 350.00 215.00 C 350.16 202.16 349.69 187.15 350.00 175.00 C 350.31 162.85 349.36 144.63 350.00 134.00 C 350.64 123.37 345.12 101.70 359.00 103.00 Z"/>
</g>
<g fill="#77C1A3" fill-opacity="1.00" stroke="None">
<path d="
M 476.00 497.00 
C 502.14 497.00 491.71 469.08 493.00 449.00 C 494.29 428.92 492.44 405.85 493.00 385.00 C 493.56 364.15 492.78 341.16 493.00 320.00 C 493.22 298.84 492.99 277.25 493.00 256.00 C 493.01 234.75 493.18 212.17 493.00 191.00 C 492.82 169.83 493.51 147.85 493.00 127.00 C 492.49 106.15 494.15 82.12 493.00 62.00 C 491.85 41.88 501.85 15.00 476.00 15.00
C 482.29 18.40 477.97 31.33 479.00 38.00 C 480.03 44.67 478.53 56.27 479.00 64.00 C 479.47 71.73 478.78 81.85 479.00 90.00 C 479.22 98.15 478.91 106.62 479.00 115.00 C 479.09 123.38 478.96 132.50 479.00 141.00 C 479.04 149.50 478.98 158.48 479.00 167.00 C 479.02 175.52 478.99 183.46 479.00 192.00 C 479.01 200.54 479.00 209.43 479.00 218.00 C 479.00 226.57 479.00 235.45 479.00 244.00 C 479.00 252.55 479.00 260.45 479.00 269.00 C 479.00 277.55 479.00 286.43 479.00 295.00 C 479.00 303.57 479.01 312.46 479.00 321.00 C 478.99 329.54 479.02 337.48 479.00 346.00 C 478.98 354.52 479.04 363.50 479.00 372.00 C 478.96 380.50 479.09 389.62 479.00 398.00 C 478.91 406.38 479.20 414.86 479.00 423.00 C 478.80 431.14 479.42 441.31 479.00 449.00 C 478.58 456.70 479.93 468.40 479.00 475.00 C 478.07 481.60 481.97 493.78 476.00 497.00 Z"/>
</g>
<g fill="#000000" fill-opacity="1.00" stroke="None">
<path d="
M 386.00 50.00 
C 384.79 56.75 385.03 67.21 386.00 74.00
C 389.19 85.78 401.45 84.31 411.00 84.00 C 420.55 83.69 437.05 84.51 446.00 84.00 C 454.95 83.49 471.21 87.15 475.23 78.23 C 479.25 69.31 479.51 55.40 475.75 46.25 C 471.99 37.10 454.92 41.86 446.00 41.00 C 437.08 40.14 420.76 41.53 411.00 41.00 C 401.24 40.47 389.48 38.98 386.00 50.00
M 462.00 69.00 
C 455.74 69.57 448.21 69.19 442.00 69.00 C 435.79 68.81 426.77 69.96 421.00 69.00 C 415.23 68.04 404.84 71.84 401.00 68.00
C 399.17 66.17 399.22 57.78 401.00 56.00
C 406.30 50.70 418.67 57.66 426.00 55.00 C 433.33 52.34 444.13 58.25 452.00 55.00 C 459.87 51.75 469.02 62.25 462.00 69.00 Z"/>
</g>
<g fill="#3A5440" fill-opacity="1.00" stroke="None">
<path d="
M 386.00 74.00 
C 385.03 67.21 384.79 56.75 386.00 50.00
C 383.98 56.38 384.25 67.52 386.00 74.00 Z"/>
</g>
<g fill="#000000" fill-opacity="1.00" stroke="None">
<path d="
M 116.00 55.00 
C 104.15 51.40 92.08 60.19 102.93 69.07 C 113.77 77.96 127.53 58.50 116.00 55.00 Z"/>
</g>
<g fill="#000000" fill-opacity="1.00" stroke="None">
<path d="
M 163.00 55.00 
C 151.24 51.43 139.17 60.23 149.93 69.07 C 160.68 77.92 174.60 58.52 163.00 55.00 Z"/>
</g>
<g fill="#000000" fill-opacity="1.00" stroke="None">
<path d="
M 210.00 55.00 
C 198.31 51.45 186.16 60.13 196.93 69.07 C 207.70 78.02 221.57 58.51 210.00 55.00 Z"/>
</g>
<g fill="#63552D" fill-opacity="1.00" stroke="None">
<path d="
M 401.00 56.00 
C 405.51 52.84 415.28 57.46 421.00 56.00 C 426.72 54.54 434.69 56.73 441.00 56.00 C 447.31 55.27 455.52 56.55 462.00 56.00
C 462.00 60.00 462.00 64.00 462.00 68.00
C 462.00 68.50 462.00 69.00 462.00 69.00
C 469.02 62.25 459.87 51.75 452.00 55.00 C 444.13 58.25 433.33 52.34 426.00 55.00 C 418.67 57.66 406.30 50.70 401.00 56.00 Z"/>
</g>
<g fill="#FDDB77" fill-opacity="1.00" stroke="None">
<path d="
M 401.00 68.00 
C 405.52 71.16 415.27 66.53 421.00 68.00 C 426.73 69.47 434.69 67.25 441.00 68.00 C 447.31 68.75 455.52 67.41 462.00 68.00
C 462.00 64.00 462.00 60.00 462.00 56.00
C 455.52 56.55 447.31 55.27 441.00 56.00 C 434.69 56.73 426.72 54.54 421.00 56.00 C 415.28 57.46 405.51 52.84 401.00 56.00
C 399.22 57.78 399.17 66.17 401.00 68.00 Z"/>
</g>
<g fill="#BBA158" fill-opacity="1.00" stroke="None">
<path d="
M 462.00 69.00 
C 462.00 69.00 462.00 68.50 462.00 68.00
C 455.52 67.41 447.31 68.75 441.00 68.00 C 434.69 67.25 426.73 69.47 421.00 68.00 C 415.27 66.53 405.52 71.16 401.00 68.00
C 404.84 71.84 415.23 68.04 421.00 69.00 C 426.77 69.96 435.79 68.81 442.00 69.00 C 448.21 69.19 455.74 69.57 462.00 69.00 Z"/>
</g>
<g fill="#000000" fill-opacity="1.00" stroke="None">
<path d="
M 438.00 97.00 
C 409.58 92.39 387.83 122.20 398.70 147.30 C 409.56 172.41 443.47 174.69 459.70 154.70 C 475.93 134.70 463.19 101.09 438.00 97.00
M 432.00 153.00 
C 405.02 153.49 404.40 112.37 431.00 112.00
C 457.24 111.64 458.75 152.51 432.00 153.00 Z"/>
</g>
<g fill="#000000" fill-opacity="1.00" stroke="None">
<path d="
M 142.00 99.00 
C 130.25 95.08 119.22 106.06 130.33 113.67 C 141.44 121.28 153.74 102.91 142.00 99.00 Z"/>
</g>
<g fill="#000000" fill-opacity="1.00" stroke="None">
<path d="
M 182.00 99.00 
C 170.45 95.49 159.96 106.61 171.00 114.00 C 182.04 121.39 194.17 102.69 182.00 99.00 Z"/>
</g>
<g fill="#DB626C" fill-opacity="1.00" stroke="None">
<path d="
M 432.00 153.00 
C 437.40 150.73 440.22 136.85 440.00 132.00 C 439.78 127.15 436.82 113.80 431.00 112.00
C 404.40 112.37 405.02 153.49 432.00 153.00 Z"/>
</g>
<g fill="#D54852" fill-opacity="1.00" stroke="None">
<path d="
M 432.00 153.00 
C 458.75 152.51 457.24 111.64 431.00 112.00
C 436.82 113.80 439.78 127.15 440.00 132.00 C 440.22 136.85 437.40 150.73 432.00 153.00 Z"/>
</g>
<g fill="#FEDF7C" fill-opacity="1.00" stroke="None">
<path d="
M 19.00 139.00 
C 27.33 139.00 35.67 139.00 44.00 139.00
C 44.00 130.67 44.00 122.33 44.00 114.00
C 35.67 114.00 27.33 114.00 19.00 114.00
C 19.71 117.73 18.06 123.47 19.00 127.00 C 19.94 130.53 17.06 136.22 19.00 139.00 Z"/>
</g>
<g fill="#877743" fill-opacity="1.00" stroke="None">
<path d="
M 44.00 139.00 
C 35.67 139.00 27.33 139.00 19.00 139.00
C 20.67 141.38 29.19 139.87 32.00 140.00 C 34.81 140.13 42.45 141.22 44.00 139.00 Z"/>
</g>
<g fill="#4F7257" fill-opacity="1.00" stroke="None">
<path d="
M 102.00 140.00 
C 119.61 138.19 138.28 140.08 156.00 140.00 C 173.72 139.92 192.36 138.40 210.00 140.00
C 193.77 136.64 173.23 138.91 156.00 139.00 C 138.77 139.09 118.26 136.40 102.00 140.00 Z"/>
</g>
<g fill="#000000" fill-opacity="1.00" stroke="None">
<path d="
M 96.00 243.00 
C 104.76 242.51 102.71 232.62 103.00 226.00 C 103.29 219.38 102.40 208.91 103.00 202.00 C 103.60 195.09 101.69 184.48 103.00 178.00 C 104.31 171.52 99.64 159.36 104.00 155.00
C 108.68 150.32 122.94 155.17 130.00 154.00 C 137.06 152.83 149.47 153.91 157.00 154.00 C 164.53 154.09 178.09 152.72 185.00 154.00 C 191.91 155.28 206.82 149.51 209.92 156.08 C 213.01 162.66 208.73 176.15 210.00 184.00 C 211.27 191.85 209.72 202.67 210.00 211.00 C 210.28 219.33 210.44 230.77 210.00 239.00 C 209.56 247.23 211.54 258.55 210.00 266.00 C 208.46 273.45 213.98 288.02 209.00 293.00
C 206.61 295.39 198.48 294.00 195.00 294.00
C 164.33 294.00 133.67 294.00 103.00 294.00
C 100.33 282.65 109.44 263.05 96.00 258.00
C 83.23 259.46 89.31 275.96 88.00 285.00 C 86.69 294.04 89.21 306.26 99.78 308.22 C 110.35 310.18 122.86 308.55 134.00 309.00 C 145.14 309.45 156.81 308.67 168.00 309.00
C 168.47 321.48 165.55 339.85 172.25 349.75 C 178.95 359.65 189.15 361.64 194.00 372.00
C 196.00 376.28 195.10 383.97 195.00 389.00 C 194.90 394.03 195.79 402.44 195.00 407.00 C 194.21 411.56 197.49 421.56 194.00 424.00
C 178.46 423.51 159.17 424.65 144.00 424.00 C 128.84 423.35 109.28 421.68 112.00 442.00
C 94.80 436.74 94.38 462.88 112.00 457.00
C 109.61 482.33 136.67 475.75 155.00 476.00 C 173.33 476.25 198.09 476.02 217.00 476.00 C 235.91 475.98 260.67 476.29 279.00 476.00 C 297.33 475.71 324.65 482.47 322.00 457.00
C 339.89 463.32 339.29 436.52 322.00 442.00
C 322.43 435.90 322.01 429.28 316.23 425.77 C 310.45 422.26 302.75 424.56 296.00 424.00 C 289.25 423.44 281.84 424.49 275.00 424.00 C 268.16 423.51 259.71 424.73 253.00 424.00 C 246.29 423.27 237.15 425.47 231.00 424.00 C 224.85 422.53 214.79 427.35 210.00 424.00
C 206.11 421.27 210.23 410.92 209.00 406.00 C 207.77 401.08 209.84 392.56 209.00 387.00 C 208.16 381.44 210.02 373.68 209.00 368.00
C 203.73 358.44 197.13 353.53 188.75 345.25 C 180.37 336.96 183.21 320.67 183.00 309.00
C 198.27 308.34 219.78 314.04 224.00 295.00
C 226.36 272.05 223.94 248.13 224.00 225.00 C 224.06 201.87 226.10 177.07 224.00 154.00
C 222.22 145.38 218.61 141.78 210.00 140.00
C 192.36 138.40 173.72 139.92 156.00 140.00 C 138.28 140.08 119.61 138.19 102.00 140.00
C 93.27 141.93 87.37 148.48 88.00 158.00 C 88.63 167.52 87.61 179.75 88.00 189.00 C 88.39 198.25 87.60 211.74 88.00 220.00 C 88.40 228.26 84.72 243.64 96.00 243.00
M 307.00 439.00 
C 307.00 446.33 307.00 453.67 307.00 461.00
C 247.00 461.00 187.00 461.00 127.00 461.00
C 127.00 453.67 127.00 446.33 127.00 439.00
C 187.00 439.00 247.00 439.00 307.00 439.00 Z"/>
</g>
<g fill="#47654E" fill-opacity="1.00" stroke="None">
<path d="
M 44.00 155.00 
C 47.16 155.47 50.49 154.79 53.00 154.00
C 50.53 154.44 45.56 152.78 44.00 155.00 Z"/>
</g>
<g fill="#747379" fill-opacity="1.00" stroke="None">
<path d="
M 104.00 155.00 
C 108.03 152.18 116.88 156.27 122.00 155.00 C 127.12 153.73 134.37 155.57 140.00 155.00 C 145.63 154.43 152.12 155.25 158.00 155.00 C 163.88 154.75 169.95 155.08 176.00 155.00 C 182.05 154.92 188.88 155.00 195.00 155.00
C 199.67 155.00 204.33 155.00 209.00 155.00
C 209.00 201.00 209.00 247.00 209.00 293.00
C 213.98 288.02 208.46 273.45 210.00 266.00 C 211.54 258.55 209.56 247.23 210.00 239.00 C 210.44 230.77 210.28 219.33 210.00 211.00 C 209.72 202.67 211.27 191.85 210.00 184.00 C 208.73 176.15 213.01 162.66 209.92 156.08 C 206.82 149.51 191.91 155.28 185.00 154.00 C 178.09 152.72 164.53 154.09 157.00 154.00 C 149.47 153.91 137.06 152.83 130.00 154.00 C 122.94 155.17 108.68 150.32 104.00 155.00 Z"/>
</g>
<g fill="#45634C" fill-opacity="1.00" stroke="None">
<path d="
M 224.00 295.00 
C 228.70 273.80 224.84 246.35 225.00 224.00 C 225.16 201.65 228.40 175.25 224.00 154.00
C 226.10 177.07 224.06 201.87 224.00 225.00 C 223.94 248.13 226.36 272.05 224.00 295.00 Z"/>
</g>
<g fill="#F7F4F7" fill-opacity="1.00" stroke="None">
<path d="
M 96.00 243.00 
C 96.00 248.00 96.00 253.00 96.00 258.00
C 109.44 263.05 100.33 282.65 103.00 294.00
C 133.67 294.00 164.33 294.00 195.00 294.00
C 195.50 283.84 194.33 273.10 195.00 263.00 C 195.67 252.90 193.72 241.89 195.00 232.00 C 196.28 222.11 192.69 210.72 194.00 202.00
C 185.33 214.64 174.32 224.81 174.00 241.00
C 173.83 249.30 174.56 258.47 173.00 266.00
C 170.09 280.06 157.26 279.32 145.00 279.00 C 132.74 278.68 118.57 281.40 115.00 267.00
C 112.05 255.08 114.18 239.83 114.00 227.00 C 113.82 214.17 112.53 198.93 115.00 187.00
C 117.03 177.18 122.16 172.04 132.00 170.00
C 145.46 167.21 167.63 167.04 181.00 170.00
C 186.02 171.11 191.84 173.30 195.00 178.00
C 193.86 170.51 195.86 162.54 195.00 155.00
C 188.88 155.00 182.05 154.92 176.00 155.00 C 169.95 155.08 163.88 154.75 158.00 155.00 C 152.12 155.25 145.63 154.43 140.00 155.00 C 134.37 155.57 127.12 153.73 122.00 155.00 C 116.88 156.27 108.03 152.18 104.00 155.00
C 99.64 159.36 104.31 171.52 103.00 178.00 C 101.69 184.48 103.60 195.09 103.00 202.00 C 102.40 208.91 103.29 219.38 103.00 226.00 C 102.71 232.62 104.76 242.51 96.00 243.00 Z"/>
</g>
<g fill="#DDDAEB" fill-opacity="1.00" stroke="None">
<path d="
M 195.00 178.00 
C 196.42 187.30 200.16 193.02 194.00 202.00
C 192.69 210.72 196.28 222.11 195.00 232.00 C 193.72 241.89 195.67 252.90 195.00 263.00 C 194.33 273.10 195.50 283.84 195.00 294.00
C 198.48 294.00 206.61 295.39 209.00 293.00
C 209.00 247.00 209.00 201.00 209.00 155.00
C 204.33 155.00 199.67 155.00 195.00 155.00
C 195.86 162.54 193.86 170.51 195.00 178.00 Z"/>
</g>
<g fill="#666466" fill-opacity="1.00" stroke="None">
<path d="
M 132.00 170.00 
C 147.34 168.61 165.68 168.43 181.00 170.00
C 167.63 167.04 145.46 167.21 132.00 170.00 Z"/>
</g>
<g fill="#000000" fill-opacity="1.00" stroke="None">
<path d="
M 115.00 187.00 
C 113.82 200.02 114.84 213.93 115.00 227.00 C 115.16 240.07 113.39 254.05 115.00 267.00
C 118.57 281.40 132.74 278.68 145.00 279.00 C 157.26 279.32 170.09 280.06 173.00 266.00
C 173.75 257.77 173.08 248.57 174.00 241.00
C 174.32 224.81 185.33 214.64 194.00 202.00
C 200.16 193.02 196.42 187.30 195.00 178.00
C 191.84 173.30 186.02 171.11 181.00 170.00
C 165.68 168.43 147.34 168.61 132.00 170.00
C 122.16 172.04 117.03 177.18 115.00 187.00
M 179.00 185.00 
C 188.72 188.95 177.06 199.39 172.75 205.75 C 168.43 212.10 161.87 220.19 160.22 229.22 C 158.58 238.26 158.92 254.02 159.00 264.00
C 155.00 264.00 151.00 264.00 147.00 264.00
C 141.00 264.00 135.00 264.00 129.00 264.00
C 130.35 251.72 127.19 232.59 129.00 221.00 C 130.81 209.41 122.59 186.76 136.01 184.01 C 149.42 181.26 166.22 185.22 179.00 185.00 Z"/>
</g>
<g fill="#2E5498" fill-opacity="1.00" stroke="None">
<path d="
M 147.00 264.00 
C 146.23 249.26 146.06 230.42 153.31 218.31 C 160.55 206.19 172.60 199.43 170.00 185.00
C 173.00 185.00 176.00 185.00 179.00 185.00
C 166.22 185.22 149.42 181.26 136.01 184.01 C 122.59 186.76 130.81 209.41 129.00 221.00 C 127.19 232.59 130.35 251.72 129.00 264.00
C 135.00 264.00 141.00 264.00 147.00 264.00 Z"/>
</g>
<g fill="#25437A" fill-opacity="1.00" stroke="None">
<path d="
M 147.00 264.00 
C 151.00 264.00 155.00 264.00 159.00 264.00
C 158.92 254.02 158.58 238.26 160.22 229.22 C 161.87 220.19 168.43 212.10 172.75 205.75 C 177.06 199.39 188.72 188.95 179.00 185.00
C 176.00 185.00 173.00 185.00 170.00 185.00
C 172.60 199.43 160.55 206.19 153.31 218.31 C 146.06 230.42 146.23 249.26 147.00 264.00 Z"/>
</g>
<g fill="#5B5A5B" fill-opacity="1.00" stroke="None">
<path d="
M 115.00 267.00 
C 113.39 254.05 115.16 240.07 115.00 227.00 C 114.84 213.93 113.82 200.02 115.00 187.00
C 112.53 198.93 113.82 214.17 114.00 227.00 C 114.18 239.83 112.05 255.08 115.00 267.00 Z"/>
</g>
<g fill="#80B4FB" fill-opacity="1.00" stroke="None">
<path d="
M 19.00 257.00 
C 27.33 257.00 35.67 257.00 44.00 257.00
C 44.00 235.00 44.00 213.00 44.00 191.00
C 35.67 191.00 27.33 191.00 19.00 191.00
C 19.20 196.43 18.73 202.65 19.00 208.00 C 19.27 213.35 18.46 218.86 19.00 224.00 C 19.54 229.14 17.90 236.27 19.00 241.00 C 20.10 245.73 16.44 253.34 19.00 257.00 Z"/>
</g>
<g fill="#000000" fill-opacity="1.00" stroke="None">
<path d="
M 401.00 194.00 
C 389.38 190.47 380.46 203.35 392.00 209.00 C 403.54 214.65 413.09 197.67 401.00 194.00 Z"/>
</g>
<g fill="#000000" fill-opacity="1.00" stroke="None">
<path d="
M 436.00 194.00 
C 424.14 190.40 415.41 203.26 427.00 209.00 C 438.59 214.74 448.04 197.65 436.00 194.00 Z"/>
</g>
<g fill="#000000" fill-opacity="1.00" stroke="None">
<path d="
M 471.00 194.00 
C 460.18 190.72 450.11 202.04 461.00 209.00 C 471.89 215.96 483.21 197.71 471.00 194.00 Z"/>
</g>
<g fill="#000000" fill-opacity="1.00" stroke="None">
<path d="
M 421.00 231.00 
C 409.85 227.62 400.77 239.18 411.33 245.67 C 421.89 252.16 432.76 234.57 421.00 231.00 Z"/>
</g>
<g fill="#000000" fill-opacity="1.00" stroke="None">
<path d="
M 451.00 231.00 
C 439.30 227.45 431.48 240.08 442.00 246.00 C 452.52 251.92 462.33 234.44 451.00 231.00 Z"/>
</g>
<g fill="#616061" fill-opacity="1.00" stroke="None">
<path d="
M 173.00 266.00 
C 174.56 258.47 173.83 249.30 174.00 241.00
C 173.08 248.57 173.75 257.77 173.00 266.00 Z"/>
</g>
<g fill="#3C5475" fill-opacity="1.00" stroke="None">
<path d="
M 44.00 257.00 
C 35.67 257.00 27.33 257.00 19.00 257.00
C 20.67 259.38 29.19 257.87 32.00 258.00 C 34.81 258.13 42.45 259.22 44.00 257.00 Z"/>
</g>
<g fill="#507458" fill-opacity="1.00" stroke="None">
<path d="
M 44.00 273.00 
C 47.16 273.47 50.49 272.79 53.00 272.00
C 50.53 272.44 45.56 270.78 44.00 273.00 Z"/>
</g>
<g fill="#000000" fill-opacity="1.00" stroke="None">
<path d="
M 329.00 310.00 
C 328.59 313.33 330.45 319.71 328.00 322.00
C 324.93 324.87 318.28 322.36 319.01 329.99 C 319.74 337.62 324.55 333.62 328.00 337.00
C 332.08 341.00 328.09 345.50 325.00 347.00
C 317.34 350.70 317.22 357.11 325.00 361.00
C 328.04 362.52 332.10 366.98 328.00 371.00
C 324.88 374.06 318.34 371.36 319.01 378.99 C 319.68 386.62 324.57 382.80 328.00 386.00
C 330.44 388.27 328.59 394.73 329.00 398.00
C 329.28 409.29 342.26 409.86 351.00 409.00
C 349.02 421.00 369.14 421.77 366.00 409.00
C 369.33 409.00 372.67 409.00 376.00 409.00
C 373.06 421.50 393.96 421.47 391.00 409.00
C 394.33 409.00 397.67 409.00 401.00 409.00
C 397.87 421.79 417.98 420.98 416.00 409.00
C 431.44 413.31 442.56 400.96 439.00 386.00
C 450.65 388.39 450.65 368.83 439.00 371.00
C 439.00 367.67 439.00 364.33 439.00 361.00
C 451.05 363.88 450.32 344.12 439.00 346.00
C 439.00 343.00 439.00 340.00 439.00 337.00
C 450.67 339.16 450.64 319.61 439.00 322.00
C 442.55 307.00 431.51 294.59 416.00 299.00
C 417.98 287.01 397.86 286.23 401.00 299.00
C 397.67 299.00 394.33 299.00 391.00 299.00
C 393.96 286.34 373.03 286.36 376.00 299.00
C 372.67 299.00 369.33 299.00 366.00 299.00
C 369.13 286.21 349.02 287.02 351.00 299.00
C 340.24 297.53 331.66 299.26 329.00 310.00
M 411.00 394.00 
C 388.33 394.00 365.67 394.00 343.00 394.00
C 343.00 367.33 343.00 340.67 343.00 314.00
C 365.67 314.00 388.33 314.00 411.00 314.00
C 415.33 314.00 419.67 314.00 424.00 314.00
C 424.00 340.67 424.00 367.33 424.00 394.00
C 419.67 394.00 415.33 394.00 411.00 394.00 Z"/>
</g>
<g fill="#F4F2F4" fill-opacity="1.00" stroke="None">
<path d="
M 44.00 309.00 
C 35.67 309.00 27.33 309.00 19.00 309.00
C 19.00 317.67 19.00 326.33 19.00 335.00
C 27.33 335.00 35.67 335.00 44.00 335.00
C 44.00 326.33 44.00 317.67 44.00 309.00 Z"/>
</g>
<g fill="#3C5742" fill-opacity="1.00" stroke="None">
<path d="
M 328.00 322.00 
C 330.45 319.71 328.59 313.33 329.00 310.00
C 328.17 313.37 327.54 317.90 328.00 322.00 Z"/>
</g>
<g fill="#2F559A" fill-opacity="1.00" stroke="None">
<path d="
M 411.00 394.00 
C 411.00 367.33 411.00 340.67 411.00 314.00
C 388.33 314.00 365.67 314.00 343.00 314.00
C 343.00 340.67 343.00 367.33 343.00 394.00
C 365.67 394.00 388.33 394.00 411.00 394.00
M 367.00 331.00 
C 376.03 333.17 370.63 349.27 372.00 356.00 C 373.37 362.73 372.96 379.24 362.78 376.22 C 352.60 373.20 358.35 359.48 357.00 352.00 C 355.65 344.52 355.92 328.34 367.00 331.00
M 405.00 331.00 
C 413.93 333.26 408.46 349.51 410.00 356.00 C 411.54 362.49 410.45 379.83 400.33 376.67 C 390.20 373.51 396.53 359.18 395.00 352.00 C 393.47 344.82 393.79 328.16 405.00 331.00 Z"/>
</g>
<g fill="#25437A" fill-opacity="1.00" stroke="None">
<path d="
M 411.00 394.00 
C 415.33 394.00 419.67 394.00 424.00 394.00
C 424.00 367.33 424.00 340.67 424.00 314.00
C 419.67 314.00 415.33 314.00 411.00 314.00
C 411.00 340.67 411.00 367.33 411.00 394.00 Z"/>
</g>
<g fill="#000000" fill-opacity="1.00" stroke="None">
<path d="
M 367.00 331.00 
C 355.92 328.34 355.65 344.52 357.00 352.00 C 358.35 359.48 352.60 373.20 362.78 376.22 C 372.96 379.24 373.37 362.73 372.00 356.00 C 370.63 349.27 376.03 333.17 367.00 331.00 Z"/>
</g>
<g fill="#000000" fill-opacity="1.00" stroke="None">
<path d="
M 405.00 331.00 
C 393.79 328.16 393.47 344.82 395.00 352.00 C 396.53 359.18 390.20 373.51 400.33 376.67 C 410.45 379.83 411.54 362.49 410.00 356.00 C 408.46 349.51 413.93 333.26 405.00 331.00 Z"/>
</g>
<g fill="#3F5A45" fill-opacity="1.00" stroke="None">
<path d="
M 325.00 347.00 
C 328.09 345.50 332.08 341.00 328.00 337.00
C 328.00 340.00 328.00 343.00 328.00 346.00
C 326.60 345.55 325.82 346.44 325.00 347.00 Z"/>
</g>
<g fill="#000000" fill-opacity="1.00" stroke="None">
<path d="
M 131.00 344.00 
C 98.03 336.69 85.35 383.82 116.98 394.02 C 148.60 404.23 162.28 350.93 131.00 344.00
M 128.00 359.00 
C 140.26 362.72 132.30 384.87 119.93 379.07 C 107.55 373.28 114.05 354.77 128.00 359.00 Z"/>
</g>
<g fill="#000000" fill-opacity="1.00" stroke="None">
<path d="
M 264.00 344.00 
C 230.96 337.16 218.35 383.49 249.98 394.02 C 281.61 404.55 295.38 350.50 264.00 344.00
M 261.00 359.00 
C 273.23 362.71 265.35 384.85 252.93 379.07 C 240.50 373.30 247.20 354.81 261.00 359.00 Z"/>
</g>
<g fill="#3C5742" fill-opacity="1.00" stroke="None">
<path d="
M 44.00 350.00 
C 47.16 350.50 50.50 349.76 53.00 349.00
C 50.54 349.42 45.55 347.79 44.00 350.00 Z"/>
</g>
<g fill="#D8606B" fill-opacity="1.00" stroke="None">
<path d="
M 128.00 359.00 
C 114.05 354.77 107.55 373.28 119.93 379.07 C 132.30 384.87 140.26 362.72 128.00 359.00 Z"/>
</g>
<g fill="#D8606B" fill-opacity="1.00" stroke="None">
<path d="
M 261.00 359.00 
C 247.20 354.81 240.50 373.30 252.93 379.07 C 265.35 384.85 273.23 362.71 261.00 359.00 Z"/>
</g>
<g fill="#415D48" fill-opacity="1.00" stroke="None">
<path d="
M 328.00 371.00 
C 332.10 366.98 328.04 362.52 325.00 361.00
C 325.27 362.47 327.00 361.89 328.00 362.00
C 328.00 365.00 328.00 368.00 328.00 371.00 Z"/>
</g>
<g fill="#507358" fill-opacity="1.00" stroke="None">
<path d="
M 210.00 424.00 
C 207.10 406.19 214.32 384.82 209.00 368.00
C 210.02 373.68 208.16 381.44 209.00 387.00 C 209.84 392.56 207.77 401.08 209.00 406.00 C 210.23 410.92 206.11 421.27 210.00 424.00 Z"/>
</g>
<g fill="#43604A" fill-opacity="1.00" stroke="None">
<path d="
M 194.00 424.00 
C 197.49 421.56 194.21 411.56 195.00 407.00 C 195.79 402.44 194.90 394.03 195.00 389.00 C 195.10 383.97 196.00 376.28 194.00 372.00
C 196.38 379.95 192.76 389.70 194.00 398.00 C 195.24 406.30 193.07 415.61 194.00 424.00 Z"/>
</g>
<g fill="#F7F4F7" fill-opacity="1.00" stroke="None">
<path d="
M 63.00 386.00 
C 48.33 386.00 33.67 386.00 19.00 386.00
C 19.00 394.67 19.00 403.33 19.00 412.00
C 33.67 412.00 48.33 412.00 63.00 412.00
C 63.00 403.33 63.00 394.67 63.00 386.00 Z"/>
</g>
<g fill="#3D5743" fill-opacity="1.00" stroke="None">
<path d="
M 329.00 398.00 
C 328.59 394.73 330.44 388.27 328.00 386.00
C 327.56 390.09 328.15 394.58 329.00 398.00 Z"/>
</g>
<g fill="#FEDE7A" fill-opacity="1.00" stroke="None">
<path d="
M 307.00 439.00 
C 247.00 439.00 187.00 439.00 127.00 439.00
C 127.00 446.33 127.00 453.67 127.00 461.00
C 187.00 461.00 247.00 461.00 307.00 461.00
C 307.00 453.67 307.00 446.33 307.00 439.00 Z"/>
</g>
<g fill="#000000" fill-opacity="1.00" stroke="None">
<path d="
M 439.00 462.00 
C 430.04 459.01 418.29 463.95 409.00 462.00 C 399.71 460.05 389.26 464.19 380.00 462.00 C 370.74 459.82 365.68 473.29 374.78 476.22 C 383.88 479.15 394.58 475.49 404.00 477.00 C 413.42 478.51 423.84 474.75 433.00 477.00 C 442.16 479.24 447.48 464.83 439.00 462.00 Z"/>
</g>
<g fill="#000000" fill-opacity="0.05" stroke="None">
<path d="
M 322.00 512.00 
L 349.00 512.00
C 346.25 510.34 342.94 507.49 343.00 505.00
C 340.32 504.13 331.68 504.13 329.00 505.00
C 328.79 506.44 326.65 507.21 328.00 509.00
C 325.77 509.31 323.78 511.12 322.00 512.00 Z"/>
</g>
</svg>