<svg xmlns="http://www.w3.org/2000/svg" xmlns:v="https://svgstorm.com"
viewBox = "0 0 512 512"
width="512"
height="512">
<g fill="None" fill-opacity="0.0" stroke="#000000" stroke-opacity="0.00" stroke-width="0.3"><path d="
M 0.00 512.00 
L 512.00 512.00
L 512.00 0.00
L 0.00 0.00
L 0.00 512.00
M 165.00 49.00 
C 173.15 57.15 177.09 62.80 186.25 70.75 C 195.41 78.70 202.33 86.31 200.00 100.00 C 197.67 113.69 201.75 130.06 200.00 144.00
C 205.33 144.00 210.67 144.00 216.00 144.00
C 216.00 136.00 216.00 128.00 216.00 120.00
C 221.33 120.00 226.67 120.00 232.00 120.00
C 232.00 128.00 232.00 136.00 232.00 144.00
C 237.33 144.00 242.67 144.00 248.00 144.00
C 248.00 124.67 248.00 105.33 248.00 86.00
C 232.63 81.84 228.20 62.73 236.57 50.23 C 244.94 37.73 265.42 37.40 275.10 48.90 C 284.78 60.40 279.28 81.94 265.00 85.00
C 262.71 104.17 264.64 124.41 264.00 144.00
C 269.33 144.00 274.67 144.00 280.00 144.00
C 280.00 136.00 280.00 128.00 280.00 120.00
C 285.33 120.00 290.67 120.00 296.00 120.00
C 296.00 128.00 296.00 136.00 296.00 144.00
C 301.33 144.00 306.67 144.00 312.00 144.00
C 310.99 132.27 310.40 116.97 319.75 109.75 C 329.11 102.53 332.90 95.39 341.25 88.25 C 349.60 81.11 354.59 73.59 363.00 67.00
C 349.24 42.42 383.94 20.90 401.75 39.25 C 419.55 57.61 396.01 90.46 373.00 77.00
C 368.96 81.97 363.75 86.70 359.25 91.25 C 354.74 95.79 349.70 100.90 345.25 105.25 C 340.79 109.60 335.51 115.31 331.25 119.25 C 326.98 123.18 325.40 140.40 329.11 143.89 C 332.82 147.38 340.52 144.27 344.25 147.19 C 347.99 150.11 351.37 151.61 356.25 156.75 C 361.13 161.89 362.63 163.96 364.39 168.75 C 366.16 173.55 368.29 177.97 368.00 184.00
C 377.69 182.68 393.39 187.18 400.75 180.75 C 408.11 174.32 411.62 168.76 419.00 163.00
C 405.64 138.58 438.97 117.37 457.23 134.77 C 475.50 152.17 452.77 186.27 431.00 173.00
C 422.09 180.85 417.09 186.60 408.25 195.25 C 399.41 203.90 380.17 198.63 368.00 200.00
C 368.00 205.33 368.00 210.67 368.00 216.00
C 376.00 216.00 384.00 216.00 392.00 216.00
C 392.00 221.33 392.00 226.67 392.00 232.00
C 384.00 232.00 376.00 232.00 368.00 232.00
C 368.00 237.33 368.00 242.67 368.00 248.00
C 387.23 249.16 409.87 248.47 419.75 241.61 C 429.63 234.74 437.94 232.54 449.00 227.00
C 444.09 199.49 483.18 190.37 493.19 214.25 C 503.20 238.14 473.97 259.12 455.00 241.00
C 444.50 248.84 434.49 249.45 424.08 257.13 C 413.67 264.81 388.37 265.15 368.00 264.00
C 368.00 269.33 368.00 274.67 368.00 280.00
C 381.33 280.00 394.67 280.00 408.00 280.00
C 408.00 285.33 408.00 290.67 408.00 296.00
C 394.67 296.00 381.33 296.00 368.00 296.00
C 368.00 301.33 368.00 306.67 368.00 312.00
C 385.99 310.34 406.24 314.22 424.00 312.00 C 441.76 309.78 450.72 317.65 461.00 331.00
C 484.06 318.32 507.60 349.98 489.70 368.70 C 471.80 387.43 437.29 365.04 451.00 341.00
C 443.50 336.52 441.93 327.38 432.00 328.00 C 422.07 328.62 410.28 327.68 400.00 328.00 C 389.72 328.32 378.38 327.76 368.00 328.00
C 367.97 350.18 350.24 368.04 328.00 368.00
C 328.00 384.00 328.00 400.00 328.00 416.00
C 342.00 416.00 356.00 416.00 370.00 416.00
C 378.35 391.05 415.87 398.14 415.99 424.01 C 416.12 449.88 378.23 457.22 370.00 432.00
C 350.67 432.00 331.33 432.00 312.00 432.00
C 312.00 410.67 312.00 389.33 312.00 368.00
C 306.67 368.00 301.33 368.00 296.00 368.00
C 296.00 376.00 296.00 384.00 296.00 392.00
C 290.67 392.00 285.33 392.00 280.00 392.00
C 280.00 384.00 280.00 376.00 280.00 368.00
C 274.67 368.00 269.33 368.00 264.00 368.00
C 263.63 383.39 264.49 404.15 264.00 419.00 C 263.51 433.85 274.92 433.04 282.25 439.75 C 289.59 446.45 298.05 446.21 305.00 454.00
C 324.71 435.75 354.62 462.68 341.61 484.75 C 328.59 506.82 289.49 494.73 297.00 466.00
C 279.43 457.89 265.10 446.03 248.00 437.00
C 248.00 414.00 248.00 391.00 248.00 368.00
C 242.67 368.00 237.33 368.00 232.00 368.00
C 232.00 384.00 232.00 400.00 232.00 416.00
C 226.67 416.00 221.33 416.00 216.00 416.00
C 216.00 400.00 216.00 384.00 216.00 368.00
C 210.67 368.00 205.33 368.00 200.00 368.00
C 201.76 381.74 197.65 397.46 200.00 411.00 C 202.35 424.54 196.12 432.91 186.75 440.75 C 177.38 448.59 173.30 454.93 165.00 463.00
C 177.87 484.79 145.20 507.00 127.23 488.77 C 109.26 470.54 130.43 438.30 155.00 451.00
C 162.32 444.02 164.86 438.97 173.25 432.25 C 181.63 425.53 185.83 417.80 184.00 406.00 C 182.17 394.20 185.37 380.02 184.00 368.00
C 175.26 366.65 175.34 368.11 167.75 364.81 C 160.16 361.51 148.12 349.11 146.81 341.75 C 145.50 334.38 146.41 327.70 137.00 328.00 C 127.59 328.30 116.56 327.77 107.00 328.00
C 99.96 341.18 90.88 354.80 81.00 367.00
C 100.41 385.99 76.03 418.01 52.23 405.42 C 28.43 392.84 41.44 355.20 68.00 361.00
C 76.99 343.48 89.73 329.35 99.00 312.00
C 114.00 312.00 129.00 312.00 144.00 312.00
C 144.00 306.67 144.00 301.33 144.00 296.00
C 120.00 296.00 96.00 296.00 72.00 296.00
C 72.00 290.67 72.00 285.33 72.00 280.00
C 96.00 280.00 120.00 280.00 144.00 280.00
C 144.00 274.67 144.00 269.33 144.00 264.00
C 136.00 264.00 128.00 264.00 120.00 264.00
C 120.00 258.67 120.00 253.33 120.00 248.00
C 128.00 248.00 136.00 248.00 144.00 248.00
C 144.00 242.67 144.00 237.33 144.00 232.00
C 132.99 232.48 114.24 231.36 104.00 232.00 C 93.76 232.64 88.71 240.53 82.70 245.71 C 76.68 250.90 67.70 255.56 63.90 260.91 C 60.10 266.25 65.62 277.87 60.43 283.77 C 55.24 289.66 50.89 296.00 41.92 295.93 C 32.95 295.87 25.21 293.38 20.30 286.70 C 15.39 280.01 15.63 274.55 16.80 265.75 C 17.97 256.95 25.67 253.37 32.25 249.80 C 38.82 246.24 49.39 253.34 54.75 248.74 C 60.12 244.13 67.76 237.44 73.75 232.75 C 79.75 228.06 86.85 221.77 92.00 216.00
C 109.33 216.00 126.67 216.00 144.00 216.00
C 144.00 210.67 144.00 205.33 144.00 200.00
C 131.84 198.63 112.61 203.89 103.75 195.25 C 94.89 186.60 89.87 180.80 81.00 173.00
C 58.80 186.33 36.63 151.48 55.25 134.25 C 73.87 117.03 106.14 139.66 93.00 163.00
C 100.41 168.82 103.90 174.32 111.25 180.75 C 118.59 187.19 134.30 182.68 144.00 184.00
C 143.74 162.76 162.53 143.74 184.00 144.00
C 185.33 132.21 182.23 118.61 184.00 107.00 C 185.77 95.39 182.27 86.90 173.75 80.25 C 165.23 73.59 162.41 67.93 155.00 61.00
C 131.70 74.10 109.07 41.92 126.30 23.30 C 143.53 4.67 178.27 26.71 165.00 49.00
M 232.00 88.00 
C 232.00 93.33 232.00 98.67 232.00 104.00
C 226.67 104.00 221.33 104.00 216.00 104.00
C 216.00 98.67 216.00 93.33 216.00 88.00
C 221.33 88.00 226.67 88.00 232.00 88.00
M 296.00 88.00 
C 296.00 93.33 296.00 98.67 296.00 104.00
C 290.67 104.00 285.33 104.00 280.00 104.00
C 280.00 98.67 280.00 93.33 280.00 88.00
C 285.33 88.00 290.67 88.00 296.00 88.00
M 144.00 136.00 
C 144.00 141.33 144.00 146.67 144.00 152.00
C 138.67 152.00 133.33 152.00 128.00 152.00
C 128.00 146.67 128.00 141.33 128.00 136.00
C 133.33 136.00 138.67 136.00 144.00 136.00
M 384.00 136.00 
C 384.00 141.33 384.00 146.67 384.00 152.00
C 378.67 152.00 373.33 152.00 368.00 152.00
C 368.00 146.67 368.00 141.33 368.00 136.00
C 373.33 136.00 378.67 136.00 384.00 136.00
M 424.00 216.00 
C 424.00 221.33 424.00 226.67 424.00 232.00
C 418.67 232.00 413.33 232.00 408.00 232.00
C 408.00 226.67 408.00 221.33 408.00 216.00
C 413.33 216.00 418.67 216.00 424.00 216.00
M 104.00 248.00 
C 104.00 253.33 104.00 258.67 104.00 264.00
C 98.67 264.00 93.33 264.00 88.00 264.00
C 88.00 258.67 88.00 253.33 88.00 248.00
C 93.33 248.00 98.67 248.00 104.00 248.00
M 440.00 280.00 
C 440.00 285.33 440.00 290.67 440.00 296.00
C 434.67 296.00 429.33 296.00 424.00 296.00
C 424.00 290.67 424.00 285.33 424.00 280.00
C 429.33 280.00 434.67 280.00 440.00 280.00
M 144.00 360.00 
C 144.00 365.33 144.00 370.67 144.00 376.00
C 138.67 376.00 133.33 376.00 128.00 376.00
C 128.00 370.67 128.00 365.33 128.00 360.00
C 133.33 360.00 138.67 360.00 144.00 360.00
M 384.00 360.00 
C 384.00 365.33 384.00 370.67 384.00 376.00
C 378.67 376.00 373.33 376.00 368.00 376.00
C 368.00 370.67 368.00 365.33 368.00 360.00
C 373.33 360.00 378.67 360.00 384.00 360.00
M 296.00 408.00 
C 296.00 413.33 296.00 418.67 296.00 424.00
C 290.67 424.00 285.33 424.00 280.00 424.00
C 280.00 418.67 280.00 413.33 280.00 408.00
C 285.33 408.00 290.67 408.00 296.00 408.00
M 232.00 432.00 
C 232.00 437.33 232.00 442.67 232.00 448.00
C 226.67 448.00 221.33 448.00 216.00 448.00
C 216.00 442.67 216.00 437.33 216.00 432.00
C 221.33 432.00 226.67 432.00 232.00 432.00 Z"/>
</g>
<g fill="None" fill-opacity="0.0" stroke="#000000" stroke-opacity="0.99" stroke-width="0.3"><path d="
M 165.00 49.00 
C 178.27 26.71 143.53 4.67 126.30 23.30 C 109.07 41.92 131.70 74.10 155.00 61.00
C 162.41 67.93 165.23 73.59 173.75 80.25 C 182.27 86.90 185.77 95.39 184.00 107.00 C 182.23 118.61 185.33 132.21 184.00 144.00
C 162.53 143.74 143.74 162.76 144.00 184.00
C 134.30 182.68 118.59 187.19 111.25 180.75 C 103.90 174.32 100.41 168.82 93.00 163.00
C 106.14 139.66 73.87 117.03 55.25 134.25 C 36.63 151.48 58.80 186.33 81.00 173.00
C 89.87 180.80 94.89 186.60 103.75 195.25 C 112.61 203.89 131.84 198.63 144.00 200.00
C 144.00 205.33 144.00 210.67 144.00 216.00
C 126.67 216.00 109.33 216.00 92.00 216.00
C 86.85 221.77 79.75 228.06 73.75 232.75 C 67.76 237.44 60.12 244.13 54.75 248.74 C 49.39 253.34 38.82 246.24 32.25 249.80 C 25.67 253.37 17.97 256.95 16.80 265.75 C 15.63 274.55 15.39 280.01 20.30 286.70 C 25.21 293.38 32.95 295.87 41.92 295.93 C 50.89 296.00 55.24 289.66 60.43 283.77 C 65.62 277.87 60.10 266.25 63.90 260.91 C 67.70 255.56 76.68 250.90 82.70 245.71 C 88.71 240.53 93.76 232.64 104.00 232.00 C 114.24 231.36 132.99 232.48 144.00 232.00
C 144.00 237.33 144.00 242.67 144.00 248.00
C 136.00 248.00 128.00 248.00 120.00 248.00
C 120.00 253.33 120.00 258.67 120.00 264.00
C 128.00 264.00 136.00 264.00 144.00 264.00
C 144.00 269.33 144.00 274.67 144.00 280.00
C 120.00 280.00 96.00 280.00 72.00 280.00
C 72.00 285.33 72.00 290.67 72.00 296.00
C 96.00 296.00 120.00 296.00 144.00 296.00
C 144.00 301.33 144.00 306.67 144.00 312.00
C 129.00 312.00 114.00 312.00 99.00 312.00
C 89.73 329.35 76.99 343.48 68.00 361.00
C 41.44 355.20 28.43 392.84 52.23 405.42 C 76.03 418.01 100.41 385.99 81.00 367.00
C 90.88 354.80 99.96 341.18 107.00 328.00
C 116.56 327.77 127.59 328.30 137.00 328.00 C 146.41 327.70 145.50 334.38 146.81 341.75 C 148.12 349.11 160.16 361.51 167.75 364.81 C 175.34 368.11 175.26 366.65 184.00 368.00
C 185.37 380.02 182.17 394.20 184.00 406.00 C 185.83 417.80 181.63 425.53 173.25 432.25 C 164.86 438.97 162.32 444.02 155.00 451.00
C 130.43 438.30 109.26 470.54 127.23 488.77 C 145.20 507.00 177.87 484.79 165.00 463.00
C 173.30 454.93 177.38 448.59 186.75 440.75 C 196.12 432.91 202.35 424.54 200.00 411.00 C 197.65 397.46 201.76 381.74 200.00 368.00
C 205.33 368.00 210.67 368.00 216.00 368.00
C 216.00 384.00 216.00 400.00 216.00 416.00
C 221.33 416.00 226.67 416.00 232.00 416.00
C 232.00 400.00 232.00 384.00 232.00 368.00
C 237.33 368.00 242.67 368.00 248.00 368.00
C 248.00 391.00 248.00 414.00 248.00 437.00
C 265.10 446.03 279.43 457.89 297.00 466.00
C 289.49 494.73 328.59 506.82 341.61 484.75 C 354.62 462.68 324.71 435.75 305.00 454.00
C 298.05 446.21 289.59 446.45 282.25 439.75 C 274.92 433.04 263.51 433.85 264.00 419.00 C 264.49 404.15 263.63 383.39 264.00 368.00
C 269.33 368.00 274.67 368.00 280.00 368.00
C 280.00 376.00 280.00 384.00 280.00 392.00
C 285.33 392.00 290.67 392.00 296.00 392.00
C 296.00 384.00 296.00 376.00 296.00 368.00
C 301.33 368.00 306.67 368.00 312.00 368.00
C 312.00 389.33 312.00 410.67 312.00 432.00
C 331.33 432.00 350.67 432.00 370.00 432.00
C 378.23 457.22 416.12 449.88 415.99 424.01 C 415.87 398.14 378.35 391.05 370.00 416.00
C 356.00 416.00 342.00 416.00 328.00 416.00
C 328.00 400.00 328.00 384.00 328.00 368.00
C 350.24 368.04 367.97 350.18 368.00 328.00
C 378.38 327.76 389.72 328.32 400.00 328.00 C 410.28 327.68 422.07 328.62 432.00 328.00 C 441.93 327.38 443.50 336.52 451.00 341.00
C 437.29 365.04 471.80 387.43 489.70 368.70 C 507.60 349.98 484.06 318.32 461.00 331.00
C 450.72 317.65 441.76 309.78 424.00 312.00 C 406.24 314.22 385.99 310.34 368.00 312.00
C 368.00 306.67 368.00 301.33 368.00 296.00
C 381.33 296.00 394.67 296.00 408.00 296.00
C 408.00 290.67 408.00 285.33 408.00 280.00
C 394.67 280.00 381.33 280.00 368.00 280.00
C 368.00 274.67 368.00 269.33 368.00 264.00
C 388.37 265.15 413.67 264.81 424.08 257.13 C 434.49 249.45 444.50 248.84 455.00 241.00
C 473.97 259.12 503.20 238.14 493.19 214.25 C 483.18 190.37 444.09 199.49 449.00 227.00
C 437.94 232.54 429.63 234.74 419.75 241.61 C 409.87 248.47 387.23 249.16 368.00 248.00
C 368.00 242.67 368.00 237.33 368.00 232.00
C 376.00 232.00 384.00 232.00 392.00 232.00
C 392.00 226.67 392.00 221.33 392.00 216.00
C 384.00 216.00 376.00 216.00 368.00 216.00
C 368.00 210.67 368.00 205.33 368.00 200.00
C 380.17 198.63 399.41 203.90 408.25 195.25 C 417.09 186.60 422.09 180.85 431.00 173.00
C 452.77 186.27 475.50 152.17 457.23 134.77 C 438.97 117.37 405.64 138.58 419.00 163.00
C 411.62 168.76 408.11 174.32 400.75 180.75 C 393.39 187.18 377.69 182.68 368.00 184.00
C 368.29 177.97 366.16 173.55 364.39 168.75 C 362.63 163.96 361.13 161.89 356.25 156.75 C 351.37 151.61 347.99 150.11 344.25 147.19 C 340.52 144.27 332.82 147.38 329.11 143.89 C 325.40 140.40 326.98 123.18 331.25 119.25 C 335.51 115.31 340.79 109.60 345.25 105.25 C 349.70 100.90 354.74 95.79 359.25 91.25 C 363.75 86.70 368.96 81.97 373.00 77.00
C 396.01 90.46 419.55 57.61 401.75 39.25 C 383.94 20.90 349.24 42.42 363.00 67.00
C 354.59 73.59 349.60 81.11 341.25 88.25 C 332.90 95.39 329.11 102.53 319.75 109.75 C 310.40 116.97 310.99 132.27 312.00 144.00
C 306.67 144.00 301.33 144.00 296.00 144.00
C 296.00 136.00 296.00 128.00 296.00 120.00
C 290.67 120.00 285.33 120.00 280.00 120.00
C 280.00 128.00 280.00 136.00 280.00 144.00
C 274.67 144.00 269.33 144.00 264.00 144.00
C 264.64 124.41 262.71 104.17 265.00 85.00
C 279.28 81.94 284.78 60.40 275.10 48.90 C 265.42 37.40 244.94 37.73 236.57 50.23 C 228.20 62.73 232.63 81.84 248.00 86.00
C 248.00 105.33 248.00 124.67 248.00 144.00
C 242.67 144.00 237.33 144.00 232.00 144.00
C 232.00 136.00 232.00 128.00 232.00 120.00
C 226.67 120.00 221.33 120.00 216.00 120.00
C 216.00 128.00 216.00 136.00 216.00 144.00
C 210.67 144.00 205.33 144.00 200.00 144.00
C 201.75 130.06 197.67 113.69 200.00 100.00 C 202.33 86.31 195.41 78.70 186.25 70.75 C 177.09 62.80 173.15 57.15 165.00 49.00
M 147.00 32.00 
C 156.53 34.56 151.17 51.79 141.33 47.67 C 131.49 43.55 136.79 29.26 147.00 32.00
M 387.00 48.00 
C 396.53 50.56 391.17 67.79 381.33 63.67 C 371.49 59.55 376.79 45.26 387.00 48.00
M 259.00 56.00 
C 268.53 58.56 263.17 75.79 253.33 71.67 C 243.49 67.55 248.79 53.26 259.00 56.00
M 75.00 144.00 
C 84.53 146.56 79.17 163.79 69.33 159.67 C 59.49 155.55 64.79 141.26 75.00 144.00
M 443.00 144.00 
C 452.53 146.56 447.17 163.79 437.33 159.67 C 427.49 155.55 432.79 141.26 443.00 144.00
M 333.00 160.00 
C 355.17 163.97 353.24 190.90 352.00 210.00 C 350.76 229.10 354.22 260.17 352.00 280.00 C 349.78 299.83 359.41 328.02 345.75 343.75 C 332.09 359.48 303.40 350.35 284.00 352.00 C 264.60 353.65 232.95 351.59 214.00 352.00 C 195.05 352.41 167.49 357.36 161.22 335.78 C 154.96 314.19 162.86 289.53 160.00 267.00 C 157.14 244.47 163.15 219.64 160.00 197.00 C 156.85 174.36 169.49 157.14 193.00 160.00 C 216.51 162.86 239.77 157.39 263.00 160.00 C 286.23 162.61 310.13 155.90 333.00 160.00
M 475.00 216.00 
C 484.53 218.56 479.17 235.79 469.33 231.67 C 459.49 227.55 464.79 213.26 475.00 216.00
M 43.00 264.00 
C 52.53 266.56 47.17 283.79 37.33 279.67 C 27.49 275.55 32.79 261.26 43.00 264.00
M 475.00 344.00 
C 484.54 346.56 479.17 363.79 469.33 359.67 C 459.49 355.55 464.79 341.26 475.00 344.00
M 67.00 376.00 
C 76.53 378.56 71.17 395.79 61.33 391.67 C 51.49 387.55 56.79 373.26 67.00 376.00
M 395.00 416.00 
C 404.53 418.56 399.17 435.79 389.33 431.67 C 379.49 427.55 384.79 413.26 395.00 416.00
M 147.00 464.00 
C 156.53 466.56 151.17 483.79 141.33 479.67 C 131.49 475.55 136.79 461.26 147.00 464.00
M 323.00 464.00 
C 332.53 466.56 327.17 483.79 317.33 479.67 C 307.49 475.55 312.79 461.26 323.00 464.00 Z"/>
</g>
<g fill="None" fill-opacity="0.0" stroke="#78CB3B" stroke-opacity="1.00" stroke-width="0.3"><path d="
M 147.00 32.00 
C 136.79 29.26 131.49 43.55 141.33 47.67 C 151.17 51.79 156.53 34.56 147.00 32.00 Z"/>
</g>
<g fill="None" fill-opacity="0.0" stroke="#78CB3B" stroke-opacity="1.00" stroke-width="0.3"><path d="
M 387.00 48.00 
C 376.79 45.26 371.49 59.55 381.33 63.67 C 391.17 67.79 396.53 50.56 387.00 48.00 Z"/>
</g>
<g fill="None" fill-opacity="0.0" stroke="#78CB3B" stroke-opacity="1.00" stroke-width="0.3"><path d="
M 259.00 56.00 
C 248.79 53.26 243.49 67.55 253.33 71.67 C 263.17 75.79 268.53 58.56 259.00 56.00 Z"/>
</g>
<g fill="None" fill-opacity="0.0" stroke="#000000" stroke-opacity="1.00" stroke-width="0.3"><path d="
M 232.00 88.00 
C 226.67 88.00 221.33 88.00 216.00 88.00
C 216.00 93.33 216.00 98.67 216.00 104.00
C 221.33 104.00 226.67 104.00 232.00 104.00
C 232.00 98.67 232.00 93.33 232.00 88.00 Z"/>
</g>
<g fill="None" fill-opacity="0.0" stroke="#000000" stroke-opacity="1.00" stroke-width="0.3"><path d="
M 296.00 88.00 
C 290.67 88.00 285.33 88.00 280.00 88.00
C 280.00 93.33 280.00 98.67 280.00 104.00
C 285.33 104.00 290.67 104.00 296.00 104.00
C 296.00 98.67 296.00 93.33 296.00 88.00 Z"/>
</g>
<g fill="None" fill-opacity="0.0" stroke="#000000" stroke-opacity="1.00" stroke-width="0.3"><path d="
M 144.00 136.00 
C 138.67 136.00 133.33 136.00 128.00 136.00
C 128.00 141.33 128.00 146.67 128.00 152.00
C 133.33 152.00 138.67 152.00 144.00 152.00
C 144.00 146.67 144.00 141.33 144.00 136.00 Z"/>
</g>
<g fill="None" fill-opacity="0.0" stroke="#000000" stroke-opacity="1.00" stroke-width="0.3"><path d="
M 384.00 136.00 
C 378.67 136.00 373.33 136.00 368.00 136.00
C 368.00 141.33 368.00 146.67 368.00 152.00
C 373.33 152.00 378.67 152.00 384.00 152.00
C 384.00 146.67 384.00 141.33 384.00 136.00 Z"/>
</g>
<g fill="None" fill-opacity="0.0" stroke="#78CB3B" stroke-opacity="1.00" stroke-width="0.3"><path d="
M 75.00 144.00 
C 64.79 141.26 59.49 155.55 69.33 159.67 C 79.17 163.79 84.53 146.56 75.00 144.00 Z"/>
</g>
<g fill="None" fill-opacity="0.0" stroke="#78CB3B" stroke-opacity="1.00" stroke-width="0.3"><path d="
M 443.00 144.00 
C 432.79 141.26 427.49 155.55 437.33 159.67 C 447.17 163.79 452.53 146.56 443.00 144.00 Z"/>
</g>
<g fill="None" fill-opacity="0.0" stroke="#FEB24E" stroke-opacity="1.00" stroke-width="0.3"><path d="
M 333.00 160.00 
C 310.13 155.90 286.23 162.61 263.00 160.00 C 239.77 157.39 216.51 162.86 193.00 160.00 C 169.49 157.14 156.85 174.36 160.00 197.00 C 163.15 219.64 157.14 244.47 160.00 267.00 C 162.86 289.53 154.96 314.19 161.22 335.78 C 167.49 357.36 195.05 352.41 214.00 352.00 C 232.95 351.59 264.60 353.65 284.00 352.00 C 303.40 350.35 332.09 359.48 345.75 343.75 C 359.41 328.02 349.78 299.83 352.00 280.00 C 354.22 260.17 350.76 229.10 352.00 210.00 C 353.24 190.90 355.17 163.97 333.00 160.00
M 296.00 226.00 
C 318.46 232.49 311.35 264.85 312.00 282.00 C 312.65 299.15 316.67 333.88 292.78 335.78 C 268.89 337.67 243.97 337.35 220.00 336.00 C 196.03 334.65 198.94 300.33 200.00 283.00 C 201.06 265.67 192.92 232.54 216.00 226.00
C 211.53 200.73 230.38 175.95 256.00 176.00 C 281.62 176.05 300.35 200.66 296.00 226.00 Z"/>
</g>
<g fill="None" fill-opacity="0.0" stroke="#000000" stroke-opacity="1.00" stroke-width="0.3"><path d="
M 296.00 226.00 
C 300.35 200.66 281.62 176.05 256.00 176.00 C 230.38 175.95 211.53 200.73 216.00 226.00
C 192.92 232.54 201.06 265.67 200.00 283.00 C 198.94 300.33 196.03 334.65 220.00 336.00 C 243.97 337.35 268.89 337.67 292.78 335.78 C 316.67 333.88 312.65 299.15 312.00 282.00 C 311.35 264.85 318.46 232.49 296.00 226.00
M 280.00 224.00 
C 264.00 224.00 248.00 224.00 232.00 224.00
C 228.91 208.33 239.79 192.08 256.00 192.00 C 272.21 191.93 283.10 208.38 280.00 224.00
M 296.00 312.00 
C 294.35 325.27 279.49 318.09 269.00 320.00 C 258.51 321.91 245.83 317.35 234.00 320.00 C 222.17 322.65 213.27 315.07 216.00 303.00 C 218.73 290.93 214.00 278.59 216.00 268.00 C 218.00 257.41 210.48 241.68 224.00 240.00
C 233.97 238.76 250.41 239.21 260.00 240.00 C 269.59 240.79 287.05 235.57 293.75 242.25 C 300.44 248.94 295.21 266.40 296.00 276.00 C 296.79 285.60 297.24 302.03 296.00 312.00 Z"/>
</g>
<g fill="None" fill-opacity="0.0" stroke="#FDB454" stroke-opacity="1.00" stroke-width="0.3"><path d="
M 280.00 224.00 
C 283.10 208.38 272.21 191.93 256.00 192.00 C 239.79 192.08 228.91 208.33 232.00 224.00
C 248.00 224.00 264.00 224.00 280.00 224.00 Z"/>
</g>
<g fill="None" fill-opacity="0.0" stroke="#000000" stroke-opacity="1.00" stroke-width="0.3"><path d="
M 424.00 216.00 
C 418.67 216.00 413.33 216.00 408.00 216.00
C 408.00 221.33 408.00 226.67 408.00 232.00
C 413.33 232.00 418.67 232.00 424.00 232.00
C 424.00 226.67 424.00 221.33 424.00 216.00 Z"/>
</g>
<g fill="None" fill-opacity="0.0" stroke="#78CB3B" stroke-opacity="1.00" stroke-width="0.3"><path d="
M 475.00 216.00 
C 464.79 213.26 459.49 227.55 469.33 231.67 C 479.17 235.79 484.53 218.56 475.00 216.00 Z"/>
</g>
<g fill="None" fill-opacity="0.0" stroke="#005DCC" stroke-opacity="1.00" stroke-width="0.3"><path d="
M 296.00 312.00 
C 285.33 312.00 274.67 312.00 264.00 312.00
C 258.67 312.00 253.33 312.00 248.00 312.00
C 231.51 312.00 222.07 305.40 224.00 288.00 C 225.93 270.60 222.56 257.05 224.00 240.00
C 210.48 241.68 218.00 257.41 216.00 268.00 C 214.00 278.59 218.73 290.93 216.00 303.00 C 213.27 315.07 222.17 322.65 234.00 320.00 C 245.83 317.35 258.51 321.91 269.00 320.00 C 279.49 318.09 294.35 325.27 296.00 312.00 Z"/>
</g>
<g fill="None" fill-opacity="0.0" stroke="#006CEE" stroke-opacity="1.00" stroke-width="0.3"><path d="
M 248.00 312.00 
C 248.00 306.00 248.00 300.00 248.00 294.00
C 222.63 286.23 230.25 247.91 256.00 248.00 C 281.75 248.09 289.12 286.10 264.00 294.00
C 264.00 300.00 264.00 306.00 264.00 312.00
C 274.67 312.00 285.33 312.00 296.00 312.00
C 297.24 302.03 296.79 285.60 296.00 276.00 C 295.21 266.40 300.44 248.94 293.75 242.25 C 287.05 235.57 269.59 240.79 260.00 240.00 C 250.41 239.21 233.97 238.76 224.00 240.00
C 222.56 257.05 225.93 270.60 224.00 288.00 C 222.07 305.40 231.51 312.00 248.00 312.00 Z"/>
</g>
<g fill="None" fill-opacity="0.0" stroke="#000000" stroke-opacity="1.00" stroke-width="0.3"><path d="
M 104.00 248.00 
C 98.67 248.00 93.33 248.00 88.00 248.00
C 88.00 253.33 88.00 258.67 88.00 264.00
C 93.33 264.00 98.67 264.00 104.00 264.00
C 104.00 258.67 104.00 253.33 104.00 248.00 Z"/>
</g>
<g fill="None" fill-opacity="0.0" stroke="#000000" stroke-opacity="1.00" stroke-width="0.3"><path d="
M 248.00 312.00 
C 253.33 312.00 258.67 312.00 264.00 312.00
C 264.00 306.00 264.00 300.00 264.00 294.00
C 289.12 286.10 281.75 248.09 256.00 248.00 C 230.25 247.91 222.63 286.23 248.00 294.00
C 248.00 300.00 248.00 306.00 248.00 312.00
M 259.00 264.00 
C 268.53 266.56 263.17 283.79 253.33 279.67 C 243.49 275.55 248.79 261.26 259.00 264.00 Z"/>
</g>
<g fill="None" fill-opacity="0.0" stroke="#78CB3B" stroke-opacity="1.00" stroke-width="0.3"><path d="
M 43.00 264.00 
C 32.79 261.26 27.49 275.55 37.33 279.67 C 47.17 283.79 52.53 266.56 43.00 264.00 Z"/>
</g>
<g fill="None" fill-opacity="0.0" stroke="#E5E6E6" stroke-opacity="1.00" stroke-width="0.3"><path d="
M 259.00 264.00 
C 248.79 261.26 243.49 275.55 253.33 279.67 C 263.17 283.79 268.53 266.56 259.00 264.00 Z"/>
</g>
<g fill="None" fill-opacity="0.0" stroke="#000000" stroke-opacity="1.00" stroke-width="0.3"><path d="
M 440.00 280.00 
C 434.67 280.00 429.33 280.00 424.00 280.00
C 424.00 285.33 424.00 290.67 424.00 296.00
C 429.33 296.00 434.67 296.00 440.00 296.00
C 440.00 290.67 440.00 285.33 440.00 280.00 Z"/>
</g>
<g fill="None" fill-opacity="0.0" stroke="#78CB3B" stroke-opacity="1.00" stroke-width="0.3"><path d="
M 475.00 344.00 
C 464.79 341.26 459.49 355.55 469.33 359.67 C 479.17 363.79 484.54 346.56 475.00 344.00 Z"/>
</g>
<g fill="None" fill-opacity="0.0" stroke="#000000" stroke-opacity="1.00" stroke-width="0.3"><path d="
M 144.00 360.00 
C 138.67 360.00 133.33 360.00 128.00 360.00
C 128.00 365.33 128.00 370.67 128.00 376.00
C 133.33 376.00 138.67 376.00 144.00 376.00
C 144.00 370.67 144.00 365.33 144.00 360.00 Z"/>
</g>
<g fill="None" fill-opacity="0.0" stroke="#000000" stroke-opacity="1.00" stroke-width="0.3"><path d="
M 384.00 360.00 
C 378.67 360.00 373.33 360.00 368.00 360.00
C 368.00 365.33 368.00 370.67 368.00 376.00
C 373.33 376.00 378.67 376.00 384.00 376.00
C 384.00 370.67 384.00 365.33 384.00 360.00 Z"/>
</g>
<g fill="None" fill-opacity="0.0" stroke="#78CB3B" stroke-opacity="1.00" stroke-width="0.3"><path d="
M 67.00 376.00 
C 56.79 373.26 51.49 387.55 61.33 391.67 C 71.17 395.79 76.53 378.56 67.00 376.00 Z"/>
</g>
<g fill="None" fill-opacity="0.0" stroke="#000000" stroke-opacity="1.00" stroke-width="0.3"><path d="
M 296.00 408.00 
C 290.67 408.00 285.33 408.00 280.00 408.00
C 280.00 413.33 280.00 418.67 280.00 424.00
C 285.33 424.00 290.67 424.00 296.00 424.00
C 296.00 418.67 296.00 413.33 296.00 408.00 Z"/>
</g>
<g fill="None" fill-opacity="0.0" stroke="#78CB3B" stroke-opacity="1.00" stroke-width="0.3"><path d="
M 395.00 416.00 
C 384.79 413.26 379.49 427.55 389.33 431.67 C 399.17 435.79 404.53 418.56 395.00 416.00 Z"/>
</g>
<g fill="None" fill-opacity="0.0" stroke="#000000" stroke-opacity="1.00" stroke-width="0.3"><path d="
M 232.00 432.00 
C 226.67 432.00 221.33 432.00 216.00 432.00
C 216.00 437.33 216.00 442.67 216.00 448.00
C 221.33 448.00 226.67 448.00 232.00 448.00
C 232.00 442.67 232.00 437.33 232.00 432.00 Z"/>
</g>
<g fill="None" fill-opacity="0.0" stroke="#78CB3B" stroke-opacity="1.00" stroke-width="0.3"><path d="
M 147.00 464.00 
C 136.79 461.26 131.49 475.55 141.33 479.67 C 151.17 483.79 156.53 466.56 147.00 464.00 Z"/>
</g>
<g fill="None" fill-opacity="0.0" stroke="#78CB3B" stroke-opacity="1.00" stroke-width="0.3"><path d="
M 323.00 464.00 
C 312.79 461.26 307.49 475.55 317.33 479.67 C 327.17 483.79 332.53 466.56 323.00 464.00 Z"/>
</g>
<g fill="#000000" fill-opacity="0.00" stroke="None">
<path d="
M 0.00 512.00 
L 512.00 512.00
L 512.00 0.00
L 0.00 0.00
L 0.00 512.00
M 165.00 49.00 
C 173.15 57.15 177.09 62.80 186.25 70.75 C 195.41 78.70 202.33 86.31 200.00 100.00 C 197.67 113.69 201.75 130.06 200.00 144.00
C 205.33 144.00 210.67 144.00 216.00 144.00
C 216.00 136.00 216.00 128.00 216.00 120.00
C 221.33 120.00 226.67 120.00 232.00 120.00
C 232.00 128.00 232.00 136.00 232.00 144.00
C 237.33 144.00 242.67 144.00 248.00 144.00
C 248.00 124.67 248.00 105.33 248.00 86.00
C 232.63 81.84 228.20 62.73 236.57 50.23 C 244.94 37.73 265.42 37.40 275.10 48.90 C 284.78 60.40 279.28 81.94 265.00 85.00
C 262.71 104.17 264.64 124.41 264.00 144.00
C 269.33 144.00 274.67 144.00 280.00 144.00
C 280.00 136.00 280.00 128.00 280.00 120.00
C 285.33 120.00 290.67 120.00 296.00 120.00
C 296.00 128.00 296.00 136.00 296.00 144.00
C 301.33 144.00 306.67 144.00 312.00 144.00
C 310.99 132.27 310.40 116.97 319.75 109.75 C 329.11 102.53 332.90 95.39 341.25 88.25 C 349.60 81.11 354.59 73.59 363.00 67.00
C 349.24 42.42 383.94 20.90 401.75 39.25 C 419.55 57.61 396.01 90.46 373.00 77.00
C 368.96 81.97 363.75 86.70 359.25 91.25 C 354.74 95.79 349.70 100.90 345.25 105.25 C 340.79 109.60 335.51 115.31 331.25 119.25 C 326.98 123.18 325.40 140.40 329.11 143.89 C 332.82 147.38 340.52 144.27 344.25 147.19 C 347.99 150.11 351.37 151.61 356.25 156.75 C 361.13 161.89 362.63 163.96 364.39 168.75 C 366.16 173.55 368.29 177.97 368.00 184.00
C 377.69 182.68 393.39 187.18 400.75 180.75 C 408.11 174.32 411.62 168.76 419.00 163.00
C 405.64 138.58 438.97 117.37 457.23 134.77 C 475.50 152.17 452.77 186.27 431.00 173.00
C 422.09 180.85 417.09 186.60 408.25 195.25 C 399.41 203.90 380.17 198.63 368.00 200.00
C 368.00 205.33 368.00 210.67 368.00 216.00
C 376.00 216.00 384.00 216.00 392.00 216.00
C 392.00 221.33 392.00 226.67 392.00 232.00
C 384.00 232.00 376.00 232.00 368.00 232.00
C 368.00 237.33 368.00 242.67 368.00 248.00
C 387.23 249.16 409.87 248.47 419.75 241.61 C 429.63 234.74 437.94 232.54 449.00 227.00
C 444.09 199.49 483.18 190.37 493.19 214.25 C 503.20 238.14 473.97 259.12 455.00 241.00
C 444.50 248.84 434.49 249.45 424.08 257.13 C 413.67 264.81 388.37 265.15 368.00 264.00
C 368.00 269.33 368.00 274.67 368.00 280.00
C 381.33 280.00 394.67 280.00 408.00 280.00
C 408.00 285.33 408.00 290.67 408.00 296.00
C 394.67 296.00 381.33 296.00 368.00 296.00
C 368.00 301.33 368.00 306.67 368.00 312.00
C 385.99 310.34 406.24 314.22 424.00 312.00 C 441.76 309.78 450.72 317.65 461.00 331.00
C 484.06 318.32 507.60 349.98 489.70 368.70 C 471.80 387.43 437.29 365.04 451.00 341.00
C 443.50 336.52 441.93 327.38 432.00 328.00 C 422.07 328.62 410.28 327.68 400.00 328.00 C 389.72 328.32 378.38 327.76 368.00 328.00
C 367.97 350.18 350.24 368.04 328.00 368.00
C 328.00 384.00 328.00 400.00 328.00 416.00
C 342.00 416.00 356.00 416.00 370.00 416.00
C 378.35 391.05 415.87 398.14 415.99 424.01 C 416.12 449.88 378.23 457.22 370.00 432.00
C 350.67 432.00 331.33 432.00 312.00 432.00
C 312.00 410.67 312.00 389.33 312.00 368.00
C 306.67 368.00 301.33 368.00 296.00 368.00
C 296.00 376.00 296.00 384.00 296.00 392.00
C 290.67 392.00 285.33 392.00 280.00 392.00
C 280.00 384.00 280.00 376.00 280.00 368.00
C 274.67 368.00 269.33 368.00 264.00 368.00
C 263.63 383.39 264.49 404.15 264.00 419.00 C 263.51 433.85 274.92 433.04 282.25 439.75 C 289.59 446.45 298.05 446.21 305.00 454.00
C 324.71 435.75 354.62 462.68 341.61 484.75 C 328.59 506.82 289.49 494.73 297.00 466.00
C 279.43 457.89 265.10 446.03 248.00 437.00
C 248.00 414.00 248.00 391.00 248.00 368.00
C 242.67 368.00 237.33 368.00 232.00 368.00
C 232.00 384.00 232.00 400.00 232.00 416.00
C 226.67 416.00 221.33 416.00 216.00 416.00
C 216.00 400.00 216.00 384.00 216.00 368.00
C 210.67 368.00 205.33 368.00 200.00 368.00
C 201.76 381.74 197.65 397.46 200.00 411.00 C 202.35 424.54 196.12 432.91 186.75 440.75 C 177.38 448.59 173.30 454.93 165.00 463.00
C 177.87 484.79 145.20 507.00 127.23 488.77 C 109.26 470.54 130.43 438.30 155.00 451.00
C 162.32 444.02 164.86 438.97 173.25 432.25 C 181.63 425.53 185.83 417.80 184.00 406.00 C 182.17 394.20 185.37 380.02 184.00 368.00
C 175.26 366.65 175.34 368.11 167.75 364.81 C 160.16 361.51 148.12 349.11 146.81 341.75 C 145.50 334.38 146.41 327.70 137.00 328.00 C 127.59 328.30 116.56 327.77 107.00 328.00
C 99.96 341.18 90.88 354.80 81.00 367.00
C 100.41 385.99 76.03 418.01 52.23 405.42 C 28.43 392.84 41.44 355.20 68.00 361.00
C 76.99 343.48 89.73 329.35 99.00 312.00
C 114.00 312.00 129.00 312.00 144.00 312.00
C 144.00 306.67 144.00 301.33 144.00 296.00
C 120.00 296.00 96.00 296.00 72.00 296.00
C 72.00 290.67 72.00 285.33 72.00 280.00
C 96.00 280.00 120.00 280.00 144.00 280.00
C 144.00 274.67 144.00 269.33 144.00 264.00
C 136.00 264.00 128.00 264.00 120.00 264.00
C 120.00 258.67 120.00 253.33 120.00 248.00
C 128.00 248.00 136.00 248.00 144.00 248.00
C 144.00 242.67 144.00 237.33 144.00 232.00
C 132.99 232.48 114.24 231.36 104.00 232.00 C 93.76 232.64 88.71 240.53 82.70 245.71 C 76.68 250.90 67.70 255.56 63.90 260.91 C 60.10 266.25 65.62 277.87 60.43 283.77 C 55.24 289.66 50.89 296.00 41.92 295.93 C 32.95 295.87 25.21 293.38 20.30 286.70 C 15.39 280.01 15.63 274.55 16.80 265.75 C 17.97 256.95 25.67 253.37 32.25 249.80 C 38.82 246.24 49.39 253.34 54.75 248.74 C 60.12 244.13 67.76 237.44 73.75 232.75 C 79.75 228.06 86.85 221.77 92.00 216.00
C 109.33 216.00 126.67 216.00 144.00 216.00
C 144.00 210.67 144.00 205.33 144.00 200.00
C 131.84 198.63 112.61 203.89 103.75 195.25 C 94.89 186.60 89.87 180.80 81.00 173.00
C 58.80 186.33 36.63 151.48 55.25 134.25 C 73.87 117.03 106.14 139.66 93.00 163.00
C 100.41 168.82 103.90 174.32 111.25 180.75 C 118.59 187.19 134.30 182.68 144.00 184.00
C 143.74 162.76 162.53 143.74 184.00 144.00
C 185.33 132.21 182.23 118.61 184.00 107.00 C 185.77 95.39 182.27 86.90 173.75 80.25 C 165.23 73.59 162.41 67.93 155.00 61.00
C 131.70 74.10 109.07 41.92 126.30 23.30 C 143.53 4.67 178.27 26.71 165.00 49.00
M 232.00 88.00 
C 232.00 93.33 232.00 98.67 232.00 104.00
C 226.67 104.00 221.33 104.00 216.00 104.00
C 216.00 98.67 216.00 93.33 216.00 88.00
C 221.33 88.00 226.67 88.00 232.00 88.00
M 296.00 88.00 
C 296.00 93.33 296.00 98.67 296.00 104.00
C 290.67 104.00 285.33 104.00 280.00 104.00
C 280.00 98.67 280.00 93.33 280.00 88.00
C 285.33 88.00 290.67 88.00 296.00 88.00
M 144.00 136.00 
C 144.00 141.33 144.00 146.67 144.00 152.00
C 138.67 152.00 133.33 152.00 128.00 152.00
C 128.00 146.67 128.00 141.33 128.00 136.00
C 133.33 136.00 138.67 136.00 144.00 136.00
M 384.00 136.00 
C 384.00 141.33 384.00 146.67 384.00 152.00
C 378.67 152.00 373.33 152.00 368.00 152.00
C 368.00 146.67 368.00 141.33 368.00 136.00
C 373.33 136.00 378.67 136.00 384.00 136.00
M 424.00 216.00 
C 424.00 221.33 424.00 226.67 424.00 232.00
C 418.67 232.00 413.33 232.00 408.00 232.00
C 408.00 226.67 408.00 221.33 408.00 216.00
C 413.33 216.00 418.67 216.00 424.00 216.00
M 104.00 248.00 
C 104.00 253.33 104.00 258.67 104.00 264.00
C 98.67 264.00 93.33 264.00 88.00 264.00
C 88.00 258.67 88.00 253.33 88.00 248.00
C 93.33 248.00 98.67 248.00 104.00 248.00
M 440.00 280.00 
C 440.00 285.33 440.00 290.67 440.00 296.00
C 434.67 296.00 429.33 296.00 424.00 296.00
C 424.00 290.67 424.00 285.33 424.00 280.00
C 429.33 280.00 434.67 280.00 440.00 280.00
M 144.00 360.00 
C 144.00 365.33 144.00 370.67 144.00 376.00
C 138.67 376.00 133.33 376.00 128.00 376.00
C 128.00 370.67 128.00 365.33 128.00 360.00
C 133.33 360.00 138.67 360.00 144.00 360.00
M 384.00 360.00 
C 384.00 365.33 384.00 370.67 384.00 376.00
C 378.67 376.00 373.33 376.00 368.00 376.00
C 368.00 370.67 368.00 365.33 368.00 360.00
C 373.33 360.00 378.67 360.00 384.00 360.00
M 296.00 408.00 
C 296.00 413.33 296.00 418.67 296.00 424.00
C 290.67 424.00 285.33 424.00 280.00 424.00
C 280.00 418.67 280.00 413.33 280.00 408.00
C 285.33 408.00 290.67 408.00 296.00 408.00
M 232.00 432.00 
C 232.00 437.33 232.00 442.67 232.00 448.00
C 226.67 448.00 221.33 448.00 216.00 448.00
C 216.00 442.67 216.00 437.33 216.00 432.00
C 221.33 432.00 226.67 432.00 232.00 432.00 Z"/>
</g>
<g fill="#000000" fill-opacity="0.99" stroke="None">
<path d="
M 165.00 49.00 
C 178.27 26.71 143.53 4.67 126.30 23.30 C 109.07 41.92 131.70 74.10 155.00 61.00
C 162.41 67.93 165.23 73.59 173.75 80.25 C 182.27 86.90 185.77 95.39 184.00 107.00 C 182.23 118.61 185.33 132.21 184.00 144.00
C 162.53 143.74 143.74 162.76 144.00 184.00
C 134.30 182.68 118.59 187.19 111.25 180.75 C 103.90 174.32 100.41 168.82 93.00 163.00
C 106.14 139.66 73.87 117.03 55.25 134.25 C 36.63 151.48 58.80 186.33 81.00 173.00
C 89.87 180.80 94.89 186.60 103.75 195.25 C 112.61 203.89 131.84 198.63 144.00 200.00
C 144.00 205.33 144.00 210.67 144.00 216.00
C 126.67 216.00 109.33 216.00 92.00 216.00
C 86.85 221.77 79.75 228.06 73.75 232.75 C 67.76 237.44 60.12 244.13 54.75 248.74 C 49.39 253.34 38.82 246.24 32.25 249.80 C 25.67 253.37 17.97 256.95 16.80 265.75 C 15.63 274.55 15.39 280.01 20.30 286.70 C 25.21 293.38 32.95 295.87 41.92 295.93 C 50.89 296.00 55.24 289.66 60.43 283.77 C 65.62 277.87 60.10 266.25 63.90 260.91 C 67.70 255.56 76.68 250.90 82.70 245.71 C 88.71 240.53 93.76 232.64 104.00 232.00 C 114.24 231.36 132.99 232.48 144.00 232.00
C 144.00 237.33 144.00 242.67 144.00 248.00
C 136.00 248.00 128.00 248.00 120.00 248.00
C 120.00 253.33 120.00 258.67 120.00 264.00
C 128.00 264.00 136.00 264.00 144.00 264.00
C 144.00 269.33 144.00 274.67 144.00 280.00
C 120.00 280.00 96.00 280.00 72.00 280.00
C 72.00 285.33 72.00 290.67 72.00 296.00
C 96.00 296.00 120.00 296.00 144.00 296.00
C 144.00 301.33 144.00 306.67 144.00 312.00
C 129.00 312.00 114.00 312.00 99.00 312.00
C 89.73 329.35 76.99 343.48 68.00 361.00
C 41.44 355.20 28.43 392.84 52.23 405.42 C 76.03 418.01 100.41 385.99 81.00 367.00
C 90.88 354.80 99.96 341.18 107.00 328.00
C 116.56 327.77 127.59 328.30 137.00 328.00 C 146.41 327.70 145.50 334.38 146.81 341.75 C 148.12 349.11 160.16 361.51 167.75 364.81 C 175.34 368.11 175.26 366.65 184.00 368.00
C 185.37 380.02 182.17 394.20 184.00 406.00 C 185.83 417.80 181.63 425.53 173.25 432.25 C 164.86 438.97 162.32 444.02 155.00 451.00
C 130.43 438.30 109.26 470.54 127.23 488.77 C 145.20 507.00 177.87 484.79 165.00 463.00
C 173.30 454.93 177.38 448.59 186.75 440.75 C 196.12 432.91 202.35 424.54 200.00 411.00 C 197.65 397.46 201.76 381.74 200.00 368.00
C 205.33 368.00 210.67 368.00 216.00 368.00
C 216.00 384.00 216.00 400.00 216.00 416.00
C 221.33 416.00 226.67 416.00 232.00 416.00
C 232.00 400.00 232.00 384.00 232.00 368.00
C 237.33 368.00 242.67 368.00 248.00 368.00
C 248.00 391.00 248.00 414.00 248.00 437.00
C 265.10 446.03 279.43 457.89 297.00 466.00
C 289.49 494.73 328.59 506.82 341.61 484.75 C 354.62 462.68 324.71 435.75 305.00 454.00
C 298.05 446.21 289.59 446.45 282.25 439.75 C 274.92 433.04 263.51 433.85 264.00 419.00 C 264.49 404.15 263.63 383.39 264.00 368.00
C 269.33 368.00 274.67 368.00 280.00 368.00
C 280.00 376.00 280.00 384.00 280.00 392.00
C 285.33 392.00 290.67 392.00 296.00 392.00
C 296.00 384.00 296.00 376.00 296.00 368.00
C 301.33 368.00 306.67 368.00 312.00 368.00
C 312.00 389.33 312.00 410.67 312.00 432.00
C 331.33 432.00 350.67 432.00 370.00 432.00
C 378.23 457.22 416.12 449.88 415.99 424.01 C 415.87 398.14 378.35 391.05 370.00 416.00
C 356.00 416.00 342.00 416.00 328.00 416.00
C 328.00 400.00 328.00 384.00 328.00 368.00
C 350.24 368.04 367.97 350.18 368.00 328.00
C 378.38 327.76 389.72 328.32 400.00 328.00 C 410.28 327.68 422.07 328.62 432.00 328.00 C 441.93 327.38 443.50 336.52 451.00 341.00
C 437.29 365.04 471.80 387.43 489.70 368.70 C 507.60 349.98 484.06 318.32 461.00 331.00
C 450.72 317.65 441.76 309.78 424.00 312.00 C 406.24 314.22 385.99 310.34 368.00 312.00
C 368.00 306.67 368.00 301.33 368.00 296.00
C 381.33 296.00 394.67 296.00 408.00 296.00
C 408.00 290.67 408.00 285.33 408.00 280.00
C 394.67 280.00 381.33 280.00 368.00 280.00
C 368.00 274.67 368.00 269.33 368.00 264.00
C 388.37 265.15 413.67 264.81 424.08 257.13 C 434.49 249.45 444.50 248.84 455.00 241.00
C 473.97 259.12 503.20 238.14 493.19 214.25 C 483.18 190.37 444.09 199.49 449.00 227.00
C 437.94 232.54 429.63 234.74 419.75 241.61 C 409.87 248.47 387.23 249.16 368.00 248.00
C 368.00 242.67 368.00 237.33 368.00 232.00
C 376.00 232.00 384.00 232.00 392.00 232.00
C 392.00 226.67 392.00 221.33 392.00 216.00
C 384.00 216.00 376.00 216.00 368.00 216.00
C 368.00 210.67 368.00 205.33 368.00 200.00
C 380.17 198.63 399.41 203.90 408.25 195.25 C 417.09 186.60 422.09 180.85 431.00 173.00
C 452.77 186.27 475.50 152.17 457.23 134.77 C 438.97 117.37 405.64 138.58 419.00 163.00
C 411.62 168.76 408.11 174.32 400.75 180.75 C 393.39 187.18 377.69 182.68 368.00 184.00
C 368.29 177.97 366.16 173.55 364.39 168.75 C 362.63 163.96 361.13 161.89 356.25 156.75 C 351.37 151.61 347.99 150.11 344.25 147.19 C 340.52 144.27 332.82 147.38 329.11 143.89 C 325.40 140.40 326.98 123.18 331.25 119.25 C 335.51 115.31 340.79 109.60 345.25 105.25 C 349.70 100.90 354.74 95.79 359.25 91.25 C 363.75 86.70 368.96 81.97 373.00 77.00
C 396.01 90.46 419.55 57.61 401.75 39.25 C 383.94 20.90 349.24 42.42 363.00 67.00
C 354.59 73.59 349.60 81.11 341.25 88.25 C 332.90 95.39 329.11 102.53 319.75 109.75 C 310.40 116.97 310.99 132.27 312.00 144.00
C 306.67 144.00 301.33 144.00 296.00 144.00
C 296.00 136.00 296.00 128.00 296.00 120.00
C 290.67 120.00 285.33 120.00 280.00 120.00
C 280.00 128.00 280.00 136.00 280.00 144.00
C 274.67 144.00 269.33 144.00 264.00 144.00
C 264.64 124.41 262.71 104.17 265.00 85.00
C 279.28 81.94 284.78 60.40 275.10 48.90 C 265.42 37.40 244.94 37.73 236.57 50.23 C 228.20 62.73 232.63 81.84 248.00 86.00
C 248.00 105.33 248.00 124.67 248.00 144.00
C 242.67 144.00 237.33 144.00 232.00 144.00
C 232.00 136.00 232.00 128.00 232.00 120.00
C 226.67 120.00 221.33 120.00 216.00 120.00
C 216.00 128.00 216.00 136.00 216.00 144.00
C 210.67 144.00 205.33 144.00 200.00 144.00
C 201.75 130.06 197.67 113.69 200.00 100.00 C 202.33 86.31 195.41 78.70 186.25 70.75 C 177.09 62.80 173.15 57.15 165.00 49.00
M 147.00 32.00 
C 156.53 34.56 151.17 51.79 141.33 47.67 C 131.49 43.55 136.79 29.26 147.00 32.00
M 387.00 48.00 
C 396.53 50.56 391.17 67.79 381.33 63.67 C 371.49 59.55 376.79 45.26 387.00 48.00
M 259.00 56.00 
C 268.53 58.56 263.17 75.79 253.33 71.67 C 243.49 67.55 248.79 53.26 259.00 56.00
M 75.00 144.00 
C 84.53 146.56 79.17 163.79 69.33 159.67 C 59.49 155.55 64.79 141.26 75.00 144.00
M 443.00 144.00 
C 452.53 146.56 447.17 163.79 437.33 159.67 C 427.49 155.55 432.79 141.26 443.00 144.00
M 333.00 160.00 
C 355.17 163.97 353.24 190.90 352.00 210.00 C 350.76 229.10 354.22 260.17 352.00 280.00 C 349.78 299.83 359.41 328.02 345.75 343.75 C 332.09 359.48 303.40 350.35 284.00 352.00 C 264.60 353.65 232.95 351.59 214.00 352.00 C 195.05 352.41 167.49 357.36 161.22 335.78 C 154.96 314.19 162.86 289.53 160.00 267.00 C 157.14 244.47 163.15 219.64 160.00 197.00 C 156.85 174.36 169.49 157.14 193.00 160.00 C 216.51 162.86 239.77 157.39 263.00 160.00 C 286.23 162.61 310.13 155.90 333.00 160.00
M 475.00 216.00 
C 484.53 218.56 479.17 235.79 469.33 231.67 C 459.49 227.55 464.79 213.26 475.00 216.00
M 43.00 264.00 
C 52.53 266.56 47.17 283.79 37.33 279.67 C 27.49 275.55 32.79 261.26 43.00 264.00
M 475.00 344.00 
C 484.54 346.56 479.17 363.79 469.33 359.67 C 459.49 355.55 464.79 341.26 475.00 344.00
M 67.00 376.00 
C 76.53 378.56 71.17 395.79 61.33 391.67 C 51.49 387.55 56.79 373.26 67.00 376.00
M 395.00 416.00 
C 404.53 418.56 399.17 435.79 389.33 431.67 C 379.49 427.55 384.79 413.26 395.00 416.00
M 147.00 464.00 
C 156.53 466.56 151.17 483.79 141.33 479.67 C 131.49 475.55 136.79 461.26 147.00 464.00
M 323.00 464.00 
C 332.53 466.56 327.17 483.79 317.33 479.67 C 307.49 475.55 312.79 461.26 323.00 464.00 Z"/>
</g>
<g fill="#78CB3B" fill-opacity="1.00" stroke="None">
<path d="
M 147.00 32.00 
C 136.79 29.26 131.49 43.55 141.33 47.67 C 151.17 51.79 156.53 34.56 147.00 32.00 Z"/>
</g>
<g fill="#78CB3B" fill-opacity="1.00" stroke="None">
<path d="
M 387.00 48.00 
C 376.79 45.26 371.49 59.55 381.33 63.67 C 391.17 67.79 396.53 50.56 387.00 48.00 Z"/>
</g>
<g fill="#78CB3B" fill-opacity="1.00" stroke="None">
<path d="
M 259.00 56.00 
C 248.79 53.26 243.49 67.55 253.33 71.67 C 263.17 75.79 268.53 58.56 259.00 56.00 Z"/>
</g>
<g fill="#000000" fill-opacity="1.00" stroke="None">
<path d="
M 232.00 88.00 
C 226.67 88.00 221.33 88.00 216.00 88.00
C 216.00 93.33 216.00 98.67 216.00 104.00
C 221.33 104.00 226.67 104.00 232.00 104.00
C 232.00 98.67 232.00 93.33 232.00 88.00 Z"/>
</g>
<g fill="#000000" fill-opacity="1.00" stroke="None">
<path d="
M 296.00 88.00 
C 290.67 88.00 285.33 88.00 280.00 88.00
C 280.00 93.33 280.00 98.67 280.00 104.00
C 285.33 104.00 290.67 104.00 296.00 104.00
C 296.00 98.67 296.00 93.33 296.00 88.00 Z"/>
</g>
<g fill="#000000" fill-opacity="1.00" stroke="None">
<path d="
M 144.00 136.00 
C 138.67 136.00 133.33 136.00 128.00 136.00
C 128.00 141.33 128.00 146.67 128.00 152.00
C 133.33 152.00 138.67 152.00 144.00 152.00
C 144.00 146.67 144.00 141.33 144.00 136.00 Z"/>
</g>
<g fill="#000000" fill-opacity="1.00" stroke="None">
<path d="
M 384.00 136.00 
C 378.67 136.00 373.33 136.00 368.00 136.00
C 368.00 141.33 368.00 146.67 368.00 152.00
C 373.33 152.00 378.67 152.00 384.00 152.00
C 384.00 146.67 384.00 141.33 384.00 136.00 Z"/>
</g>
<g fill="#78CB3B" fill-opacity="1.00" stroke="None">
<path d="
M 75.00 144.00 
C 64.79 141.26 59.49 155.55 69.33 159.67 C 79.17 163.79 84.53 146.56 75.00 144.00 Z"/>
</g>
<g fill="#78CB3B" fill-opacity="1.00" stroke="None">
<path d="
M 443.00 144.00 
C 432.79 141.26 427.49 155.55 437.33 159.67 C 447.17 163.79 452.53 146.56 443.00 144.00 Z"/>
</g>
<g fill="#FEB24E" fill-opacity="1.00" stroke="None">
<path d="
M 333.00 160.00 
C 310.13 155.90 286.23 162.61 263.00 160.00 C 239.77 157.39 216.51 162.86 193.00 160.00 C 169.49 157.14 156.85 174.36 160.00 197.00 C 163.15 219.64 157.14 244.47 160.00 267.00 C 162.86 289.53 154.96 314.19 161.22 335.78 C 167.49 357.36 195.05 352.41 214.00 352.00 C 232.95 351.59 264.60 353.65 284.00 352.00 C 303.40 350.35 332.09 359.48 345.75 343.75 C 359.41 328.02 349.78 299.83 352.00 280.00 C 354.22 260.17 350.76 229.10 352.00 210.00 C 353.24 190.90 355.17 163.97 333.00 160.00
M 296.00 226.00 
C 318.46 232.49 311.35 264.85 312.00 282.00 C 312.65 299.15 316.67 333.88 292.78 335.78 C 268.89 337.67 243.97 337.35 220.00 336.00 C 196.03 334.65 198.94 300.33 200.00 283.00 C 201.06 265.67 192.92 232.54 216.00 226.00
C 211.53 200.73 230.38 175.95 256.00 176.00 C 281.62 176.05 300.35 200.66 296.00 226.00 Z"/>
</g>
<g fill="#000000" fill-opacity="1.00" stroke="None">
<path d="
M 296.00 226.00 
C 300.35 200.66 281.62 176.05 256.00 176.00 C 230.38 175.95 211.53 200.73 216.00 226.00
C 192.92 232.54 201.06 265.67 200.00 283.00 C 198.94 300.33 196.03 334.65 220.00 336.00 C 243.97 337.35 268.89 337.67 292.78 335.78 C 316.67 333.88 312.65 299.15 312.00 282.00 C 311.35 264.85 318.46 232.49 296.00 226.00
M 280.00 224.00 
C 264.00 224.00 248.00 224.00 232.00 224.00
C 228.91 208.33 239.79 192.08 256.00 192.00 C 272.21 191.93 283.10 208.38 280.00 224.00
M 296.00 312.00 
C 294.35 325.27 279.49 318.09 269.00 320.00 C 258.51 321.91 245.83 317.35 234.00 320.00 C 222.17 322.65 213.27 315.07 216.00 303.00 C 218.73 290.93 214.00 278.59 216.00 268.00 C 218.00 257.41 210.48 241.68 224.00 240.00
C 233.97 238.76 250.41 239.21 260.00 240.00 C 269.59 240.79 287.05 235.57 293.75 242.25 C 300.44 248.94 295.21 266.40 296.00 276.00 C 296.79 285.60 297.24 302.03 296.00 312.00 Z"/>
</g>
<g fill="#FDB454" fill-opacity="1.00" stroke="None">
<path d="
M 280.00 224.00 
C 283.10 208.38 272.21 191.93 256.00 192.00 C 239.79 192.08 228.91 208.33 232.00 224.00
C 248.00 224.00 264.00 224.00 280.00 224.00 Z"/>
</g>
<g fill="#000000" fill-opacity="1.00" stroke="None">
<path d="
M 424.00 216.00 
C 418.67 216.00 413.33 216.00 408.00 216.00
C 408.00 221.33 408.00 226.67 408.00 232.00
C 413.33 232.00 418.67 232.00 424.00 232.00
C 424.00 226.67 424.00 221.33 424.00 216.00 Z"/>
</g>
<g fill="#78CB3B" fill-opacity="1.00" stroke="None">
<path d="
M 475.00 216.00 
C 464.79 213.26 459.49 227.55 469.33 231.67 C 479.17 235.79 484.53 218.56 475.00 216.00 Z"/>
</g>
<g fill="#005DCC" fill-opacity="1.00" stroke="None">
<path d="
M 296.00 312.00 
C 285.33 312.00 274.67 312.00 264.00 312.00
C 258.67 312.00 253.33 312.00 248.00 312.00
C 231.51 312.00 222.07 305.40 224.00 288.00 C 225.93 270.60 222.56 257.05 224.00 240.00
C 210.48 241.68 218.00 257.41 216.00 268.00 C 214.00 278.59 218.73 290.93 216.00 303.00 C 213.27 315.07 222.17 322.65 234.00 320.00 C 245.83 317.35 258.51 321.91 269.00 320.00 C 279.49 318.09 294.35 325.27 296.00 312.00 Z"/>
</g>
<g fill="#006CEE" fill-opacity="1.00" stroke="None">
<path d="
M 248.00 312.00 
C 248.00 306.00 248.00 300.00 248.00 294.00
C 222.63 286.23 230.25 247.91 256.00 248.00 C 281.75 248.09 289.12 286.10 264.00 294.00
C 264.00 300.00 264.00 306.00 264.00 312.00
C 274.67 312.00 285.33 312.00 296.00 312.00
C 297.24 302.03 296.79 285.60 296.00 276.00 C 295.21 266.40 300.44 248.94 293.75 242.25 C 287.05 235.57 269.59 240.79 260.00 240.00 C 250.41 239.21 233.97 238.76 224.00 240.00
C 222.56 257.05 225.93 270.60 224.00 288.00 C 222.07 305.40 231.51 312.00 248.00 312.00 Z"/>
</g>
<g fill="#000000" fill-opacity="1.00" stroke="None">
<path d="
M 104.00 248.00 
C 98.67 248.00 93.33 248.00 88.00 248.00
C 88.00 253.33 88.00 258.67 88.00 264.00
C 93.33 264.00 98.67 264.00 104.00 264.00
C 104.00 258.67 104.00 253.33 104.00 248.00 Z"/>
</g>
<g fill="#000000" fill-opacity="1.00" stroke="None">
<path d="
M 248.00 312.00 
C 253.33 312.00 258.67 312.00 264.00 312.00
C 264.00 306.00 264.00 300.00 264.00 294.00
C 289.12 286.10 281.75 248.09 256.00 248.00 C 230.25 247.91 222.63 286.23 248.00 294.00
C 248.00 300.00 248.00 306.00 248.00 312.00
M 259.00 264.00 
C 268.53 266.56 263.17 283.79 253.33 279.67 C 243.49 275.55 248.79 261.26 259.00 264.00 Z"/>
</g>
<g fill="#78CB3B" fill-opacity="1.00" stroke="None">
<path d="
M 43.00 264.00 
C 32.79 261.26 27.49 275.55 37.33 279.67 C 47.17 283.79 52.53 266.56 43.00 264.00 Z"/>
</g>
<g fill="#E5E6E6" fill-opacity="1.00" stroke="None">
<path d="
M 259.00 264.00 
C 248.79 261.26 243.49 275.55 253.33 279.67 C 263.17 283.79 268.53 266.56 259.00 264.00 Z"/>
</g>
<g fill="#000000" fill-opacity="1.00" stroke="None">
<path d="
M 440.00 280.00 
C 434.67 280.00 429.33 280.00 424.00 280.00
C 424.00 285.33 424.00 290.67 424.00 296.00
C 429.33 296.00 434.67 296.00 440.00 296.00
C 440.00 290.67 440.00 285.33 440.00 280.00 Z"/>
</g>
<g fill="#78CB3B" fill-opacity="1.00" stroke="None">
<path d="
M 475.00 344.00 
C 464.79 341.26 459.49 355.55 469.33 359.67 C 479.17 363.79 484.54 346.56 475.00 344.00 Z"/>
</g>
<g fill="#000000" fill-opacity="1.00" stroke="None">
<path d="
M 144.00 360.00 
C 138.67 360.00 133.33 360.00 128.00 360.00
C 128.00 365.33 128.00 370.67 128.00 376.00
C 133.33 376.00 138.67 376.00 144.00 376.00
C 144.00 370.67 144.00 365.33 144.00 360.00 Z"/>
</g>
<g fill="#000000" fill-opacity="1.00" stroke="None">
<path d="
M 384.00 360.00 
C 378.67 360.00 373.33 360.00 368.00 360.00
C 368.00 365.33 368.00 370.67 368.00 376.00
C 373.33 376.00 378.67 376.00 384.00 376.00
C 384.00 370.67 384.00 365.33 384.00 360.00 Z"/>
</g>
<g fill="#78CB3B" fill-opacity="1.00" stroke="None">
<path d="
M 67.00 376.00 
C 56.79 373.26 51.49 387.55 61.33 391.67 C 71.17 395.79 76.53 378.56 67.00 376.00 Z"/>
</g>
<g fill="#000000" fill-opacity="1.00" stroke="None">
<path d="
M 296.00 408.00 
C 290.67 408.00 285.33 408.00 280.00 408.00
C 280.00 413.33 280.00 418.67 280.00 424.00
C 285.33 424.00 290.67 424.00 296.00 424.00
C 296.00 418.67 296.00 413.33 296.00 408.00 Z"/>
</g>
<g fill="#78CB3B" fill-opacity="1.00" stroke="None">
<path d="
M 395.00 416.00 
C 384.79 413.26 379.49 427.55 389.33 431.67 C 399.17 435.79 404.53 418.56 395.00 416.00 Z"/>
</g>
<g fill="#000000" fill-opacity="1.00" stroke="None">
<path d="
M 232.00 432.00 
C 226.67 432.00 221.33 432.00 216.00 432.00
C 216.00 437.33 216.00 442.67 216.00 448.00
C 221.33 448.00 226.67 448.00 232.00 448.00
C 232.00 442.67 232.00 437.33 232.00 432.00 Z"/>
</g>
<g fill="#78CB3B" fill-opacity="1.00" stroke="None">
<path d="
M 147.00 464.00 
C 136.79 461.26 131.49 475.55 141.33 479.67 C 151.17 483.79 156.53 466.56 147.00 464.00 Z"/>
</g>
<g fill="#78CB3B" fill-opacity="1.00" stroke="None">
<path d="
M 323.00 464.00 
C 312.79 461.26 307.49 475.55 317.33 479.67 C 327.17 483.79 332.53 466.56 323.00 464.00 Z"/>
</g>
</svg>