<svg xmlns="http://www.w3.org/2000/svg" xmlns:v="https://svgstorm.com"
viewBox = "0 0 512 512"
width="512"
height="512">
<g fill="None" fill-opacity="0.0" stroke="#000000" stroke-opacity="0.00" stroke-width="0.3"><path d="
M 0.00 512.00 
L 512.00 512.00
L 512.00 0.00
L 0.00 0.00
L 0.00 512.00
M 456.00 120.00 
C 456.00 125.33 456.00 130.67 456.00 136.00
C 461.33 136.00 466.67 136.00 472.00 136.00
C 472.00 141.33 472.00 146.67 472.00 152.00
C 440.00 152.00 408.00 152.00 376.00 152.00
C 376.00 146.67 376.00 141.33 376.00 136.00
C 381.33 136.00 386.67 136.00 392.00 136.00
C 392.00 130.67 392.00 125.33 392.00 120.00
C 375.13 120.42 352.48 122.42 346.30 107.70 C 340.12 92.97 345.57 66.24 344.00 48.00 C 342.43 29.76 344.08 13.62 360.25 9.81 C 376.42 5.99 404.55 7.87 424.00 8.00 C 443.45 8.13 471.61 5.75 487.77 9.57 C 503.92 13.40 505.57 29.71 504.00 48.00 C 502.43 66.29 507.75 93.02 501.61 107.75 C 495.46 122.49 472.99 120.32 456.00 120.00
M 328.00 56.00 
C 328.00 61.33 328.00 66.67 328.00 72.00
C 318.74 71.66 308.48 72.48 300.00 72.00
C 292.29 85.72 297.03 107.13 296.00 125.00 C 294.97 142.87 296.83 167.49 296.00 185.00 C 295.17 202.51 299.14 216.62 288.25 226.25 C 277.35 235.87 262.04 230.97 244.00 232.00 C 225.96 233.03 202.53 231.22 184.00 232.00
C 184.00 237.33 184.00 242.67 184.00 248.00
C 221.33 248.00 258.67 248.00 296.00 248.00
C 296.00 253.33 296.00 258.67 296.00 264.00
C 258.67 264.00 221.33 264.00 184.00 264.00
C 184.00 269.33 184.00 274.67 184.00 280.00
C 209.82 280.54 245.13 279.28 270.00 280.00 C 294.87 280.72 296.25 295.21 296.00 320.00 C 295.75 344.79 296.21 379.13 296.00 404.00
C 303.12 411.22 317.23 406.79 328.00 408.00
C 328.00 413.33 328.00 418.67 328.00 424.00
C 301.34 425.58 278.55 424.20 280.00 395.00 C 281.45 365.80 278.90 329.06 280.00 300.00
C 268.37 292.49 250.88 296.91 235.00 296.00 C 219.12 295.09 200.16 296.68 184.00 296.00
C 185.66 314.71 168.92 321.11 160.30 333.30 C 151.67 345.49 143.49 351.90 133.70 364.70 C 123.91 377.51 128.82 402.55 128.00 422.00 C 127.18 441.45 128.61 467.91 128.00 488.00
C 106.67 488.00 85.33 488.00 64.00 488.00
C 64.89 471.56 62.81 454.36 64.00 438.00 C 65.19 421.64 61.72 404.09 64.00 388.00 C 66.28 371.91 58.68 363.40 49.90 355.10 C 41.12 346.80 37.93 339.25 29.70 331.30 C 21.48 323.34 17.04 315.09 8.00 308.00
C 8.00 261.34 8.00 214.66 8.00 168.00
C 13.33 168.00 18.67 168.00 24.00 168.00
C 24.00 136.00 24.00 104.00 24.00 72.00
C 72.00 72.00 120.00 72.00 168.00 72.00
C 168.00 104.00 168.00 136.00 168.00 168.00
C 173.33 168.00 178.67 168.00 184.00 168.00
C 184.00 184.00 184.00 200.00 184.00 216.00
C 214.54 216.03 246.16 215.95 276.00 216.00
C 283.65 202.39 279.10 181.87 280.00 164.00 C 280.90 146.13 279.43 122.78 280.00 105.00 C 280.57 87.22 277.37 74.03 286.75 63.75 C 296.12 53.47 311.28 56.15 328.00 56.00
M 456.00 296.00 
C 456.00 301.33 456.00 306.67 456.00 312.00
C 461.33 312.00 466.67 312.00 472.00 312.00
C 472.00 317.33 472.00 322.67 472.00 328.00
C 440.00 328.00 408.00 328.00 376.00 328.00
C 376.00 322.67 376.00 317.33 376.00 312.00
C 381.33 312.00 386.67 312.00 392.00 312.00
C 392.00 306.67 392.00 301.33 392.00 296.00
C 375.13 296.42 352.48 298.42 346.30 283.70 C 340.12 268.97 345.57 242.24 344.00 224.00 C 342.43 205.76 344.08 189.62 360.25 185.81 C 376.42 181.99 404.55 183.87 424.00 184.00 C 443.45 184.13 471.61 181.75 487.77 185.57 C 503.92 189.40 505.57 205.71 504.00 224.00 C 502.43 242.29 507.75 269.02 501.61 283.75 C 495.46 298.49 472.99 296.32 456.00 296.00
M 328.00 248.00 
C 328.00 253.33 328.00 258.67 328.00 264.00
C 322.67 264.00 317.33 264.00 312.00 264.00
C 312.00 258.67 312.00 253.33 312.00 248.00
C 317.33 248.00 322.67 248.00 328.00 248.00
M 456.00 472.00 
C 456.00 477.33 456.00 482.67 456.00 488.00
C 461.33 488.00 466.67 488.00 472.00 488.00
C 472.00 493.33 472.00 498.67 472.00 504.00
C 440.00 504.00 408.00 504.00 376.00 504.00
C 376.00 498.67 376.00 493.33 376.00 488.00
C 381.33 488.00 386.67 488.00 392.00 488.00
C 392.00 482.67 392.00 477.33 392.00 472.00
C 375.13 472.42 352.48 474.42 346.30 459.70 C 340.12 444.97 345.57 418.24 344.00 400.00 C 342.43 381.76 344.08 365.62 360.25 361.81 C 376.42 357.99 404.55 359.87 424.00 360.00 C 443.45 360.13 471.61 357.75 487.77 361.57 C 503.92 365.40 505.57 381.71 504.00 400.00 C 502.43 418.29 507.75 445.02 501.61 459.75 C 495.46 474.49 472.99 472.32 456.00 472.00 Z"/>
</g>
<g fill="None" fill-opacity="0.0" stroke="#000000" stroke-opacity="1.00" stroke-width="0.3"><path d="
M 456.00 120.00 
C 472.99 120.32 495.46 122.49 501.61 107.75 C 507.75 93.02 502.43 66.29 504.00 48.00 C 505.57 29.71 503.92 13.40 487.77 9.57 C 471.61 5.75 443.45 8.13 424.00 8.00 C 404.55 7.87 376.42 5.99 360.25 9.81 C 344.08 13.62 342.43 29.76 344.00 48.00 C 345.57 66.24 340.12 92.97 346.30 107.70 C 352.48 122.42 375.13 120.42 392.00 120.00
C 392.00 125.33 392.00 130.67 392.00 136.00
C 386.67 136.00 381.33 136.00 376.00 136.00
C 376.00 141.33 376.00 146.67 376.00 152.00
C 408.00 152.00 440.00 152.00 472.00 152.00
C 472.00 146.67 472.00 141.33 472.00 136.00
C 466.67 136.00 461.33 136.00 456.00 136.00
C 456.00 130.67 456.00 125.33 456.00 120.00
M 488.00 72.00 
C 445.33 72.00 402.67 72.00 360.00 72.00
C 359.55 58.45 360.60 48.96 360.00 35.00 C 359.40 21.04 374.80 23.78 386.00 24.00 C 397.20 24.22 412.57 23.85 424.00 24.00 C 435.43 24.15 450.08 23.81 461.00 24.00 C 471.92 24.19 487.90 20.28 488.00 34.00 C 488.09 47.72 487.93 58.55 488.00 72.00
M 488.00 88.00 
C 492.08 110.41 466.16 103.76 451.00 104.00 C 435.84 104.24 413.18 104.43 398.00 104.00 C 382.82 103.57 355.89 110.79 360.00 88.00
C 402.67 88.00 445.33 88.00 488.00 88.00
M 440.00 120.00 
C 440.00 125.33 440.00 130.67 440.00 136.00
C 429.33 136.00 418.67 136.00 408.00 136.00
C 408.00 130.67 408.00 125.33 408.00 120.00
C 418.67 120.00 429.33 120.00 440.00 120.00 Z"/>
</g>
<g fill="None" fill-opacity="0.0" stroke="#68D5F3" stroke-opacity="1.00" stroke-width="0.3"><path d="
M 488.00 72.00 
C 487.93 58.55 488.09 47.72 488.00 34.00 C 487.90 20.28 471.92 24.19 461.00 24.00 C 450.08 23.81 435.43 24.15 424.00 24.00 C 412.57 23.85 397.20 24.22 386.00 24.00 C 374.80 23.78 359.40 21.04 360.00 35.00 C 360.60 48.96 359.55 58.45 360.00 72.00
C 402.67 72.00 445.33 72.00 488.00 72.00 Z"/>
</g>
<g fill="None" fill-opacity="0.0" stroke="#000000" stroke-opacity="1.00" stroke-width="0.3"><path d="
M 328.00 56.00 
C 311.28 56.15 296.12 53.47 286.75 63.75 C 277.37 74.03 280.57 87.22 280.00 105.00 C 279.43 122.78 280.90 146.13 280.00 164.00 C 279.10 181.87 283.65 202.39 276.00 216.00
C 246.16 215.95 214.54 216.03 184.00 216.00
C 184.00 200.00 184.00 184.00 184.00 168.00
C 178.67 168.00 173.33 168.00 168.00 168.00
C 168.00 136.00 168.00 104.00 168.00 72.00
C 120.00 72.00 72.00 72.00 24.00 72.00
C 24.00 104.00 24.00 136.00 24.00 168.00
C 18.67 168.00 13.33 168.00 8.00 168.00
C 8.00 214.66 8.00 261.34 8.00 308.00
C 17.04 315.09 21.48 323.34 29.70 331.30 C 37.93 339.25 41.12 346.80 49.90 355.10 C 58.68 363.40 66.28 371.91 64.00 388.00 C 61.72 404.09 65.19 421.64 64.00 438.00 C 62.81 454.36 64.89 471.56 64.00 488.00
C 85.33 488.00 106.67 488.00 128.00 488.00
C 128.61 467.91 127.18 441.45 128.00 422.00 C 128.82 402.55 123.91 377.51 133.70 364.70 C 143.49 351.90 151.67 345.49 160.30 333.30 C 168.92 321.11 185.66 314.71 184.00 296.00
C 200.16 296.68 219.12 295.09 235.00 296.00 C 250.88 296.91 268.37 292.49 280.00 300.00
C 278.90 329.06 281.45 365.80 280.00 395.00 C 278.55 424.20 301.34 425.58 328.00 424.00
C 328.00 418.67 328.00 413.33 328.00 408.00
C 317.23 406.79 303.12 411.22 296.00 404.00
C 296.21 379.13 295.75 344.79 296.00 320.00 C 296.25 295.21 294.87 280.72 270.00 280.00 C 245.13 279.28 209.82 280.54 184.00 280.00
C 184.00 274.67 184.00 269.33 184.00 264.00
C 221.33 264.00 258.67 264.00 296.00 264.00
C 296.00 258.67 296.00 253.33 296.00 248.00
C 258.67 248.00 221.33 248.00 184.00 248.00
C 184.00 242.67 184.00 237.33 184.00 232.00
C 202.53 231.22 225.96 233.03 244.00 232.00 C 262.04 230.97 277.35 235.87 288.25 226.25 C 299.14 216.62 295.17 202.51 296.00 185.00 C 296.83 167.49 294.97 142.87 296.00 125.00 C 297.03 107.13 292.29 85.72 300.00 72.00
C 308.48 72.48 318.74 71.66 328.00 72.00
C 328.00 66.67 328.00 61.33 328.00 56.00
M 56.00 88.00 
C 56.00 93.33 56.00 98.67 56.00 104.00
C 50.67 104.00 45.33 104.00 40.00 104.00
C 40.00 98.67 40.00 93.33 40.00 88.00
C 45.33 88.00 50.67 88.00 56.00 88.00
M 88.00 88.00 
C 88.00 93.33 88.00 98.67 88.00 104.00
C 82.67 104.00 77.33 104.00 72.00 104.00
C 72.00 98.67 72.00 93.33 72.00 88.00
C 77.33 88.00 82.67 88.00 88.00 88.00
M 120.00 88.00 
C 120.00 93.33 120.00 98.67 120.00 104.00
C 114.67 104.00 109.33 104.00 104.00 104.00
C 104.00 98.67 104.00 93.33 104.00 88.00
C 109.33 88.00 114.67 88.00 120.00 88.00
M 152.00 88.00 
C 152.00 93.33 152.00 98.67 152.00 104.00
C 146.67 104.00 141.33 104.00 136.00 104.00
C 136.00 98.67 136.00 93.33 136.00 88.00
C 141.33 88.00 146.67 88.00 152.00 88.00
M 152.00 120.00 
C 152.00 136.00 152.00 152.00 152.00 168.00
C 114.67 168.00 77.33 168.00 40.00 168.00
C 40.00 152.00 40.00 136.00 40.00 120.00
C 77.33 120.00 114.67 120.00 152.00 120.00
M 72.00 184.00 
C 72.00 189.33 72.00 194.67 72.00 200.00
C 56.00 200.00 40.00 200.00 24.00 200.00
C 24.00 194.67 24.00 189.33 24.00 184.00
C 40.00 184.00 56.00 184.00 72.00 184.00
M 104.00 184.00 
C 104.00 205.33 104.00 226.67 104.00 248.00
C 98.67 248.00 93.33 248.00 88.00 248.00
C 88.00 226.67 88.00 205.33 88.00 184.00
C 93.33 184.00 98.67 184.00 104.00 184.00
M 168.00 184.00 
C 168.00 189.33 168.00 194.67 168.00 200.00
C 152.00 200.00 136.00 200.00 120.00 200.00
C 120.00 194.67 120.00 189.33 120.00 184.00
C 136.00 184.00 152.00 184.00 168.00 184.00
M 72.00 216.00 
C 72.00 232.00 72.00 248.00 72.00 264.00
C 88.00 264.00 104.00 264.00 120.00 264.00
C 120.00 248.00 120.00 232.00 120.00 216.00
C 136.00 216.00 152.00 216.00 168.00 216.00
C 168.00 242.67 168.00 269.33 168.00 296.00
C 120.00 296.00 72.00 296.00 24.00 296.00
C 24.00 269.33 24.00 242.67 24.00 216.00
C 40.00 216.00 56.00 216.00 72.00 216.00
M 158.00 312.00 
C 153.37 320.34 146.67 323.04 141.25 331.25 C 135.82 339.45 129.81 341.76 124.25 351.25 C 118.68 360.74 106.72 360.22 96.00 360.00 C 85.28 359.78 73.86 361.16 68.25 351.75 C 62.64 342.35 56.65 340.03 51.08 331.92 C 45.52 323.80 38.90 320.15 34.00 312.00
C 75.33 312.00 116.67 312.00 158.00 312.00
M 112.00 376.00 
C 112.00 408.00 112.00 440.00 112.00 472.00
C 101.33 472.00 90.67 472.00 80.00 472.00
C 80.00 440.00 80.00 408.00 80.00 376.00
C 90.67 376.00 101.33 376.00 112.00 376.00 Z"/>
</g>
<g fill="None" fill-opacity="0.0" stroke="#5CD6B3" stroke-opacity="1.00" stroke-width="0.3"><path d="
M 56.00 88.00 
C 50.67 88.00 45.33 88.00 40.00 88.00
C 40.00 93.33 40.00 98.67 40.00 104.00
C 45.33 104.00 50.67 104.00 56.00 104.00
C 56.00 98.67 56.00 93.33 56.00 88.00 Z"/>
</g>
<g fill="None" fill-opacity="0.0" stroke="#5CD6B3" stroke-opacity="1.00" stroke-width="0.3"><path d="
M 88.00 88.00 
C 82.67 88.00 77.33 88.00 72.00 88.00
C 72.00 93.33 72.00 98.67 72.00 104.00
C 77.33 104.00 82.67 104.00 88.00 104.00
C 88.00 98.67 88.00 93.33 88.00 88.00 Z"/>
</g>
<g fill="None" fill-opacity="0.0" stroke="#5CD6B3" stroke-opacity="1.00" stroke-width="0.3"><path d="
M 120.00 88.00 
C 114.67 88.00 109.33 88.00 104.00 88.00
C 104.00 93.33 104.00 98.67 104.00 104.00
C 109.33 104.00 114.67 104.00 120.00 104.00
C 120.00 98.67 120.00 93.33 120.00 88.00 Z"/>
</g>
<g fill="None" fill-opacity="0.0" stroke="#5CD6B3" stroke-opacity="1.00" stroke-width="0.3"><path d="
M 152.00 88.00 
C 146.67 88.00 141.33 88.00 136.00 88.00
C 136.00 93.33 136.00 98.67 136.00 104.00
C 141.33 104.00 146.67 104.00 152.00 104.00
C 152.00 98.67 152.00 93.33 152.00 88.00 Z"/>
</g>
<g fill="None" fill-opacity="0.0" stroke="#CBD0D8" stroke-opacity="1.00" stroke-width="0.3"><path d="
M 488.00 88.00 
C 445.33 88.00 402.67 88.00 360.00 88.00
C 355.89 110.79 382.82 103.57 398.00 104.00 C 413.18 104.43 435.84 104.24 451.00 104.00 C 466.16 103.76 492.08 110.41 488.00 88.00 Z"/>
</g>
<g fill="None" fill-opacity="0.0" stroke="#E6E9ED" stroke-opacity="1.00" stroke-width="0.3"><path d="
M 152.00 120.00 
C 114.67 120.00 77.33 120.00 40.00 120.00
C 40.00 136.00 40.00 152.00 40.00 168.00
C 77.33 168.00 114.67 168.00 152.00 168.00
C 152.00 152.00 152.00 136.00 152.00 120.00 Z"/>
</g>
<g fill="None" fill-opacity="0.0" stroke="#AAB2BD" stroke-opacity="1.00" stroke-width="0.3"><path d="
M 440.00 120.00 
C 429.33 120.00 418.67 120.00 408.00 120.00
C 408.00 125.33 408.00 130.67 408.00 136.00
C 418.67 136.00 429.33 136.00 440.00 136.00
C 440.00 130.67 440.00 125.33 440.00 120.00 Z"/>
</g>
<g fill="None" fill-opacity="0.0" stroke="#FFEAA7" stroke-opacity="1.00" stroke-width="0.3"><path d="
M 72.00 184.00 
C 56.00 184.00 40.00 184.00 24.00 184.00
C 24.00 189.33 24.00 194.67 24.00 200.00
C 40.00 200.00 56.00 200.00 72.00 200.00
C 72.00 194.67 72.00 189.33 72.00 184.00 Z"/>
</g>
<g fill="None" fill-opacity="0.0" stroke="#5CD6B3" stroke-opacity="1.00" stroke-width="0.3"><path d="
M 104.00 184.00 
C 98.67 184.00 93.33 184.00 88.00 184.00
C 88.00 205.33 88.00 226.67 88.00 248.00
C 93.33 248.00 98.67 248.00 104.00 248.00
C 104.00 226.67 104.00 205.33 104.00 184.00 Z"/>
</g>
<g fill="None" fill-opacity="0.0" stroke="#FFEAA7" stroke-opacity="1.00" stroke-width="0.3"><path d="
M 168.00 184.00 
C 152.00 184.00 136.00 184.00 120.00 184.00
C 120.00 189.33 120.00 194.67 120.00 200.00
C 136.00 200.00 152.00 200.00 168.00 200.00
C 168.00 194.67 168.00 189.33 168.00 184.00 Z"/>
</g>
<g fill="None" fill-opacity="0.0" stroke="#000000" stroke-opacity="1.00" stroke-width="0.3"><path d="
M 456.00 296.00 
C 472.99 296.32 495.46 298.49 501.61 283.75 C 507.75 269.02 502.43 242.29 504.00 224.00 C 505.57 205.71 503.92 189.40 487.77 185.57 C 471.61 181.75 443.45 184.13 424.00 184.00 C 404.55 183.87 376.42 181.99 360.25 185.81 C 344.08 189.62 342.43 205.76 344.00 224.00 C 345.57 242.24 340.12 268.97 346.30 283.70 C 352.48 298.42 375.13 296.42 392.00 296.00
C 392.00 301.33 392.00 306.67 392.00 312.00
C 386.67 312.00 381.33 312.00 376.00 312.00
C 376.00 317.33 376.00 322.67 376.00 328.00
C 408.00 328.00 440.00 328.00 472.00 328.00
C 472.00 322.67 472.00 317.33 472.00 312.00
C 466.67 312.00 461.33 312.00 456.00 312.00
C 456.00 306.67 456.00 301.33 456.00 296.00
M 488.00 248.00 
C 445.33 248.00 402.67 248.00 360.00 248.00
C 359.55 234.45 360.60 224.96 360.00 211.00 C 359.40 197.04 374.80 199.78 386.00 200.00 C 397.20 200.22 412.57 199.85 424.00 200.00 C 435.43 200.15 450.08 199.81 461.00 200.00 C 471.92 200.19 487.90 196.28 488.00 210.00 C 488.09 223.72 487.93 234.54 488.00 248.00
M 488.00 264.00 
C 492.08 286.41 466.16 279.76 451.00 280.00 C 435.84 280.24 413.18 280.43 398.00 280.00 C 382.82 279.57 355.89 286.79 360.00 264.00
C 402.67 264.00 445.33 264.00 488.00 264.00
M 440.00 296.00 
C 440.00 301.33 440.00 306.67 440.00 312.00
C 429.33 312.00 418.67 312.00 408.00 312.00
C 408.00 306.67 408.00 301.33 408.00 296.00
C 418.67 296.00 429.33 296.00 440.00 296.00 Z"/>
</g>
<g fill="None" fill-opacity="0.0" stroke="#68D5F3" stroke-opacity="1.00" stroke-width="0.3"><path d="
M 488.00 248.00 
C 487.93 234.54 488.09 223.72 488.00 210.00 C 487.90 196.28 471.92 200.19 461.00 200.00 C 450.08 199.81 435.43 200.15 424.00 200.00 C 412.57 199.85 397.20 200.22 386.00 200.00 C 374.80 199.78 359.40 197.04 360.00 211.00 C 360.60 224.96 359.55 234.45 360.00 248.00
C 402.67 248.00 445.33 248.00 488.00 248.00 Z"/>
</g>
<g fill="None" fill-opacity="0.0" stroke="#FBD66F" stroke-opacity="1.00" stroke-width="0.3"><path d="
M 72.00 216.00 
C 56.00 216.00 40.00 216.00 24.00 216.00
C 24.00 242.67 24.00 269.33 24.00 296.00
C 72.00 296.00 120.00 296.00 168.00 296.00
C 168.00 269.33 168.00 242.67 168.00 216.00
C 152.00 216.00 136.00 216.00 120.00 216.00
C 120.00 232.00 120.00 248.00 120.00 264.00
C 104.00 264.00 88.00 264.00 72.00 264.00
C 72.00 248.00 72.00 232.00 72.00 216.00 Z"/>
</g>
<g fill="None" fill-opacity="0.0" stroke="#000000" stroke-opacity="1.00" stroke-width="0.3"><path d="
M 328.00 248.00 
C 322.67 248.00 317.33 248.00 312.00 248.00
C 312.00 253.33 312.00 258.67 312.00 264.00
C 317.33 264.00 322.67 264.00 328.00 264.00
C 328.00 258.67 328.00 253.33 328.00 248.00 Z"/>
</g>
<g fill="None" fill-opacity="0.0" stroke="#CBD0D8" stroke-opacity="1.00" stroke-width="0.3"><path d="
M 488.00 264.00 
C 445.33 264.00 402.67 264.00 360.00 264.00
C 355.89 286.79 382.82 279.57 398.00 280.00 C 413.18 280.43 435.84 280.24 451.00 280.00 C 466.16 279.76 492.08 286.41 488.00 264.00 Z"/>
</g>
<g fill="None" fill-opacity="0.0" stroke="#AAB2BD" stroke-opacity="1.00" stroke-width="0.3"><path d="
M 440.00 296.00 
C 429.33 296.00 418.67 296.00 408.00 296.00
C 408.00 301.33 408.00 306.67 408.00 312.00
C 418.67 312.00 429.33 312.00 440.00 312.00
C 440.00 306.67 440.00 301.33 440.00 296.00 Z"/>
</g>
<g fill="None" fill-opacity="0.0" stroke="#FAD56F" stroke-opacity="1.00" stroke-width="0.3"><path d="
M 158.00 312.00 
C 116.67 312.00 75.33 312.00 34.00 312.00
C 38.90 320.15 45.52 323.80 51.08 331.92 C 56.65 340.03 62.64 342.35 68.25 351.75 C 73.86 361.16 85.28 359.78 96.00 360.00 C 106.72 360.22 118.68 360.74 124.25 351.25 C 129.81 341.76 135.82 339.45 141.25 331.25 C 146.67 323.04 153.37 320.34 158.00 312.00 Z"/>
</g>
<g fill="None" fill-opacity="0.0" stroke="#000000" stroke-opacity="1.00" stroke-width="0.3"><path d="
M 456.00 472.00 
C 472.99 472.32 495.46 474.49 501.61 459.75 C 507.75 445.02 502.43 418.29 504.00 400.00 C 505.57 381.71 503.92 365.40 487.77 361.57 C 471.61 357.75 443.45 360.13 424.00 360.00 C 404.55 359.87 376.42 357.99 360.25 361.81 C 344.08 365.62 342.43 381.76 344.00 400.00 C 345.57 418.24 340.12 444.97 346.30 459.70 C 352.48 474.42 375.13 472.42 392.00 472.00
C 392.00 477.33 392.00 482.67 392.00 488.00
C 386.67 488.00 381.33 488.00 376.00 488.00
C 376.00 493.33 376.00 498.67 376.00 504.00
C 408.00 504.00 440.00 504.00 472.00 504.00
C 472.00 498.67 472.00 493.33 472.00 488.00
C 466.67 488.00 461.33 488.00 456.00 488.00
C 456.00 482.67 456.00 477.33 456.00 472.00
M 488.00 424.00 
C 445.33 424.00 402.67 424.00 360.00 424.00
C 359.55 410.45 360.60 400.96 360.00 387.00 C 359.40 373.04 374.80 375.78 386.00 376.00 C 397.20 376.22 412.57 375.85 424.00 376.00 C 435.43 376.15 450.08 375.81 461.00 376.00 C 471.92 376.19 487.90 372.28 488.00 386.00 C 488.09 399.72 487.93 410.54 488.00 424.00
M 488.00 440.00 
C 492.08 462.41 466.16 455.76 451.00 456.00 C 435.84 456.24 413.18 456.43 398.00 456.00 C 382.82 455.57 355.89 462.79 360.00 440.00
C 402.67 440.00 445.33 440.00 488.00 440.00
M 440.00 472.00 
C 440.00 477.33 440.00 482.67 440.00 488.00
C 429.33 488.00 418.67 488.00 408.00 488.00
C 408.00 482.67 408.00 477.33 408.00 472.00
C 418.67 472.00 429.33 472.00 440.00 472.00 Z"/>
</g>
<g fill="None" fill-opacity="0.0" stroke="#A9B2BC" stroke-opacity="1.00" stroke-width="0.3"><path d="
M 112.00 376.00 
C 101.33 376.00 90.67 376.00 80.00 376.00
C 80.00 408.00 80.00 440.00 80.00 472.00
C 90.67 472.00 101.33 472.00 112.00 472.00
C 112.00 440.00 112.00 408.00 112.00 376.00 Z"/>
</g>
<g fill="None" fill-opacity="0.0" stroke="#68D5F3" stroke-opacity="1.00" stroke-width="0.3"><path d="
M 488.00 424.00 
C 487.93 410.54 488.09 399.72 488.00 386.00 C 487.90 372.28 471.92 376.19 461.00 376.00 C 450.08 375.81 435.43 376.15 424.00 376.00 C 412.57 375.85 397.20 376.22 386.00 376.00 C 374.80 375.78 359.40 373.04 360.00 387.00 C 360.60 400.96 359.55 410.45 360.00 424.00
C 402.67 424.00 445.33 424.00 488.00 424.00 Z"/>
</g>
<g fill="None" fill-opacity="0.0" stroke="#CBD0D8" stroke-opacity="1.00" stroke-width="0.3"><path d="
M 488.00 440.00 
C 445.33 440.00 402.67 440.00 360.00 440.00
C 355.89 462.79 382.82 455.57 398.00 456.00 C 413.18 456.43 435.84 456.24 451.00 456.00 C 466.16 455.76 492.08 462.41 488.00 440.00 Z"/>
</g>
<g fill="None" fill-opacity="0.0" stroke="#AAB2BD" stroke-opacity="1.00" stroke-width="0.3"><path d="
M 440.00 472.00 
C 429.33 472.00 418.67 472.00 408.00 472.00
C 408.00 477.33 408.00 482.67 408.00 488.00
C 418.67 488.00 429.33 488.00 440.00 488.00
C 440.00 482.67 440.00 477.33 440.00 472.00 Z"/>
</g>
<g fill="#000000" fill-opacity="0.00" stroke="None">
<path d="
M 0.00 512.00 
L 512.00 512.00
L 512.00 0.00
L 0.00 0.00
L 0.00 512.00
M 456.00 120.00 
C 456.00 125.33 456.00 130.67 456.00 136.00
C 461.33 136.00 466.67 136.00 472.00 136.00
C 472.00 141.33 472.00 146.67 472.00 152.00
C 440.00 152.00 408.00 152.00 376.00 152.00
C 376.00 146.67 376.00 141.33 376.00 136.00
C 381.33 136.00 386.67 136.00 392.00 136.00
C 392.00 130.67 392.00 125.33 392.00 120.00
C 375.13 120.42 352.48 122.42 346.30 107.70 C 340.12 92.97 345.57 66.24 344.00 48.00 C 342.43 29.76 344.08 13.62 360.25 9.81 C 376.42 5.99 404.55 7.87 424.00 8.00 C 443.45 8.13 471.61 5.75 487.77 9.57 C 503.92 13.40 505.57 29.71 504.00 48.00 C 502.43 66.29 507.75 93.02 501.61 107.75 C 495.46 122.49 472.99 120.32 456.00 120.00
M 328.00 56.00 
C 328.00 61.33 328.00 66.67 328.00 72.00
C 318.74 71.66 308.48 72.48 300.00 72.00
C 292.29 85.72 297.03 107.13 296.00 125.00 C 294.97 142.87 296.83 167.49 296.00 185.00 C 295.17 202.51 299.14 216.62 288.25 226.25 C 277.35 235.87 262.04 230.97 244.00 232.00 C 225.96 233.03 202.53 231.22 184.00 232.00
C 184.00 237.33 184.00 242.67 184.00 248.00
C 221.33 248.00 258.67 248.00 296.00 248.00
C 296.00 253.33 296.00 258.67 296.00 264.00
C 258.67 264.00 221.33 264.00 184.00 264.00
C 184.00 269.33 184.00 274.67 184.00 280.00
C 209.82 280.54 245.13 279.28 270.00 280.00 C 294.87 280.72 296.25 295.21 296.00 320.00 C 295.75 344.79 296.21 379.13 296.00 404.00
C 303.12 411.22 317.23 406.79 328.00 408.00
C 328.00 413.33 328.00 418.67 328.00 424.00
C 301.34 425.58 278.55 424.20 280.00 395.00 C 281.45 365.80 278.90 329.06 280.00 300.00
C 268.37 292.49 250.88 296.91 235.00 296.00 C 219.12 295.09 200.16 296.68 184.00 296.00
C 185.66 314.71 168.92 321.11 160.30 333.30 C 151.67 345.49 143.49 351.90 133.70 364.70 C 123.91 377.51 128.82 402.55 128.00 422.00 C 127.18 441.45 128.61 467.91 128.00 488.00
C 106.67 488.00 85.33 488.00 64.00 488.00
C 64.89 471.56 62.81 454.36 64.00 438.00 C 65.19 421.64 61.72 404.09 64.00 388.00 C 66.28 371.91 58.68 363.40 49.90 355.10 C 41.12 346.80 37.93 339.25 29.70 331.30 C 21.48 323.34 17.04 315.09 8.00 308.00
C 8.00 261.34 8.00 214.66 8.00 168.00
C 13.33 168.00 18.67 168.00 24.00 168.00
C 24.00 136.00 24.00 104.00 24.00 72.00
C 72.00 72.00 120.00 72.00 168.00 72.00
C 168.00 104.00 168.00 136.00 168.00 168.00
C 173.33 168.00 178.67 168.00 184.00 168.00
C 184.00 184.00 184.00 200.00 184.00 216.00
C 214.54 216.03 246.16 215.95 276.00 216.00
C 283.65 202.39 279.10 181.87 280.00 164.00 C 280.90 146.13 279.43 122.78 280.00 105.00 C 280.57 87.22 277.37 74.03 286.75 63.75 C 296.12 53.47 311.28 56.15 328.00 56.00
M 456.00 296.00 
C 456.00 301.33 456.00 306.67 456.00 312.00
C 461.33 312.00 466.67 312.00 472.00 312.00
C 472.00 317.33 472.00 322.67 472.00 328.00
C 440.00 328.00 408.00 328.00 376.00 328.00
C 376.00 322.67 376.00 317.33 376.00 312.00
C 381.33 312.00 386.67 312.00 392.00 312.00
C 392.00 306.67 392.00 301.33 392.00 296.00
C 375.13 296.42 352.48 298.42 346.30 283.70 C 340.12 268.97 345.57 242.24 344.00 224.00 C 342.43 205.76 344.08 189.62 360.25 185.81 C 376.42 181.99 404.55 183.87 424.00 184.00 C 443.45 184.13 471.61 181.75 487.77 185.57 C 503.92 189.40 505.57 205.71 504.00 224.00 C 502.43 242.29 507.75 269.02 501.61 283.75 C 495.46 298.49 472.99 296.32 456.00 296.00
M 328.00 248.00 
C 328.00 253.33 328.00 258.67 328.00 264.00
C 322.67 264.00 317.33 264.00 312.00 264.00
C 312.00 258.67 312.00 253.33 312.00 248.00
C 317.33 248.00 322.67 248.00 328.00 248.00
M 456.00 472.00 
C 456.00 477.33 456.00 482.67 456.00 488.00
C 461.33 488.00 466.67 488.00 472.00 488.00
C 472.00 493.33 472.00 498.67 472.00 504.00
C 440.00 504.00 408.00 504.00 376.00 504.00
C 376.00 498.67 376.00 493.33 376.00 488.00
C 381.33 488.00 386.67 488.00 392.00 488.00
C 392.00 482.67 392.00 477.33 392.00 472.00
C 375.13 472.42 352.48 474.42 346.30 459.70 C 340.12 444.97 345.57 418.24 344.00 400.00 C 342.43 381.76 344.08 365.62 360.25 361.81 C 376.42 357.99 404.55 359.87 424.00 360.00 C 443.45 360.13 471.61 357.75 487.77 361.57 C 503.92 365.40 505.57 381.71 504.00 400.00 C 502.43 418.29 507.75 445.02 501.61 459.75 C 495.46 474.49 472.99 472.32 456.00 472.00 Z"/>
</g>
<g fill="#000000" fill-opacity="1.00" stroke="None">
<path d="
M 456.00 120.00 
C 472.99 120.32 495.46 122.49 501.61 107.75 C 507.75 93.02 502.43 66.29 504.00 48.00 C 505.57 29.71 503.92 13.40 487.77 9.57 C 471.61 5.75 443.45 8.13 424.00 8.00 C 404.55 7.87 376.42 5.99 360.25 9.81 C 344.08 13.62 342.43 29.76 344.00 48.00 C 345.57 66.24 340.12 92.97 346.30 107.70 C 352.48 122.42 375.13 120.42 392.00 120.00
C 392.00 125.33 392.00 130.67 392.00 136.00
C 386.67 136.00 381.33 136.00 376.00 136.00
C 376.00 141.33 376.00 146.67 376.00 152.00
C 408.00 152.00 440.00 152.00 472.00 152.00
C 472.00 146.67 472.00 141.33 472.00 136.00
C 466.67 136.00 461.33 136.00 456.00 136.00
C 456.00 130.67 456.00 125.33 456.00 120.00
M 488.00 72.00 
C 445.33 72.00 402.67 72.00 360.00 72.00
C 359.55 58.45 360.60 48.96 360.00 35.00 C 359.40 21.04 374.80 23.78 386.00 24.00 C 397.20 24.22 412.57 23.85 424.00 24.00 C 435.43 24.15 450.08 23.81 461.00 24.00 C 471.92 24.19 487.90 20.28 488.00 34.00 C 488.09 47.72 487.93 58.55 488.00 72.00
M 488.00 88.00 
C 492.08 110.41 466.16 103.76 451.00 104.00 C 435.84 104.24 413.18 104.43 398.00 104.00 C 382.82 103.57 355.89 110.79 360.00 88.00
C 402.67 88.00 445.33 88.00 488.00 88.00
M 440.00 120.00 
C 440.00 125.33 440.00 130.67 440.00 136.00
C 429.33 136.00 418.67 136.00 408.00 136.00
C 408.00 130.67 408.00 125.33 408.00 120.00
C 418.67 120.00 429.33 120.00 440.00 120.00 Z"/>
</g>
<g fill="#68D5F3" fill-opacity="1.00" stroke="None">
<path d="
M 488.00 72.00 
C 487.93 58.55 488.09 47.72 488.00 34.00 C 487.90 20.28 471.92 24.19 461.00 24.00 C 450.08 23.81 435.43 24.15 424.00 24.00 C 412.57 23.85 397.20 24.22 386.00 24.00 C 374.80 23.78 359.40 21.04 360.00 35.00 C 360.60 48.96 359.55 58.45 360.00 72.00
C 402.67 72.00 445.33 72.00 488.00 72.00 Z"/>
</g>
<g fill="#000000" fill-opacity="1.00" stroke="None">
<path d="
M 328.00 56.00 
C 311.28 56.15 296.12 53.47 286.75 63.75 C 277.37 74.03 280.57 87.22 280.00 105.00 C 279.43 122.78 280.90 146.13 280.00 164.00 C 279.10 181.87 283.65 202.39 276.00 216.00
C 246.16 215.95 214.54 216.03 184.00 216.00
C 184.00 200.00 184.00 184.00 184.00 168.00
C 178.67 168.00 173.33 168.00 168.00 168.00
C 168.00 136.00 168.00 104.00 168.00 72.00
C 120.00 72.00 72.00 72.00 24.00 72.00
C 24.00 104.00 24.00 136.00 24.00 168.00
C 18.67 168.00 13.33 168.00 8.00 168.00
C 8.00 214.66 8.00 261.34 8.00 308.00
C 17.04 315.09 21.48 323.34 29.70 331.30 C 37.93 339.25 41.12 346.80 49.90 355.10 C 58.68 363.40 66.28 371.91 64.00 388.00 C 61.72 404.09 65.19 421.64 64.00 438.00 C 62.81 454.36 64.89 471.56 64.00 488.00
C 85.33 488.00 106.67 488.00 128.00 488.00
C 128.61 467.91 127.18 441.45 128.00 422.00 C 128.82 402.55 123.91 377.51 133.70 364.70 C 143.49 351.90 151.67 345.49 160.30 333.30 C 168.92 321.11 185.66 314.71 184.00 296.00
C 200.16 296.68 219.12 295.09 235.00 296.00 C 250.88 296.91 268.37 292.49 280.00 300.00
C 278.90 329.06 281.45 365.80 280.00 395.00 C 278.55 424.20 301.34 425.58 328.00 424.00
C 328.00 418.67 328.00 413.33 328.00 408.00
C 317.23 406.79 303.12 411.22 296.00 404.00
C 296.21 379.13 295.75 344.79 296.00 320.00 C 296.25 295.21 294.87 280.72 270.00 280.00 C 245.13 279.28 209.82 280.54 184.00 280.00
C 184.00 274.67 184.00 269.33 184.00 264.00
C 221.33 264.00 258.67 264.00 296.00 264.00
C 296.00 258.67 296.00 253.33 296.00 248.00
C 258.67 248.00 221.33 248.00 184.00 248.00
C 184.00 242.67 184.00 237.33 184.00 232.00
C 202.53 231.22 225.96 233.03 244.00 232.00 C 262.04 230.97 277.35 235.87 288.25 226.25 C 299.14 216.62 295.17 202.51 296.00 185.00 C 296.83 167.49 294.97 142.87 296.00 125.00 C 297.03 107.13 292.29 85.72 300.00 72.00
C 308.48 72.48 318.74 71.66 328.00 72.00
C 328.00 66.67 328.00 61.33 328.00 56.00
M 56.00 88.00 
C 56.00 93.33 56.00 98.67 56.00 104.00
C 50.67 104.00 45.33 104.00 40.00 104.00
C 40.00 98.67 40.00 93.33 40.00 88.00
C 45.33 88.00 50.67 88.00 56.00 88.00
M 88.00 88.00 
C 88.00 93.33 88.00 98.67 88.00 104.00
C 82.67 104.00 77.33 104.00 72.00 104.00
C 72.00 98.67 72.00 93.33 72.00 88.00
C 77.33 88.00 82.67 88.00 88.00 88.00
M 120.00 88.00 
C 120.00 93.33 120.00 98.67 120.00 104.00
C 114.67 104.00 109.33 104.00 104.00 104.00
C 104.00 98.67 104.00 93.33 104.00 88.00
C 109.33 88.00 114.67 88.00 120.00 88.00
M 152.00 88.00 
C 152.00 93.33 152.00 98.67 152.00 104.00
C 146.67 104.00 141.33 104.00 136.00 104.00
C 136.00 98.67 136.00 93.33 136.00 88.00
C 141.33 88.00 146.67 88.00 152.00 88.00
M 152.00 120.00 
C 152.00 136.00 152.00 152.00 152.00 168.00
C 114.67 168.00 77.33 168.00 40.00 168.00
C 40.00 152.00 40.00 136.00 40.00 120.00
C 77.33 120.00 114.67 120.00 152.00 120.00
M 72.00 184.00 
C 72.00 189.33 72.00 194.67 72.00 200.00
C 56.00 200.00 40.00 200.00 24.00 200.00
C 24.00 194.67 24.00 189.33 24.00 184.00
C 40.00 184.00 56.00 184.00 72.00 184.00
M 104.00 184.00 
C 104.00 205.33 104.00 226.67 104.00 248.00
C 98.67 248.00 93.33 248.00 88.00 248.00
C 88.00 226.67 88.00 205.33 88.00 184.00
C 93.33 184.00 98.67 184.00 104.00 184.00
M 168.00 184.00 
C 168.00 189.33 168.00 194.67 168.00 200.00
C 152.00 200.00 136.00 200.00 120.00 200.00
C 120.00 194.67 120.00 189.33 120.00 184.00
C 136.00 184.00 152.00 184.00 168.00 184.00
M 72.00 216.00 
C 72.00 232.00 72.00 248.00 72.00 264.00
C 88.00 264.00 104.00 264.00 120.00 264.00
C 120.00 248.00 120.00 232.00 120.00 216.00
C 136.00 216.00 152.00 216.00 168.00 216.00
C 168.00 242.67 168.00 269.33 168.00 296.00
C 120.00 296.00 72.00 296.00 24.00 296.00
C 24.00 269.33 24.00 242.67 24.00 216.00
C 40.00 216.00 56.00 216.00 72.00 216.00
M 158.00 312.00 
C 153.37 320.34 146.67 323.04 141.25 331.25 C 135.82 339.45 129.81 341.76 124.25 351.25 C 118.68 360.74 106.72 360.22 96.00 360.00 C 85.28 359.78 73.86 361.16 68.25 351.75 C 62.64 342.35 56.65 340.03 51.08 331.92 C 45.52 323.80 38.90 320.15 34.00 312.00
C 75.33 312.00 116.67 312.00 158.00 312.00
M 112.00 376.00 
C 112.00 408.00 112.00 440.00 112.00 472.00
C 101.33 472.00 90.67 472.00 80.00 472.00
C 80.00 440.00 80.00 408.00 80.00 376.00
C 90.67 376.00 101.33 376.00 112.00 376.00 Z"/>
</g>
<g fill="#5CD6B3" fill-opacity="1.00" stroke="None">
<path d="
M 56.00 88.00 
C 50.67 88.00 45.33 88.00 40.00 88.00
C 40.00 93.33 40.00 98.67 40.00 104.00
C 45.33 104.00 50.67 104.00 56.00 104.00
C 56.00 98.67 56.00 93.33 56.00 88.00 Z"/>
</g>
<g fill="#5CD6B3" fill-opacity="1.00" stroke="None">
<path d="
M 88.00 88.00 
C 82.67 88.00 77.33 88.00 72.00 88.00
C 72.00 93.33 72.00 98.67 72.00 104.00
C 77.33 104.00 82.67 104.00 88.00 104.00
C 88.00 98.67 88.00 93.33 88.00 88.00 Z"/>
</g>
<g fill="#5CD6B3" fill-opacity="1.00" stroke="None">
<path d="
M 120.00 88.00 
C 114.67 88.00 109.33 88.00 104.00 88.00
C 104.00 93.33 104.00 98.67 104.00 104.00
C 109.33 104.00 114.67 104.00 120.00 104.00
C 120.00 98.67 120.00 93.33 120.00 88.00 Z"/>
</g>
<g fill="#5CD6B3" fill-opacity="1.00" stroke="None">
<path d="
M 152.00 88.00 
C 146.67 88.00 141.33 88.00 136.00 88.00
C 136.00 93.33 136.00 98.67 136.00 104.00
C 141.33 104.00 146.67 104.00 152.00 104.00
C 152.00 98.67 152.00 93.33 152.00 88.00 Z"/>
</g>
<g fill="#CBD0D8" fill-opacity="1.00" stroke="None">
<path d="
M 488.00 88.00 
C 445.33 88.00 402.67 88.00 360.00 88.00
C 355.89 110.79 382.82 103.57 398.00 104.00 C 413.18 104.43 435.84 104.24 451.00 104.00 C 466.16 103.76 492.08 110.41 488.00 88.00 Z"/>
</g>
<g fill="#E6E9ED" fill-opacity="1.00" stroke="None">
<path d="
M 152.00 120.00 
C 114.67 120.00 77.33 120.00 40.00 120.00
C 40.00 136.00 40.00 152.00 40.00 168.00
C 77.33 168.00 114.67 168.00 152.00 168.00
C 152.00 152.00 152.00 136.00 152.00 120.00 Z"/>
</g>
<g fill="#AAB2BD" fill-opacity="1.00" stroke="None">
<path d="
M 440.00 120.00 
C 429.33 120.00 418.67 120.00 408.00 120.00
C 408.00 125.33 408.00 130.67 408.00 136.00
C 418.67 136.00 429.33 136.00 440.00 136.00
C 440.00 130.67 440.00 125.33 440.00 120.00 Z"/>
</g>
<g fill="#FFEAA7" fill-opacity="1.00" stroke="None">
<path d="
M 72.00 184.00 
C 56.00 184.00 40.00 184.00 24.00 184.00
C 24.00 189.33 24.00 194.67 24.00 200.00
C 40.00 200.00 56.00 200.00 72.00 200.00
C 72.00 194.67 72.00 189.33 72.00 184.00 Z"/>
</g>
<g fill="#5CD6B3" fill-opacity="1.00" stroke="None">
<path d="
M 104.00 184.00 
C 98.67 184.00 93.33 184.00 88.00 184.00
C 88.00 205.33 88.00 226.67 88.00 248.00
C 93.33 248.00 98.67 248.00 104.00 248.00
C 104.00 226.67 104.00 205.33 104.00 184.00 Z"/>
</g>
<g fill="#FFEAA7" fill-opacity="1.00" stroke="None">
<path d="
M 168.00 184.00 
C 152.00 184.00 136.00 184.00 120.00 184.00
C 120.00 189.33 120.00 194.67 120.00 200.00
C 136.00 200.00 152.00 200.00 168.00 200.00
C 168.00 194.67 168.00 189.33 168.00 184.00 Z"/>
</g>
<g fill="#000000" fill-opacity="1.00" stroke="None">
<path d="
M 456.00 296.00 
C 472.99 296.32 495.46 298.49 501.61 283.75 C 507.75 269.02 502.43 242.29 504.00 224.00 C 505.57 205.71 503.92 189.40 487.77 185.57 C 471.61 181.75 443.45 184.13 424.00 184.00 C 404.55 183.87 376.42 181.99 360.25 185.81 C 344.08 189.62 342.43 205.76 344.00 224.00 C 345.57 242.24 340.12 268.97 346.30 283.70 C 352.48 298.42 375.13 296.42 392.00 296.00
C 392.00 301.33 392.00 306.67 392.00 312.00
C 386.67 312.00 381.33 312.00 376.00 312.00
C 376.00 317.33 376.00 322.67 376.00 328.00
C 408.00 328.00 440.00 328.00 472.00 328.00
C 472.00 322.67 472.00 317.33 472.00 312.00
C 466.67 312.00 461.33 312.00 456.00 312.00
C 456.00 306.67 456.00 301.33 456.00 296.00
M 488.00 248.00 
C 445.33 248.00 402.67 248.00 360.00 248.00
C 359.55 234.45 360.60 224.96 360.00 211.00 C 359.40 197.04 374.80 199.78 386.00 200.00 C 397.20 200.22 412.57 199.85 424.00 200.00 C 435.43 200.15 450.08 199.81 461.00 200.00 C 471.92 200.19 487.90 196.28 488.00 210.00 C 488.09 223.72 487.93 234.54 488.00 248.00
M 488.00 264.00 
C 492.08 286.41 466.16 279.76 451.00 280.00 C 435.84 280.24 413.18 280.43 398.00 280.00 C 382.82 279.57 355.89 286.79 360.00 264.00
C 402.67 264.00 445.33 264.00 488.00 264.00
M 440.00 296.00 
C 440.00 301.33 440.00 306.67 440.00 312.00
C 429.33 312.00 418.67 312.00 408.00 312.00
C 408.00 306.67 408.00 301.33 408.00 296.00
C 418.67 296.00 429.33 296.00 440.00 296.00 Z"/>
</g>
<g fill="#68D5F3" fill-opacity="1.00" stroke="None">
<path d="
M 488.00 248.00 
C 487.93 234.54 488.09 223.72 488.00 210.00 C 487.90 196.28 471.92 200.19 461.00 200.00 C 450.08 199.81 435.43 200.15 424.00 200.00 C 412.57 199.85 397.20 200.22 386.00 200.00 C 374.80 199.78 359.40 197.04 360.00 211.00 C 360.60 224.96 359.55 234.45 360.00 248.00
C 402.67 248.00 445.33 248.00 488.00 248.00 Z"/>
</g>
<g fill="#FBD66F" fill-opacity="1.00" stroke="None">
<path d="
M 72.00 216.00 
C 56.00 216.00 40.00 216.00 24.00 216.00
C 24.00 242.67 24.00 269.33 24.00 296.00
C 72.00 296.00 120.00 296.00 168.00 296.00
C 168.00 269.33 168.00 242.67 168.00 216.00
C 152.00 216.00 136.00 216.00 120.00 216.00
C 120.00 232.00 120.00 248.00 120.00 264.00
C 104.00 264.00 88.00 264.00 72.00 264.00
C 72.00 248.00 72.00 232.00 72.00 216.00 Z"/>
</g>
<g fill="#000000" fill-opacity="1.00" stroke="None">
<path d="
M 328.00 248.00 
C 322.67 248.00 317.33 248.00 312.00 248.00
C 312.00 253.33 312.00 258.67 312.00 264.00
C 317.33 264.00 322.67 264.00 328.00 264.00
C 328.00 258.67 328.00 253.33 328.00 248.00 Z"/>
</g>
<g fill="#CBD0D8" fill-opacity="1.00" stroke="None">
<path d="
M 488.00 264.00 
C 445.33 264.00 402.67 264.00 360.00 264.00
C 355.89 286.79 382.82 279.57 398.00 280.00 C 413.18 280.43 435.84 280.24 451.00 280.00 C 466.16 279.76 492.08 286.41 488.00 264.00 Z"/>
</g>
<g fill="#AAB2BD" fill-opacity="1.00" stroke="None">
<path d="
M 440.00 296.00 
C 429.33 296.00 418.67 296.00 408.00 296.00
C 408.00 301.33 408.00 306.67 408.00 312.00
C 418.67 312.00 429.33 312.00 440.00 312.00
C 440.00 306.67 440.00 301.33 440.00 296.00 Z"/>
</g>
<g fill="#FAD56F" fill-opacity="1.00" stroke="None">
<path d="
M 158.00 312.00 
C 116.67 312.00 75.33 312.00 34.00 312.00
C 38.90 320.15 45.52 323.80 51.08 331.92 C 56.65 340.03 62.64 342.35 68.25 351.75 C 73.86 361.16 85.28 359.78 96.00 360.00 C 106.72 360.22 118.68 360.74 124.25 351.25 C 129.81 341.76 135.82 339.45 141.25 331.25 C 146.67 323.04 153.37 320.34 158.00 312.00 Z"/>
</g>
<g fill="#000000" fill-opacity="1.00" stroke="None">
<path d="
M 456.00 472.00 
C 472.99 472.32 495.46 474.49 501.61 459.75 C 507.75 445.02 502.43 418.29 504.00 400.00 C 505.57 381.71 503.92 365.40 487.77 361.57 C 471.61 357.75 443.45 360.13 424.00 360.00 C 404.55 359.87 376.42 357.99 360.25 361.81 C 344.08 365.62 342.43 381.76 344.00 400.00 C 345.57 418.24 340.12 444.97 346.30 459.70 C 352.48 474.42 375.13 472.42 392.00 472.00
C 392.00 477.33 392.00 482.67 392.00 488.00
C 386.67 488.00 381.33 488.00 376.00 488.00
C 376.00 493.33 376.00 498.67 376.00 504.00
C 408.00 504.00 440.00 504.00 472.00 504.00
C 472.00 498.67 472.00 493.33 472.00 488.00
C 466.67 488.00 461.33 488.00 456.00 488.00
C 456.00 482.67 456.00 477.33 456.00 472.00
M 488.00 424.00 
C 445.33 424.00 402.67 424.00 360.00 424.00
C 359.55 410.45 360.60 400.96 360.00 387.00 C 359.40 373.04 374.80 375.78 386.00 376.00 C 397.20 376.22 412.57 375.85 424.00 376.00 C 435.43 376.15 450.08 375.81 461.00 376.00 C 471.92 376.19 487.90 372.28 488.00 386.00 C 488.09 399.72 487.93 410.54 488.00 424.00
M 488.00 440.00 
C 492.08 462.41 466.16 455.76 451.00 456.00 C 435.84 456.24 413.18 456.43 398.00 456.00 C 382.82 455.57 355.89 462.79 360.00 440.00
C 402.67 440.00 445.33 440.00 488.00 440.00
M 440.00 472.00 
C 440.00 477.33 440.00 482.67 440.00 488.00
C 429.33 488.00 418.67 488.00 408.00 488.00
C 408.00 482.67 408.00 477.33 408.00 472.00
C 418.67 472.00 429.33 472.00 440.00 472.00 Z"/>
</g>
<g fill="#A9B2BC" fill-opacity="1.00" stroke="None">
<path d="
M 112.00 376.00 
C 101.33 376.00 90.67 376.00 80.00 376.00
C 80.00 408.00 80.00 440.00 80.00 472.00
C 90.67 472.00 101.33 472.00 112.00 472.00
C 112.00 440.00 112.00 408.00 112.00 376.00 Z"/>
</g>
<g fill="#68D5F3" fill-opacity="1.00" stroke="None">
<path d="
M 488.00 424.00 
C 487.93 410.54 488.09 399.72 488.00 386.00 C 487.90 372.28 471.92 376.19 461.00 376.00 C 450.08 375.81 435.43 376.15 424.00 376.00 C 412.57 375.85 397.20 376.22 386.00 376.00 C 374.80 375.78 359.40 373.04 360.00 387.00 C 360.60 400.96 359.55 410.45 360.00 424.00
C 402.67 424.00 445.33 424.00 488.00 424.00 Z"/>
</g>
<g fill="#CBD0D8" fill-opacity="1.00" stroke="None">
<path d="
M 488.00 440.00 
C 445.33 440.00 402.67 440.00 360.00 440.00
C 355.89 462.79 382.82 455.57 398.00 456.00 C 413.18 456.43 435.84 456.24 451.00 456.00 C 466.16 455.76 492.08 462.41 488.00 440.00 Z"/>
</g>
<g fill="#AAB2BD" fill-opacity="1.00" stroke="None">
<path d="
M 440.00 472.00 
C 429.33 472.00 418.67 472.00 408.00 472.00
C 408.00 477.33 408.00 482.67 408.00 488.00
C 418.67 488.00 429.33 488.00 440.00 488.00
C 440.00 482.67 440.00 477.33 440.00 472.00 Z"/>
</g>
</svg>