<svg xmlns="http://www.w3.org/2000/svg" xmlns:v="https://svgstorm.com"
viewBox = "0 0 512 512"
width="512"
height="512">
<g fill="None" fill-opacity="0.0" stroke="#000000" stroke-opacity="0.00" stroke-width="0.3"><path d="
M 0.00 512.00 
L 512.00 512.00
L 512.00 0.00
L 0.00 0.00
L 0.00 512.00
M 358.00 179.00 
C 339.00 182.08 313.83 181.79 294.00 180.00
C 294.00 189.21 294.83 198.84 294.00 208.00
C 303.31 208.38 312.69 207.50 322.00 208.00
C 324.55 208.14 326.65 208.14 329.00 209.00
C 333.84 210.77 335.88 214.47 337.00 219.00
C 337.91 222.67 340.20 235.93 337.00 239.00
C 312.86 241.19 288.19 237.36 264.00 239.00
C 265.48 254.02 262.03 277.87 264.00 292.00 C 265.97 306.13 282.31 309.04 288.75 320.25 C 295.20 331.46 310.00 336.12 316.00 347.00
C 314.66 328.94 330.13 327.72 345.00 329.00 C 359.87 330.28 377.75 327.84 393.00 329.00 C 408.25 330.16 425.88 327.19 441.00 329.00 C 456.12 330.81 474.11 324.98 488.22 329.78 C 502.34 334.58 494.58 356.86 496.00 369.00 C 497.42 381.14 495.27 404.66 496.00 417.00 C 496.73 429.34 499.41 451.88 482.99 451.99 C 466.57 452.11 451.16 453.56 435.00 452.00
C 435.60 458.62 435.60 466.38 435.00 473.00
C 442.99 473.00 452.89 471.84 460.00 474.00
C 469.95 477.02 468.21 486.93 468.00 496.00
C 427.00 496.00 386.00 496.00 345.00 496.00
C 345.00 494.33 345.00 492.67 345.00 491.00
C 344.76 488.32 344.53 484.64 345.00 482.00
C 347.40 468.62 368.12 473.00 378.00 473.00
C 377.40 466.38 377.40 458.62 378.00 452.00
C 361.80 453.57 347.56 451.77 331.00 452.00 C 314.44 452.23 314.90 432.54 316.00 419.00 C 317.10 405.46 314.64 385.10 316.00 371.00
C 313.95 365.44 304.76 362.14 301.25 356.75 C 297.74 351.36 290.47 346.92 286.25 341.75 C 282.02 336.58 276.27 332.35 271.75 327.25 C 267.23 322.14 261.08 317.43 257.00 312.00
C 235.58 329.59 216.88 352.28 196.00 371.00
C 197.15 382.88 195.83 395.03 196.00 407.00 C 196.17 418.97 197.14 430.26 195.02 442.02 C 192.90 453.79 177.07 452.00 168.00 452.00
C 156.82 452.00 145.13 453.01 134.00 452.00
C 134.00 459.00 134.00 466.00 134.00 473.00
C 141.60 473.60 149.42 472.20 157.00 473.00
C 158.68 473.18 159.50 473.29 161.00 474.00
C 169.42 477.97 166.58 488.11 167.00 496.00
C 126.00 496.00 85.00 496.00 44.00 496.00
C 44.00 494.33 44.00 492.67 44.00 491.00
C 41.35 469.10 61.33 473.00 77.00 473.00
C 76.42 466.60 76.08 458.36 77.00 452.00
C 61.37 455.47 46.39 450.83 30.00 452.00 C 13.61 453.17 14.81 430.31 16.00 418.00 C 17.19 405.69 14.33 382.15 16.00 370.00 C 17.67 357.85 9.56 334.74 23.70 329.70 C 37.83 324.65 54.89 330.91 70.00 329.00 C 85.11 327.09 102.66 330.17 118.00 329.00 C 133.34 327.83 150.86 330.20 166.00 329.00 C 181.14 327.80 197.27 328.29 196.00 347.00
C 200.40 338.84 210.03 334.91 216.25 327.25 C 222.47 319.59 228.20 314.66 236.25 307.25 C 244.29 299.83 250.60 291.70 248.00 279.00 C 245.40 266.30 249.95 251.86 248.00 239.00
C 223.81 237.36 199.14 241.18 175.00 239.00
C 170.88 235.04 174.45 222.77 174.98 216.98 C 175.50 211.18 185.21 208.26 190.00 208.00
C 199.31 207.50 208.69 208.38 218.00 208.00
C 217.22 199.46 216.78 188.48 218.00 180.00
C 199.23 184.17 181.41 177.18 162.00 180.00 C 142.59 182.82 133.88 167.28 136.00 149.00 C 138.12 130.72 135.10 112.13 136.00 93.00 C 136.90 73.87 135.68 56.12 136.00 36.00 C 136.32 15.88 155.31 14.57 173.00 16.00 C 190.69 17.43 210.65 15.39 229.00 16.00 C 247.35 16.61 267.34 15.77 286.00 16.00 C 304.66 16.23 324.25 16.00 343.00 16.00
C 358.50 16.00 376.56 16.86 376.00 36.00 C 375.44 55.14 376.08 72.11 376.00 90.00 C 375.92 107.89 375.64 126.40 376.00 143.00 C 376.36 159.60 377.73 177.93 358.00 179.00 Z"/>
</g>
<g fill="None" fill-opacity="0.0" stroke="#D7EBFD" stroke-opacity="1.00" stroke-width="0.3"><path d="
M 218.00 180.00 
C 218.05 179.65 218.65 179.05 219.00 179.00
C 239.37 176.07 262.39 179.00 283.00 179.00
C 286.33 179.00 289.67 179.00 293.00 179.00
C 293.50 179.00 294.00 179.00 294.00 179.00
C 310.00 179.00 326.00 179.00 342.00 179.00
C 362.57 175.10 356.82 146.51 357.00 130.00 C 357.18 113.49 357.56 82.44 357.00 66.00 C 356.44 49.56 363.10 20.98 343.00 16.00
C 324.25 16.00 304.66 16.23 286.00 16.00 C 267.34 15.77 247.35 16.61 229.00 16.00 C 210.65 15.39 190.69 17.43 173.00 16.00 C 155.31 14.57 136.32 15.88 136.00 36.00 C 135.68 56.12 136.90 73.87 136.00 93.00 C 135.10 112.13 138.12 130.72 136.00 149.00 C 133.88 167.28 142.59 182.82 162.00 180.00 C 181.41 177.18 199.23 184.17 218.00 180.00
M 267.00 34.00 
C 278.35 35.10 287.56 39.63 298.68 43.32 C 309.80 47.01 312.42 55.43 323.75 60.25 C 335.07 65.08 331.55 86.19 320.31 79.69 C 309.07 73.20 307.67 66.05 296.92 61.08 C 286.16 56.11 276.42 51.74 265.00 51.00 C 253.58 50.26 238.89 49.80 229.33 54.33 C 219.77 58.86 208.91 61.74 202.75 69.75 C 196.60 77.77 180.85 85.62 180.01 72.99 C 179.17 60.37 193.15 58.35 200.23 51.23 C 207.31 44.11 218.84 41.27 228.68 37.68 C 238.52 34.08 255.61 32.90 267.00 34.00
M 268.00 64.00 
C 277.67 65.38 289.79 72.53 298.08 76.92 C 306.38 81.30 319.57 96.44 307.97 100.97 C 296.37 105.51 292.40 88.55 281.92 86.08 C 271.43 83.61 256.64 75.90 244.99 80.99 C 233.35 86.08 225.50 83.93 216.75 95.75 C 208.00 107.58 193.05 96.45 203.25 86.25 C 213.44 76.05 217.25 74.10 229.02 69.02 C 240.80 63.95 254.69 62.10 268.00 64.00
M 262.00 93.00 
C 273.79 94.91 277.28 99.91 288.25 105.75 C 299.22 111.60 289.09 129.92 279.75 120.25 C 270.42 110.57 262.22 110.83 250.00 110.00 C 237.78 109.17 235.89 125.87 224.33 122.67 C 212.77 119.47 220.93 104.73 230.08 101.08 C 239.23 97.43 250.56 91.14 262.00 93.00
M 262.00 120.00 
C 287.61 125.30 276.05 169.29 250.33 160.67 C 224.61 152.05 235.52 114.52 262.00 120.00 Z"/>
</g>
<g fill="None" fill-opacity="0.0" stroke="#C4E2FE" stroke-opacity="0.98" stroke-width="0.3"><path d="
M 342.00 179.00 
C 347.31 179.00 352.70 179.29 358.00 179.00
C 377.73 177.93 376.36 159.60 376.00 143.00 C 375.64 126.40 375.92 107.89 376.00 90.00 C 376.08 72.11 375.44 55.14 376.00 36.00 C 376.56 16.86 358.50 16.00 343.00 16.00
C 363.10 20.98 356.44 49.56 357.00 66.00 C 357.56 82.44 357.18 113.49 357.00 130.00 C 356.82 146.51 362.57 175.10 342.00 179.00 Z"/>
</g>
<g fill="None" fill-opacity="0.0" stroke="#FDE17B" stroke-opacity="1.00" stroke-width="0.3"><path d="
M 267.00 34.00 
C 255.61 32.90 238.52 34.08 228.68 37.68 C 218.84 41.27 207.31 44.11 200.23 51.23 C 193.15 58.35 179.17 60.37 180.01 72.99 C 180.85 85.62 196.60 77.77 202.75 69.75 C 208.91 61.74 219.77 58.86 229.33 54.33 C 238.89 49.80 253.58 50.26 265.00 51.00 C 276.42 51.74 286.16 56.11 296.92 61.08 C 307.67 66.05 309.07 73.20 320.31 79.69 C 331.55 86.19 335.07 65.08 323.75 60.25 C 312.42 55.43 309.80 47.01 298.68 43.32 C 287.56 39.63 278.35 35.10 267.00 34.00 Z"/>
</g>
<g fill="None" fill-opacity="0.0" stroke="#FDE17B" stroke-opacity="1.00" stroke-width="0.3"><path d="
M 268.00 64.00 
C 254.69 62.10 240.80 63.95 229.02 69.02 C 217.25 74.10 213.44 76.05 203.25 86.25 C 193.05 96.45 208.00 107.58 216.75 95.75 C 225.50 83.93 233.35 86.08 244.99 80.99 C 256.64 75.90 271.43 83.61 281.92 86.08 C 292.40 88.55 296.37 105.51 307.97 100.97 C 319.57 96.44 306.38 81.30 298.08 76.92 C 289.79 72.53 277.67 65.38 268.00 64.00 Z"/>
</g>
<g fill="None" fill-opacity="0.0" stroke="#FDE17C" stroke-opacity="1.00" stroke-width="0.3"><path d="
M 262.00 93.00 
C 250.56 91.14 239.23 97.43 230.08 101.08 C 220.93 104.73 212.77 119.47 224.33 122.67 C 235.89 125.87 237.78 109.17 250.00 110.00 C 262.22 110.83 270.42 110.57 279.75 120.25 C 289.09 129.92 299.22 111.60 288.25 105.75 C 277.28 99.91 273.79 94.91 262.00 93.00 Z"/>
</g>
<g fill="None" fill-opacity="0.0" stroke="#FEE17A" stroke-opacity="1.00" stroke-width="0.3"><path d="
M 262.00 120.00 
C 235.52 114.52 224.61 152.05 250.33 160.67 C 276.05 169.29 287.61 125.30 262.00 120.00
M 258.00 136.00 
C 262.51 137.94 259.35 147.17 254.33 144.67 C 249.30 142.16 252.97 133.84 258.00 136.00 Z"/>
</g>
<g fill="None" fill-opacity="0.0" stroke="#D8EBFD" stroke-opacity="1.00" stroke-width="0.3"><path d="
M 258.00 136.00 
C 252.97 133.84 249.30 142.16 254.33 144.67 C 259.35 147.17 262.51 137.94 258.00 136.00 Z"/>
</g>
<g fill="None" fill-opacity="0.0" stroke="#A79CA7" stroke-opacity="0.53" stroke-width="0.3"><path d="
M 218.00 180.00 
C 216.78 188.48 217.22 199.46 218.00 208.00
C 218.32 207.76 219.00 208.00 219.00 208.00
C 219.69 200.39 221.31 186.22 219.00 179.00
C 218.65 179.05 218.05 179.65 218.00 180.00 Z"/>
</g>
<g fill="None" fill-opacity="0.0" stroke="#A69AA6" stroke-opacity="1.00" stroke-width="0.3"><path d="
M 219.00 208.00 
C 240.33 208.00 261.67 208.00 283.00 208.00
C 283.00 198.33 283.00 188.67 283.00 179.00
C 262.39 179.00 239.37 176.07 219.00 179.00
C 221.31 186.22 219.69 200.39 219.00 208.00 Z"/>
</g>
<g fill="None" fill-opacity="0.0" stroke="#837683" stroke-opacity="1.00" stroke-width="0.3"><path d="
M 283.00 208.00 
C 286.33 208.00 289.67 208.00 293.00 208.00
C 292.17 198.86 292.17 188.14 293.00 179.00
C 289.67 179.00 286.33 179.00 283.00 179.00
C 283.00 188.67 283.00 198.33 283.00 208.00 Z"/>
</g>
<g fill="None" fill-opacity="0.0" stroke="#908390" stroke-opacity="0.78" stroke-width="0.3"><path d="
M 293.00 208.00 
C 293.50 208.00 294.00 208.00 294.00 208.00
C 294.83 198.84 294.00 189.21 294.00 180.00
C 294.00 179.50 294.00 179.00 294.00 179.00
C 294.00 179.00 293.50 179.00 293.00 179.00
C 292.17 188.14 292.17 198.86 293.00 208.00 Z"/>
</g>
<g fill="None" fill-opacity="0.0" stroke="#D0EDFF" stroke-opacity="0.08" stroke-width="0.3"><path d="
M 294.00 180.00 
C 313.83 181.79 339.00 182.08 358.00 179.00
C 352.70 179.29 347.31 179.00 342.00 179.00
C 326.00 179.00 310.00 179.00 294.00 179.00
C 294.00 179.00 294.00 179.50 294.00 180.00 Z"/>
</g>
<g fill="None" fill-opacity="0.0" stroke="#EBEDF0" stroke-opacity="0.99" stroke-width="0.3"><path d="
M 175.00 239.00 
C 174.96 239.00 175.00 238.00 175.00 238.00
C 174.64 236.42 175.27 234.60 175.00 233.00
C 226.67 233.00 278.33 233.00 330.00 233.00
C 329.53 225.03 331.06 216.57 329.00 209.00
C 326.65 208.14 324.55 208.14 322.00 208.00
C 315.65 208.27 299.67 212.19 294.00 208.00
C 294.00 208.00 293.50 208.00 293.00 208.00
C 289.67 208.00 286.33 208.00 283.00 208.00
C 261.67 208.00 240.33 208.00 219.00 208.00
C 219.00 208.00 218.32 207.76 218.00 208.00
C 212.31 212.21 196.24 208.27 190.00 208.00
C 185.21 208.26 175.50 211.18 174.98 216.98 C 174.45 222.77 170.88 235.04 175.00 239.00 Z"/>
</g>
<g fill="None" fill-opacity="0.0" stroke="#ECEEF1" stroke-opacity="0.80" stroke-width="0.3"><path d="
M 218.00 208.00 
C 208.69 208.38 199.31 207.50 190.00 208.00
C 196.24 208.27 212.31 212.21 218.00 208.00 Z"/>
</g>
<g fill="None" fill-opacity="0.0" stroke="#ECEEF1" stroke-opacity="0.80" stroke-width="0.3"><path d="
M 322.00 208.00 
C 312.69 207.50 303.31 208.38 294.00 208.00
C 299.67 212.19 315.65 208.27 322.00 208.00 Z"/>
</g>
<g fill="None" fill-opacity="0.0" stroke="#D1D1D6" stroke-opacity="0.99" stroke-width="0.3"><path d="
M 175.00 238.00 
C 198.30 235.89 225.50 236.82 248.00 239.00
C 253.00 239.48 258.99 239.48 264.00 239.00
C 286.59 236.81 313.69 235.89 337.00 238.00
C 337.00 231.83 337.76 225.12 337.00 219.00
C 335.88 214.47 333.84 210.77 329.00 209.00
C 331.06 216.57 329.53 225.03 330.00 233.00
C 278.33 233.00 226.67 233.00 175.00 233.00
C 175.27 234.60 174.64 236.42 175.00 238.00 Z"/>
</g>
<g fill="None" fill-opacity="0.0" stroke="#DEE1E1" stroke-opacity="0.25" stroke-width="0.3"><path d="
M 337.00 238.00 
C 337.00 238.50 337.00 239.00 337.00 239.00
C 340.20 235.93 337.91 222.67 337.00 219.00
C 337.76 225.12 337.00 231.83 337.00 238.00 Z"/>
</g>
<g fill="None" fill-opacity="0.0" stroke="#DADADF" stroke-opacity="0.78" stroke-width="0.3"><path d="
M 175.00 239.00 
C 199.14 241.18 223.81 237.36 248.00 239.00
C 225.50 236.82 198.30 235.89 175.00 238.00
C 175.00 238.00 174.96 239.00 175.00 239.00 Z"/>
</g>
<g fill="None" fill-opacity="0.0" stroke="#DADADF" stroke-opacity="0.78" stroke-width="0.3"><path d="
M 264.00 239.00 
C 288.19 237.36 312.86 241.19 337.00 239.00
C 337.00 239.00 337.00 238.50 337.00 238.00
C 313.69 235.89 286.59 236.81 264.00 239.00 Z"/>
</g>
<g fill="None" fill-opacity="0.0" stroke="#A79BA7" stroke-opacity="0.96" stroke-width="0.3"><path d="
M 196.00 347.00 
C 195.46 354.93 195.27 363.45 196.00 371.00
C 216.88 352.28 235.58 329.59 257.00 312.00
C 261.08 317.43 267.23 322.14 271.75 327.25 C 276.27 332.35 282.02 336.58 286.25 341.75 C 290.47 346.92 297.74 351.36 301.25 356.75 C 304.76 362.14 313.95 365.44 316.00 371.00
C 316.74 363.39 316.59 354.91 316.00 347.00
C 310.00 336.12 295.20 331.46 288.75 320.25 C 282.31 309.04 265.97 306.13 264.00 292.00 C 262.03 277.87 265.48 254.02 264.00 239.00
C 258.99 239.48 253.00 239.48 248.00 239.00
C 249.95 251.86 245.40 266.30 248.00 279.00 C 250.60 291.70 244.29 299.83 236.25 307.25 C 228.20 314.66 222.47 319.59 216.25 327.25 C 210.03 334.91 200.40 338.84 196.00 347.00 Z"/>
</g>
<g fill="None" fill-opacity="0.0" stroke="#D6EBFE" stroke-opacity="0.99" stroke-width="0.3"><path d="
M 77.00 452.00 
C 77.05 451.65 77.65 451.05 78.00 451.00
C 95.82 448.43 115.97 451.00 134.00 451.00
C 145.30 451.00 157.48 450.98 168.00 452.00
C 177.07 452.00 192.90 453.79 195.02 442.02 C 197.14 430.26 196.17 418.97 196.00 407.00 C 195.83 395.03 197.15 382.88 196.00 371.00
C 195.27 363.45 195.46 354.93 196.00 347.00
C 197.27 328.29 181.14 327.80 166.00 329.00 C 150.86 330.20 133.34 327.83 118.00 329.00 C 102.66 330.17 85.11 327.09 70.00 329.00 C 54.89 330.91 37.83 324.65 23.70 329.70 C 9.56 334.74 17.67 357.85 16.00 370.00 C 14.33 382.15 17.19 405.69 16.00 418.00 C 14.81 430.31 13.61 453.17 30.00 452.00 C 46.39 450.83 61.37 455.47 77.00 452.00 Z"/>
</g>
<g fill="None" fill-opacity="0.0" stroke="#D6EBFE" stroke-opacity="0.99" stroke-width="0.3"><path d="
M 316.00 347.00 
C 316.59 354.91 316.74 363.39 316.00 371.00
C 314.64 385.10 317.10 405.46 316.00 419.00 C 314.90 432.54 314.44 452.23 331.00 452.00 C 347.56 451.77 361.80 453.57 378.00 452.00
C 395.89 450.27 417.18 450.28 435.00 452.00
C 451.16 453.56 466.57 452.11 482.99 451.99 C 499.41 451.88 496.73 429.34 496.00 417.00 C 495.27 404.66 497.42 381.14 496.00 369.00 C 494.58 356.86 502.34 334.58 488.22 329.78 C 474.11 324.98 456.12 330.81 441.00 329.00 C 425.88 327.19 408.25 330.16 393.00 329.00 C 377.75 327.84 359.87 330.28 345.00 329.00 C 330.13 327.72 314.66 328.94 316.00 347.00 Z"/>
</g>
<g fill="None" fill-opacity="0.0" stroke="#A89CA9" stroke-opacity="0.56" stroke-width="0.3"><path d="
M 77.00 452.00 
C 76.08 458.36 76.42 466.60 77.00 473.00
C 77.50 473.00 78.00 473.00 78.00 473.00
C 78.62 466.13 78.00 458.90 78.00 452.00
C 78.00 451.50 78.00 451.00 78.00 451.00
C 77.65 451.05 77.05 451.65 77.00 452.00 Z"/>
</g>
<g fill="None" fill-opacity="0.0" stroke="#B6B7C6" stroke-opacity="1.00" stroke-width="0.3"><path d="
M 78.00 452.00 
C 93.71 453.42 110.22 452.00 126.00 452.00
C 128.63 452.00 131.38 452.24 134.00 452.00
C 133.96 452.00 134.00 451.00 134.00 451.00
C 115.97 451.00 95.82 448.43 78.00 451.00
C 78.00 451.00 78.00 451.50 78.00 452.00 Z"/>
</g>
<g fill="None" fill-opacity="0.0" stroke="#D6EAFF" stroke-opacity="0.40" stroke-width="0.3"><path d="
M 134.00 452.00 
C 145.13 453.01 156.82 452.00 168.00 452.00
C 157.48 450.98 145.30 451.00 134.00 451.00
C 134.00 451.00 133.96 452.00 134.00 452.00 Z"/>
</g>
<g fill="None" fill-opacity="0.0" stroke="#B6B7C7" stroke-opacity="1.00" stroke-width="0.3"><path d="
M 378.00 452.00 
C 378.00 451.96 379.00 452.00 379.00 452.00
C 394.67 452.00 410.33 452.00 426.00 452.00
C 428.67 452.00 431.33 452.00 434.00 452.00
C 434.50 452.00 435.00 452.00 435.00 452.00
C 417.18 450.28 395.89 450.27 378.00 452.00 Z"/>
</g>
<g fill="None" fill-opacity="0.0" stroke="#A69AA6" stroke-opacity="1.00" stroke-width="0.3"><path d="
M 78.00 473.00 
C 94.00 472.99 110.00 473.00 126.00 473.00
C 126.00 466.00 126.00 459.00 126.00 452.00
C 110.22 452.00 93.71 453.42 78.00 452.00
C 78.00 458.90 78.62 466.13 78.00 473.00 Z"/>
</g>
<g fill="None" fill-opacity="0.0" stroke="#837683" stroke-opacity="0.99" stroke-width="0.3"><path d="
M 126.00 473.00 
C 128.62 473.00 131.39 472.75 134.00 473.00
C 134.00 466.00 134.00 459.00 134.00 452.00
C 131.38 452.24 128.63 452.00 126.00 452.00
C 126.00 459.00 126.00 466.00 126.00 473.00 Z"/>
</g>
<g fill="None" fill-opacity="0.0" stroke="#A79BA7" stroke-opacity="0.77" stroke-width="0.3"><path d="
M 378.00 473.00 
C 378.50 473.00 379.00 473.00 379.00 473.00
C 379.60 466.38 379.60 458.62 379.00 452.00
C 379.00 452.00 378.00 451.96 378.00 452.00
C 377.40 458.62 377.40 466.38 378.00 473.00 Z"/>
</g>
<g fill="None" fill-opacity="0.0" stroke="#A79BA7" stroke-opacity="1.00" stroke-width="0.3"><path d="
M 379.00 473.00 
C 394.67 472.99 410.33 473.00 426.00 473.00
C 426.00 466.00 426.00 459.00 426.00 452.00
C 410.33 452.00 394.67 452.00 379.00 452.00
C 379.60 458.62 379.60 466.38 379.00 473.00 Z"/>
</g>
<g fill="None" fill-opacity="0.0" stroke="#847784" stroke-opacity="1.00" stroke-width="0.3"><path d="
M 426.00 473.00 
C 428.67 473.00 431.33 473.00 434.00 473.00
C 433.41 466.38 433.40 458.62 434.00 452.00
C 431.33 452.00 428.67 452.00 426.00 452.00
C 426.00 459.00 426.00 466.00 426.00 473.00 Z"/>
</g>
<g fill="None" fill-opacity="0.0" stroke="#8E818E" stroke-opacity="0.80" stroke-width="0.3"><path d="
M 434.00 473.00 
C 434.50 473.00 435.00 473.00 435.00 473.00
C 435.60 466.38 435.60 458.62 435.00 452.00
C 435.00 452.00 434.50 452.00 434.00 452.00
C 433.40 458.62 433.41 466.38 434.00 473.00 Z"/>
</g>
<g fill="None" fill-opacity="0.0" stroke="#EAEDEF" stroke-opacity="0.99" stroke-width="0.3"><path d="
M 44.00 491.00 
C 46.86 495.04 56.87 490.91 62.00 492.00 C 67.13 493.09 76.07 491.50 82.00 492.00 C 87.93 492.50 95.75 491.76 102.00 492.00 C 108.25 492.24 114.56 491.90 121.00 492.00 C 127.44 492.10 134.45 491.95 141.00 492.00 C 147.55 492.05 154.42 491.96 161.00 492.00
C 161.00 486.00 161.00 480.00 161.00 474.00
C 159.50 473.29 158.68 473.18 157.00 473.00
C 150.04 473.01 141.01 473.68 134.00 473.00
C 131.39 472.75 128.62 473.00 126.00 473.00
C 110.00 473.00 94.00 472.99 78.00 473.00
C 78.00 473.00 77.50 473.00 77.00 473.00
C 61.33 473.00 41.35 469.10 44.00 491.00 Z"/>
</g>
<g fill="None" fill-opacity="0.0" stroke="#ECEEF1" stroke-opacity="0.73" stroke-width="0.3"><path d="
M 157.00 473.00 
C 149.42 472.20 141.60 473.60 134.00 473.00
C 141.01 473.68 150.04 473.01 157.00 473.00 Z"/>
</g>
<g fill="None" fill-opacity="0.0" stroke="#EBEEF0" stroke-opacity="0.99" stroke-width="0.3"><path d="
M 345.00 482.00 
C 344.84 483.92 346.25 488.20 346.00 491.00
C 384.67 490.96 423.33 491.03 462.00 491.00
C 461.24 485.37 463.86 478.59 460.00 474.00
C 452.89 471.84 442.99 473.00 435.00 473.00
C 435.00 473.00 434.50 473.00 434.00 473.00
C 431.33 473.00 428.67 473.00 426.00 473.00
C 410.33 473.00 394.67 472.99 379.00 473.00
C 379.00 473.00 378.50 473.00 378.00 473.00
C 368.12 473.00 347.40 468.62 345.00 482.00 Z"/>
</g>
<g fill="None" fill-opacity="0.0" stroke="#D1D1D6" stroke-opacity="0.98" stroke-width="0.3"><path d="
M 44.00 491.00 
C 44.00 492.67 44.00 494.33 44.00 496.00
C 85.00 496.00 126.00 496.00 167.00 496.00
C 166.58 488.11 169.42 477.97 161.00 474.00
C 161.00 480.00 161.00 486.00 161.00 492.00
C 154.42 491.96 147.55 492.05 141.00 492.00 C 134.45 491.95 127.44 492.10 121.00 492.00 C 114.56 491.90 108.25 492.24 102.00 492.00 C 95.75 491.76 87.93 492.50 82.00 492.00 C 76.07 491.50 67.13 493.09 62.00 492.00 C 56.87 490.91 46.86 495.04 44.00 491.00 Z"/>
</g>
<g fill="None" fill-opacity="0.0" stroke="#D3D3D8" stroke-opacity="0.98" stroke-width="0.3"><path d="
M 346.00 491.00 
C 345.50 491.00 345.00 491.00 345.00 491.00
C 345.00 492.67 345.00 494.33 345.00 496.00
C 386.00 496.00 427.00 496.00 468.00 496.00
C 468.21 486.93 469.95 477.02 460.00 474.00
C 463.86 478.59 461.24 485.37 462.00 491.00
C 423.33 491.03 384.67 490.96 346.00 491.00 Z"/>
</g>
<g fill="None" fill-opacity="0.0" stroke="#EBEFF1" stroke-opacity="0.48" stroke-width="0.3"><path d="
M 345.00 491.00 
C 345.00 491.00 345.50 491.00 346.00 491.00
C 346.25 488.20 344.84 483.92 345.00 482.00
C 344.53 484.64 344.76 488.32 345.00 491.00 Z"/>
</g>
<g fill="#000000" fill-opacity="0.00" stroke="None">
<path d="
M 0.00 512.00 
L 512.00 512.00
L 512.00 0.00
L 0.00 0.00
L 0.00 512.00
M 358.00 179.00 
C 339.00 182.08 313.83 181.79 294.00 180.00
C 294.00 189.21 294.83 198.84 294.00 208.00
C 303.31 208.38 312.69 207.50 322.00 208.00
C 324.55 208.14 326.65 208.14 329.00 209.00
C 333.84 210.77 335.88 214.47 337.00 219.00
C 337.91 222.67 340.20 235.93 337.00 239.00
C 312.86 241.19 288.19 237.36 264.00 239.00
C 265.48 254.02 262.03 277.87 264.00 292.00 C 265.97 306.13 282.31 309.04 288.75 320.25 C 295.20 331.46 310.00 336.12 316.00 347.00
C 314.66 328.94 330.13 327.72 345.00 329.00 C 359.87 330.28 377.75 327.84 393.00 329.00 C 408.25 330.16 425.88 327.19 441.00 329.00 C 456.12 330.81 474.11 324.98 488.22 329.78 C 502.34 334.58 494.58 356.86 496.00 369.00 C 497.42 381.14 495.27 404.66 496.00 417.00 C 496.73 429.34 499.41 451.88 482.99 451.99 C 466.57 452.11 451.16 453.56 435.00 452.00
C 435.60 458.62 435.60 466.38 435.00 473.00
C 442.99 473.00 452.89 471.84 460.00 474.00
C 469.95 477.02 468.21 486.93 468.00 496.00
C 427.00 496.00 386.00 496.00 345.00 496.00
C 345.00 494.33 345.00 492.67 345.00 491.00
C 344.76 488.32 344.53 484.64 345.00 482.00
C 347.40 468.62 368.12 473.00 378.00 473.00
C 377.40 466.38 377.40 458.62 378.00 452.00
C 361.80 453.57 347.56 451.77 331.00 452.00 C 314.44 452.23 314.90 432.54 316.00 419.00 C 317.10 405.46 314.64 385.10 316.00 371.00
C 313.95 365.44 304.76 362.14 301.25 356.75 C 297.74 351.36 290.47 346.92 286.25 341.75 C 282.02 336.58 276.27 332.35 271.75 327.25 C 267.23 322.14 261.08 317.43 257.00 312.00
C 235.58 329.59 216.88 352.28 196.00 371.00
C 197.15 382.88 195.83 395.03 196.00 407.00 C 196.17 418.97 197.14 430.26 195.02 442.02 C 192.90 453.79 177.07 452.00 168.00 452.00
C 156.82 452.00 145.13 453.01 134.00 452.00
C 134.00 459.00 134.00 466.00 134.00 473.00
C 141.60 473.60 149.42 472.20 157.00 473.00
C 158.68 473.18 159.50 473.29 161.00 474.00
C 169.42 477.97 166.58 488.11 167.00 496.00
C 126.00 496.00 85.00 496.00 44.00 496.00
C 44.00 494.33 44.00 492.67 44.00 491.00
C 41.35 469.10 61.33 473.00 77.00 473.00
C 76.42 466.60 76.08 458.36 77.00 452.00
C 61.37 455.47 46.39 450.83 30.00 452.00 C 13.61 453.17 14.81 430.31 16.00 418.00 C 17.19 405.69 14.33 382.15 16.00 370.00 C 17.67 357.85 9.56 334.74 23.70 329.70 C 37.83 324.65 54.89 330.91 70.00 329.00 C 85.11 327.09 102.66 330.17 118.00 329.00 C 133.34 327.83 150.86 330.20 166.00 329.00 C 181.14 327.80 197.27 328.29 196.00 347.00
C 200.40 338.84 210.03 334.91 216.25 327.25 C 222.47 319.59 228.20 314.66 236.25 307.25 C 244.29 299.83 250.60 291.70 248.00 279.00 C 245.40 266.30 249.95 251.86 248.00 239.00
C 223.81 237.36 199.14 241.18 175.00 239.00
C 170.88 235.04 174.45 222.77 174.98 216.98 C 175.50 211.18 185.21 208.26 190.00 208.00
C 199.31 207.50 208.69 208.38 218.00 208.00
C 217.22 199.46 216.78 188.48 218.00 180.00
C 199.23 184.17 181.41 177.18 162.00 180.00 C 142.59 182.82 133.88 167.28 136.00 149.00 C 138.12 130.72 135.10 112.13 136.00 93.00 C 136.90 73.87 135.68 56.12 136.00 36.00 C 136.32 15.88 155.31 14.57 173.00 16.00 C 190.69 17.43 210.65 15.39 229.00 16.00 C 247.35 16.61 267.34 15.77 286.00 16.00 C 304.66 16.23 324.25 16.00 343.00 16.00
C 358.50 16.00 376.56 16.86 376.00 36.00 C 375.44 55.14 376.08 72.11 376.00 90.00 C 375.92 107.89 375.64 126.40 376.00 143.00 C 376.36 159.60 377.73 177.93 358.00 179.00 Z"/>
</g>
<g fill="#D7EBFD" fill-opacity="1.00" stroke="None">
<path d="
M 218.00 180.00 
C 218.05 179.65 218.65 179.05 219.00 179.00
C 239.37 176.07 262.39 179.00 283.00 179.00
C 286.33 179.00 289.67 179.00 293.00 179.00
C 293.50 179.00 294.00 179.00 294.00 179.00
C 310.00 179.00 326.00 179.00 342.00 179.00
C 362.57 175.10 356.82 146.51 357.00 130.00 C 357.18 113.49 357.56 82.44 357.00 66.00 C 356.44 49.56 363.10 20.98 343.00 16.00
C 324.25 16.00 304.66 16.23 286.00 16.00 C 267.34 15.77 247.35 16.61 229.00 16.00 C 210.65 15.39 190.69 17.43 173.00 16.00 C 155.31 14.57 136.32 15.88 136.00 36.00 C 135.68 56.12 136.90 73.87 136.00 93.00 C 135.10 112.13 138.12 130.72 136.00 149.00 C 133.88 167.28 142.59 182.82 162.00 180.00 C 181.41 177.18 199.23 184.17 218.00 180.00
M 267.00 34.00 
C 278.35 35.10 287.56 39.63 298.68 43.32 C 309.80 47.01 312.42 55.43 323.75 60.25 C 335.07 65.08 331.55 86.19 320.31 79.69 C 309.07 73.20 307.67 66.05 296.92 61.08 C 286.16 56.11 276.42 51.74 265.00 51.00 C 253.58 50.26 238.89 49.80 229.33 54.33 C 219.77 58.86 208.91 61.74 202.75 69.75 C 196.60 77.77 180.85 85.62 180.01 72.99 C 179.17 60.37 193.15 58.35 200.23 51.23 C 207.31 44.11 218.84 41.27 228.68 37.68 C 238.52 34.08 255.61 32.90 267.00 34.00
M 268.00 64.00 
C 277.67 65.38 289.79 72.53 298.08 76.92 C 306.38 81.30 319.57 96.44 307.97 100.97 C 296.37 105.51 292.40 88.55 281.92 86.08 C 271.43 83.61 256.64 75.90 244.99 80.99 C 233.35 86.08 225.50 83.93 216.75 95.75 C 208.00 107.58 193.05 96.45 203.25 86.25 C 213.44 76.05 217.25 74.10 229.02 69.02 C 240.80 63.95 254.69 62.10 268.00 64.00
M 262.00 93.00 
C 273.79 94.91 277.28 99.91 288.25 105.75 C 299.22 111.60 289.09 129.92 279.75 120.25 C 270.42 110.57 262.22 110.83 250.00 110.00 C 237.78 109.17 235.89 125.87 224.33 122.67 C 212.77 119.47 220.93 104.73 230.08 101.08 C 239.23 97.43 250.56 91.14 262.00 93.00
M 262.00 120.00 
C 287.61 125.30 276.05 169.29 250.33 160.67 C 224.61 152.05 235.52 114.52 262.00 120.00 Z"/>
</g>
<g fill="#C4E2FE" fill-opacity="0.98" stroke="None">
<path d="
M 342.00 179.00 
C 347.31 179.00 352.70 179.29 358.00 179.00
C 377.73 177.93 376.36 159.60 376.00 143.00 C 375.64 126.40 375.92 107.89 376.00 90.00 C 376.08 72.11 375.44 55.14 376.00 36.00 C 376.56 16.86 358.50 16.00 343.00 16.00
C 363.10 20.98 356.44 49.56 357.00 66.00 C 357.56 82.44 357.18 113.49 357.00 130.00 C 356.82 146.51 362.57 175.10 342.00 179.00 Z"/>
</g>
<g fill="#FDE17B" fill-opacity="1.00" stroke="None">
<path d="
M 267.00 34.00 
C 255.61 32.90 238.52 34.08 228.68 37.68 C 218.84 41.27 207.31 44.11 200.23 51.23 C 193.15 58.35 179.17 60.37 180.01 72.99 C 180.85 85.62 196.60 77.77 202.75 69.75 C 208.91 61.74 219.77 58.86 229.33 54.33 C 238.89 49.80 253.58 50.26 265.00 51.00 C 276.42 51.74 286.16 56.11 296.92 61.08 C 307.67 66.05 309.07 73.20 320.31 79.69 C 331.55 86.19 335.07 65.08 323.75 60.25 C 312.42 55.43 309.80 47.01 298.68 43.32 C 287.56 39.63 278.35 35.10 267.00 34.00 Z"/>
</g>
<g fill="#FDE17B" fill-opacity="1.00" stroke="None">
<path d="
M 268.00 64.00 
C 254.69 62.10 240.80 63.95 229.02 69.02 C 217.25 74.10 213.44 76.05 203.25 86.25 C 193.05 96.45 208.00 107.58 216.75 95.75 C 225.50 83.93 233.35 86.08 244.99 80.99 C 256.64 75.90 271.43 83.61 281.92 86.08 C 292.40 88.55 296.37 105.51 307.97 100.97 C 319.57 96.44 306.38 81.30 298.08 76.92 C 289.79 72.53 277.67 65.38 268.00 64.00 Z"/>
</g>
<g fill="#FDE17C" fill-opacity="1.00" stroke="None">
<path d="
M 262.00 93.00 
C 250.56 91.14 239.23 97.43 230.08 101.08 C 220.93 104.73 212.77 119.47 224.33 122.67 C 235.89 125.87 237.78 109.17 250.00 110.00 C 262.22 110.83 270.42 110.57 279.75 120.25 C 289.09 129.92 299.22 111.60 288.25 105.75 C 277.28 99.91 273.79 94.91 262.00 93.00 Z"/>
</g>
<g fill="#FEE17A" fill-opacity="1.00" stroke="None">
<path d="
M 262.00 120.00 
C 235.52 114.52 224.61 152.05 250.33 160.67 C 276.05 169.29 287.61 125.30 262.00 120.00
M 258.00 136.00 
C 262.51 137.94 259.35 147.17 254.33 144.67 C 249.30 142.16 252.97 133.84 258.00 136.00 Z"/>
</g>
<g fill="#D8EBFD" fill-opacity="1.00" stroke="None">
<path d="
M 258.00 136.00 
C 252.97 133.84 249.30 142.16 254.33 144.67 C 259.35 147.17 262.51 137.94 258.00 136.00 Z"/>
</g>
<g fill="#A79CA7" fill-opacity="0.53" stroke="None">
<path d="
M 218.00 180.00 
C 216.78 188.48 217.22 199.46 218.00 208.00
C 218.32 207.76 219.00 208.00 219.00 208.00
C 219.69 200.39 221.31 186.22 219.00 179.00
C 218.65 179.05 218.05 179.65 218.00 180.00 Z"/>
</g>
<g fill="#A69AA6" fill-opacity="1.00" stroke="None">
<path d="
M 219.00 208.00 
C 240.33 208.00 261.67 208.00 283.00 208.00
C 283.00 198.33 283.00 188.67 283.00 179.00
C 262.39 179.00 239.37 176.07 219.00 179.00
C 221.31 186.22 219.69 200.39 219.00 208.00 Z"/>
</g>
<g fill="#837683" fill-opacity="1.00" stroke="None">
<path d="
M 283.00 208.00 
C 286.33 208.00 289.67 208.00 293.00 208.00
C 292.17 198.86 292.17 188.14 293.00 179.00
C 289.67 179.00 286.33 179.00 283.00 179.00
C 283.00 188.67 283.00 198.33 283.00 208.00 Z"/>
</g>
<g fill="#908390" fill-opacity="0.78" stroke="None">
<path d="
M 293.00 208.00 
C 293.50 208.00 294.00 208.00 294.00 208.00
C 294.83 198.84 294.00 189.21 294.00 180.00
C 294.00 179.50 294.00 179.00 294.00 179.00
C 294.00 179.00 293.50 179.00 293.00 179.00
C 292.17 188.14 292.17 198.86 293.00 208.00 Z"/>
</g>
<g fill="#D0EDFF" fill-opacity="0.08" stroke="None">
<path d="
M 294.00 180.00 
C 313.83 181.79 339.00 182.08 358.00 179.00
C 352.70 179.29 347.31 179.00 342.00 179.00
C 326.00 179.00 310.00 179.00 294.00 179.00
C 294.00 179.00 294.00 179.50 294.00 180.00 Z"/>
</g>
<g fill="#EBEDF0" fill-opacity="0.99" stroke="None">
<path d="
M 175.00 239.00 
C 174.96 239.00 175.00 238.00 175.00 238.00
C 174.64 236.42 175.27 234.60 175.00 233.00
C 226.67 233.00 278.33 233.00 330.00 233.00
C 329.53 225.03 331.06 216.57 329.00 209.00
C 326.65 208.14 324.55 208.14 322.00 208.00
C 315.65 208.27 299.67 212.19 294.00 208.00
C 294.00 208.00 293.50 208.00 293.00 208.00
C 289.67 208.00 286.33 208.00 283.00 208.00
C 261.67 208.00 240.33 208.00 219.00 208.00
C 219.00 208.00 218.32 207.76 218.00 208.00
C 212.31 212.21 196.24 208.27 190.00 208.00
C 185.21 208.26 175.50 211.18 174.98 216.98 C 174.45 222.77 170.88 235.04 175.00 239.00 Z"/>
</g>
<g fill="#ECEEF1" fill-opacity="0.80" stroke="None">
<path d="
M 218.00 208.00 
C 208.69 208.38 199.31 207.50 190.00 208.00
C 196.24 208.27 212.31 212.21 218.00 208.00 Z"/>
</g>
<g fill="#ECEEF1" fill-opacity="0.80" stroke="None">
<path d="
M 322.00 208.00 
C 312.69 207.50 303.31 208.38 294.00 208.00
C 299.67 212.19 315.65 208.27 322.00 208.00 Z"/>
</g>
<g fill="#D1D1D6" fill-opacity="0.99" stroke="None">
<path d="
M 175.00 238.00 
C 198.30 235.89 225.50 236.82 248.00 239.00
C 253.00 239.48 258.99 239.48 264.00 239.00
C 286.59 236.81 313.69 235.89 337.00 238.00
C 337.00 231.83 337.76 225.12 337.00 219.00
C 335.88 214.47 333.84 210.77 329.00 209.00
C 331.06 216.57 329.53 225.03 330.00 233.00
C 278.33 233.00 226.67 233.00 175.00 233.00
C 175.27 234.60 174.64 236.42 175.00 238.00 Z"/>
</g>
<g fill="#DEE1E1" fill-opacity="0.25" stroke="None">
<path d="
M 337.00 238.00 
C 337.00 238.50 337.00 239.00 337.00 239.00
C 340.20 235.93 337.91 222.67 337.00 219.00
C 337.76 225.12 337.00 231.83 337.00 238.00 Z"/>
</g>
<g fill="#DADADF" fill-opacity="0.78" stroke="None">
<path d="
M 175.00 239.00 
C 199.14 241.18 223.81 237.36 248.00 239.00
C 225.50 236.82 198.30 235.89 175.00 238.00
C 175.00 238.00 174.96 239.00 175.00 239.00 Z"/>
</g>
<g fill="#DADADF" fill-opacity="0.78" stroke="None">
<path d="
M 264.00 239.00 
C 288.19 237.36 312.86 241.19 337.00 239.00
C 337.00 239.00 337.00 238.50 337.00 238.00
C 313.69 235.89 286.59 236.81 264.00 239.00 Z"/>
</g>
<g fill="#A79BA7" fill-opacity="0.96" stroke="None">
<path d="
M 196.00 347.00 
C 195.46 354.93 195.27 363.45 196.00 371.00
C 216.88 352.28 235.58 329.59 257.00 312.00
C 261.08 317.43 267.23 322.14 271.75 327.25 C 276.27 332.35 282.02 336.58 286.25 341.75 C 290.47 346.92 297.74 351.36 301.25 356.75 C 304.76 362.14 313.95 365.44 316.00 371.00
C 316.74 363.39 316.59 354.91 316.00 347.00
C 310.00 336.12 295.20 331.46 288.75 320.25 C 282.31 309.04 265.97 306.13 264.00 292.00 C 262.03 277.87 265.48 254.02 264.00 239.00
C 258.99 239.48 253.00 239.48 248.00 239.00
C 249.95 251.86 245.40 266.30 248.00 279.00 C 250.60 291.70 244.29 299.83 236.25 307.25 C 228.20 314.66 222.47 319.59 216.25 327.25 C 210.03 334.91 200.40 338.84 196.00 347.00 Z"/>
</g>
<g fill="#D6EBFE" fill-opacity="0.99" stroke="None">
<path d="
M 77.00 452.00 
C 77.05 451.65 77.65 451.05 78.00 451.00
C 95.82 448.43 115.97 451.00 134.00 451.00
C 145.30 451.00 157.48 450.98 168.00 452.00
C 177.07 452.00 192.90 453.79 195.02 442.02 C 197.14 430.26 196.17 418.97 196.00 407.00 C 195.83 395.03 197.15 382.88 196.00 371.00
C 195.27 363.45 195.46 354.93 196.00 347.00
C 197.27 328.29 181.14 327.80 166.00 329.00 C 150.86 330.20 133.34 327.83 118.00 329.00 C 102.66 330.17 85.11 327.09 70.00 329.00 C 54.89 330.91 37.83 324.65 23.70 329.70 C 9.56 334.74 17.67 357.85 16.00 370.00 C 14.33 382.15 17.19 405.69 16.00 418.00 C 14.81 430.31 13.61 453.17 30.00 452.00 C 46.39 450.83 61.37 455.47 77.00 452.00 Z"/>
</g>
<g fill="#D6EBFE" fill-opacity="0.99" stroke="None">
<path d="
M 316.00 347.00 
C 316.59 354.91 316.74 363.39 316.00 371.00
C 314.64 385.10 317.10 405.46 316.00 419.00 C 314.90 432.54 314.44 452.23 331.00 452.00 C 347.56 451.77 361.80 453.57 378.00 452.00
C 395.89 450.27 417.18 450.28 435.00 452.00
C 451.16 453.56 466.57 452.11 482.99 451.99 C 499.41 451.88 496.73 429.34 496.00 417.00 C 495.27 404.66 497.42 381.14 496.00 369.00 C 494.58 356.86 502.34 334.58 488.22 329.78 C 474.11 324.98 456.12 330.81 441.00 329.00 C 425.88 327.19 408.25 330.16 393.00 329.00 C 377.75 327.84 359.87 330.28 345.00 329.00 C 330.13 327.72 314.66 328.94 316.00 347.00 Z"/>
</g>
<g fill="#A89CA9" fill-opacity="0.56" stroke="None">
<path d="
M 77.00 452.00 
C 76.08 458.36 76.42 466.60 77.00 473.00
C 77.50 473.00 78.00 473.00 78.00 473.00
C 78.62 466.13 78.00 458.90 78.00 452.00
C 78.00 451.50 78.00 451.00 78.00 451.00
C 77.65 451.05 77.05 451.65 77.00 452.00 Z"/>
</g>
<g fill="#B6B7C6" fill-opacity="1.00" stroke="None">
<path d="
M 78.00 452.00 
C 93.71 453.42 110.22 452.00 126.00 452.00
C 128.63 452.00 131.38 452.24 134.00 452.00
C 133.96 452.00 134.00 451.00 134.00 451.00
C 115.97 451.00 95.82 448.43 78.00 451.00
C 78.00 451.00 78.00 451.50 78.00 452.00 Z"/>
</g>
<g fill="#D6EAFF" fill-opacity="0.40" stroke="None">
<path d="
M 134.00 452.00 
C 145.13 453.01 156.82 452.00 168.00 452.00
C 157.48 450.98 145.30 451.00 134.00 451.00
C 134.00 451.00 133.96 452.00 134.00 452.00 Z"/>
</g>
<g fill="#B6B7C7" fill-opacity="1.00" stroke="None">
<path d="
M 378.00 452.00 
C 378.00 451.96 379.00 452.00 379.00 452.00
C 394.67 452.00 410.33 452.00 426.00 452.00
C 428.67 452.00 431.33 452.00 434.00 452.00
C 434.50 452.00 435.00 452.00 435.00 452.00
C 417.18 450.28 395.89 450.27 378.00 452.00 Z"/>
</g>
<g fill="#A69AA6" fill-opacity="1.00" stroke="None">
<path d="
M 78.00 473.00 
C 94.00 472.99 110.00 473.00 126.00 473.00
C 126.00 466.00 126.00 459.00 126.00 452.00
C 110.22 452.00 93.71 453.42 78.00 452.00
C 78.00 458.90 78.62 466.13 78.00 473.00 Z"/>
</g>
<g fill="#837683" fill-opacity="0.99" stroke="None">
<path d="
M 126.00 473.00 
C 128.62 473.00 131.39 472.75 134.00 473.00
C 134.00 466.00 134.00 459.00 134.00 452.00
C 131.38 452.24 128.63 452.00 126.00 452.00
C 126.00 459.00 126.00 466.00 126.00 473.00 Z"/>
</g>
<g fill="#A79BA7" fill-opacity="0.77" stroke="None">
<path d="
M 378.00 473.00 
C 378.50 473.00 379.00 473.00 379.00 473.00
C 379.60 466.38 379.60 458.62 379.00 452.00
C 379.00 452.00 378.00 451.96 378.00 452.00
C 377.40 458.62 377.40 466.38 378.00 473.00 Z"/>
</g>
<g fill="#A79BA7" fill-opacity="1.00" stroke="None">
<path d="
M 379.00 473.00 
C 394.67 472.99 410.33 473.00 426.00 473.00
C 426.00 466.00 426.00 459.00 426.00 452.00
C 410.33 452.00 394.67 452.00 379.00 452.00
C 379.60 458.62 379.60 466.38 379.00 473.00 Z"/>
</g>
<g fill="#847784" fill-opacity="1.00" stroke="None">
<path d="
M 426.00 473.00 
C 428.67 473.00 431.33 473.00 434.00 473.00
C 433.41 466.38 433.40 458.62 434.00 452.00
C 431.33 452.00 428.67 452.00 426.00 452.00
C 426.00 459.00 426.00 466.00 426.00 473.00 Z"/>
</g>
<g fill="#8E818E" fill-opacity="0.80" stroke="None">
<path d="
M 434.00 473.00 
C 434.50 473.00 435.00 473.00 435.00 473.00
C 435.60 466.38 435.60 458.62 435.00 452.00
C 435.00 452.00 434.50 452.00 434.00 452.00
C 433.40 458.62 433.41 466.38 434.00 473.00 Z"/>
</g>
<g fill="#EAEDEF" fill-opacity="0.99" stroke="None">
<path d="
M 44.00 491.00 
C 46.86 495.04 56.87 490.91 62.00 492.00 C 67.13 493.09 76.07 491.50 82.00 492.00 C 87.93 492.50 95.75 491.76 102.00 492.00 C 108.25 492.24 114.56 491.90 121.00 492.00 C 127.44 492.10 134.45 491.95 141.00 492.00 C 147.55 492.05 154.42 491.96 161.00 492.00
C 161.00 486.00 161.00 480.00 161.00 474.00
C 159.50 473.29 158.68 473.18 157.00 473.00
C 150.04 473.01 141.01 473.68 134.00 473.00
C 131.39 472.75 128.62 473.00 126.00 473.00
C 110.00 473.00 94.00 472.99 78.00 473.00
C 78.00 473.00 77.50 473.00 77.00 473.00
C 61.33 473.00 41.35 469.10 44.00 491.00 Z"/>
</g>
<g fill="#ECEEF1" fill-opacity="0.73" stroke="None">
<path d="
M 157.00 473.00 
C 149.42 472.20 141.60 473.60 134.00 473.00
C 141.01 473.68 150.04 473.01 157.00 473.00 Z"/>
</g>
<g fill="#EBEEF0" fill-opacity="0.99" stroke="None">
<path d="
M 345.00 482.00 
C 344.84 483.92 346.25 488.20 346.00 491.00
C 384.67 490.96 423.33 491.03 462.00 491.00
C 461.24 485.37 463.86 478.59 460.00 474.00
C 452.89 471.84 442.99 473.00 435.00 473.00
C 435.00 473.00 434.50 473.00 434.00 473.00
C 431.33 473.00 428.67 473.00 426.00 473.00
C 410.33 473.00 394.67 472.99 379.00 473.00
C 379.00 473.00 378.50 473.00 378.00 473.00
C 368.12 473.00 347.40 468.62 345.00 482.00 Z"/>
</g>
<g fill="#D1D1D6" fill-opacity="0.98" stroke="None">
<path d="
M 44.00 491.00 
C 44.00 492.67 44.00 494.33 44.00 496.00
C 85.00 496.00 126.00 496.00 167.00 496.00
C 166.58 488.11 169.42 477.97 161.00 474.00
C 161.00 480.00 161.00 486.00 161.00 492.00
C 154.42 491.96 147.55 492.05 141.00 492.00 C 134.45 491.95 127.44 492.10 121.00 492.00 C 114.56 491.90 108.25 492.24 102.00 492.00 C 95.75 491.76 87.93 492.50 82.00 492.00 C 76.07 491.50 67.13 493.09 62.00 492.00 C 56.87 490.91 46.86 495.04 44.00 491.00 Z"/>
</g>
<g fill="#D3D3D8" fill-opacity="0.98" stroke="None">
<path d="
M 346.00 491.00 
C 345.50 491.00 345.00 491.00 345.00 491.00
C 345.00 492.67 345.00 494.33 345.00 496.00
C 386.00 496.00 427.00 496.00 468.00 496.00
C 468.21 486.93 469.95 477.02 460.00 474.00
C 463.86 478.59 461.24 485.37 462.00 491.00
C 423.33 491.03 384.67 490.96 346.00 491.00 Z"/>
</g>
<g fill="#EBEFF1" fill-opacity="0.48" stroke="None">
<path d="
M 345.00 491.00 
C 345.00 491.00 345.50 491.00 346.00 491.00
C 346.25 488.20 344.84 483.92 345.00 482.00
C 344.53 484.64 344.76 488.32 345.00 491.00 Z"/>
</g>
</svg>