<svg id="svg" version="1.1" xmlns="http://www.w3.org/2000/svg" xmlns:xlink="http://www.w3.org/1999/xlink" width="400" height="266.1818181818182" viewBox="0, 0, 400,266.1818181818182"><g id="svgg"><path id="path0" d="M0.000 119.441 C 0.000 236.133,0.012 238.881,0.500 238.881 C 0.813 238.881,1.134 238.559,1.356 238.023 C 1.762 237.044,4.267 234.033,6.248 232.143 C 8.246 230.237,13.016 226.897,13.740 226.897 C 13.910 226.897,14.198 226.718,14.380 226.499 C 14.562 226.280,15.280 225.931,15.976 225.724 C 16.672 225.518,17.596 225.165,18.029 224.942 C 18.462 224.718,19.825 224.357,21.059 224.140 C 22.293 223.923,23.662 223.605,24.101 223.433 C 24.541 223.261,26.693 223.076,28.885 223.021 L 32.870 222.920 33.731 221.979 C 34.205 221.462,34.731 221.039,34.899 221.039 C 35.067 221.039,35.522 220.816,35.911 220.543 C 36.300 220.270,37.097 219.896,37.683 219.712 C 38.269 219.527,39.145 219.137,39.630 218.844 C 40.893 218.082,46.452 218.278,48.059 219.141 C 48.639 219.452,49.312 219.707,49.554 219.707 C 49.954 219.707,50.484 220.060,52.845 221.896 C 53.786 222.629,55.390 224.297,55.392 224.547 C 55.392 224.645,55.677 225.065,56.024 225.479 C 56.371 225.893,56.739 226.616,56.841 227.085 C 56.944 227.554,57.283 228.263,57.596 228.661 C 58.479 229.783,58.457 236.288,57.565 238.175 C 57.029 239.307,57.001 239.519,57.337 239.906 C 57.782 240.417,59.654 244.524,59.654 244.988 C 59.654 245.161,59.887 245.813,60.171 246.438 C 60.638 247.463,61.363 252.480,61.581 256.192 L 61.651 257.390 63.116 257.876 C 63.921 258.142,64.770 258.532,65.001 258.741 C 65.232 258.950,65.519 259.121,65.639 259.121 C 65.759 259.121,66.471 259.529,67.222 260.027 C 69.224 261.356,70.881 263.250,72.300 265.833 C 72.553 266.293,79.020 266.312,236.282 266.312 L 400.000 266.312 400.000 133.156 L 400.000 0.000 365.154 0.000 L 330.309 0.000 330.151 4.242 C 330.037 7.314,329.878 8.707,329.577 9.289 C 329.348 9.731,329.027 10.728,328.862 11.505 C 328.698 12.281,328.291 13.395,327.958 13.981 C 327.625 14.567,327.263 15.346,327.154 15.712 C 327.045 16.079,326.724 16.678,326.441 17.044 C 326.158 17.410,325.450 18.462,324.869 19.380 C 323.286 21.883,317.888 27.005,316.207 27.600 C 315.935 27.696,315.339 28.051,314.883 28.387 C 314.427 28.724,313.708 29.081,313.285 29.181 C 312.863 29.281,312.157 29.577,311.718 29.839 C 311.278 30.101,310.439 30.394,309.854 30.491 C 309.268 30.588,307.918 30.958,306.855 31.313 C 304.233 32.187,296.719 32.270,294.901 31.444 C 294.293 31.168,293.095 30.793,292.238 30.610 C 291.380 30.427,290.320 30.067,289.880 29.810 C 289.441 29.553,288.572 29.208,287.949 29.042 C 287.327 28.877,286.818 28.622,286.818 28.476 C 286.818 28.330,286.308 27.973,285.686 27.683 C 283.876 26.839,282.332 25.619,279.627 22.893 C 278.236 21.491,276.881 20.262,276.616 20.161 C 276.077 19.956,274.301 20.603,274.301 21.004 C 274.301 21.147,273.852 21.411,273.302 21.592 C 272.753 21.772,271.884 22.137,271.372 22.403 C 268.738 23.769,261.531 23.733,258.589 22.338 C 254.893 20.586,253.437 19.645,252.115 18.151 C 251.940 17.954,251.550 17.534,251.247 17.219 C 250.616 16.562,248.735 13.755,248.735 13.471 C 248.735 13.367,248.446 12.661,248.093 11.901 C 247.156 9.885,246.674 5.480,247.091 2.745 C 247.265 1.601,247.406 0.516,247.405 0.333 C 247.404 0.067,222.485 0.000,123.702 0.000 L 0.000 0.000 0.000 119.441 M34.292 9.840 C 36.351 10.040,36.894 10.192,37.574 10.765 C 38.023 11.143,38.613 11.451,38.887 11.451 C 39.160 11.451,39.541 11.674,39.732 11.946 C 39.923 12.218,40.343 12.523,40.664 12.625 C 41.353 12.843,43.941 15.746,43.941 16.301 C 43.941 16.512,44.229 16.955,44.580 17.285 C 44.972 17.653,45.286 18.330,45.391 19.036 C 45.486 19.669,45.793 20.450,46.072 20.772 C 46.657 21.447,47.002 23.297,46.753 24.430 C 46.302 26.485,47.185 26.998,49.080 25.782 C 50.789 24.685,56.647 24.486,58.002 25.479 C 58.398 25.769,59.116 26.143,59.599 26.309 C 60.615 26.659,63.341 29.293,63.998 30.559 C 64.245 31.035,64.656 31.814,64.912 32.290 C 65.945 34.215,65.601 40.606,64.367 42.425 C 63.146 44.223,61.572 45.953,60.809 46.335 C 60.393 46.543,59.814 46.919,59.521 47.171 C 58.711 47.867,54.685 48.812,53.262 48.641 C 50.789 48.342,48.751 47.731,47.930 47.040 C 47.472 46.654,46.986 46.338,46.851 46.338 C 46.357 46.338,44.420 44.346,43.891 43.294 C 43.592 42.698,43.171 42.010,42.956 41.765 C 42.741 41.520,42.420 40.322,42.243 39.102 L 41.921 36.884 40.895 36.947 C 40.219 36.989,39.740 37.193,39.493 37.546 C 39.287 37.841,38.894 38.083,38.621 38.083 C 38.347 38.083,37.772 38.378,37.342 38.740 C 35.817 40.023,26.819 40.152,25.441 38.910 C 25.144 38.642,24.490 38.285,23.988 38.117 C 22.989 37.782,23.022 37.808,20.440 35.379 C 19.451 34.449,18.642 33.548,18.642 33.376 C 18.642 33.204,18.352 32.719,17.998 32.299 C 17.644 31.878,17.271 31.089,17.169 30.545 C 17.067 30.001,16.728 29.230,16.415 28.832 C 15.555 27.739,15.549 21.344,16.407 20.546 C 16.715 20.259,17.046 19.537,17.141 18.942 C 17.236 18.347,17.538 17.647,17.812 17.386 C 18.085 17.124,18.383 16.670,18.473 16.376 C 18.807 15.286,22.895 11.451,23.723 11.451 C 23.982 11.451,24.572 11.133,25.034 10.744 C 25.747 10.144,26.227 10.008,28.184 9.851 C 31.556 9.580,31.603 9.580,34.292 9.840 M192.264 112.234 C 192.495 112.514,192.565 114.443,192.519 119.358 C 192.449 126.842,192.533 127.157,194.193 125.618 C 194.665 125.180,195.337 124.927,196.338 124.809 C 197.139 124.715,198.227 124.457,198.756 124.236 C 199.962 123.733,201.407 123.722,202.353 124.212 C 202.753 124.419,203.537 124.674,204.093 124.778 C 204.650 124.883,205.406 125.246,205.772 125.585 C 206.138 125.925,206.518 126.239,206.615 126.284 C 208.162 126.995,208.757 130.230,209.102 139.814 C 209.564 152.673,209.571 152.386,208.788 152.784 C 207.875 153.247,198.383 153.270,197.923 152.810 C 197.690 152.577,197.598 150.452,197.584 145.020 C 197.561 136.208,197.452 135.156,196.460 134.167 C 196.064 133.770,195.739 133.332,195.739 133.193 C 195.739 132.816,194.692 133.160,193.620 133.887 L 192.676 134.528 192.763 138.569 C 192.810 140.791,192.965 143.688,193.106 145.007 C 193.782 151.314,193.725 152.337,192.670 152.817 C 191.683 153.267,182.055 153.249,181.681 152.796 C 181.503 152.580,181.360 146.915,181.273 136.618 C 181.186 126.315,181.034 120.306,180.839 119.441 C 179.698 114.375,180.025 113.426,183.029 113.085 C 183.875 112.989,185.012 112.672,185.555 112.380 C 186.818 111.704,191.734 111.596,192.264 112.234 M353.944 113.452 C 354.726 113.600,355.619 113.960,355.929 114.251 C 356.239 114.542,356.644 114.780,356.829 114.780 C 358.688 114.780,362.050 120.611,362.051 123.835 C 362.051 126.320,362.845 127.146,363.852 125.707 C 364.127 125.315,364.737 125.069,365.942 124.867 C 366.878 124.709,368.157 124.413,368.784 124.208 C 370.241 123.732,371.601 123.733,372.526 124.212 C 372.926 124.419,373.710 124.674,374.266 124.778 C 374.823 124.883,375.586 125.252,375.961 125.600 C 376.336 125.947,376.737 126.232,376.852 126.232 C 376.967 126.232,377.141 126.483,377.239 126.791 C 377.336 127.098,377.644 127.577,377.922 127.856 C 378.225 128.158,378.429 128.733,378.429 129.284 C 378.429 129.792,378.653 130.780,378.927 131.481 C 379.688 133.426,380.057 152.019,379.347 152.609 C 378.685 153.159,368.545 153.335,368.104 152.804 C 367.906 152.565,367.782 149.539,367.726 143.514 L 367.643 134.579 366.777 133.713 C 365.828 132.764,364.549 132.727,364.173 133.638 C 364.070 133.885,364.009 138.176,364.035 143.172 C 364.095 154.344,364.820 153.129,358.096 153.129 C 351.066 153.129,351.783 154.115,351.827 144.500 C 351.867 135.868,351.816 135.550,350.390 135.556 C 348.039 135.566,347.930 136.260,348.734 146.128 C 349.321 153.328,349.499 153.129,342.471 153.129 C 338.973 153.129,337.430 153.035,337.203 152.809 C 336.960 152.566,336.920 150.362,337.037 143.688 C 337.194 134.735,337.043 131.917,336.250 129.082 C 336.013 128.232,335.819 127.429,335.819 127.297 C 335.819 126.970,337.480 125.436,337.836 125.434 C 338.414 125.432,339.336 124.163,339.161 123.611 C 339.060 123.293,339.267 122.421,339.669 121.466 C 340.041 120.581,340.346 119.689,340.346 119.485 C 340.346 118.017,344.887 114.013,347.156 113.481 C 348.600 113.143,352.232 113.127,353.944 113.452 M173.848 116.175 C 174.338 116.982,174.360 117.307,174.156 120.768 C 173.898 125.154,173.647 124.701,176.449 124.887 C 179.300 125.076,179.286 125.056,179.069 128.762 C 178.866 132.246,178.650 132.622,176.856 132.626 C 176.183 132.628,175.183 132.703,174.634 132.794 L 173.635 132.959 173.635 138.392 C 173.635 142.976,173.698 143.849,174.035 143.978 C 174.254 144.063,174.434 144.301,174.434 144.509 C 174.434 145.092,175.690 145.435,177.126 145.244 C 179.119 144.980,179.228 145.168,179.228 148.901 C 179.228 152.822,179.126 152.971,176.299 153.208 C 175.228 153.298,174.226 153.497,174.073 153.650 C 173.655 154.068,170.373 153.985,169.282 153.529 C 168.756 153.309,167.907 153.129,167.395 153.129 C 166.719 153.129,166.239 152.910,165.646 152.330 C 165.196 151.891,164.715 151.531,164.576 151.531 C 164.438 151.531,164.251 151.238,164.161 150.880 C 164.071 150.521,163.709 150.039,163.357 149.808 L 162.716 149.389 162.716 141.325 C 162.716 132.398,162.761 132.623,160.973 132.623 C 159.077 132.623,158.868 132.144,159.264 128.710 C 159.670 125.194,159.801 124.900,160.973 124.900 C 162.713 124.900,162.716 124.893,162.716 121.442 C 162.716 117.903,162.740 117.855,164.650 117.571 C 165.348 117.467,166.227 117.139,166.604 116.842 C 167.077 116.471,167.909 116.242,169.280 116.108 C 170.805 115.959,171.392 115.781,171.799 115.344 C 172.451 114.645,173.073 114.897,173.848 116.175 M139.066 115.856 L 139.875 116.665 139.702 119.251 C 139.606 120.674,139.461 122.450,139.379 123.198 C 139.203 124.794,139.360 124.890,142.134 124.896 C 144.303 124.901,144.428 125.132,144.300 128.893 C 144.180 132.376,144.034 132.613,141.978 132.650 C 139.766 132.689,139.139 132.926,139.190 133.705 C 139.213 134.062,139.119 136.231,138.982 138.525 C 138.635 144.321,139.089 145.293,142.102 145.204 C 144.623 145.129,144.689 145.233,144.460 148.946 C 144.220 152.854,144.230 152.841,141.123 153.326 C 136.974 153.973,136.254 153.999,134.748 153.551 C 133.965 153.319,132.940 153.129,132.470 153.129 C 131.630 153.129,129.161 151.210,129.161 150.558 C 129.161 150.418,128.862 149.897,128.495 149.401 L 127.830 148.498 127.830 140.860 C 127.830 132.361,127.909 132.714,125.960 132.575 L 124.767 132.490 124.692 129.226 C 124.605 125.434,124.777 124.900,126.086 124.900 C 127.826 124.900,127.830 124.893,127.830 121.442 C 127.830 117.903,127.853 117.855,129.763 117.571 C 130.461 117.467,131.345 117.135,131.728 116.834 C 132.225 116.443,132.988 116.240,134.386 116.125 C 135.720 116.016,136.493 115.818,136.805 115.506 C 137.475 114.836,138.151 114.941,139.066 115.856 M270.040 115.579 C 270.669 116.208,270.651 116.041,270.577 120.740 C 270.509 125.026,270.428 124.890,273.027 124.896 C 275.324 124.901,275.378 125.001,275.181 128.914 C 274.998 132.566,274.963 132.622,272.870 132.627 C 270.505 132.633,270.619 132.373,270.470 138.089 C 270.284 145.263,270.313 145.331,273.515 145.164 C 275.368 145.067,276.016 145.705,275.655 147.272 C 275.503 147.930,275.376 149.278,275.373 150.266 C 275.364 152.641,275.024 152.985,272.454 153.224 C 271.391 153.323,270.283 153.532,269.990 153.688 C 269.379 154.016,267.294 153.875,264.543 153.321 C 262.332 152.876,260.391 151.492,259.902 150.013 C 259.743 149.530,259.521 149.134,259.410 149.134 C 258.731 149.134,258.574 147.455,258.597 140.413 C 258.623 132.370,258.689 132.692,256.991 132.573 L 255.792 132.490 255.717 129.226 C 255.628 125.340,255.784 124.900,257.251 124.900 C 258.612 124.900,258.658 124.790,258.692 121.444 C 258.726 118.131,258.872 117.846,260.661 117.582 C 261.352 117.480,262.302 117.161,262.772 116.872 C 263.267 116.569,264.419 116.263,265.509 116.147 C 266.700 116.020,267.556 115.781,267.840 115.496 C 268.444 114.893,269.389 114.929,270.040 115.579 M37.770 116.578 C 37.902 116.834,38.090 117.758,38.188 118.631 C 38.286 119.503,38.561 120.432,38.799 120.695 C 39.058 120.981,39.364 122.132,39.560 123.559 C 39.757 124.993,40.055 126.111,40.306 126.363 C 40.735 126.792,40.879 127.423,41.123 129.930 C 41.199 130.719,41.450 131.573,41.680 131.827 C 41.910 132.081,42.197 132.911,42.317 133.671 C 42.761 136.481,43.202 135.962,43.512 132.263 C 43.589 131.343,43.824 130.504,44.085 130.215 C 44.355 129.916,44.637 128.864,44.809 127.513 C 44.987 126.119,45.280 125.044,45.600 124.609 C 45.955 124.129,46.175 123.205,46.324 121.567 C 46.457 120.114,46.678 119.106,46.904 118.929 C 47.106 118.771,47.450 118.103,47.670 117.443 L 48.069 116.245 55.290 116.174 C 61.017 116.118,62.571 116.176,62.803 116.455 C 63.608 117.425,63.924 121.620,64.182 134.744 C 64.422 146.968,64.541 149.898,64.865 151.461 C 65.165 152.908,64.390 153.129,59.007 153.129 C 53.006 153.129,53.264 153.277,53.257 149.848 C 53.254 148.503,53.126 146.565,52.973 145.539 C 52.820 144.514,52.663 141.578,52.625 139.015 C 52.533 132.816,51.725 131.009,51.133 135.677 C 50.987 136.832,50.686 137.973,50.463 138.220 C 50.229 138.478,49.933 139.668,49.762 141.038 C 49.554 142.703,49.312 143.578,48.949 143.978 C 48.572 144.393,48.391 145.096,48.279 146.575 C 48.162 148.125,47.978 148.803,47.498 149.453 C 47.153 149.921,46.871 150.673,46.871 151.124 C 46.871 152.985,46.516 153.129,41.942 153.129 C 36.298 153.129,36.391 153.186,36.082 149.589 C 35.949 148.037,35.774 147.392,35.389 147.032 C 35.013 146.683,34.805 145.961,34.626 144.387 C 34.468 143.001,34.192 141.957,33.861 141.484 C 33.530 141.012,33.289 140.100,33.194 138.959 C 33.112 137.977,32.807 136.706,32.515 136.135 C 32.224 135.564,31.914 134.451,31.825 133.660 C 31.737 132.870,31.600 131.806,31.521 131.296 L 31.377 130.368 31.011 131.029 C 30.718 131.559,30.643 133.787,30.635 142.150 L 30.626 152.610 29.943 152.869 C 29.066 153.203,21.033 153.202,20.506 152.868 C 19.978 152.534,20.096 143.686,20.685 139.414 C 21.412 134.149,21.533 132.058,21.552 124.453 C 21.569 118.003,21.630 116.890,21.990 116.530 C 22.661 115.859,37.424 115.904,37.770 116.578 M83.675 124.130 C 83.978 124.292,85.087 124.574,86.140 124.757 C 88.155 125.107,88.282 125.186,90.765 127.632 C 93.111 129.943,93.194 130.059,93.440 131.374 C 93.570 132.072,93.901 132.890,94.175 133.193 C 94.598 133.660,94.688 134.280,94.766 137.288 C 94.889 142.020,95.600 141.647,86.346 141.700 L 79.095 141.741 79.095 142.499 C 79.095 143.016,79.285 143.355,79.694 143.565 C 80.023 143.735,80.616 144.175,81.011 144.543 C 82.126 145.583,88.726 145.551,90.245 144.498 C 91.341 143.739,92.949 143.573,93.443 144.168 C 94.005 144.846,93.500 150.985,92.833 151.587 C 92.527 151.863,92.071 152.280,91.818 152.515 C 91.504 152.806,90.513 153.012,88.672 153.168 C 87.194 153.293,85.761 153.515,85.487 153.661 C 84.748 154.056,81.813 153.979,80.317 153.526 C 79.598 153.308,78.386 153.129,77.623 153.129 C 76.667 153.129,76.038 152.973,75.597 152.626 C 75.246 152.349,74.525 151.942,73.995 151.721 C 72.895 151.261,69.647 148.129,69.372 147.263 C 69.271 146.945,68.980 146.476,68.724 146.221 C 68.443 145.940,68.194 145.138,68.092 144.184 C 68.000 143.318,67.681 141.924,67.384 141.085 C 66.717 139.202,66.715 138.837,67.358 137.006 C 67.641 136.202,67.955 134.857,68.056 134.017 C 68.241 132.484,69.069 130.775,70.233 129.521 C 70.560 129.170,70.953 128.646,71.108 128.356 C 71.263 128.067,71.539 127.830,71.721 127.830 C 71.903 127.830,72.360 127.500,72.738 127.097 C 73.825 125.936,75.649 124.984,77.151 124.794 C 77.913 124.698,78.932 124.447,79.415 124.237 C 80.467 123.780,82.907 123.718,83.675 124.130 M113.049 124.245 C 113.635 124.458,114.767 124.711,115.565 124.809 C 116.522 124.925,117.202 125.178,117.562 125.550 C 117.863 125.860,118.439 126.258,118.842 126.434 C 119.244 126.609,119.574 126.938,119.574 127.165 C 119.574 127.391,119.874 127.690,120.240 127.830 C 120.606 127.969,120.905 128.261,120.905 128.478 C 120.905 128.695,121.218 129.163,121.599 129.517 C 122.040 129.925,122.379 130.617,122.527 131.411 C 122.655 132.098,123.002 132.968,123.298 133.344 C 123.776 133.951,123.835 134.420,123.835 137.592 L 123.835 141.158 123.152 141.418 C 122.769 141.563,119.312 141.678,115.296 141.678 C 108.640 141.678,108.123 141.711,108.127 142.144 C 108.132 142.783,108.347 143.066,109.636 144.140 C 111.436 145.639,118.100 145.814,119.515 144.400 C 120.174 143.740,121.902 143.580,122.450 144.128 C 122.808 144.486,122.848 145.828,122.596 149.063 L 122.425 151.255 121.273 152.152 C 120.199 152.989,119.949 153.060,117.609 153.200 C 116.227 153.282,114.854 153.480,114.557 153.639 C 113.876 154.003,110.651 154.018,109.982 153.659 C 109.706 153.511,108.448 153.286,107.187 153.158 C 105.467 152.984,104.749 152.790,104.312 152.381 C 103.991 152.082,103.392 151.754,102.981 151.651 C 102.570 151.549,102.046 151.181,101.818 150.833 C 101.590 150.485,101.232 150.200,101.022 150.200 C 100.813 150.200,100.437 149.840,100.187 149.400 C 99.938 148.960,99.536 148.537,99.294 148.458 C 99.052 148.380,98.780 148.018,98.688 147.653 C 98.597 147.289,98.275 146.743,97.972 146.441 C 97.619 146.088,97.336 145.306,97.179 144.251 C 97.045 143.348,96.819 142.130,96.676 141.545 C 96.084 139.109,96.945 132.486,97.978 131.523 C 98.285 131.238,98.535 130.831,98.535 130.620 C 98.535 130.135,102.413 126.232,102.895 126.232 C 103.091 126.232,103.555 125.950,103.926 125.606 C 104.378 125.188,105.074 124.923,106.029 124.806 C 106.814 124.710,107.936 124.458,108.522 124.245 C 109.108 124.032,110.126 123.858,110.786 123.858 C 111.445 123.858,112.463 124.032,113.049 124.245 M228.893 124.217 C 229.396 124.426,230.380 124.680,231.082 124.780 C 233.238 125.088,237.043 127.960,237.441 129.579 C 237.547 130.008,237.894 130.605,238.214 130.906 C 238.652 131.318,238.835 131.888,238.961 133.229 C 239.052 134.206,239.322 135.305,239.561 135.669 C 240.045 136.407,240.376 139.127,240.112 140.182 C 239.795 141.441,239.257 141.535,231.558 141.678 L 224.368 141.811 224.284 142.677 C 224.217 143.377,224.318 143.587,224.817 143.778 C 225.156 143.907,225.647 144.252,225.910 144.543 C 226.865 145.604,234.470 145.546,235.255 144.471 C 235.800 143.727,238.213 143.589,238.583 144.281 C 239.085 145.219,238.782 151.057,238.214 151.390 C 237.956 151.541,237.404 151.943,236.986 152.283 C 236.381 152.777,235.727 152.950,233.740 153.138 C 232.372 153.267,230.924 153.498,230.522 153.650 C 229.617 153.995,226.296 154.017,225.952 153.681 C 225.813 153.545,224.573 153.309,223.196 153.157 C 221.348 152.953,220.546 152.744,220.133 152.359 C 219.826 152.072,219.236 151.753,218.823 151.651 C 218.410 151.548,217.932 151.240,217.760 150.965 C 217.589 150.691,217.327 150.466,217.180 150.466 C 216.815 150.465,214.913 148.483,214.913 148.103 C 214.913 147.936,214.628 147.551,214.278 147.247 C 213.897 146.916,213.574 146.263,213.470 145.615 C 213.376 145.021,213.062 144.236,212.774 143.870 C 212.062 142.964,211.973 134.969,212.667 134.202 C 212.896 133.949,213.248 133.117,213.450 132.353 C 213.657 131.569,214.055 130.798,214.365 130.581 C 214.667 130.369,214.913 130.033,214.913 129.834 C 214.913 129.202,217.468 126.839,218.742 126.292 C 219.177 126.105,219.686 125.733,219.874 125.465 C 220.108 125.131,220.698 124.928,221.759 124.816 C 222.608 124.727,223.782 124.478,224.368 124.263 C 225.750 123.756,227.742 123.735,228.893 124.217 M293.278 124.315 C 293.467 124.471,294.266 124.685,295.053 124.789 C 295.840 124.894,296.681 125.176,296.922 125.417 C 297.163 125.658,297.723 126.006,298.167 126.190 C 299.101 126.576,301.465 129.266,301.465 129.943 C 301.465 130.194,301.748 130.666,302.093 130.990 C 302.588 131.455,302.758 131.967,302.891 133.397 C 302.984 134.397,303.240 135.646,303.461 136.174 C 303.681 136.702,303.862 137.898,303.862 138.832 C 303.862 141.604,304.078 141.530,295.700 141.624 L 288.659 141.703 288.412 142.354 C 288.155 143.030,288.307 143.808,288.697 143.808 C 288.820 143.808,289.225 144.091,289.597 144.436 C 290.922 145.663,297.456 145.663,299.120 144.436 C 300.055 143.745,301.923 143.574,302.477 144.128 C 302.689 144.340,302.796 145.496,302.796 147.567 L 302.796 150.687 301.447 151.761 C 300.448 152.557,299.774 152.873,298.851 152.981 C 298.165 153.061,296.824 153.263,295.872 153.430 C 293.190 153.899,290.841 154.004,290.059 153.689 C 289.668 153.531,288.209 153.277,286.818 153.125 C 284.917 152.916,284.188 152.725,283.888 152.358 C 283.668 152.089,283.109 151.742,282.644 151.588 C 282.180 151.434,281.521 151.052,281.180 150.739 C 279.637 149.325,278.831 148.446,278.830 148.177 C 278.829 148.017,278.588 147.668,278.294 147.402 C 278.001 147.137,277.632 146.442,277.475 145.858 C 277.318 145.274,276.951 144.474,276.659 144.080 C 275.927 143.089,275.997 134.130,276.742 133.587 C 276.986 133.408,277.272 132.803,277.378 132.241 C 277.483 131.679,277.787 131.002,278.052 130.737 C 278.317 130.472,278.711 129.919,278.929 129.508 C 279.512 128.406,281.492 126.628,282.532 126.273 C 283.031 126.103,283.595 125.742,283.785 125.471 C 284.024 125.130,284.605 124.929,285.673 124.816 C 286.522 124.727,287.696 124.471,288.282 124.247 C 289.472 123.792,292.702 123.836,293.278 124.315 M323.425 124.213 C 323.922 124.421,325.006 124.675,325.832 124.778 C 326.780 124.897,327.598 125.185,328.048 125.559 C 328.441 125.886,329.004 126.280,329.301 126.436 C 329.598 126.592,330.317 127.410,330.899 128.256 L 331.957 129.792 332.096 140.995 C 332.266 154.685,332.982 153.167,326.402 153.068 L 321.586 152.996 321.246 152.330 C 320.864 151.582,320.430 151.586,319.840 152.344 C 319.571 152.690,318.745 152.992,317.310 153.269 C 316.138 153.495,314.849 153.750,314.445 153.835 C 314.041 153.920,313.561 153.867,313.380 153.717 C 313.198 153.567,312.330 153.315,311.451 153.156 C 310.377 152.961,309.734 152.691,309.488 152.332 C 309.287 152.038,308.977 151.798,308.799 151.798 C 308.322 151.798,306.525 149.701,306.525 149.145 C 306.525 148.882,306.255 148.488,305.925 148.269 C 304.935 147.613,304.860 142.057,305.822 140.661 C 306.194 140.121,306.594 139.428,306.711 139.120 C 306.969 138.443,309.340 136.352,309.851 136.352 C 310.051 136.352,310.376 136.191,310.572 135.994 C 311.182 135.385,312.048 135.020,312.885 135.020 C 313.326 135.020,314.250 134.720,314.939 134.354 C 315.855 133.867,316.601 133.688,317.716 133.688 C 320.855 133.688,321.581 133.275,319.829 132.485 C 318.457 131.866,312.143 132.537,311.186 133.403 C 310.475 134.045,309.300 134.300,308.650 133.952 C 307.655 133.419,307.963 126.232,308.980 126.232 C 309.149 126.232,309.559 125.976,309.891 125.663 C 310.372 125.212,311.016 125.047,313.023 124.863 C 314.412 124.735,316.185 124.460,316.962 124.250 C 318.825 123.749,322.267 123.729,323.425 124.213 M80.692 131.875 C 80.692 132.008,80.266 132.296,79.745 132.514 C 78.872 132.878,78.804 132.987,78.879 133.898 L 78.961 134.887 81.491 134.887 L 84.021 134.887 83.943 134.088 C 83.901 133.648,83.672 133.169,83.434 133.023 C 83.197 132.876,82.800 132.564,82.552 132.329 C 82.035 131.839,80.692 131.511,80.692 131.875 M109.618 131.974 C 109.546 132.160,109.151 132.473,108.739 132.671 C 108.129 132.963,107.989 133.203,107.989 133.958 L 107.989 134.887 110.519 134.887 L 113.049 134.887 112.969 134.088 C 112.925 133.648,112.685 133.145,112.436 132.968 C 112.188 132.792,111.804 132.479,111.585 132.273 C 111.024 131.747,109.777 131.558,109.618 131.974 M225.949 131.851 C 225.856 132.001,225.497 132.231,225.151 132.363 C 224.805 132.494,224.281 133.074,223.987 133.652 C 223.328 134.942,223.457 135.022,226.187 135.016 C 228.709 135.011,228.939 134.851,228.316 133.546 C 227.806 132.480,226.249 131.365,225.949 131.851 M289.214 132.229 C 288.137 132.916,286.985 134.379,287.221 134.759 C 287.497 135.207,292.134 135.088,292.310 134.629 C 292.579 133.929,291.999 132.807,291.062 132.214 L 290.145 131.634 289.214 132.229 M318.975 140.258 C 318.718 140.328,318.509 140.475,318.509 140.585 C 318.509 140.695,317.969 141.054,317.310 141.383 C 315.157 142.458,316.122 145.140,318.662 145.140 C 320.536 145.140,321.039 144.511,321.039 142.168 L 321.039 140.213 320.240 140.171 C 319.800 140.149,319.231 140.187,318.975 140.258 M382.187 207.162 C 382.447 207.440,383.219 207.725,383.992 207.827 C 384.942 207.953,385.427 208.162,385.624 208.531 C 385.778 208.819,386.070 209.055,386.272 209.055 C 386.729 209.055,388.815 210.971,388.815 211.391 C 388.815 211.560,389.051 211.825,389.338 211.979 C 389.626 212.133,389.992 212.743,390.151 213.334 C 390.311 213.925,390.674 214.642,390.959 214.927 C 391.742 215.710,391.731 220.461,390.944 221.173 C 390.651 221.438,390.281 222.137,390.123 222.725 C 389.964 223.313,389.545 224.022,389.192 224.300 C 388.838 224.578,388.549 224.980,388.549 225.192 C 388.549 225.405,388.249 225.693,387.883 225.832 C 387.517 225.971,387.217 226.212,387.217 226.367 C 387.217 226.522,386.798 226.897,386.285 227.199 C 385.131 227.880,385.024 229.012,385.990 230.321 C 386.341 230.797,386.765 231.730,386.933 232.395 C 387.100 233.060,387.442 233.918,387.693 234.301 C 388.424 235.416,388.342 242.294,387.577 243.941 C 387.272 244.601,386.947 245.455,386.856 245.841 C 386.709 246.461,385.917 247.831,384.141 250.533 C 383.001 252.268,378.285 255.705,376.565 256.055 C 376.052 256.159,375.333 256.442,374.967 256.684 C 374.001 257.322,366.449 257.495,365.540 256.900 C 365.200 256.677,364.233 256.294,363.391 256.050 C 361.909 255.619,361.050 255.152,358.891 253.601 C 357.057 252.284,353.395 247.658,353.395 246.657 C 353.395 246.443,353.148 245.867,352.845 245.377 C 351.480 243.169,351.570 235.014,352.988 232.347 C 353.358 231.650,353.662 230.926,353.662 230.738 C 353.662 230.551,353.812 230.239,353.995 230.046 C 354.178 229.852,354.640 229.214,355.022 228.628 C 355.994 227.134,358.424 224.733,359.598 224.107 C 360.141 223.818,360.586 223.497,360.586 223.396 C 360.586 223.294,361.035 223.068,361.585 222.894 C 362.134 222.720,362.968 222.358,363.438 222.090 C 363.907 221.822,364.979 221.475,365.819 221.320 C 367.760 220.961,367.767 220.947,367.772 217.388 C 367.776 214.597,367.817 214.363,368.409 213.792 C 368.757 213.457,369.114 212.883,369.203 212.517 C 369.386 211.757,371.197 209.840,372.548 208.973 C 374.273 207.867,374.569 207.731,375.264 207.727 C 375.647 207.725,376.252 207.494,376.608 207.213 C 377.802 206.275,381.331 206.242,382.187 207.162 M227.334 221.344 C 232.519 222.116,237.510 225.920,240.120 231.091 C 242.073 234.961,242.272 243.043,240.490 246.151 C 240.221 246.620,239.916 247.290,239.812 247.639 C 239.332 249.243,234.238 254.594,233.190 254.594 C 232.997 254.594,232.633 254.821,232.382 255.099 C 232.130 255.377,231.377 255.742,230.707 255.911 C 230.037 256.079,229.031 256.451,228.470 256.737 C 226.965 257.505,220.963 257.501,219.453 256.731 C 218.886 256.441,217.871 256.081,217.199 255.930 C 216.526 255.780,215.751 255.447,215.475 255.192 C 215.200 254.936,214.464 254.427,213.839 254.061 C 211.889 252.919,207.989 248.427,207.989 247.325 C 207.989 247.194,207.744 246.742,207.445 246.321 C 205.479 243.561,205.561 235.347,207.593 231.526 C 207.958 230.841,208.256 230.080,208.256 229.835 C 208.256 229.591,208.525 229.140,208.855 228.835 C 209.184 228.530,209.814 227.846,210.253 227.316 C 211.180 226.198,211.458 225.917,212.452 225.095 C 214.241 223.616,214.847 223.225,215.846 222.908 C 216.431 222.721,217.091 222.414,217.310 222.223 C 218.453 221.234,223.575 220.785,227.334 221.344 " stroke="none" fill="#232373" fill-rule="evenodd"></path><path id="path1" d="M27.498 10.633 C 27.023 10.753,26.474 10.984,26.277 11.148 C 26.080 11.311,25.433 11.616,24.839 11.825 C 23.517 12.292,22.949 12.725,20.905 14.824 C 18.316 17.483,17.693 18.798,16.739 23.614 C 16.427 25.184,17.432 29.886,18.351 31.164 C 18.616 31.533,18.911 32.078,19.005 32.376 C 19.318 33.360,23.818 37.550,24.563 37.550 C 24.778 37.550,25.541 37.873,26.259 38.269 C 28.061 39.262,34.057 39.380,35.819 38.456 C 36.405 38.149,37.334 37.751,37.883 37.570 C 38.432 37.390,38.881 37.135,38.881 37.003 C 38.881 36.872,39.232 36.584,39.660 36.362 C 41.002 35.668,42.058 34.518,42.245 33.548 C 42.343 33.039,42.629 32.324,42.881 31.957 C 43.133 31.591,43.423 31.021,43.525 30.691 C 43.628 30.361,44.014 29.731,44.384 29.292 C 46.187 27.148,45.903 19.804,43.940 17.842 C 43.648 17.549,43.409 17.156,43.409 16.967 C 43.409 16.648,40.747 13.794,39.428 12.698 C 39.107 12.432,38.346 12.038,37.736 11.822 C 37.126 11.607,36.325 11.227,35.956 10.978 C 35.206 10.470,29.128 10.223,27.498 10.633 M188.948 112.560 C 188.655 112.630,187.936 112.858,187.350 113.068 C 186.764 113.278,185.289 113.556,184.071 113.688 C 181.499 113.965,181.506 113.960,181.550 115.256 C 181.568 115.800,181.722 120.020,181.892 124.634 C 182.064 129.271,182.140 137.272,182.063 142.525 C 181.955 149.914,181.998 152.088,182.255 152.301 C 182.472 152.481,184.175 152.519,187.188 152.411 L 191.790 152.245 192.056 151.555 C 192.202 151.176,192.255 150.326,192.173 149.667 C 192.091 149.008,192.007 145.179,191.986 141.158 L 191.949 133.847 192.783 133.102 C 194.613 131.467,197.302 132.475,197.903 135.020 C 198.024 135.533,198.126 139.624,198.129 144.113 C 198.135 150.830,198.201 152.298,198.506 152.415 C 198.710 152.493,200.926 152.488,203.431 152.403 L 207.987 152.249 208.215 151.423 C 208.340 150.968,208.350 149.938,208.236 149.133 C 208.122 148.328,208.019 144.134,208.007 139.814 C 207.979 129.326,207.810 128.493,205.240 126.238 C 203.690 124.876,196.671 124.773,195.215 126.091 C 194.976 126.307,194.288 126.658,193.685 126.870 C 191.790 127.539,191.765 127.448,191.682 119.425 L 191.611 112.517 190.546 112.475 C 189.960 112.452,189.241 112.490,188.948 112.560 M135.553 116.670 C 134.893 116.799,133.815 117.131,133.156 117.409 C 132.497 117.686,131.418 117.991,130.759 118.086 C 128.794 118.368,128.772 118.405,128.672 121.674 C 128.570 124.996,128.387 125.338,126.631 125.480 L 125.566 125.566 125.339 128.096 C 125.043 131.406,125.280 132.091,126.725 132.091 C 128.423 132.091,128.422 132.083,128.460 140.145 L 128.495 147.403 129.271 149.001 C 129.697 149.880,130.179 150.679,130.340 150.777 C 130.502 150.875,130.963 151.260,131.364 151.631 C 132.337 152.533,133.462 152.734,137.417 152.709 C 143.722 152.671,143.804 152.612,143.807 148.149 L 143.808 145.964 141.926 145.970 C 138.281 145.982,138.070 145.553,138.168 138.349 C 138.255 131.932,138.193 132.093,140.597 132.086 C 142.898 132.080,143.283 131.545,143.480 128.075 C 143.634 125.375,143.695 125.435,140.828 125.490 C 138.105 125.543,138.110 125.551,138.291 120.840 C 138.475 116.061,138.497 116.096,135.553 116.670 M170.439 116.670 C 169.780 116.799,168.702 117.131,168.043 117.409 C 167.383 117.686,166.291 117.992,165.615 118.089 C 163.511 118.389,163.395 118.581,163.292 121.935 C 163.193 125.184,163.111 125.349,161.530 125.479 C 160.224 125.587,159.997 126.249,160.110 129.637 L 160.186 131.957 161.380 132.042 C 163.326 132.181,163.249 131.849,163.249 140.123 L 163.249 147.558 164.043 149.079 C 165.788 152.422,168.581 153.322,175.078 152.635 C 178.427 152.280,178.466 152.241,178.634 149.027 C 178.785 146.135,178.581 145.607,177.431 145.914 C 176.237 146.233,174.459 145.819,173.680 145.040 L 172.969 144.329 172.921 138.809 C 172.862 132.067,172.831 132.150,175.430 132.036 C 177.622 131.940,178.001 131.396,178.305 127.904 L 178.494 125.741 177.329 125.623 C 176.689 125.557,175.640 125.489,174.998 125.472 C 173.136 125.421,173.103 125.341,173.103 120.926 C 173.103 116.098,173.132 116.145,170.439 116.670 M266.445 116.767 C 265.712 116.956,264.634 117.288,264.048 117.506 C 263.462 117.723,262.423 117.983,261.739 118.084 C 260.000 118.342,259.820 118.670,259.700 121.802 C 259.584 124.834,259.297 125.430,257.948 125.437 C 256.546 125.444,256.424 125.672,256.263 128.585 C 256.092 131.701,256.261 132.091,257.790 132.091 C 259.514 132.091,259.521 132.123,259.521 140.212 C 259.521 144.977,259.619 147.580,259.808 147.827 C 259.966 148.033,260.296 148.742,260.541 149.401 C 261.281 151.386,263.244 152.500,266.385 152.718 C 268.623 152.874,273.905 152.548,274.218 152.236 C 274.795 151.659,275.068 146.381,274.537 146.054 C 274.375 145.953,273.460 145.856,272.504 145.838 C 270.825 145.807,270.739 145.771,269.937 144.780 L 269.108 143.755 269.197 138.389 C 269.300 132.144,269.210 132.355,271.881 132.110 C 274.334 131.885,274.344 131.871,274.393 128.457 L 274.434 125.566 272.520 125.541 C 269.327 125.499,269.285 125.435,269.449 120.881 C 269.620 116.112,269.519 115.974,266.445 116.767 M23.273 116.899 C 22.405 117.260,22.405 117.262,22.101 129.544 C 21.944 135.907,21.701 142.049,21.561 143.193 C 20.950 148.175,20.734 151.866,21.034 152.166 C 21.407 152.538,28.771 152.419,29.161 152.034 C 29.323 151.874,29.493 147.790,29.595 141.581 C 29.796 129.435,29.899 128.628,31.252 128.628 C 31.509 128.628,32.192 130.926,32.354 132.332 C 32.445 133.124,32.700 134.121,32.921 134.547 C 33.141 134.974,33.487 136.184,33.689 137.235 C 33.891 138.287,34.236 139.576,34.456 140.100 C 34.675 140.623,34.997 141.882,35.171 142.896 C 35.345 143.910,35.659 145.077,35.868 145.489 C 36.078 145.901,36.413 147.159,36.614 148.285 C 37.388 152.636,37.394 152.640,42.344 152.383 L 45.939 152.197 46.270 150.522 C 46.452 149.601,46.777 148.508,46.992 148.092 C 47.207 147.677,47.513 146.522,47.672 145.526 C 47.831 144.531,48.187 143.167,48.462 142.497 C 48.738 141.827,49.099 140.450,49.264 139.438 C 49.429 138.426,49.730 137.277,49.933 136.884 C 50.136 136.492,50.442 135.342,50.612 134.330 C 50.782 133.318,51.203 131.831,51.547 131.025 C 51.892 130.220,52.302 129.056,52.459 128.440 C 53.395 124.764,53.791 127.342,53.830 137.368 C 53.849 142.301,53.939 147.716,54.030 149.401 L 54.194 152.463 58.855 152.367 C 61.418 152.314,63.619 152.174,63.746 152.057 C 63.992 151.828,63.500 136.177,63.084 131.025 C 62.948 129.341,62.750 125.542,62.643 122.583 C 62.525 119.279,62.337 117.090,62.157 116.910 C 61.955 116.709,59.811 116.643,55.289 116.698 C 48.042 116.786,48.390 116.695,48.090 118.573 C 47.997 119.154,47.749 119.962,47.539 120.367 C 47.330 120.773,47.028 121.929,46.870 122.936 C 46.711 123.943,46.287 125.626,45.927 126.676 C 45.567 127.726,45.270 128.924,45.267 129.339 C 45.264 129.754,45.021 130.623,44.727 131.271 C 44.433 131.918,44.075 133.276,43.932 134.288 C 43.502 137.322,42.815 137.947,42.126 135.931 C 41.930 135.357,41.536 134.277,41.250 133.531 C 40.964 132.785,40.610 131.407,40.464 130.468 C 40.319 129.530,39.975 128.222,39.702 127.563 C 39.428 126.904,39.118 125.706,39.013 124.900 C 38.909 124.095,38.609 122.956,38.347 122.370 C 38.085 121.784,37.733 120.406,37.565 119.308 C 37.396 118.210,37.138 117.191,36.992 117.045 C 36.655 116.707,24.054 116.573,23.273 116.899 M346.391 124.803 C 346.288 124.906,344.961 125.079,343.442 125.188 C 339.798 125.448,336.650 126.836,337.327 127.884 C 337.450 128.074,337.610 133.682,337.683 140.346 L 337.816 152.463 342.477 152.373 C 345.040 152.323,347.248 152.177,347.383 152.047 C 347.526 151.911,347.605 148.472,347.572 143.882 C 347.496 133.440,347.613 132.882,349.975 132.483 C 351.146 132.285,352.064 132.828,352.064 133.720 C 352.064 133.985,352.317 134.835,352.625 135.609 C 353.153 136.933,353.185 137.469,353.154 144.544 L 353.121 152.072 353.757 152.361 C 354.199 152.563,355.722 152.582,358.754 152.424 L 363.116 152.197 363.168 142.765 C 363.226 132.062,363.157 132.398,365.337 132.313 C 366.297 132.275,366.614 132.403,367.327 133.116 L 368.176 133.964 368.252 142.990 C 368.314 150.281,368.400 152.074,368.697 152.321 C 368.966 152.544,370.312 152.569,373.662 152.412 L 378.259 152.197 378.435 151.531 C 378.532 151.165,378.517 149.607,378.402 148.069 C 378.287 146.531,378.186 142.203,378.177 138.452 C 378.158 129.400,377.890 128.237,375.363 126.229 C 373.534 124.776,367.405 124.752,364.798 126.188 C 362.543 127.431,361.561 127.463,360.623 126.325 C 359.206 124.606,352.853 124.355,350.839 125.938 C 349.758 126.789,348.585 126.663,347.933 125.625 C 347.403 124.783,346.756 124.438,346.391 124.803 M77.526 125.438 C 76.883 125.574,76.164 125.847,75.928 126.047 C 75.692 126.247,75.113 126.563,74.641 126.750 C 73.589 127.166,72.474 128.077,71.051 129.682 C 68.413 132.657,67.255 142.351,69.205 145.140 C 69.461 145.506,69.836 146.215,70.039 146.715 C 70.607 148.118,73.074 150.363,75.202 151.416 C 78.860 153.225,87.633 153.334,91.221 151.615 L 92.810 150.854 92.885 147.903 C 92.971 144.510,92.722 143.943,91.552 144.863 C 90.309 145.841,84.290 146.368,81.583 145.736 C 79.504 145.250,77.356 142.024,78.600 141.255 C 78.768 141.151,82.213 141.014,86.257 140.950 C 90.300 140.886,93.721 140.725,93.858 140.593 C 94.234 140.231,94.073 136.296,93.628 134.978 C 93.413 134.342,93.112 133.259,92.959 132.572 C 92.435 130.218,90.458 127.781,87.883 126.315 L 86.152 125.330 82.423 125.261 C 80.373 125.224,78.169 125.303,77.526 125.438 M106.729 125.425 C 106.035 125.551,105.150 125.904,104.762 126.209 C 104.374 126.514,103.897 126.764,103.702 126.764 C 103.507 126.764,102.954 127.104,102.473 127.518 C 101.992 127.933,101.388 128.349,101.132 128.442 C 100.875 128.535,100.666 128.777,100.666 128.978 C 100.666 129.180,100.411 129.573,100.099 129.852 C 99.787 130.131,99.302 130.839,99.022 131.425 C 98.742 132.011,98.322 132.839,98.089 133.266 C 97.229 134.841,97.378 144.589,98.270 145.140 C 98.405 145.224,98.754 145.827,99.047 146.481 C 99.528 147.555,100.722 148.965,102.266 150.285 C 102.578 150.551,103.295 150.932,103.861 151.132 C 104.427 151.331,105.176 151.682,105.527 151.912 C 107.546 153.235,117.429 153.033,120.307 151.609 L 121.838 150.852 121.913 147.819 C 122.002 144.263,121.859 143.982,120.449 144.939 C 118.671 146.147,111.700 146.479,109.803 145.446 C 108.887 144.947,107.600 143.391,107.439 142.588 C 107.149 141.138,107.394 141.088,115.383 140.949 C 119.716 140.874,122.771 140.714,122.969 140.552 C 123.902 139.792,122.509 132.348,121.037 130.224 C 120.672 129.697,120.373 129.174,120.373 129.062 C 120.373 128.815,118.509 127.031,118.251 127.031 C 118.150 127.031,117.489 126.648,116.783 126.180 C 115.392 125.258,109.920 124.848,106.729 125.425 M222.429 125.435 C 221.802 125.566,220.963 125.904,220.565 126.184 C 220.166 126.465,219.597 126.770,219.301 126.862 C 218.595 127.080,215.440 129.996,215.443 130.426 C 215.445 130.609,215.210 130.995,214.922 131.283 C 211.783 134.422,212.864 145.099,216.710 148.933 C 218.558 150.776,218.829 150.999,219.229 150.999 C 219.448 150.999,220.201 151.303,220.901 151.676 C 225.770 154.265,237.813 152.653,237.818 149.411 C 237.819 148.746,237.896 147.393,237.990 146.405 C 238.184 144.345,237.795 144.083,236.102 145.130 C 234.980 145.823,230.351 146.278,227.953 145.932 C 227.006 145.795,226.162 145.681,226.077 145.678 C 225.032 145.642,222.601 142.025,223.285 141.524 C 223.719 141.207,229.699 140.879,235.053 140.879 C 239.342 140.879,239.295 140.957,238.459 135.157 C 238.226 133.544,237.839 131.924,237.598 131.558 C 237.357 131.192,236.962 130.473,236.721 129.960 C 234.983 126.269,228.396 124.184,222.429 125.435 M286.418 125.422 C 284.397 125.779,279.361 129.286,279.361 130.335 C 279.361 130.523,279.131 130.885,278.850 131.139 C 278.568 131.394,278.190 132.221,278.009 132.978 C 277.827 133.735,277.518 134.740,277.322 135.211 C 275.926 138.557,277.641 145.983,280.466 148.823 C 282.186 150.553,282.670 150.912,283.755 151.265 C 284.341 151.456,285.086 151.785,285.411 151.997 C 286.380 152.627,291.771 152.978,295.378 152.647 C 300.854 152.143,301.997 151.023,301.997 146.161 C 301.997 144.365,301.500 144.133,299.799 145.137 C 297.886 146.265,290.887 146.358,289.356 145.275 C 286.428 143.203,286.223 141.188,288.932 141.110 C 289.600 141.091,292.903 141.001,296.272 140.910 L 302.397 140.746 302.364 137.148 C 302.282 128.056,296.317 123.670,286.418 125.422 M314.188 125.445 C 313.109 125.571,311.708 125.980,310.660 126.475 L 308.921 127.296 308.921 130.226 C 308.921 131.837,309.027 133.156,309.155 133.156 C 309.284 133.156,309.834 132.970,310.377 132.743 C 310.921 132.516,312.044 132.205,312.873 132.053 C 313.702 131.900,314.537 131.646,314.729 131.488 C 315.582 130.785,319.244 130.909,320.356 131.679 C 322.385 133.086,321.868 134.022,318.892 134.326 C 317.911 134.427,316.789 134.674,316.399 134.876 C 316.009 135.078,314.923 135.382,313.985 135.552 C 313.048 135.722,311.988 136.091,311.630 136.373 C 311.273 136.654,310.830 136.884,310.645 136.884 C 309.957 136.884,307.330 139.385,307.022 140.335 C 306.853 140.854,306.552 141.515,306.354 141.804 C 305.950 142.390,305.843 146.198,306.218 146.618 C 306.343 146.757,306.646 147.392,306.892 148.028 C 307.397 149.333,308.848 151.265,309.324 151.265 C 309.497 151.265,309.847 151.496,310.102 151.777 C 311.301 153.103,316.683 153.038,319.076 151.670 C 320.592 150.804,321.014 150.828,321.720 151.820 L 322.305 152.641 326.732 152.453 C 329.166 152.349,331.208 152.220,331.268 152.166 C 331.594 151.872,331.235 130.853,330.893 130.226 C 330.693 129.860,330.351 129.179,330.132 128.712 C 329.914 128.245,329.216 127.498,328.582 127.052 C 327.949 126.606,327.278 126.113,327.093 125.955 C 326.228 125.223,318.663 124.924,314.188 125.445 M83.564 131.951 C 85.848 134.150,84.929 135.819,81.433 135.819 C 78.052 135.819,77.469 135.387,78.170 133.401 C 79.076 130.832,81.676 130.133,83.564 131.951 M112.716 132.104 C 113.823 133.247,114.067 134.630,113.297 135.400 C 112.301 136.396,107.054 135.783,107.059 134.672 C 107.074 131.360,110.494 129.807,112.716 132.104 M228.635 132.214 C 230.802 134.859,230.183 135.686,226.037 135.686 C 222.061 135.686,221.727 135.270,223.571 132.623 C 225.051 130.499,227.094 130.334,228.635 132.214 M291.922 131.524 C 292.166 131.762,292.687 132.541,293.080 133.255 L 293.795 134.552 293.235 135.112 C 292.284 136.063,287.304 136.135,286.696 135.208 C 285.229 132.969,289.976 129.623,291.922 131.524 M321.292 139.799 C 321.957 140.534,321.810 144.742,321.100 145.261 C 320.303 145.844,318.114 146.004,317.045 145.557 C 315.196 144.784,314.798 141.903,316.408 140.952 C 316.831 140.702,317.177 140.418,317.177 140.321 C 317.177 140.057,318.515 139.580,319.574 139.466 C 320.087 139.411,320.577 139.347,320.664 139.324 C 320.752 139.300,321.034 139.514,321.292 139.799 M376.707 208.154 C 375.380 208.393,374.377 208.733,374.027 209.062 C 373.719 209.351,373.352 209.587,373.210 209.587 C 373.069 209.587,372.284 210.276,371.466 211.119 C 366.303 216.438,367.545 223.597,374.301 227.446 L 375.899 228.356 379.539 228.359 C 382.924 228.362,383.223 228.321,383.802 227.777 C 384.144 227.456,384.793 227.036,385.244 226.845 C 388.715 225.375,391.385 219.497,390.173 215.994 C 389.865 215.106,389.614 214.216,389.614 214.017 C 389.614 213.818,389.257 213.189,388.821 212.620 C 385.687 208.528,382.054 207.189,376.707 208.154 " stroke="none" fill="#f5f5f6" fill-rule="evenodd"></path><path id="path2" d="M272.227 4.513 C 272.331 8.110,272.447 9.164,272.799 9.701 C 273.042 10.072,273.422 11.154,273.642 12.107 C 273.863 13.059,274.341 14.277,274.705 14.813 C 275.069 15.348,275.366 15.991,275.366 16.241 C 275.366 16.491,275.606 16.912,275.900 17.178 C 276.193 17.444,276.565 18.148,276.725 18.743 C 277.041 19.918,278.887 22.289,280.734 23.891 C 281.373 24.446,282.135 25.118,282.426 25.384 C 283.211 26.099,284.709 27.107,285.640 27.546 C 286.091 27.758,286.609 28.111,286.791 28.330 C 286.972 28.548,287.502 28.810,287.968 28.910 C 288.434 29.011,289.294 29.336,289.880 29.633 C 293.784 31.613,302.923 32.529,306.258 31.275 C 306.771 31.082,307.909 30.786,308.788 30.618 C 309.667 30.449,310.749 30.102,311.193 29.846 C 311.637 29.591,312.356 29.295,312.791 29.189 C 313.226 29.082,314.029 28.703,314.575 28.346 C 315.121 27.989,315.674 27.696,315.803 27.696 C 316.021 27.696,316.955 27.034,318.883 25.511 C 320.353 24.350,323.826 20.777,324.561 19.667 C 326.241 17.135,326.523 16.617,328.091 13.182 C 329.374 10.373,330.166 6.163,330.207 1.931 L 330.226 0.000 301.162 0.000 L 272.097 0.000 272.227 4.513 M48.336 26.365 C 45.610 27.727,44.303 28.878,43.642 30.493 C 43.463 30.932,43.088 31.623,42.809 32.028 C 41.746 33.570,41.974 40.253,43.140 41.735 C 43.434 42.109,43.675 42.569,43.675 42.757 C 43.675 43.161,46.992 46.605,47.381 46.605 C 47.528 46.605,47.863 46.833,48.125 47.112 C 49.485 48.559,57.104 48.629,59.105 47.213 C 59.480 46.947,60.127 46.556,60.543 46.343 C 61.350 45.930,63.582 43.447,64.138 42.344 C 64.323 41.977,64.674 41.318,64.919 40.879 C 65.562 39.724,65.561 33.775,64.917 32.623 C 64.672 32.184,64.243 31.345,63.964 30.759 C 63.268 29.294,60.649 26.736,59.442 26.342 C 58.899 26.165,58.038 25.798,57.527 25.527 C 56.793 25.136,56.014 25.033,53.799 25.033 L 50.999 25.033 48.336 26.365 M347.672 113.477 C 346.941 113.627,346.162 113.907,345.941 114.099 C 345.720 114.292,345.120 114.662,344.607 114.921 C 343.698 115.380,342.414 116.621,341.219 118.195 C 339.423 120.560,338.686 126.199,340.253 125.583 C 340.524 125.476,341.944 125.282,343.409 125.150 C 344.874 125.019,346.366 124.879,346.726 124.840 C 347.214 124.785,347.518 124.984,347.924 125.622 C 348.587 126.663,349.757 126.790,350.839 125.938 C 352.815 124.385,359.171 124.604,360.607 126.276 C 361.245 127.019,361.413 127.099,361.639 126.764 C 362.198 125.938,362.041 122.201,361.394 120.905 C 361.137 120.393,360.854 119.674,360.763 119.308 C 360.556 118.472,357.642 115.333,356.508 114.724 C 356.041 114.473,355.265 114.080,354.783 113.851 C 353.689 113.329,349.482 113.108,347.672 113.477 M349.268 132.641 C 347.618 133.133,347.166 135.092,348.635 135.386 C 351.165 135.892,352.392 135.499,352.169 134.255 C 351.856 132.504,351.113 132.091,349.268 132.641 M41.278 218.617 C 40.619 218.704,39.720 218.968,39.281 219.204 C 38.842 219.439,38.171 219.707,37.791 219.798 C 35.808 220.272,32.754 222.760,32.239 224.320 C 32.055 224.879,31.742 225.399,31.544 225.475 C 31.346 225.551,31.044 226.052,30.873 226.588 C 30.701 227.124,30.306 227.983,29.994 228.495 C 29.212 229.781,29.129 237.164,29.886 238.001 C 30.139 238.280,30.532 239.042,30.759 239.694 C 30.986 240.345,31.330 240.999,31.521 241.145 C 31.713 241.292,32.020 241.693,32.203 242.037 C 32.387 242.380,32.856 242.942,33.246 243.285 C 35.191 244.996,35.923 245.539,36.283 245.539 C 36.499 245.539,37.132 245.848,37.688 246.226 C 39.632 247.545,46.758 247.705,48.577 246.471 C 49.049 246.150,49.749 245.809,50.130 245.714 C 50.512 245.618,51.163 245.256,51.577 244.910 C 51.991 244.564,52.600 244.196,52.929 244.093 C 53.259 243.990,53.529 243.752,53.529 243.565 C 53.529 243.378,53.781 242.997,54.090 242.718 C 54.398 242.439,54.880 241.761,55.160 241.212 C 55.441 240.662,55.759 240.213,55.869 240.213 C 55.978 240.213,56.485 239.524,56.995 238.682 L 57.923 237.150 57.923 233.289 C 57.923 229.740,57.874 229.352,57.325 228.495 C 56.996 227.983,56.726 227.313,56.725 227.007 C 56.724 226.097,52.661 221.305,51.892 221.305 C 51.789 221.305,51.363 221.017,50.945 220.665 C 50.527 220.314,49.649 219.882,48.994 219.707 C 48.339 219.532,47.683 219.298,47.537 219.188 C 46.732 218.582,43.667 218.302,41.278 218.617 M220.955 221.329 C 219.715 221.460,218.531 221.756,218.025 222.062 C 217.559 222.345,216.877 222.662,216.511 222.768 C 213.837 223.539,208.584 228.501,208.109 230.703 C 208.008 231.173,207.652 232.037,207.320 232.623 C 205.849 235.211,205.962 244.093,207.491 246.041 C 207.765 246.391,207.989 246.816,207.989 246.987 C 207.989 248.203,212.711 253.472,214.709 254.483 C 215.187 254.726,215.759 255.080,215.979 255.269 C 216.198 255.459,217.157 255.815,218.109 256.060 C 219.061 256.305,220.009 256.645,220.215 256.815 C 220.906 257.383,227.081 257.141,228.495 256.489 C 229.154 256.186,229.940 255.934,230.241 255.931 C 230.542 255.928,231.195 255.626,231.691 255.260 C 232.187 254.893,232.796 254.594,233.044 254.594 C 234.110 254.594,239.355 248.827,239.948 247.004 C 240.138 246.418,240.449 245.699,240.638 245.406 C 242.382 242.705,241.644 233.690,239.384 230.093 C 239.246 229.874,238.926 229.348,238.674 228.925 C 238.281 228.267,237.179 226.919,236.543 226.318 C 235.330 225.173,234.750 224.710,234.124 224.386 C 233.717 224.176,233.233 223.822,233.049 223.600 C 232.864 223.378,232.274 223.055,231.736 222.883 C 231.199 222.710,230.243 222.339,229.613 222.057 C 228.982 221.775,227.484 221.432,226.284 221.294 C 223.878 221.017,223.914 221.017,220.955 221.329 M58.162 257.996 C 54.558 258.067,54.382 258.096,53.788 258.729 C 53.429 259.112,52.871 259.387,52.456 259.387 C 51.569 259.387,49.774 260.925,46.196 264.750 C 44.680 266.370,44.207 266.312,58.855 266.312 C 66.893 266.312,72.170 266.213,72.170 266.064 C 72.170 265.145,68.968 261.346,67.244 260.219 C 63.978 258.086,63.208 257.897,58.162 257.996 " stroke="none" fill="#04b5cd" fill-rule="evenodd"></path><path id="path3" d="M247.133 2.564 C 246.707 5.778,247.124 9.785,248.101 11.877 C 248.450 12.623,248.735 13.330,248.735 13.447 C 248.735 14.435,253.350 19.595,254.982 20.432 C 255.428 20.661,256.078 21.070,256.427 21.343 C 256.777 21.615,257.258 21.838,257.497 21.838 C 257.735 21.838,258.375 22.076,258.918 22.367 C 262.488 24.280,271.159 23.396,274.485 20.780 C 274.863 20.483,275.335 20.240,275.535 20.240 C 276.199 20.240,276.058 18.440,275.340 17.766 C 275.062 17.504,274.834 17.131,274.834 16.938 C 274.834 16.744,274.535 16.145,274.169 15.607 C 273.804 15.068,273.365 14.063,273.193 13.372 C 273.022 12.682,272.707 11.847,272.494 11.516 C 271.996 10.744,271.119 4.746,271.111 2.064 L 271.105 0.000 259.289 0.000 L 247.472 0.000 247.133 2.564 M365.515 221.352 C 364.784 221.491,364.005 221.762,363.784 221.954 C 363.563 222.146,362.925 222.450,362.367 222.629 C 359.594 223.520,356.187 226.662,353.878 230.457 C 351.919 233.677,351.196 240.832,352.483 244.262 C 352.692 244.818,353.052 245.782,353.282 246.405 C 354.053 248.484,356.740 251.861,359.254 253.910 C 363.565 257.424,373.155 258.325,377.630 255.638 C 377.850 255.506,378.617 255.085,379.336 254.704 C 380.994 253.824,384.581 250.254,385.356 248.712 C 385.681 248.066,386.095 247.357,386.276 247.137 C 389.214 243.568,388.433 232.988,384.901 228.512 C 384.850 228.448,382.804 228.422,380.354 228.454 C 376.343 228.506,375.806 228.459,374.967 227.985 C 374.454 227.696,373.675 227.283,373.236 227.068 C 372.012 226.471,369.891 224.242,369.354 222.989 C 368.923 221.983,367.719 220.976,367.057 221.068 C 366.940 221.085,366.246 221.212,365.515 221.352 M27.963 223.180 C 24.689 223.389,19.543 224.297,18.463 224.854 C 18.049 225.069,17.170 225.387,16.511 225.563 C 15.852 225.738,15.133 226.036,14.913 226.224 C 14.694 226.412,13.975 226.822,13.316 227.135 C 9.028 229.174,3.104 234.638,1.230 238.282 C 0.986 238.758,0.609 239.148,0.393 239.148 C 0.052 239.148,0.000 240.940,0.000 252.730 L 0.000 266.312 22.337 266.312 L 44.674 266.312 44.831 265.528 C 45.693 261.213,55.352 255.771,59.710 257.143 C 60.458 257.378,61.178 256.800,61.363 255.816 C 61.587 254.623,60.832 248.135,60.360 247.194 C 60.161 246.797,59.853 245.872,59.675 245.140 C 59.498 244.407,59.200 243.569,59.014 243.276 C 58.827 242.983,58.459 242.174,58.196 241.478 C 57.933 240.782,57.629 240.213,57.521 240.213 C 57.413 240.213,56.822 240.782,56.207 241.478 C 54.962 242.887,53.297 244.634,52.535 245.331 C 52.260 245.583,51.562 245.985,50.984 246.223 C 50.406 246.462,49.747 246.823,49.519 247.025 C 49.155 247.348,46.469 248.019,44.054 248.390 C 42.766 248.588,37.824 247.458,36.737 246.717 C 36.216 246.362,35.694 246.072,35.577 246.072 C 35.119 246.072,31.691 243.120,31.691 242.725 C 31.691 242.566,31.402 242.164,31.048 241.832 C 30.694 241.500,30.329 240.928,30.237 240.561 C 30.145 240.194,29.833 239.573,29.543 239.181 C 28.299 237.498,28.288 229.176,29.528 227.430 C 30.761 225.694,31.752 222.855,31.092 222.952 C 30.909 222.978,29.501 223.081,27.963 223.180 " stroke="none" fill="#f04b25" fill-rule="evenodd"></path><path id="path4" d="M271.111 2.064 C 271.119 4.746,271.996 10.744,272.494 11.516 C 272.707 11.847,273.022 12.682,273.193 13.372 C 273.365 14.063,273.804 15.068,274.169 15.607 C 274.535 16.145,274.834 16.744,274.834 16.938 C 274.834 17.131,275.069 17.509,275.358 17.778 C 275.646 18.047,275.911 18.650,275.947 19.120 C 275.992 19.713,276.177 20.024,276.555 20.138 C 276.853 20.229,277.337 20.497,277.630 20.735 C 278.092 21.111,278.087 21.081,277.587 20.504 C 277.271 20.139,276.882 19.350,276.723 18.751 C 276.564 18.151,276.193 17.444,275.900 17.178 C 275.606 16.912,275.366 16.491,275.366 16.241 C 275.366 15.991,275.069 15.348,274.705 14.813 C 274.341 14.277,273.863 13.059,273.642 12.107 C 273.422 11.154,273.042 10.072,272.799 9.701 C 272.447 9.164,272.331 8.110,272.227 4.513 C 272.106 0.336,272.060 0.000,271.601 0.000 C 271.160 0.000,271.106 0.227,271.111 2.064 M330.022 5.326 C 330.022 5.839,330.077 6.049,330.144 5.792 C 330.211 5.536,330.211 5.117,330.144 4.860 C 330.077 4.604,330.022 4.814,330.022 5.326 M329.616 8.297 C 329.514 8.687,329.362 9.226,329.278 9.496 C 329.195 9.766,329.322 9.650,329.560 9.239 C 329.798 8.828,329.950 8.288,329.898 8.041 C 329.831 7.724,329.747 7.801,329.616 8.297 M28.184 9.851 C 26.227 10.008,25.747 10.144,25.034 10.744 C 24.572 11.133,23.982 11.451,23.723 11.451 C 22.895 11.451,18.807 15.286,18.473 16.376 C 18.383 16.670,18.085 17.124,17.812 17.386 C 17.538 17.647,17.236 18.347,17.141 18.942 C 17.046 19.537,16.715 20.259,16.407 20.546 C 15.549 21.344,15.555 27.739,16.415 28.832 C 16.728 29.230,17.067 30.001,17.169 30.545 C 17.271 31.089,17.644 31.878,17.998 32.299 C 18.352 32.719,18.642 33.204,18.642 33.376 C 18.642 33.548,19.451 34.449,20.440 35.379 C 23.022 37.808,22.989 37.782,23.988 38.117 C 24.490 38.285,25.144 38.642,25.441 38.910 C 26.819 40.152,35.817 40.023,37.342 38.740 C 37.772 38.378,38.347 38.083,38.621 38.083 C 38.894 38.083,39.293 37.832,39.508 37.525 C 39.785 37.130,40.216 36.955,40.987 36.926 L 42.074 36.884 42.076 35.746 L 42.077 34.608 41.411 35.044 C 41.045 35.284,40.746 35.565,40.746 35.667 C 40.746 35.770,40.326 36.053,39.814 36.298 C 39.301 36.542,38.881 36.855,38.881 36.992 C 38.881 37.130,38.432 37.390,37.883 37.570 C 37.334 37.751,36.405 38.149,35.819 38.456 C 34.057 39.380,28.061 39.262,26.259 38.269 C 25.541 37.873,24.778 37.550,24.563 37.550 C 23.818 37.550,19.318 33.360,19.005 32.376 C 18.911 32.078,18.616 31.533,18.351 31.164 C 17.432 29.886,16.427 25.184,16.739 23.614 C 17.693 18.798,18.316 17.483,20.905 14.824 C 22.931 12.743,23.519 12.291,24.777 11.847 C 25.337 11.650,26.127 11.270,26.534 11.004 C 27.602 10.304,34.937 10.281,35.956 10.975 C 36.325 11.226,37.126 11.607,37.736 11.822 C 38.346 12.038,39.107 12.432,39.427 12.698 C 40.971 13.983,43.228 16.469,43.552 17.244 C 43.751 17.720,44.028 18.109,44.168 18.109 C 44.308 18.109,44.749 19.494,45.149 21.187 C 45.860 24.197,45.907 25.516,45.371 27.404 L 45.190 28.044 46.265 27.439 C 47.306 26.854,47.328 26.814,46.967 26.134 C 46.731 25.689,46.654 25.068,46.756 24.434 C 46.975 23.081,46.670 21.462,46.064 20.763 C 45.789 20.446,45.486 19.669,45.391 19.036 C 45.286 18.330,44.972 17.653,44.580 17.285 C 44.229 16.955,43.941 16.512,43.941 16.301 C 43.941 15.746,41.353 12.843,40.664 12.625 C 40.343 12.523,39.923 12.218,39.732 11.946 C 39.541 11.674,39.160 11.451,38.887 11.451 C 38.613 11.451,38.023 11.143,37.574 10.765 C 36.894 10.192,36.351 10.040,34.292 9.840 C 31.603 9.580,31.556 9.580,28.184 9.851 M328.081 13.248 C 327.480 14.448,327.488 14.567,328.109 13.637 C 328.431 13.155,328.640 12.705,328.572 12.638 C 328.504 12.570,328.283 12.844,328.081 13.248 M321.429 23.369 L 319.973 24.900 321.505 23.445 C 322.927 22.092,323.158 21.838,322.960 21.838 C 322.919 21.838,322.230 22.527,321.429 23.369 M53.066 24.958 C 53.471 25.019,54.070 25.018,54.398 24.954 C 54.725 24.891,54.394 24.841,53.662 24.843 C 52.929 24.845,52.661 24.897,53.066 24.958 M49.401 25.566 C 48.368 26.250,48.720 26.250,49.997 25.566 C 50.544 25.273,50.813 25.034,50.595 25.035 C 50.378 25.036,49.840 25.275,49.401 25.566 M57.323 25.418 C 57.725 25.628,58.205 25.876,58.388 25.969 C 58.572 26.063,58.439 25.890,58.093 25.586 C 57.747 25.282,57.268 25.034,57.028 25.035 C 56.759 25.036,56.872 25.183,57.323 25.418 M311.185 29.845 C 310.746 30.126,310.506 30.357,310.652 30.356 C 310.799 30.356,311.278 30.118,311.718 29.827 C 312.157 29.536,312.397 29.306,312.250 29.315 C 312.104 29.325,311.625 29.563,311.185 29.845 M294.940 31.439 C 295.627 31.765,296.525 31.931,297.470 31.910 L 298.935 31.876 297.337 31.697 C 296.458 31.599,295.402 31.378,294.989 31.205 C 293.802 30.709,293.765 30.883,294.940 31.439 M306.125 31.301 C 305.050 31.794,305.693 31.794,306.827 31.302 C 307.320 31.088,307.543 30.918,307.324 30.924 C 307.104 30.930,306.565 31.100,306.125 31.301 M303.001 31.884 C 303.479 31.943,304.198 31.942,304.599 31.881 C 304.999 31.821,304.607 31.772,303.728 31.774 C 302.850 31.775,302.522 31.825,303.001 31.884 M64.341 41.853 C 63.711 42.753,63.823 43.065,64.478 42.232 C 64.787 41.839,64.979 41.455,64.904 41.380 C 64.829 41.305,64.576 41.518,64.341 41.853 M44.148 43.808 C 44.433 44.347,46.338 46.290,46.338 46.042 C 46.338 45.969,45.782 45.316,45.102 44.592 C 44.422 43.868,43.993 43.515,44.148 43.808 M52.104 48.504 C 52.730 48.750,54.789 48.741,55.659 48.489 C 56.054 48.374,55.367 48.299,53.968 48.303 C 52.672 48.307,51.833 48.397,52.104 48.504 M185.555 112.380 C 185.012 112.672,183.875 112.989,183.029 113.085 C 180.025 113.426,179.698 114.375,180.839 119.441 C 181.034 120.306,181.186 126.315,181.273 136.618 C 181.360 146.915,181.503 152.580,181.681 152.796 C 182.055 153.249,191.683 153.267,192.670 152.817 C 193.725 152.337,193.782 151.314,193.106 145.007 C 192.965 143.688,192.810 140.791,192.763 138.569 L 192.676 134.528 193.620 133.887 C 194.692 133.160,195.739 132.816,195.739 133.193 C 195.739 133.332,196.064 133.770,196.460 134.167 C 197.452 135.156,197.561 136.208,197.584 145.020 C 197.598 150.452,197.690 152.577,197.923 152.810 C 198.383 153.270,207.875 153.247,208.788 152.784 C 209.571 152.386,209.564 152.673,209.102 139.814 C 208.757 130.230,208.162 126.995,206.615 126.284 C 206.518 126.239,206.138 125.925,205.772 125.585 C 205.406 125.246,204.650 124.883,204.093 124.778 C 203.537 124.674,202.753 124.419,202.353 124.212 C 201.407 123.722,199.962 123.733,198.756 124.236 C 198.227 124.457,197.139 124.715,196.338 124.809 C 195.337 124.927,194.665 125.180,194.193 125.618 C 192.533 127.157,192.449 126.842,192.519 119.358 C 192.565 114.443,192.495 112.514,192.264 112.234 C 191.734 111.596,186.818 111.704,185.555 112.380 M191.682 119.425 C 191.765 127.448,191.790 127.539,193.685 126.870 C 194.288 126.658,194.976 126.307,195.215 126.091 C 196.671 124.773,203.690 124.876,205.240 126.238 C 207.810 128.493,207.979 129.326,208.007 139.814 C 208.019 144.134,208.122 148.328,208.236 149.133 C 208.350 149.938,208.340 150.968,208.215 151.423 L 207.987 152.249 203.431 152.403 C 200.926 152.488,198.710 152.493,198.506 152.415 C 198.201 152.298,198.135 150.830,198.129 144.113 C 198.126 139.624,198.024 135.533,197.903 135.020 C 197.302 132.475,194.613 131.467,192.783 133.102 L 191.949 133.847 191.986 141.158 C 192.007 145.179,192.091 149.008,192.173 149.667 C 192.255 150.326,192.202 151.176,192.056 151.555 L 191.790 152.245 187.188 152.411 C 184.175 152.519,182.472 152.481,182.255 152.301 C 181.998 152.088,181.955 149.914,182.063 142.525 C 182.140 137.272,182.064 129.271,181.892 124.634 C 181.722 120.020,181.568 115.800,181.550 115.256 C 181.506 113.960,181.499 113.965,184.071 113.688 C 185.289 113.556,186.764 113.278,187.350 113.068 C 188.900 112.514,189.360 112.428,190.546 112.475 L 191.611 112.517 191.682 119.425 M345.369 114.263 C 344.773 114.782,344.771 114.795,345.325 114.528 C 345.646 114.372,345.983 114.126,346.073 113.980 C 346.335 113.556,346.048 113.672,345.369 114.263 M171.799 115.344 C 171.392 115.781,170.805 115.959,169.280 116.108 C 167.909 116.242,167.077 116.471,166.604 116.842 C 166.227 117.139,165.348 117.467,164.650 117.571 C 162.740 117.855,162.716 117.903,162.716 121.442 C 162.716 124.893,162.713 124.900,160.973 124.900 C 159.801 124.900,159.670 125.194,159.264 128.710 C 158.868 132.144,159.077 132.623,160.973 132.623 C 162.761 132.623,162.716 132.398,162.716 141.325 L 162.716 149.389 163.357 149.808 C 163.709 150.039,164.071 150.521,164.161 150.880 C 164.251 151.238,164.438 151.531,164.576 151.531 C 164.715 151.531,165.196 151.891,165.646 152.330 C 166.239 152.910,166.719 153.129,167.395 153.129 C 167.907 153.129,168.756 153.309,169.282 153.529 C 170.373 153.985,173.655 154.068,174.073 153.650 C 174.226 153.497,175.228 153.298,176.299 153.208 C 179.126 152.971,179.228 152.822,179.228 148.901 C 179.228 145.168,179.119 144.980,177.126 145.244 C 175.690 145.435,174.434 145.092,174.434 144.509 C 174.434 144.301,174.254 144.063,174.035 143.978 C 173.698 143.849,173.635 142.976,173.635 138.392 L 173.635 132.959 174.634 132.794 C 175.183 132.703,176.183 132.628,176.856 132.626 C 178.650 132.622,178.866 132.246,179.069 128.762 C 179.286 125.056,179.300 125.076,176.449 124.887 C 173.647 124.701,173.898 125.154,174.156 120.768 C 174.432 116.089,173.373 113.654,171.799 115.344 M136.805 115.506 C 136.493 115.818,135.720 116.016,134.386 116.125 C 132.988 116.240,132.225 116.443,131.728 116.834 C 131.345 117.135,130.461 117.467,129.763 117.571 C 127.853 117.855,127.830 117.903,127.830 121.442 C 127.830 124.893,127.826 124.900,126.086 124.900 C 124.777 124.900,124.605 125.434,124.692 129.226 L 124.767 132.490 125.960 132.575 C 127.909 132.714,127.830 132.361,127.830 140.860 L 127.830 148.498 128.495 149.401 C 128.862 149.897,129.161 150.418,129.161 150.558 C 129.161 151.210,131.630 153.129,132.470 153.129 C 132.940 153.129,133.965 153.319,134.748 153.551 C 136.254 153.999,136.974 153.973,141.123 153.326 C 144.230 152.841,144.220 152.854,144.460 148.946 C 144.689 145.233,144.623 145.129,142.102 145.204 C 139.089 145.293,138.635 144.321,138.982 138.525 C 139.119 136.231,139.213 134.062,139.190 133.705 C 139.139 132.926,139.766 132.689,141.978 132.650 C 144.034 132.613,144.180 132.376,144.300 128.893 C 144.428 125.132,144.303 124.901,142.134 124.896 C 139.360 124.890,139.203 124.794,139.379 123.198 C 139.461 122.450,139.606 120.674,139.702 119.251 L 139.875 116.665 139.066 115.856 C 138.151 114.941,137.475 114.836,136.805 115.506 M267.840 115.496 C 267.556 115.781,266.700 116.020,265.509 116.147 C 264.419 116.263,263.267 116.569,262.772 116.872 C 262.302 117.161,261.352 117.480,260.661 117.582 C 258.872 117.846,258.726 118.131,258.692 121.444 C 258.658 124.790,258.612 124.900,257.251 124.900 C 255.784 124.900,255.628 125.340,255.717 129.226 L 255.792 132.490 256.991 132.573 C 258.689 132.692,258.623 132.370,258.597 140.413 C 258.574 147.455,258.731 149.134,259.410 149.134 C 259.521 149.134,259.743 149.530,259.902 150.013 C 260.391 151.492,262.332 152.876,264.543 153.321 C 267.294 153.875,269.379 154.016,269.990 153.688 C 270.283 153.532,271.391 153.323,272.454 153.224 C 275.024 152.985,275.364 152.641,275.373 150.266 C 275.376 149.278,275.503 147.930,275.655 147.272 C 276.016 145.705,275.368 145.067,273.515 145.164 C 270.313 145.331,270.284 145.263,270.470 138.089 C 270.619 132.373,270.505 132.633,272.870 132.627 C 274.963 132.622,274.998 132.566,275.181 128.914 C 275.378 125.001,275.324 124.901,273.027 124.896 C 270.428 124.890,270.509 125.026,270.577 120.740 C 270.651 116.041,270.669 116.208,270.040 115.579 C 269.389 114.929,268.444 114.893,267.840 115.496 M21.990 116.530 C 21.630 116.890,21.569 118.003,21.552 124.453 C 21.533 132.058,21.412 134.149,20.685 139.414 C 20.096 143.686,19.978 152.534,20.506 152.868 C 21.033 153.202,29.066 153.203,29.943 152.869 L 30.626 152.610 30.635 142.150 C 30.643 133.787,30.718 131.559,31.011 131.029 L 31.377 130.368 31.521 131.296 C 31.600 131.806,31.737 132.870,31.825 133.660 C 31.914 134.451,32.224 135.564,32.515 136.135 C 32.807 136.706,33.112 137.977,33.194 138.959 C 33.289 140.100,33.530 141.012,33.861 141.484 C 34.192 141.957,34.468 143.001,34.626 144.387 C 34.805 145.961,35.013 146.683,35.389 147.032 C 35.774 147.392,35.949 148.037,36.082 149.589 C 36.391 153.186,36.298 153.129,41.942 153.129 C 46.516 153.129,46.871 152.985,46.871 151.124 C 46.871 150.673,47.153 149.921,47.498 149.453 C 47.978 148.803,48.162 148.125,48.279 146.575 C 48.391 145.096,48.572 144.393,48.949 143.978 C 49.312 143.578,49.554 142.703,49.762 141.038 C 49.933 139.668,50.229 138.478,50.463 138.220 C 50.686 137.973,50.987 136.832,51.133 135.677 C 51.725 131.009,52.533 132.816,52.625 139.015 C 52.663 141.578,52.820 144.514,52.973 145.539 C 53.126 146.565,53.254 148.503,53.257 149.848 C 53.264 153.277,53.006 153.129,59.007 153.129 C 64.390 153.129,65.165 152.908,64.865 151.461 C 64.541 149.898,64.422 146.968,64.182 134.744 C 63.924 121.620,63.608 117.425,62.803 116.455 C 62.571 116.176,61.017 116.118,55.290 116.174 L 48.069 116.245 47.670 117.443 C 47.450 118.103,47.106 118.771,46.904 118.929 C 46.678 119.106,46.457 120.114,46.324 121.567 C 46.175 123.205,45.955 124.129,45.600 124.609 C 45.280 125.044,44.987 126.119,44.809 127.513 C 44.637 128.864,44.355 129.916,44.085 130.215 C 43.824 130.504,43.589 131.343,43.512 132.263 C 43.202 135.962,42.761 136.481,42.317 133.671 C 42.197 132.911,41.910 132.081,41.680 131.827 C 41.450 131.573,41.199 130.719,41.123 129.930 C 40.879 127.423,40.735 126.792,40.306 126.363 C 40.055 126.111,39.757 124.993,39.560 123.559 C 39.364 122.132,39.058 120.981,38.799 120.695 C 38.561 120.432,38.286 119.503,38.188 118.631 C 37.880 115.895,38.587 116.112,29.970 116.112 C 23.451 116.112,22.351 116.170,21.990 116.530 M137.947 116.643 C 138.406 116.889,138.431 117.193,138.291 120.840 C 138.110 125.551,138.105 125.543,140.828 125.490 C 143.695 125.435,143.634 125.375,143.480 128.075 C 143.283 131.545,142.898 132.080,140.597 132.086 C 138.193 132.093,138.255 131.932,138.168 138.349 C 138.070 145.553,138.281 145.982,141.926 145.970 L 143.808 145.964 143.807 148.149 C 143.804 152.612,143.722 152.671,137.417 152.709 C 133.462 152.734,132.337 152.533,131.364 151.631 C 130.963 151.260,130.502 150.875,130.340 150.777 C 130.179 150.679,129.697 149.880,129.271 149.001 L 128.495 147.403 128.460 140.145 C 128.422 132.083,128.423 132.091,126.725 132.091 C 125.280 132.091,125.043 131.406,125.339 128.096 L 125.566 125.566 126.631 125.480 C 128.387 125.338,128.570 124.996,128.672 121.674 C 128.772 118.405,128.794 118.368,130.759 118.086 C 131.418 117.991,132.497 117.686,133.156 117.409 C 134.211 116.965,136.067 116.493,137.101 116.407 C 137.294 116.391,137.675 116.497,137.947 116.643 M172.783 116.698 C 173.002 116.917,173.103 118.241,173.103 120.926 C 173.103 125.341,173.136 125.421,174.998 125.472 C 175.640 125.489,176.689 125.557,177.329 125.623 L 178.494 125.741 178.305 127.904 C 178.001 131.396,177.622 131.940,175.430 132.036 C 172.831 132.150,172.862 132.067,172.921 138.809 L 172.969 144.329 173.680 145.040 C 174.459 145.819,176.237 146.233,177.431 145.914 C 178.581 145.607,178.785 146.135,178.634 149.027 C 178.466 152.241,178.427 152.280,175.078 152.635 C 168.581 153.322,165.788 152.422,164.043 149.079 L 163.249 147.558 163.249 140.123 C 163.249 131.849,163.326 132.181,161.380 132.042 L 160.186 131.957 160.110 129.637 C 159.997 126.249,160.224 125.587,161.530 125.479 C 163.111 125.349,163.193 125.184,163.292 121.935 C 163.395 118.581,163.511 118.389,165.615 118.089 C 166.291 117.992,167.383 117.686,168.043 117.409 C 169.134 116.949,171.008 116.481,172.051 116.407 C 172.278 116.391,172.607 116.522,172.783 116.698 M269.096 116.736 C 269.542 117.062,269.573 117.422,269.449 120.881 C 269.285 125.435,269.327 125.499,272.520 125.541 L 274.434 125.566 274.393 128.457 C 274.344 131.871,274.334 131.885,271.881 132.110 C 269.210 132.355,269.300 132.144,269.197 138.389 L 269.108 143.755 269.937 144.780 C 270.739 145.771,270.825 145.807,272.504 145.838 C 273.460 145.856,274.375 145.953,274.537 146.054 C 275.068 146.381,274.795 151.659,274.218 152.236 C 273.905 152.548,268.623 152.874,266.385 152.718 C 263.244 152.500,261.281 151.386,260.541 149.401 C 260.296 148.742,259.966 148.033,259.808 147.827 C 259.619 147.580,259.521 144.977,259.521 140.212 C 259.521 132.123,259.514 132.091,257.790 132.091 C 256.261 132.091,256.092 131.701,256.263 128.585 C 256.424 125.672,256.546 125.444,257.948 125.437 C 259.297 125.430,259.584 124.834,259.700 121.802 C 259.820 118.670,260.000 118.342,261.739 118.084 C 262.423 117.983,263.462 117.723,264.048 117.506 C 266.832 116.474,268.409 116.234,269.096 116.736 M36.992 117.045 C 37.138 117.191,37.396 118.210,37.565 119.308 C 37.733 120.406,38.085 121.784,38.347 122.370 C 38.609 122.956,38.909 124.095,39.013 124.900 C 39.118 125.706,39.428 126.904,39.702 127.563 C 39.975 128.222,40.319 129.530,40.464 130.468 C 40.610 131.407,40.964 132.785,41.250 133.531 C 41.536 134.277,41.930 135.357,42.126 135.931 C 42.815 137.947,43.502 137.322,43.932 134.288 C 44.075 133.276,44.433 131.918,44.727 131.271 C 45.021 130.623,45.264 129.754,45.267 129.339 C 45.270 128.924,45.567 127.726,45.927 126.676 C 46.287 125.626,46.711 123.943,46.870 122.936 C 47.028 121.929,47.330 120.773,47.539 120.367 C 47.749 119.962,47.997 119.154,48.090 118.573 C 48.390 116.695,48.042 116.786,55.289 116.698 C 59.811 116.643,61.955 116.709,62.157 116.910 C 62.337 117.090,62.525 119.279,62.643 122.583 C 62.750 125.542,62.948 129.341,63.084 131.025 C 63.500 136.177,63.992 151.828,63.746 152.057 C 63.619 152.174,61.418 152.314,58.855 152.367 L 54.194 152.463 54.030 149.401 C 53.939 147.716,53.849 142.301,53.830 137.368 C 53.791 127.342,53.395 124.764,52.459 128.440 C 52.302 129.056,51.892 130.220,51.547 131.025 C 51.203 131.831,50.782 133.318,50.612 134.330 C 50.442 135.342,50.136 136.492,49.933 136.884 C 49.730 137.277,49.429 138.426,49.264 139.438 C 49.099 140.450,48.738 141.827,48.462 142.497 C 48.187 143.167,47.831 144.531,47.672 145.526 C 47.513 146.522,47.207 147.677,46.992 148.092 C 46.777 148.508,46.452 149.601,46.270 150.522 L 45.939 152.197 42.344 152.383 C 37.394 152.640,37.388 152.636,36.614 148.285 C 36.413 147.159,36.078 145.901,35.868 145.489 C 35.659 145.077,35.345 143.910,35.171 142.896 C 34.997 141.882,34.675 140.623,34.456 140.100 C 34.236 139.576,33.891 138.287,33.689 137.235 C 33.487 136.184,33.141 134.974,32.921 134.547 C 32.700 134.121,32.445 133.124,32.354 132.332 C 32.192 130.926,31.509 128.628,31.252 128.628 C 29.899 128.628,29.796 129.435,29.595 141.581 C 29.493 147.790,29.323 151.874,29.161 152.034 C 28.771 152.419,21.407 152.538,21.034 152.166 C 20.734 151.866,20.950 148.175,21.561 143.193 C 21.701 142.049,21.944 135.907,22.101 129.544 C 22.405 117.262,22.405 117.260,23.273 116.899 C 24.054 116.573,36.655 116.707,36.992 117.045 M360.864 119.707 C 360.880 120.123,361.894 121.878,361.906 121.511 C 361.912 121.332,361.678 120.792,361.386 120.313 C 361.093 119.833,360.859 119.561,360.864 119.707 M339.312 122.263 C 339.148 122.732,339.023 123.247,339.033 123.409 C 339.044 123.570,339.224 123.233,339.434 122.660 C 339.644 122.087,339.769 121.571,339.712 121.514 C 339.655 121.457,339.475 121.794,339.312 122.263 M361.990 123.036 C 361.990 123.695,362.042 123.965,362.105 123.635 C 362.169 123.306,362.169 122.766,362.105 122.437 C 362.042 122.107,361.990 122.377,361.990 123.036 M79.415 124.237 C 78.932 124.447,77.913 124.698,77.151 124.794 C 75.649 124.984,73.825 125.936,72.738 127.097 C 72.360 127.500,71.903 127.830,71.721 127.830 C 71.539 127.830,71.263 128.067,71.108 128.356 C 70.953 128.646,70.560 129.170,70.233 129.521 C 69.069 130.775,68.241 132.484,68.056 134.017 C 67.955 134.857,67.641 136.202,67.358 137.006 C 66.715 138.837,66.717 139.202,67.384 141.085 C 67.681 141.924,68.000 143.318,68.092 144.184 C 68.194 145.138,68.443 145.940,68.724 146.221 C 68.980 146.476,69.271 146.945,69.372 147.263 C 69.647 148.129,72.895 151.261,73.995 151.721 C 74.525 151.942,75.246 152.349,75.597 152.626 C 76.038 152.973,76.667 153.129,77.623 153.129 C 78.386 153.129,79.598 153.308,80.317 153.526 C 81.813 153.979,84.748 154.056,85.487 153.661 C 85.761 153.515,87.194 153.293,88.672 153.168 C 90.513 153.012,91.504 152.806,91.818 152.515 C 92.071 152.280,92.527 151.863,92.833 151.587 C 93.500 150.985,94.005 144.846,93.443 144.168 C 92.949 143.573,91.341 143.739,90.245 144.498 C 88.726 145.551,82.126 145.583,81.011 144.543 C 80.616 144.175,80.023 143.735,79.694 143.565 C 79.285 143.355,79.095 143.016,79.095 142.499 L 79.095 141.741 86.346 141.700 C 95.600 141.647,94.889 142.020,94.766 137.288 C 94.688 134.280,94.598 133.660,94.175 133.193 C 93.901 132.890,93.570 132.072,93.440 131.374 C 93.194 130.059,93.111 129.943,90.765 127.632 C 88.282 125.186,88.155 125.107,86.140 124.757 C 85.087 124.574,83.978 124.292,83.675 124.130 C 82.907 123.718,80.467 123.780,79.415 124.237 M108.522 124.245 C 107.936 124.458,106.814 124.710,106.029 124.806 C 105.074 124.923,104.378 125.188,103.926 125.606 C 103.555 125.950,103.091 126.232,102.895 126.232 C 102.413 126.232,98.535 130.135,98.535 130.620 C 98.535 130.831,98.285 131.238,97.978 131.523 C 96.945 132.486,96.084 139.109,96.676 141.545 C 96.819 142.130,97.045 143.348,97.179 144.251 C 97.336 145.306,97.619 146.088,97.972 146.441 C 98.275 146.743,98.597 147.289,98.688 147.653 C 98.780 148.018,99.052 148.380,99.294 148.458 C 99.536 148.537,99.938 148.960,100.187 149.400 C 100.437 149.840,100.813 150.200,101.022 150.200 C 101.232 150.200,101.590 150.485,101.818 150.833 C 102.046 151.181,102.570 151.549,102.981 151.651 C 103.392 151.754,103.991 152.082,104.312 152.381 C 104.749 152.790,105.467 152.984,107.187 153.158 C 108.448 153.286,109.706 153.511,109.982 153.659 C 110.651 154.018,113.876 154.003,114.557 153.639 C 114.854 153.480,116.227 153.282,117.609 153.200 C 119.949 153.060,120.199 152.989,121.273 152.152 L 122.425 151.255 122.596 149.063 C 122.848 145.828,122.808 144.486,122.450 144.128 C 121.902 143.580,120.174 143.740,119.515 144.400 C 118.100 145.814,111.436 145.639,109.636 144.140 C 108.347 143.066,108.132 142.783,108.127 142.144 C 108.123 141.711,108.640 141.678,115.296 141.678 C 119.312 141.678,122.769 141.563,123.152 141.418 L 123.835 141.158 123.835 137.592 C 123.835 134.420,123.776 133.951,123.298 133.344 C 123.002 132.968,122.655 132.098,122.527 131.411 C 122.379 130.617,122.040 129.925,121.599 129.517 C 121.218 129.163,120.905 128.695,120.905 128.478 C 120.905 128.261,120.606 127.969,120.240 127.830 C 119.874 127.690,119.574 127.391,119.574 127.165 C 119.574 126.938,119.244 126.609,118.842 126.434 C 118.439 126.258,117.863 125.860,117.562 125.550 C 117.202 125.178,116.522 124.925,115.565 124.809 C 114.767 124.711,113.635 124.458,113.049 124.245 C 112.463 124.032,111.445 123.858,110.786 123.858 C 110.126 123.858,109.108 124.032,108.522 124.245 M224.368 124.263 C 223.782 124.478,222.608 124.727,221.759 124.816 C 220.698 124.928,220.108 125.131,219.874 125.465 C 219.686 125.733,219.177 126.105,218.742 126.292 C 217.468 126.839,214.913 129.202,214.913 129.834 C 214.913 130.033,214.667 130.369,214.365 130.581 C 214.055 130.798,213.657 131.569,213.450 132.353 C 213.248 133.117,212.896 133.949,212.667 134.202 C 211.973 134.969,212.062 142.964,212.774 143.870 C 213.062 144.236,213.376 145.021,213.470 145.615 C 213.574 146.263,213.897 146.916,214.278 147.247 C 214.628 147.551,214.913 147.936,214.913 148.103 C 214.913 148.483,216.815 150.465,217.180 150.466 C 217.327 150.466,217.589 150.691,217.760 150.965 C 217.932 151.240,218.410 151.548,218.823 151.651 C 219.236 151.753,219.826 152.072,220.133 152.359 C 220.546 152.744,221.348 152.953,223.196 153.157 C 224.573 153.309,225.813 153.545,225.952 153.681 C 226.296 154.017,229.617 153.995,230.522 153.650 C 230.924 153.498,232.372 153.267,233.740 153.138 C 235.727 152.950,236.381 152.777,236.986 152.283 C 237.404 151.943,237.956 151.541,238.214 151.390 C 238.782 151.057,239.085 145.219,238.583 144.281 C 238.213 143.589,235.800 143.727,235.255 144.471 C 234.470 145.546,226.865 145.604,225.910 144.543 C 225.647 144.252,225.156 143.907,224.817 143.778 C 224.318 143.587,224.217 143.377,224.284 142.677 L 224.368 141.811 231.558 141.678 C 239.257 141.535,239.795 141.441,240.112 140.182 C 240.376 139.127,240.045 136.407,239.561 135.669 C 239.322 135.305,239.052 134.206,238.961 133.229 C 238.835 131.888,238.652 131.318,238.214 130.906 C 237.894 130.605,237.547 130.008,237.441 129.579 C 237.043 127.960,233.238 125.088,231.082 124.780 C 230.380 124.680,229.396 124.426,228.893 124.217 C 227.742 123.735,225.750 123.756,224.368 124.263 M288.282 124.247 C 287.696 124.471,286.522 124.727,285.673 124.816 C 284.605 124.929,284.024 125.130,283.785 125.471 C 283.595 125.742,283.031 126.103,282.532 126.273 C 281.492 126.628,279.512 128.406,278.929 129.508 C 278.711 129.919,278.317 130.472,278.052 130.737 C 277.787 131.002,277.483 131.679,277.378 132.241 C 277.272 132.803,276.986 133.408,276.742 133.587 C 275.997 134.130,275.927 143.089,276.659 144.080 C 276.951 144.474,277.318 145.274,277.475 145.858 C 277.632 146.442,278.001 147.137,278.294 147.402 C 278.588 147.668,278.829 148.017,278.830 148.177 C 278.831 148.446,279.637 149.325,281.180 150.739 C 281.521 151.052,282.180 151.434,282.644 151.588 C 283.109 151.742,283.668 152.089,283.888 152.358 C 284.188 152.725,284.917 152.916,286.818 153.125 C 288.209 153.277,289.668 153.531,290.059 153.689 C 290.841 154.004,293.190 153.899,295.872 153.430 C 296.824 153.263,298.165 153.061,298.851 152.981 C 299.774 152.873,300.448 152.557,301.447 151.761 L 302.796 150.687 302.796 147.567 C 302.796 145.496,302.689 144.340,302.477 144.128 C 301.923 143.574,300.055 143.745,299.120 144.436 C 297.456 145.663,290.922 145.663,289.597 144.436 C 289.225 144.091,288.820 143.808,288.697 143.808 C 288.307 143.808,288.155 143.030,288.412 142.354 L 288.659 141.703 295.700 141.624 C 304.078 141.530,303.862 141.604,303.862 138.832 C 303.862 137.898,303.681 136.702,303.461 136.174 C 303.240 135.646,302.984 134.397,302.891 133.397 C 302.758 131.967,302.588 131.455,302.093 130.990 C 301.748 130.666,301.465 130.194,301.465 129.943 C 301.465 129.266,299.101 126.576,298.167 126.190 C 297.723 126.006,297.163 125.658,296.922 125.417 C 296.681 125.176,295.840 124.894,295.053 124.789 C 294.266 124.685,293.467 124.471,293.278 124.315 C 292.702 123.836,289.472 123.792,288.282 124.247 M316.962 124.250 C 316.185 124.460,314.412 124.735,313.023 124.863 C 311.016 125.047,310.372 125.212,309.891 125.663 C 309.559 125.976,309.149 126.232,308.980 126.232 C 307.963 126.232,307.655 133.419,308.650 133.952 C 309.300 134.300,310.475 134.045,311.186 133.403 C 312.143 132.537,318.457 131.866,319.829 132.485 C 321.581 133.275,320.855 133.688,317.716 133.688 C 316.601 133.688,315.855 133.867,314.939 134.354 C 314.250 134.720,313.326 135.020,312.885 135.020 C 312.048 135.020,311.182 135.385,310.572 135.994 C 310.376 136.191,310.051 136.352,309.851 136.352 C 309.340 136.352,306.969 138.443,306.711 139.120 C 306.594 139.428,306.194 140.121,305.822 140.661 C 304.860 142.057,304.935 147.613,305.925 148.269 C 306.255 148.488,306.525 148.882,306.525 149.145 C 306.525 149.701,308.322 151.798,308.799 151.798 C 308.977 151.798,309.287 152.038,309.488 152.332 C 309.734 152.691,310.377 152.961,311.451 153.156 C 312.330 153.315,313.198 153.567,313.380 153.717 C 313.561 153.867,314.041 153.920,314.445 153.835 C 314.849 153.750,316.138 153.495,317.310 153.269 C 318.745 152.992,319.571 152.690,319.840 152.344 C 320.430 151.586,320.864 151.582,321.246 152.330 L 321.586 152.996 326.402 153.068 C 332.982 153.167,332.266 154.685,332.096 140.995 L 331.957 129.792 330.899 128.256 C 330.317 127.410,329.598 126.592,329.301 126.436 C 329.004 126.280,328.441 125.886,328.048 125.559 C 327.598 125.185,326.780 124.897,325.832 124.778 C 325.006 124.675,323.922 124.421,323.425 124.213 C 322.267 123.729,318.825 123.749,316.962 124.250 M368.708 124.220 C 368.123 124.418,366.878 124.709,365.942 124.866 C 364.724 125.071,364.128 125.313,363.845 125.718 C 363.559 126.126,363.243 126.252,362.704 126.173 C 362.129 126.089,361.896 126.201,361.686 126.661 C 361.304 127.499,362.844 127.265,364.798 126.188 C 367.405 124.752,373.534 124.776,375.363 126.229 C 377.890 128.237,378.158 129.400,378.177 138.452 C 378.186 142.203,378.287 146.531,378.402 148.069 C 378.517 149.607,378.532 151.165,378.435 151.531 L 378.259 152.197 373.662 152.412 C 370.312 152.569,368.966 152.544,368.697 152.321 C 368.400 152.074,368.314 150.281,368.252 142.990 L 368.176 133.964 367.327 133.116 C 366.614 132.403,366.297 132.275,365.337 132.313 C 363.157 132.398,363.226 132.062,363.168 142.765 L 363.116 152.197 358.754 152.424 C 355.718 152.582,354.199 152.563,353.755 152.361 L 353.118 152.070 353.160 144.657 C 353.203 136.843,353.025 135.286,352.088 135.286 C 351.403 135.286,351.246 135.553,351.573 136.164 C 351.766 136.523,351.851 139.326,351.827 144.500 C 351.783 154.115,351.066 153.129,358.096 153.129 C 364.820 153.129,364.095 154.344,364.035 143.172 C 364.009 138.176,364.070 133.885,364.173 133.638 C 364.549 132.727,365.828 132.764,366.777 133.713 L 367.643 134.579 367.726 143.514 C 367.782 149.539,367.906 152.565,368.104 152.804 C 368.545 153.335,378.685 153.159,379.347 152.609 C 380.057 152.019,379.688 133.426,378.927 131.481 C 378.653 130.780,378.429 129.792,378.429 129.284 C 378.429 128.733,378.225 128.158,377.922 127.856 C 377.644 127.577,377.336 127.098,377.239 126.791 C 377.141 126.483,376.967 126.232,376.852 126.232 C 376.737 126.232,376.336 125.947,375.961 125.600 C 375.586 125.252,374.823 124.883,374.266 124.778 C 373.710 124.674,372.926 124.419,372.526 124.212 C 371.622 123.744,370.107 123.748,368.708 124.220 M338.631 124.883 C 338.357 125.185,338.002 125.433,337.842 125.434 C 337.482 125.436,335.819 126.968,335.819 127.297 C 335.819 127.429,336.013 128.232,336.250 129.082 C 337.043 131.917,337.194 134.735,337.037 143.688 C 336.920 150.362,336.960 152.566,337.203 152.809 C 337.430 153.035,338.973 153.129,342.471 153.129 C 349.499 153.129,349.321 153.328,348.734 146.128 C 348.193 139.484,348.199 135.819,348.751 135.819 C 348.979 135.819,349.092 135.699,349.001 135.553 C 348.911 135.406,348.536 135.286,348.168 135.286 L 347.500 135.286 347.564 143.550 C 347.601 148.326,347.524 151.912,347.382 152.048 C 347.247 152.177,345.040 152.323,342.477 152.373 L 337.816 152.463 337.683 140.346 C 337.610 133.682,337.450 128.074,337.327 127.884 C 337.031 127.425,337.558 126.824,338.661 126.363 C 339.552 125.991,339.671 125.709,339.319 124.816 C 339.139 124.359,339.101 124.363,338.631 124.883 M87.883 126.315 C 90.458 127.781,92.435 130.218,92.959 132.572 C 93.112 133.259,93.413 134.342,93.628 134.978 C 94.073 136.296,94.234 140.231,93.858 140.593 C 93.721 140.725,90.300 140.886,86.257 140.950 C 82.213 141.014,78.768 141.151,78.600 141.255 C 77.356 142.024,79.504 145.250,81.583 145.736 C 84.290 146.368,90.309 145.841,91.552 144.863 C 92.722 143.943,92.971 144.510,92.885 147.903 L 92.810 150.854 91.221 151.615 C 87.633 153.334,78.860 153.225,75.202 151.416 C 73.074 150.363,70.607 148.118,70.039 146.715 C 69.836 146.215,69.461 145.506,69.205 145.140 C 67.255 142.351,68.413 132.657,71.051 129.682 C 72.474 128.077,73.589 127.166,74.641 126.750 C 75.113 126.563,75.692 126.247,75.928 126.047 C 76.668 125.420,78.568 125.191,82.423 125.261 L 86.152 125.330 87.883 126.315 M116.783 126.180 C 117.489 126.648,118.150 127.031,118.251 127.031 C 118.509 127.031,120.373 128.815,120.373 129.062 C 120.373 129.174,120.672 129.697,121.037 130.224 C 122.509 132.348,123.902 139.792,122.969 140.552 C 122.771 140.714,119.716 140.874,115.383 140.949 C 107.394 141.088,107.149 141.138,107.439 142.588 C 107.600 143.391,108.887 144.947,109.803 145.446 C 111.700 146.479,118.671 146.147,120.449 144.939 C 121.859 143.982,122.002 144.263,121.913 147.819 L 121.838 150.852 120.307 151.609 C 117.429 153.033,107.546 153.235,105.527 151.912 C 105.176 151.682,104.427 151.331,103.861 151.132 C 103.295 150.932,102.578 150.551,102.266 150.285 C 100.722 148.965,99.528 147.555,99.047 146.481 C 98.754 145.827,98.405 145.224,98.270 145.140 C 97.378 144.589,97.229 134.841,98.089 133.266 C 98.322 132.839,98.742 132.011,99.022 131.425 C 99.302 130.839,99.787 130.131,100.099 129.852 C 100.411 129.573,100.666 129.180,100.666 128.978 C 100.666 128.777,100.875 128.535,101.132 128.442 C 101.388 128.349,101.992 127.933,102.473 127.518 C 102.954 127.104,103.507 126.764,103.702 126.764 C 103.897 126.764,104.374 126.514,104.762 126.209 C 106.531 124.818,114.697 124.798,116.783 126.180 M232.490 126.198 C 234.518 127.241,236.105 128.652,236.721 129.960 C 236.962 130.473,237.357 131.192,237.598 131.558 C 237.839 131.924,238.226 133.544,238.459 135.157 C 239.295 140.957,239.342 140.879,235.053 140.879 C 229.699 140.879,223.719 141.207,223.285 141.524 C 222.601 142.025,225.032 145.642,226.077 145.678 C 226.162 145.681,227.006 145.795,227.953 145.932 C 230.351 146.278,234.980 145.823,236.102 145.130 C 237.795 144.083,238.184 144.345,237.990 146.405 C 237.896 147.393,237.819 148.746,237.818 149.411 C 237.813 152.653,225.770 154.265,220.901 151.676 C 220.201 151.303,219.448 150.999,219.229 150.999 C 217.831 150.999,214.548 146.694,213.746 143.808 C 212.652 139.870,213.307 132.898,214.922 131.283 C 215.210 130.995,215.445 130.609,215.443 130.426 C 215.440 129.996,218.595 127.080,219.301 126.862 C 219.597 126.770,220.166 126.465,220.565 126.184 C 222.532 124.799,229.784 124.807,232.490 126.198 M294.464 125.418 C 299.148 126.307,302.309 130.999,302.364 137.148 L 302.397 140.746 296.272 140.910 C 292.903 141.001,289.600 141.091,288.932 141.110 C 286.966 141.167,286.623 141.584,287.359 143.027 C 288.327 144.925,289.329 145.577,291.816 145.930 C 294.354 146.290,298.551 145.873,299.799 145.137 C 301.500 144.133,301.997 144.365,301.997 146.161 C 301.997 151.023,300.854 152.143,295.378 152.647 C 291.771 152.978,286.380 152.627,285.411 151.997 C 285.086 151.785,284.341 151.456,283.755 151.265 C 282.670 150.912,282.186 150.553,280.466 148.823 C 277.641 145.983,275.926 138.557,277.322 135.211 C 277.518 134.740,277.827 133.735,278.009 132.978 C 278.190 132.221,278.568 131.394,278.850 131.139 C 279.131 130.885,279.361 130.523,279.361 130.335 C 279.361 129.286,284.397 125.779,286.418 125.422 C 288.032 125.136,292.965 125.134,294.464 125.418 M325.229 125.420 C 326.068 125.557,326.907 125.798,327.093 125.955 C 327.278 126.113,327.949 126.606,328.582 127.052 C 329.216 127.498,329.914 128.245,330.132 128.712 C 330.351 129.179,330.693 129.860,330.893 130.226 C 331.235 130.853,331.594 151.872,331.268 152.166 C 331.208 152.220,329.166 152.349,326.732 152.453 L 322.305 152.641 321.720 151.820 C 321.014 150.828,320.592 150.804,319.076 151.670 C 316.683 153.038,311.301 153.103,310.102 151.777 C 309.847 151.496,309.497 151.265,309.324 151.265 C 308.848 151.265,307.397 149.333,306.892 148.028 C 306.646 147.392,306.343 146.757,306.218 146.618 C 305.843 146.198,305.950 142.390,306.354 141.804 C 306.552 141.515,306.853 140.854,307.022 140.335 C 307.330 139.385,309.957 136.884,310.645 136.884 C 310.830 136.884,311.273 136.654,311.630 136.373 C 311.988 136.091,313.048 135.722,313.985 135.552 C 314.923 135.382,316.009 135.078,316.399 134.876 C 316.789 134.674,317.911 134.427,318.892 134.326 C 321.868 134.022,322.385 133.086,320.356 131.679 C 319.244 130.909,315.582 130.785,314.729 131.488 C 314.537 131.646,313.702 131.900,312.873 132.053 C 312.044 132.205,310.921 132.516,310.377 132.743 C 309.834 132.970,309.284 133.156,309.155 133.156 C 309.027 133.156,308.921 131.837,308.921 130.226 L 308.921 127.296 310.660 126.475 C 313.165 125.291,320.986 124.725,325.229 125.420 M80.408 130.992 C 78.349 131.813,77.152 134.798,78.576 135.560 C 79.542 136.077,83.751 135.880,84.282 135.292 C 85.784 133.633,82.613 130.113,80.408 130.992 M108.718 131.574 C 107.697 132.324,107.064 133.506,107.059 134.672 C 107.054 135.783,112.301 136.396,113.297 135.400 C 115.414 133.283,111.192 129.754,108.718 131.574 M225.267 131.140 C 223.817 131.619,222.140 134.338,222.767 135.194 C 223.244 135.845,228.650 135.932,229.410 135.301 C 231.130 133.873,227.631 130.359,225.267 131.140 M289.481 130.957 C 287.757 131.248,285.929 134.038,286.696 135.208 C 287.304 136.135,292.284 136.063,293.235 135.112 L 293.795 134.552 293.080 133.255 C 291.939 131.183,291.146 130.677,289.481 130.957 M82.552 132.329 C 82.800 132.564,83.197 132.876,83.434 133.023 C 83.672 133.169,83.901 133.648,83.943 134.088 L 84.021 134.887 81.491 134.887 L 78.961 134.887 78.879 133.898 C 78.804 132.987,78.872 132.878,79.745 132.514 C 80.266 132.296,80.692 132.008,80.692 131.875 C 80.692 131.511,82.035 131.839,82.552 132.329 M111.585 132.273 C 111.804 132.479,112.188 132.792,112.436 132.968 C 112.685 133.145,112.925 133.648,112.969 134.088 L 113.049 134.887 110.519 134.887 L 107.989 134.887 107.989 133.958 C 107.989 133.203,108.129 132.963,108.739 132.671 C 109.151 132.473,109.546 132.160,109.618 131.974 C 109.777 131.558,111.024 131.747,111.585 132.273 M228.316 133.546 C 228.939 134.851,228.709 135.011,226.187 135.016 C 223.457 135.022,223.328 134.942,223.987 133.652 C 224.281 133.074,224.805 132.494,225.151 132.363 C 225.497 132.231,225.856 132.001,225.949 131.851 C 226.249 131.365,227.806 132.480,228.316 133.546 M292.220 133.516 C 292.665 134.852,292.391 135.020,289.771 135.020 C 288.457 135.020,287.309 134.903,287.221 134.759 C 286.985 134.379,288.137 132.916,289.214 132.229 L 290.145 131.634 291.062 132.214 C 291.566 132.533,292.087 133.119,292.220 133.516 M319.574 139.466 C 318.515 139.580,317.177 140.057,317.177 140.321 C 317.177 140.418,316.831 140.702,316.408 140.952 C 314.798 141.903,315.196 144.784,317.045 145.557 C 318.114 146.004,320.303 145.844,321.100 145.261 C 322.167 144.481,321.767 139.027,320.664 139.324 C 320.577 139.347,320.087 139.411,319.574 139.466 M321.039 142.168 C 321.039 144.511,320.536 145.140,318.662 145.140 C 316.122 145.140,315.157 142.458,317.310 141.383 C 317.969 141.054,318.509 140.695,318.509 140.585 C 318.509 140.308,319.288 140.122,320.240 140.171 L 321.039 140.213 321.039 142.168 M378.042 206.573 C 377.610 206.645,376.965 206.933,376.608 207.213 C 376.252 207.494,375.647 207.725,375.264 207.727 C 374.569 207.731,374.273 207.867,372.548 208.973 C 371.117 209.891,369.368 211.779,369.195 212.593 C 369.108 213.001,368.784 213.512,368.473 213.729 C 367.854 214.162,367.324 221.041,367.892 221.278 C 368.031 221.336,368.422 221.660,368.760 221.998 C 369.487 222.725,369.523 222.631,368.942 221.508 C 368.045 219.774,368.122 216.543,369.109 214.475 C 369.924 212.767,372.592 209.587,373.210 209.587 C 373.352 209.587,373.718 209.352,374.024 209.065 C 375.852 207.347,382.677 207.567,385.456 209.433 C 387.399 210.738,389.614 213.180,389.614 214.017 C 389.614 214.216,389.865 215.106,390.173 215.994 C 391.408 219.563,388.759 225.281,385.113 226.916 C 383.617 227.587,383.260 228.162,384.198 228.392 C 384.613 228.494,385.041 228.709,385.149 228.869 C 385.257 229.030,385.347 228.844,385.349 228.455 C 385.352 227.933,385.595 227.606,386.285 227.199 C 386.798 226.897,387.217 226.522,387.217 226.367 C 387.217 226.212,387.517 225.971,387.883 225.832 C 388.249 225.693,388.549 225.405,388.549 225.192 C 388.549 224.980,388.838 224.578,389.192 224.300 C 389.545 224.022,389.964 223.313,390.123 222.725 C 390.281 222.137,390.651 221.438,390.944 221.173 C 391.731 220.461,391.742 215.710,390.959 214.927 C 390.674 214.642,390.311 213.925,390.151 213.334 C 389.992 212.743,389.626 212.133,389.338 211.979 C 389.051 211.825,388.815 211.560,388.815 211.391 C 388.815 210.971,386.729 209.055,386.272 209.055 C 386.070 209.055,385.778 208.819,385.624 208.531 C 385.427 208.162,384.942 207.953,383.992 207.827 C 383.219 207.725,382.447 207.440,382.187 207.162 C 381.708 206.647,379.495 206.333,378.042 206.573 M40.679 218.563 C 41.009 218.627,41.548 218.627,41.877 218.563 C 42.207 218.500,41.937 218.448,41.278 218.448 C 40.619 218.448,40.350 218.500,40.679 218.563 M45.987 218.718 C 46.746 218.896,47.455 219.131,47.563 219.241 C 47.670 219.351,47.885 219.441,48.040 219.441 C 48.867 219.441,47.053 218.669,45.929 218.544 L 44.607 218.395 45.987 218.718 M229.694 222.104 C 231.070 222.769,231.574 222.769,230.360 222.104 C 229.847 221.823,229.248 221.593,229.028 221.591 C 228.808 221.590,229.108 221.821,229.694 222.104 M26.568 223.091 C 26.899 223.155,27.378 223.152,27.633 223.086 C 27.888 223.019,27.617 222.967,27.031 222.970 C 26.445 222.973,26.236 223.027,26.568 223.091 M31.425 223.270 C 31.425 223.748,30.137 226.573,29.528 227.430 C 28.288 229.176,28.299 237.498,29.543 239.181 C 29.833 239.573,30.145 240.194,30.237 240.561 C 30.329 240.928,30.694 241.500,31.048 241.832 C 31.402 242.164,31.691 242.566,31.691 242.725 C 31.691 243.120,35.119 246.072,35.577 246.072 C 35.694 246.072,36.216 246.362,36.737 246.717 C 37.824 247.458,42.766 248.588,44.054 248.390 C 46.469 248.019,49.155 247.348,49.519 247.025 C 49.747 246.823,50.406 246.462,50.984 246.223 C 52.098 245.763,52.432 245.501,54.059 243.808 C 56.758 241.001,57.508 240.038,57.219 239.749 C 57.010 239.540,57.049 239.218,57.361 238.594 C 58.039 237.234,57.707 237.427,56.853 238.889 C 56.428 239.617,55.988 240.213,55.875 240.213 C 55.762 240.213,55.441 240.662,55.160 241.212 C 54.880 241.761,54.398 242.439,54.090 242.718 C 53.781 242.997,53.529 243.378,53.529 243.565 C 53.529 243.752,53.259 243.990,52.929 244.093 C 52.600 244.196,51.991 244.564,51.577 244.910 C 51.163 245.256,50.512 245.618,50.130 245.714 C 49.749 245.809,49.049 246.150,48.577 246.471 C 46.758 247.705,39.632 247.545,37.688 246.226 C 37.132 245.848,36.499 245.539,36.283 245.539 C 35.923 245.539,35.191 244.996,33.246 243.285 C 32.856 242.942,32.387 242.380,32.203 242.037 C 32.020 241.693,31.713 241.292,31.521 241.145 C 31.330 240.999,30.986 240.345,30.759 239.694 C 30.532 239.042,30.139 238.280,29.886 238.001 C 29.027 237.052,29.232 229.799,30.166 228.123 C 30.565 227.405,30.892 226.661,30.892 226.469 C 30.892 226.277,31.129 225.899,31.418 225.630 C 32.424 224.693,32.857 222.903,32.079 222.903 C 31.700 222.903,31.425 223.058,31.425 223.270 M24.101 223.435 C 23.765 223.580,23.716 223.664,23.968 223.664 C 24.188 223.664,24.607 223.561,24.900 223.435 C 25.236 223.291,25.285 223.207,25.033 223.207 C 24.814 223.207,24.394 223.310,24.101 223.435 M214.222 223.743 L 213.715 224.317 214.447 223.845 C 215.203 223.359,215.345 223.169,214.955 223.169 C 214.831 223.169,214.501 223.427,214.222 223.743 M233.010 223.554 C 233.475 224.114,234.884 224.859,235.089 224.653 C 235.173 224.569,235.119 224.501,234.968 224.501 C 234.818 224.501,234.232 224.187,233.666 223.803 C 233.100 223.419,232.805 223.307,233.010 223.554 M370.169 224.369 C 371.230 225.647,371.319 225.729,371.029 225.163 C 370.878 224.869,370.474 224.390,370.131 224.100 C 369.529 223.591,369.531 223.600,370.169 224.369 M372.037 226.232 C 372.381 226.598,372.768 226.897,372.896 226.897 C 373.025 226.897,372.807 226.598,372.412 226.232 C 372.016 225.866,371.630 225.566,371.553 225.566 C 371.475 225.566,371.693 225.866,372.037 226.232 M374.397 227.681 C 374.743 227.983,375.162 228.227,375.329 228.225 C 375.647 228.221,375.204 227.868,374.301 227.406 C 373.882 227.192,373.903 227.251,374.397 227.681 M57.428 228.762 C 57.595 228.981,57.791 229.401,57.863 229.694 C 57.988 230.200,57.996 230.198,58.025 229.660 C 58.042 229.348,57.846 228.929,57.590 228.728 C 57.185 228.410,57.163 228.414,57.428 228.762 M238.557 228.917 C 238.719 229.222,239.058 229.641,239.310 229.849 C 239.726 230.192,239.741 230.176,239.472 229.672 C 239.310 229.367,238.971 228.947,238.719 228.740 C 238.303 228.396,238.288 228.412,238.557 228.917 M207.376 231.940 C 206.727 233.039,206.826 233.323,207.494 232.279 C 207.803 231.797,208.005 231.351,207.942 231.289 C 207.879 231.226,207.625 231.519,207.376 231.940 M239.951 231.238 C 239.943 231.629,240.783 233.074,240.932 232.925 C 241.012 232.845,240.826 232.384,240.517 231.902 C 240.208 231.420,239.954 231.121,239.951 231.238 M58.147 233.422 C 58.148 234.594,58.195 235.040,58.251 234.414 C 58.308 233.787,58.307 232.829,58.250 232.283 C 58.192 231.738,58.146 232.250,58.147 233.422 M206.025 237.051 C 205.810 238.128,205.844 241.279,206.077 241.867 C 206.177 242.118,206.262 240.949,206.266 239.271 C 206.274 235.917,206.266 235.845,206.025 237.051 M241.638 239.148 C 241.638 240.393,241.684 240.902,241.740 240.280 C 241.796 239.657,241.796 238.638,241.740 238.016 C 241.684 237.393,241.638 237.903,241.638 239.148 M210.603 251.272 C 211.187 251.936,212.006 252.734,212.424 253.047 C 212.841 253.359,212.407 252.817,211.459 251.841 C 209.471 249.794,209.064 249.524,210.603 251.272 M236.608 251.731 L 235.286 253.129 236.684 251.808 C 237.453 251.081,238.083 250.452,238.083 250.409 C 238.083 250.211,237.836 250.432,236.608 251.731 M231.920 255.118 C 231.575 255.406,231.423 255.645,231.583 255.650 C 231.744 255.655,232.092 255.419,232.357 255.126 C 232.974 254.445,232.734 254.440,231.920 255.118 M61.294 256.116 C 61.245 256.793,60.381 257.354,59.710 257.143 C 57.617 256.484,52.499 257.836,49.702 259.787 C 46.799 261.812,43.629 266.312,45.107 266.312 C 45.345 266.312,45.539 266.118,45.539 265.881 C 45.539 265.429,45.872 265.034,48.439 262.450 C 50.845 260.028,51.678 259.387,52.421 259.387 C 52.795 259.387,53.409 259.091,53.787 258.729 C 54.458 258.087,54.577 258.070,58.861 258.041 C 62.788 258.015,63.160 257.974,62.402 257.655 C 61.737 257.375,61.531 257.108,61.446 256.412 C 61.385 255.921,61.318 255.789,61.294 256.116 M219.441 256.724 C 219.953 257.005,220.672 257.226,221.039 257.215 C 221.570 257.199,221.597 257.171,221.172 257.075 C 220.879 257.009,220.262 256.783,219.800 256.573 C 218.589 256.023,218.346 256.125,219.441 256.724 M228.362 256.527 C 228.069 256.703,227.170 256.921,226.365 257.012 L 224.900 257.179 226.232 257.207 C 227.087 257.225,227.897 257.052,228.495 256.724 C 229.008 256.444,229.308 256.213,229.161 256.211 C 229.015 256.209,228.655 256.352,228.362 256.527 M63.915 258.335 C 64.895 259.001,65.388 259.159,64.751 258.604 C 64.405 258.302,63.986 258.058,63.819 258.060 C 63.652 258.062,63.695 258.186,63.915 258.335 M69.241 261.917 C 70.037 262.723,70.747 263.382,70.821 263.382 C 70.894 263.382,70.303 262.723,69.507 261.917 C 68.712 261.112,68.001 260.453,67.928 260.453 C 67.854 260.453,68.445 261.112,69.241 261.917 M71.670 265.113 C 71.907 265.406,72.167 265.826,72.248 266.045 C 72.372 266.384,72.398 266.380,72.416 266.020 C 72.427 265.786,72.167 265.367,71.838 265.088 C 71.243 264.585,71.242 264.585,71.670 265.113 " stroke="none" fill="#6f6895" fill-rule="evenodd"></path></g></svg>