<svg xmlns="http://www.w3.org/2000/svg" xmlns:v="https://svgstorm.com"
viewBox = "0 0 512 512"
width="512"
height="512">
<g fill="None" fill-opacity="0.0" stroke="#000000" stroke-opacity="0.01" stroke-width="0.3"><path d="
M 0.00 512.00 
L 512.00 512.00
L 512.00 0.00
L 0.00 0.00
L 0.00 512.00
M 79.00 362.00 
C 84.00 348.94 93.70 333.94 106.75 326.75 C 119.80 319.55 127.71 311.79 141.25 312.81 C 154.79 313.82 161.92 297.61 171.92 288.92 C 181.92 280.23 189.27 277.29 198.77 272.42 C 208.27 267.56 219.92 265.53 232.00 265.00
C 232.04 249.49 231.95 234.58 232.00 219.00 C 232.05 203.42 231.91 187.68 232.00 172.00 C 232.09 156.32 231.80 140.79 232.00 125.00 C 232.20 109.21 231.56 93.98 232.00 78.00 C 232.44 62.02 230.55 53.55 233.13 39.08 C 235.71 24.61 252.66 8.36 267.75 8.40 C 282.85 8.43 297.59 7.74 313.00 8.00 C 328.41 8.26 343.74 7.91 359.00 8.00 C 374.26 8.09 391.05 8.02 406.00 8.00 C 420.95 7.98 438.83 8.13 453.00 8.00 C 467.17 7.87 475.02 8.28 482.92 13.13 C 490.82 17.98 497.09 23.64 500.58 31.77 C 504.06 39.90 504.18 51.32 504.00 65.00 C 503.82 78.68 504.09 97.26 504.00 112.00 C 503.91 126.74 504.05 143.81 504.00 159.00 C 503.95 174.19 504.05 190.69 504.00 206.00 C 503.95 221.31 504.09 236.69 504.00 252.00 C 503.91 267.31 504.19 283.82 504.00 299.00 C 503.81 314.18 504.40 331.27 504.00 346.00 C 503.60 360.73 504.89 379.36 504.00 393.00 C 503.11 406.64 505.83 420.06 490.31 425.31 C 474.78 430.55 484.57 447.44 482.67 458.67 C 480.77 469.90 469.90 479.35 459.32 482.32 C 448.75 485.29 430.84 473.85 425.69 489.70 C 420.55 505.54 407.17 502.39 393.78 503.22 C 380.39 504.05 377.49 489.07 368.92 482.08 C 360.34 475.09 341.24 489.79 331.77 478.23 C 322.30 466.67 305.25 473.19 291.00 472.00 C 276.75 470.81 258.88 472.55 244.00 472.00 C 229.12 471.45 213.13 472.25 198.00 472.00 C 182.87 471.75 166.11 472.12 151.00 472.00 C 135.89 471.88 118.72 472.07 104.00 472.00 C 89.28 471.93 71.41 472.49 58.00 471.00 C 44.59 469.51 35.62 465.35 26.25 456.75 C 16.88 448.15 11.96 438.80 9.22 426.78 C 6.48 414.76 9.67 399.35 15.77 388.77 C 21.88 378.19 28.97 371.60 40.08 366.08 C 51.18 360.55 66.48 359.08 79.00 362.00
M 160.00 24.00 
C 165.33 24.00 170.67 24.00 176.00 24.00
C 181.33 24.00 186.67 24.00 192.00 24.00
C 192.00 64.00 192.00 104.00 192.00 144.00
C 205.52 141.86 216.93 154.41 215.22 166.22 C 213.51 178.04 203.57 193.37 197.23 206.23 C 190.89 219.09 184.70 240.59 167.31 239.65 C 149.91 238.70 145.03 218.89 138.23 205.77 C 131.43 192.65 122.86 178.09 120.80 166.75 C 118.74 155.42 130.25 141.35 144.00 144.00
C 144.00 104.00 144.00 64.00 144.00 24.00
C 149.33 24.00 154.67 24.00 160.00 24.00
M 64.00 328.00 
C 58.67 328.00 53.33 328.00 48.00 328.00
C 42.67 328.00 37.33 328.00 32.00 328.00
C 32.00 288.00 32.00 248.00 32.00 208.00
C 3.66 207.49 7.10 181.83 17.77 163.77 C 28.44 145.71 30.43 137.50 37.13 124.08 C 43.82 110.66 65.79 109.17 74.59 122.75 C 83.38 136.33 81.73 145.02 93.92 163.08 C 106.12 181.13 107.69 207.48 80.00 208.00
C 80.00 248.00 80.00 288.00 80.00 328.00
C 74.67 328.00 69.33 328.00 64.00 328.00 Z"/>
</g>
<g fill="None" fill-opacity="0.0" stroke="#000000" stroke-opacity="1.00" stroke-width="0.3"><path d="
M 79.00 362.00 
C 66.48 359.08 51.18 360.55 40.08 366.08 C 28.97 371.60 21.88 378.19 15.77 388.77 C 9.67 399.35 6.48 414.76 9.22 426.78 C 11.96 438.80 16.88 448.15 26.25 456.75 C 35.62 465.35 44.59 469.51 58.00 471.00 C 71.41 472.49 89.28 471.93 104.00 472.00 C 118.72 472.07 135.89 471.88 151.00 472.00 C 166.11 472.12 182.87 471.75 198.00 472.00 C 213.13 472.25 229.12 471.45 244.00 472.00 C 258.88 472.55 276.75 470.81 291.00 472.00 C 305.25 473.19 322.30 466.67 331.77 478.23 C 341.24 489.79 360.34 475.09 368.92 482.08 C 377.49 489.07 380.39 504.05 393.78 503.22 C 407.17 502.39 420.55 505.54 425.69 489.70 C 430.84 473.85 448.75 485.29 459.32 482.32 C 469.90 479.35 480.77 469.90 482.67 458.67 C 484.57 447.44 474.78 430.55 490.31 425.31 C 505.83 420.06 503.11 406.64 504.00 393.00 C 504.89 379.36 503.60 360.73 504.00 346.00 C 504.40 331.27 503.81 314.18 504.00 299.00 C 504.19 283.82 503.91 267.31 504.00 252.00 C 504.09 236.69 503.95 221.31 504.00 206.00 C 504.05 190.69 503.95 174.19 504.00 159.00 C 504.05 143.81 503.91 126.74 504.00 112.00 C 504.09 97.26 503.82 78.68 504.00 65.00 C 504.18 51.32 504.06 39.90 500.58 31.77 C 497.09 23.64 490.82 17.98 482.92 13.13 C 475.02 8.28 467.17 7.87 453.00 8.00 C 438.83 8.13 420.95 7.98 406.00 8.00 C 391.05 8.02 374.26 8.09 359.00 8.00 C 343.74 7.91 328.41 8.26 313.00 8.00 C 297.59 7.74 282.85 8.43 267.75 8.40 C 252.66 8.36 235.71 24.61 233.13 39.08 C 230.55 53.55 232.44 62.02 232.00 78.00 C 231.56 93.98 232.20 109.21 232.00 125.00 C 231.80 140.79 232.09 156.32 232.00 172.00 C 231.91 187.68 232.05 203.42 232.00 219.00 C 231.95 234.58 232.04 249.49 232.00 265.00
C 219.92 265.53 208.27 267.56 198.77 272.42 C 189.27 277.29 181.92 280.23 171.92 288.92 C 161.92 297.61 154.79 313.82 141.25 312.81 C 127.71 311.79 119.80 319.55 106.75 326.75 C 93.70 333.94 84.00 348.94 79.00 362.00
M 488.00 373.00 
C 471.10 364.17 490.92 345.20 478.75 332.25 C 466.58 319.31 473.14 300.72 472.00 283.00 C 470.86 265.28 472.56 244.41 472.00 226.00 C 471.44 207.59 472.33 188.83 472.00 170.00 C 471.67 151.17 472.32 132.23 472.00 113.00 C 471.68 93.77 472.54 76.92 472.00 57.00 C 471.46 37.08 448.36 38.92 432.00 40.00 C 415.64 41.08 392.83 38.69 376.00 40.00 C 359.17 41.31 336.07 37.58 320.00 40.00 C 303.93 42.42 279.55 32.62 268.25 45.25 C 256.95 57.88 266.29 80.14 264.00 97.00 C 261.71 113.86 265.08 136.09 264.00 154.00 C 262.92 171.91 264.56 191.62 264.00 210.00 C 263.44 228.38 264.42 248.46 264.00 267.00
C 258.78 265.63 253.37 264.92 248.00 264.00
C 248.94 239.16 246.75 213.79 248.00 189.00 C 249.25 164.21 245.60 138.60 248.00 114.00 C 250.40 89.40 242.11 63.24 249.78 39.78 C 257.44 16.31 287.16 25.16 309.00 24.00 C 330.84 22.84 359.74 24.73 384.00 24.00 C 408.26 23.27 434.01 24.78 460.00 24.00 C 485.99 23.22 490.28 47.55 488.00 71.00 C 485.72 94.45 489.02 121.60 488.00 146.00 C 486.98 170.40 488.48 197.18 488.00 222.00 C 487.52 246.82 488.25 271.99 488.00 297.00 C 487.75 322.01 488.19 347.91 488.00 373.00
M 456.00 56.00 
C 456.00 72.00 456.00 88.00 456.00 104.00
C 397.33 104.00 338.67 104.00 280.00 104.00
C 280.00 88.00 280.00 72.00 280.00 56.00
C 338.67 56.00 397.33 56.00 456.00 56.00
M 456.00 120.00 
C 456.00 136.00 456.00 152.00 456.00 168.00
C 397.33 168.00 338.67 168.00 280.00 168.00
C 280.00 152.00 280.00 136.00 280.00 120.00
C 338.67 120.00 397.33 120.00 456.00 120.00
M 456.00 184.00 
C 456.00 200.00 456.00 216.00 456.00 232.00
C 397.33 232.00 338.67 232.00 280.00 232.00
C 280.00 216.00 280.00 200.00 280.00 184.00
C 338.67 184.00 397.33 184.00 456.00 184.00
M 456.00 248.00 
C 456.00 271.00 456.00 294.00 456.00 317.00
C 443.60 318.94 430.79 322.72 425.23 308.77 C 419.67 294.83 405.12 295.98 392.00 296.00 C 378.88 296.02 377.16 310.91 368.75 317.75 C 360.35 324.60 341.01 309.96 332.00 321.00
C 327.46 312.03 323.80 303.65 315.25 296.75 C 306.70 289.85 303.52 281.91 291.92 278.08 C 280.32 274.26 276.95 261.25 280.00 248.00
C 338.67 248.00 397.33 248.00 456.00 248.00
M 317.00 456.00 
C 305.86 456.00 295.19 456.00 284.00 456.00 C 272.81 456.00 261.24 456.00 250.00 456.00 C 238.76 456.00 227.24 456.00 216.00 456.00 C 204.76 456.00 193.16 456.00 182.00 456.00 C 170.84 456.00 160.08 455.99 149.00 456.00 C 137.92 456.01 125.94 455.99 115.00 456.00 C 104.06 456.01 91.54 455.97 81.00 456.00 C 70.46 456.03 58.55 456.97 49.78 453.22 C 41.00 449.48 36.49 446.29 31.23 438.77 C 25.97 431.25 22.88 421.38 24.00 412.00 C 25.12 402.62 28.69 396.09 34.75 388.75 C 40.81 381.42 47.99 379.98 56.67 376.67 C 65.36 373.37 77.01 379.59 84.69 381.31 C 92.38 383.03 91.15 366.60 95.92 360.92 C 100.70 355.24 104.71 347.67 111.75 342.75 C 118.78 337.82 125.21 333.43 134.01 331.01 C 142.80 328.59 154.75 327.49 164.01 328.99 C 173.27 330.49 179.26 335.64 187.25 338.75 C 195.23 341.86 197.99 352.23 204.75 355.25 C 211.52 358.27 220.98 345.54 213.25 340.75 C 205.52 335.96 203.71 328.29 195.25 324.75 C 186.80 321.20 180.61 315.17 171.00 315.00
C 175.46 305.62 183.06 300.72 191.70 294.70 C 200.34 288.68 210.27 284.56 221.02 282.02 C 231.78 279.48 248.05 279.42 259.00 282.00 C 269.95 284.58 278.32 288.54 287.75 294.25 C 297.18 299.97 301.95 306.02 309.75 314.25 C 317.55 322.47 320.24 332.88 317.01 343.01 C 313.78 353.14 325.37 368.28 311.92 372.92 C 298.48 377.57 296.63 387.28 296.00 399.00 C 295.37 410.72 298.56 421.63 310.70 426.30 C 322.83 430.98 318.41 445.46 317.00 456.00
M 407.00 312.00 
C 415.83 314.68 413.68 327.59 424.08 331.92 C 434.48 336.25 444.02 334.31 455.00 333.00 C 465.98 331.69 468.42 349.60 465.01 356.01 C 461.60 362.41 466.15 379.74 473.75 383.25 C 481.35 386.75 494.03 396.26 487.67 406.67 C 481.31 417.08 474.21 413.19 468.08 424.08 C 461.96 434.97 466.48 443.80 467.00 455.00 C 467.52 466.20 450.77 468.32 443.99 465.01 C 437.22 461.70 420.42 466.11 416.75 473.75 C 413.09 481.40 403.81 494.01 393.33 487.67 C 382.85 481.33 386.83 474.20 375.92 468.08 C 365.01 461.96 356.19 466.49 345.00 467.00 C 333.81 467.51 331.63 450.79 334.99 443.99 C 338.35 437.19 333.94 420.41 326.25 416.75 C 318.55 413.09 305.97 403.85 312.33 393.33 C 318.69 382.81 325.70 386.92 331.92 375.92 C 338.13 364.92 333.28 356.40 333.00 345.00 C 332.72 333.60 348.64 332.13 356.01 334.99 C 363.38 337.85 378.37 334.80 383.25 326.25 C 388.13 317.70 393.50 307.90 407.00 312.00 Z"/>
</g>
<g fill="None" fill-opacity="0.0" stroke="#000000" stroke-opacity="1.00" stroke-width="0.3"><path d="
M 176.00 24.00 
C 176.00 69.33 176.00 114.67 176.00 160.00
C 184.33 159.01 202.86 158.20 198.69 168.69 C 194.52 179.19 191.03 181.49 187.23 191.23 C 183.43 200.97 179.43 203.63 176.08 214.08 C 172.72 224.53 163.87 225.50 160.23 214.77 C 156.59 204.05 153.28 201.84 149.08 191.92 C 144.87 182.01 142.52 180.09 137.69 169.31 C 132.87 158.52 150.93 158.71 160.00 160.00
C 160.00 114.67 160.00 69.33 160.00 24.00
C 154.67 24.00 149.33 24.00 144.00 24.00
C 144.00 64.00 144.00 104.00 144.00 144.00
C 130.25 141.35 118.74 155.42 120.80 166.75 C 122.86 178.09 131.43 192.65 138.23 205.77 C 145.03 218.89 149.91 238.70 167.31 239.65 C 184.70 240.59 190.89 219.09 197.23 206.23 C 203.57 193.37 213.51 178.04 215.22 166.22 C 216.93 154.41 205.52 141.86 192.00 144.00
C 192.00 104.00 192.00 64.00 192.00 24.00
C 186.67 24.00 181.33 24.00 176.00 24.00 Z"/>
</g>
<g fill="None" fill-opacity="0.0" stroke="#CBD0D8" stroke-opacity="1.00" stroke-width="0.3"><path d="
M 176.00 24.00 
C 170.67 24.00 165.33 24.00 160.00 24.00
C 160.00 69.33 160.00 114.67 160.00 160.00
C 150.93 158.71 132.87 158.52 137.69 169.31 C 142.52 180.09 144.87 182.01 149.08 191.92 C 153.28 201.84 156.59 204.05 160.23 214.77 C 163.87 225.50 172.72 224.53 176.08 214.08 C 179.43 203.63 183.43 200.97 187.23 191.23 C 191.03 181.49 194.52 179.19 198.69 168.69 C 202.86 158.20 184.33 159.01 176.00 160.00
C 176.00 114.67 176.00 69.33 176.00 24.00 Z"/>
</g>
<g fill="None" fill-opacity="0.0" stroke="#FBD66F" stroke-opacity="1.00" stroke-width="0.3"><path d="
M 488.00 373.00 
C 488.19 347.91 487.75 322.01 488.00 297.00 C 488.25 271.99 487.52 246.82 488.00 222.00 C 488.48 197.18 486.98 170.40 488.00 146.00 C 489.02 121.60 485.72 94.45 488.00 71.00 C 490.28 47.55 485.99 23.22 460.00 24.00 C 434.01 24.78 408.26 23.27 384.00 24.00 C 359.74 24.73 330.84 22.84 309.00 24.00 C 287.16 25.16 257.44 16.31 249.78 39.78 C 242.11 63.24 250.40 89.40 248.00 114.00 C 245.60 138.60 249.25 164.21 248.00 189.00 C 246.75 213.79 248.94 239.16 248.00 264.00
C 253.37 264.92 258.78 265.63 264.00 267.00
C 264.42 248.46 263.44 228.38 264.00 210.00 C 264.56 191.62 262.92 171.91 264.00 154.00 C 265.08 136.09 261.71 113.86 264.00 97.00 C 266.29 80.14 256.95 57.88 268.25 45.25 C 279.55 32.62 303.93 42.42 320.00 40.00 C 336.07 37.58 359.17 41.31 376.00 40.00 C 392.83 38.69 415.64 41.08 432.00 40.00 C 448.36 38.92 471.46 37.08 472.00 57.00 C 472.54 76.92 471.68 93.77 472.00 113.00 C 472.32 132.23 471.67 151.17 472.00 170.00 C 472.33 188.83 471.44 207.59 472.00 226.00 C 472.56 244.41 470.86 265.28 472.00 283.00 C 473.14 300.72 466.58 319.31 478.75 332.25 C 490.92 345.20 471.10 364.17 488.00 373.00 Z"/>
</g>
<g fill="None" fill-opacity="0.0" stroke="#FEE9A6" stroke-opacity="1.00" stroke-width="0.3"><path d="
M 456.00 56.00 
C 397.33 56.00 338.67 56.00 280.00 56.00
C 280.00 72.00 280.00 88.00 280.00 104.00
C 338.67 104.00 397.33 104.00 456.00 104.00
C 456.00 88.00 456.00 72.00 456.00 56.00
M 312.00 72.00 
C 312.00 77.33 312.00 82.67 312.00 88.00
C 306.67 88.00 301.33 88.00 296.00 88.00
C 296.00 82.67 296.00 77.33 296.00 72.00
C 301.33 72.00 306.67 72.00 312.00 72.00
M 344.00 72.00 
C 344.00 77.33 344.00 82.67 344.00 88.00
C 338.67 88.00 333.33 88.00 328.00 88.00
C 328.00 82.67 328.00 77.33 328.00 72.00
C 333.33 72.00 338.67 72.00 344.00 72.00 Z"/>
</g>
<g fill="None" fill-opacity="0.0" stroke="#000000" stroke-opacity="1.00" stroke-width="0.3"><path d="
M 312.00 72.00 
C 306.67 72.00 301.33 72.00 296.00 72.00
C 296.00 77.33 296.00 82.67 296.00 88.00
C 301.33 88.00 306.67 88.00 312.00 88.00
C 312.00 82.67 312.00 77.33 312.00 72.00 Z"/>
</g>
<g fill="None" fill-opacity="0.0" stroke="#000000" stroke-opacity="1.00" stroke-width="0.3"><path d="
M 344.00 72.00 
C 338.67 72.00 333.33 72.00 328.00 72.00
C 328.00 77.33 328.00 82.67 328.00 88.00
C 333.33 88.00 338.67 88.00 344.00 88.00
C 344.00 82.67 344.00 77.33 344.00 72.00 Z"/>
</g>
<g fill="None" fill-opacity="0.0" stroke="#000000" stroke-opacity="1.00" stroke-width="0.3"><path d="
M 48.00 328.00 
C 48.00 282.67 48.00 237.33 48.00 192.00
C 39.67 192.99 21.14 193.80 25.31 183.31 C 29.48 172.81 32.97 170.51 36.77 160.77 C 40.57 151.03 44.57 148.37 47.92 137.92 C 51.28 127.47 60.13 126.50 63.77 137.23 C 67.41 147.95 70.72 150.16 74.92 160.08 C 79.13 169.99 81.48 171.91 86.31 182.69 C 91.13 193.48 73.07 193.29 64.00 192.00
C 64.00 237.33 64.00 282.67 64.00 328.00
C 69.33 328.00 74.67 328.00 80.00 328.00
C 80.00 288.00 80.00 248.00 80.00 208.00
C 107.69 207.48 106.12 181.13 93.92 163.08 C 81.73 145.02 83.38 136.33 74.59 122.75 C 65.79 109.17 43.82 110.66 37.13 124.08 C 30.43 137.50 28.44 145.71 17.77 163.77 C 7.10 181.83 3.66 207.49 32.00 208.00
C 32.00 248.00 32.00 288.00 32.00 328.00
C 37.33 328.00 42.67 328.00 48.00 328.00 Z"/>
</g>
<g fill="None" fill-opacity="0.0" stroke="#FEE9A6" stroke-opacity="1.00" stroke-width="0.3"><path d="
M 456.00 120.00 
C 397.33 120.00 338.67 120.00 280.00 120.00
C 280.00 136.00 280.00 152.00 280.00 168.00
C 338.67 168.00 397.33 168.00 456.00 168.00
C 456.00 152.00 456.00 136.00 456.00 120.00
M 408.00 136.00 
C 408.00 141.33 408.00 146.67 408.00 152.00
C 402.67 152.00 397.33 152.00 392.00 152.00
C 392.00 146.67 392.00 141.33 392.00 136.00
C 397.33 136.00 402.67 136.00 408.00 136.00
M 440.00 136.00 
C 440.00 141.33 440.00 146.67 440.00 152.00
C 434.67 152.00 429.33 152.00 424.00 152.00
C 424.00 146.67 424.00 141.33 424.00 136.00
C 429.33 136.00 434.67 136.00 440.00 136.00 Z"/>
</g>
<g fill="None" fill-opacity="0.0" stroke="#CBD0D8" stroke-opacity="1.00" stroke-width="0.3"><path d="
M 48.00 328.00 
C 53.33 328.00 58.67 328.00 64.00 328.00
C 64.00 282.67 64.00 237.33 64.00 192.00
C 73.07 193.29 91.13 193.48 86.31 182.69 C 81.48 171.91 79.13 169.99 74.92 160.08 C 70.72 150.16 67.41 147.95 63.77 137.23 C 60.13 126.50 51.28 127.47 47.92 137.92 C 44.57 148.37 40.57 151.03 36.77 160.77 C 32.97 170.51 29.48 172.81 25.31 183.31 C 21.14 193.80 39.67 192.99 48.00 192.00
C 48.00 237.33 48.00 282.67 48.00 328.00 Z"/>
</g>
<g fill="None" fill-opacity="0.0" stroke="#000000" stroke-opacity="1.00" stroke-width="0.3"><path d="
M 408.00 136.00 
C 402.67 136.00 397.33 136.00 392.00 136.00
C 392.00 141.33 392.00 146.67 392.00 152.00
C 397.33 152.00 402.67 152.00 408.00 152.00
C 408.00 146.67 408.00 141.33 408.00 136.00 Z"/>
</g>
<g fill="None" fill-opacity="0.0" stroke="#000000" stroke-opacity="1.00" stroke-width="0.3"><path d="
M 440.00 136.00 
C 434.67 136.00 429.33 136.00 424.00 136.00
C 424.00 141.33 424.00 146.67 424.00 152.00
C 429.33 152.00 434.67 152.00 440.00 152.00
C 440.00 146.67 440.00 141.33 440.00 136.00 Z"/>
</g>
<g fill="None" fill-opacity="0.0" stroke="#FEE9A6" stroke-opacity="1.00" stroke-width="0.3"><path d="
M 456.00 184.00 
C 397.33 184.00 338.67 184.00 280.00 184.00
C 280.00 200.00 280.00 216.00 280.00 232.00
C 338.67 232.00 397.33 232.00 456.00 232.00
C 456.00 216.00 456.00 200.00 456.00 184.00
M 312.00 200.00 
C 312.00 205.33 312.00 210.67 312.00 216.00
C 306.67 216.00 301.33 216.00 296.00 216.00
C 296.00 210.67 296.00 205.33 296.00 200.00
C 301.33 200.00 306.67 200.00 312.00 200.00
M 344.00 200.00 
C 344.00 205.33 344.00 210.67 344.00 216.00
C 338.67 216.00 333.33 216.00 328.00 216.00
C 328.00 210.67 328.00 205.33 328.00 200.00
C 333.33 200.00 338.67 200.00 344.00 200.00 Z"/>
</g>
<g fill="None" fill-opacity="0.0" stroke="#000000" stroke-opacity="1.00" stroke-width="0.3"><path d="
M 312.00 200.00 
C 306.67 200.00 301.33 200.00 296.00 200.00
C 296.00 205.33 296.00 210.67 296.00 216.00
C 301.33 216.00 306.67 216.00 312.00 216.00
C 312.00 210.67 312.00 205.33 312.00 200.00 Z"/>
</g>
<g fill="None" fill-opacity="0.0" stroke="#000000" stroke-opacity="1.00" stroke-width="0.3"><path d="
M 344.00 200.00 
C 338.67 200.00 333.33 200.00 328.00 200.00
C 328.00 205.33 328.00 210.67 328.00 216.00
C 333.33 216.00 338.67 216.00 344.00 216.00
C 344.00 210.67 344.00 205.33 344.00 200.00 Z"/>
</g>
<g fill="None" fill-opacity="0.0" stroke="#FEE9A6" stroke-opacity="1.00" stroke-width="0.3"><path d="
M 456.00 248.00 
C 397.33 248.00 338.67 248.00 280.00 248.00
C 276.95 261.25 280.32 274.26 291.92 278.08 C 303.52 281.91 306.70 289.85 315.25 296.75 C 323.80 303.65 327.46 312.03 332.00 321.00
C 341.01 309.96 360.35 324.60 368.75 317.75 C 377.16 310.91 378.88 296.02 392.00 296.00 C 405.12 295.98 419.67 294.83 425.23 308.77 C 430.79 322.72 443.60 318.94 456.00 317.00
C 456.00 294.00 456.00 271.00 456.00 248.00
M 408.00 264.00 
C 408.00 269.33 408.00 274.67 408.00 280.00
C 402.67 280.00 397.33 280.00 392.00 280.00
C 392.00 274.67 392.00 269.33 392.00 264.00
C 397.33 264.00 402.67 264.00 408.00 264.00
M 440.00 264.00 
C 440.00 269.33 440.00 274.67 440.00 280.00
C 434.67 280.00 429.33 280.00 424.00 280.00
C 424.00 274.67 424.00 269.33 424.00 264.00
C 429.33 264.00 434.67 264.00 440.00 264.00 Z"/>
</g>
<g fill="None" fill-opacity="0.0" stroke="#000000" stroke-opacity="1.00" stroke-width="0.3"><path d="
M 408.00 264.00 
C 402.67 264.00 397.33 264.00 392.00 264.00
C 392.00 269.33 392.00 274.67 392.00 280.00
C 397.33 280.00 402.67 280.00 408.00 280.00
C 408.00 274.67 408.00 269.33 408.00 264.00 Z"/>
</g>
<g fill="None" fill-opacity="0.0" stroke="#000000" stroke-opacity="1.00" stroke-width="0.3"><path d="
M 440.00 264.00 
C 434.67 264.00 429.33 264.00 424.00 264.00
C 424.00 269.33 424.00 274.67 424.00 280.00
C 429.33 280.00 434.67 280.00 440.00 280.00
C 440.00 274.67 440.00 269.33 440.00 264.00 Z"/>
</g>
<g fill="None" fill-opacity="0.0" stroke="#E4E7EB" stroke-opacity="1.00" stroke-width="0.3"><path d="
M 317.00 456.00 
C 318.41 445.46 322.83 430.98 310.70 426.30 C 298.56 421.63 295.37 410.72 296.00 399.00 C 296.63 387.28 298.48 377.57 311.92 372.92 C 325.37 368.28 313.78 353.14 317.01 343.01 C 320.24 332.88 317.55 322.47 309.75 314.25 C 301.95 306.02 297.18 299.97 287.75 294.25 C 278.32 288.54 269.95 284.58 259.00 282.00 C 248.05 279.42 231.78 279.48 221.02 282.02 C 210.27 284.56 200.34 288.68 191.70 294.70 C 183.06 300.72 175.46 305.62 171.00 315.00
C 180.61 315.17 186.80 321.20 195.25 324.75 C 203.71 328.29 205.52 335.96 213.25 340.75 C 220.98 345.54 211.52 358.27 204.75 355.25 C 197.99 352.23 195.23 341.86 187.25 338.75 C 179.26 335.64 173.27 330.49 164.01 328.99 C 154.75 327.49 142.80 328.59 134.01 331.01 C 125.21 333.43 118.78 337.82 111.75 342.75 C 104.71 347.67 100.70 355.24 95.92 360.92 C 91.15 366.60 92.38 383.03 84.69 381.31 C 77.01 379.59 65.36 373.37 56.67 376.67 C 47.99 379.98 40.81 381.42 34.75 388.75 C 28.69 396.09 25.12 402.62 24.00 412.00 C 22.88 421.38 25.97 431.25 31.23 438.77 C 36.49 446.29 41.00 449.48 49.78 453.22 C 58.55 456.97 70.46 456.03 81.00 456.00 C 91.54 455.97 104.06 456.01 115.00 456.00 C 125.94 455.99 137.92 456.01 149.00 456.00 C 160.08 455.99 170.84 456.00 182.00 456.00 C 193.16 456.00 204.76 456.00 216.00 456.00 C 227.24 456.00 238.76 456.00 250.00 456.00 C 261.24 456.00 272.81 456.00 284.00 456.00 C 295.19 456.00 305.86 456.00 317.00 456.00
M 310.00 350.00 
C 304.68 351.32 299.36 352.67 294.00 354.00
C 287.74 324.98 254.64 305.21 226.00 314.00
C 224.68 308.68 223.33 303.35 222.00 298.00
C 259.35 287.79 300.73 312.80 310.00 350.00
M 190.00 364.00 
C 185.22 366.34 181.59 370.39 177.00 373.00
C 163.70 350.56 124.48 359.43 121.00 385.00
C 115.43 385.32 110.67 382.41 105.00 383.00
C 109.93 343.50 169.33 329.23 190.00 364.00 Z"/>
</g>
<g fill="None" fill-opacity="0.0" stroke="#000000" stroke-opacity="1.00" stroke-width="0.3"><path d="
M 310.00 350.00 
C 300.73 312.80 259.35 287.79 222.00 298.00
C 223.33 303.35 224.68 308.68 226.00 314.00
C 254.64 305.21 287.74 324.98 294.00 354.00
C 299.36 352.67 304.68 351.32 310.00 350.00 Z"/>
</g>
<g fill="None" fill-opacity="0.0" stroke="#F96D50" stroke-opacity="1.00" stroke-width="0.3"><path d="
M 407.00 312.00 
C 393.50 307.90 388.13 317.70 383.25 326.25 C 378.37 334.80 363.38 337.85 356.01 334.99 C 348.64 332.13 332.72 333.60 333.00 345.00 C 333.28 356.40 338.13 364.92 331.92 375.92 C 325.70 386.92 318.69 382.81 312.33 393.33 C 305.97 403.85 318.55 413.09 326.25 416.75 C 333.94 420.41 338.35 437.19 334.99 443.99 C 331.63 450.79 333.81 467.51 345.00 467.00 C 356.19 466.49 365.01 461.96 375.92 468.08 C 386.83 474.20 382.85 481.33 393.33 487.67 C 403.81 494.01 413.09 481.40 416.75 473.75 C 420.42 466.11 437.22 461.70 443.99 465.01 C 450.77 468.32 467.52 466.20 467.00 455.00 C 466.48 443.80 461.96 434.97 468.08 424.08 C 474.21 413.19 481.31 417.08 487.67 406.67 C 494.03 396.26 481.35 386.75 473.75 383.25 C 466.15 379.74 461.60 362.41 465.01 356.01 C 468.42 349.60 465.98 331.69 455.00 333.00 C 444.02 334.31 434.48 336.25 424.08 331.92 C 413.68 327.59 415.83 314.68 407.00 312.00
M 408.00 344.00 
C 448.75 349.82 470.20 401.07 444.75 433.75 C 419.30 466.42 368.16 462.33 349.70 424.31 C 331.23 386.28 363.34 337.62 408.00 344.00 Z"/>
</g>
<g fill="None" fill-opacity="0.0" stroke="#000000" stroke-opacity="1.00" stroke-width="0.3"><path d="
M 190.00 364.00 
C 169.33 329.23 109.93 343.50 105.00 383.00
C 110.67 382.41 115.43 385.32 121.00 385.00
C 124.48 359.43 163.70 350.56 177.00 373.00
C 181.59 370.39 185.22 366.34 190.00 364.00 Z"/>
</g>
<g fill="None" fill-opacity="0.0" stroke="#000000" stroke-opacity="1.00" stroke-width="0.3"><path d="
M 408.00 344.00 
C 363.34 337.62 331.23 386.28 349.70 424.31 C 368.16 462.33 419.30 466.42 444.75 433.75 C 470.20 401.07 448.75 349.82 408.00 344.00
M 405.00 360.00 
C 434.28 363.54 449.77 399.57 432.25 423.25 C 414.72 446.93 377.83 444.93 364.23 417.77 C 350.63 390.61 373.50 356.19 405.00 360.00 Z"/>
</g>
<g fill="None" fill-opacity="0.0" stroke="#FB806C" stroke-opacity="1.00" stroke-width="0.3"><path d="
M 405.00 360.00 
C 373.50 356.19 350.63 390.61 364.23 417.77 C 377.83 444.93 414.72 446.93 432.25 423.25 C 449.77 399.57 434.28 363.54 405.00 360.00
M 405.00 376.00 
C 434.77 381.33 425.63 430.16 395.33 423.67 C 365.03 417.18 374.41 370.52 405.00 376.00 Z"/>
</g>
<g fill="None" fill-opacity="0.0" stroke="#000000" stroke-opacity="1.00" stroke-width="0.3"><path d="
M 405.00 376.00 
C 374.41 370.52 365.03 417.18 395.33 423.67 C 425.63 430.16 434.77 381.33 405.00 376.00
M 404.00 392.00 
C 413.44 395.48 405.84 413.16 396.33 407.67 C 386.82 402.18 393.99 388.30 404.00 392.00 Z"/>
</g>
<g fill="None" fill-opacity="0.0" stroke="#000000" stroke-opacity="0.08" stroke-width="0.3"><path d="
M 404.00 392.00 
C 393.99 388.30 386.82 402.18 396.33 407.67 C 405.84 413.16 413.44 395.48 404.00 392.00 Z"/>
</g>
<g fill="#000000" fill-opacity="0.01" stroke="None">
<path d="
M 0.00 512.00 
L 512.00 512.00
L 512.00 0.00
L 0.00 0.00
L 0.00 512.00
M 79.00 362.00 
C 84.00 348.94 93.70 333.94 106.75 326.75 C 119.80 319.55 127.71 311.79 141.25 312.81 C 154.79 313.82 161.92 297.61 171.92 288.92 C 181.92 280.23 189.27 277.29 198.77 272.42 C 208.27 267.56 219.92 265.53 232.00 265.00
C 232.04 249.49 231.95 234.58 232.00 219.00 C 232.05 203.42 231.91 187.68 232.00 172.00 C 232.09 156.32 231.80 140.79 232.00 125.00 C 232.20 109.21 231.56 93.98 232.00 78.00 C 232.44 62.02 230.55 53.55 233.13 39.08 C 235.71 24.61 252.66 8.36 267.75 8.40 C 282.85 8.43 297.59 7.74 313.00 8.00 C 328.41 8.26 343.74 7.91 359.00 8.00 C 374.26 8.09 391.05 8.02 406.00 8.00 C 420.95 7.98 438.83 8.13 453.00 8.00 C 467.17 7.87 475.02 8.28 482.92 13.13 C 490.82 17.98 497.09 23.64 500.58 31.77 C 504.06 39.90 504.18 51.32 504.00 65.00 C 503.82 78.68 504.09 97.26 504.00 112.00 C 503.91 126.74 504.05 143.81 504.00 159.00 C 503.95 174.19 504.05 190.69 504.00 206.00 C 503.95 221.31 504.09 236.69 504.00 252.00 C 503.91 267.31 504.19 283.82 504.00 299.00 C 503.81 314.18 504.40 331.27 504.00 346.00 C 503.60 360.73 504.89 379.36 504.00 393.00 C 503.11 406.64 505.83 420.06 490.31 425.31 C 474.78 430.55 484.57 447.44 482.67 458.67 C 480.77 469.90 469.90 479.35 459.32 482.32 C 448.75 485.29 430.84 473.85 425.69 489.70 C 420.55 505.54 407.17 502.39 393.78 503.22 C 380.39 504.05 377.49 489.07 368.92 482.08 C 360.34 475.09 341.24 489.79 331.77 478.23 C 322.30 466.67 305.25 473.19 291.00 472.00 C 276.75 470.81 258.88 472.55 244.00 472.00 C 229.12 471.45 213.13 472.25 198.00 472.00 C 182.87 471.75 166.11 472.12 151.00 472.00 C 135.89 471.88 118.72 472.07 104.00 472.00 C 89.28 471.93 71.41 472.49 58.00 471.00 C 44.59 469.51 35.62 465.35 26.25 456.75 C 16.88 448.15 11.96 438.80 9.22 426.78 C 6.48 414.76 9.67 399.35 15.77 388.77 C 21.88 378.19 28.97 371.60 40.08 366.08 C 51.18 360.55 66.48 359.08 79.00 362.00
M 160.00 24.00 
C 165.33 24.00 170.67 24.00 176.00 24.00
C 181.33 24.00 186.67 24.00 192.00 24.00
C 192.00 64.00 192.00 104.00 192.00 144.00
C 205.52 141.86 216.93 154.41 215.22 166.22 C 213.51 178.04 203.57 193.37 197.23 206.23 C 190.89 219.09 184.70 240.59 167.31 239.65 C 149.91 238.70 145.03 218.89 138.23 205.77 C 131.43 192.65 122.86 178.09 120.80 166.75 C 118.74 155.42 130.25 141.35 144.00 144.00
C 144.00 104.00 144.00 64.00 144.00 24.00
C 149.33 24.00 154.67 24.00 160.00 24.00
M 64.00 328.00 
C 58.67 328.00 53.33 328.00 48.00 328.00
C 42.67 328.00 37.33 328.00 32.00 328.00
C 32.00 288.00 32.00 248.00 32.00 208.00
C 3.66 207.49 7.10 181.83 17.77 163.77 C 28.44 145.71 30.43 137.50 37.13 124.08 C 43.82 110.66 65.79 109.17 74.59 122.75 C 83.38 136.33 81.73 145.02 93.92 163.08 C 106.12 181.13 107.69 207.48 80.00 208.00
C 80.00 248.00 80.00 288.00 80.00 328.00
C 74.67 328.00 69.33 328.00 64.00 328.00 Z"/>
</g>
<g fill="#000000" fill-opacity="1.00" stroke="None">
<path d="
M 79.00 362.00 
C 66.48 359.08 51.18 360.55 40.08 366.08 C 28.97 371.60 21.88 378.19 15.77 388.77 C 9.67 399.35 6.48 414.76 9.22 426.78 C 11.96 438.80 16.88 448.15 26.25 456.75 C 35.62 465.35 44.59 469.51 58.00 471.00 C 71.41 472.49 89.28 471.93 104.00 472.00 C 118.72 472.07 135.89 471.88 151.00 472.00 C 166.11 472.12 182.87 471.75 198.00 472.00 C 213.13 472.25 229.12 471.45 244.00 472.00 C 258.88 472.55 276.75 470.81 291.00 472.00 C 305.25 473.19 322.30 466.67 331.77 478.23 C 341.24 489.79 360.34 475.09 368.92 482.08 C 377.49 489.07 380.39 504.05 393.78 503.22 C 407.17 502.39 420.55 505.54 425.69 489.70 C 430.84 473.85 448.75 485.29 459.32 482.32 C 469.90 479.35 480.77 469.90 482.67 458.67 C 484.57 447.44 474.78 430.55 490.31 425.31 C 505.83 420.06 503.11 406.64 504.00 393.00 C 504.89 379.36 503.60 360.73 504.00 346.00 C 504.40 331.27 503.81 314.18 504.00 299.00 C 504.19 283.82 503.91 267.31 504.00 252.00 C 504.09 236.69 503.95 221.31 504.00 206.00 C 504.05 190.69 503.95 174.19 504.00 159.00 C 504.05 143.81 503.91 126.74 504.00 112.00 C 504.09 97.26 503.82 78.68 504.00 65.00 C 504.18 51.32 504.06 39.90 500.58 31.77 C 497.09 23.64 490.82 17.98 482.92 13.13 C 475.02 8.28 467.17 7.87 453.00 8.00 C 438.83 8.13 420.95 7.98 406.00 8.00 C 391.05 8.02 374.26 8.09 359.00 8.00 C 343.74 7.91 328.41 8.26 313.00 8.00 C 297.59 7.74 282.85 8.43 267.75 8.40 C 252.66 8.36 235.71 24.61 233.13 39.08 C 230.55 53.55 232.44 62.02 232.00 78.00 C 231.56 93.98 232.20 109.21 232.00 125.00 C 231.80 140.79 232.09 156.32 232.00 172.00 C 231.91 187.68 232.05 203.42 232.00 219.00 C 231.95 234.58 232.04 249.49 232.00 265.00
C 219.92 265.53 208.27 267.56 198.77 272.42 C 189.27 277.29 181.92 280.23 171.92 288.92 C 161.92 297.61 154.79 313.82 141.25 312.81 C 127.71 311.79 119.80 319.55 106.75 326.75 C 93.70 333.94 84.00 348.94 79.00 362.00
M 488.00 373.00 
C 471.10 364.17 490.92 345.20 478.75 332.25 C 466.58 319.31 473.14 300.72 472.00 283.00 C 470.86 265.28 472.56 244.41 472.00 226.00 C 471.44 207.59 472.33 188.83 472.00 170.00 C 471.67 151.17 472.32 132.23 472.00 113.00 C 471.68 93.77 472.54 76.92 472.00 57.00 C 471.46 37.08 448.36 38.92 432.00 40.00 C 415.64 41.08 392.83 38.69 376.00 40.00 C 359.17 41.31 336.07 37.58 320.00 40.00 C 303.93 42.42 279.55 32.62 268.25 45.25 C 256.95 57.88 266.29 80.14 264.00 97.00 C 261.71 113.86 265.08 136.09 264.00 154.00 C 262.92 171.91 264.56 191.62 264.00 210.00 C 263.44 228.38 264.42 248.46 264.00 267.00
C 258.78 265.63 253.37 264.92 248.00 264.00
C 248.94 239.16 246.75 213.79 248.00 189.00 C 249.25 164.21 245.60 138.60 248.00 114.00 C 250.40 89.40 242.11 63.24 249.78 39.78 C 257.44 16.31 287.16 25.16 309.00 24.00 C 330.84 22.84 359.74 24.73 384.00 24.00 C 408.26 23.27 434.01 24.78 460.00 24.00 C 485.99 23.22 490.28 47.55 488.00 71.00 C 485.72 94.45 489.02 121.60 488.00 146.00 C 486.98 170.40 488.48 197.18 488.00 222.00 C 487.52 246.82 488.25 271.99 488.00 297.00 C 487.75 322.01 488.19 347.91 488.00 373.00
M 456.00 56.00 
C 456.00 72.00 456.00 88.00 456.00 104.00
C 397.33 104.00 338.67 104.00 280.00 104.00
C 280.00 88.00 280.00 72.00 280.00 56.00
C 338.67 56.00 397.33 56.00 456.00 56.00
M 456.00 120.00 
C 456.00 136.00 456.00 152.00 456.00 168.00
C 397.33 168.00 338.67 168.00 280.00 168.00
C 280.00 152.00 280.00 136.00 280.00 120.00
C 338.67 120.00 397.33 120.00 456.00 120.00
M 456.00 184.00 
C 456.00 200.00 456.00 216.00 456.00 232.00
C 397.33 232.00 338.67 232.00 280.00 232.00
C 280.00 216.00 280.00 200.00 280.00 184.00
C 338.67 184.00 397.33 184.00 456.00 184.00
M 456.00 248.00 
C 456.00 271.00 456.00 294.00 456.00 317.00
C 443.60 318.94 430.79 322.72 425.23 308.77 C 419.67 294.83 405.12 295.98 392.00 296.00 C 378.88 296.02 377.16 310.91 368.75 317.75 C 360.35 324.60 341.01 309.96 332.00 321.00
C 327.46 312.03 323.80 303.65 315.25 296.75 C 306.70 289.85 303.52 281.91 291.92 278.08 C 280.32 274.26 276.95 261.25 280.00 248.00
C 338.67 248.00 397.33 248.00 456.00 248.00
M 317.00 456.00 
C 305.86 456.00 295.19 456.00 284.00 456.00 C 272.81 456.00 261.24 456.00 250.00 456.00 C 238.76 456.00 227.24 456.00 216.00 456.00 C 204.76 456.00 193.16 456.00 182.00 456.00 C 170.84 456.00 160.08 455.99 149.00 456.00 C 137.92 456.01 125.94 455.99 115.00 456.00 C 104.06 456.01 91.54 455.97 81.00 456.00 C 70.46 456.03 58.55 456.97 49.78 453.22 C 41.00 449.48 36.49 446.29 31.23 438.77 C 25.97 431.25 22.88 421.38 24.00 412.00 C 25.12 402.62 28.69 396.09 34.75 388.75 C 40.81 381.42 47.99 379.98 56.67 376.67 C 65.36 373.37 77.01 379.59 84.69 381.31 C 92.38 383.03 91.15 366.60 95.92 360.92 C 100.70 355.24 104.71 347.67 111.75 342.75 C 118.78 337.82 125.21 333.43 134.01 331.01 C 142.80 328.59 154.75 327.49 164.01 328.99 C 173.27 330.49 179.26 335.64 187.25 338.75 C 195.23 341.86 197.99 352.23 204.75 355.25 C 211.52 358.27 220.98 345.54 213.25 340.75 C 205.52 335.96 203.71 328.29 195.25 324.75 C 186.80 321.20 180.61 315.17 171.00 315.00
C 175.46 305.62 183.06 300.72 191.70 294.70 C 200.34 288.68 210.27 284.56 221.02 282.02 C 231.78 279.48 248.05 279.42 259.00 282.00 C 269.95 284.58 278.32 288.54 287.75 294.25 C 297.18 299.97 301.95 306.02 309.75 314.25 C 317.55 322.47 320.24 332.88 317.01 343.01 C 313.78 353.14 325.37 368.28 311.92 372.92 C 298.48 377.57 296.63 387.28 296.00 399.00 C 295.37 410.72 298.56 421.63 310.70 426.30 C 322.83 430.98 318.41 445.46 317.00 456.00
M 407.00 312.00 
C 415.83 314.68 413.68 327.59 424.08 331.92 C 434.48 336.25 444.02 334.31 455.00 333.00 C 465.98 331.69 468.42 349.60 465.01 356.01 C 461.60 362.41 466.15 379.74 473.75 383.25 C 481.35 386.75 494.03 396.26 487.67 406.67 C 481.31 417.08 474.21 413.19 468.08 424.08 C 461.96 434.97 466.48 443.80 467.00 455.00 C 467.52 466.20 450.77 468.32 443.99 465.01 C 437.22 461.70 420.42 466.11 416.75 473.75 C 413.09 481.40 403.81 494.01 393.33 487.67 C 382.85 481.33 386.83 474.20 375.92 468.08 C 365.01 461.96 356.19 466.49 345.00 467.00 C 333.81 467.51 331.63 450.79 334.99 443.99 C 338.35 437.19 333.94 420.41 326.25 416.75 C 318.55 413.09 305.97 403.85 312.33 393.33 C 318.69 382.81 325.70 386.92 331.92 375.92 C 338.13 364.92 333.28 356.40 333.00 345.00 C 332.72 333.60 348.64 332.13 356.01 334.99 C 363.38 337.85 378.37 334.80 383.25 326.25 C 388.13 317.70 393.50 307.90 407.00 312.00 Z"/>
</g>
<g fill="#000000" fill-opacity="1.00" stroke="None">
<path d="
M 176.00 24.00 
C 176.00 69.33 176.00 114.67 176.00 160.00
C 184.33 159.01 202.86 158.20 198.69 168.69 C 194.52 179.19 191.03 181.49 187.23 191.23 C 183.43 200.97 179.43 203.63 176.08 214.08 C 172.72 224.53 163.87 225.50 160.23 214.77 C 156.59 204.05 153.28 201.84 149.08 191.92 C 144.87 182.01 142.52 180.09 137.69 169.31 C 132.87 158.52 150.93 158.71 160.00 160.00
C 160.00 114.67 160.00 69.33 160.00 24.00
C 154.67 24.00 149.33 24.00 144.00 24.00
C 144.00 64.00 144.00 104.00 144.00 144.00
C 130.25 141.35 118.74 155.42 120.80 166.75 C 122.86 178.09 131.43 192.65 138.23 205.77 C 145.03 218.89 149.91 238.70 167.31 239.65 C 184.70 240.59 190.89 219.09 197.23 206.23 C 203.57 193.37 213.51 178.04 215.22 166.22 C 216.93 154.41 205.52 141.86 192.00 144.00
C 192.00 104.00 192.00 64.00 192.00 24.00
C 186.67 24.00 181.33 24.00 176.00 24.00 Z"/>
</g>
<g fill="#CBD0D8" fill-opacity="1.00" stroke="None">
<path d="
M 176.00 24.00 
C 170.67 24.00 165.33 24.00 160.00 24.00
C 160.00 69.33 160.00 114.67 160.00 160.00
C 150.93 158.71 132.87 158.52 137.69 169.31 C 142.52 180.09 144.87 182.01 149.08 191.92 C 153.28 201.84 156.59 204.05 160.23 214.77 C 163.87 225.50 172.72 224.53 176.08 214.08 C 179.43 203.63 183.43 200.97 187.23 191.23 C 191.03 181.49 194.52 179.19 198.69 168.69 C 202.86 158.20 184.33 159.01 176.00 160.00
C 176.00 114.67 176.00 69.33 176.00 24.00 Z"/>
</g>
<g fill="#FBD66F" fill-opacity="1.00" stroke="None">
<path d="
M 488.00 373.00 
C 488.19 347.91 487.75 322.01 488.00 297.00 C 488.25 271.99 487.52 246.82 488.00 222.00 C 488.48 197.18 486.98 170.40 488.00 146.00 C 489.02 121.60 485.72 94.45 488.00 71.00 C 490.28 47.55 485.99 23.22 460.00 24.00 C 434.01 24.78 408.26 23.27 384.00 24.00 C 359.74 24.73 330.84 22.84 309.00 24.00 C 287.16 25.16 257.44 16.31 249.78 39.78 C 242.11 63.24 250.40 89.40 248.00 114.00 C 245.60 138.60 249.25 164.21 248.00 189.00 C 246.75 213.79 248.94 239.16 248.00 264.00
C 253.37 264.92 258.78 265.63 264.00 267.00
C 264.42 248.46 263.44 228.38 264.00 210.00 C 264.56 191.62 262.92 171.91 264.00 154.00 C 265.08 136.09 261.71 113.86 264.00 97.00 C 266.29 80.14 256.95 57.88 268.25 45.25 C 279.55 32.62 303.93 42.42 320.00 40.00 C 336.07 37.58 359.17 41.31 376.00 40.00 C 392.83 38.69 415.64 41.08 432.00 40.00 C 448.36 38.92 471.46 37.08 472.00 57.00 C 472.54 76.92 471.68 93.77 472.00 113.00 C 472.32 132.23 471.67 151.17 472.00 170.00 C 472.33 188.83 471.44 207.59 472.00 226.00 C 472.56 244.41 470.86 265.28 472.00 283.00 C 473.14 300.72 466.58 319.31 478.75 332.25 C 490.92 345.20 471.10 364.17 488.00 373.00 Z"/>
</g>
<g fill="#FEE9A6" fill-opacity="1.00" stroke="None">
<path d="
M 456.00 56.00 
C 397.33 56.00 338.67 56.00 280.00 56.00
C 280.00 72.00 280.00 88.00 280.00 104.00
C 338.67 104.00 397.33 104.00 456.00 104.00
C 456.00 88.00 456.00 72.00 456.00 56.00
M 312.00 72.00 
C 312.00 77.33 312.00 82.67 312.00 88.00
C 306.67 88.00 301.33 88.00 296.00 88.00
C 296.00 82.67 296.00 77.33 296.00 72.00
C 301.33 72.00 306.67 72.00 312.00 72.00
M 344.00 72.00 
C 344.00 77.33 344.00 82.67 344.00 88.00
C 338.67 88.00 333.33 88.00 328.00 88.00
C 328.00 82.67 328.00 77.33 328.00 72.00
C 333.33 72.00 338.67 72.00 344.00 72.00 Z"/>
</g>
<g fill="#000000" fill-opacity="1.00" stroke="None">
<path d="
M 312.00 72.00 
C 306.67 72.00 301.33 72.00 296.00 72.00
C 296.00 77.33 296.00 82.67 296.00 88.00
C 301.33 88.00 306.67 88.00 312.00 88.00
C 312.00 82.67 312.00 77.33 312.00 72.00 Z"/>
</g>
<g fill="#000000" fill-opacity="1.00" stroke="None">
<path d="
M 344.00 72.00 
C 338.67 72.00 333.33 72.00 328.00 72.00
C 328.00 77.33 328.00 82.67 328.00 88.00
C 333.33 88.00 338.67 88.00 344.00 88.00
C 344.00 82.67 344.00 77.33 344.00 72.00 Z"/>
</g>
<g fill="#000000" fill-opacity="1.00" stroke="None">
<path d="
M 48.00 328.00 
C 48.00 282.67 48.00 237.33 48.00 192.00
C 39.67 192.99 21.14 193.80 25.31 183.31 C 29.48 172.81 32.97 170.51 36.77 160.77 C 40.57 151.03 44.57 148.37 47.92 137.92 C 51.28 127.47 60.13 126.50 63.77 137.23 C 67.41 147.95 70.72 150.16 74.92 160.08 C 79.13 169.99 81.48 171.91 86.31 182.69 C 91.13 193.48 73.07 193.29 64.00 192.00
C 64.00 237.33 64.00 282.67 64.00 328.00
C 69.33 328.00 74.67 328.00 80.00 328.00
C 80.00 288.00 80.00 248.00 80.00 208.00
C 107.69 207.48 106.12 181.13 93.92 163.08 C 81.73 145.02 83.38 136.33 74.59 122.75 C 65.79 109.17 43.82 110.66 37.13 124.08 C 30.43 137.50 28.44 145.71 17.77 163.77 C 7.10 181.83 3.66 207.49 32.00 208.00
C 32.00 248.00 32.00 288.00 32.00 328.00
C 37.33 328.00 42.67 328.00 48.00 328.00 Z"/>
</g>
<g fill="#FEE9A6" fill-opacity="1.00" stroke="None">
<path d="
M 456.00 120.00 
C 397.33 120.00 338.67 120.00 280.00 120.00
C 280.00 136.00 280.00 152.00 280.00 168.00
C 338.67 168.00 397.33 168.00 456.00 168.00
C 456.00 152.00 456.00 136.00 456.00 120.00
M 408.00 136.00 
C 408.00 141.33 408.00 146.67 408.00 152.00
C 402.67 152.00 397.33 152.00 392.00 152.00
C 392.00 146.67 392.00 141.33 392.00 136.00
C 397.33 136.00 402.67 136.00 408.00 136.00
M 440.00 136.00 
C 440.00 141.33 440.00 146.67 440.00 152.00
C 434.67 152.00 429.33 152.00 424.00 152.00
C 424.00 146.67 424.00 141.33 424.00 136.00
C 429.33 136.00 434.67 136.00 440.00 136.00 Z"/>
</g>
<g fill="#CBD0D8" fill-opacity="1.00" stroke="None">
<path d="
M 48.00 328.00 
C 53.33 328.00 58.67 328.00 64.00 328.00
C 64.00 282.67 64.00 237.33 64.00 192.00
C 73.07 193.29 91.13 193.48 86.31 182.69 C 81.48 171.91 79.13 169.99 74.92 160.08 C 70.72 150.16 67.41 147.95 63.77 137.23 C 60.13 126.50 51.28 127.47 47.92 137.92 C 44.57 148.37 40.57 151.03 36.77 160.77 C 32.97 170.51 29.48 172.81 25.31 183.31 C 21.14 193.80 39.67 192.99 48.00 192.00
C 48.00 237.33 48.00 282.67 48.00 328.00 Z"/>
</g>
<g fill="#000000" fill-opacity="1.00" stroke="None">
<path d="
M 408.00 136.00 
C 402.67 136.00 397.33 136.00 392.00 136.00
C 392.00 141.33 392.00 146.67 392.00 152.00
C 397.33 152.00 402.67 152.00 408.00 152.00
C 408.00 146.67 408.00 141.33 408.00 136.00 Z"/>
</g>
<g fill="#000000" fill-opacity="1.00" stroke="None">
<path d="
M 440.00 136.00 
C 434.67 136.00 429.33 136.00 424.00 136.00
C 424.00 141.33 424.00 146.67 424.00 152.00
C 429.33 152.00 434.67 152.00 440.00 152.00
C 440.00 146.67 440.00 141.33 440.00 136.00 Z"/>
</g>
<g fill="#FEE9A6" fill-opacity="1.00" stroke="None">
<path d="
M 456.00 184.00 
C 397.33 184.00 338.67 184.00 280.00 184.00
C 280.00 200.00 280.00 216.00 280.00 232.00
C 338.67 232.00 397.33 232.00 456.00 232.00
C 456.00 216.00 456.00 200.00 456.00 184.00
M 312.00 200.00 
C 312.00 205.33 312.00 210.67 312.00 216.00
C 306.67 216.00 301.33 216.00 296.00 216.00
C 296.00 210.67 296.00 205.33 296.00 200.00
C 301.33 200.00 306.67 200.00 312.00 200.00
M 344.00 200.00 
C 344.00 205.33 344.00 210.67 344.00 216.00
C 338.67 216.00 333.33 216.00 328.00 216.00
C 328.00 210.67 328.00 205.33 328.00 200.00
C 333.33 200.00 338.67 200.00 344.00 200.00 Z"/>
</g>
<g fill="#000000" fill-opacity="1.00" stroke="None">
<path d="
M 312.00 200.00 
C 306.67 200.00 301.33 200.00 296.00 200.00
C 296.00 205.33 296.00 210.67 296.00 216.00
C 301.33 216.00 306.67 216.00 312.00 216.00
C 312.00 210.67 312.00 205.33 312.00 200.00 Z"/>
</g>
<g fill="#000000" fill-opacity="1.00" stroke="None">
<path d="
M 344.00 200.00 
C 338.67 200.00 333.33 200.00 328.00 200.00
C 328.00 205.33 328.00 210.67 328.00 216.00
C 333.33 216.00 338.67 216.00 344.00 216.00
C 344.00 210.67 344.00 205.33 344.00 200.00 Z"/>
</g>
<g fill="#FEE9A6" fill-opacity="1.00" stroke="None">
<path d="
M 456.00 248.00 
C 397.33 248.00 338.67 248.00 280.00 248.00
C 276.95 261.25 280.32 274.26 291.92 278.08 C 303.52 281.91 306.70 289.85 315.25 296.75 C 323.80 303.65 327.46 312.03 332.00 321.00
C 341.01 309.96 360.35 324.60 368.75 317.75 C 377.16 310.91 378.88 296.02 392.00 296.00 C 405.12 295.98 419.67 294.83 425.23 308.77 C 430.79 322.72 443.60 318.94 456.00 317.00
C 456.00 294.00 456.00 271.00 456.00 248.00
M 408.00 264.00 
C 408.00 269.33 408.00 274.67 408.00 280.00
C 402.67 280.00 397.33 280.00 392.00 280.00
C 392.00 274.67 392.00 269.33 392.00 264.00
C 397.33 264.00 402.67 264.00 408.00 264.00
M 440.00 264.00 
C 440.00 269.33 440.00 274.67 440.00 280.00
C 434.67 280.00 429.33 280.00 424.00 280.00
C 424.00 274.67 424.00 269.33 424.00 264.00
C 429.33 264.00 434.67 264.00 440.00 264.00 Z"/>
</g>
<g fill="#000000" fill-opacity="1.00" stroke="None">
<path d="
M 408.00 264.00 
C 402.67 264.00 397.33 264.00 392.00 264.00
C 392.00 269.33 392.00 274.67 392.00 280.00
C 397.33 280.00 402.67 280.00 408.00 280.00
C 408.00 274.67 408.00 269.33 408.00 264.00 Z"/>
</g>
<g fill="#000000" fill-opacity="1.00" stroke="None">
<path d="
M 440.00 264.00 
C 434.67 264.00 429.33 264.00 424.00 264.00
C 424.00 269.33 424.00 274.67 424.00 280.00
C 429.33 280.00 434.67 280.00 440.00 280.00
C 440.00 274.67 440.00 269.33 440.00 264.00 Z"/>
</g>
<g fill="#E4E7EB" fill-opacity="1.00" stroke="None">
<path d="
M 317.00 456.00 
C 318.41 445.46 322.83 430.98 310.70 426.30 C 298.56 421.63 295.37 410.72 296.00 399.00 C 296.63 387.28 298.48 377.57 311.92 372.92 C 325.37 368.28 313.78 353.14 317.01 343.01 C 320.24 332.88 317.55 322.47 309.75 314.25 C 301.95 306.02 297.18 299.97 287.75 294.25 C 278.32 288.54 269.95 284.58 259.00 282.00 C 248.05 279.42 231.78 279.48 221.02 282.02 C 210.27 284.56 200.34 288.68 191.70 294.70 C 183.06 300.72 175.46 305.62 171.00 315.00
C 180.61 315.17 186.80 321.20 195.25 324.75 C 203.71 328.29 205.52 335.96 213.25 340.75 C 220.98 345.54 211.52 358.27 204.75 355.25 C 197.99 352.23 195.23 341.86 187.25 338.75 C 179.26 335.64 173.27 330.49 164.01 328.99 C 154.75 327.49 142.80 328.59 134.01 331.01 C 125.21 333.43 118.78 337.82 111.75 342.75 C 104.71 347.67 100.70 355.24 95.92 360.92 C 91.15 366.60 92.38 383.03 84.69 381.31 C 77.01 379.59 65.36 373.37 56.67 376.67 C 47.99 379.98 40.81 381.42 34.75 388.75 C 28.69 396.09 25.12 402.62 24.00 412.00 C 22.88 421.38 25.97 431.25 31.23 438.77 C 36.49 446.29 41.00 449.48 49.78 453.22 C 58.55 456.97 70.46 456.03 81.00 456.00 C 91.54 455.97 104.06 456.01 115.00 456.00 C 125.94 455.99 137.92 456.01 149.00 456.00 C 160.08 455.99 170.84 456.00 182.00 456.00 C 193.16 456.00 204.76 456.00 216.00 456.00 C 227.24 456.00 238.76 456.00 250.00 456.00 C 261.24 456.00 272.81 456.00 284.00 456.00 C 295.19 456.00 305.86 456.00 317.00 456.00
M 310.00 350.00 
C 304.68 351.32 299.36 352.67 294.00 354.00
C 287.74 324.98 254.64 305.21 226.00 314.00
C 224.68 308.68 223.33 303.35 222.00 298.00
C 259.35 287.79 300.73 312.80 310.00 350.00
M 190.00 364.00 
C 185.22 366.34 181.59 370.39 177.00 373.00
C 163.70 350.56 124.48 359.43 121.00 385.00
C 115.43 385.32 110.67 382.41 105.00 383.00
C 109.93 343.50 169.33 329.23 190.00 364.00 Z"/>
</g>
<g fill="#000000" fill-opacity="1.00" stroke="None">
<path d="
M 310.00 350.00 
C 300.73 312.80 259.35 287.79 222.00 298.00
C 223.33 303.35 224.68 308.68 226.00 314.00
C 254.64 305.21 287.74 324.98 294.00 354.00
C 299.36 352.67 304.68 351.32 310.00 350.00 Z"/>
</g>
<g fill="#F96D50" fill-opacity="1.00" stroke="None">
<path d="
M 407.00 312.00 
C 393.50 307.90 388.13 317.70 383.25 326.25 C 378.37 334.80 363.38 337.85 356.01 334.99 C 348.64 332.13 332.72 333.60 333.00 345.00 C 333.28 356.40 338.13 364.92 331.92 375.92 C 325.70 386.92 318.69 382.81 312.33 393.33 C 305.97 403.85 318.55 413.09 326.25 416.75 C 333.94 420.41 338.35 437.19 334.99 443.99 C 331.63 450.79 333.81 467.51 345.00 467.00 C 356.19 466.49 365.01 461.96 375.92 468.08 C 386.83 474.20 382.85 481.33 393.33 487.67 C 403.81 494.01 413.09 481.40 416.75 473.75 C 420.42 466.11 437.22 461.70 443.99 465.01 C 450.77 468.32 467.52 466.20 467.00 455.00 C 466.48 443.80 461.96 434.97 468.08 424.08 C 474.21 413.19 481.31 417.08 487.67 406.67 C 494.03 396.26 481.35 386.75 473.75 383.25 C 466.15 379.74 461.60 362.41 465.01 356.01 C 468.42 349.60 465.98 331.69 455.00 333.00 C 444.02 334.31 434.48 336.25 424.08 331.92 C 413.68 327.59 415.83 314.68 407.00 312.00
M 408.00 344.00 
C 448.75 349.82 470.20 401.07 444.75 433.75 C 419.30 466.42 368.16 462.33 349.70 424.31 C 331.23 386.28 363.34 337.62 408.00 344.00 Z"/>
</g>
<g fill="#000000" fill-opacity="1.00" stroke="None">
<path d="
M 190.00 364.00 
C 169.33 329.23 109.93 343.50 105.00 383.00
C 110.67 382.41 115.43 385.32 121.00 385.00
C 124.48 359.43 163.70 350.56 177.00 373.00
C 181.59 370.39 185.22 366.34 190.00 364.00 Z"/>
</g>
<g fill="#000000" fill-opacity="1.00" stroke="None">
<path d="
M 408.00 344.00 
C 363.34 337.62 331.23 386.28 349.70 424.31 C 368.16 462.33 419.30 466.42 444.75 433.75 C 470.20 401.07 448.75 349.82 408.00 344.00
M 405.00 360.00 
C 434.28 363.54 449.77 399.57 432.25 423.25 C 414.72 446.93 377.83 444.93 364.23 417.77 C 350.63 390.61 373.50 356.19 405.00 360.00 Z"/>
</g>
<g fill="#FB806C" fill-opacity="1.00" stroke="None">
<path d="
M 405.00 360.00 
C 373.50 356.19 350.63 390.61 364.23 417.77 C 377.83 444.93 414.72 446.93 432.25 423.25 C 449.77 399.57 434.28 363.54 405.00 360.00
M 405.00 376.00 
C 434.77 381.33 425.63 430.16 395.33 423.67 C 365.03 417.18 374.41 370.52 405.00 376.00 Z"/>
</g>
<g fill="#000000" fill-opacity="1.00" stroke="None">
<path d="
M 405.00 376.00 
C 374.41 370.52 365.03 417.18 395.33 423.67 C 425.63 430.16 434.77 381.33 405.00 376.00
M 404.00 392.00 
C 413.44 395.48 405.84 413.16 396.33 407.67 C 386.82 402.18 393.99 388.30 404.00 392.00 Z"/>
</g>
<g fill="#000000" fill-opacity="0.08" stroke="None">
<path d="
M 404.00 392.00 
C 393.99 388.30 386.82 402.18 396.33 407.67 C 405.84 413.16 413.44 395.48 404.00 392.00 Z"/>
</g>
</svg>