<svg xmlns="http://www.w3.org/2000/svg" xmlns:v="https://svgstorm.com"
viewBox = "0 0 512 512"
width="512"
height="512">
<g fill="None" fill-opacity="0.0" stroke="#000000" stroke-opacity="0.00" stroke-width="0.3"><path d="
M 0.00 512.00 
L 512.00 512.00
L 512.00 0.00
L 0.00 0.00
L 0.00 512.00
M 478.00 149.00 
C 478.00 161.36 473.43 170.60 461.98 173.98 C 450.52 177.35 457.48 196.86 452.02 205.02 C 446.57 213.19 443.85 223.40 434.75 228.75 C 425.65 234.10 419.69 241.19 410.00 245.00
C 410.52 250.80 410.83 258.25 410.00 264.00
C 421.16 264.66 435.80 273.23 446.00 277.00
C 451.47 279.02 457.15 280.68 462.23 283.77 C 467.31 286.86 472.18 289.28 476.70 293.30 C 481.21 297.32 484.51 301.18 487.92 306.08 C 491.32 310.98 494.71 315.17 496.92 321.08 C 499.14 326.98 501.56 332.51 502.78 339.22 C 504.00 345.93 504.09 354.61 504.00 362.00 C 503.91 369.39 504.05 378.53 504.00 386.00 C 503.95 393.47 504.03 401.71 504.00 409.00 C 503.97 416.29 504.87 423.52 500.23 429.23 C 495.59 434.94 490.24 435.78 483.00 436.00 C 475.76 436.22 466.51 435.65 459.00 436.00 C 451.49 436.35 442.46 435.29 435.00 436.00 C 427.54 436.71 418.05 434.45 411.00 436.00 C 403.95 437.55 393.00 432.58 387.00 436.00
C 378.78 463.44 359.96 480.23 334.31 494.31 C 308.65 508.38 263.84 502.91 234.00 503.00
C 214.54 503.06 193.21 504.30 173.00 504.00 C 152.79 503.70 131.07 503.41 111.00 504.00 C 90.93 504.59 68.53 502.14 49.00 504.00 C 29.47 505.86 7.03 504.10 8.00 482.00 C 8.97 459.90 7.69 439.67 8.00 420.00 C 8.31 400.33 12.61 386.92 22.77 372.77 C 32.93 358.62 43.89 351.72 59.00 346.00
C 69.91 341.87 81.45 334.89 93.00 333.00
C 92.37 326.06 92.37 317.94 93.00 311.00
C 67.99 295.45 54.24 266.81 55.00 238.00
C 42.35 237.88 32.37 225.57 34.00 213.00
C 34.00 205.34 33.85 197.66 34.00 190.00
C 34.67 156.69 59.64 118.18 93.00 108.00
C 96.21 101.51 92.70 89.59 98.77 83.77 C 104.84 77.95 106.95 72.69 115.08 70.08 C 123.20 67.46 132.95 67.05 141.02 69.98 C 149.09 72.90 151.25 77.89 157.25 83.75 C 163.26 89.60 159.79 101.44 163.00 108.00
C 195.59 118.10 221.34 155.82 222.00 189.00
C 222.15 196.33 222.00 203.67 222.00 211.00
C 222.00 224.13 216.77 238.56 201.00 238.00
C 201.84 266.37 188.54 294.67 164.00 310.00
C 164.64 310.73 162.34 318.58 163.00 321.00 C 163.66 323.42 163.25 330.26 163.00 333.00
C 173.55 333.21 187.11 342.26 197.00 346.00
C 221.04 355.10 242.84 377.38 247.00 403.00
C 247.00 376.40 244.02 341.98 254.92 318.92 C 265.83 295.87 282.75 285.21 305.00 277.00
C 315.24 273.22 329.83 264.65 341.00 264.00
C 340.17 258.25 340.48 250.79 341.00 245.00
C 331.25 241.17 325.49 233.94 316.30 228.70 C 307.12 223.45 304.50 213.32 299.07 204.93 C 293.65 196.53 300.46 177.50 288.99 174.01 C 277.53 170.52 273.00 161.47 273.00 149.00
C 273.00 114.51 271.18 75.15 293.75 48.75 C 316.33 22.35 340.35 8.08 375.00 8.00 C 409.65 7.92 434.07 21.71 456.92 48.08 C 479.77 74.46 478.00 114.44 478.00 149.00 Z"/>
</g>
<g fill="None" fill-opacity="0.0" stroke="#543C34" stroke-opacity="0.99" stroke-width="0.3"><path d="
M 273.00 149.00 
C 274.71 140.73 284.54 133.00 293.00 133.00
C 292.10 117.06 304.48 108.68 318.00 106.00 C 331.52 103.32 345.05 100.90 357.23 93.23 C 369.41 85.56 380.92 84.50 393.08 92.92 C 405.23 101.35 419.13 102.50 432.67 105.33 C 446.21 108.16 459.18 117.08 457.00 133.00
C 466.83 132.25 475.00 140.75 478.00 149.00
C 478.00 114.44 479.77 74.46 456.92 48.08 C 434.07 21.71 409.65 7.92 375.00 8.00 C 340.35 8.08 316.33 22.35 293.75 48.75 C 271.18 75.15 273.00 114.51 273.00 149.00 Z"/>
</g>
<g fill="None" fill-opacity="0.0" stroke="#3A2823" stroke-opacity="0.96" stroke-width="0.3"><path d="
M 93.00 108.00 
C 115.42 101.16 140.55 101.04 163.00 108.00
C 159.79 101.44 163.26 89.60 157.25 83.75 C 151.25 77.89 149.09 72.90 141.02 69.98 C 132.95 67.05 123.20 67.46 115.08 70.08 C 106.95 72.69 104.84 77.95 98.77 83.77 C 92.70 89.59 96.21 101.51 93.00 108.00 Z"/>
</g>
<g fill="None" fill-opacity="0.0" stroke="#E6BC9F" stroke-opacity="0.99" stroke-width="0.3"><path d="
M 273.00 149.00 
C 273.00 161.47 277.53 170.52 288.99 174.01 C 300.46 177.50 293.65 196.53 299.07 204.93 C 304.50 213.32 307.12 223.45 316.30 228.70 C 325.49 233.94 331.25 241.17 341.00 245.00
C 341.43 245.17 342.00 245.00 342.00 245.00
C 363.96 258.66 387.04 258.64 409.00 245.00
C 409.36 244.78 410.00 245.00 410.00 245.00
C 419.69 241.19 425.65 234.10 434.75 228.75 C 443.85 223.40 446.57 213.19 452.02 205.02 C 457.48 196.86 450.52 177.35 461.98 173.98 C 473.43 170.60 478.00 161.36 478.00 149.00
C 475.00 140.75 466.83 132.25 457.00 133.00
C 459.18 117.08 446.21 108.16 432.67 105.33 C 419.13 102.50 405.23 101.35 393.08 92.92 C 380.92 84.50 369.41 85.56 357.23 93.23 C 345.05 100.90 331.52 103.32 318.00 106.00 C 304.48 108.68 292.10 117.06 293.00 133.00
C 284.54 133.00 274.71 140.73 273.00 149.00 Z"/>
</g>
<g fill="None" fill-opacity="0.0" stroke="#543C34" stroke-opacity="0.99" stroke-width="0.3"><path d="
M 93.00 108.00 
C 59.64 118.18 34.67 156.69 34.00 190.00
C 34.46 195.94 35.57 203.34 35.00 210.00
C 39.35 195.85 52.36 194.91 65.00 194.00 C 77.64 193.09 92.39 189.62 104.08 186.08 C 115.76 182.53 127.93 180.92 137.25 172.25 C 146.57 163.57 158.43 158.83 164.77 171.23 C 171.12 183.63 177.22 189.83 190.07 192.93 C 202.93 196.02 214.01 195.43 221.00 209.00
C 220.19 202.42 221.55 194.80 222.00 189.00
C 221.34 155.82 195.59 118.10 163.00 108.00
C 140.55 101.04 115.42 101.16 93.00 108.00 Z"/>
</g>
<g fill="None" fill-opacity="0.0" stroke="#A5715B" stroke-opacity="0.99" stroke-width="0.3"><path d="
M 35.00 210.00 
C 34.88 211.34 34.17 212.21 34.00 213.00
C 32.37 225.57 42.35 237.88 55.00 238.00
C 54.24 266.81 67.99 295.45 93.00 311.00
C 93.36 311.22 94.00 311.00 94.00 311.00
C 105.43 315.12 114.89 324.63 128.00 324.00 C 141.11 323.37 150.76 316.77 162.00 311.00
C 162.68 310.65 163.33 310.34 164.00 310.00
C 188.54 294.67 201.84 266.37 201.00 238.00
C 216.77 238.56 222.00 224.13 222.00 211.00
C 221.87 210.50 221.12 209.97 221.00 209.00
C 214.01 195.43 202.93 196.02 190.07 192.93 C 177.22 189.83 171.12 183.63 164.77 171.23 C 158.43 158.83 146.57 163.57 137.25 172.25 C 127.93 180.92 115.76 182.53 104.08 186.08 C 92.39 189.62 77.64 193.09 65.00 194.00 C 52.36 194.91 39.35 195.85 35.00 210.00 Z"/>
</g>
<g fill="None" fill-opacity="0.0" stroke="#543C34" stroke-opacity="0.85" stroke-width="0.3"><path d="
M 221.00 209.00 
C 221.12 209.97 221.87 210.50 222.00 211.00
C 222.00 203.67 222.15 196.33 222.00 189.00
C 221.55 194.80 220.19 202.42 221.00 209.00 Z"/>
</g>
<g fill="None" fill-opacity="0.0" stroke="#543C34" stroke-opacity="0.85" stroke-width="0.3"><path d="
M 34.00 213.00 
C 34.17 212.21 34.88 211.34 35.00 210.00
C 35.57 203.34 34.46 195.94 34.00 190.00
C 33.85 197.66 34.00 205.34 34.00 213.00 Z"/>
</g>
<g fill="None" fill-opacity="0.0" stroke="#D7AA92" stroke-opacity="0.67" stroke-width="0.3"><path d="
M 341.00 264.00 
C 341.05 264.35 341.75 264.75 342.00 265.00
C 343.60 260.02 342.47 250.25 342.00 245.00
C 342.00 245.00 341.43 245.17 341.00 245.00
C 340.48 250.79 340.17 258.25 341.00 264.00 Z"/>
</g>
<g fill="None" fill-opacity="0.0" stroke="#D7AA91" stroke-opacity="1.00" stroke-width="0.3"><path d="
M 342.00 265.00 
C 354.78 277.56 362.64 295.03 376.00 307.00
C 386.28 292.48 398.75 279.48 409.00 265.00
C 407.40 260.02 408.53 250.25 409.00 245.00
C 387.04 258.64 363.96 258.66 342.00 245.00
C 342.47 250.25 343.60 260.02 342.00 265.00 Z"/>
</g>
<g fill="None" fill-opacity="0.0" stroke="#D7AA92" stroke-opacity="0.61" stroke-width="0.3"><path d="
M 409.00 265.00 
C 409.23 264.74 409.95 264.35 410.00 264.00
C 410.83 258.25 410.52 250.80 410.00 245.00
C 410.00 245.00 409.36 244.78 409.00 245.00
C 408.53 250.25 407.40 260.02 409.00 265.00 Z"/>
</g>
<g fill="None" fill-opacity="0.0" stroke="#D9E4E4" stroke-opacity="0.99" stroke-width="0.3"><path d="
M 305.00 277.00 
C 310.17 278.64 310.98 289.84 314.92 294.08 C 318.87 298.31 321.30 306.95 324.92 312.08 C 328.55 317.20 330.56 323.77 335.25 328.75 C 339.93 333.74 349.74 334.47 354.25 328.25 C 358.75 322.03 363.34 321.44 367.75 314.75 C 372.16 308.07 378.32 307.38 382.75 314.25 C 387.19 321.12 391.86 321.44 396.25 327.75 C 400.63 334.06 410.28 334.08 415.25 329.25 C 420.21 324.41 422.07 317.93 425.77 312.77 C 429.47 307.61 431.49 298.93 435.77 294.77 C 440.05 290.61 440.55 278.72 446.00 277.00
C 435.80 273.23 421.16 264.66 410.00 264.00
C 409.95 264.35 409.23 264.74 409.00 265.00
C 398.75 279.48 386.28 292.48 376.00 307.00
C 362.64 295.03 354.78 277.56 342.00 265.00
C 341.75 264.75 341.05 264.35 341.00 264.00
C 329.83 264.65 315.24 273.22 305.00 277.00 Z"/>
</g>
<g fill="None" fill-opacity="0.0" stroke="#414A5E" stroke-opacity="0.99" stroke-width="0.3"><path d="
M 247.00 403.00 
C 247.00 410.55 247.61 417.72 248.00 425.00
C 253.49 441.48 279.32 434.79 292.00 436.00 C 304.68 437.21 309.50 436.87 320.00 436.00 C 330.50 435.13 338.91 439.53 348.00 436.00
C 355.03 426.16 358.40 413.64 358.00 401.00
C 339.95 407.40 338.22 385.26 349.75 379.75 C 361.28 374.25 362.08 358.57 375.03 358.03 C 387.97 357.48 389.33 373.82 400.75 379.25 C 412.18 384.68 411.89 407.38 393.00 401.00
C 392.69 413.10 390.07 424.60 387.00 436.00
C 393.00 432.58 403.95 437.55 411.00 436.00 C 418.05 434.45 427.54 436.71 435.00 436.00 C 442.46 435.29 451.49 436.35 459.00 436.00 C 466.51 435.65 475.76 436.22 483.00 436.00 C 490.24 435.78 495.59 434.94 500.23 429.23 C 504.87 423.52 503.97 416.29 504.00 409.00 C 504.03 401.71 503.95 393.47 504.00 386.00 C 504.05 378.53 503.91 369.39 504.00 362.00 C 504.09 354.61 504.00 345.93 502.78 339.22 C 501.56 332.51 499.14 326.98 496.92 321.08 C 494.71 315.17 491.32 310.98 487.92 306.08 C 484.51 301.18 481.21 297.32 476.70 293.30 C 472.18 289.28 467.31 286.86 462.23 283.77 C 457.15 280.68 451.47 279.02 446.00 277.00
C 440.55 278.72 440.05 290.61 435.77 294.77 C 431.49 298.93 429.47 307.61 425.77 312.77 C 422.07 317.93 420.21 324.41 415.25 329.25 C 410.28 334.08 400.63 334.06 396.25 327.75 C 391.86 321.44 387.19 321.12 382.75 314.25 C 378.32 307.38 372.16 308.07 367.75 314.75 C 363.34 321.44 358.75 322.03 354.25 328.25 C 349.74 334.47 339.93 333.74 335.25 328.75 C 330.56 323.77 328.55 317.20 324.92 312.08 C 321.30 306.95 318.87 298.31 314.92 294.08 C 310.98 289.84 310.17 278.64 305.00 277.00
C 282.75 285.21 265.83 295.87 254.92 318.92 C 244.02 341.98 247.00 376.40 247.00 403.00 Z"/>
</g>
<g fill="None" fill-opacity="0.0" stroke="#915C4B" stroke-opacity="0.13" stroke-width="0.3"><path d="
M 162.00 311.00 
C 159.94 315.50 161.54 327.97 162.00 333.00
C 162.16 332.77 163.00 333.00 163.00 333.00
C 163.25 330.26 163.66 323.42 163.00 321.00 C 162.34 318.58 164.64 310.73 164.00 310.00
C 163.33 310.34 162.68 310.65 162.00 311.00 Z"/>
</g>
<g fill="None" fill-opacity="0.0" stroke="#905B4B" stroke-opacity="0.14" stroke-width="0.3"><path d="
M 93.00 333.00 
C 93.49 332.92 94.00 333.00 94.00 333.00
C 94.63 326.06 94.63 317.94 94.00 311.00
C 94.00 311.00 93.36 311.22 93.00 311.00
C 92.37 317.94 92.37 326.06 93.00 333.00 Z"/>
</g>
<g fill="None" fill-opacity="0.0" stroke="#8F5C4A" stroke-opacity="1.00" stroke-width="0.3"><path d="
M 94.00 333.00 
C 105.76 346.08 116.58 361.08 127.00 375.00
C 139.81 363.04 150.15 346.67 162.00 333.00
C 161.54 327.97 159.94 315.50 162.00 311.00
C 150.76 316.77 141.11 323.37 128.00 324.00 C 114.89 324.63 105.43 315.12 94.00 311.00
C 94.63 317.94 94.63 326.06 94.00 333.00 Z"/>
</g>
<g fill="None" fill-opacity="0.0" stroke="#DCA54A" stroke-opacity="0.99" stroke-width="0.3"><path d="
M 59.00 346.00 
C 68.74 363.57 73.95 376.08 85.25 393.75 C 96.56 411.41 118.26 387.64 127.00 376.00
C 137.73 384.64 158.16 412.07 170.30 394.30 C 182.45 376.54 186.58 363.71 197.00 346.00
C 187.11 342.26 173.55 333.21 163.00 333.00
C 163.00 333.00 162.16 332.77 162.00 333.00
C 150.15 346.67 139.81 363.04 127.00 375.00
C 116.58 361.08 105.76 346.08 94.00 333.00
C 94.00 333.00 93.49 332.92 93.00 333.00
C 81.45 334.89 69.91 341.87 59.00 346.00 Z"/>
</g>
<g fill="None" fill-opacity="0.0" stroke="#FED757" stroke-opacity="0.99" stroke-width="0.3"><path d="
M 234.00 503.00 
C 224.76 499.84 219.02 489.57 222.98 479.98 C 226.93 470.38 238.46 468.08 248.00 469.00
C 247.40 454.36 248.79 439.62 248.00 425.00
C 247.61 417.72 247.00 410.55 247.00 403.00
C 242.84 377.38 221.04 355.10 197.00 346.00
C 186.58 363.71 182.45 376.54 170.30 394.30 C 158.16 412.07 137.73 384.64 127.00 376.00
C 118.26 387.64 96.56 411.41 85.25 393.75 C 73.95 376.08 68.74 363.57 59.00 346.00
C 43.89 351.72 32.93 358.62 22.77 372.77 C 12.61 386.92 8.31 400.33 8.00 420.00 C 7.69 439.67 8.97 459.90 8.00 482.00 C 7.03 504.10 29.47 505.86 49.00 504.00 C 68.53 502.14 90.93 504.59 111.00 504.00 C 131.07 503.41 152.79 503.70 173.00 504.00 C 193.21 504.30 214.54 503.06 234.00 503.00 Z"/>
</g>
<g fill="None" fill-opacity="0.0" stroke="#69C478" stroke-opacity="0.98" stroke-width="0.3"><path d="
M 348.00 436.00 
C 334.71 454.60 316.96 467.18 294.00 469.00
C 280.15 471.67 261.84 470.34 248.00 469.00
C 238.46 468.08 226.93 470.38 222.98 479.98 C 219.02 489.57 224.76 499.84 234.00 503.00
C 263.84 502.91 308.65 508.38 334.31 494.31 C 359.96 480.23 378.78 463.44 387.00 436.00
C 390.07 424.60 392.69 413.10 393.00 401.00
C 411.89 407.38 412.18 384.68 400.75 379.25 C 389.33 373.82 387.97 357.48 375.03 358.03 C 362.08 358.57 361.28 374.25 349.75 379.75 C 338.22 385.26 339.95 407.40 358.00 401.00
C 358.40 413.64 355.03 426.16 348.00 436.00 Z"/>
</g>
<g fill="None" fill-opacity="0.0" stroke="#000000" stroke-opacity="0.00" stroke-width="0.3"><path d="
M 248.00 469.00 
C 263.26 468.09 278.76 470.21 294.00 469.00
C 316.96 467.18 334.71 454.60 348.00 436.00
C 338.91 439.53 330.50 435.13 320.00 436.00 C 309.50 436.87 304.68 437.21 292.00 436.00 C 279.32 434.79 253.49 441.48 248.00 425.00
C 248.79 439.62 247.40 454.36 248.00 469.00 Z"/>
</g>
<g fill="None" fill-opacity="0.0" stroke="#6AC479" stroke-opacity="0.67" stroke-width="0.3"><path d="
M 294.00 469.00 
C 278.76 470.21 263.26 468.09 248.00 469.00
C 261.84 470.34 280.15 471.67 294.00 469.00 Z"/>
</g>
<g fill="#000000" fill-opacity="0.00" stroke="None">
<path d="
M 0.00 512.00 
L 512.00 512.00
L 512.00 0.00
L 0.00 0.00
L 0.00 512.00
M 478.00 149.00 
C 478.00 161.36 473.43 170.60 461.98 173.98 C 450.52 177.35 457.48 196.86 452.02 205.02 C 446.57 213.19 443.85 223.40 434.75 228.75 C 425.65 234.10 419.69 241.19 410.00 245.00
C 410.52 250.80 410.83 258.25 410.00 264.00
C 421.16 264.66 435.80 273.23 446.00 277.00
C 451.47 279.02 457.15 280.68 462.23 283.77 C 467.31 286.86 472.18 289.28 476.70 293.30 C 481.21 297.32 484.51 301.18 487.92 306.08 C 491.32 310.98 494.71 315.17 496.92 321.08 C 499.14 326.98 501.56 332.51 502.78 339.22 C 504.00 345.93 504.09 354.61 504.00 362.00 C 503.91 369.39 504.05 378.53 504.00 386.00 C 503.95 393.47 504.03 401.71 504.00 409.00 C 503.97 416.29 504.87 423.52 500.23 429.23 C 495.59 434.94 490.24 435.78 483.00 436.00 C 475.76 436.22 466.51 435.65 459.00 436.00 C 451.49 436.35 442.46 435.29 435.00 436.00 C 427.54 436.71 418.05 434.45 411.00 436.00 C 403.95 437.55 393.00 432.58 387.00 436.00
C 378.78 463.44 359.96 480.23 334.31 494.31 C 308.65 508.38 263.84 502.91 234.00 503.00
C 214.54 503.06 193.21 504.30 173.00 504.00 C 152.79 503.70 131.07 503.41 111.00 504.00 C 90.93 504.59 68.53 502.14 49.00 504.00 C 29.47 505.86 7.03 504.10 8.00 482.00 C 8.97 459.90 7.69 439.67 8.00 420.00 C 8.31 400.33 12.61 386.92 22.77 372.77 C 32.93 358.62 43.89 351.72 59.00 346.00
C 69.91 341.87 81.45 334.89 93.00 333.00
C 92.37 326.06 92.37 317.94 93.00 311.00
C 67.99 295.45 54.24 266.81 55.00 238.00
C 42.35 237.88 32.37 225.57 34.00 213.00
C 34.00 205.34 33.85 197.66 34.00 190.00
C 34.67 156.69 59.64 118.18 93.00 108.00
C 96.21 101.51 92.70 89.59 98.77 83.77 C 104.84 77.95 106.95 72.69 115.08 70.08 C 123.20 67.46 132.95 67.05 141.02 69.98 C 149.09 72.90 151.25 77.89 157.25 83.75 C 163.26 89.60 159.79 101.44 163.00 108.00
C 195.59 118.10 221.34 155.82 222.00 189.00
C 222.15 196.33 222.00 203.67 222.00 211.00
C 222.00 224.13 216.77 238.56 201.00 238.00
C 201.84 266.37 188.54 294.67 164.00 310.00
C 164.64 310.73 162.34 318.58 163.00 321.00 C 163.66 323.42 163.25 330.26 163.00 333.00
C 173.55 333.21 187.11 342.26 197.00 346.00
C 221.04 355.10 242.84 377.38 247.00 403.00
C 247.00 376.40 244.02 341.98 254.92 318.92 C 265.83 295.87 282.75 285.21 305.00 277.00
C 315.24 273.22 329.83 264.65 341.00 264.00
C 340.17 258.25 340.48 250.79 341.00 245.00
C 331.25 241.17 325.49 233.94 316.30 228.70 C 307.12 223.45 304.50 213.32 299.07 204.93 C 293.65 196.53 300.46 177.50 288.99 174.01 C 277.53 170.52 273.00 161.47 273.00 149.00
C 273.00 114.51 271.18 75.15 293.75 48.75 C 316.33 22.35 340.35 8.08 375.00 8.00 C 409.65 7.92 434.07 21.71 456.92 48.08 C 479.77 74.46 478.00 114.44 478.00 149.00 Z"/>
</g>
<g fill="#543C34" fill-opacity="0.99" stroke="None">
<path d="
M 273.00 149.00 
C 274.71 140.73 284.54 133.00 293.00 133.00
C 292.10 117.06 304.48 108.68 318.00 106.00 C 331.52 103.32 345.05 100.90 357.23 93.23 C 369.41 85.56 380.92 84.50 393.08 92.92 C 405.23 101.35 419.13 102.50 432.67 105.33 C 446.21 108.16 459.18 117.08 457.00 133.00
C 466.83 132.25 475.00 140.75 478.00 149.00
C 478.00 114.44 479.77 74.46 456.92 48.08 C 434.07 21.71 409.65 7.92 375.00 8.00 C 340.35 8.08 316.33 22.35 293.75 48.75 C 271.18 75.15 273.00 114.51 273.00 149.00 Z"/>
</g>
<g fill="#3A2823" fill-opacity="0.96" stroke="None">
<path d="
M 93.00 108.00 
C 115.42 101.16 140.55 101.04 163.00 108.00
C 159.79 101.44 163.26 89.60 157.25 83.75 C 151.25 77.89 149.09 72.90 141.02 69.98 C 132.95 67.05 123.20 67.46 115.08 70.08 C 106.95 72.69 104.84 77.95 98.77 83.77 C 92.70 89.59 96.21 101.51 93.00 108.00 Z"/>
</g>
<g fill="#E6BC9F" fill-opacity="0.99" stroke="None">
<path d="
M 273.00 149.00 
C 273.00 161.47 277.53 170.52 288.99 174.01 C 300.46 177.50 293.65 196.53 299.07 204.93 C 304.50 213.32 307.12 223.45 316.30 228.70 C 325.49 233.94 331.25 241.17 341.00 245.00
C 341.43 245.17 342.00 245.00 342.00 245.00
C 363.96 258.66 387.04 258.64 409.00 245.00
C 409.36 244.78 410.00 245.00 410.00 245.00
C 419.69 241.19 425.65 234.10 434.75 228.75 C 443.85 223.40 446.57 213.19 452.02 205.02 C 457.48 196.86 450.52 177.35 461.98 173.98 C 473.43 170.60 478.00 161.36 478.00 149.00
C 475.00 140.75 466.83 132.25 457.00 133.00
C 459.18 117.08 446.21 108.16 432.67 105.33 C 419.13 102.50 405.23 101.35 393.08 92.92 C 380.92 84.50 369.41 85.56 357.23 93.23 C 345.05 100.90 331.52 103.32 318.00 106.00 C 304.48 108.68 292.10 117.06 293.00 133.00
C 284.54 133.00 274.71 140.73 273.00 149.00 Z"/>
</g>
<g fill="#543C34" fill-opacity="0.99" stroke="None">
<path d="
M 93.00 108.00 
C 59.64 118.18 34.67 156.69 34.00 190.00
C 34.46 195.94 35.57 203.34 35.00 210.00
C 39.35 195.85 52.36 194.91 65.00 194.00 C 77.64 193.09 92.39 189.62 104.08 186.08 C 115.76 182.53 127.93 180.92 137.25 172.25 C 146.57 163.57 158.43 158.83 164.77 171.23 C 171.12 183.63 177.22 189.83 190.07 192.93 C 202.93 196.02 214.01 195.43 221.00 209.00
C 220.19 202.42 221.55 194.80 222.00 189.00
C 221.34 155.82 195.59 118.10 163.00 108.00
C 140.55 101.04 115.42 101.16 93.00 108.00 Z"/>
</g>
<g fill="#A5715B" fill-opacity="0.99" stroke="None">
<path d="
M 35.00 210.00 
C 34.88 211.34 34.17 212.21 34.00 213.00
C 32.37 225.57 42.35 237.88 55.00 238.00
C 54.24 266.81 67.99 295.45 93.00 311.00
C 93.36 311.22 94.00 311.00 94.00 311.00
C 105.43 315.12 114.89 324.63 128.00 324.00 C 141.11 323.37 150.76 316.77 162.00 311.00
C 162.68 310.65 163.33 310.34 164.00 310.00
C 188.54 294.67 201.84 266.37 201.00 238.00
C 216.77 238.56 222.00 224.13 222.00 211.00
C 221.87 210.50 221.12 209.97 221.00 209.00
C 214.01 195.43 202.93 196.02 190.07 192.93 C 177.22 189.83 171.12 183.63 164.77 171.23 C 158.43 158.83 146.57 163.57 137.25 172.25 C 127.93 180.92 115.76 182.53 104.08 186.08 C 92.39 189.62 77.64 193.09 65.00 194.00 C 52.36 194.91 39.35 195.85 35.00 210.00 Z"/>
</g>
<g fill="#543C34" fill-opacity="0.85" stroke="None">
<path d="
M 221.00 209.00 
C 221.12 209.97 221.87 210.50 222.00 211.00
C 222.00 203.67 222.15 196.33 222.00 189.00
C 221.55 194.80 220.19 202.42 221.00 209.00 Z"/>
</g>
<g fill="#543C34" fill-opacity="0.85" stroke="None">
<path d="
M 34.00 213.00 
C 34.17 212.21 34.88 211.34 35.00 210.00
C 35.57 203.34 34.46 195.94 34.00 190.00
C 33.85 197.66 34.00 205.34 34.00 213.00 Z"/>
</g>
<g fill="#D7AA92" fill-opacity="0.67" stroke="None">
<path d="
M 341.00 264.00 
C 341.05 264.35 341.75 264.75 342.00 265.00
C 343.60 260.02 342.47 250.25 342.00 245.00
C 342.00 245.00 341.43 245.17 341.00 245.00
C 340.48 250.79 340.17 258.25 341.00 264.00 Z"/>
</g>
<g fill="#D7AA91" fill-opacity="1.00" stroke="None">
<path d="
M 342.00 265.00 
C 354.78 277.56 362.64 295.03 376.00 307.00
C 386.28 292.48 398.75 279.48 409.00 265.00
C 407.40 260.02 408.53 250.25 409.00 245.00
C 387.04 258.64 363.96 258.66 342.00 245.00
C 342.47 250.25 343.60 260.02 342.00 265.00 Z"/>
</g>
<g fill="#D7AA92" fill-opacity="0.61" stroke="None">
<path d="
M 409.00 265.00 
C 409.23 264.74 409.95 264.35 410.00 264.00
C 410.83 258.25 410.52 250.80 410.00 245.00
C 410.00 245.00 409.36 244.78 409.00 245.00
C 408.53 250.25 407.40 260.02 409.00 265.00 Z"/>
</g>
<g fill="#D9E4E4" fill-opacity="0.99" stroke="None">
<path d="
M 305.00 277.00 
C 310.17 278.64 310.98 289.84 314.92 294.08 C 318.87 298.31 321.30 306.95 324.92 312.08 C 328.55 317.20 330.56 323.77 335.25 328.75 C 339.93 333.74 349.74 334.47 354.25 328.25 C 358.75 322.03 363.34 321.44 367.75 314.75 C 372.16 308.07 378.32 307.38 382.75 314.25 C 387.19 321.12 391.86 321.44 396.25 327.75 C 400.63 334.06 410.28 334.08 415.25 329.25 C 420.21 324.41 422.07 317.93 425.77 312.77 C 429.47 307.61 431.49 298.93 435.77 294.77 C 440.05 290.61 440.55 278.72 446.00 277.00
C 435.80 273.23 421.16 264.66 410.00 264.00
C 409.95 264.35 409.23 264.74 409.00 265.00
C 398.75 279.48 386.28 292.48 376.00 307.00
C 362.64 295.03 354.78 277.56 342.00 265.00
C 341.75 264.75 341.05 264.35 341.00 264.00
C 329.83 264.65 315.24 273.22 305.00 277.00 Z"/>
</g>
<g fill="#414A5E" fill-opacity="0.99" stroke="None">
<path d="
M 247.00 403.00 
C 247.00 410.55 247.61 417.72 248.00 425.00
C 253.49 441.48 279.32 434.79 292.00 436.00 C 304.68 437.21 309.50 436.87 320.00 436.00 C 330.50 435.13 338.91 439.53 348.00 436.00
C 355.03 426.16 358.40 413.64 358.00 401.00
C 339.95 407.40 338.22 385.26 349.75 379.75 C 361.28 374.25 362.08 358.57 375.03 358.03 C 387.97 357.48 389.33 373.82 400.75 379.25 C 412.18 384.68 411.89 407.38 393.00 401.00
C 392.69 413.10 390.07 424.60 387.00 436.00
C 393.00 432.58 403.95 437.55 411.00 436.00 C 418.05 434.45 427.54 436.71 435.00 436.00 C 442.46 435.29 451.49 436.35 459.00 436.00 C 466.51 435.65 475.76 436.22 483.00 436.00 C 490.24 435.78 495.59 434.94 500.23 429.23 C 504.87 423.52 503.97 416.29 504.00 409.00 C 504.03 401.71 503.95 393.47 504.00 386.00 C 504.05 378.53 503.91 369.39 504.00 362.00 C 504.09 354.61 504.00 345.93 502.78 339.22 C 501.56 332.51 499.14 326.98 496.92 321.08 C 494.71 315.17 491.32 310.98 487.92 306.08 C 484.51 301.18 481.21 297.32 476.70 293.30 C 472.18 289.28 467.31 286.86 462.23 283.77 C 457.15 280.68 451.47 279.02 446.00 277.00
C 440.55 278.72 440.05 290.61 435.77 294.77 C 431.49 298.93 429.47 307.61 425.77 312.77 C 422.07 317.93 420.21 324.41 415.25 329.25 C 410.28 334.08 400.63 334.06 396.25 327.75 C 391.86 321.44 387.19 321.12 382.75 314.25 C 378.32 307.38 372.16 308.07 367.75 314.75 C 363.34 321.44 358.75 322.03 354.25 328.25 C 349.74 334.47 339.93 333.74 335.25 328.75 C 330.56 323.77 328.55 317.20 324.92 312.08 C 321.30 306.95 318.87 298.31 314.92 294.08 C 310.98 289.84 310.17 278.64 305.00 277.00
C 282.75 285.21 265.83 295.87 254.92 318.92 C 244.02 341.98 247.00 376.40 247.00 403.00 Z"/>
</g>
<g fill="#915C4B" fill-opacity="0.13" stroke="None">
<path d="
M 162.00 311.00 
C 159.94 315.50 161.54 327.97 162.00 333.00
C 162.16 332.77 163.00 333.00 163.00 333.00
C 163.25 330.26 163.66 323.42 163.00 321.00 C 162.34 318.58 164.64 310.73 164.00 310.00
C 163.33 310.34 162.68 310.65 162.00 311.00 Z"/>
</g>
<g fill="#905B4B" fill-opacity="0.14" stroke="None">
<path d="
M 93.00 333.00 
C 93.49 332.92 94.00 333.00 94.00 333.00
C 94.63 326.06 94.63 317.94 94.00 311.00
C 94.00 311.00 93.36 311.22 93.00 311.00
C 92.37 317.94 92.37 326.06 93.00 333.00 Z"/>
</g>
<g fill="#8F5C4A" fill-opacity="1.00" stroke="None">
<path d="
M 94.00 333.00 
C 105.76 346.08 116.58 361.08 127.00 375.00
C 139.81 363.04 150.15 346.67 162.00 333.00
C 161.54 327.97 159.94 315.50 162.00 311.00
C 150.76 316.77 141.11 323.37 128.00 324.00 C 114.89 324.63 105.43 315.12 94.00 311.00
C 94.63 317.94 94.63 326.06 94.00 333.00 Z"/>
</g>
<g fill="#DCA54A" fill-opacity="0.99" stroke="None">
<path d="
M 59.00 346.00 
C 68.74 363.57 73.95 376.08 85.25 393.75 C 96.56 411.41 118.26 387.64 127.00 376.00
C 137.73 384.64 158.16 412.07 170.30 394.30 C 182.45 376.54 186.58 363.71 197.00 346.00
C 187.11 342.26 173.55 333.21 163.00 333.00
C 163.00 333.00 162.16 332.77 162.00 333.00
C 150.15 346.67 139.81 363.04 127.00 375.00
C 116.58 361.08 105.76 346.08 94.00 333.00
C 94.00 333.00 93.49 332.92 93.00 333.00
C 81.45 334.89 69.91 341.87 59.00 346.00 Z"/>
</g>
<g fill="#FED757" fill-opacity="0.99" stroke="None">
<path d="
M 234.00 503.00 
C 224.76 499.84 219.02 489.57 222.98 479.98 C 226.93 470.38 238.46 468.08 248.00 469.00
C 247.40 454.36 248.79 439.62 248.00 425.00
C 247.61 417.72 247.00 410.55 247.00 403.00
C 242.84 377.38 221.04 355.10 197.00 346.00
C 186.58 363.71 182.45 376.54 170.30 394.30 C 158.16 412.07 137.73 384.64 127.00 376.00
C 118.26 387.64 96.56 411.41 85.25 393.75 C 73.95 376.08 68.74 363.57 59.00 346.00
C 43.89 351.72 32.93 358.62 22.77 372.77 C 12.61 386.92 8.31 400.33 8.00 420.00 C 7.69 439.67 8.97 459.90 8.00 482.00 C 7.03 504.10 29.47 505.86 49.00 504.00 C 68.53 502.14 90.93 504.59 111.00 504.00 C 131.07 503.41 152.79 503.70 173.00 504.00 C 193.21 504.30 214.54 503.06 234.00 503.00 Z"/>
</g>
<g fill="#69C478" fill-opacity="0.98" stroke="None">
<path d="
M 348.00 436.00 
C 334.71 454.60 316.96 467.18 294.00 469.00
C 280.15 471.67 261.84 470.34 248.00 469.00
C 238.46 468.08 226.93 470.38 222.98 479.98 C 219.02 489.57 224.76 499.84 234.00 503.00
C 263.84 502.91 308.65 508.38 334.31 494.31 C 359.96 480.23 378.78 463.44 387.00 436.00
C 390.07 424.60 392.69 413.10 393.00 401.00
C 411.89 407.38 412.18 384.68 400.75 379.25 C 389.33 373.82 387.97 357.48 375.03 358.03 C 362.08 358.57 361.28 374.25 349.75 379.75 C 338.22 385.26 339.95 407.40 358.00 401.00
C 358.40 413.64 355.03 426.16 348.00 436.00 Z"/>
</g>
<g fill="#000000" fill-opacity="0.00" stroke="None">
<path d="
M 248.00 469.00 
C 263.26 468.09 278.76 470.21 294.00 469.00
C 316.96 467.18 334.71 454.60 348.00 436.00
C 338.91 439.53 330.50 435.13 320.00 436.00 C 309.50 436.87 304.68 437.21 292.00 436.00 C 279.32 434.79 253.49 441.48 248.00 425.00
C 248.79 439.62 247.40 454.36 248.00 469.00 Z"/>
</g>
<g fill="#6AC479" fill-opacity="0.67" stroke="None">
<path d="
M 294.00 469.00 
C 278.76 470.21 263.26 468.09 248.00 469.00
C 261.84 470.34 280.15 471.67 294.00 469.00 Z"/>
</g>
</svg>