<svg xmlns="http://www.w3.org/2000/svg" xmlns:v="https://svgstorm.com"
viewBox = "0 0 512 512"
width="512"
height="512">
<g fill="None" fill-opacity="0.0" stroke="#000000" stroke-opacity="0.02" stroke-width="0.3"><path d="
M 0.00 170.00 
C 0.50 170.00 1.00 170.00 1.00 170.00
C 1.00 136.26 17.74 98.99 36.77 72.77 C 55.80 46.55 82.36 28.86 102.25 18.81 C 122.15 8.77 146.56 1.19 175.00 0.00
L 0.00 0.00
L 0.00 170.00 Z"/>
</g>
<g fill="None" fill-opacity="0.0" stroke="#000000" stroke-opacity="1.00" stroke-width="0.3"><path d="
M 1.00 170.00 
C 1.00 172.84 1.79 176.98 0.00 179.00
L 0.00 187.00
C 1.96 189.78 0.72 194.47 1.00 198.00
C 3.77 232.90 18.19 266.88 40.00 294.00
C 30.49 304.33 20.29 314.55 10.00 324.00
C 11.08 330.83 21.97 331.66 20.00 340.00 C 18.02 348.35 6.87 347.53 0.00 347.00
L 0.00 396.00
C 6.92 395.29 17.35 395.00 19.32 402.68 C 21.29 410.36 14.53 413.29 10.00 418.00
C 20.34 429.83 32.71 440.22 43.00 452.00
C 49.77 449.93 50.36 441.56 59.00 443.00 C 67.64 444.44 66.41 454.86 66.00 462.00
C 82.33 462.00 98.67 462.00 115.00 462.00
C 115.00 455.52 113.45 445.35 121.08 443.08 C 128.70 440.80 132.60 448.58 137.00 453.00
C 149.16 442.33 159.88 429.62 172.00 419.00
C 168.86 413.16 160.25 411.04 162.00 403.00 C 163.75 394.96 174.18 395.51 181.00 396.00
C 181.00 385.00 181.00 374.00 181.00 363.00
C 187.25 363.62 192.94 362.17 199.00 362.00
C 197.18 383.91 201.42 406.12 199.00 428.00 C 196.58 449.88 208.64 464.11 231.00 462.00 C 253.36 459.89 275.65 463.58 298.00 462.00
C 298.00 473.33 298.00 484.67 298.00 496.00
C 292.33 496.00 286.67 496.00 281.00 496.00
C 281.00 501.33 281.00 506.67 281.00 512.00
L 429.00 512.00
C 429.00 506.67 429.00 501.33 429.00 496.00
C 423.33 496.00 417.67 496.00 412.00 496.00
C 412.00 484.67 412.00 473.33 412.00 462.00
C 430.91 463.09 453.46 460.55 472.00 462.00 C 490.54 463.45 507.51 460.21 512.00 441.00
L 512.00 270.00
C 507.32 240.24 471.24 250.09 450.00 247.00
C 479.76 245.45 488.99 199.21 462.00 187.00
C 462.06 175.62 462.42 160.70 459.67 150.33 C 456.92 139.96 453.67 130.30 448.70 121.31 C 443.72 112.31 438.38 106.06 431.25 98.75 C 424.12 91.44 418.44 86.44 409.75 81.25 C 401.07 76.06 391.03 72.42 380.99 70.01 C 370.96 67.60 354.85 65.00 344.00 67.00 C 333.15 69.00 323.47 72.34 317.75 62.25 C 312.03 52.15 304.07 49.96 297.30 42.70 C 290.54 35.44 281.05 30.87 273.92 26.08 C 266.80 21.28 264.35 19.54 258.08 16.87 C 251.81 14.20 246.68 11.53 239.90 9.09 C 233.12 6.66 225.43 5.98 219.08 3.87 C 212.73 1.76 205.53 2.20 198.00 1.00
C 195.13 0.86 191.04 1.90 189.00 0.00
L 175.00 0.00
C 146.56 1.19 122.15 8.77 102.25 18.81 C 82.36 28.86 55.80 46.55 36.77 72.77 C 17.74 98.99 1.00 136.26 1.00 170.00
M 161.00 18.00 
C 157.48 24.28 152.46 28.29 148.25 34.25 C 144.03 40.20 140.38 45.01 136.70 51.70 C 133.01 58.38 128.50 62.77 125.69 70.69 C 122.89 78.62 119.00 84.85 109.00 83.00 C 99.00 81.15 89.94 83.93 80.00 83.00 C 70.06 82.07 59.96 83.70 50.00 83.00
C 76.54 46.63 117.58 23.25 161.00 18.00
M 309.00 77.00 
C 289.91 88.43 264.93 80.80 243.00 83.00
C 233.88 59.06 218.44 37.94 202.00 18.00
C 243.09 22.99 282.44 43.72 309.00 77.00
M 182.00 21.00 
C 199.36 39.85 214.95 59.98 225.00 83.00
C 196.33 83.00 167.67 83.00 139.00 83.00
C 148.09 59.78 164.11 39.00 182.00 21.00
M 446.00 182.00 
C 435.72 184.91 426.79 180.97 429.00 171.00 C 431.21 161.03 426.31 155.23 424.68 147.32 C 423.05 139.42 418.54 135.46 414.75 129.25 C 410.95 123.05 406.30 119.73 400.92 115.08 C 395.53 110.43 390.06 107.46 383.31 104.69 C 376.55 101.93 368.76 99.87 360.99 99.01 C 353.22 98.15 342.90 99.74 335.78 101.78 C 328.66 103.82 322.40 106.33 316.25 110.25 C 310.10 114.17 306.06 117.35 300.75 122.75 C 295.44 128.16 293.35 132.58 289.08 139.08 C 284.81 145.58 285.23 152.41 282.01 160.01 C 278.79 167.60 287.07 179.43 276.00 182.00 C 264.92 184.56 262.61 176.06 264.93 166.93 C 267.24 157.79 266.08 150.97 269.32 143.32 C 272.56 135.68 274.81 131.20 278.75 124.75 C 282.70 118.31 285.94 114.50 291.25 109.25 C 296.56 104.00 300.46 100.42 306.70 96.70 C 312.94 92.97 318.50 89.94 325.68 87.68 C 332.86 85.41 340.97 83.15 349.00 83.00 C 357.03 82.85 367.72 83.00 375.02 84.98 C 382.33 86.95 389.43 88.73 395.70 92.31 C 401.96 95.88 407.71 98.34 412.75 103.25 C 417.78 108.17 422.26 111.89 426.75 117.25 C 431.24 122.61 434.08 128.22 437.31 134.69 C 440.53 141.17 442.42 148.50 443.99 156.01 C 445.56 163.51 446.49 173.76 446.00 182.00
M 113.00 99.00 
C 106.89 120.47 100.38 141.98 100.00 165.00
C 72.67 165.00 45.33 165.00 18.00 165.00
C 18.85 154.02 20.15 141.30 24.33 131.33 C 28.51 121.35 29.73 112.32 36.31 103.31 C 42.88 94.29 60.49 100.42 72.00 99.00 C 83.51 97.58 100.95 100.06 113.00 99.00
M 247.00 165.00 
C 203.33 165.00 159.67 165.00 116.00 165.00
C 118.43 142.34 122.73 120.05 131.00 99.00
C 146.19 98.50 160.75 99.67 176.00 99.00 C 191.25 98.33 206.65 100.25 222.00 99.00 C 237.35 97.75 236.87 113.22 240.78 125.22 C 244.69 137.23 245.25 152.28 247.00 165.00
M 277.00 99.00 
C 270.77 108.23 262.48 116.36 259.00 127.00
C 254.90 118.45 253.54 108.12 250.00 99.00
C 259.00 99.00 268.00 99.00 277.00 99.00
M 412.00 166.00 
C 383.68 162.44 346.33 173.23 329.00 144.00
C 325.17 148.28 314.76 149.75 316.00 156.00
C 310.22 157.23 304.95 160.27 299.00 161.00
C 303.47 133.47 330.83 114.67 358.00 116.00 C 385.17 117.33 409.73 138.38 412.00 166.00
M 331.00 169.00 
C 338.00 170.78 342.55 177.88 351.01 178.99 C 359.46 180.10 368.71 182.12 378.00 182.00 C 387.29 181.88 399.56 179.98 408.22 182.78 C 416.88 185.57 411.96 200.28 413.00 208.00 C 414.04 215.72 412.80 229.44 411.02 237.02 C 409.25 244.61 405.91 251.03 401.25 257.25 C 396.58 263.47 392.43 267.51 385.77 271.77 C 379.11 276.03 371.10 278.91 363.00 280.00 C 354.89 281.08 344.61 280.92 336.98 278.02 C 329.35 275.13 323.46 271.94 317.25 266.75 C 311.04 261.55 308.20 256.66 304.08 249.92 C 299.95 243.18 298.55 234.36 297.67 226.33 C 296.79 218.30 297.37 203.73 297.00 196.00 C 296.63 188.27 299.48 177.59 307.08 176.08 C 314.69 174.58 323.55 167.11 331.00 169.00
M 99.00 182.00 
C 98.70 210.59 104.73 237.63 113.00 264.00
C 88.00 264.00 63.00 264.00 38.00 264.00
C 25.31 238.58 15.89 211.53 17.00 182.00
C 44.33 182.00 71.67 182.00 99.00 182.00
M 248.00 182.00 
C 245.63 190.28 236.21 194.13 233.23 203.23 C 230.25 212.33 230.58 223.89 235.92 232.08 C 241.27 240.27 248.68 245.26 258.00 247.00
C 239.22 251.30 208.18 239.49 200.00 264.00
C 181.15 265.83 164.02 261.56 145.00 264.00 C 125.98 266.44 125.12 248.29 121.22 232.78 C 117.32 217.27 115.71 198.73 116.00 182.00
C 160.00 182.00 204.00 182.00 248.00 182.00
M 281.00 198.00 
C 281.00 209.00 281.00 220.00 281.00 231.00
C 267.75 232.06 248.36 232.50 248.00 215.00 C 247.64 197.50 267.50 196.51 281.00 198.00
M 429.00 225.00 
C 428.76 220.94 428.65 214.90 429.00 211.00 C 429.35 207.10 427.35 200.55 430.00 198.00
C 435.43 197.51 442.62 197.14 448.00 198.00
C 459.09 199.76 465.88 211.58 460.23 222.23 C 454.57 232.88 439.99 231.65 429.00 231.00
C 429.00 229.00 429.00 227.00 429.00 225.00
M 429.00 300.00 
C 428.90 305.16 426.74 323.35 420.25 317.75 C 413.76 312.16 409.84 308.14 402.75 304.25 C 395.66 300.35 384.50 301.21 384.00 291.00
C 391.18 289.44 396.25 284.21 402.25 280.25 C 408.25 276.29 411.64 270.59 416.25 265.25 C 420.87 259.92 421.57 248.77 429.00 248.00
C 432.71 250.31 428.87 260.48 430.00 265.00 C 431.13 269.52 429.24 277.89 430.00 283.00 C 430.76 288.11 429.54 295.53 429.00 300.00
M 265.00 396.00 
C 262.55 399.01 253.08 396.64 249.00 397.00 C 244.92 397.36 236.05 397.58 232.00 397.00 C 227.95 396.42 217.24 399.20 215.00 396.00
C 211.80 391.43 216.36 381.91 215.00 376.00 C 213.64 370.09 215.61 361.49 215.00 355.00 C 214.39 348.51 215.26 340.73 215.00 334.00 C 214.74 327.27 215.10 319.79 215.00 313.00 C 214.90 306.21 214.97 299.83 215.00 293.00 C 215.03 286.17 214.84 278.85 215.00 272.00 C 215.16 265.15 221.60 263.41 228.00 264.00 C 234.40 264.59 242.16 263.29 249.00 264.00 C 255.84 264.71 261.66 262.64 269.00 264.00 C 276.34 265.36 281.92 261.24 290.00 264.00 C 298.08 266.76 304.22 279.54 312.25 283.75 C 320.27 287.97 318.21 288.52 326.00 291.00
C 326.24 293.91 324.24 296.18 324.00 299.00
C 304.92 303.42 289.50 313.74 278.25 331.25 C 266.99 348.75 267.05 375.33 265.00 396.00
M 495.00 271.00 
C 497.00 277.34 495.73 284.82 496.00 292.00 C 496.27 299.18 495.84 306.68 496.00 314.00 C 496.16 321.32 495.84 329.68 496.00 337.00 C 496.16 344.32 495.71 351.82 496.00 359.00 C 496.29 366.18 495.40 374.07 496.00 381.00 C 496.60 387.93 497.21 398.73 489.00 397.00 C 480.79 395.27 473.53 398.99 467.00 397.00 C 460.47 395.01 448.74 400.93 445.00 396.00
C 441.53 391.43 444.96 382.15 443.02 375.98 C 441.09 369.80 442.97 363.18 441.07 355.93 C 439.18 348.68 438.14 348.23 435.69 339.31 C 433.25 330.38 445.46 318.31 444.99 307.99 C 444.52 297.67 446.94 296.08 446.00 287.00 C 445.06 277.92 446.70 272.72 446.00 264.00
C 454.56 264.21 465.69 263.72 474.00 264.00 C 482.31 264.28 492.69 261.42 495.00 271.00
M 161.00 345.00 
C 117.52 340.42 76.97 316.42 50.00 281.00
C 68.76 279.39 89.43 283.15 108.00 281.00 C 126.57 278.85 127.03 299.31 135.92 311.08 C 144.81 322.85 151.14 334.06 161.00 345.00
M 198.00 281.00 
C 198.00 302.67 198.00 324.33 198.00 346.00
C 180.97 350.91 172.61 331.37 162.70 320.30 C 152.78 309.23 145.00 294.40 139.00 281.00
C 158.67 281.00 178.33 281.00 198.00 281.00
M 428.00 393.00 
C 427.99 393.49 429.99 395.78 429.00 397.00
C 416.67 396.91 404.32 397.12 392.00 397.00 C 379.68 396.88 366.21 397.23 354.00 397.00 C 341.79 396.77 327.78 397.50 316.00 397.00 C 304.22 396.50 289.56 399.00 282.00 395.00
C 279.65 385.58 285.40 373.24 284.93 363.93 C 284.45 354.62 289.28 346.22 293.75 338.75 C 298.23 331.29 303.33 326.45 310.70 321.70 C 318.07 316.94 328.00 313.62 337.00 313.00
C 337.72 307.08 340.77 301.81 342.00 296.00
C 349.78 301.17 368.98 289.86 369.98 302.02 C 370.97 314.19 382.21 314.38 391.23 317.77 C 400.25 321.16 405.91 326.56 413.00 333.00
C 404.52 343.25 390.91 346.86 378.00 347.00
C 377.98 325.52 352.57 302.57 331.77 318.77 C 310.97 334.97 327.04 366.09 352.00 363.00 C 376.96 359.91 402.36 367.36 422.00 349.00
C 427.15 362.81 426.55 378.19 428.00 393.00
M 148.00 377.00 
C 148.13 373.67 147.93 370.33 148.00 367.00
C 148.05 364.67 147.96 362.33 148.00 360.00
C 153.63 360.71 159.04 362.48 165.00 362.00
C 165.00 368.33 165.00 374.67 165.00 381.00
C 154.45 382.26 141.34 397.21 146.00 409.00 C 150.66 420.79 141.29 432.03 128.98 427.03 C 116.66 422.02 101.62 434.79 100.00 446.00
C 94.00 446.00 88.00 446.00 82.00 446.00
C 79.23 429.22 57.98 422.12 44.00 430.00
C 40.48 425.68 36.30 421.44 32.00 418.00
C 41.52 404.17 32.40 384.15 17.00 380.00
C 14.69 376.76 14.85 364.56 18.00 362.00
C 23.09 357.86 31.56 356.93 33.77 348.77 C 35.98 340.61 37.41 332.40 32.00 325.00
C 36.32 321.48 40.56 317.30 44.00 313.00
C 50.14 316.98 58.41 315.28 64.00 320.00
C 27.05 339.95 22.65 393.17 56.75 418.25 C 90.85 443.33 146.32 421.36 148.00 377.00
M 361.00 347.00 
C 351.20 352.02 331.73 342.46 341.25 332.25 C 350.78 322.05 361.22 340.03 361.00 347.00
M 129.00 355.00 
C 135.59 372.05 131.50 390.28 117.75 402.75 C 104.00 415.22 84.86 414.63 69.25 406.75 C 53.65 398.86 47.58 376.58 50.93 361.93 C 54.27 347.28 69.09 328.35 83.70 334.30 C 98.30 340.26 112.28 353.62 129.00 355.00
M 495.00 439.00 
C 492.65 446.44 486.39 446.78 479.00 446.00
C 479.00 440.67 479.00 435.33 479.00 430.00
C 473.67 430.00 468.33 430.00 463.00 430.00
C 462.35 435.16 464.31 441.66 462.00 446.00
C 458.42 448.51 450.02 444.12 446.00 446.00
C 446.00 440.67 446.00 435.33 446.00 430.00
C 440.67 430.00 435.33 430.00 430.00 430.00
C 429.35 435.16 431.31 441.66 429.00 446.00
C 424.45 449.19 414.86 444.63 409.00 446.00 C 403.14 447.37 394.38 445.35 388.00 446.00 C 381.62 446.65 374.65 445.72 368.00 446.00 C 361.35 446.28 353.76 445.87 347.00 446.00 C 340.24 446.13 333.84 445.94 327.00 446.00 C 320.16 446.06 312.89 445.96 306.00 446.00 C 299.11 446.04 291.88 445.96 285.00 446.00 C 278.12 446.04 271.89 445.93 265.00 446.00 C 258.11 446.07 250.93 445.85 244.00 446.00 C 237.07 446.15 231.04 445.67 224.00 446.00 C 216.96 446.33 214.20 440.63 215.00 434.00 C 215.80 427.37 214.40 419.72 215.00 413.00
C 308.33 413.00 401.67 413.00 495.00 413.00
C 497.95 415.06 495.24 422.48 496.00 426.00 C 496.76 429.52 495.94 436.04 495.00 439.00
M 314.00 495.00 
C 312.24 492.48 314.00 482.22 314.00 479.00 C 314.00 475.78 312.24 465.52 314.00 463.00
C 316.94 458.80 329.43 463.13 335.00 462.00 C 340.57 460.87 350.59 462.29 357.00 462.00 C 363.41 461.71 373.54 461.73 380.00 462.00 C 386.46 462.27 396.74 458.86 397.00 467.00 C 397.25 475.14 396.39 481.64 397.00 490.00 C 397.61 498.36 387.66 496.17 381.00 496.00 C 374.34 495.83 364.52 496.54 358.00 496.00 C 351.48 495.46 341.65 497.34 336.00 496.00 C 330.35 494.66 317.04 499.35 314.00 495.00 Z"/>
</g>
<g fill="None" fill-opacity="0.0" stroke="#000000" stroke-opacity="0.58" stroke-width="0.3"><path d="
M 198.00 1.00 
C 197.90 0.98 198.00 0.00 198.00 0.00
L 189.00 0.00
C 191.04 1.90 195.13 0.86 198.00 1.00 Z"/>
</g>
<g fill="None" fill-opacity="0.0" stroke="#000000" stroke-opacity="0.01" stroke-width="0.3"><path d="
M 198.00 1.00 
C 205.53 2.20 212.73 1.76 219.08 3.87 C 225.43 5.98 233.12 6.66 239.90 9.09 C 246.68 11.53 251.81 14.20 258.08 16.87 C 264.35 19.54 266.80 21.28 273.92 26.08 C 281.05 30.87 290.54 35.44 297.30 42.70 C 304.07 49.96 312.03 52.15 317.75 62.25 C 323.47 72.34 333.15 69.00 344.00 67.00 C 354.85 65.00 370.96 67.60 380.99 70.01 C 391.03 72.42 401.07 76.06 409.75 81.25 C 418.44 86.44 424.12 91.44 431.25 98.75 C 438.38 106.06 443.72 112.31 448.70 121.31 C 453.67 130.30 456.92 139.96 459.67 150.33 C 462.42 160.70 462.06 175.62 462.00 187.00
C 488.99 199.21 479.76 245.45 450.00 247.00
C 471.24 250.09 507.32 240.24 512.00 270.00
L 512.00 0.00
L 198.00 0.00
C 198.00 0.00 197.90 0.98 198.00 1.00
M 430.00 33.00 
C 430.00 38.67 430.00 44.33 430.00 50.00
C 424.54 48.36 417.44 48.38 412.00 50.00
C 412.00 44.33 412.00 38.67 412.00 33.00
C 418.00 33.00 424.00 33.00 430.00 33.00
M 463.00 33.00 
C 463.00 38.67 463.00 44.33 463.00 50.00
C 457.33 50.00 451.67 50.00 446.00 50.00
C 446.00 44.33 446.00 38.67 446.00 33.00
C 451.67 33.00 457.33 33.00 463.00 33.00
M 496.00 33.00 
C 496.00 38.67 496.00 44.33 496.00 50.00
C 490.33 50.00 484.67 50.00 479.00 50.00
C 479.00 44.33 479.00 38.67 479.00 33.00
C 484.67 33.00 490.33 33.00 496.00 33.00
M 463.00 66.00 
C 463.00 71.67 463.00 77.33 463.00 83.00
C 457.33 83.00 451.67 83.00 446.00 83.00
C 446.00 77.33 446.00 71.67 446.00 66.00
C 451.67 66.00 457.33 66.00 463.00 66.00
M 496.00 66.00 
C 496.00 71.67 496.00 77.33 496.00 83.00
C 490.33 83.00 484.67 83.00 479.00 83.00
C 479.00 77.33 479.00 71.67 479.00 66.00
C 484.67 66.00 490.33 66.00 496.00 66.00 Z"/>
</g>
<g fill="None" fill-opacity="0.0" stroke="#4DBDE5" stroke-opacity="1.00" stroke-width="0.3"><path d="
M 161.00 18.00 
C 117.58 23.25 76.54 46.63 50.00 83.00
C 59.96 83.70 70.06 82.07 80.00 83.00 C 89.94 83.93 99.00 81.15 109.00 83.00 C 119.00 84.85 122.89 78.62 125.69 70.69 C 128.50 62.77 133.01 58.38 136.70 51.70 C 140.38 45.01 144.03 40.20 148.25 34.25 C 152.46 28.29 157.48 24.28 161.00 18.00 Z"/>
</g>
<g fill="None" fill-opacity="0.0" stroke="#4DBEE5" stroke-opacity="1.00" stroke-width="0.3"><path d="
M 309.00 77.00 
C 282.44 43.72 243.09 22.99 202.00 18.00
C 218.44 37.94 233.88 59.06 243.00 83.00
C 264.93 80.80 289.91 88.43 309.00 77.00 Z"/>
</g>
<g fill="None" fill-opacity="0.0" stroke="#4DBDE4" stroke-opacity="1.00" stroke-width="0.3"><path d="
M 182.00 21.00 
C 164.11 39.00 148.09 59.78 139.00 83.00
C 167.67 83.00 196.33 83.00 225.00 83.00
C 214.95 59.98 199.36 39.85 182.00 21.00 Z"/>
</g>
<g fill="None" fill-opacity="0.0" stroke="#000000" stroke-opacity="0.91" stroke-width="0.3"><path d="
M 430.00 33.00 
C 424.00 33.00 418.00 33.00 412.00 33.00
C 412.00 38.67 412.00 44.33 412.00 50.00
C 417.44 48.38 424.54 48.36 430.00 50.00
C 430.00 44.33 430.00 38.67 430.00 33.00 Z"/>
</g>
<g fill="None" fill-opacity="0.0" stroke="#000000" stroke-opacity="0.94" stroke-width="0.3"><path d="
M 463.00 33.00 
C 457.33 33.00 451.67 33.00 446.00 33.00
C 446.00 38.67 446.00 44.33 446.00 50.00
C 451.67 50.00 457.33 50.00 463.00 50.00
C 463.00 44.33 463.00 38.67 463.00 33.00 Z"/>
</g>
<g fill="None" fill-opacity="0.0" stroke="#000000" stroke-opacity="0.94" stroke-width="0.3"><path d="
M 496.00 33.00 
C 490.33 33.00 484.67 33.00 479.00 33.00
C 479.00 38.67 479.00 44.33 479.00 50.00
C 484.67 50.00 490.33 50.00 496.00 50.00
C 496.00 44.33 496.00 38.67 496.00 33.00 Z"/>
</g>
<g fill="None" fill-opacity="0.0" stroke="#000000" stroke-opacity="0.94" stroke-width="0.3"><path d="
M 463.00 66.00 
C 457.33 66.00 451.67 66.00 446.00 66.00
C 446.00 71.67 446.00 77.33 446.00 83.00
C 451.67 83.00 457.33 83.00 463.00 83.00
C 463.00 77.33 463.00 71.67 463.00 66.00 Z"/>
</g>
<g fill="None" fill-opacity="0.0" stroke="#000000" stroke-opacity="0.94" stroke-width="0.3"><path d="
M 496.00 66.00 
C 490.33 66.00 484.67 66.00 479.00 66.00
C 479.00 71.67 479.00 77.33 479.00 83.00
C 484.67 83.00 490.33 83.00 496.00 83.00
C 496.00 77.33 496.00 71.67 496.00 66.00 Z"/>
</g>
<g fill="None" fill-opacity="0.0" stroke="#A7AFBA" stroke-opacity="1.00" stroke-width="0.3"><path d="
M 446.00 182.00 
C 446.49 173.76 445.56 163.51 443.99 156.01 C 442.42 148.50 440.53 141.17 437.31 134.69 C 434.08 128.22 431.24 122.61 426.75 117.25 C 422.26 111.89 417.78 108.17 412.75 103.25 C 407.71 98.34 401.96 95.88 395.70 92.31 C 389.43 88.73 382.33 86.95 375.02 84.98 C 367.72 83.00 357.03 82.85 349.00 83.00 C 340.97 83.15 332.86 85.41 325.68 87.68 C 318.50 89.94 312.94 92.97 306.70 96.70 C 300.46 100.42 296.56 104.00 291.25 109.25 C 285.94 114.50 282.70 118.31 278.75 124.75 C 274.81 131.20 272.56 135.68 269.32 143.32 C 266.08 150.97 267.24 157.79 264.93 166.93 C 262.61 176.06 264.92 184.56 276.00 182.00 C 287.07 179.43 278.79 167.60 282.01 160.01 C 285.23 152.41 284.81 145.58 289.08 139.08 C 293.35 132.58 295.44 128.16 300.75 122.75 C 306.06 117.35 310.10 114.17 316.25 110.25 C 322.40 106.33 328.66 103.82 335.78 101.78 C 342.90 99.74 353.22 98.15 360.99 99.01 C 368.76 99.87 376.55 101.93 383.31 104.69 C 390.06 107.46 395.53 110.43 400.92 115.08 C 406.30 119.73 410.95 123.05 414.75 129.25 C 418.54 135.46 423.05 139.42 424.68 147.32 C 426.31 155.23 431.21 161.03 429.00 171.00 C 426.79 180.97 435.72 184.91 446.00 182.00 Z"/>
</g>
<g fill="None" fill-opacity="0.0" stroke="#4EC0E8" stroke-opacity="1.00" stroke-width="0.3"><path d="
M 113.00 99.00 
C 100.95 100.06 83.51 97.58 72.00 99.00 C 60.49 100.42 42.88 94.29 36.31 103.31 C 29.73 112.32 28.51 121.35 24.33 131.33 C 20.15 141.30 18.85 154.02 18.00 165.00
C 45.33 165.00 72.67 165.00 100.00 165.00
C 100.38 141.98 106.89 120.47 113.00 99.00 Z"/>
</g>
<g fill="None" fill-opacity="0.0" stroke="#4EC0E8" stroke-opacity="1.00" stroke-width="0.3"><path d="
M 247.00 165.00 
C 245.25 152.28 244.69 137.23 240.78 125.22 C 236.87 113.22 237.35 97.75 222.00 99.00 C 206.65 100.25 191.25 98.33 176.00 99.00 C 160.75 99.67 146.19 98.50 131.00 99.00
C 122.73 120.05 118.43 142.34 116.00 165.00
C 159.67 165.00 203.33 165.00 247.00 165.00 Z"/>
</g>
<g fill="None" fill-opacity="0.0" stroke="#4CBBE2" stroke-opacity="1.00" stroke-width="0.3"><path d="
M 277.00 99.00 
C 268.00 99.00 259.00 99.00 250.00 99.00
C 253.54 108.12 254.90 118.45 259.00 127.00
C 262.48 116.36 270.77 108.23 277.00 99.00 Z"/>
</g>
<g fill="None" fill-opacity="0.0" stroke="#B07845" stroke-opacity="1.00" stroke-width="0.3"><path d="
M 412.00 166.00 
C 409.73 138.38 385.17 117.33 358.00 116.00 C 330.83 114.67 303.47 133.47 299.00 161.00
C 304.95 160.27 310.22 157.23 316.00 156.00
C 314.76 149.75 325.17 148.28 329.00 144.00
C 346.33 173.23 383.68 162.44 412.00 166.00 Z"/>
</g>
<g fill="None" fill-opacity="0.0" stroke="#EDCEB2" stroke-opacity="1.00" stroke-width="0.3"><path d="
M 331.00 169.00 
C 323.55 167.11 314.69 174.58 307.08 176.08 C 299.48 177.59 296.63 188.27 297.00 196.00 C 297.37 203.73 296.79 218.30 297.67 226.33 C 298.55 234.36 299.95 243.18 304.08 249.92 C 308.20 256.66 311.04 261.55 317.25 266.75 C 323.46 271.94 329.35 275.13 336.98 278.02 C 344.61 280.92 354.89 281.08 363.00 280.00 C 371.10 278.91 379.11 276.03 385.77 271.77 C 392.43 267.51 396.58 263.47 401.25 257.25 C 405.91 251.03 409.25 244.61 411.02 237.02 C 412.80 229.44 414.04 215.72 413.00 208.00 C 411.96 200.28 416.88 185.57 408.22 182.78 C 399.56 179.98 387.29 181.88 378.00 182.00 C 368.71 182.12 359.46 180.10 351.01 178.99 C 342.55 177.88 338.00 170.78 331.00 169.00
M 324.00 198.00 
C 333.93 199.59 330.63 217.69 320.33 214.67 C 310.03 211.64 313.43 196.30 324.00 198.00
M 390.00 198.00 
C 399.94 199.44 396.63 217.77 386.33 214.67 C 376.03 211.56 379.41 196.47 390.00 198.00
M 338.00 236.00 
C 342.78 251.43 367.39 251.34 372.00 236.00
C 377.28 237.51 381.94 240.78 387.00 243.00
C 377.29 270.76 332.88 270.96 323.00 243.00
C 328.07 240.77 332.70 237.51 338.00 236.00 Z"/>
</g>
<g fill="None" fill-opacity="0.0" stroke="#000000" stroke-opacity="0.80" stroke-width="0.3"><path d="
M 0.00 179.00 
C 1.79 176.98 1.00 172.84 1.00 170.00
C 1.00 170.00 0.50 170.00 0.00 170.00
L 0.00 179.00 Z"/>
</g>
<g fill="None" fill-opacity="0.0" stroke="#4EC0E8" stroke-opacity="1.00" stroke-width="0.3"><path d="
M 99.00 182.00 
C 71.67 182.00 44.33 182.00 17.00 182.00
C 15.89 211.53 25.31 238.58 38.00 264.00
C 63.00 264.00 88.00 264.00 113.00 264.00
C 104.73 237.63 98.70 210.59 99.00 182.00 Z"/>
</g>
<g fill="None" fill-opacity="0.0" stroke="#4EC0E8" stroke-opacity="1.00" stroke-width="0.3"><path d="
M 248.00 182.00 
C 204.00 182.00 160.00 182.00 116.00 182.00
C 115.71 198.73 117.32 217.27 121.22 232.78 C 125.12 248.29 125.98 266.44 145.00 264.00 C 164.02 261.56 181.15 265.83 200.00 264.00
C 208.18 239.49 239.22 251.30 258.00 247.00
C 248.68 245.26 241.27 240.27 235.92 232.08 C 230.58 223.89 230.25 212.33 233.23 203.23 C 236.21 194.13 245.63 190.28 248.00 182.00 Z"/>
</g>
<g fill="None" fill-opacity="0.0" stroke="#000000" stroke-opacity="0.63" stroke-width="0.3"><path d="
M 0.00 198.00 
C 0.50 198.00 1.00 198.00 1.00 198.00
C 0.72 194.47 1.96 189.78 0.00 187.00
L 0.00 198.00 Z"/>
</g>
<g fill="None" fill-opacity="0.0" stroke="#000000" stroke-opacity="0.03" stroke-width="0.3"><path d="
M 0.00 347.00 
C 6.87 347.53 18.02 348.35 20.00 340.00 C 21.97 331.66 11.08 330.83 10.00 324.00
C 20.29 314.55 30.49 304.33 40.00 294.00
C 18.19 266.88 3.77 232.90 1.00 198.00
C 1.00 198.00 0.50 198.00 0.00 198.00
L 0.00 347.00 Z"/>
</g>
<g fill="None" fill-opacity="0.0" stroke="#A7AFBA" stroke-opacity="1.00" stroke-width="0.3"><path d="
M 281.00 198.00 
C 267.50 196.51 247.64 197.50 248.00 215.00 C 248.36 232.50 267.75 232.06 281.00 231.00
C 281.00 220.00 281.00 209.00 281.00 198.00 Z"/>
</g>
<g fill="None" fill-opacity="0.0" stroke="#000000" stroke-opacity="1.00" stroke-width="0.3"><path d="
M 324.00 198.00 
C 313.43 196.30 310.03 211.64 320.33 214.67 C 330.63 217.69 333.93 199.59 324.00 198.00 Z"/>
</g>
<g fill="None" fill-opacity="0.0" stroke="#000000" stroke-opacity="1.00" stroke-width="0.3"><path d="
M 390.00 198.00 
C 379.41 196.47 376.03 211.56 386.33 214.67 C 396.63 217.77 399.94 199.44 390.00 198.00 Z"/>
</g>
<g fill="None" fill-opacity="0.0" stroke="#62666D" stroke-opacity="1.00" stroke-width="0.3"><path d="
M 429.00 225.00 
C 429.29 217.11 430.00 207.61 430.00 199.00
C 430.00 198.50 430.00 198.00 430.00 198.00
C 427.35 200.55 429.35 207.10 429.00 211.00 C 428.65 214.90 428.76 220.94 429.00 225.00 Z"/>
</g>
<g fill="None" fill-opacity="0.0" stroke="#878D95" stroke-opacity="1.00" stroke-width="0.3"><path d="
M 430.00 199.00 
C 435.81 199.53 443.12 197.69 448.00 198.00
C 442.62 197.14 435.43 197.51 430.00 198.00
C 430.00 198.00 430.00 198.50 430.00 199.00 Z"/>
</g>
<g fill="None" fill-opacity="0.0" stroke="#A9B0BB" stroke-opacity="1.00" stroke-width="0.3"><path d="
M 430.00 199.00 
C 430.00 207.61 429.29 217.11 429.00 225.00
C 429.00 227.00 429.00 229.00 429.00 231.00
C 439.99 231.65 454.57 232.88 460.23 222.23 C 465.88 211.58 459.09 199.76 448.00 198.00
C 443.12 197.69 435.81 199.53 430.00 199.00 Z"/>
</g>
<g fill="None" fill-opacity="0.0" stroke="#000000" stroke-opacity="1.00" stroke-width="0.3"><path d="
M 338.00 236.00 
C 332.70 237.51 328.07 240.77 323.00 243.00
C 332.88 270.96 377.29 270.76 387.00 243.00
C 381.94 240.78 377.28 237.51 372.00 236.00
C 367.39 251.34 342.78 251.43 338.00 236.00 Z"/>
</g>
<g fill="None" fill-opacity="0.0" stroke="#67D3F1" stroke-opacity="1.00" stroke-width="0.3"><path d="
M 429.00 300.00 
C 429.35 282.67 428.74 265.33 429.00 248.00
C 421.57 248.77 420.87 259.92 416.25 265.25 C 411.64 270.59 408.25 276.29 402.25 280.25 C 396.25 284.21 391.18 289.44 384.00 291.00
C 384.50 301.21 395.66 300.35 402.75 304.25 C 409.84 308.14 413.76 312.16 420.25 317.75 C 426.74 323.35 428.90 305.16 429.00 300.00 Z"/>
</g>
<g fill="None" fill-opacity="0.0" stroke="#2B5965" stroke-opacity="1.00" stroke-width="0.3"><path d="
M 429.00 300.00 
C 429.54 295.53 430.76 288.11 430.00 283.00 C 429.24 277.89 431.13 269.52 430.00 265.00 C 428.87 260.48 432.71 250.31 429.00 248.00
C 428.74 265.33 429.35 282.67 429.00 300.00 Z"/>
</g>
<g fill="None" fill-opacity="0.0" stroke="#68D5F2" stroke-opacity="1.00" stroke-width="0.3"><path d="
M 215.00 396.00 
C 231.67 396.00 248.33 396.00 265.00 396.00
C 267.05 375.33 266.99 348.75 278.25 331.25 C 289.50 313.74 304.92 303.42 324.00 299.00
C 324.24 296.18 326.24 293.91 326.00 291.00
C 318.21 288.52 320.27 287.97 312.25 283.75 C 304.22 279.54 298.08 266.76 290.00 264.00 C 281.92 261.24 276.34 265.36 269.00 264.00 C 261.66 262.64 255.84 264.71 249.00 264.00 C 242.16 263.29 234.40 264.59 228.00 264.00 C 221.60 263.41 215.16 265.15 215.00 272.00 C 214.84 278.85 215.03 286.17 215.00 293.00 C 214.97 299.83 214.90 306.21 215.00 313.00 C 215.10 319.79 214.74 327.27 215.00 334.00 C 215.26 340.73 214.39 348.51 215.00 355.00 C 215.61 361.49 213.64 370.09 215.00 376.00 C 216.36 381.91 211.80 391.43 215.00 396.00 Z"/>
</g>
<g fill="None" fill-opacity="0.0" stroke="#68D5F3" stroke-opacity="1.00" stroke-width="0.3"><path d="
M 445.00 396.00 
C 461.67 396.00 478.33 396.00 495.00 396.00
C 495.00 354.33 495.00 312.67 495.00 271.00
C 492.69 261.42 482.31 264.28 474.00 264.00 C 465.69 263.72 454.56 264.21 446.00 264.00
C 446.70 272.72 445.06 277.92 446.00 287.00 C 446.94 296.08 444.52 297.67 444.99 307.99 C 445.46 318.31 433.25 330.38 435.69 339.31 C 438.14 348.23 439.18 348.68 441.07 355.93 C 442.97 363.18 441.09 369.80 443.02 375.98 C 444.96 382.15 441.53 391.43 445.00 396.00 Z"/>
</g>
<g fill="None" fill-opacity="0.0" stroke="#306270" stroke-opacity="1.00" stroke-width="0.3"><path d="
M 445.00 396.00 
C 448.74 400.93 460.47 395.01 467.00 397.00 C 473.53 398.99 480.79 395.27 489.00 397.00 C 497.21 398.73 496.60 387.93 496.00 381.00 C 495.40 374.07 496.29 366.18 496.00 359.00 C 495.71 351.82 496.16 344.32 496.00 337.00 C 495.84 329.68 496.16 321.32 496.00 314.00 C 495.84 306.68 496.27 299.18 496.00 292.00 C 495.73 284.82 497.00 277.34 495.00 271.00
C 495.00 312.67 495.00 354.33 495.00 396.00
C 478.33 396.00 461.67 396.00 445.00 396.00 Z"/>
</g>
<g fill="None" fill-opacity="0.0" stroke="#4EBFE7" stroke-opacity="1.00" stroke-width="0.3"><path d="
M 161.00 345.00 
C 151.14 334.06 144.81 322.85 135.92 311.08 C 127.03 299.31 126.57 278.85 108.00 281.00 C 89.43 283.15 68.76 279.39 50.00 281.00
C 76.97 316.42 117.52 340.42 161.00 345.00 Z"/>
</g>
<g fill="None" fill-opacity="0.0" stroke="#4EC0E7" stroke-opacity="1.00" stroke-width="0.3"><path d="
M 198.00 281.00 
C 178.33 281.00 158.67 281.00 139.00 281.00
C 145.00 294.40 152.78 309.23 162.70 320.30 C 172.61 331.37 180.97 350.91 198.00 346.00
C 198.00 324.33 198.00 302.67 198.00 281.00 Z"/>
</g>
<g fill="None" fill-opacity="0.0" stroke="#F9D46E" stroke-opacity="1.00" stroke-width="0.3"><path d="
M 282.00 395.00 
C 284.90 399.15 296.57 394.79 302.00 396.00 C 307.43 397.21 316.71 395.45 323.00 396.00 C 329.29 396.55 337.32 395.75 344.00 396.00 C 350.68 396.25 358.15 395.89 365.00 396.00 C 371.85 396.11 379.07 395.95 386.00 396.00 C 392.93 396.05 400.04 395.97 407.00 396.00 C 413.96 396.03 421.03 395.98 428.00 396.00
C 428.00 395.00 428.00 394.00 428.00 393.00
C 426.55 378.19 427.15 362.81 422.00 349.00
C 402.36 367.36 376.96 359.91 352.00 363.00 C 327.04 366.09 310.97 334.97 331.77 318.77 C 352.57 302.57 377.98 325.52 378.00 347.00
C 390.91 346.86 404.52 343.25 413.00 333.00
C 405.91 326.56 400.25 321.16 391.23 317.77 C 382.21 314.38 370.97 314.19 369.98 302.02 C 368.98 289.86 349.78 301.17 342.00 296.00
C 340.77 301.81 337.72 307.08 337.00 313.00
C 328.00 313.62 318.07 316.94 310.70 321.70 C 303.33 326.45 298.23 331.29 293.75 338.75 C 289.28 346.22 284.45 354.62 284.93 363.93 C 285.40 373.24 279.65 385.58 282.00 395.00 Z"/>
</g>
<g fill="None" fill-opacity="0.0" stroke="#F8C127" stroke-opacity="1.00" stroke-width="0.3"><path d="
M 18.00 362.00 
C 16.12 364.13 15.73 377.40 17.00 380.00
C 32.40 384.15 41.52 404.17 32.00 418.00
C 36.30 421.44 40.48 425.68 44.00 430.00
C 57.98 422.12 79.23 429.22 82.00 446.00
C 88.00 446.00 94.00 446.00 100.00 446.00
C 101.62 434.79 116.66 422.02 128.98 427.03 C 141.29 432.03 150.66 420.79 146.00 409.00 C 141.34 397.21 154.45 382.26 165.00 381.00
C 165.00 374.67 165.00 368.33 165.00 362.00
C 159.04 362.48 153.63 360.71 148.00 360.00
C 147.96 362.33 148.05 364.67 148.00 367.00
C 148.24 370.18 148.46 373.80 148.00 377.00
C 146.32 421.36 90.85 443.33 56.75 418.25 C 22.65 393.17 27.05 339.95 64.00 320.00
C 58.41 315.28 50.14 316.98 44.00 313.00
C 40.56 317.30 36.32 321.48 32.00 325.00
C 37.41 332.40 35.98 340.61 33.77 348.77 C 31.56 356.93 23.09 357.86 18.00 362.00 Z"/>
</g>
<g fill="None" fill-opacity="0.0" stroke="#A5ADB7" stroke-opacity="1.00" stroke-width="0.3"><path d="
M 361.00 347.00 
C 361.22 340.03 350.78 322.05 341.25 332.25 C 331.73 342.46 351.20 352.02 361.00 347.00 Z"/>
</g>
<g fill="None" fill-opacity="0.0" stroke="#F7D36E" stroke-opacity="1.00" stroke-width="0.3"><path d="
M 129.00 355.00 
C 112.28 353.62 98.30 340.26 83.70 334.30 C 69.09 328.35 54.27 347.28 50.93 361.93 C 47.58 376.58 53.65 398.86 69.25 406.75 C 84.86 414.63 104.00 415.22 117.75 402.75 C 131.50 390.28 135.59 372.05 129.00 355.00
M 96.00 347.00 
C 126.87 352.01 117.54 402.95 86.00 396.00 C 54.46 389.05 64.33 341.86 96.00 347.00 Z"/>
</g>
<g fill="None" fill-opacity="0.0" stroke="#000000" stroke-opacity="1.00" stroke-width="0.3"><path d="
M 96.00 347.00 
C 64.33 341.86 54.46 389.05 86.00 396.00 C 117.54 402.95 126.87 352.01 96.00 347.00
M 94.00 363.00 
C 104.45 365.80 97.68 384.90 87.33 379.67 C 76.98 374.44 84.00 360.32 94.00 363.00 Z"/>
</g>
<g fill="None" fill-opacity="0.0" stroke="#7C6114" stroke-opacity="1.00" stroke-width="0.3"><path d="
M 17.00 380.00 
C 15.73 377.40 16.12 364.13 18.00 362.00
C 14.85 364.56 14.69 376.76 17.00 380.00 Z"/>
</g>
<g fill="None" fill-opacity="0.0" stroke="#000000" stroke-opacity="0.02" stroke-width="0.3"><path d="
M 0.00 396.00 
L 0.00 512.00
L 281.00 512.00
C 281.00 506.67 281.00 501.33 281.00 496.00
C 286.67 496.00 292.33 496.00 298.00 496.00
C 298.00 484.67 298.00 473.33 298.00 462.00
C 275.65 463.58 253.36 459.89 231.00 462.00 C 208.64 464.11 196.58 449.88 199.00 428.00 C 201.42 406.12 197.18 383.91 199.00 362.00
C 192.94 362.17 187.25 363.62 181.00 363.00
C 181.00 374.00 181.00 385.00 181.00 396.00
C 174.18 395.51 163.75 394.96 162.00 403.00 C 160.25 411.04 168.86 413.16 172.00 419.00
C 159.88 429.62 149.16 442.33 137.00 453.00
C 132.60 448.58 128.70 440.80 121.08 443.08 C 113.45 445.35 115.00 455.52 115.00 462.00
C 98.67 462.00 82.33 462.00 66.00 462.00
C 66.41 454.86 67.64 444.44 59.00 443.00 C 50.36 441.56 49.77 449.93 43.00 452.00
C 32.71 440.22 20.34 429.83 10.00 418.00
C 14.53 413.29 21.29 410.36 19.32 402.68 C 17.35 395.00 6.92 395.29 0.00 396.00 Z"/>
</g>
<g fill="None" fill-opacity="0.0" stroke="#000000" stroke-opacity="0.09" stroke-width="0.3"><path d="
M 94.00 363.00 
C 84.00 360.32 76.98 374.44 87.33 379.67 C 97.68 384.90 104.45 365.80 94.00 363.00 Z"/>
</g>
<g fill="None" fill-opacity="0.0" stroke="#725912" stroke-opacity="1.00" stroke-width="0.3"><path d="
M 148.00 377.00 
C 148.46 373.80 148.24 370.18 148.00 367.00
C 147.93 370.33 148.13 373.67 148.00 377.00 Z"/>
</g>
<g fill="None" fill-opacity="0.0" stroke="#64552C" stroke-opacity="1.00" stroke-width="0.3"><path d="
M 282.00 395.00 
C 289.56 399.00 304.22 396.50 316.00 397.00 C 327.78 397.50 341.79 396.77 354.00 397.00 C 366.21 397.23 379.68 396.88 392.00 397.00 C 404.32 397.12 416.67 396.91 429.00 397.00
C 429.99 395.78 427.99 393.49 428.00 393.00
C 428.00 394.00 428.00 395.00 428.00 396.00
C 421.03 395.98 413.96 396.03 407.00 396.00 C 400.04 395.97 392.93 396.05 386.00 396.00 C 379.07 395.95 371.85 396.11 365.00 396.00 C 358.15 395.89 350.68 396.25 344.00 396.00 C 337.32 395.75 329.29 396.55 323.00 396.00 C 316.71 395.45 307.43 397.21 302.00 396.00 C 296.57 394.79 284.90 399.15 282.00 395.00 Z"/>
</g>
<g fill="None" fill-opacity="0.0" stroke="#2A5561" stroke-opacity="1.00" stroke-width="0.3"><path d="
M 265.00 396.00 
C 248.33 396.00 231.67 396.00 215.00 396.00
C 217.24 399.20 227.95 396.42 232.00 397.00 C 236.05 397.58 244.92 397.36 249.00 397.00 C 253.08 396.64 262.55 399.01 265.00 396.00 Z"/>
</g>
<g fill="None" fill-opacity="0.0" stroke="#CBD0D8" stroke-opacity="1.00" stroke-width="0.3"><path d="
M 429.00 446.00 
C 429.00 440.33 429.00 434.67 429.00 429.00
C 434.50 429.65 441.33 427.68 446.00 430.00
C 446.00 435.33 446.00 440.67 446.00 446.00
C 450.02 444.12 458.42 448.51 462.00 446.00
C 462.89 442.77 460.47 431.91 462.78 429.78 C 465.09 427.65 477.67 428.10 479.00 430.00
C 479.00 435.33 479.00 440.67 479.00 446.00
C 486.39 446.78 492.65 446.44 495.00 439.00
C 496.50 430.60 493.87 421.46 495.00 413.00
C 401.67 413.00 308.33 413.00 215.00 413.00
C 214.40 419.72 215.80 427.37 215.00 434.00 C 214.20 440.63 216.96 446.33 224.00 446.00 C 231.04 445.67 237.07 446.15 244.00 446.00 C 250.93 445.85 258.11 446.07 265.00 446.00 C 271.89 445.93 278.12 446.04 285.00 446.00 C 291.88 445.96 299.11 446.04 306.00 446.00 C 312.89 445.96 320.16 446.06 327.00 446.00 C 333.84 445.94 340.24 446.13 347.00 446.00 C 353.76 445.87 361.35 446.28 368.00 446.00 C 374.65 445.72 381.62 446.65 388.00 446.00 C 394.38 445.35 403.14 447.37 409.00 446.00 C 414.86 444.63 424.45 449.19 429.00 446.00 Z"/>
</g>
<g fill="None" fill-opacity="0.0" stroke="#626569" stroke-opacity="1.00" stroke-width="0.3"><path d="
M 495.00 439.00 
C 495.94 436.04 496.76 429.52 496.00 426.00 C 495.24 422.48 497.95 415.06 495.00 413.00
C 493.87 421.46 496.50 430.60 495.00 439.00 Z"/>
</g>
<g fill="None" fill-opacity="0.0" stroke="#55575A" stroke-opacity="1.00" stroke-width="0.3"><path d="
M 429.00 446.00 
C 431.31 441.66 429.35 435.16 430.00 430.00
C 435.33 430.00 440.67 430.00 446.00 430.00
C 441.33 427.68 434.50 429.65 429.00 429.00
C 429.00 434.67 429.00 440.33 429.00 446.00 Z"/>
</g>
<g fill="None" fill-opacity="0.0" stroke="#57595C" stroke-opacity="1.00" stroke-width="0.3"><path d="
M 462.00 446.00 
C 464.31 441.66 462.35 435.16 463.00 430.00
C 468.33 430.00 473.67 430.00 479.00 430.00
C 477.67 428.10 465.09 427.65 462.78 429.78 C 460.47 431.91 462.89 442.77 462.00 446.00 Z"/>
</g>
<g fill="None" fill-opacity="0.0" stroke="#000000" stroke-opacity="0.02" stroke-width="0.3"><path d="
M 429.00 512.00 
L 512.00 512.00
L 512.00 441.00
C 507.51 460.21 490.54 463.45 472.00 462.00 C 453.46 460.55 430.91 463.09 412.00 462.00
C 412.00 473.33 412.00 484.67 412.00 496.00
C 417.67 496.00 423.33 496.00 429.00 496.00
C 429.00 501.33 429.00 506.67 429.00 512.00 Z"/>
</g>
<g fill="None" fill-opacity="0.0" stroke="#51555A" stroke-opacity="1.00" stroke-width="0.3"><path d="
M 314.00 463.00 
C 341.33 463.00 368.67 463.00 396.00 463.00
C 396.00 473.67 396.00 484.33 396.00 495.00
C 368.67 495.00 341.33 495.00 314.00 495.00
C 317.04 499.35 330.35 494.66 336.00 496.00 C 341.65 497.34 351.48 495.46 358.00 496.00 C 364.52 496.54 374.34 495.83 381.00 496.00 C 387.66 496.17 397.61 498.36 397.00 490.00 C 396.39 481.64 397.25 475.14 397.00 467.00 C 396.74 458.86 386.46 462.27 380.00 462.00 C 373.54 461.73 363.41 461.71 357.00 462.00 C 350.59 462.29 340.57 460.87 335.00 462.00 C 329.43 463.13 316.94 458.80 314.00 463.00 Z"/>
</g>
<g fill="None" fill-opacity="0.0" stroke="#A9B1BC" stroke-opacity="1.00" stroke-width="0.3"><path d="
M 314.00 495.00 
C 341.33 495.00 368.67 495.00 396.00 495.00
C 396.00 484.33 396.00 473.67 396.00 463.00
C 368.67 463.00 341.33 463.00 314.00 463.00
C 312.24 465.52 314.00 475.78 314.00 479.00 C 314.00 482.22 312.24 492.48 314.00 495.00 Z"/>
</g>
<g fill="#000000" fill-opacity="0.02" stroke="None">
<path d="
M 0.00 170.00 
C 0.50 170.00 1.00 170.00 1.00 170.00
C 1.00 136.26 17.74 98.99 36.77 72.77 C 55.80 46.55 82.36 28.86 102.25 18.81 C 122.15 8.77 146.56 1.19 175.00 0.00
L 0.00 0.00
L 0.00 170.00 Z"/>
</g>
<g fill="#000000" fill-opacity="1.00" stroke="None">
<path d="
M 1.00 170.00 
C 1.00 172.84 1.79 176.98 0.00 179.00
L 0.00 187.00
C 1.96 189.78 0.72 194.47 1.00 198.00
C 3.77 232.90 18.19 266.88 40.00 294.00
C 30.49 304.33 20.29 314.55 10.00 324.00
C 11.08 330.83 21.97 331.66 20.00 340.00 C 18.02 348.35 6.87 347.53 0.00 347.00
L 0.00 396.00
C 6.92 395.29 17.35 395.00 19.32 402.68 C 21.29 410.36 14.53 413.29 10.00 418.00
C 20.34 429.83 32.71 440.22 43.00 452.00
C 49.77 449.93 50.36 441.56 59.00 443.00 C 67.64 444.44 66.41 454.86 66.00 462.00
C 82.33 462.00 98.67 462.00 115.00 462.00
C 115.00 455.52 113.45 445.35 121.08 443.08 C 128.70 440.80 132.60 448.58 137.00 453.00
C 149.16 442.33 159.88 429.62 172.00 419.00
C 168.86 413.16 160.25 411.04 162.00 403.00 C 163.75 394.96 174.18 395.51 181.00 396.00
C 181.00 385.00 181.00 374.00 181.00 363.00
C 187.25 363.62 192.94 362.17 199.00 362.00
C 197.18 383.91 201.42 406.12 199.00 428.00 C 196.58 449.88 208.64 464.11 231.00 462.00 C 253.36 459.89 275.65 463.58 298.00 462.00
C 298.00 473.33 298.00 484.67 298.00 496.00
C 292.33 496.00 286.67 496.00 281.00 496.00
C 281.00 501.33 281.00 506.67 281.00 512.00
L 429.00 512.00
C 429.00 506.67 429.00 501.33 429.00 496.00
C 423.33 496.00 417.67 496.00 412.00 496.00
C 412.00 484.67 412.00 473.33 412.00 462.00
C 430.91 463.09 453.46 460.55 472.00 462.00 C 490.54 463.45 507.51 460.21 512.00 441.00
L 512.00 270.00
C 507.32 240.24 471.24 250.09 450.00 247.00
C 479.76 245.45 488.99 199.21 462.00 187.00
C 462.06 175.62 462.42 160.70 459.67 150.33 C 456.92 139.96 453.67 130.30 448.70 121.31 C 443.72 112.31 438.38 106.06 431.25 98.75 C 424.12 91.44 418.44 86.44 409.75 81.25 C 401.07 76.06 391.03 72.42 380.99 70.01 C 370.96 67.60 354.85 65.00 344.00 67.00 C 333.15 69.00 323.47 72.34 317.75 62.25 C 312.03 52.15 304.07 49.96 297.30 42.70 C 290.54 35.44 281.05 30.87 273.92 26.08 C 266.80 21.28 264.35 19.54 258.08 16.87 C 251.81 14.20 246.68 11.53 239.90 9.09 C 233.12 6.66 225.43 5.98 219.08 3.87 C 212.73 1.76 205.53 2.20 198.00 1.00
C 195.13 0.86 191.04 1.90 189.00 0.00
L 175.00 0.00
C 146.56 1.19 122.15 8.77 102.25 18.81 C 82.36 28.86 55.80 46.55 36.77 72.77 C 17.74 98.99 1.00 136.26 1.00 170.00
M 161.00 18.00 
C 157.48 24.28 152.46 28.29 148.25 34.25 C 144.03 40.20 140.38 45.01 136.70 51.70 C 133.01 58.38 128.50 62.77 125.69 70.69 C 122.89 78.62 119.00 84.85 109.00 83.00 C 99.00 81.15 89.94 83.93 80.00 83.00 C 70.06 82.07 59.96 83.70 50.00 83.00
C 76.54 46.63 117.58 23.25 161.00 18.00
M 309.00 77.00 
C 289.91 88.43 264.93 80.80 243.00 83.00
C 233.88 59.06 218.44 37.94 202.00 18.00
C 243.09 22.99 282.44 43.72 309.00 77.00
M 182.00 21.00 
C 199.36 39.85 214.95 59.98 225.00 83.00
C 196.33 83.00 167.67 83.00 139.00 83.00
C 148.09 59.78 164.11 39.00 182.00 21.00
M 446.00 182.00 
C 435.72 184.91 426.79 180.97 429.00 171.00 C 431.21 161.03 426.31 155.23 424.68 147.32 C 423.05 139.42 418.54 135.46 414.75 129.25 C 410.95 123.05 406.30 119.73 400.92 115.08 C 395.53 110.43 390.06 107.46 383.31 104.69 C 376.55 101.93 368.76 99.87 360.99 99.01 C 353.22 98.15 342.90 99.74 335.78 101.78 C 328.66 103.82 322.40 106.33 316.25 110.25 C 310.10 114.17 306.06 117.35 300.75 122.75 C 295.44 128.16 293.35 132.58 289.08 139.08 C 284.81 145.58 285.23 152.41 282.01 160.01 C 278.79 167.60 287.07 179.43 276.00 182.00 C 264.92 184.56 262.61 176.06 264.93 166.93 C 267.24 157.79 266.08 150.97 269.32 143.32 C 272.56 135.68 274.81 131.20 278.75 124.75 C 282.70 118.31 285.94 114.50 291.25 109.25 C 296.56 104.00 300.46 100.42 306.70 96.70 C 312.94 92.97 318.50 89.94 325.68 87.68 C 332.86 85.41 340.97 83.15 349.00 83.00 C 357.03 82.85 367.72 83.00 375.02 84.98 C 382.33 86.95 389.43 88.73 395.70 92.31 C 401.96 95.88 407.71 98.34 412.75 103.25 C 417.78 108.17 422.26 111.89 426.75 117.25 C 431.24 122.61 434.08 128.22 437.31 134.69 C 440.53 141.17 442.42 148.50 443.99 156.01 C 445.56 163.51 446.49 173.76 446.00 182.00
M 113.00 99.00 
C 106.89 120.47 100.38 141.98 100.00 165.00
C 72.67 165.00 45.33 165.00 18.00 165.00
C 18.85 154.02 20.15 141.30 24.33 131.33 C 28.51 121.35 29.73 112.32 36.31 103.31 C 42.88 94.29 60.49 100.42 72.00 99.00 C 83.51 97.58 100.95 100.06 113.00 99.00
M 247.00 165.00 
C 203.33 165.00 159.67 165.00 116.00 165.00
C 118.43 142.34 122.73 120.05 131.00 99.00
C 146.19 98.50 160.75 99.67 176.00 99.00 C 191.25 98.33 206.65 100.25 222.00 99.00 C 237.35 97.75 236.87 113.22 240.78 125.22 C 244.69 137.23 245.25 152.28 247.00 165.00
M 277.00 99.00 
C 270.77 108.23 262.48 116.36 259.00 127.00
C 254.90 118.45 253.54 108.12 250.00 99.00
C 259.00 99.00 268.00 99.00 277.00 99.00
M 412.00 166.00 
C 383.68 162.44 346.33 173.23 329.00 144.00
C 325.17 148.28 314.76 149.75 316.00 156.00
C 310.22 157.23 304.95 160.27 299.00 161.00
C 303.47 133.47 330.83 114.67 358.00 116.00 C 385.17 117.33 409.73 138.38 412.00 166.00
M 331.00 169.00 
C 338.00 170.78 342.55 177.88 351.01 178.99 C 359.46 180.10 368.71 182.12 378.00 182.00 C 387.29 181.88 399.56 179.98 408.22 182.78 C 416.88 185.57 411.96 200.28 413.00 208.00 C 414.04 215.72 412.80 229.44 411.02 237.02 C 409.25 244.61 405.91 251.03 401.25 257.25 C 396.58 263.47 392.43 267.51 385.77 271.77 C 379.11 276.03 371.10 278.91 363.00 280.00 C 354.89 281.08 344.61 280.92 336.98 278.02 C 329.35 275.13 323.46 271.94 317.25 266.75 C 311.04 261.55 308.20 256.66 304.08 249.92 C 299.95 243.18 298.55 234.36 297.67 226.33 C 296.79 218.30 297.37 203.73 297.00 196.00 C 296.63 188.27 299.48 177.59 307.08 176.08 C 314.69 174.58 323.55 167.11 331.00 169.00
M 99.00 182.00 
C 98.70 210.59 104.73 237.63 113.00 264.00
C 88.00 264.00 63.00 264.00 38.00 264.00
C 25.31 238.58 15.89 211.53 17.00 182.00
C 44.33 182.00 71.67 182.00 99.00 182.00
M 248.00 182.00 
C 245.63 190.28 236.21 194.13 233.23 203.23 C 230.25 212.33 230.58 223.89 235.92 232.08 C 241.27 240.27 248.68 245.26 258.00 247.00
C 239.22 251.30 208.18 239.49 200.00 264.00
C 181.15 265.83 164.02 261.56 145.00 264.00 C 125.98 266.44 125.12 248.29 121.22 232.78 C 117.32 217.27 115.71 198.73 116.00 182.00
C 160.00 182.00 204.00 182.00 248.00 182.00
M 281.00 198.00 
C 281.00 209.00 281.00 220.00 281.00 231.00
C 267.75 232.06 248.36 232.50 248.00 215.00 C 247.64 197.50 267.50 196.51 281.00 198.00
M 429.00 225.00 
C 428.76 220.94 428.65 214.90 429.00 211.00 C 429.35 207.10 427.35 200.55 430.00 198.00
C 435.43 197.51 442.62 197.14 448.00 198.00
C 459.09 199.76 465.88 211.58 460.23 222.23 C 454.57 232.88 439.99 231.65 429.00 231.00
C 429.00 229.00 429.00 227.00 429.00 225.00
M 429.00 300.00 
C 428.90 305.16 426.74 323.35 420.25 317.75 C 413.76 312.16 409.84 308.14 402.75 304.25 C 395.66 300.35 384.50 301.21 384.00 291.00
C 391.18 289.44 396.25 284.21 402.25 280.25 C 408.25 276.29 411.64 270.59 416.25 265.25 C 420.87 259.92 421.57 248.77 429.00 248.00
C 432.71 250.31 428.87 260.48 430.00 265.00 C 431.13 269.52 429.24 277.89 430.00 283.00 C 430.76 288.11 429.54 295.53 429.00 300.00
M 265.00 396.00 
C 262.55 399.01 253.08 396.64 249.00 397.00 C 244.92 397.36 236.05 397.58 232.00 397.00 C 227.95 396.42 217.24 399.20 215.00 396.00
C 211.80 391.43 216.36 381.91 215.00 376.00 C 213.64 370.09 215.61 361.49 215.00 355.00 C 214.39 348.51 215.26 340.73 215.00 334.00 C 214.74 327.27 215.10 319.79 215.00 313.00 C 214.90 306.21 214.97 299.83 215.00 293.00 C 215.03 286.17 214.84 278.85 215.00 272.00 C 215.16 265.15 221.60 263.41 228.00 264.00 C 234.40 264.59 242.16 263.29 249.00 264.00 C 255.84 264.71 261.66 262.64 269.00 264.00 C 276.34 265.36 281.92 261.24 290.00 264.00 C 298.08 266.76 304.22 279.54 312.25 283.75 C 320.27 287.97 318.21 288.52 326.00 291.00
C 326.24 293.91 324.24 296.18 324.00 299.00
C 304.92 303.42 289.50 313.74 278.25 331.25 C 266.99 348.75 267.05 375.33 265.00 396.00
M 495.00 271.00 
C 497.00 277.34 495.73 284.82 496.00 292.00 C 496.27 299.18 495.84 306.68 496.00 314.00 C 496.16 321.32 495.84 329.68 496.00 337.00 C 496.16 344.32 495.71 351.82 496.00 359.00 C 496.29 366.18 495.40 374.07 496.00 381.00 C 496.60 387.93 497.21 398.73 489.00 397.00 C 480.79 395.27 473.53 398.99 467.00 397.00 C 460.47 395.01 448.74 400.93 445.00 396.00
C 441.53 391.43 444.96 382.15 443.02 375.98 C 441.09 369.80 442.97 363.18 441.07 355.93 C 439.18 348.68 438.14 348.23 435.69 339.31 C 433.25 330.38 445.46 318.31 444.99 307.99 C 444.52 297.67 446.94 296.08 446.00 287.00 C 445.06 277.92 446.70 272.72 446.00 264.00
C 454.56 264.21 465.69 263.72 474.00 264.00 C 482.31 264.28 492.69 261.42 495.00 271.00
M 161.00 345.00 
C 117.52 340.42 76.97 316.42 50.00 281.00
C 68.76 279.39 89.43 283.15 108.00 281.00 C 126.57 278.85 127.03 299.31 135.92 311.08 C 144.81 322.85 151.14 334.06 161.00 345.00
M 198.00 281.00 
C 198.00 302.67 198.00 324.33 198.00 346.00
C 180.97 350.91 172.61 331.37 162.70 320.30 C 152.78 309.23 145.00 294.40 139.00 281.00
C 158.67 281.00 178.33 281.00 198.00 281.00
M 428.00 393.00 
C 427.99 393.49 429.99 395.78 429.00 397.00
C 416.67 396.91 404.32 397.12 392.00 397.00 C 379.68 396.88 366.21 397.23 354.00 397.00 C 341.79 396.77 327.78 397.50 316.00 397.00 C 304.22 396.50 289.56 399.00 282.00 395.00
C 279.65 385.58 285.40 373.24 284.93 363.93 C 284.45 354.62 289.28 346.22 293.75 338.75 C 298.23 331.29 303.33 326.45 310.70 321.70 C 318.07 316.94 328.00 313.62 337.00 313.00
C 337.72 307.08 340.77 301.81 342.00 296.00
C 349.78 301.17 368.98 289.86 369.98 302.02 C 370.97 314.19 382.21 314.38 391.23 317.77 C 400.25 321.16 405.91 326.56 413.00 333.00
C 404.52 343.25 390.91 346.86 378.00 347.00
C 377.98 325.52 352.57 302.57 331.77 318.77 C 310.97 334.97 327.04 366.09 352.00 363.00 C 376.96 359.91 402.36 367.36 422.00 349.00
C 427.15 362.81 426.55 378.19 428.00 393.00
M 148.00 377.00 
C 148.13 373.67 147.93 370.33 148.00 367.00
C 148.05 364.67 147.96 362.33 148.00 360.00
C 153.63 360.71 159.04 362.48 165.00 362.00
C 165.00 368.33 165.00 374.67 165.00 381.00
C 154.45 382.26 141.34 397.21 146.00 409.00 C 150.66 420.79 141.29 432.03 128.98 427.03 C 116.66 422.02 101.62 434.79 100.00 446.00
C 94.00 446.00 88.00 446.00 82.00 446.00
C 79.23 429.22 57.98 422.12 44.00 430.00
C 40.48 425.68 36.30 421.44 32.00 418.00
C 41.52 404.17 32.40 384.15 17.00 380.00
C 14.69 376.76 14.85 364.56 18.00 362.00
C 23.09 357.86 31.56 356.93 33.77 348.77 C 35.98 340.61 37.41 332.40 32.00 325.00
C 36.32 321.48 40.56 317.30 44.00 313.00
C 50.14 316.98 58.41 315.28 64.00 320.00
C 27.05 339.95 22.65 393.17 56.75 418.25 C 90.85 443.33 146.32 421.36 148.00 377.00
M 361.00 347.00 
C 351.20 352.02 331.73 342.46 341.25 332.25 C 350.78 322.05 361.22 340.03 361.00 347.00
M 129.00 355.00 
C 135.59 372.05 131.50 390.28 117.75 402.75 C 104.00 415.22 84.86 414.63 69.25 406.75 C 53.65 398.86 47.58 376.58 50.93 361.93 C 54.27 347.28 69.09 328.35 83.70 334.30 C 98.30 340.26 112.28 353.62 129.00 355.00
M 495.00 439.00 
C 492.65 446.44 486.39 446.78 479.00 446.00
C 479.00 440.67 479.00 435.33 479.00 430.00
C 473.67 430.00 468.33 430.00 463.00 430.00
C 462.35 435.16 464.31 441.66 462.00 446.00
C 458.42 448.51 450.02 444.12 446.00 446.00
C 446.00 440.67 446.00 435.33 446.00 430.00
C 440.67 430.00 435.33 430.00 430.00 430.00
C 429.35 435.16 431.31 441.66 429.00 446.00
C 424.45 449.19 414.86 444.63 409.00 446.00 C 403.14 447.37 394.38 445.35 388.00 446.00 C 381.62 446.65 374.65 445.72 368.00 446.00 C 361.35 446.28 353.76 445.87 347.00 446.00 C 340.24 446.13 333.84 445.94 327.00 446.00 C 320.16 446.06 312.89 445.96 306.00 446.00 C 299.11 446.04 291.88 445.96 285.00 446.00 C 278.12 446.04 271.89 445.93 265.00 446.00 C 258.11 446.07 250.93 445.85 244.00 446.00 C 237.07 446.15 231.04 445.67 224.00 446.00 C 216.96 446.33 214.20 440.63 215.00 434.00 C 215.80 427.37 214.40 419.72 215.00 413.00
C 308.33 413.00 401.67 413.00 495.00 413.00
C 497.95 415.06 495.24 422.48 496.00 426.00 C 496.76 429.52 495.94 436.04 495.00 439.00
M 314.00 495.00 
C 312.24 492.48 314.00 482.22 314.00 479.00 C 314.00 475.78 312.24 465.52 314.00 463.00
C 316.94 458.80 329.43 463.13 335.00 462.00 C 340.57 460.87 350.59 462.29 357.00 462.00 C 363.41 461.71 373.54 461.73 380.00 462.00 C 386.46 462.27 396.74 458.86 397.00 467.00 C 397.25 475.14 396.39 481.64 397.00 490.00 C 397.61 498.36 387.66 496.17 381.00 496.00 C 374.34 495.83 364.52 496.54 358.00 496.00 C 351.48 495.46 341.65 497.34 336.00 496.00 C 330.35 494.66 317.04 499.35 314.00 495.00 Z"/>
</g>
<g fill="#000000" fill-opacity="0.58" stroke="None">
<path d="
M 198.00 1.00 
C 197.90 0.98 198.00 0.00 198.00 0.00
L 189.00 0.00
C 191.04 1.90 195.13 0.86 198.00 1.00 Z"/>
</g>
<g fill="#000000" fill-opacity="0.01" stroke="None">
<path d="
M 198.00 1.00 
C 205.53 2.20 212.73 1.76 219.08 3.87 C 225.43 5.98 233.12 6.66 239.90 9.09 C 246.68 11.53 251.81 14.20 258.08 16.87 C 264.35 19.54 266.80 21.28 273.92 26.08 C 281.05 30.87 290.54 35.44 297.30 42.70 C 304.07 49.96 312.03 52.15 317.75 62.25 C 323.47 72.34 333.15 69.00 344.00 67.00 C 354.85 65.00 370.96 67.60 380.99 70.01 C 391.03 72.42 401.07 76.06 409.75 81.25 C 418.44 86.44 424.12 91.44 431.25 98.75 C 438.38 106.06 443.72 112.31 448.70 121.31 C 453.67 130.30 456.92 139.96 459.67 150.33 C 462.42 160.70 462.06 175.62 462.00 187.00
C 488.99 199.21 479.76 245.45 450.00 247.00
C 471.24 250.09 507.32 240.24 512.00 270.00
L 512.00 0.00
L 198.00 0.00
C 198.00 0.00 197.90 0.98 198.00 1.00
M 430.00 33.00 
C 430.00 38.67 430.00 44.33 430.00 50.00
C 424.54 48.36 417.44 48.38 412.00 50.00
C 412.00 44.33 412.00 38.67 412.00 33.00
C 418.00 33.00 424.00 33.00 430.00 33.00
M 463.00 33.00 
C 463.00 38.67 463.00 44.33 463.00 50.00
C 457.33 50.00 451.67 50.00 446.00 50.00
C 446.00 44.33 446.00 38.67 446.00 33.00
C 451.67 33.00 457.33 33.00 463.00 33.00
M 496.00 33.00 
C 496.00 38.67 496.00 44.33 496.00 50.00
C 490.33 50.00 484.67 50.00 479.00 50.00
C 479.00 44.33 479.00 38.67 479.00 33.00
C 484.67 33.00 490.33 33.00 496.00 33.00
M 463.00 66.00 
C 463.00 71.67 463.00 77.33 463.00 83.00
C 457.33 83.00 451.67 83.00 446.00 83.00
C 446.00 77.33 446.00 71.67 446.00 66.00
C 451.67 66.00 457.33 66.00 463.00 66.00
M 496.00 66.00 
C 496.00 71.67 496.00 77.33 496.00 83.00
C 490.33 83.00 484.67 83.00 479.00 83.00
C 479.00 77.33 479.00 71.67 479.00 66.00
C 484.67 66.00 490.33 66.00 496.00 66.00 Z"/>
</g>
<g fill="#4DBDE5" fill-opacity="1.00" stroke="None">
<path d="
M 161.00 18.00 
C 117.58 23.25 76.54 46.63 50.00 83.00
C 59.96 83.70 70.06 82.07 80.00 83.00 C 89.94 83.93 99.00 81.15 109.00 83.00 C 119.00 84.85 122.89 78.62 125.69 70.69 C 128.50 62.77 133.01 58.38 136.70 51.70 C 140.38 45.01 144.03 40.20 148.25 34.25 C 152.46 28.29 157.48 24.28 161.00 18.00 Z"/>
</g>
<g fill="#4DBEE5" fill-opacity="1.00" stroke="None">
<path d="
M 309.00 77.00 
C 282.44 43.72 243.09 22.99 202.00 18.00
C 218.44 37.94 233.88 59.06 243.00 83.00
C 264.93 80.80 289.91 88.43 309.00 77.00 Z"/>
</g>
<g fill="#4DBDE4" fill-opacity="1.00" stroke="None">
<path d="
M 182.00 21.00 
C 164.11 39.00 148.09 59.78 139.00 83.00
C 167.67 83.00 196.33 83.00 225.00 83.00
C 214.95 59.98 199.36 39.85 182.00 21.00 Z"/>
</g>
<g fill="#000000" fill-opacity="0.91" stroke="None">
<path d="
M 430.00 33.00 
C 424.00 33.00 418.00 33.00 412.00 33.00
C 412.00 38.67 412.00 44.33 412.00 50.00
C 417.44 48.38 424.54 48.36 430.00 50.00
C 430.00 44.33 430.00 38.67 430.00 33.00 Z"/>
</g>
<g fill="#000000" fill-opacity="0.94" stroke="None">
<path d="
M 463.00 33.00 
C 457.33 33.00 451.67 33.00 446.00 33.00
C 446.00 38.67 446.00 44.33 446.00 50.00
C 451.67 50.00 457.33 50.00 463.00 50.00
C 463.00 44.33 463.00 38.67 463.00 33.00 Z"/>
</g>
<g fill="#000000" fill-opacity="0.94" stroke="None">
<path d="
M 496.00 33.00 
C 490.33 33.00 484.67 33.00 479.00 33.00
C 479.00 38.67 479.00 44.33 479.00 50.00
C 484.67 50.00 490.33 50.00 496.00 50.00
C 496.00 44.33 496.00 38.67 496.00 33.00 Z"/>
</g>
<g fill="#000000" fill-opacity="0.94" stroke="None">
<path d="
M 463.00 66.00 
C 457.33 66.00 451.67 66.00 446.00 66.00
C 446.00 71.67 446.00 77.33 446.00 83.00
C 451.67 83.00 457.33 83.00 463.00 83.00
C 463.00 77.33 463.00 71.67 463.00 66.00 Z"/>
</g>
<g fill="#000000" fill-opacity="0.94" stroke="None">
<path d="
M 496.00 66.00 
C 490.33 66.00 484.67 66.00 479.00 66.00
C 479.00 71.67 479.00 77.33 479.00 83.00
C 484.67 83.00 490.33 83.00 496.00 83.00
C 496.00 77.33 496.00 71.67 496.00 66.00 Z"/>
</g>
<g fill="#A7AFBA" fill-opacity="1.00" stroke="None">
<path d="
M 446.00 182.00 
C 446.49 173.76 445.56 163.51 443.99 156.01 C 442.42 148.50 440.53 141.17 437.31 134.69 C 434.08 128.22 431.24 122.61 426.75 117.25 C 422.26 111.89 417.78 108.17 412.75 103.25 C 407.71 98.34 401.96 95.88 395.70 92.31 C 389.43 88.73 382.33 86.95 375.02 84.98 C 367.72 83.00 357.03 82.85 349.00 83.00 C 340.97 83.15 332.86 85.41 325.68 87.68 C 318.50 89.94 312.94 92.97 306.70 96.70 C 300.46 100.42 296.56 104.00 291.25 109.25 C 285.94 114.50 282.70 118.31 278.75 124.75 C 274.81 131.20 272.56 135.68 269.32 143.32 C 266.08 150.97 267.24 157.79 264.93 166.93 C 262.61 176.06 264.92 184.56 276.00 182.00 C 287.07 179.43 278.79 167.60 282.01 160.01 C 285.23 152.41 284.81 145.58 289.08 139.08 C 293.35 132.58 295.44 128.16 300.75 122.75 C 306.06 117.35 310.10 114.17 316.25 110.25 C 322.40 106.33 328.66 103.82 335.78 101.78 C 342.90 99.74 353.22 98.15 360.99 99.01 C 368.76 99.87 376.55 101.93 383.31 104.69 C 390.06 107.46 395.53 110.43 400.92 115.08 C 406.30 119.73 410.95 123.05 414.75 129.25 C 418.54 135.46 423.05 139.42 424.68 147.32 C 426.31 155.23 431.21 161.03 429.00 171.00 C 426.79 180.97 435.72 184.91 446.00 182.00 Z"/>
</g>
<g fill="#4EC0E8" fill-opacity="1.00" stroke="None">
<path d="
M 113.00 99.00 
C 100.95 100.06 83.51 97.58 72.00 99.00 C 60.49 100.42 42.88 94.29 36.31 103.31 C 29.73 112.32 28.51 121.35 24.33 131.33 C 20.15 141.30 18.85 154.02 18.00 165.00
C 45.33 165.00 72.67 165.00 100.00 165.00
C 100.38 141.98 106.89 120.47 113.00 99.00 Z"/>
</g>
<g fill="#4EC0E8" fill-opacity="1.00" stroke="None">
<path d="
M 247.00 165.00 
C 245.25 152.28 244.69 137.23 240.78 125.22 C 236.87 113.22 237.35 97.75 222.00 99.00 C 206.65 100.25 191.25 98.33 176.00 99.00 C 160.75 99.67 146.19 98.50 131.00 99.00
C 122.73 120.05 118.43 142.34 116.00 165.00
C 159.67 165.00 203.33 165.00 247.00 165.00 Z"/>
</g>
<g fill="#4CBBE2" fill-opacity="1.00" stroke="None">
<path d="
M 277.00 99.00 
C 268.00 99.00 259.00 99.00 250.00 99.00
C 253.54 108.12 254.90 118.45 259.00 127.00
C 262.48 116.36 270.77 108.23 277.00 99.00 Z"/>
</g>
<g fill="#B07845" fill-opacity="1.00" stroke="None">
<path d="
M 412.00 166.00 
C 409.73 138.38 385.17 117.33 358.00 116.00 C 330.83 114.67 303.47 133.47 299.00 161.00
C 304.95 160.27 310.22 157.23 316.00 156.00
C 314.76 149.75 325.17 148.28 329.00 144.00
C 346.33 173.23 383.68 162.44 412.00 166.00 Z"/>
</g>
<g fill="#EDCEB2" fill-opacity="1.00" stroke="None">
<path d="
M 331.00 169.00 
C 323.55 167.11 314.69 174.58 307.08 176.08 C 299.48 177.59 296.63 188.27 297.00 196.00 C 297.37 203.73 296.79 218.30 297.67 226.33 C 298.55 234.36 299.95 243.18 304.08 249.92 C 308.20 256.66 311.04 261.55 317.25 266.75 C 323.46 271.94 329.35 275.13 336.98 278.02 C 344.61 280.92 354.89 281.08 363.00 280.00 C 371.10 278.91 379.11 276.03 385.77 271.77 C 392.43 267.51 396.58 263.47 401.25 257.25 C 405.91 251.03 409.25 244.61 411.02 237.02 C 412.80 229.44 414.04 215.72 413.00 208.00 C 411.96 200.28 416.88 185.57 408.22 182.78 C 399.56 179.98 387.29 181.88 378.00 182.00 C 368.71 182.12 359.46 180.10 351.01 178.99 C 342.55 177.88 338.00 170.78 331.00 169.00
M 324.00 198.00 
C 333.93 199.59 330.63 217.69 320.33 214.67 C 310.03 211.64 313.43 196.30 324.00 198.00
M 390.00 198.00 
C 399.94 199.44 396.63 217.77 386.33 214.67 C 376.03 211.56 379.41 196.47 390.00 198.00
M 338.00 236.00 
C 342.78 251.43 367.39 251.34 372.00 236.00
C 377.28 237.51 381.94 240.78 387.00 243.00
C 377.29 270.76 332.88 270.96 323.00 243.00
C 328.07 240.77 332.70 237.51 338.00 236.00 Z"/>
</g>
<g fill="#000000" fill-opacity="0.80" stroke="None">
<path d="
M 0.00 179.00 
C 1.79 176.98 1.00 172.84 1.00 170.00
C 1.00 170.00 0.50 170.00 0.00 170.00
L 0.00 179.00 Z"/>
</g>
<g fill="#4EC0E8" fill-opacity="1.00" stroke="None">
<path d="
M 99.00 182.00 
C 71.67 182.00 44.33 182.00 17.00 182.00
C 15.89 211.53 25.31 238.58 38.00 264.00
C 63.00 264.00 88.00 264.00 113.00 264.00
C 104.73 237.63 98.70 210.59 99.00 182.00 Z"/>
</g>
<g fill="#4EC0E8" fill-opacity="1.00" stroke="None">
<path d="
M 248.00 182.00 
C 204.00 182.00 160.00 182.00 116.00 182.00
C 115.71 198.73 117.32 217.27 121.22 232.78 C 125.12 248.29 125.98 266.44 145.00 264.00 C 164.02 261.56 181.15 265.83 200.00 264.00
C 208.18 239.49 239.22 251.30 258.00 247.00
C 248.68 245.26 241.27 240.27 235.92 232.08 C 230.58 223.89 230.25 212.33 233.23 203.23 C 236.21 194.13 245.63 190.28 248.00 182.00 Z"/>
</g>
<g fill="#000000" fill-opacity="0.63" stroke="None">
<path d="
M 0.00 198.00 
C 0.50 198.00 1.00 198.00 1.00 198.00
C 0.72 194.47 1.96 189.78 0.00 187.00
L 0.00 198.00 Z"/>
</g>
<g fill="#000000" fill-opacity="0.03" stroke="None">
<path d="
M 0.00 347.00 
C 6.87 347.53 18.02 348.35 20.00 340.00 C 21.97 331.66 11.08 330.83 10.00 324.00
C 20.29 314.55 30.49 304.33 40.00 294.00
C 18.19 266.88 3.77 232.90 1.00 198.00
C 1.00 198.00 0.50 198.00 0.00 198.00
L 0.00 347.00 Z"/>
</g>
<g fill="#A7AFBA" fill-opacity="1.00" stroke="None">
<path d="
M 281.00 198.00 
C 267.50 196.51 247.64 197.50 248.00 215.00 C 248.36 232.50 267.75 232.06 281.00 231.00
C 281.00 220.00 281.00 209.00 281.00 198.00 Z"/>
</g>
<g fill="#000000" fill-opacity="1.00" stroke="None">
<path d="
M 324.00 198.00 
C 313.43 196.30 310.03 211.64 320.33 214.67 C 330.63 217.69 333.93 199.59 324.00 198.00 Z"/>
</g>
<g fill="#000000" fill-opacity="1.00" stroke="None">
<path d="
M 390.00 198.00 
C 379.41 196.47 376.03 211.56 386.33 214.67 C 396.63 217.77 399.94 199.44 390.00 198.00 Z"/>
</g>
<g fill="#62666D" fill-opacity="1.00" stroke="None">
<path d="
M 429.00 225.00 
C 429.29 217.11 430.00 207.61 430.00 199.00
C 430.00 198.50 430.00 198.00 430.00 198.00
C 427.35 200.55 429.35 207.10 429.00 211.00 C 428.65 214.90 428.76 220.94 429.00 225.00 Z"/>
</g>
<g fill="#878D95" fill-opacity="1.00" stroke="None">
<path d="
M 430.00 199.00 
C 435.81 199.53 443.12 197.69 448.00 198.00
C 442.62 197.14 435.43 197.51 430.00 198.00
C 430.00 198.00 430.00 198.50 430.00 199.00 Z"/>
</g>
<g fill="#A9B0BB" fill-opacity="1.00" stroke="None">
<path d="
M 430.00 199.00 
C 430.00 207.61 429.29 217.11 429.00 225.00
C 429.00 227.00 429.00 229.00 429.00 231.00
C 439.99 231.65 454.57 232.88 460.23 222.23 C 465.88 211.58 459.09 199.76 448.00 198.00
C 443.12 197.69 435.81 199.53 430.00 199.00 Z"/>
</g>
<g fill="#000000" fill-opacity="1.00" stroke="None">
<path d="
M 338.00 236.00 
C 332.70 237.51 328.07 240.77 323.00 243.00
C 332.88 270.96 377.29 270.76 387.00 243.00
C 381.94 240.78 377.28 237.51 372.00 236.00
C 367.39 251.34 342.78 251.43 338.00 236.00 Z"/>
</g>
<g fill="#67D3F1" fill-opacity="1.00" stroke="None">
<path d="
M 429.00 300.00 
C 429.35 282.67 428.74 265.33 429.00 248.00
C 421.57 248.77 420.87 259.92 416.25 265.25 C 411.64 270.59 408.25 276.29 402.25 280.25 C 396.25 284.21 391.18 289.44 384.00 291.00
C 384.50 301.21 395.66 300.35 402.75 304.25 C 409.84 308.14 413.76 312.16 420.25 317.75 C 426.74 323.35 428.90 305.16 429.00 300.00 Z"/>
</g>
<g fill="#2B5965" fill-opacity="1.00" stroke="None">
<path d="
M 429.00 300.00 
C 429.54 295.53 430.76 288.11 430.00 283.00 C 429.24 277.89 431.13 269.52 430.00 265.00 C 428.87 260.48 432.71 250.31 429.00 248.00
C 428.74 265.33 429.35 282.67 429.00 300.00 Z"/>
</g>
<g fill="#68D5F2" fill-opacity="1.00" stroke="None">
<path d="
M 215.00 396.00 
C 231.67 396.00 248.33 396.00 265.00 396.00
C 267.05 375.33 266.99 348.75 278.25 331.25 C 289.50 313.74 304.92 303.42 324.00 299.00
C 324.24 296.18 326.24 293.91 326.00 291.00
C 318.21 288.52 320.27 287.97 312.25 283.75 C 304.22 279.54 298.08 266.76 290.00 264.00 C 281.92 261.24 276.34 265.36 269.00 264.00 C 261.66 262.64 255.84 264.71 249.00 264.00 C 242.16 263.29 234.40 264.59 228.00 264.00 C 221.60 263.41 215.16 265.15 215.00 272.00 C 214.84 278.85 215.03 286.17 215.00 293.00 C 214.97 299.83 214.90 306.21 215.00 313.00 C 215.10 319.79 214.74 327.27 215.00 334.00 C 215.26 340.73 214.39 348.51 215.00 355.00 C 215.61 361.49 213.64 370.09 215.00 376.00 C 216.36 381.91 211.80 391.43 215.00 396.00 Z"/>
</g>
<g fill="#68D5F3" fill-opacity="1.00" stroke="None">
<path d="
M 445.00 396.00 
C 461.67 396.00 478.33 396.00 495.00 396.00
C 495.00 354.33 495.00 312.67 495.00 271.00
C 492.69 261.42 482.31 264.28 474.00 264.00 C 465.69 263.72 454.56 264.21 446.00 264.00
C 446.70 272.72 445.06 277.92 446.00 287.00 C 446.94 296.08 444.52 297.67 444.99 307.99 C 445.46 318.31 433.25 330.38 435.69 339.31 C 438.14 348.23 439.18 348.68 441.07 355.93 C 442.97 363.18 441.09 369.80 443.02 375.98 C 444.96 382.15 441.53 391.43 445.00 396.00 Z"/>
</g>
<g fill="#306270" fill-opacity="1.00" stroke="None">
<path d="
M 445.00 396.00 
C 448.74 400.93 460.47 395.01 467.00 397.00 C 473.53 398.99 480.79 395.27 489.00 397.00 C 497.21 398.73 496.60 387.93 496.00 381.00 C 495.40 374.07 496.29 366.18 496.00 359.00 C 495.71 351.82 496.16 344.32 496.00 337.00 C 495.84 329.68 496.16 321.32 496.00 314.00 C 495.84 306.68 496.27 299.18 496.00 292.00 C 495.73 284.82 497.00 277.34 495.00 271.00
C 495.00 312.67 495.00 354.33 495.00 396.00
C 478.33 396.00 461.67 396.00 445.00 396.00 Z"/>
</g>
<g fill="#4EBFE7" fill-opacity="1.00" stroke="None">
<path d="
M 161.00 345.00 
C 151.14 334.06 144.81 322.85 135.92 311.08 C 127.03 299.31 126.57 278.85 108.00 281.00 C 89.43 283.15 68.76 279.39 50.00 281.00
C 76.97 316.42 117.52 340.42 161.00 345.00 Z"/>
</g>
<g fill="#4EC0E7" fill-opacity="1.00" stroke="None">
<path d="
M 198.00 281.00 
C 178.33 281.00 158.67 281.00 139.00 281.00
C 145.00 294.40 152.78 309.23 162.70 320.30 C 172.61 331.37 180.97 350.91 198.00 346.00
C 198.00 324.33 198.00 302.67 198.00 281.00 Z"/>
</g>
<g fill="#F9D46E" fill-opacity="1.00" stroke="None">
<path d="
M 282.00 395.00 
C 284.90 399.15 296.57 394.79 302.00 396.00 C 307.43 397.21 316.71 395.45 323.00 396.00 C 329.29 396.55 337.32 395.75 344.00 396.00 C 350.68 396.25 358.15 395.89 365.00 396.00 C 371.85 396.11 379.07 395.95 386.00 396.00 C 392.93 396.05 400.04 395.97 407.00 396.00 C 413.96 396.03 421.03 395.98 428.00 396.00
C 428.00 395.00 428.00 394.00 428.00 393.00
C 426.55 378.19 427.15 362.81 422.00 349.00
C 402.36 367.36 376.96 359.91 352.00 363.00 C 327.04 366.09 310.97 334.97 331.77 318.77 C 352.57 302.57 377.98 325.52 378.00 347.00
C 390.91 346.86 404.52 343.25 413.00 333.00
C 405.91 326.56 400.25 321.16 391.23 317.77 C 382.21 314.38 370.97 314.19 369.98 302.02 C 368.98 289.86 349.78 301.17 342.00 296.00
C 340.77 301.81 337.72 307.08 337.00 313.00
C 328.00 313.62 318.07 316.94 310.70 321.70 C 303.33 326.45 298.23 331.29 293.75 338.75 C 289.28 346.22 284.45 354.62 284.93 363.93 C 285.40 373.24 279.65 385.58 282.00 395.00 Z"/>
</g>
<g fill="#F8C127" fill-opacity="1.00" stroke="None">
<path d="
M 18.00 362.00 
C 16.12 364.13 15.73 377.40 17.00 380.00
C 32.40 384.15 41.52 404.17 32.00 418.00
C 36.30 421.44 40.48 425.68 44.00 430.00
C 57.98 422.12 79.23 429.22 82.00 446.00
C 88.00 446.00 94.00 446.00 100.00 446.00
C 101.62 434.79 116.66 422.02 128.98 427.03 C 141.29 432.03 150.66 420.79 146.00 409.00 C 141.34 397.21 154.45 382.26 165.00 381.00
C 165.00 374.67 165.00 368.33 165.00 362.00
C 159.04 362.48 153.63 360.71 148.00 360.00
C 147.96 362.33 148.05 364.67 148.00 367.00
C 148.24 370.18 148.46 373.80 148.00 377.00
C 146.32 421.36 90.85 443.33 56.75 418.25 C 22.65 393.17 27.05 339.95 64.00 320.00
C 58.41 315.28 50.14 316.98 44.00 313.00
C 40.56 317.30 36.32 321.48 32.00 325.00
C 37.41 332.40 35.98 340.61 33.77 348.77 C 31.56 356.93 23.09 357.86 18.00 362.00 Z"/>
</g>
<g fill="#A5ADB7" fill-opacity="1.00" stroke="None">
<path d="
M 361.00 347.00 
C 361.22 340.03 350.78 322.05 341.25 332.25 C 331.73 342.46 351.20 352.02 361.00 347.00 Z"/>
</g>
<g fill="#F7D36E" fill-opacity="1.00" stroke="None">
<path d="
M 129.00 355.00 
C 112.28 353.62 98.30 340.26 83.70 334.30 C 69.09 328.35 54.27 347.28 50.93 361.93 C 47.58 376.58 53.65 398.86 69.25 406.75 C 84.86 414.63 104.00 415.22 117.75 402.75 C 131.50 390.28 135.59 372.05 129.00 355.00
M 96.00 347.00 
C 126.87 352.01 117.54 402.95 86.00 396.00 C 54.46 389.05 64.33 341.86 96.00 347.00 Z"/>
</g>
<g fill="#000000" fill-opacity="1.00" stroke="None">
<path d="
M 96.00 347.00 
C 64.33 341.86 54.46 389.05 86.00 396.00 C 117.54 402.95 126.87 352.01 96.00 347.00
M 94.00 363.00 
C 104.45 365.80 97.68 384.90 87.33 379.67 C 76.98 374.44 84.00 360.32 94.00 363.00 Z"/>
</g>
<g fill="#7C6114" fill-opacity="1.00" stroke="None">
<path d="
M 17.00 380.00 
C 15.73 377.40 16.12 364.13 18.00 362.00
C 14.85 364.56 14.69 376.76 17.00 380.00 Z"/>
</g>
<g fill="#000000" fill-opacity="0.02" stroke="None">
<path d="
M 0.00 396.00 
L 0.00 512.00
L 281.00 512.00
C 281.00 506.67 281.00 501.33 281.00 496.00
C 286.67 496.00 292.33 496.00 298.00 496.00
C 298.00 484.67 298.00 473.33 298.00 462.00
C 275.65 463.58 253.36 459.89 231.00 462.00 C 208.64 464.11 196.58 449.88 199.00 428.00 C 201.42 406.12 197.18 383.91 199.00 362.00
C 192.94 362.17 187.25 363.62 181.00 363.00
C 181.00 374.00 181.00 385.00 181.00 396.00
C 174.18 395.51 163.75 394.96 162.00 403.00 C 160.25 411.04 168.86 413.16 172.00 419.00
C 159.88 429.62 149.16 442.33 137.00 453.00
C 132.60 448.58 128.70 440.80 121.08 443.08 C 113.45 445.35 115.00 455.52 115.00 462.00
C 98.67 462.00 82.33 462.00 66.00 462.00
C 66.41 454.86 67.64 444.44 59.00 443.00 C 50.36 441.56 49.77 449.93 43.00 452.00
C 32.71 440.22 20.34 429.83 10.00 418.00
C 14.53 413.29 21.29 410.36 19.32 402.68 C 17.35 395.00 6.92 395.29 0.00 396.00 Z"/>
</g>
<g fill="#000000" fill-opacity="0.09" stroke="None">
<path d="
M 94.00 363.00 
C 84.00 360.32 76.98 374.44 87.33 379.67 C 97.68 384.90 104.45 365.80 94.00 363.00 Z"/>
</g>
<g fill="#725912" fill-opacity="1.00" stroke="None">
<path d="
M 148.00 377.00 
C 148.46 373.80 148.24 370.18 148.00 367.00
C 147.93 370.33 148.13 373.67 148.00 377.00 Z"/>
</g>
<g fill="#64552C" fill-opacity="1.00" stroke="None">
<path d="
M 282.00 395.00 
C 289.56 399.00 304.22 396.50 316.00 397.00 C 327.78 397.50 341.79 396.77 354.00 397.00 C 366.21 397.23 379.68 396.88 392.00 397.00 C 404.32 397.12 416.67 396.91 429.00 397.00
C 429.99 395.78 427.99 393.49 428.00 393.00
C 428.00 394.00 428.00 395.00 428.00 396.00
C 421.03 395.98 413.96 396.03 407.00 396.00 C 400.04 395.97 392.93 396.05 386.00 396.00 C 379.07 395.95 371.85 396.11 365.00 396.00 C 358.15 395.89 350.68 396.25 344.00 396.00 C 337.32 395.75 329.29 396.55 323.00 396.00 C 316.71 395.45 307.43 397.21 302.00 396.00 C 296.57 394.79 284.90 399.15 282.00 395.00 Z"/>
</g>
<g fill="#2A5561" fill-opacity="1.00" stroke="None">
<path d="
M 265.00 396.00 
C 248.33 396.00 231.67 396.00 215.00 396.00
C 217.24 399.20 227.95 396.42 232.00 397.00 C 236.05 397.58 244.92 397.36 249.00 397.00 C 253.08 396.64 262.55 399.01 265.00 396.00 Z"/>
</g>
<g fill="#CBD0D8" fill-opacity="1.00" stroke="None">
<path d="
M 429.00 446.00 
C 429.00 440.33 429.00 434.67 429.00 429.00
C 434.50 429.65 441.33 427.68 446.00 430.00
C 446.00 435.33 446.00 440.67 446.00 446.00
C 450.02 444.12 458.42 448.51 462.00 446.00
C 462.89 442.77 460.47 431.91 462.78 429.78 C 465.09 427.65 477.67 428.10 479.00 430.00
C 479.00 435.33 479.00 440.67 479.00 446.00
C 486.39 446.78 492.65 446.44 495.00 439.00
C 496.50 430.60 493.87 421.46 495.00 413.00
C 401.67 413.00 308.33 413.00 215.00 413.00
C 214.40 419.72 215.80 427.37 215.00 434.00 C 214.20 440.63 216.96 446.33 224.00 446.00 C 231.04 445.67 237.07 446.15 244.00 446.00 C 250.93 445.85 258.11 446.07 265.00 446.00 C 271.89 445.93 278.12 446.04 285.00 446.00 C 291.88 445.96 299.11 446.04 306.00 446.00 C 312.89 445.96 320.16 446.06 327.00 446.00 C 333.84 445.94 340.24 446.13 347.00 446.00 C 353.76 445.87 361.35 446.28 368.00 446.00 C 374.65 445.72 381.62 446.65 388.00 446.00 C 394.38 445.35 403.14 447.37 409.00 446.00 C 414.86 444.63 424.45 449.19 429.00 446.00 Z"/>
</g>
<g fill="#626569" fill-opacity="1.00" stroke="None">
<path d="
M 495.00 439.00 
C 495.94 436.04 496.76 429.52 496.00 426.00 C 495.24 422.48 497.95 415.06 495.00 413.00
C 493.87 421.46 496.50 430.60 495.00 439.00 Z"/>
</g>
<g fill="#55575A" fill-opacity="1.00" stroke="None">
<path d="
M 429.00 446.00 
C 431.31 441.66 429.35 435.16 430.00 430.00
C 435.33 430.00 440.67 430.00 446.00 430.00
C 441.33 427.68 434.50 429.65 429.00 429.00
C 429.00 434.67 429.00 440.33 429.00 446.00 Z"/>
</g>
<g fill="#57595C" fill-opacity="1.00" stroke="None">
<path d="
M 462.00 446.00 
C 464.31 441.66 462.35 435.16 463.00 430.00
C 468.33 430.00 473.67 430.00 479.00 430.00
C 477.67 428.10 465.09 427.65 462.78 429.78 C 460.47 431.91 462.89 442.77 462.00 446.00 Z"/>
</g>
<g fill="#000000" fill-opacity="0.02" stroke="None">
<path d="
M 429.00 512.00 
L 512.00 512.00
L 512.00 441.00
C 507.51 460.21 490.54 463.45 472.00 462.00 C 453.46 460.55 430.91 463.09 412.00 462.00
C 412.00 473.33 412.00 484.67 412.00 496.00
C 417.67 496.00 423.33 496.00 429.00 496.00
C 429.00 501.33 429.00 506.67 429.00 512.00 Z"/>
</g>
<g fill="#51555A" fill-opacity="1.00" stroke="None">
<path d="
M 314.00 463.00 
C 341.33 463.00 368.67 463.00 396.00 463.00
C 396.00 473.67 396.00 484.33 396.00 495.00
C 368.67 495.00 341.33 495.00 314.00 495.00
C 317.04 499.35 330.35 494.66 336.00 496.00 C 341.65 497.34 351.48 495.46 358.00 496.00 C 364.52 496.54 374.34 495.83 381.00 496.00 C 387.66 496.17 397.61 498.36 397.00 490.00 C 396.39 481.64 397.25 475.14 397.00 467.00 C 396.74 458.86 386.46 462.27 380.00 462.00 C 373.54 461.73 363.41 461.71 357.00 462.00 C 350.59 462.29 340.57 460.87 335.00 462.00 C 329.43 463.13 316.94 458.80 314.00 463.00 Z"/>
</g>
<g fill="#A9B1BC" fill-opacity="1.00" stroke="None">
<path d="
M 314.00 495.00 
C 341.33 495.00 368.67 495.00 396.00 495.00
C 396.00 484.33 396.00 473.67 396.00 463.00
C 368.67 463.00 341.33 463.00 314.00 463.00
C 312.24 465.52 314.00 475.78 314.00 479.00 C 314.00 482.22 312.24 492.48 314.00 495.00 Z"/>
</g>
</svg>