<svg xmlns="http://www.w3.org/2000/svg" xmlns:v="https://svgstorm.com"
viewBox = "0 0 512 512"
width="512"
height="512">
<g fill="None" fill-opacity="0.0" stroke="#000000" stroke-opacity="0.01" stroke-width="0.3"><path d="
M 0.00 135.00 
C 7.29 132.49 14.41 129.50 22.00 128.00
C 26.01 117.86 26.24 107.28 32.92 97.92 C 39.61 88.57 31.51 79.49 27.00 70.00
C 42.94 56.83 56.52 37.39 73.00 27.00
C 76.89 31.93 85.04 32.02 89.00 37.00
C 102.15 31.01 113.21 24.14 128.00 22.00
C 128.88 14.02 131.77 7.25 135.00 0.00
L 0.00 0.00
L 0.00 135.00 Z"/>
</g>
<g fill="None" fill-opacity="0.0" stroke="#000000" stroke-opacity="1.00" stroke-width="0.3"><path d="
M 0.00 135.00 
L 0.00 196.00
C 13.74 196.85 24.40 204.23 26.77 217.23 C 29.14 230.22 42.01 238.80 31.69 250.70 C 21.38 262.59 39.17 269.55 45.75 278.25 C 52.34 286.95 63.58 294.08 70.00 303.00
C 78.32 302.25 84.26 291.15 92.69 294.31 C 101.13 297.46 107.44 303.15 117.02 304.98 C 126.60 306.80 130.75 312.71 132.78 323.22 C 134.80 333.73 150.90 329.53 161.00 330.00 C 171.10 330.47 185.51 329.65 196.00 330.00
C 198.41 320.67 199.70 308.89 209.67 306.67 C 219.65 304.46 226.48 299.94 235.25 295.25 C 244.02 290.55 252.14 301.36 261.00 303.00
C 274.50 288.67 288.71 274.45 303.00 261.00
C 301.24 251.76 289.44 243.11 296.25 234.25 C 303.07 225.39 302.21 215.23 307.78 205.78 C 313.34 196.32 328.54 198.14 340.00 198.00 C 351.46 197.86 368.07 198.10 380.00 198.00
C 382.14 209.83 375.21 233.61 384.75 242.25 C 394.30 250.88 414.58 250.61 424.25 242.25 C 433.92 233.88 426.81 209.81 429.00 198.00
C 434.67 198.00 440.33 198.00 446.00 198.00
C 446.33 207.20 443.51 223.25 453.75 228.25 C 464.00 233.25 475.92 232.65 486.69 228.69 C 497.47 224.73 495.01 207.35 495.00 198.00
C 503.29 198.29 509.87 191.03 512.00 184.00
L 512.00 147.00
C 508.86 132.46 496.53 132.42 483.00 133.00 C 469.47 133.58 452.95 132.80 439.00 133.00 C 425.05 133.20 408.88 133.06 395.00 133.00 C 381.12 132.94 365.38 133.37 352.00 133.00 C 338.62 132.63 323.08 135.22 311.98 129.02 C 300.87 122.83 306.54 108.24 297.69 99.31 C 288.85 90.37 300.15 79.45 303.00 70.00
C 287.87 56.35 273.93 40.46 259.00 27.00
C 252.29 30.84 245.50 35.21 238.00 37.00
C 228.80 29.00 216.30 25.17 203.00 22.00
C 201.53 13.69 197.08 8.09 197.00 0.00
L 135.00 0.00
C 131.77 7.25 128.88 14.02 128.00 22.00
C 113.21 24.14 102.15 31.01 89.00 37.00
C 85.04 32.02 76.89 31.93 73.00 27.00
C 56.52 37.39 42.94 56.83 27.00 70.00
C 31.51 79.49 39.61 88.57 32.92 97.92 C 26.24 107.28 26.01 117.86 22.00 128.00
C 14.41 129.50 7.29 132.49 0.00 135.00
M 184.00 17.00 
C 189.17 21.25 186.44 37.27 196.07 36.93 C 205.71 36.59 211.79 43.45 220.07 44.93 C 228.35 46.40 233.97 57.16 242.07 54.07 C 250.18 50.99 255.29 44.26 262.25 51.75 C 269.21 59.24 270.12 61.25 278.25 67.75 C 286.37 74.25 278.41 81.56 276.08 89.08 C 273.74 96.59 282.99 102.21 284.92 110.08 C 286.86 117.94 292.68 124.75 293.33 133.67 C 293.97 142.59 306.70 143.97 314.00 146.00
C 314.00 158.67 314.00 171.33 314.00 184.00
C 304.03 185.80 294.59 189.09 293.01 199.01 C 291.43 208.93 286.78 217.20 282.69 225.69 C 278.61 234.19 271.65 240.91 279.77 249.23 C 287.89 257.55 275.94 264.93 270.25 270.25 C 264.56 275.56 258.41 288.05 249.92 280.08 C 241.44 272.10 234.29 278.22 225.77 282.77 C 217.25 287.32 209.86 291.05 199.78 292.78 C 189.69 294.51 185.51 303.38 184.00 314.00
C 171.33 314.00 158.67 314.00 146.00 314.00
C 145.95 300.28 138.26 294.99 127.32 291.68 C 116.38 288.36 107.17 286.64 98.25 278.75 C 89.33 270.85 78.78 286.67 70.75 281.25 C 62.73 275.82 56.75 267.21 49.75 260.25 C 42.75 253.28 59.22 241.82 52.08 232.92 C 44.93 224.03 41.75 215.12 39.02 203.98 C 36.30 192.83 30.37 185.07 17.00 184.00
C 14.18 180.57 15.97 169.65 16.00 165.00 C 16.03 160.35 14.09 149.27 17.00 146.00
C 20.65 141.89 31.62 143.49 36.00 140.00
C 39.16 127.95 40.00 115.40 47.77 104.77 C 55.54 94.14 54.78 84.13 47.00 73.00
C 56.00 64.83 64.88 55.96 73.00 47.00
C 84.14 54.86 94.07 55.47 104.70 47.70 C 115.32 39.92 127.95 39.27 140.00 36.00
C 141.64 29.57 144.36 23.46 146.00 17.00
C 149.31 14.06 160.35 16.06 165.00 16.00 C 169.65 15.94 180.61 14.22 184.00 17.00
M 495.00 181.00 
C 490.43 185.57 478.93 180.66 472.00 182.00 C 465.07 183.34 454.69 181.39 447.00 182.00 C 439.31 182.61 430.03 181.71 422.00 182.00 C 413.97 182.29 405.17 181.83 397.00 182.00 C 388.83 182.17 380.19 181.83 372.00 182.00 C 363.81 182.17 355.11 181.72 347.00 182.00 C 338.89 182.28 328.49 184.09 330.00 174.00 C 331.51 163.91 328.87 158.65 330.00 149.00
C 385.00 149.00 440.00 149.00 495.00 149.00
C 497.77 150.94 495.87 161.48 496.00 165.00 C 496.13 168.52 497.42 178.58 495.00 181.00
M 413.00 198.00 
C 413.00 209.00 413.00 220.00 413.00 231.00
C 407.33 231.00 401.67 231.00 396.00 231.00
C 396.00 220.00 396.00 209.00 396.00 198.00
C 401.67 198.00 407.33 198.00 413.00 198.00
M 463.00 215.00 
C 460.99 213.59 461.05 199.36 463.00 198.00
C 466.58 195.49 474.98 199.88 479.00 198.00
C 479.00 203.67 479.00 209.33 479.00 215.00
C 473.67 215.00 468.33 215.00 463.00 215.00 Z"/>
</g>
<g fill="None" fill-opacity="0.0" stroke="#000000" stroke-opacity="0.01" stroke-width="0.3"><path d="
M 512.00 147.00 
L 512.00 0.00
L 197.00 0.00
C 197.08 8.09 201.53 13.69 203.00 22.00
C 216.30 25.17 228.80 29.00 238.00 37.00
C 245.50 35.21 252.29 30.84 259.00 27.00
C 273.93 40.46 287.87 56.35 303.00 70.00
C 300.15 79.45 288.85 90.37 297.69 99.31 C 306.54 108.24 300.87 122.83 311.98 129.02 C 323.08 135.22 338.62 132.63 352.00 133.00 C 365.38 133.37 381.12 132.94 395.00 133.00 C 408.88 133.06 425.05 133.20 439.00 133.00 C 452.95 132.80 469.47 133.58 483.00 133.00 C 496.53 132.42 508.86 132.46 512.00 147.00 Z"/>
</g>
<g fill="None" fill-opacity="0.0" stroke="#756333" stroke-opacity="1.00" stroke-width="0.3"><path d="
M 146.00 17.00 
C 151.73 18.07 159.48 15.58 165.00 17.00 C 170.52 18.42 179.22 14.28 184.00 17.00
C 180.61 14.22 169.65 15.94 165.00 16.00 C 160.35 16.06 149.31 14.06 146.00 17.00 Z"/>
</g>
<g fill="None" fill-opacity="0.0" stroke="#F8D46E" stroke-opacity="1.00" stroke-width="0.3"><path d="
M 17.00 146.00 
C 18.07 151.73 15.58 159.48 17.00 165.00 C 18.42 170.52 14.28 179.22 17.00 184.00
C 30.37 185.07 36.30 192.83 39.02 203.98 C 41.75 215.12 44.93 224.03 52.08 232.92 C 59.22 241.82 42.75 253.28 49.75 260.25 C 56.75 267.21 62.73 275.82 70.75 281.25 C 78.78 286.67 89.33 270.85 98.25 278.75 C 107.17 286.64 116.38 288.36 127.32 291.68 C 138.26 294.99 145.95 300.28 146.00 314.00
C 158.67 314.00 171.33 314.00 184.00 314.00
C 185.51 303.38 189.69 294.51 199.78 292.78 C 209.86 291.05 217.25 287.32 225.77 282.77 C 234.29 278.22 241.44 272.10 249.92 280.08 C 258.41 288.05 264.56 275.56 270.25 270.25 C 275.94 264.93 287.89 257.55 279.77 249.23 C 271.65 240.91 278.61 234.19 282.69 225.69 C 286.78 217.20 291.43 208.93 293.01 199.01 C 294.59 189.09 304.03 185.80 314.00 184.00
C 314.00 171.33 314.00 158.67 314.00 146.00
C 306.70 143.97 293.97 142.59 293.33 133.67 C 292.68 124.75 286.86 117.94 284.92 110.08 C 282.99 102.21 273.74 96.59 276.08 89.08 C 278.41 81.56 286.37 74.25 278.25 67.75 C 270.12 61.25 269.21 59.24 262.25 51.75 C 255.29 44.26 250.18 50.99 242.07 54.07 C 233.97 57.16 228.35 46.40 220.07 44.93 C 211.79 43.45 205.71 36.59 196.07 36.93 C 186.44 37.27 189.17 21.25 184.00 17.00
C 179.22 14.28 170.52 18.42 165.00 17.00 C 159.48 15.58 151.73 18.07 146.00 17.00
C 144.36 23.46 141.64 29.57 140.00 36.00
C 127.95 39.27 115.32 39.92 104.70 47.70 C 94.07 55.47 84.14 54.86 73.00 47.00
C 64.88 55.96 56.00 64.83 47.00 73.00
C 54.78 84.13 55.54 94.14 47.77 104.77 C 40.00 115.40 39.16 127.95 36.00 140.00
C 31.62 143.49 20.65 141.89 17.00 146.00
M 79.00 88.00 
C 81.78 84.75 84.80 81.74 88.00 79.00
C 134.62 39.16 206.54 40.47 249.25 85.75 C 291.96 131.04 290.56 203.12 246.75 246.75 C 202.94 290.38 132.02 292.12 86.25 249.75 C 40.48 207.38 39.11 134.69 79.00 88.00 Z"/>
</g>
<g fill="None" fill-opacity="0.0" stroke="#000000" stroke-opacity="1.00" stroke-width="0.3"><path d="
M 88.00 79.00 
C 85.08 81.92 81.87 85.13 79.00 88.00
C 39.11 134.69 40.48 207.38 86.25 249.75 C 132.02 292.12 202.94 290.38 246.75 246.75 C 290.56 203.12 291.96 131.04 249.25 85.75 C 206.54 40.47 134.62 39.16 88.00 79.00
M 195.00 124.00 
C 175.33 124.00 155.67 124.00 136.00 124.00
C 136.30 106.59 143.32 95.57 149.77 79.77 C 156.22 63.97 173.58 63.35 180.75 79.25 C 187.93 95.14 192.72 106.94 195.00 124.00
M 135.00 71.00 
C 127.31 87.82 121.04 105.38 119.00 124.00
C 104.33 124.00 89.67 124.00 75.00 124.00
C 86.45 99.39 108.99 78.49 135.00 71.00
M 255.00 124.00 
C 242.97 124.03 229.92 123.96 218.00 124.00 C 206.08 124.04 210.29 106.52 206.02 97.98 C 201.76 89.43 200.55 79.14 195.00 71.00
C 220.93 78.26 244.01 99.27 255.00 124.00
M 117.00 190.00 
C 101.00 190.00 85.00 190.00 69.00 190.00
C 68.99 181.52 63.84 170.67 66.00 162.00 C 68.16 153.33 63.81 141.09 75.00 140.00 C 86.20 138.91 93.61 141.97 106.00 140.00 C 118.39 138.03 116.78 148.21 116.00 159.00 C 115.22 169.79 116.12 179.67 117.00 190.00
M 197.00 140.00 
C 198.43 156.40 198.43 173.59 197.00 190.00
C 175.67 190.00 154.33 190.00 133.00 190.00
C 133.81 181.58 130.70 170.15 132.00 162.00 C 133.30 153.85 129.12 140.17 139.00 140.00 C 148.88 139.83 158.22 140.09 168.00 140.00 C 177.78 139.91 187.25 140.07 197.00 140.00
M 261.00 140.00 
C 263.58 150.52 263.93 159.60 264.00 171.00 C 264.07 182.40 262.09 192.39 249.00 190.00 C 235.91 187.61 226.74 191.79 214.00 190.00
C 214.69 173.00 214.69 157.02 214.00 140.00
C 229.67 140.00 245.33 140.00 261.00 140.00
M 119.00 207.00 
C 122.30 210.64 120.07 220.43 122.78 225.22 C 125.49 230.02 125.07 238.04 127.93 243.07 C 130.78 248.11 132.39 253.91 135.00 259.00
C 109.61 252.25 86.43 231.24 76.00 207.00
C 77.89 203.91 92.89 205.93 97.00 206.00 C 101.11 206.07 116.23 203.95 119.00 207.00
M 195.00 207.00 
C 192.78 216.77 190.16 232.09 185.69 240.69 C 181.23 249.30 176.59 263.00 165.99 263.99 C 155.39 264.98 148.05 250.36 145.08 241.92 C 142.10 233.49 134.51 217.65 136.00 208.00
C 136.58 204.24 147.11 206.30 153.00 206.00 C 158.89 205.70 167.61 205.93 174.00 206.00 C 180.39 206.07 189.33 205.12 195.00 207.00
M 254.00 208.00 
C 254.08 216.30 243.91 222.71 239.75 229.75 C 235.60 236.79 227.14 242.45 220.30 247.30 C 213.47 252.16 203.51 257.52 195.00 259.00
C 204.39 242.99 207.79 224.33 212.00 207.00
C 215.96 203.58 228.80 206.61 234.00 206.00 C 239.20 205.39 253.97 204.89 254.00 208.00 Z"/>
</g>
<g fill="None" fill-opacity="0.0" stroke="#67D3F1" stroke-opacity="1.00" stroke-width="0.3"><path d="
M 195.00 124.00 
C 192.72 106.94 187.93 95.14 180.75 79.25 C 173.58 63.35 156.22 63.97 149.77 79.77 C 143.32 95.57 136.30 106.59 136.00 124.00
C 155.67 124.00 175.33 124.00 195.00 124.00 Z"/>
</g>
<g fill="None" fill-opacity="0.0" stroke="#67D2F0" stroke-opacity="1.00" stroke-width="0.3"><path d="
M 135.00 71.00 
C 108.99 78.49 86.45 99.39 75.00 124.00
C 89.67 124.00 104.33 124.00 119.00 124.00
C 121.04 105.38 127.31 87.82 135.00 71.00 Z"/>
</g>
<g fill="None" fill-opacity="0.0" stroke="#67D3F0" stroke-opacity="1.00" stroke-width="0.3"><path d="
M 255.00 124.00 
C 244.01 99.27 220.93 78.26 195.00 71.00
C 200.55 79.14 201.76 89.43 206.02 97.98 C 210.29 106.52 206.08 124.04 218.00 124.00 C 229.92 123.96 242.97 124.03 255.00 124.00 Z"/>
</g>
<g fill="None" fill-opacity="0.0" stroke="#7D6A37" stroke-opacity="1.00" stroke-width="0.3"><path d="
M 79.00 88.00 
C 81.87 85.13 85.08 81.92 88.00 79.00
C 84.80 81.74 81.78 84.75 79.00 88.00 Z"/>
</g>
<g fill="None" fill-opacity="0.0" stroke="#67D2F0" stroke-opacity="1.00" stroke-width="0.3"><path d="
M 117.00 190.00 
C 116.12 179.67 115.22 169.79 116.00 159.00 C 116.78 148.21 118.39 138.03 106.00 140.00 C 93.61 141.97 86.20 138.91 75.00 140.00 C 63.81 141.09 68.16 153.33 66.00 162.00 C 63.84 170.67 68.99 181.52 69.00 190.00
C 85.00 190.00 101.00 190.00 117.00 190.00 Z"/>
</g>
<g fill="None" fill-opacity="0.0" stroke="#67D3F0" stroke-opacity="1.00" stroke-width="0.3"><path d="
M 197.00 140.00 
C 187.25 140.07 177.78 139.91 168.00 140.00 C 158.22 140.09 148.88 139.83 139.00 140.00 C 129.12 140.17 133.30 153.85 132.00 162.00 C 130.70 170.15 133.81 181.58 133.00 190.00
C 154.33 190.00 175.67 190.00 197.00 190.00
C 198.43 173.59 198.43 156.40 197.00 140.00 Z"/>
</g>
<g fill="None" fill-opacity="0.0" stroke="#67D2F0" stroke-opacity="1.00" stroke-width="0.3"><path d="
M 261.00 140.00 
C 245.33 140.00 229.67 140.00 214.00 140.00
C 214.69 157.02 214.69 173.00 214.00 190.00
C 226.74 191.79 235.91 187.61 249.00 190.00 C 262.09 192.39 264.07 182.40 264.00 171.00 C 263.93 159.60 263.58 150.52 261.00 140.00 Z"/>
</g>
<g fill="None" fill-opacity="0.0" stroke="#7A6835" stroke-opacity="1.00" stroke-width="0.3"><path d="
M 17.00 184.00 
C 14.28 179.22 18.42 170.52 17.00 165.00 C 15.58 159.48 18.07 151.73 17.00 146.00
C 14.09 149.27 16.03 160.35 16.00 165.00 C 15.97 169.65 14.18 180.57 17.00 184.00 Z"/>
</g>
<g fill="None" fill-opacity="0.0" stroke="#F8D46E" stroke-opacity="1.00" stroke-width="0.3"><path d="
M 495.00 181.00 
C 497.51 177.42 493.69 169.42 495.00 165.00 C 496.31 160.58 494.02 153.65 495.00 149.00
C 440.00 149.00 385.00 149.00 330.00 149.00
C 328.87 158.65 331.51 163.91 330.00 174.00 C 328.49 184.09 338.89 182.28 347.00 182.00 C 355.11 181.72 363.81 182.17 372.00 182.00 C 380.19 181.83 388.83 182.17 397.00 182.00 C 405.17 181.83 413.97 182.29 422.00 182.00 C 430.03 181.71 439.31 182.61 447.00 182.00 C 454.69 181.39 465.07 183.34 472.00 182.00 C 478.93 180.66 490.43 185.57 495.00 181.00 Z"/>
</g>
<g fill="None" fill-opacity="0.0" stroke="#7A6936" stroke-opacity="1.00" stroke-width="0.3"><path d="
M 495.00 181.00 
C 497.42 178.58 496.13 168.52 496.00 165.00 C 495.87 161.48 497.77 150.94 495.00 149.00
C 494.02 153.65 496.31 160.58 495.00 165.00 C 493.69 169.42 497.51 177.42 495.00 181.00 Z"/>
</g>
<g fill="None" fill-opacity="0.0" stroke="#000000" stroke-opacity="0.01" stroke-width="0.3"><path d="
M 0.00 196.00 
L 0.00 512.00
L 42.00 512.00
C 42.00 506.67 42.00 501.33 42.00 496.00
C 53.00 496.00 64.00 496.00 75.00 496.00
C 75.00 490.33 75.00 484.67 75.00 479.00
C 58.99 477.05 29.53 485.25 20.75 467.25 C 11.96 449.26 18.19 423.64 17.00 404.00 C 15.81 384.36 13.63 365.84 23.75 354.75 C 33.87 343.66 53.75 347.03 73.00 347.00 C 92.25 346.97 119.87 346.62 139.00 347.00 C 158.13 347.38 179.85 343.12 190.77 354.24 C 201.69 365.35 198.87 383.38 198.00 403.00 C 197.13 422.62 202.68 447.84 194.23 466.23 C 185.77 484.62 156.39 477.70 140.00 479.00
C 140.00 484.67 140.00 490.33 140.00 496.00
C 151.00 496.00 162.00 496.00 173.00 496.00
C 173.00 501.33 173.00 506.67 173.00 512.00
L 339.00 512.00
C 339.00 506.67 339.00 501.33 339.00 496.00
C 350.00 496.00 361.00 496.00 372.00 496.00
C 372.00 490.33 372.00 484.67 372.00 479.00
C 355.77 477.55 327.02 484.66 318.08 466.92 C 309.15 449.18 314.86 424.16 314.00 405.00 C 313.14 385.84 310.07 365.26 321.75 353.75 C 333.44 342.24 353.66 347.86 373.00 347.00 C 392.34 346.14 419.63 347.23 439.00 347.00 C 458.37 346.77 478.02 343.81 488.25 354.75 C 498.47 365.69 496.20 384.45 495.00 404.00 C 493.80 423.55 500.01 448.40 491.69 466.69 C 483.38 484.99 453.00 477.34 437.00 479.00
C 437.00 484.67 437.00 490.33 437.00 496.00
C 448.00 496.00 459.00 496.00 470.00 496.00
C 470.00 501.33 470.00 506.67 470.00 512.00
L 512.00 512.00
L 512.00 184.00
C 509.87 191.03 503.29 198.29 495.00 198.00
C 495.01 207.35 497.47 224.73 486.69 228.69 C 475.92 232.65 464.00 233.25 453.75 228.25 C 443.51 223.25 446.33 207.20 446.00 198.00
C 440.33 198.00 434.67 198.00 429.00 198.00
C 426.81 209.81 433.92 233.88 424.25 242.25 C 414.58 250.61 394.30 250.88 384.75 242.25 C 375.21 233.61 382.14 209.83 380.00 198.00
C 368.07 198.10 351.46 197.86 340.00 198.00 C 328.54 198.14 313.34 196.32 307.78 205.78 C 302.21 215.23 303.07 225.39 296.25 234.25 C 289.44 243.11 301.24 251.76 303.00 261.00
C 288.71 274.45 274.50 288.67 261.00 303.00
C 252.14 301.36 244.02 290.55 235.25 295.25 C 226.48 299.94 219.65 304.46 209.67 306.67 C 199.70 308.89 198.41 320.67 196.00 330.00
C 185.51 329.65 171.10 330.47 161.00 330.00 C 150.90 329.53 134.80 333.73 132.78 323.22 C 130.75 312.71 126.60 306.80 117.02 304.98 C 107.44 303.15 101.13 297.46 92.69 294.31 C 84.26 291.15 78.32 302.25 70.00 303.00
C 63.58 294.08 52.34 286.95 45.75 278.25 C 39.17 269.55 21.38 262.59 31.69 250.70 C 42.01 238.80 29.14 230.22 26.77 217.23 C 24.40 204.23 13.74 196.85 0.00 196.00
M 248.00 322.00 
C 248.00 355.33 248.00 388.67 248.00 422.00
C 238.09 423.21 232.32 420.38 222.00 422.00 C 211.68 423.62 213.67 412.05 214.00 404.00
C 219.67 404.00 225.33 404.00 231.00 404.00
C 231.00 376.67 231.00 349.33 231.00 322.00
C 236.67 322.00 242.33 322.00 248.00 322.00
M 281.00 322.00 
C 281.00 349.33 281.00 376.67 281.00 404.00
C 286.67 404.00 292.33 404.00 298.00 404.00
C 298.33 412.06 300.34 423.60 290.00 422.00 C 279.66 420.40 273.92 423.20 264.00 422.00
C 264.00 388.67 264.00 355.33 264.00 322.00
C 269.67 322.00 275.33 322.00 281.00 322.00 Z"/>
</g>
<g fill="None" fill-opacity="0.0" stroke="#F5E1A1" stroke-opacity="1.00" stroke-width="0.3"><path d="
M 413.00 198.00 
C 407.33 198.00 401.67 198.00 396.00 198.00
C 396.00 209.00 396.00 220.00 396.00 231.00
C 401.67 231.00 407.33 231.00 413.00 231.00
C 413.00 220.00 413.00 209.00 413.00 198.00 Z"/>
</g>
<g fill="None" fill-opacity="0.0" stroke="#877C58" stroke-opacity="1.00" stroke-width="0.3"><path d="
M 463.00 215.00 
C 463.00 209.33 463.00 203.67 463.00 198.00
C 461.05 199.36 460.99 213.59 463.00 215.00 Z"/>
</g>
<g fill="None" fill-opacity="0.0" stroke="#F7E3A2" stroke-opacity="1.00" stroke-width="0.3"><path d="
M 463.00 215.00 
C 468.33 215.00 473.67 215.00 479.00 215.00
C 479.00 209.33 479.00 203.67 479.00 198.00
C 474.98 199.88 466.58 195.49 463.00 198.00
C 463.00 203.67 463.00 209.33 463.00 215.00 Z"/>
</g>
<g fill="None" fill-opacity="0.0" stroke="#377181" stroke-opacity="1.00" stroke-width="0.3"><path d="
M 76.00 207.00 
C 90.33 207.00 104.67 207.00 119.00 207.00
C 116.23 203.95 101.11 206.07 97.00 206.00 C 92.89 205.93 77.89 203.91 76.00 207.00 Z"/>
</g>
<g fill="None" fill-opacity="0.0" stroke="#377080" stroke-opacity="1.00" stroke-width="0.3"><path d="
M 136.00 208.00 
C 138.65 204.01 149.92 208.18 155.00 207.00 C 160.08 205.82 169.16 207.61 175.00 207.00 C 180.84 206.39 188.95 207.46 195.00 207.00
C 189.33 205.12 180.39 206.07 174.00 206.00 C 167.61 205.93 158.89 205.70 153.00 206.00 C 147.11 206.30 136.58 204.24 136.00 208.00 Z"/>
</g>
<g fill="None" fill-opacity="0.0" stroke="#387282" stroke-opacity="1.00" stroke-width="0.3"><path d="
M 212.00 207.00 
C 215.55 204.87 228.99 207.14 233.00 207.00 C 237.01 206.86 252.22 205.01 254.00 208.00
C 253.97 204.89 239.20 205.39 234.00 206.00 C 228.80 206.61 215.96 203.58 212.00 207.00 Z"/>
</g>
<g fill="None" fill-opacity="0.0" stroke="#67D3F1" stroke-opacity="1.00" stroke-width="0.3"><path d="
M 119.00 207.00 
C 104.67 207.00 90.33 207.00 76.00 207.00
C 86.43 231.24 109.61 252.25 135.00 259.00
C 132.39 253.91 130.78 248.11 127.93 243.07 C 125.07 238.04 125.49 230.02 122.78 225.22 C 120.07 220.43 122.30 210.64 119.00 207.00 Z"/>
</g>
<g fill="None" fill-opacity="0.0" stroke="#68D4F2" stroke-opacity="1.00" stroke-width="0.3"><path d="
M 136.00 208.00 
C 134.51 217.65 142.10 233.49 145.08 241.92 C 148.05 250.36 155.39 264.98 165.99 263.99 C 176.59 263.00 181.23 249.30 185.69 240.69 C 190.16 232.09 192.78 216.77 195.00 207.00
C 188.95 207.46 180.84 206.39 175.00 207.00 C 169.16 207.61 160.08 205.82 155.00 207.00 C 149.92 208.18 138.65 204.01 136.00 208.00 Z"/>
</g>
<g fill="None" fill-opacity="0.0" stroke="#67D3F1" stroke-opacity="1.00" stroke-width="0.3"><path d="
M 254.00 208.00 
C 252.22 205.01 237.01 206.86 233.00 207.00 C 228.99 207.14 215.55 204.87 212.00 207.00
C 207.79 224.33 204.39 242.99 195.00 259.00
C 203.51 257.52 213.47 252.16 220.30 247.30 C 227.14 242.45 235.60 236.79 239.75 229.75 C 243.91 222.71 254.08 216.30 254.00 208.00 Z"/>
</g>
<g fill="None" fill-opacity="0.0" stroke="#000000" stroke-opacity="0.95" stroke-width="0.3"><path d="
M 248.00 322.00 
C 242.33 322.00 236.67 322.00 231.00 322.00
C 231.00 349.33 231.00 376.67 231.00 404.00
C 225.33 404.00 219.67 404.00 214.00 404.00
C 213.67 412.05 211.68 423.62 222.00 422.00 C 232.32 420.38 238.09 423.21 248.00 422.00
C 248.00 388.67 248.00 355.33 248.00 322.00 Z"/>
</g>
<g fill="None" fill-opacity="0.0" stroke="#000000" stroke-opacity="0.95" stroke-width="0.3"><path d="
M 281.00 322.00 
C 275.33 322.00 269.67 322.00 264.00 322.00
C 264.00 355.33 264.00 388.67 264.00 422.00
C 273.92 423.20 279.66 420.40 290.00 422.00 C 300.34 423.60 298.33 412.06 298.00 404.00
C 292.33 404.00 286.67 404.00 281.00 404.00
C 281.00 376.67 281.00 349.33 281.00 322.00 Z"/>
</g>
<g fill="None" fill-opacity="0.0" stroke="#000000" stroke-opacity="1.00" stroke-width="0.3"><path d="
M 42.00 512.00 
L 173.00 512.00
C 173.00 506.67 173.00 501.33 173.00 496.00
C 162.00 496.00 151.00 496.00 140.00 496.00
C 140.00 490.33 140.00 484.67 140.00 479.00
C 156.39 477.70 185.77 484.62 194.23 466.23 C 202.68 447.84 197.13 422.62 198.00 403.00 C 198.87 383.38 201.69 365.35 190.77 354.24 C 179.85 343.12 158.13 347.38 139.00 347.00 C 119.87 346.62 92.25 346.97 73.00 347.00 C 53.75 347.03 33.87 343.66 23.75 354.75 C 13.63 365.84 15.81 384.36 17.00 404.00 C 18.19 423.64 11.96 449.26 20.75 467.25 C 29.53 485.25 58.99 477.05 75.00 479.00
C 75.00 484.67 75.00 490.33 75.00 496.00
C 64.00 496.00 53.00 496.00 42.00 496.00
C 42.00 501.33 42.00 506.67 42.00 512.00
M 181.00 370.00 
C 183.59 378.54 181.90 389.49 182.00 399.00 C 182.10 408.51 182.86 419.46 182.00 429.00
C 178.10 433.05 168.01 428.91 162.00 430.00 C 155.99 431.09 146.58 429.53 140.00 430.00 C 133.42 430.47 125.80 429.89 119.00 430.00 C 112.20 430.11 103.75 430.15 97.00 430.00 C 90.25 429.85 82.40 430.55 76.00 430.00 C 69.60 429.45 59.61 431.25 54.00 430.00 C 48.39 428.75 35.97 433.25 33.00 429.00
C 29.98 424.68 34.17 414.53 33.00 409.00 C 31.83 403.47 33.11 394.99 33.00 389.00 C 32.89 383.01 31.95 375.24 33.33 369.33 C 34.71 363.42 41.34 362.93 47.00 363.00 C 52.66 363.07 60.68 362.90 67.00 363.00 C 73.32 363.10 80.24 362.81 87.00 363.00 C 93.76 363.19 99.74 362.60 107.00 363.00 C 114.26 363.40 118.85 362.11 127.00 363.00 C 135.15 363.89 136.96 361.04 147.00 363.00 C 157.04 364.96 177.17 357.37 181.00 370.00
M 174.00 462.00 
C 160.66 465.30 144.35 462.65 130.00 463.00 C 115.65 463.35 99.33 463.91 85.00 463.00 C 70.67 462.09 53.12 466.15 40.00 462.00
C 32.56 459.65 32.22 453.39 33.00 446.00
C 82.67 446.00 132.33 446.00 182.00 446.00
C 182.57 452.19 182.21 462.15 174.00 462.00
M 124.00 495.00 
C 122.20 497.57 111.32 496.13 108.00 496.00 C 104.68 495.87 92.91 497.73 91.00 495.00
C 88.49 491.42 92.88 483.02 91.00 479.00
C 102.00 479.00 113.00 479.00 124.00 479.00
C 124.00 484.33 124.00 489.67 124.00 495.00 Z"/>
</g>
<g fill="None" fill-opacity="0.0" stroke="#000000" stroke-opacity="1.00" stroke-width="0.3"><path d="
M 339.00 512.00 
L 470.00 512.00
C 470.00 506.67 470.00 501.33 470.00 496.00
C 459.00 496.00 448.00 496.00 437.00 496.00
C 437.00 490.33 437.00 484.67 437.00 479.00
C 453.00 477.34 483.38 484.99 491.69 466.69 C 500.01 448.40 493.80 423.55 495.00 404.00 C 496.20 384.45 498.47 365.69 488.25 354.75 C 478.02 343.81 458.37 346.77 439.00 347.00 C 419.63 347.23 392.34 346.14 373.00 347.00 C 353.66 347.86 333.44 342.24 321.75 353.75 C 310.07 365.26 313.14 385.84 314.00 405.00 C 314.86 424.16 309.15 449.18 318.08 466.92 C 327.02 484.66 355.77 477.55 372.00 479.00
C 372.00 484.67 372.00 490.33 372.00 496.00
C 361.00 496.00 350.00 496.00 339.00 496.00
C 339.00 501.33 339.00 506.67 339.00 512.00
M 479.00 429.00 
C 476.08 433.17 464.60 428.85 459.00 430.00 C 453.40 431.15 443.40 429.50 437.00 430.00 C 430.60 430.50 422.76 429.88 416.00 430.00 C 409.24 430.12 400.81 430.13 394.00 430.00 C 387.19 429.87 379.60 430.52 373.00 430.00 C 366.40 429.48 357.05 431.19 351.00 430.00 C 344.95 428.81 333.96 433.12 330.00 429.00
C 329.14 419.45 329.91 408.51 330.00 399.00 C 330.09 389.49 328.43 378.48 331.00 370.00
C 334.76 357.62 354.11 364.81 364.00 363.00 C 373.89 361.19 375.91 363.82 384.00 363.00 C 392.09 362.18 396.76 363.37 404.00 363.00 C 411.24 362.63 417.24 363.17 424.00 363.00 C 430.76 362.83 437.65 363.09 444.00 363.00 C 450.35 362.91 458.27 363.07 464.00 363.00 C 469.73 362.93 476.46 362.94 478.30 368.70 C 480.15 374.45 479.19 382.00 479.00 388.00 C 478.81 394.00 480.32 402.41 479.00 408.00 C 477.68 413.59 482.12 424.55 479.00 429.00
M 472.00 462.00 
C 458.97 466.12 442.29 462.33 428.00 463.00 C 413.71 463.67 396.35 463.75 382.00 463.00 C 367.65 462.25 350.10 466.14 337.00 462.00
C 329.97 459.78 329.26 453.05 330.00 446.00
C 379.67 446.00 429.33 446.00 479.00 446.00
C 479.36 452.06 479.97 461.26 472.00 462.00
M 421.00 495.00 
C 419.20 497.57 408.32 496.13 405.00 496.00 C 401.68 495.87 389.91 497.73 388.00 495.00
C 385.49 491.42 389.88 483.02 388.00 479.00
C 399.00 479.00 410.00 479.00 421.00 479.00
C 421.00 484.33 421.00 489.67 421.00 495.00 Z"/>
</g>
<g fill="None" fill-opacity="0.0" stroke="#68D4F2" stroke-opacity="1.00" stroke-width="0.3"><path d="
M 33.00 429.00 
C 82.33 429.00 131.67 429.00 181.00 429.00
C 179.25 409.75 184.22 389.03 181.00 370.00
C 177.17 357.37 157.04 364.96 147.00 363.00 C 136.96 361.04 135.15 363.89 127.00 363.00 C 118.85 362.11 114.26 363.40 107.00 363.00 C 99.74 362.60 93.76 363.19 87.00 363.00 C 80.24 362.81 73.32 363.10 67.00 363.00 C 60.68 362.90 52.66 363.07 47.00 363.00 C 41.34 362.93 34.71 363.42 33.33 369.33 C 31.95 375.24 32.89 383.01 33.00 389.00 C 33.11 394.99 31.83 403.47 33.00 409.00 C 34.17 414.53 29.98 424.68 33.00 429.00 Z"/>
</g>
<g fill="None" fill-opacity="0.0" stroke="#68D4F2" stroke-opacity="1.00" stroke-width="0.3"><path d="
M 331.00 370.00 
C 327.78 389.03 332.74 409.75 331.00 429.00
C 380.33 428.93 429.67 429.05 479.00 429.00
C 482.12 424.55 477.68 413.59 479.00 408.00 C 480.32 402.41 478.81 394.00 479.00 388.00 C 479.19 382.00 480.15 374.45 478.30 368.70 C 476.46 362.94 469.73 362.93 464.00 363.00 C 458.27 363.07 450.35 362.91 444.00 363.00 C 437.65 363.09 430.76 362.83 424.00 363.00 C 417.24 363.17 411.24 362.63 404.00 363.00 C 396.76 363.37 392.09 362.18 384.00 363.00 C 375.91 363.82 373.89 361.19 364.00 363.00 C 354.11 364.81 334.76 357.62 331.00 370.00 Z"/>
</g>
<g fill="None" fill-opacity="0.0" stroke="#468FA4" stroke-opacity="1.00" stroke-width="0.3"><path d="
M 181.00 429.00 
C 181.50 429.00 182.00 429.00 182.00 429.00
C 182.86 419.46 182.10 408.51 182.00 399.00 C 181.90 389.49 183.59 378.54 181.00 370.00
C 184.22 389.03 179.25 409.75 181.00 429.00 Z"/>
</g>
<g fill="None" fill-opacity="0.0" stroke="#468FA4" stroke-opacity="1.00" stroke-width="0.3"><path d="
M 330.00 429.00 
C 330.00 429.04 331.00 429.00 331.00 429.00
C 332.74 409.75 327.78 389.03 331.00 370.00
C 328.43 378.48 330.09 389.49 330.00 399.00 C 329.91 408.51 329.14 419.45 330.00 429.00 Z"/>
</g>
<g fill="None" fill-opacity="0.0" stroke="#295561" stroke-opacity="1.00" stroke-width="0.3"><path d="
M 182.00 429.00 
C 182.00 429.00 181.50 429.00 181.00 429.00
C 131.67 429.00 82.33 429.00 33.00 429.00
C 35.97 433.25 48.39 428.75 54.00 430.00 C 59.61 431.25 69.60 429.45 76.00 430.00 C 82.40 430.55 90.25 429.85 97.00 430.00 C 103.75 430.15 112.20 430.11 119.00 430.00 C 125.80 429.89 133.42 430.47 140.00 430.00 C 146.58 429.53 155.99 431.09 162.00 430.00 C 168.01 428.91 178.10 433.05 182.00 429.00 Z"/>
</g>
<g fill="None" fill-opacity="0.0" stroke="#295561" stroke-opacity="1.00" stroke-width="0.3"><path d="
M 479.00 429.00 
C 429.67 429.05 380.33 428.93 331.00 429.00
C 331.00 429.00 330.00 429.04 330.00 429.00
C 333.96 433.12 344.95 428.81 351.00 430.00 C 357.05 431.19 366.40 429.48 373.00 430.00 C 379.60 430.52 387.19 429.87 394.00 430.00 C 400.81 430.13 409.24 430.12 416.00 430.00 C 422.76 429.88 430.60 430.50 437.00 430.00 C 443.40 429.50 453.40 431.15 459.00 430.00 C 464.60 428.85 476.08 433.17 479.00 429.00 Z"/>
</g>
<g fill="None" fill-opacity="0.0" stroke="#CBD0D8" stroke-opacity="1.00" stroke-width="0.3"><path d="
M 40.00 462.00 
C 54.23 464.55 69.45 461.23 84.00 462.00 C 98.55 462.77 114.33 462.39 129.00 462.00 C 143.67 461.61 159.44 463.81 174.00 462.00
C 182.21 462.15 182.57 452.19 182.00 446.00
C 132.33 446.00 82.67 446.00 33.00 446.00
C 32.22 453.39 32.56 459.65 40.00 462.00 Z"/>
</g>
<g fill="None" fill-opacity="0.0" stroke="#CBD0D8" stroke-opacity="1.00" stroke-width="0.3"><path d="
M 337.00 462.00 
C 351.33 464.57 367.40 461.30 382.00 462.00 C 396.60 462.70 412.40 462.70 427.00 462.00 C 441.60 461.30 457.67 464.57 472.00 462.00
C 479.97 461.26 479.36 452.06 479.00 446.00
C 429.33 446.00 379.67 446.00 330.00 446.00
C 329.26 453.05 329.97 459.78 337.00 462.00 Z"/>
</g>
<g fill="None" fill-opacity="0.0" stroke="#5E6164" stroke-opacity="1.00" stroke-width="0.3"><path d="
M 174.00 462.00 
C 159.44 463.81 143.67 461.61 129.00 462.00 C 114.33 462.39 98.55 462.77 84.00 462.00 C 69.45 461.23 54.23 464.55 40.00 462.00
C 53.12 466.15 70.67 462.09 85.00 463.00 C 99.33 463.91 115.65 463.35 130.00 463.00 C 144.35 462.65 160.66 465.30 174.00 462.00 Z"/>
</g>
<g fill="None" fill-opacity="0.0" stroke="#5E6164" stroke-opacity="1.00" stroke-width="0.3"><path d="
M 472.00 462.00 
C 457.67 464.57 441.60 461.30 427.00 462.00 C 412.40 462.70 396.60 462.70 382.00 462.00 C 367.40 461.30 351.33 464.57 337.00 462.00
C 350.10 466.14 367.65 462.25 382.00 463.00 C 396.35 463.75 413.71 463.67 428.00 463.00 C 442.29 462.33 458.97 466.12 472.00 462.00 Z"/>
</g>
<g fill="None" fill-opacity="0.0" stroke="#A9B1BC" stroke-opacity="1.00" stroke-width="0.3"><path d="
M 91.00 495.00 
C 102.00 495.00 113.00 495.00 124.00 495.00
C 124.00 489.67 124.00 484.33 124.00 479.00
C 113.00 479.00 102.00 479.00 91.00 479.00
C 92.88 483.02 88.49 491.42 91.00 495.00 Z"/>
</g>
<g fill="None" fill-opacity="0.0" stroke="#A9B1BC" stroke-opacity="1.00" stroke-width="0.3"><path d="
M 388.00 495.00 
C 399.00 495.00 410.00 495.00 421.00 495.00
C 421.00 489.67 421.00 484.33 421.00 479.00
C 410.00 479.00 399.00 479.00 388.00 479.00
C 389.88 483.02 385.49 491.42 388.00 495.00 Z"/>
</g>
<g fill="None" fill-opacity="0.0" stroke="#4E5257" stroke-opacity="1.00" stroke-width="0.3"><path d="
M 124.00 495.00 
C 113.00 495.00 102.00 495.00 91.00 495.00
C 92.91 497.73 104.68 495.87 108.00 496.00 C 111.32 496.13 122.20 497.57 124.00 495.00 Z"/>
</g>
<g fill="None" fill-opacity="0.0" stroke="#4E5257" stroke-opacity="1.00" stroke-width="0.3"><path d="
M 421.00 495.00 
C 410.00 495.00 399.00 495.00 388.00 495.00
C 389.91 497.73 401.68 495.87 405.00 496.00 C 408.32 496.13 419.20 497.57 421.00 495.00 Z"/>
</g>
<g fill="#000000" fill-opacity="0.01" stroke="None">
<path d="
M 0.00 135.00 
C 7.29 132.49 14.41 129.50 22.00 128.00
C 26.01 117.86 26.24 107.28 32.92 97.92 C 39.61 88.57 31.51 79.49 27.00 70.00
C 42.94 56.83 56.52 37.39 73.00 27.00
C 76.89 31.93 85.04 32.02 89.00 37.00
C 102.15 31.01 113.21 24.14 128.00 22.00
C 128.88 14.02 131.77 7.25 135.00 0.00
L 0.00 0.00
L 0.00 135.00 Z"/>
</g>
<g fill="#000000" fill-opacity="1.00" stroke="None">
<path d="
M 0.00 135.00 
L 0.00 196.00
C 13.74 196.85 24.40 204.23 26.77 217.23 C 29.14 230.22 42.01 238.80 31.69 250.70 C 21.38 262.59 39.17 269.55 45.75 278.25 C 52.34 286.95 63.58 294.08 70.00 303.00
C 78.32 302.25 84.26 291.15 92.69 294.31 C 101.13 297.46 107.44 303.15 117.02 304.98 C 126.60 306.80 130.75 312.71 132.78 323.22 C 134.80 333.73 150.90 329.53 161.00 330.00 C 171.10 330.47 185.51 329.65 196.00 330.00
C 198.41 320.67 199.70 308.89 209.67 306.67 C 219.65 304.46 226.48 299.94 235.25 295.25 C 244.02 290.55 252.14 301.36 261.00 303.00
C 274.50 288.67 288.71 274.45 303.00 261.00
C 301.24 251.76 289.44 243.11 296.25 234.25 C 303.07 225.39 302.21 215.23 307.78 205.78 C 313.34 196.32 328.54 198.14 340.00 198.00 C 351.46 197.86 368.07 198.10 380.00 198.00
C 382.14 209.83 375.21 233.61 384.75 242.25 C 394.30 250.88 414.58 250.61 424.25 242.25 C 433.92 233.88 426.81 209.81 429.00 198.00
C 434.67 198.00 440.33 198.00 446.00 198.00
C 446.33 207.20 443.51 223.25 453.75 228.25 C 464.00 233.25 475.92 232.65 486.69 228.69 C 497.47 224.73 495.01 207.35 495.00 198.00
C 503.29 198.29 509.87 191.03 512.00 184.00
L 512.00 147.00
C 508.86 132.46 496.53 132.42 483.00 133.00 C 469.47 133.58 452.95 132.80 439.00 133.00 C 425.05 133.20 408.88 133.06 395.00 133.00 C 381.12 132.94 365.38 133.37 352.00 133.00 C 338.62 132.63 323.08 135.22 311.98 129.02 C 300.87 122.83 306.54 108.24 297.69 99.31 C 288.85 90.37 300.15 79.45 303.00 70.00
C 287.87 56.35 273.93 40.46 259.00 27.00
C 252.29 30.84 245.50 35.21 238.00 37.00
C 228.80 29.00 216.30 25.17 203.00 22.00
C 201.53 13.69 197.08 8.09 197.00 0.00
L 135.00 0.00
C 131.77 7.25 128.88 14.02 128.00 22.00
C 113.21 24.14 102.15 31.01 89.00 37.00
C 85.04 32.02 76.89 31.93 73.00 27.00
C 56.52 37.39 42.94 56.83 27.00 70.00
C 31.51 79.49 39.61 88.57 32.92 97.92 C 26.24 107.28 26.01 117.86 22.00 128.00
C 14.41 129.50 7.29 132.49 0.00 135.00
M 184.00 17.00 
C 189.17 21.25 186.44 37.27 196.07 36.93 C 205.71 36.59 211.79 43.45 220.07 44.93 C 228.35 46.40 233.97 57.16 242.07 54.07 C 250.18 50.99 255.29 44.26 262.25 51.75 C 269.21 59.24 270.12 61.25 278.25 67.75 C 286.37 74.25 278.41 81.56 276.08 89.08 C 273.74 96.59 282.99 102.21 284.92 110.08 C 286.86 117.94 292.68 124.75 293.33 133.67 C 293.97 142.59 306.70 143.97 314.00 146.00
C 314.00 158.67 314.00 171.33 314.00 184.00
C 304.03 185.80 294.59 189.09 293.01 199.01 C 291.43 208.93 286.78 217.20 282.69 225.69 C 278.61 234.19 271.65 240.91 279.77 249.23 C 287.89 257.55 275.94 264.93 270.25 270.25 C 264.56 275.56 258.41 288.05 249.92 280.08 C 241.44 272.10 234.29 278.22 225.77 282.77 C 217.25 287.32 209.86 291.05 199.78 292.78 C 189.69 294.51 185.51 303.38 184.00 314.00
C 171.33 314.00 158.67 314.00 146.00 314.00
C 145.95 300.28 138.26 294.99 127.32 291.68 C 116.38 288.36 107.17 286.64 98.25 278.75 C 89.33 270.85 78.78 286.67 70.75 281.25 C 62.73 275.82 56.75 267.21 49.75 260.25 C 42.75 253.28 59.22 241.82 52.08 232.92 C 44.93 224.03 41.75 215.12 39.02 203.98 C 36.30 192.83 30.37 185.07 17.00 184.00
C 14.18 180.57 15.97 169.65 16.00 165.00 C 16.03 160.35 14.09 149.27 17.00 146.00
C 20.65 141.89 31.62 143.49 36.00 140.00
C 39.16 127.95 40.00 115.40 47.77 104.77 C 55.54 94.14 54.78 84.13 47.00 73.00
C 56.00 64.83 64.88 55.96 73.00 47.00
C 84.14 54.86 94.07 55.47 104.70 47.70 C 115.32 39.92 127.95 39.27 140.00 36.00
C 141.64 29.57 144.36 23.46 146.00 17.00
C 149.31 14.06 160.35 16.06 165.00 16.00 C 169.65 15.94 180.61 14.22 184.00 17.00
M 495.00 181.00 
C 490.43 185.57 478.93 180.66 472.00 182.00 C 465.07 183.34 454.69 181.39 447.00 182.00 C 439.31 182.61 430.03 181.71 422.00 182.00 C 413.97 182.29 405.17 181.83 397.00 182.00 C 388.83 182.17 380.19 181.83 372.00 182.00 C 363.81 182.17 355.11 181.72 347.00 182.00 C 338.89 182.28 328.49 184.09 330.00 174.00 C 331.51 163.91 328.87 158.65 330.00 149.00
C 385.00 149.00 440.00 149.00 495.00 149.00
C 497.77 150.94 495.87 161.48 496.00 165.00 C 496.13 168.52 497.42 178.58 495.00 181.00
M 413.00 198.00 
C 413.00 209.00 413.00 220.00 413.00 231.00
C 407.33 231.00 401.67 231.00 396.00 231.00
C 396.00 220.00 396.00 209.00 396.00 198.00
C 401.67 198.00 407.33 198.00 413.00 198.00
M 463.00 215.00 
C 460.99 213.59 461.05 199.36 463.00 198.00
C 466.58 195.49 474.98 199.88 479.00 198.00
C 479.00 203.67 479.00 209.33 479.00 215.00
C 473.67 215.00 468.33 215.00 463.00 215.00 Z"/>
</g>
<g fill="#000000" fill-opacity="0.01" stroke="None">
<path d="
M 512.00 147.00 
L 512.00 0.00
L 197.00 0.00
C 197.08 8.09 201.53 13.69 203.00 22.00
C 216.30 25.17 228.80 29.00 238.00 37.00
C 245.50 35.21 252.29 30.84 259.00 27.00
C 273.93 40.46 287.87 56.35 303.00 70.00
C 300.15 79.45 288.85 90.37 297.69 99.31 C 306.54 108.24 300.87 122.83 311.98 129.02 C 323.08 135.22 338.62 132.63 352.00 133.00 C 365.38 133.37 381.12 132.94 395.00 133.00 C 408.88 133.06 425.05 133.20 439.00 133.00 C 452.95 132.80 469.47 133.58 483.00 133.00 C 496.53 132.42 508.86 132.46 512.00 147.00 Z"/>
</g>
<g fill="#756333" fill-opacity="1.00" stroke="None">
<path d="
M 146.00 17.00 
C 151.73 18.07 159.48 15.58 165.00 17.00 C 170.52 18.42 179.22 14.28 184.00 17.00
C 180.61 14.22 169.65 15.94 165.00 16.00 C 160.35 16.06 149.31 14.06 146.00 17.00 Z"/>
</g>
<g fill="#F8D46E" fill-opacity="1.00" stroke="None">
<path d="
M 17.00 146.00 
C 18.07 151.73 15.58 159.48 17.00 165.00 C 18.42 170.52 14.28 179.22 17.00 184.00
C 30.37 185.07 36.30 192.83 39.02 203.98 C 41.75 215.12 44.93 224.03 52.08 232.92 C 59.22 241.82 42.75 253.28 49.75 260.25 C 56.75 267.21 62.73 275.82 70.75 281.25 C 78.78 286.67 89.33 270.85 98.25 278.75 C 107.17 286.64 116.38 288.36 127.32 291.68 C 138.26 294.99 145.95 300.28 146.00 314.00
C 158.67 314.00 171.33 314.00 184.00 314.00
C 185.51 303.38 189.69 294.51 199.78 292.78 C 209.86 291.05 217.25 287.32 225.77 282.77 C 234.29 278.22 241.44 272.10 249.92 280.08 C 258.41 288.05 264.56 275.56 270.25 270.25 C 275.94 264.93 287.89 257.55 279.77 249.23 C 271.65 240.91 278.61 234.19 282.69 225.69 C 286.78 217.20 291.43 208.93 293.01 199.01 C 294.59 189.09 304.03 185.80 314.00 184.00
C 314.00 171.33 314.00 158.67 314.00 146.00
C 306.70 143.97 293.97 142.59 293.33 133.67 C 292.68 124.75 286.86 117.94 284.92 110.08 C 282.99 102.21 273.74 96.59 276.08 89.08 C 278.41 81.56 286.37 74.25 278.25 67.75 C 270.12 61.25 269.21 59.24 262.25 51.75 C 255.29 44.26 250.18 50.99 242.07 54.07 C 233.97 57.16 228.35 46.40 220.07 44.93 C 211.79 43.45 205.71 36.59 196.07 36.93 C 186.44 37.27 189.17 21.25 184.00 17.00
C 179.22 14.28 170.52 18.42 165.00 17.00 C 159.48 15.58 151.73 18.07 146.00 17.00
C 144.36 23.46 141.64 29.57 140.00 36.00
C 127.95 39.27 115.32 39.92 104.70 47.70 C 94.07 55.47 84.14 54.86 73.00 47.00
C 64.88 55.96 56.00 64.83 47.00 73.00
C 54.78 84.13 55.54 94.14 47.77 104.77 C 40.00 115.40 39.16 127.95 36.00 140.00
C 31.62 143.49 20.65 141.89 17.00 146.00
M 79.00 88.00 
C 81.78 84.75 84.80 81.74 88.00 79.00
C 134.62 39.16 206.54 40.47 249.25 85.75 C 291.96 131.04 290.56 203.12 246.75 246.75 C 202.94 290.38 132.02 292.12 86.25 249.75 C 40.48 207.38 39.11 134.69 79.00 88.00 Z"/>
</g>
<g fill="#000000" fill-opacity="1.00" stroke="None">
<path d="
M 88.00 79.00 
C 85.08 81.92 81.87 85.13 79.00 88.00
C 39.11 134.69 40.48 207.38 86.25 249.75 C 132.02 292.12 202.94 290.38 246.75 246.75 C 290.56 203.12 291.96 131.04 249.25 85.75 C 206.54 40.47 134.62 39.16 88.00 79.00
M 195.00 124.00 
C 175.33 124.00 155.67 124.00 136.00 124.00
C 136.30 106.59 143.32 95.57 149.77 79.77 C 156.22 63.97 173.58 63.35 180.75 79.25 C 187.93 95.14 192.72 106.94 195.00 124.00
M 135.00 71.00 
C 127.31 87.82 121.04 105.38 119.00 124.00
C 104.33 124.00 89.67 124.00 75.00 124.00
C 86.45 99.39 108.99 78.49 135.00 71.00
M 255.00 124.00 
C 242.97 124.03 229.92 123.96 218.00 124.00 C 206.08 124.04 210.29 106.52 206.02 97.98 C 201.76 89.43 200.55 79.14 195.00 71.00
C 220.93 78.26 244.01 99.27 255.00 124.00
M 117.00 190.00 
C 101.00 190.00 85.00 190.00 69.00 190.00
C 68.99 181.52 63.84 170.67 66.00 162.00 C 68.16 153.33 63.81 141.09 75.00 140.00 C 86.20 138.91 93.61 141.97 106.00 140.00 C 118.39 138.03 116.78 148.21 116.00 159.00 C 115.22 169.79 116.12 179.67 117.00 190.00
M 197.00 140.00 
C 198.43 156.40 198.43 173.59 197.00 190.00
C 175.67 190.00 154.33 190.00 133.00 190.00
C 133.81 181.58 130.70 170.15 132.00 162.00 C 133.30 153.85 129.12 140.17 139.00 140.00 C 148.88 139.83 158.22 140.09 168.00 140.00 C 177.78 139.91 187.25 140.07 197.00 140.00
M 261.00 140.00 
C 263.58 150.52 263.93 159.60 264.00 171.00 C 264.07 182.40 262.09 192.39 249.00 190.00 C 235.91 187.61 226.74 191.79 214.00 190.00
C 214.69 173.00 214.69 157.02 214.00 140.00
C 229.67 140.00 245.33 140.00 261.00 140.00
M 119.00 207.00 
C 122.30 210.64 120.07 220.43 122.78 225.22 C 125.49 230.02 125.07 238.04 127.93 243.07 C 130.78 248.11 132.39 253.91 135.00 259.00
C 109.61 252.25 86.43 231.24 76.00 207.00
C 77.89 203.91 92.89 205.93 97.00 206.00 C 101.11 206.07 116.23 203.95 119.00 207.00
M 195.00 207.00 
C 192.78 216.77 190.16 232.09 185.69 240.69 C 181.23 249.30 176.59 263.00 165.99 263.99 C 155.39 264.98 148.05 250.36 145.08 241.92 C 142.10 233.49 134.51 217.65 136.00 208.00
C 136.58 204.24 147.11 206.30 153.00 206.00 C 158.89 205.70 167.61 205.93 174.00 206.00 C 180.39 206.07 189.33 205.12 195.00 207.00
M 254.00 208.00 
C 254.08 216.30 243.91 222.71 239.75 229.75 C 235.60 236.79 227.14 242.45 220.30 247.30 C 213.47 252.16 203.51 257.52 195.00 259.00
C 204.39 242.99 207.79 224.33 212.00 207.00
C 215.96 203.58 228.80 206.61 234.00 206.00 C 239.20 205.39 253.97 204.89 254.00 208.00 Z"/>
</g>
<g fill="#67D3F1" fill-opacity="1.00" stroke="None">
<path d="
M 195.00 124.00 
C 192.72 106.94 187.93 95.14 180.75 79.25 C 173.58 63.35 156.22 63.97 149.77 79.77 C 143.32 95.57 136.30 106.59 136.00 124.00
C 155.67 124.00 175.33 124.00 195.00 124.00 Z"/>
</g>
<g fill="#67D2F0" fill-opacity="1.00" stroke="None">
<path d="
M 135.00 71.00 
C 108.99 78.49 86.45 99.39 75.00 124.00
C 89.67 124.00 104.33 124.00 119.00 124.00
C 121.04 105.38 127.31 87.82 135.00 71.00 Z"/>
</g>
<g fill="#67D3F0" fill-opacity="1.00" stroke="None">
<path d="
M 255.00 124.00 
C 244.01 99.27 220.93 78.26 195.00 71.00
C 200.55 79.14 201.76 89.43 206.02 97.98 C 210.29 106.52 206.08 124.04 218.00 124.00 C 229.92 123.96 242.97 124.03 255.00 124.00 Z"/>
</g>
<g fill="#7D6A37" fill-opacity="1.00" stroke="None">
<path d="
M 79.00 88.00 
C 81.87 85.13 85.08 81.92 88.00 79.00
C 84.80 81.74 81.78 84.75 79.00 88.00 Z"/>
</g>
<g fill="#67D2F0" fill-opacity="1.00" stroke="None">
<path d="
M 117.00 190.00 
C 116.12 179.67 115.22 169.79 116.00 159.00 C 116.78 148.21 118.39 138.03 106.00 140.00 C 93.61 141.97 86.20 138.91 75.00 140.00 C 63.81 141.09 68.16 153.33 66.00 162.00 C 63.84 170.67 68.99 181.52 69.00 190.00
C 85.00 190.00 101.00 190.00 117.00 190.00 Z"/>
</g>
<g fill="#67D3F0" fill-opacity="1.00" stroke="None">
<path d="
M 197.00 140.00 
C 187.25 140.07 177.78 139.91 168.00 140.00 C 158.22 140.09 148.88 139.83 139.00 140.00 C 129.12 140.17 133.30 153.85 132.00 162.00 C 130.70 170.15 133.81 181.58 133.00 190.00
C 154.33 190.00 175.67 190.00 197.00 190.00
C 198.43 173.59 198.43 156.40 197.00 140.00 Z"/>
</g>
<g fill="#67D2F0" fill-opacity="1.00" stroke="None">
<path d="
M 261.00 140.00 
C 245.33 140.00 229.67 140.00 214.00 140.00
C 214.69 157.02 214.69 173.00 214.00 190.00
C 226.74 191.79 235.91 187.61 249.00 190.00 C 262.09 192.39 264.07 182.40 264.00 171.00 C 263.93 159.60 263.58 150.52 261.00 140.00 Z"/>
</g>
<g fill="#7A6835" fill-opacity="1.00" stroke="None">
<path d="
M 17.00 184.00 
C 14.28 179.22 18.42 170.52 17.00 165.00 C 15.58 159.48 18.07 151.73 17.00 146.00
C 14.09 149.27 16.03 160.35 16.00 165.00 C 15.97 169.65 14.18 180.57 17.00 184.00 Z"/>
</g>
<g fill="#F8D46E" fill-opacity="1.00" stroke="None">
<path d="
M 495.00 181.00 
C 497.51 177.42 493.69 169.42 495.00 165.00 C 496.31 160.58 494.02 153.65 495.00 149.00
C 440.00 149.00 385.00 149.00 330.00 149.00
C 328.87 158.65 331.51 163.91 330.00 174.00 C 328.49 184.09 338.89 182.28 347.00 182.00 C 355.11 181.72 363.81 182.17 372.00 182.00 C 380.19 181.83 388.83 182.17 397.00 182.00 C 405.17 181.83 413.97 182.29 422.00 182.00 C 430.03 181.71 439.31 182.61 447.00 182.00 C 454.69 181.39 465.07 183.34 472.00 182.00 C 478.93 180.66 490.43 185.57 495.00 181.00 Z"/>
</g>
<g fill="#7A6936" fill-opacity="1.00" stroke="None">
<path d="
M 495.00 181.00 
C 497.42 178.58 496.13 168.52 496.00 165.00 C 495.87 161.48 497.77 150.94 495.00 149.00
C 494.02 153.65 496.31 160.58 495.00 165.00 C 493.69 169.42 497.51 177.42 495.00 181.00 Z"/>
</g>
<g fill="#000000" fill-opacity="0.01" stroke="None">
<path d="
M 0.00 196.00 
L 0.00 512.00
L 42.00 512.00
C 42.00 506.67 42.00 501.33 42.00 496.00
C 53.00 496.00 64.00 496.00 75.00 496.00
C 75.00 490.33 75.00 484.67 75.00 479.00
C 58.99 477.05 29.53 485.25 20.75 467.25 C 11.96 449.26 18.19 423.64 17.00 404.00 C 15.81 384.36 13.63 365.84 23.75 354.75 C 33.87 343.66 53.75 347.03 73.00 347.00 C 92.25 346.97 119.87 346.62 139.00 347.00 C 158.13 347.38 179.85 343.12 190.77 354.24 C 201.69 365.35 198.87 383.38 198.00 403.00 C 197.13 422.62 202.68 447.84 194.23 466.23 C 185.77 484.62 156.39 477.70 140.00 479.00
C 140.00 484.67 140.00 490.33 140.00 496.00
C 151.00 496.00 162.00 496.00 173.00 496.00
C 173.00 501.33 173.00 506.67 173.00 512.00
L 339.00 512.00
C 339.00 506.67 339.00 501.33 339.00 496.00
C 350.00 496.00 361.00 496.00 372.00 496.00
C 372.00 490.33 372.00 484.67 372.00 479.00
C 355.77 477.55 327.02 484.66 318.08 466.92 C 309.15 449.18 314.86 424.16 314.00 405.00 C 313.14 385.84 310.07 365.26 321.75 353.75 C 333.44 342.24 353.66 347.86 373.00 347.00 C 392.34 346.14 419.63 347.23 439.00 347.00 C 458.37 346.77 478.02 343.81 488.25 354.75 C 498.47 365.69 496.20 384.45 495.00 404.00 C 493.80 423.55 500.01 448.40 491.69 466.69 C 483.38 484.99 453.00 477.34 437.00 479.00
C 437.00 484.67 437.00 490.33 437.00 496.00
C 448.00 496.00 459.00 496.00 470.00 496.00
C 470.00 501.33 470.00 506.67 470.00 512.00
L 512.00 512.00
L 512.00 184.00
C 509.87 191.03 503.29 198.29 495.00 198.00
C 495.01 207.35 497.47 224.73 486.69 228.69 C 475.92 232.65 464.00 233.25 453.75 228.25 C 443.51 223.25 446.33 207.20 446.00 198.00
C 440.33 198.00 434.67 198.00 429.00 198.00
C 426.81 209.81 433.92 233.88 424.25 242.25 C 414.58 250.61 394.30 250.88 384.75 242.25 C 375.21 233.61 382.14 209.83 380.00 198.00
C 368.07 198.10 351.46 197.86 340.00 198.00 C 328.54 198.14 313.34 196.32 307.78 205.78 C 302.21 215.23 303.07 225.39 296.25 234.25 C 289.44 243.11 301.24 251.76 303.00 261.00
C 288.71 274.45 274.50 288.67 261.00 303.00
C 252.14 301.36 244.02 290.55 235.25 295.25 C 226.48 299.94 219.65 304.46 209.67 306.67 C 199.70 308.89 198.41 320.67 196.00 330.00
C 185.51 329.65 171.10 330.47 161.00 330.00 C 150.90 329.53 134.80 333.73 132.78 323.22 C 130.75 312.71 126.60 306.80 117.02 304.98 C 107.44 303.15 101.13 297.46 92.69 294.31 C 84.26 291.15 78.32 302.25 70.00 303.00
C 63.58 294.08 52.34 286.95 45.75 278.25 C 39.17 269.55 21.38 262.59 31.69 250.70 C 42.01 238.80 29.14 230.22 26.77 217.23 C 24.40 204.23 13.74 196.85 0.00 196.00
M 248.00 322.00 
C 248.00 355.33 248.00 388.67 248.00 422.00
C 238.09 423.21 232.32 420.38 222.00 422.00 C 211.68 423.62 213.67 412.05 214.00 404.00
C 219.67 404.00 225.33 404.00 231.00 404.00
C 231.00 376.67 231.00 349.33 231.00 322.00
C 236.67 322.00 242.33 322.00 248.00 322.00
M 281.00 322.00 
C 281.00 349.33 281.00 376.67 281.00 404.00
C 286.67 404.00 292.33 404.00 298.00 404.00
C 298.33 412.06 300.34 423.60 290.00 422.00 C 279.66 420.40 273.92 423.20 264.00 422.00
C 264.00 388.67 264.00 355.33 264.00 322.00
C 269.67 322.00 275.33 322.00 281.00 322.00 Z"/>
</g>
<g fill="#F5E1A1" fill-opacity="1.00" stroke="None">
<path d="
M 413.00 198.00 
C 407.33 198.00 401.67 198.00 396.00 198.00
C 396.00 209.00 396.00 220.00 396.00 231.00
C 401.67 231.00 407.33 231.00 413.00 231.00
C 413.00 220.00 413.00 209.00 413.00 198.00 Z"/>
</g>
<g fill="#877C58" fill-opacity="1.00" stroke="None">
<path d="
M 463.00 215.00 
C 463.00 209.33 463.00 203.67 463.00 198.00
C 461.05 199.36 460.99 213.59 463.00 215.00 Z"/>
</g>
<g fill="#F7E3A2" fill-opacity="1.00" stroke="None">
<path d="
M 463.00 215.00 
C 468.33 215.00 473.67 215.00 479.00 215.00
C 479.00 209.33 479.00 203.67 479.00 198.00
C 474.98 199.88 466.58 195.49 463.00 198.00
C 463.00 203.67 463.00 209.33 463.00 215.00 Z"/>
</g>
<g fill="#377181" fill-opacity="1.00" stroke="None">
<path d="
M 76.00 207.00 
C 90.33 207.00 104.67 207.00 119.00 207.00
C 116.23 203.95 101.11 206.07 97.00 206.00 C 92.89 205.93 77.89 203.91 76.00 207.00 Z"/>
</g>
<g fill="#377080" fill-opacity="1.00" stroke="None">
<path d="
M 136.00 208.00 
C 138.65 204.01 149.92 208.18 155.00 207.00 C 160.08 205.82 169.16 207.61 175.00 207.00 C 180.84 206.39 188.95 207.46 195.00 207.00
C 189.33 205.12 180.39 206.07 174.00 206.00 C 167.61 205.93 158.89 205.70 153.00 206.00 C 147.11 206.30 136.58 204.24 136.00 208.00 Z"/>
</g>
<g fill="#387282" fill-opacity="1.00" stroke="None">
<path d="
M 212.00 207.00 
C 215.55 204.87 228.99 207.14 233.00 207.00 C 237.01 206.86 252.22 205.01 254.00 208.00
C 253.97 204.89 239.20 205.39 234.00 206.00 C 228.80 206.61 215.96 203.58 212.00 207.00 Z"/>
</g>
<g fill="#67D3F1" fill-opacity="1.00" stroke="None">
<path d="
M 119.00 207.00 
C 104.67 207.00 90.33 207.00 76.00 207.00
C 86.43 231.24 109.61 252.25 135.00 259.00
C 132.39 253.91 130.78 248.11 127.93 243.07 C 125.07 238.04 125.49 230.02 122.78 225.22 C 120.07 220.43 122.30 210.64 119.00 207.00 Z"/>
</g>
<g fill="#68D4F2" fill-opacity="1.00" stroke="None">
<path d="
M 136.00 208.00 
C 134.51 217.65 142.10 233.49 145.08 241.92 C 148.05 250.36 155.39 264.98 165.99 263.99 C 176.59 263.00 181.23 249.30 185.69 240.69 C 190.16 232.09 192.78 216.77 195.00 207.00
C 188.95 207.46 180.84 206.39 175.00 207.00 C 169.16 207.61 160.08 205.82 155.00 207.00 C 149.92 208.18 138.65 204.01 136.00 208.00 Z"/>
</g>
<g fill="#67D3F1" fill-opacity="1.00" stroke="None">
<path d="
M 254.00 208.00 
C 252.22 205.01 237.01 206.86 233.00 207.00 C 228.99 207.14 215.55 204.87 212.00 207.00
C 207.79 224.33 204.39 242.99 195.00 259.00
C 203.51 257.52 213.47 252.16 220.30 247.30 C 227.14 242.45 235.60 236.79 239.75 229.75 C 243.91 222.71 254.08 216.30 254.00 208.00 Z"/>
</g>
<g fill="#000000" fill-opacity="0.95" stroke="None">
<path d="
M 248.00 322.00 
C 242.33 322.00 236.67 322.00 231.00 322.00
C 231.00 349.33 231.00 376.67 231.00 404.00
C 225.33 404.00 219.67 404.00 214.00 404.00
C 213.67 412.05 211.68 423.62 222.00 422.00 C 232.32 420.38 238.09 423.21 248.00 422.00
C 248.00 388.67 248.00 355.33 248.00 322.00 Z"/>
</g>
<g fill="#000000" fill-opacity="0.95" stroke="None">
<path d="
M 281.00 322.00 
C 275.33 322.00 269.67 322.00 264.00 322.00
C 264.00 355.33 264.00 388.67 264.00 422.00
C 273.92 423.20 279.66 420.40 290.00 422.00 C 300.34 423.60 298.33 412.06 298.00 404.00
C 292.33 404.00 286.67 404.00 281.00 404.00
C 281.00 376.67 281.00 349.33 281.00 322.00 Z"/>
</g>
<g fill="#000000" fill-opacity="1.00" stroke="None">
<path d="
M 42.00 512.00 
L 173.00 512.00
C 173.00 506.67 173.00 501.33 173.00 496.00
C 162.00 496.00 151.00 496.00 140.00 496.00
C 140.00 490.33 140.00 484.67 140.00 479.00
C 156.39 477.70 185.77 484.62 194.23 466.23 C 202.68 447.84 197.13 422.62 198.00 403.00 C 198.87 383.38 201.69 365.35 190.77 354.24 C 179.85 343.12 158.13 347.38 139.00 347.00 C 119.87 346.62 92.25 346.97 73.00 347.00 C 53.75 347.03 33.87 343.66 23.75 354.75 C 13.63 365.84 15.81 384.36 17.00 404.00 C 18.19 423.64 11.96 449.26 20.75 467.25 C 29.53 485.25 58.99 477.05 75.00 479.00
C 75.00 484.67 75.00 490.33 75.00 496.00
C 64.00 496.00 53.00 496.00 42.00 496.00
C 42.00 501.33 42.00 506.67 42.00 512.00
M 181.00 370.00 
C 183.59 378.54 181.90 389.49 182.00 399.00 C 182.10 408.51 182.86 419.46 182.00 429.00
C 178.10 433.05 168.01 428.91 162.00 430.00 C 155.99 431.09 146.58 429.53 140.00 430.00 C 133.42 430.47 125.80 429.89 119.00 430.00 C 112.20 430.11 103.75 430.15 97.00 430.00 C 90.25 429.85 82.40 430.55 76.00 430.00 C 69.60 429.45 59.61 431.25 54.00 430.00 C 48.39 428.75 35.97 433.25 33.00 429.00
C 29.98 424.68 34.17 414.53 33.00 409.00 C 31.83 403.47 33.11 394.99 33.00 389.00 C 32.89 383.01 31.95 375.24 33.33 369.33 C 34.71 363.42 41.34 362.93 47.00 363.00 C 52.66 363.07 60.68 362.90 67.00 363.00 C 73.32 363.10 80.24 362.81 87.00 363.00 C 93.76 363.19 99.74 362.60 107.00 363.00 C 114.26 363.40 118.85 362.11 127.00 363.00 C 135.15 363.89 136.96 361.04 147.00 363.00 C 157.04 364.96 177.17 357.37 181.00 370.00
M 174.00 462.00 
C 160.66 465.30 144.35 462.65 130.00 463.00 C 115.65 463.35 99.33 463.91 85.00 463.00 C 70.67 462.09 53.12 466.15 40.00 462.00
C 32.56 459.65 32.22 453.39 33.00 446.00
C 82.67 446.00 132.33 446.00 182.00 446.00
C 182.57 452.19 182.21 462.15 174.00 462.00
M 124.00 495.00 
C 122.20 497.57 111.32 496.13 108.00 496.00 C 104.68 495.87 92.91 497.73 91.00 495.00
C 88.49 491.42 92.88 483.02 91.00 479.00
C 102.00 479.00 113.00 479.00 124.00 479.00
C 124.00 484.33 124.00 489.67 124.00 495.00 Z"/>
</g>
<g fill="#000000" fill-opacity="1.00" stroke="None">
<path d="
M 339.00 512.00 
L 470.00 512.00
C 470.00 506.67 470.00 501.33 470.00 496.00
C 459.00 496.00 448.00 496.00 437.00 496.00
C 437.00 490.33 437.00 484.67 437.00 479.00
C 453.00 477.34 483.38 484.99 491.69 466.69 C 500.01 448.40 493.80 423.55 495.00 404.00 C 496.20 384.45 498.47 365.69 488.25 354.75 C 478.02 343.81 458.37 346.77 439.00 347.00 C 419.63 347.23 392.34 346.14 373.00 347.00 C 353.66 347.86 333.44 342.24 321.75 353.75 C 310.07 365.26 313.14 385.84 314.00 405.00 C 314.86 424.16 309.15 449.18 318.08 466.92 C 327.02 484.66 355.77 477.55 372.00 479.00
C 372.00 484.67 372.00 490.33 372.00 496.00
C 361.00 496.00 350.00 496.00 339.00 496.00
C 339.00 501.33 339.00 506.67 339.00 512.00
M 479.00 429.00 
C 476.08 433.17 464.60 428.85 459.00 430.00 C 453.40 431.15 443.40 429.50 437.00 430.00 C 430.60 430.50 422.76 429.88 416.00 430.00 C 409.24 430.12 400.81 430.13 394.00 430.00 C 387.19 429.87 379.60 430.52 373.00 430.00 C 366.40 429.48 357.05 431.19 351.00 430.00 C 344.95 428.81 333.96 433.12 330.00 429.00
C 329.14 419.45 329.91 408.51 330.00 399.00 C 330.09 389.49 328.43 378.48 331.00 370.00
C 334.76 357.62 354.11 364.81 364.00 363.00 C 373.89 361.19 375.91 363.82 384.00 363.00 C 392.09 362.18 396.76 363.37 404.00 363.00 C 411.24 362.63 417.24 363.17 424.00 363.00 C 430.76 362.83 437.65 363.09 444.00 363.00 C 450.35 362.91 458.27 363.07 464.00 363.00 C 469.73 362.93 476.46 362.94 478.30 368.70 C 480.15 374.45 479.19 382.00 479.00 388.00 C 478.81 394.00 480.32 402.41 479.00 408.00 C 477.68 413.59 482.12 424.55 479.00 429.00
M 472.00 462.00 
C 458.97 466.12 442.29 462.33 428.00 463.00 C 413.71 463.67 396.35 463.75 382.00 463.00 C 367.65 462.25 350.10 466.14 337.00 462.00
C 329.97 459.78 329.26 453.05 330.00 446.00
C 379.67 446.00 429.33 446.00 479.00 446.00
C 479.36 452.06 479.97 461.26 472.00 462.00
M 421.00 495.00 
C 419.20 497.57 408.32 496.13 405.00 496.00 C 401.68 495.87 389.91 497.73 388.00 495.00
C 385.49 491.42 389.88 483.02 388.00 479.00
C 399.00 479.00 410.00 479.00 421.00 479.00
C 421.00 484.33 421.00 489.67 421.00 495.00 Z"/>
</g>
<g fill="#68D4F2" fill-opacity="1.00" stroke="None">
<path d="
M 33.00 429.00 
C 82.33 429.00 131.67 429.00 181.00 429.00
C 179.25 409.75 184.22 389.03 181.00 370.00
C 177.17 357.37 157.04 364.96 147.00 363.00 C 136.96 361.04 135.15 363.89 127.00 363.00 C 118.85 362.11 114.26 363.40 107.00 363.00 C 99.74 362.60 93.76 363.19 87.00 363.00 C 80.24 362.81 73.32 363.10 67.00 363.00 C 60.68 362.90 52.66 363.07 47.00 363.00 C 41.34 362.93 34.71 363.42 33.33 369.33 C 31.95 375.24 32.89 383.01 33.00 389.00 C 33.11 394.99 31.83 403.47 33.00 409.00 C 34.17 414.53 29.98 424.68 33.00 429.00 Z"/>
</g>
<g fill="#68D4F2" fill-opacity="1.00" stroke="None">
<path d="
M 331.00 370.00 
C 327.78 389.03 332.74 409.75 331.00 429.00
C 380.33 428.93 429.67 429.05 479.00 429.00
C 482.12 424.55 477.68 413.59 479.00 408.00 C 480.32 402.41 478.81 394.00 479.00 388.00 C 479.19 382.00 480.15 374.45 478.30 368.70 C 476.46 362.94 469.73 362.93 464.00 363.00 C 458.27 363.07 450.35 362.91 444.00 363.00 C 437.65 363.09 430.76 362.83 424.00 363.00 C 417.24 363.17 411.24 362.63 404.00 363.00 C 396.76 363.37 392.09 362.18 384.00 363.00 C 375.91 363.82 373.89 361.19 364.00 363.00 C 354.11 364.81 334.76 357.62 331.00 370.00 Z"/>
</g>
<g fill="#468FA4" fill-opacity="1.00" stroke="None">
<path d="
M 181.00 429.00 
C 181.50 429.00 182.00 429.00 182.00 429.00
C 182.86 419.46 182.10 408.51 182.00 399.00 C 181.90 389.49 183.59 378.54 181.00 370.00
C 184.22 389.03 179.25 409.75 181.00 429.00 Z"/>
</g>
<g fill="#468FA4" fill-opacity="1.00" stroke="None">
<path d="
M 330.00 429.00 
C 330.00 429.04 331.00 429.00 331.00 429.00
C 332.74 409.75 327.78 389.03 331.00 370.00
C 328.43 378.48 330.09 389.49 330.00 399.00 C 329.91 408.51 329.14 419.45 330.00 429.00 Z"/>
</g>
<g fill="#295561" fill-opacity="1.00" stroke="None">
<path d="
M 182.00 429.00 
C 182.00 429.00 181.50 429.00 181.00 429.00
C 131.67 429.00 82.33 429.00 33.00 429.00
C 35.97 433.25 48.39 428.75 54.00 430.00 C 59.61 431.25 69.60 429.45 76.00 430.00 C 82.40 430.55 90.25 429.85 97.00 430.00 C 103.75 430.15 112.20 430.11 119.00 430.00 C 125.80 429.89 133.42 430.47 140.00 430.00 C 146.58 429.53 155.99 431.09 162.00 430.00 C 168.01 428.91 178.10 433.05 182.00 429.00 Z"/>
</g>
<g fill="#295561" fill-opacity="1.00" stroke="None">
<path d="
M 479.00 429.00 
C 429.67 429.05 380.33 428.93 331.00 429.00
C 331.00 429.00 330.00 429.04 330.00 429.00
C 333.96 433.12 344.95 428.81 351.00 430.00 C 357.05 431.19 366.40 429.48 373.00 430.00 C 379.60 430.52 387.19 429.87 394.00 430.00 C 400.81 430.13 409.24 430.12 416.00 430.00 C 422.76 429.88 430.60 430.50 437.00 430.00 C 443.40 429.50 453.40 431.15 459.00 430.00 C 464.60 428.85 476.08 433.17 479.00 429.00 Z"/>
</g>
<g fill="#CBD0D8" fill-opacity="1.00" stroke="None">
<path d="
M 40.00 462.00 
C 54.23 464.55 69.45 461.23 84.00 462.00 C 98.55 462.77 114.33 462.39 129.00 462.00 C 143.67 461.61 159.44 463.81 174.00 462.00
C 182.21 462.15 182.57 452.19 182.00 446.00
C 132.33 446.00 82.67 446.00 33.00 446.00
C 32.22 453.39 32.56 459.65 40.00 462.00 Z"/>
</g>
<g fill="#CBD0D8" fill-opacity="1.00" stroke="None">
<path d="
M 337.00 462.00 
C 351.33 464.57 367.40 461.30 382.00 462.00 C 396.60 462.70 412.40 462.70 427.00 462.00 C 441.60 461.30 457.67 464.57 472.00 462.00
C 479.97 461.26 479.36 452.06 479.00 446.00
C 429.33 446.00 379.67 446.00 330.00 446.00
C 329.26 453.05 329.97 459.78 337.00 462.00 Z"/>
</g>
<g fill="#5E6164" fill-opacity="1.00" stroke="None">
<path d="
M 174.00 462.00 
C 159.44 463.81 143.67 461.61 129.00 462.00 C 114.33 462.39 98.55 462.77 84.00 462.00 C 69.45 461.23 54.23 464.55 40.00 462.00
C 53.12 466.15 70.67 462.09 85.00 463.00 C 99.33 463.91 115.65 463.35 130.00 463.00 C 144.35 462.65 160.66 465.30 174.00 462.00 Z"/>
</g>
<g fill="#5E6164" fill-opacity="1.00" stroke="None">
<path d="
M 472.00 462.00 
C 457.67 464.57 441.60 461.30 427.00 462.00 C 412.40 462.70 396.60 462.70 382.00 462.00 C 367.40 461.30 351.33 464.57 337.00 462.00
C 350.10 466.14 367.65 462.25 382.00 463.00 C 396.35 463.75 413.71 463.67 428.00 463.00 C 442.29 462.33 458.97 466.12 472.00 462.00 Z"/>
</g>
<g fill="#A9B1BC" fill-opacity="1.00" stroke="None">
<path d="
M 91.00 495.00 
C 102.00 495.00 113.00 495.00 124.00 495.00
C 124.00 489.67 124.00 484.33 124.00 479.00
C 113.00 479.00 102.00 479.00 91.00 479.00
C 92.88 483.02 88.49 491.42 91.00 495.00 Z"/>
</g>
<g fill="#A9B1BC" fill-opacity="1.00" stroke="None">
<path d="
M 388.00 495.00 
C 399.00 495.00 410.00 495.00 421.00 495.00
C 421.00 489.67 421.00 484.33 421.00 479.00
C 410.00 479.00 399.00 479.00 388.00 479.00
C 389.88 483.02 385.49 491.42 388.00 495.00 Z"/>
</g>
<g fill="#4E5257" fill-opacity="1.00" stroke="None">
<path d="
M 124.00 495.00 
C 113.00 495.00 102.00 495.00 91.00 495.00
C 92.91 497.73 104.68 495.87 108.00 496.00 C 111.32 496.13 122.20 497.57 124.00 495.00 Z"/>
</g>
<g fill="#4E5257" fill-opacity="1.00" stroke="None">
<path d="
M 421.00 495.00 
C 410.00 495.00 399.00 495.00 388.00 495.00
C 389.91 497.73 401.68 495.87 405.00 496.00 C 408.32 496.13 419.20 497.57 421.00 495.00 Z"/>
</g>
</svg>