<svg xmlns="http://www.w3.org/2000/svg" xmlns:v="https://svgstorm.com"
viewBox = "0 0 512 512"
width="512"
height="512">
<g fill="None" fill-opacity="0.0" stroke="#000000" stroke-opacity="0.00" stroke-width="0.3"><path d="
M 0.00 408.00 
C 5.44 379.15 30.91 352.94 61.00 350.00
C 61.00 347.33 61.00 344.67 61.00 342.00
C 61.00 251.67 61.00 161.33 61.00 71.00
C 58.43 71.23 54.50 71.57 52.00 71.00
C 39.39 68.11 53.99 54.90 59.75 48.75 C 65.52 42.60 72.47 37.35 79.25 28.25 C 86.02 19.15 94.72 22.80 101.75 32.25 C 108.78 41.70 112.66 44.90 121.25 52.75 C 129.84 60.60 134.14 74.31 116.00 71.00
C 116.00 129.33 116.00 187.67 116.00 246.00
C 116.00 252.12 116.87 258.95 116.00 265.00
C 132.50 256.89 153.90 256.01 172.00 259.00
C 169.13 239.08 173.50 218.12 172.00 198.00 C 170.50 177.88 173.12 157.17 172.00 137.00
C 170.09 135.67 153.83 139.09 158.00 131.00 C 162.18 122.91 170.50 114.95 177.25 108.25 C 183.99 101.54 190.66 91.29 199.01 88.01 C 207.35 84.72 206.09 94.98 210.75 97.25 C 215.41 99.52 217.64 104.22 221.25 107.75 C 224.85 111.29 227.27 114.79 231.25 118.75 C 235.22 122.72 238.38 124.14 240.92 130.08 C 243.45 136.02 232.10 139.32 227.00 137.00
C 227.00 156.67 227.00 176.33 227.00 196.00
C 233.50 190.39 243.05 186.57 251.23 183.23 C 259.40 179.89 272.73 176.12 282.00 177.00
C 281.47 171.11 282.00 164.92 282.00 159.00
C 282.00 133.67 282.00 108.33 282.00 83.00
C 262.94 85.48 269.38 73.21 277.75 64.75 C 286.13 56.29 290.81 53.28 298.25 43.25 C 305.69 33.22 313.77 31.80 321.75 42.25 C 329.73 52.70 332.86 55.72 341.75 64.25 C 350.64 72.77 357.37 85.32 338.00 83.00
C 338.00 118.33 338.00 153.67 338.00 189.00
C 365.37 200.14 388.45 232.95 393.00 261.00
C 393.00 246.33 393.00 231.67 393.00 217.00
C 393.00 197.67 393.00 178.33 393.00 159.00
C 378.67 164.55 376.81 149.54 385.25 144.25 C 393.68 138.96 395.17 130.84 402.25 126.25 C 409.33 121.66 412.76 109.40 421.00 110.00 C 429.25 110.60 432.75 121.29 439.75 126.25 C 446.75 131.21 448.02 138.88 456.25 144.75 C 464.49 150.61 463.02 164.05 448.00 159.00
C 448.00 194.00 448.00 229.00 448.00 264.00
C 448.00 270.67 448.00 277.33 448.00 284.00
C 482.79 296.52 506.50 333.64 512.00 368.00
L 512.00 0.00
L 0.00 0.00
L 0.00 408.00 Z"/>
</g>
<g fill="None" fill-opacity="0.0" stroke="#DE5973" stroke-opacity="0.99" stroke-width="0.3"><path d="
M 52.00 71.00 
C 53.71 71.23 58.35 69.76 61.00 70.00
C 66.04 74.84 60.39 88.58 62.00 96.00 C 63.61 103.42 61.28 114.67 62.00 123.00 C 62.72 131.33 61.69 141.21 62.00 150.00 C 62.31 158.79 61.85 169.04 62.00 178.00 C 62.15 186.96 61.93 195.99 62.00 205.00 C 62.07 214.01 61.97 222.95 62.00 232.00 C 62.03 241.05 61.99 249.86 62.00 259.00 C 62.01 268.14 62.00 277.81 62.00 287.00
C 64.99 277.55 77.12 270.41 84.25 263.25 C 91.38 256.08 104.82 250.92 114.00 247.00
C 113.60 247.17 116.31 245.49 116.00 246.00
C 116.00 187.67 116.00 129.33 116.00 71.00
C 134.14 74.31 129.84 60.60 121.25 52.75 C 112.66 44.90 108.78 41.70 101.75 32.25 C 94.72 22.80 86.02 19.15 79.25 28.25 C 72.47 37.35 65.52 42.60 59.75 48.75 C 53.99 54.90 39.39 68.11 52.00 71.00 Z"/>
</g>
<g fill="None" fill-opacity="0.0" stroke="#FEDD79" stroke-opacity="0.96" stroke-width="0.3"><path d="
M 282.00 159.00 
C 282.51 164.31 283.54 170.98 283.00 177.00
C 303.46 177.00 319.77 181.58 338.00 189.00
C 338.00 153.67 338.00 118.33 338.00 83.00
C 357.37 85.32 350.64 72.77 341.75 64.25 C 332.86 55.72 329.73 52.70 321.75 42.25 C 313.77 31.80 305.69 33.22 298.25 43.25 C 290.81 53.28 286.13 56.29 277.75 64.75 C 269.38 73.21 262.94 85.48 282.00 83.00
C 282.00 108.33 282.00 133.67 282.00 159.00 Z"/>
</g>
<g fill="None" fill-opacity="0.0" stroke="#DC5A73" stroke-opacity="0.20" stroke-width="0.3"><path d="
M 52.00 71.00 
C 54.50 71.57 58.43 71.23 61.00 71.00
C 61.00 70.50 61.00 70.00 61.00 70.00
C 58.35 69.76 53.71 71.23 52.00 71.00 Z"/>
</g>
<g fill="None" fill-opacity="0.0" stroke="#D85671" stroke-opacity="0.61" stroke-width="0.3"><path d="
M 61.00 71.00 
C 61.00 161.33 61.00 251.67 61.00 342.00
C 61.26 339.33 62.35 335.06 63.00 332.00
C 62.75 317.84 62.00 301.89 62.00 287.00
C 62.00 277.81 62.01 268.14 62.00 259.00 C 61.99 249.86 62.03 241.05 62.00 232.00 C 61.97 222.95 62.07 214.01 62.00 205.00 C 61.93 195.99 62.15 186.96 62.00 178.00 C 61.85 169.04 62.31 158.79 62.00 150.00 C 61.69 141.21 62.72 131.33 62.00 123.00 C 61.28 114.67 63.61 103.42 62.00 96.00 C 60.39 88.58 66.04 74.84 61.00 70.00
C 61.00 70.00 61.00 70.50 61.00 71.00 Z"/>
</g>
<g fill="None" fill-opacity="0.0" stroke="#E6A15B" stroke-opacity="0.98" stroke-width="0.3"><path d="
M 172.00 137.00 
C 176.02 139.81 171.95 150.59 173.00 156.00 C 174.05 161.41 172.59 170.78 173.00 177.00 C 173.41 183.22 172.95 191.48 173.00 198.00 C 173.05 204.52 173.34 211.38 173.00 218.00 C 172.66 224.62 173.88 232.42 173.00 239.00 C 172.12 245.58 175.01 253.75 173.00 260.00
C 177.31 261.35 181.81 262.17 186.00 264.00
C 189.48 236.91 207.51 214.23 227.00 196.00
C 227.00 176.33 227.00 156.67 227.00 137.00
C 232.10 139.32 243.45 136.02 240.92 130.08 C 238.38 124.14 235.22 122.72 231.25 118.75 C 227.27 114.79 224.85 111.29 221.25 107.75 C 217.64 104.22 215.41 99.52 210.75 97.25 C 206.09 94.98 207.35 84.72 199.01 88.01 C 190.66 91.29 183.99 101.54 177.25 108.25 C 170.50 114.95 162.18 122.91 158.00 131.00 C 153.83 139.09 170.09 135.67 172.00 137.00 Z"/>
</g>
<g fill="None" fill-opacity="0.0" stroke="#B2E59F" stroke-opacity="0.98" stroke-width="0.3"><path d="
M 393.00 217.00 
C 393.05 217.23 393.73 217.80 394.00 218.00
C 404.72 226.01 402.00 243.11 408.98 253.02 C 415.95 262.94 438.51 256.11 448.00 264.00
C 448.00 229.00 448.00 194.00 448.00 159.00
C 463.02 164.05 464.49 150.61 456.25 144.75 C 448.02 138.88 446.75 131.21 439.75 126.25 C 432.75 121.29 429.25 110.60 421.00 110.00 C 412.76 109.40 409.33 121.66 402.25 126.25 C 395.17 130.84 393.68 138.96 385.25 144.25 C 376.81 149.54 378.67 164.55 393.00 159.00
C 393.00 178.33 393.00 197.67 393.00 217.00 Z"/>
</g>
<g fill="None" fill-opacity="0.0" stroke="#E7A25C" stroke-opacity="0.81" stroke-width="0.3"><path d="
M 172.00 259.00 
C 172.05 259.35 172.65 259.89 173.00 260.00
C 175.01 253.75 172.12 245.58 173.00 239.00 C 173.88 232.42 172.66 224.62 173.00 218.00 C 173.34 211.38 173.05 204.52 173.00 198.00 C 172.95 191.48 173.41 183.22 173.00 177.00 C 172.59 170.78 174.05 161.41 173.00 156.00 C 171.95 150.59 176.02 139.81 172.00 137.00
C 173.12 157.17 170.50 177.88 172.00 198.00 C 173.50 218.12 169.13 239.08 172.00 259.00 Z"/>
</g>
<g fill="None" fill-opacity="0.0" stroke="#FECC66" stroke-opacity="0.02" stroke-width="0.3"><path d="
M 282.00 177.00 
C 282.50 177.05 283.00 177.00 283.00 177.00
C 283.54 170.98 282.51 164.31 282.00 159.00
C 282.00 164.92 281.47 171.11 282.00 177.00 Z"/>
</g>
<g fill="None" fill-opacity="0.0" stroke="#A2DAFC" stroke-opacity="1.00" stroke-width="0.3"><path d="
M 227.00 196.00 
C 207.51 214.23 189.48 236.91 186.00 264.00
C 181.81 262.17 177.31 261.35 173.00 260.00
C 172.65 259.89 172.05 259.35 172.00 259.00
C 153.90 256.01 132.50 256.89 116.00 265.00
C 115.95 265.35 115.28 265.77 115.00 266.00
C 104.46 274.79 90.58 279.28 81.75 291.75 C 72.93 304.23 66.16 317.00 63.00 332.00
C 62.35 335.06 61.26 339.33 61.00 342.00
C 61.00 344.67 61.00 347.33 61.00 350.00
C 30.91 352.94 5.44 379.15 0.00 408.00
L 0.00 412.00
C 7.27 434.59 15.82 455.72 41.23 465.77 C 66.64 475.82 100.53 471.46 130.00 472.00 C 159.47 472.54 194.78 471.84 225.00 472.00 C 255.22 472.16 291.10 472.11 321.00 472.00 C 350.90 471.89 387.27 472.82 415.22 471.22 C 443.18 469.62 460.19 458.01 479.75 440.75 C 499.31 423.49 506.86 400.48 512.00 377.00
L 512.00 368.00
C 506.50 333.64 482.79 296.52 448.00 284.00
C 430.89 277.84 413.22 273.36 394.00 275.00
C 394.00 273.33 394.00 271.67 394.00 270.00
C 393.35 267.32 393.00 264.29 393.00 261.00
C 388.45 232.95 365.37 200.14 338.00 189.00
C 319.77 181.58 303.46 177.00 283.00 177.00
C 283.00 177.00 282.50 177.05 282.00 177.00
C 272.73 176.12 259.40 179.89 251.23 183.23 C 243.05 186.57 233.50 190.39 227.00 196.00
M 200.00 327.00 
C 207.41 328.43 216.48 330.78 221.75 339.25 C 227.02 347.72 213.09 353.86 205.77 346.23 C 198.45 338.60 187.08 340.41 178.75 345.75 C 170.42 351.10 175.95 362.95 185.23 364.77 C 194.51 366.59 201.86 371.11 210.08 374.92 C 218.30 378.74 222.55 385.63 224.99 394.01 C 227.43 402.39 224.06 412.69 217.25 419.25 C 210.44 425.81 201.40 428.15 192.00 429.00 C 182.60 429.85 172.46 424.71 164.92 421.08 C 157.38 417.45 149.04 405.77 158.70 401.70 C 168.36 397.62 172.82 411.27 182.02 411.98 C 191.23 412.68 200.28 415.92 207.25 407.25 C 214.21 398.58 207.69 389.00 198.77 386.23 C 189.85 383.46 182.34 379.65 173.77 376.23 C 165.20 372.80 159.51 365.34 159.02 355.98 C 158.53 346.61 162.72 337.87 170.75 332.75 C 178.77 327.62 189.88 325.05 200.00 327.00
M 255.00 342.00 
C 255.00 351.33 255.00 360.67 255.00 370.00
C 263.07 373.16 287.98 363.01 288.97 377.03 C 289.97 391.04 264.14 384.74 256.00 386.00
C 256.00 395.00 256.00 404.00 256.00 413.00
C 266.69 415.88 278.38 408.39 288.23 414.77 C 298.08 421.16 284.94 432.82 276.00 429.00 C 267.06 425.18 250.42 434.19 243.25 426.75 C 236.09 419.30 240.54 405.97 240.00 396.00 C 239.46 386.03 239.18 370.97 240.00 361.00 C 240.82 351.03 236.06 337.26 242.25 329.25 C 248.45 321.25 266.78 331.31 275.00 327.00 C 283.22 322.69 298.76 334.43 288.75 340.75 C 278.75 347.08 265.82 338.61 255.00 342.00
M 358.00 327.00 
C 395.62 332.37 414.24 378.56 391.25 408.25 C 368.26 437.94 321.94 435.35 304.70 400.30 C 287.45 365.26 317.60 321.23 358.00 327.00 Z"/>
</g>
<g fill="None" fill-opacity="0.0" stroke="#95D7A4" stroke-opacity="0.23" stroke-width="0.3"><path d="
M 393.00 261.00 
C 393.00 264.29 393.35 267.32 394.00 270.00
C 391.94 252.95 396.45 234.99 394.00 218.00
C 393.73 217.80 393.05 217.23 393.00 217.00
C 393.00 231.67 393.00 246.33 393.00 261.00 Z"/>
</g>
<g fill="None" fill-opacity="0.0" stroke="#95D6A4" stroke-opacity="1.00" stroke-width="0.3"><path d="
M 394.00 270.00 
C 394.00 271.67 394.00 273.33 394.00 275.00
C 413.22 273.36 430.89 277.84 448.00 284.00
C 448.00 277.33 448.00 270.67 448.00 264.00
C 438.51 256.11 415.95 262.94 408.98 253.02 C 402.00 243.11 404.72 226.01 394.00 218.00
C 396.45 234.99 391.94 252.95 394.00 270.00 Z"/>
</g>
<g fill="None" fill-opacity="0.0" stroke="#C7495D" stroke-opacity="0.62" stroke-width="0.3"><path d="
M 114.00 247.00 
C 113.48 249.66 113.95 262.71 115.00 266.00
C 115.28 265.77 115.95 265.35 116.00 265.00
C 116.87 258.95 116.00 252.12 116.00 246.00
C 116.31 245.49 113.60 247.17 114.00 247.00 Z"/>
</g>
<g fill="None" fill-opacity="0.0" stroke="#C64A5E" stroke-opacity="1.00" stroke-width="0.3"><path d="
M 62.00 287.00 
C 62.00 301.89 62.75 317.84 63.00 332.00
C 66.16 317.00 72.93 304.23 81.75 291.75 C 90.58 279.28 104.46 274.79 115.00 266.00
C 113.95 262.71 113.48 249.66 114.00 247.00
C 104.82 250.92 91.38 256.08 84.25 263.25 C 77.12 270.41 64.99 277.55 62.00 287.00 Z"/>
</g>
<g fill="None" fill-opacity="0.0" stroke="#FDFEFE" stroke-opacity="1.00" stroke-width="0.3"><path d="
M 200.00 327.00 
C 189.88 325.05 178.77 327.62 170.75 332.75 C 162.72 337.87 158.53 346.61 159.02 355.98 C 159.51 365.34 165.20 372.80 173.77 376.23 C 182.34 379.65 189.85 383.46 198.77 386.23 C 207.69 389.00 214.21 398.58 207.25 407.25 C 200.28 415.92 191.23 412.68 182.02 411.98 C 172.82 411.27 168.36 397.62 158.70 401.70 C 149.04 405.77 157.38 417.45 164.92 421.08 C 172.46 424.71 182.60 429.85 192.00 429.00 C 201.40 428.15 210.44 425.81 217.25 419.25 C 224.06 412.69 227.43 402.39 224.99 394.01 C 222.55 385.63 218.30 378.74 210.08 374.92 C 201.86 371.11 194.51 366.59 185.23 364.77 C 175.95 362.95 170.42 351.10 178.75 345.75 C 187.08 340.41 198.45 338.60 205.77 346.23 C 213.09 353.86 227.02 347.72 221.75 339.25 C 216.48 330.78 207.41 328.43 200.00 327.00 Z"/>
</g>
<g fill="None" fill-opacity="0.0" stroke="#FDFEFE" stroke-opacity="1.00" stroke-width="0.3"><path d="
M 255.00 342.00 
C 265.82 338.61 278.75 347.08 288.75 340.75 C 298.76 334.43 283.22 322.69 275.00 327.00 C 266.78 331.31 248.45 321.25 242.25 329.25 C 236.06 337.26 240.82 351.03 240.00 361.00 C 239.18 370.97 239.46 386.03 240.00 396.00 C 240.54 405.97 236.09 419.30 243.25 426.75 C 250.42 434.19 267.06 425.18 276.00 429.00 C 284.94 432.82 298.08 421.16 288.23 414.77 C 278.38 408.39 266.69 415.88 256.00 413.00
C 256.00 404.00 256.00 395.00 256.00 386.00
C 264.14 384.74 289.97 391.04 288.97 377.03 C 287.98 363.01 263.07 373.16 255.00 370.00
C 255.00 360.67 255.00 351.33 255.00 342.00 Z"/>
</g>
<g fill="None" fill-opacity="0.0" stroke="#FEFEFE" stroke-opacity="1.00" stroke-width="0.3"><path d="
M 358.00 327.00 
C 317.60 321.23 287.45 365.26 304.70 400.30 C 321.94 435.35 368.26 437.94 391.25 408.25 C 414.24 378.56 395.62 332.37 358.00 327.00
M 355.00 342.00 
C 381.54 345.21 395.19 378.12 379.25 399.25 C 363.30 420.37 331.49 418.12 318.75 394.25 C 306.00 370.39 327.01 338.62 355.00 342.00 Z"/>
</g>
<g fill="None" fill-opacity="0.0" stroke="#A3DAFD" stroke-opacity="1.00" stroke-width="0.3"><path d="
M 355.00 342.00 
C 327.01 338.62 306.00 370.39 318.75 394.25 C 331.49 418.12 363.30 420.37 379.25 399.25 C 395.19 378.12 381.54 345.21 355.00 342.00 Z"/>
</g>
<g fill="None" fill-opacity="0.0" stroke="#83C8EA" stroke-opacity="0.96" stroke-width="0.3"><path d="
M 0.00 412.00 
L 0.00 432.00
C 7.19 454.61 15.72 475.11 41.08 484.92 C 66.43 494.74 100.63 490.50 130.00 491.00 C 159.37 491.50 194.95 490.93 225.00 491.00 C 255.05 491.07 290.34 491.32 320.00 491.00 C 349.66 490.68 386.83 492.06 414.67 490.67 C 442.51 489.28 460.06 477.30 479.75 460.75 C 499.44 444.20 506.17 420.64 512.00 398.00
L 512.00 377.00
C 506.86 400.48 499.31 423.49 479.75 440.75 C 460.19 458.01 443.18 469.62 415.22 471.22 C 387.27 472.82 350.90 471.89 321.00 472.00 C 291.10 472.11 255.22 472.16 225.00 472.00 C 194.78 471.84 159.47 472.54 130.00 472.00 C 100.53 471.46 66.64 475.82 41.23 465.77 C 15.82 455.72 7.27 434.59 0.00 412.00 Z"/>
</g>
<g fill="None" fill-opacity="0.0" stroke="#000000" stroke-opacity="0.00" stroke-width="0.3"><path d="
M 0.00 432.00 
L 0.00 512.00
L 512.00 512.00
L 512.00 398.00
C 506.17 420.64 499.44 444.20 479.75 460.75 C 460.06 477.30 442.51 489.28 414.67 490.67 C 386.83 492.06 349.66 490.68 320.00 491.00 C 290.34 491.32 255.05 491.07 225.00 491.00 C 194.95 490.93 159.37 491.50 130.00 491.00 C 100.63 490.50 66.43 494.74 41.08 484.92 C 15.72 475.11 7.19 454.61 0.00 432.00 Z"/>
</g>
<g fill="#000000" fill-opacity="0.00" stroke="None">
<path d="
M 0.00 408.00 
C 5.44 379.15 30.91 352.94 61.00 350.00
C 61.00 347.33 61.00 344.67 61.00 342.00
C 61.00 251.67 61.00 161.33 61.00 71.00
C 58.43 71.23 54.50 71.57 52.00 71.00
C 39.39 68.11 53.99 54.90 59.75 48.75 C 65.52 42.60 72.47 37.35 79.25 28.25 C 86.02 19.15 94.72 22.80 101.75 32.25 C 108.78 41.70 112.66 44.90 121.25 52.75 C 129.84 60.60 134.14 74.31 116.00 71.00
C 116.00 129.33 116.00 187.67 116.00 246.00
C 116.00 252.12 116.87 258.95 116.00 265.00
C 132.50 256.89 153.90 256.01 172.00 259.00
C 169.13 239.08 173.50 218.12 172.00 198.00 C 170.50 177.88 173.12 157.17 172.00 137.00
C 170.09 135.67 153.83 139.09 158.00 131.00 C 162.18 122.91 170.50 114.95 177.25 108.25 C 183.99 101.54 190.66 91.29 199.01 88.01 C 207.35 84.72 206.09 94.98 210.75 97.25 C 215.41 99.52 217.64 104.22 221.25 107.75 C 224.85 111.29 227.27 114.79 231.25 118.75 C 235.22 122.72 238.38 124.14 240.92 130.08 C 243.45 136.02 232.10 139.32 227.00 137.00
C 227.00 156.67 227.00 176.33 227.00 196.00
C 233.50 190.39 243.05 186.57 251.23 183.23 C 259.40 179.89 272.73 176.12 282.00 177.00
C 281.47 171.11 282.00 164.92 282.00 159.00
C 282.00 133.67 282.00 108.33 282.00 83.00
C 262.94 85.48 269.38 73.21 277.75 64.75 C 286.13 56.29 290.81 53.28 298.25 43.25 C 305.69 33.22 313.77 31.80 321.75 42.25 C 329.73 52.70 332.86 55.72 341.75 64.25 C 350.64 72.77 357.37 85.32 338.00 83.00
C 338.00 118.33 338.00 153.67 338.00 189.00
C 365.37 200.14 388.45 232.95 393.00 261.00
C 393.00 246.33 393.00 231.67 393.00 217.00
C 393.00 197.67 393.00 178.33 393.00 159.00
C 378.67 164.55 376.81 149.54 385.25 144.25 C 393.68 138.96 395.17 130.84 402.25 126.25 C 409.33 121.66 412.76 109.40 421.00 110.00 C 429.25 110.60 432.75 121.29 439.75 126.25 C 446.75 131.21 448.02 138.88 456.25 144.75 C 464.49 150.61 463.02 164.05 448.00 159.00
C 448.00 194.00 448.00 229.00 448.00 264.00
C 448.00 270.67 448.00 277.33 448.00 284.00
C 482.79 296.52 506.50 333.64 512.00 368.00
L 512.00 0.00
L 0.00 0.00
L 0.00 408.00 Z"/>
</g>
<g fill="#DE5973" fill-opacity="0.99" stroke="None">
<path d="
M 52.00 71.00 
C 53.71 71.23 58.35 69.76 61.00 70.00
C 66.04 74.84 60.39 88.58 62.00 96.00 C 63.61 103.42 61.28 114.67 62.00 123.00 C 62.72 131.33 61.69 141.21 62.00 150.00 C 62.31 158.79 61.85 169.04 62.00 178.00 C 62.15 186.96 61.93 195.99 62.00 205.00 C 62.07 214.01 61.97 222.95 62.00 232.00 C 62.03 241.05 61.99 249.86 62.00 259.00 C 62.01 268.14 62.00 277.81 62.00 287.00
C 64.99 277.55 77.12 270.41 84.25 263.25 C 91.38 256.08 104.82 250.92 114.00 247.00
C 113.60 247.17 116.31 245.49 116.00 246.00
C 116.00 187.67 116.00 129.33 116.00 71.00
C 134.14 74.31 129.84 60.60 121.25 52.75 C 112.66 44.90 108.78 41.70 101.75 32.25 C 94.72 22.80 86.02 19.15 79.25 28.25 C 72.47 37.35 65.52 42.60 59.75 48.75 C 53.99 54.90 39.39 68.11 52.00 71.00 Z"/>
</g>
<g fill="#FEDD79" fill-opacity="0.96" stroke="None">
<path d="
M 282.00 159.00 
C 282.51 164.31 283.54 170.98 283.00 177.00
C 303.46 177.00 319.77 181.58 338.00 189.00
C 338.00 153.67 338.00 118.33 338.00 83.00
C 357.37 85.32 350.64 72.77 341.75 64.25 C 332.86 55.72 329.73 52.70 321.75 42.25 C 313.77 31.80 305.69 33.22 298.25 43.25 C 290.81 53.28 286.13 56.29 277.75 64.75 C 269.38 73.21 262.94 85.48 282.00 83.00
C 282.00 108.33 282.00 133.67 282.00 159.00 Z"/>
</g>
<g fill="#DC5A73" fill-opacity="0.20" stroke="None">
<path d="
M 52.00 71.00 
C 54.50 71.57 58.43 71.23 61.00 71.00
C 61.00 70.50 61.00 70.00 61.00 70.00
C 58.35 69.76 53.71 71.23 52.00 71.00 Z"/>
</g>
<g fill="#D85671" fill-opacity="0.61" stroke="None">
<path d="
M 61.00 71.00 
C 61.00 161.33 61.00 251.67 61.00 342.00
C 61.26 339.33 62.35 335.06 63.00 332.00
C 62.75 317.84 62.00 301.89 62.00 287.00
C 62.00 277.81 62.01 268.14 62.00 259.00 C 61.99 249.86 62.03 241.05 62.00 232.00 C 61.97 222.95 62.07 214.01 62.00 205.00 C 61.93 195.99 62.15 186.96 62.00 178.00 C 61.85 169.04 62.31 158.79 62.00 150.00 C 61.69 141.21 62.72 131.33 62.00 123.00 C 61.28 114.67 63.61 103.42 62.00 96.00 C 60.39 88.58 66.04 74.84 61.00 70.00
C 61.00 70.00 61.00 70.50 61.00 71.00 Z"/>
</g>
<g fill="#E6A15B" fill-opacity="0.98" stroke="None">
<path d="
M 172.00 137.00 
C 176.02 139.81 171.95 150.59 173.00 156.00 C 174.05 161.41 172.59 170.78 173.00 177.00 C 173.41 183.22 172.95 191.48 173.00 198.00 C 173.05 204.52 173.34 211.38 173.00 218.00 C 172.66 224.62 173.88 232.42 173.00 239.00 C 172.12 245.58 175.01 253.75 173.00 260.00
C 177.31 261.35 181.81 262.17 186.00 264.00
C 189.48 236.91 207.51 214.23 227.00 196.00
C 227.00 176.33 227.00 156.67 227.00 137.00
C 232.10 139.32 243.45 136.02 240.92 130.08 C 238.38 124.14 235.22 122.72 231.25 118.75 C 227.27 114.79 224.85 111.29 221.25 107.75 C 217.64 104.22 215.41 99.52 210.75 97.25 C 206.09 94.98 207.35 84.72 199.01 88.01 C 190.66 91.29 183.99 101.54 177.25 108.25 C 170.50 114.95 162.18 122.91 158.00 131.00 C 153.83 139.09 170.09 135.67 172.00 137.00 Z"/>
</g>
<g fill="#B2E59F" fill-opacity="0.98" stroke="None">
<path d="
M 393.00 217.00 
C 393.05 217.23 393.73 217.80 394.00 218.00
C 404.72 226.01 402.00 243.11 408.98 253.02 C 415.95 262.94 438.51 256.11 448.00 264.00
C 448.00 229.00 448.00 194.00 448.00 159.00
C 463.02 164.05 464.49 150.61 456.25 144.75 C 448.02 138.88 446.75 131.21 439.75 126.25 C 432.75 121.29 429.25 110.60 421.00 110.00 C 412.76 109.40 409.33 121.66 402.25 126.25 C 395.17 130.84 393.68 138.96 385.25 144.25 C 376.81 149.54 378.67 164.55 393.00 159.00
C 393.00 178.33 393.00 197.67 393.00 217.00 Z"/>
</g>
<g fill="#E7A25C" fill-opacity="0.81" stroke="None">
<path d="
M 172.00 259.00 
C 172.05 259.35 172.65 259.89 173.00 260.00
C 175.01 253.75 172.12 245.58 173.00 239.00 C 173.88 232.42 172.66 224.62 173.00 218.00 C 173.34 211.38 173.05 204.52 173.00 198.00 C 172.95 191.48 173.41 183.22 173.00 177.00 C 172.59 170.78 174.05 161.41 173.00 156.00 C 171.95 150.59 176.02 139.81 172.00 137.00
C 173.12 157.17 170.50 177.88 172.00 198.00 C 173.50 218.12 169.13 239.08 172.00 259.00 Z"/>
</g>
<g fill="#FECC66" fill-opacity="0.02" stroke="None">
<path d="
M 282.00 177.00 
C 282.50 177.05 283.00 177.00 283.00 177.00
C 283.54 170.98 282.51 164.31 282.00 159.00
C 282.00 164.92 281.47 171.11 282.00 177.00 Z"/>
</g>
<g fill="#A2DAFC" fill-opacity="1.00" stroke="None">
<path d="
M 227.00 196.00 
C 207.51 214.23 189.48 236.91 186.00 264.00
C 181.81 262.17 177.31 261.35 173.00 260.00
C 172.65 259.89 172.05 259.35 172.00 259.00
C 153.90 256.01 132.50 256.89 116.00 265.00
C 115.95 265.35 115.28 265.77 115.00 266.00
C 104.46 274.79 90.58 279.28 81.75 291.75 C 72.93 304.23 66.16 317.00 63.00 332.00
C 62.35 335.06 61.26 339.33 61.00 342.00
C 61.00 344.67 61.00 347.33 61.00 350.00
C 30.91 352.94 5.44 379.15 0.00 408.00
L 0.00 412.00
C 7.27 434.59 15.82 455.72 41.23 465.77 C 66.64 475.82 100.53 471.46 130.00 472.00 C 159.47 472.54 194.78 471.84 225.00 472.00 C 255.22 472.16 291.10 472.11 321.00 472.00 C 350.90 471.89 387.27 472.82 415.22 471.22 C 443.18 469.62 460.19 458.01 479.75 440.75 C 499.31 423.49 506.86 400.48 512.00 377.00
L 512.00 368.00
C 506.50 333.64 482.79 296.52 448.00 284.00
C 430.89 277.84 413.22 273.36 394.00 275.00
C 394.00 273.33 394.00 271.67 394.00 270.00
C 393.35 267.32 393.00 264.29 393.00 261.00
C 388.45 232.95 365.37 200.14 338.00 189.00
C 319.77 181.58 303.46 177.00 283.00 177.00
C 283.00 177.00 282.50 177.05 282.00 177.00
C 272.73 176.12 259.40 179.89 251.23 183.23 C 243.05 186.57 233.50 190.39 227.00 196.00
M 200.00 327.00 
C 207.41 328.43 216.48 330.78 221.75 339.25 C 227.02 347.72 213.09 353.86 205.77 346.23 C 198.45 338.60 187.08 340.41 178.75 345.75 C 170.42 351.10 175.95 362.95 185.23 364.77 C 194.51 366.59 201.86 371.11 210.08 374.92 C 218.30 378.74 222.55 385.63 224.99 394.01 C 227.43 402.39 224.06 412.69 217.25 419.25 C 210.44 425.81 201.40 428.15 192.00 429.00 C 182.60 429.85 172.46 424.71 164.92 421.08 C 157.38 417.45 149.04 405.77 158.70 401.70 C 168.36 397.62 172.82 411.27 182.02 411.98 C 191.23 412.68 200.28 415.92 207.25 407.25 C 214.21 398.58 207.69 389.00 198.77 386.23 C 189.85 383.46 182.34 379.65 173.77 376.23 C 165.20 372.80 159.51 365.34 159.02 355.98 C 158.53 346.61 162.72 337.87 170.75 332.75 C 178.77 327.62 189.88 325.05 200.00 327.00
M 255.00 342.00 
C 255.00 351.33 255.00 360.67 255.00 370.00
C 263.07 373.16 287.98 363.01 288.97 377.03 C 289.97 391.04 264.14 384.74 256.00 386.00
C 256.00 395.00 256.00 404.00 256.00 413.00
C 266.69 415.88 278.38 408.39 288.23 414.77 C 298.08 421.16 284.94 432.82 276.00 429.00 C 267.06 425.18 250.42 434.19 243.25 426.75 C 236.09 419.30 240.54 405.97 240.00 396.00 C 239.46 386.03 239.18 370.97 240.00 361.00 C 240.82 351.03 236.06 337.26 242.25 329.25 C 248.45 321.25 266.78 331.31 275.00 327.00 C 283.22 322.69 298.76 334.43 288.75 340.75 C 278.75 347.08 265.82 338.61 255.00 342.00
M 358.00 327.00 
C 395.62 332.37 414.24 378.56 391.25 408.25 C 368.26 437.94 321.94 435.35 304.70 400.30 C 287.45 365.26 317.60 321.23 358.00 327.00 Z"/>
</g>
<g fill="#95D7A4" fill-opacity="0.23" stroke="None">
<path d="
M 393.00 261.00 
C 393.00 264.29 393.35 267.32 394.00 270.00
C 391.94 252.95 396.45 234.99 394.00 218.00
C 393.73 217.80 393.05 217.23 393.00 217.00
C 393.00 231.67 393.00 246.33 393.00 261.00 Z"/>
</g>
<g fill="#95D6A4" fill-opacity="1.00" stroke="None">
<path d="
M 394.00 270.00 
C 394.00 271.67 394.00 273.33 394.00 275.00
C 413.22 273.36 430.89 277.84 448.00 284.00
C 448.00 277.33 448.00 270.67 448.00 264.00
C 438.51 256.11 415.95 262.94 408.98 253.02 C 402.00 243.11 404.72 226.01 394.00 218.00
C 396.45 234.99 391.94 252.95 394.00 270.00 Z"/>
</g>
<g fill="#C7495D" fill-opacity="0.62" stroke="None">
<path d="
M 114.00 247.00 
C 113.48 249.66 113.95 262.71 115.00 266.00
C 115.28 265.77 115.95 265.35 116.00 265.00
C 116.87 258.95 116.00 252.12 116.00 246.00
C 116.31 245.49 113.60 247.17 114.00 247.00 Z"/>
</g>
<g fill="#C64A5E" fill-opacity="1.00" stroke="None">
<path d="
M 62.00 287.00 
C 62.00 301.89 62.75 317.84 63.00 332.00
C 66.16 317.00 72.93 304.23 81.75 291.75 C 90.58 279.28 104.46 274.79 115.00 266.00
C 113.95 262.71 113.48 249.66 114.00 247.00
C 104.82 250.92 91.38 256.08 84.25 263.25 C 77.12 270.41 64.99 277.55 62.00 287.00 Z"/>
</g>
<g fill="#FDFEFE" fill-opacity="1.00" stroke="None">
<path d="
M 200.00 327.00 
C 189.88 325.05 178.77 327.62 170.75 332.75 C 162.72 337.87 158.53 346.61 159.02 355.98 C 159.51 365.34 165.20 372.80 173.77 376.23 C 182.34 379.65 189.85 383.46 198.77 386.23 C 207.69 389.00 214.21 398.58 207.25 407.25 C 200.28 415.92 191.23 412.68 182.02 411.98 C 172.82 411.27 168.36 397.62 158.70 401.70 C 149.04 405.77 157.38 417.45 164.92 421.08 C 172.46 424.71 182.60 429.85 192.00 429.00 C 201.40 428.15 210.44 425.81 217.25 419.25 C 224.06 412.69 227.43 402.39 224.99 394.01 C 222.55 385.63 218.30 378.74 210.08 374.92 C 201.86 371.11 194.51 366.59 185.23 364.77 C 175.95 362.95 170.42 351.10 178.75 345.75 C 187.08 340.41 198.45 338.60 205.77 346.23 C 213.09 353.86 227.02 347.72 221.75 339.25 C 216.48 330.78 207.41 328.43 200.00 327.00 Z"/>
</g>
<g fill="#FDFEFE" fill-opacity="1.00" stroke="None">
<path d="
M 255.00 342.00 
C 265.82 338.61 278.75 347.08 288.75 340.75 C 298.76 334.43 283.22 322.69 275.00 327.00 C 266.78 331.31 248.45 321.25 242.25 329.25 C 236.06 337.26 240.82 351.03 240.00 361.00 C 239.18 370.97 239.46 386.03 240.00 396.00 C 240.54 405.97 236.09 419.30 243.25 426.75 C 250.42 434.19 267.06 425.18 276.00 429.00 C 284.94 432.82 298.08 421.16 288.23 414.77 C 278.38 408.39 266.69 415.88 256.00 413.00
C 256.00 404.00 256.00 395.00 256.00 386.00
C 264.14 384.74 289.97 391.04 288.97 377.03 C 287.98 363.01 263.07 373.16 255.00 370.00
C 255.00 360.67 255.00 351.33 255.00 342.00 Z"/>
</g>
<g fill="#FEFEFE" fill-opacity="1.00" stroke="None">
<path d="
M 358.00 327.00 
C 317.60 321.23 287.45 365.26 304.70 400.30 C 321.94 435.35 368.26 437.94 391.25 408.25 C 414.24 378.56 395.62 332.37 358.00 327.00
M 355.00 342.00 
C 381.54 345.21 395.19 378.12 379.25 399.25 C 363.30 420.37 331.49 418.12 318.75 394.25 C 306.00 370.39 327.01 338.62 355.00 342.00 Z"/>
</g>
<g fill="#A3DAFD" fill-opacity="1.00" stroke="None">
<path d="
M 355.00 342.00 
C 327.01 338.62 306.00 370.39 318.75 394.25 C 331.49 418.12 363.30 420.37 379.25 399.25 C 395.19 378.12 381.54 345.21 355.00 342.00 Z"/>
</g>
<g fill="#83C8EA" fill-opacity="0.96" stroke="None">
<path d="
M 0.00 412.00 
L 0.00 432.00
C 7.19 454.61 15.72 475.11 41.08 484.92 C 66.43 494.74 100.63 490.50 130.00 491.00 C 159.37 491.50 194.95 490.93 225.00 491.00 C 255.05 491.07 290.34 491.32 320.00 491.00 C 349.66 490.68 386.83 492.06 414.67 490.67 C 442.51 489.28 460.06 477.30 479.75 460.75 C 499.44 444.20 506.17 420.64 512.00 398.00
L 512.00 377.00
C 506.86 400.48 499.31 423.49 479.75 440.75 C 460.19 458.01 443.18 469.62 415.22 471.22 C 387.27 472.82 350.90 471.89 321.00 472.00 C 291.10 472.11 255.22 472.16 225.00 472.00 C 194.78 471.84 159.47 472.54 130.00 472.00 C 100.53 471.46 66.64 475.82 41.23 465.77 C 15.82 455.72 7.27 434.59 0.00 412.00 Z"/>
</g>
<g fill="#000000" fill-opacity="0.00" stroke="None">
<path d="
M 0.00 432.00 
L 0.00 512.00
L 512.00 512.00
L 512.00 398.00
C 506.17 420.64 499.44 444.20 479.75 460.75 C 460.06 477.30 442.51 489.28 414.67 490.67 C 386.83 492.06 349.66 490.68 320.00 491.00 C 290.34 491.32 255.05 491.07 225.00 491.00 C 194.95 490.93 159.37 491.50 130.00 491.00 C 100.63 490.50 66.43 494.74 41.08 484.92 C 15.72 475.11 7.19 454.61 0.00 432.00 Z"/>
</g>
</svg>