<svg xmlns="http://www.w3.org/2000/svg" xmlns:v="https://svgstorm.com"
viewBox = "0 0 512 512"
width="512"
height="512">
<g fill="None" fill-opacity="0.0" stroke="#000000" stroke-opacity="0.00" stroke-width="0.3"><path d="
M 0.00 512.00 
L 266.00 512.00
C 257.19 507.21 262.38 495.29 261.00 487.00
C 236.61 484.92 192.25 496.27 182.69 465.31 C 173.14 434.34 184.25 400.20 180.00 368.00
C 172.14 370.71 165.40 380.85 157.92 383.92 C 150.43 386.99 143.72 401.96 134.33 397.67 C 124.94 393.38 132.40 371.13 130.00 363.00
C 114.82 363.18 95.80 362.76 81.00 363.00 C 66.20 363.24 49.24 364.20 37.77 356.23 C 26.30 348.26 19.29 340.78 17.02 326.98 C 14.76 313.17 15.45 292.35 16.00 278.00 C 16.55 263.65 10.66 242.70 23.00 235.00
C 23.00 224.67 23.00 214.33 23.00 204.00
C 11.57 203.21 15.93 182.36 16.93 173.93 C 17.92 165.49 22.71 154.93 30.25 148.25 C 37.79 141.57 45.81 136.72 57.00 136.00 C 68.20 135.28 82.73 134.65 95.00 135.00 C 107.27 135.35 121.43 134.77 134.00 135.00 C 146.57 135.23 160.41 134.74 173.00 135.00 C 185.59 135.26 198.21 133.79 210.00 137.00
C 208.77 115.57 211.63 87.80 210.00 67.00 C 208.37 46.20 214.74 28.21 227.75 15.75 C 240.76 3.30 244.95 3.67 263.00 0.00
L 0.00 0.00
L 0.00 512.00 Z"/>
</g>
<g fill="None" fill-opacity="0.0" stroke="#000000" stroke-opacity="1.00" stroke-width="0.3"><path d="
M 23.00 204.00 
C 36.63 204.94 28.62 182.20 31.78 173.78 C 34.94 165.35 39.26 155.21 50.22 152.22 C 61.19 149.24 75.47 149.92 88.00 150.00 C 100.53 150.08 115.09 149.97 128.00 150.00 C 140.91 150.03 154.98 150.00 168.00 150.00
C 180.25 150.00 197.14 148.99 208.22 151.78 C 219.31 154.57 225.59 163.44 228.93 173.07 C 232.26 182.71 229.16 184.70 230.00 193.00 C 230.84 201.30 229.67 206.45 230.00 214.00 C 230.33 221.55 229.97 227.82 230.00 235.00 C 230.03 242.18 230.25 249.08 230.00 256.00 C 229.75 262.92 230.69 270.39 230.00 277.00 C 229.31 283.61 231.60 291.96 230.00 298.00 C 228.40 304.04 233.38 315.17 230.00 320.00
C 227.99 322.88 215.57 320.86 212.00 321.00
C 200.57 321.44 188.23 328.43 183.00 339.00
C 181.76 348.28 174.66 353.51 167.30 358.30 C 159.94 363.10 154.68 369.92 147.00 374.00
C 146.12 374.47 145.77 376.88 144.00 376.00
C 144.00 368.67 144.00 361.33 144.00 354.00
C 142.67 350.39 141.48 350.06 138.00 349.00
C 112.12 344.62 83.32 352.54 58.00 348.00
C 48.13 347.33 40.97 342.21 35.23 333.77 C 29.49 325.33 31.29 311.10 31.00 301.00 C 30.71 290.90 31.63 273.12 31.00 264.00 C 30.37 254.88 35.44 234.14 23.00 235.00
C 10.66 242.70 16.55 263.65 16.00 278.00 C 15.45 292.35 14.76 313.17 17.02 326.98 C 19.29 340.78 26.30 348.26 37.77 356.23 C 49.24 364.20 66.20 363.24 81.00 363.00 C 95.80 362.76 114.82 363.18 130.00 363.00
C 132.40 371.13 124.94 393.38 134.33 397.67 C 143.72 401.96 150.43 386.99 157.92 383.92 C 165.40 380.85 172.14 370.71 180.00 368.00
C 184.25 400.20 173.14 434.34 182.69 465.31 C 192.25 496.27 236.61 484.92 261.00 487.00
C 262.38 495.29 257.19 507.21 266.00 512.00
L 269.00 512.00
C 276.82 505.51 284.90 502.41 292.25 494.25 C 299.59 486.09 314.21 487.34 323.67 484.67 C 333.13 482.00 341.16 472.36 343.93 463.93 C 346.69 455.49 350.67 434.36 339.00 432.00
C 334.36 432.53 333.25 433.87 332.00 438.00
C 331.06 443.55 332.04 449.98 331.00 455.00
C 328.14 468.80 315.93 473.13 303.00 472.00 C 290.07 470.87 285.92 485.58 275.00 489.00
C 275.00 485.67 275.00 482.33 275.00 479.00
C 273.08 467.63 257.39 472.84 248.00 472.00 C 238.61 471.16 222.86 472.58 213.00 472.00 C 203.14 471.42 196.96 463.84 195.00 455.00
C 191.60 439.64 194.09 420.31 194.00 404.00 C 193.91 387.69 191.83 368.32 195.00 353.00
C 197.08 342.94 201.93 338.09 212.00 336.00
C 235.04 331.23 263.86 335.00 288.00 335.00
C 296.58 335.00 306.22 334.39 314.00 336.00
C 324.06 338.08 328.92 342.93 331.00 353.00
C 333.58 365.46 329.81 380.02 332.00 393.00
C 333.30 397.28 334.89 398.64 339.00 400.00
C 339.45 400.15 340.00 400.00 340.00 400.00
C 349.64 389.93 345.27 373.71 346.00 360.00 C 346.73 346.29 342.93 335.88 331.75 327.25 C 320.57 318.62 305.36 321.25 291.00 321.00 C 276.64 320.75 258.69 321.19 244.00 321.00
C 244.65 307.75 242.69 293.81 245.00 281.00
C 278.07 289.76 315.25 282.75 350.00 285.00
C 353.09 297.65 345.88 311.46 350.00 324.00 C 354.12 336.54 367.90 322.80 374.25 318.25 C 380.59 313.69 388.71 305.88 396.25 301.25 C 403.78 296.61 410.65 287.15 420.01 285.01 C 429.37 282.87 447.85 287.38 457.01 283.01 C 466.17 278.63 474.65 275.63 481.25 267.25 C 487.84 258.87 492.30 252.84 494.78 241.78 C 497.26 230.72 495.66 215.27 496.00 203.00 C 496.34 190.73 495.89 176.65 496.00 164.00 C 496.11 151.35 496.02 136.68 496.00 124.00 C 495.98 111.32 496.19 97.36 496.00 85.00 C 495.81 72.64 496.89 57.25 495.00 46.00 C 493.12 34.74 488.78 28.40 483.30 20.70 C 477.83 12.99 470.77 9.94 465.25 6.61 C 459.72 3.27 451.57 0.78 442.00 0.00
L 416.00 0.00
C 413.18 2.30 410.85 3.10 411.00 7.00
C 411.33 15.44 418.21 15.00 425.00 15.00
C 446.83 15.00 476.02 19.19 479.98 46.02 C 483.93 72.86 479.23 105.03 481.00 132.00 C 482.77 158.97 478.77 193.52 481.00 219.00 C 483.23 244.48 471.22 268.58 445.00 270.00
C 435.70 271.51 424.85 269.78 415.00 271.00
C 395.88 275.74 382.79 298.76 365.00 307.00
C 364.64 293.37 370.21 270.10 352.00 271.00 C 333.79 271.90 319.31 270.91 302.00 271.00 C 284.69 271.09 271.23 272.56 254.93 269.07 C 238.62 265.59 245.88 243.41 245.00 229.00 C 244.12 214.59 245.02 194.81 245.00 180.00 C 244.98 165.19 237.58 157.12 228.75 146.25 C 219.93 135.37 226.05 115.30 225.00 101.00 C 223.95 86.70 224.58 65.30 225.00 51.00 C 225.42 36.70 233.23 29.57 244.23 21.23 C 255.23 12.89 273.70 15.61 288.00 15.00 C 302.30 14.39 322.67 16.30 337.00 15.00 C 351.33 13.70 372.97 21.21 379.00 7.00
C 379.07 3.43 374.53 1.68 372.00 0.00
L 263.00 0.00
C 244.95 3.67 240.76 3.30 227.75 15.75 C 214.74 28.21 208.37 46.20 210.00 67.00 C 211.63 87.80 208.77 115.57 210.00 137.00
C 198.21 133.79 185.59 135.26 173.00 135.00 C 160.41 134.74 146.57 135.23 134.00 135.00 C 121.43 134.77 107.27 135.35 95.00 135.00 C 82.73 134.65 68.20 135.28 57.00 136.00 C 45.81 136.72 37.79 141.57 30.25 148.25 C 22.71 154.93 17.92 165.49 16.93 173.93 C 15.93 182.36 11.57 203.21 23.00 204.00 Z"/>
</g>
<g fill="None" fill-opacity="0.0" stroke="#000000" stroke-opacity="0.02" stroke-width="0.3"><path d="
M 379.00 7.00 
C 388.00 10.87 401.58 4.10 411.00 7.00
C 410.85 3.10 413.18 2.30 416.00 0.00
L 372.00 0.00
C 374.53 1.68 379.07 3.43 379.00 7.00 Z"/>
</g>
<g fill="None" fill-opacity="0.0" stroke="#000000" stroke-opacity="0.01" stroke-width="0.3"><path d="
M 340.00 400.00 
C 340.43 404.79 340.25 411.31 340.00 416.00 C 339.75 420.69 341.57 427.51 339.00 431.00
C 339.00 431.50 339.00 432.00 339.00 432.00
C 350.67 434.36 346.69 455.49 343.93 463.93 C 341.16 472.36 333.13 482.00 323.67 484.67 C 314.21 487.34 299.59 486.09 292.25 494.25 C 284.90 502.41 276.82 505.51 269.00 512.00
L 512.00 512.00
L 512.00 0.00
L 442.00 0.00
C 451.57 0.78 459.72 3.27 465.25 6.61 C 470.77 9.94 477.83 12.99 483.30 20.70 C 488.78 28.40 493.12 34.74 495.00 46.00 C 496.89 57.25 495.81 72.64 496.00 85.00 C 496.19 97.36 495.98 111.32 496.00 124.00 C 496.02 136.68 496.11 151.35 496.00 164.00 C 495.89 176.65 496.34 190.73 496.00 203.00 C 495.66 215.27 497.26 230.72 494.78 241.78 C 492.30 252.84 487.84 258.87 481.25 267.25 C 474.65 275.63 466.17 278.63 457.01 283.01 C 447.85 287.38 429.37 282.87 420.01 285.01 C 410.65 287.15 403.78 296.61 396.25 301.25 C 388.71 305.88 380.59 313.69 374.25 318.25 C 367.90 322.80 354.12 336.54 350.00 324.00 C 345.88 311.46 353.09 297.65 350.00 285.00
C 315.25 282.75 278.07 289.76 245.00 281.00
C 242.69 293.81 244.65 307.75 244.00 321.00
C 258.69 321.19 276.64 320.75 291.00 321.00 C 305.36 321.25 320.57 318.62 331.75 327.25 C 342.93 335.88 346.73 346.29 346.00 360.00 C 345.27 373.71 349.64 389.93 340.00 400.00 Z"/>
</g>
<g fill="None" fill-opacity="0.0" stroke="#F5F1EF" stroke-opacity="1.00" stroke-width="0.3"><path d="
M 415.00 271.00 
C 418.28 270.19 422.09 270.00 426.00 270.00
C 434.69 267.36 437.76 257.46 442.77 249.77 C 447.78 242.09 447.10 227.69 447.00 217.00 C 446.90 206.31 447.01 191.58 447.00 180.00 C 446.99 168.42 446.95 153.80 447.00 142.00 C 447.05 130.20 446.84 116.54 447.00 105.00 C 447.16 93.46 446.63 78.76 447.00 68.00 C 447.37 57.24 447.18 43.48 442.23 35.77 C 437.27 28.06 433.81 17.67 425.00 15.00
C 418.21 15.00 411.33 15.44 411.00 7.00
C 401.58 4.10 388.00 10.87 379.00 7.00
C 372.97 21.21 351.33 13.70 337.00 15.00 C 322.67 16.30 302.30 14.39 288.00 15.00 C 273.70 15.61 255.23 12.89 244.23 21.23 C 233.23 29.57 225.42 36.70 225.00 51.00 C 224.58 65.30 223.95 86.70 225.00 101.00 C 226.05 115.30 219.93 135.37 228.75 146.25 C 237.58 157.12 244.98 165.19 245.00 180.00 C 245.02 194.81 244.12 214.59 245.00 229.00 C 245.88 243.41 238.62 265.59 254.93 269.07 C 271.23 272.56 284.69 271.09 302.00 271.00 C 319.31 270.91 333.79 271.90 352.00 271.00 C 370.21 270.10 364.64 293.37 365.00 307.00
C 382.79 298.76 395.88 275.74 415.00 271.00
M 422.00 228.00 
C 410.07 230.47 395.75 228.71 383.00 229.00 C 370.25 229.29 355.94 229.71 344.00 228.00
C 335.68 227.68 328.18 225.05 321.00 221.00
C 308.84 231.11 299.09 220.89 283.00 225.00 C 266.91 229.11 264.82 212.36 267.00 199.00 C 269.18 185.64 265.00 169.90 267.00 157.00 C 269.00 144.10 261.30 126.79 273.00 120.00
C 282.90 116.87 305.15 117.01 315.00 120.00
C 317.28 120.69 319.25 121.01 321.00 123.00
C 330.00 113.02 334.82 105.59 344.75 95.75 C 354.69 85.91 346.65 67.74 358.25 58.25 C 369.85 48.76 384.15 61.27 386.32 74.68 C 388.49 88.09 390.80 105.19 383.00 118.00
C 397.59 121.12 426.52 110.61 435.75 126.25 C 444.98 141.89 436.68 166.85 439.00 184.00 C 441.32 201.15 442.02 225.20 422.00 228.00 Z"/>
</g>
<g fill="None" fill-opacity="0.0" stroke="#EAE0DB" stroke-opacity="1.00" stroke-width="0.3"><path d="
M 426.00 270.00 
C 432.30 270.00 438.71 270.34 445.00 270.00
C 471.22 268.58 483.23 244.48 481.00 219.00 C 478.77 193.52 482.77 158.97 481.00 132.00 C 479.23 105.03 483.93 72.86 479.98 46.02 C 476.02 19.19 446.83 15.00 425.00 15.00
C 433.81 17.67 437.27 28.06 442.23 35.77 C 447.18 43.48 447.37 57.24 447.00 68.00 C 446.63 78.76 447.16 93.46 447.00 105.00 C 446.84 116.54 447.05 130.20 447.00 142.00 C 446.95 153.80 446.99 168.42 447.00 180.00 C 447.01 191.58 446.90 206.31 447.00 217.00 C 447.10 227.69 447.78 242.09 442.77 249.77 C 437.76 257.46 434.69 267.36 426.00 270.00 Z"/>
</g>
<g fill="None" fill-opacity="0.0" stroke="#000000" stroke-opacity="1.00" stroke-width="0.3"><path d="
M 315.00 120.00 
C 308.45 118.89 300.66 119.98 294.00 120.00 C 287.34 120.02 279.54 118.83 273.00 120.00
C 261.30 126.79 269.00 144.10 267.00 157.00 C 265.00 169.90 269.18 185.64 267.00 199.00 C 264.82 212.36 266.91 229.11 283.00 225.00 C 299.09 220.89 308.84 231.11 321.00 221.00
C 328.18 225.05 335.68 227.68 344.00 228.00
C 369.30 228.97 396.80 230.29 422.00 228.00
C 442.02 225.20 441.32 201.15 439.00 184.00 C 436.68 166.85 444.98 141.89 435.75 126.25 C 426.52 110.61 397.59 121.12 383.00 118.00
C 390.80 105.19 388.49 88.09 386.32 74.68 C 384.15 61.27 369.85 48.76 358.25 58.25 C 346.65 67.74 354.69 85.91 344.75 95.75 C 334.82 105.59 330.00 113.02 321.00 123.00
C 319.25 121.01 317.28 120.69 315.00 120.00
M 369.00 71.00 
C 377.96 86.14 373.16 106.17 365.23 120.23 C 357.30 134.29 373.03 133.53 382.00 133.00 C 390.97 132.47 402.88 134.61 414.00 133.00 C 425.12 131.39 425.46 145.39 424.00 155.00 C 422.54 164.61 425.62 178.21 424.00 187.00 C 422.38 195.79 429.04 211.85 418.97 213.97 C 408.91 216.10 397.35 212.91 387.00 214.00 C 376.65 215.09 366.54 213.25 356.00 214.00 C 345.46 214.75 339.46 212.27 329.77 208.23 C 320.08 204.19 322.02 193.70 322.00 184.00 C 321.98 174.30 322.67 161.51 322.00 152.00 C 321.33 142.49 327.60 137.54 333.25 131.25 C 338.91 124.97 342.83 120.41 348.25 114.25 C 353.68 108.10 357.99 103.09 361.77 95.77 C 365.55 88.45 366.11 77.13 369.00 71.00
M 307.00 135.00 
C 309.89 139.13 305.77 147.65 307.00 153.00 C 308.23 158.35 306.43 166.13 307.00 172.00 C 307.57 177.87 306.70 184.91 307.00 191.00 C 307.30 197.09 306.78 203.85 307.00 210.00
C 298.67 210.00 290.33 210.00 282.00 210.00
C 282.00 185.00 282.00 160.00 282.00 135.00
C 283.55 132.78 291.19 133.87 294.00 134.00 C 296.81 134.13 305.33 132.62 307.00 135.00 Z"/>
</g>
<g fill="None" fill-opacity="0.0" stroke="#FDD16B" stroke-opacity="1.00" stroke-width="0.3"><path d="
M 369.00 71.00 
C 366.11 77.13 365.55 88.45 361.77 95.77 C 357.99 103.09 353.68 108.10 348.25 114.25 C 342.83 120.41 338.91 124.97 333.25 131.25 C 327.60 137.54 321.33 142.49 322.00 152.00 C 322.67 161.51 321.98 174.30 322.00 184.00 C 322.02 193.70 320.08 204.19 329.77 208.23 C 339.46 212.27 345.46 214.75 356.00 214.00 C 366.54 213.25 376.65 215.09 387.00 214.00 C 397.35 212.91 408.91 216.10 418.97 213.97 C 429.04 211.85 422.38 195.79 424.00 187.00 C 425.62 178.21 422.54 164.61 424.00 155.00 C 425.46 145.39 425.12 131.39 414.00 133.00 C 402.88 134.61 390.97 132.47 382.00 133.00 C 373.03 133.53 357.30 134.29 365.23 120.23 C 373.16 106.17 377.96 86.14 369.00 71.00 Z"/>
</g>
<g fill="None" fill-opacity="0.0" stroke="#848281" stroke-opacity="1.00" stroke-width="0.3"><path d="
M 273.00 120.00 
C 279.54 118.83 287.34 120.02 294.00 120.00 C 300.66 119.98 308.45 118.89 315.00 120.00
C 305.15 117.01 282.90 116.87 273.00 120.00 Z"/>
</g>
<g fill="None" fill-opacity="0.0" stroke="#426B71" stroke-opacity="1.00" stroke-width="0.3"><path d="
M 282.00 135.00 
C 290.33 135.00 298.67 135.00 307.00 135.00
C 305.33 132.62 296.81 134.13 294.00 134.00 C 291.19 133.87 283.55 132.78 282.00 135.00 Z"/>
</g>
<g fill="None" fill-opacity="0.0" stroke="#8EE6F2" stroke-opacity="1.00" stroke-width="0.3"><path d="
M 307.00 135.00 
C 298.67 135.00 290.33 135.00 282.00 135.00
C 282.00 160.00 282.00 185.00 282.00 210.00
C 290.33 210.00 298.67 210.00 307.00 210.00
C 306.78 203.85 307.30 197.09 307.00 191.00 C 306.70 184.91 307.57 177.87 307.00 172.00 C 306.43 166.13 308.23 158.35 307.00 153.00 C 305.77 147.65 309.89 139.13 307.00 135.00 Z"/>
</g>
<g fill="None" fill-opacity="0.0" stroke="#4DD4E9" stroke-opacity="1.00" stroke-width="0.3"><path d="
M 23.00 204.00 
C 23.00 214.33 23.00 224.67 23.00 235.00
C 35.44 234.14 30.37 254.88 31.00 264.00 C 31.63 273.12 30.71 290.90 31.00 301.00 C 31.29 311.10 29.49 325.33 35.23 333.77 C 40.97 342.21 48.13 347.33 58.00 348.00
C 71.08 348.89 85.00 346.83 98.00 348.00 C 111.00 349.17 126.06 345.38 138.00 349.00
C 141.48 350.06 142.67 350.39 144.00 354.00
C 145.45 357.92 143.46 374.40 147.00 374.00
C 154.68 369.92 159.94 363.10 167.30 358.30 C 174.66 353.51 181.76 348.28 183.00 339.00
C 184.38 328.67 182.84 317.44 183.00 307.00 C 183.16 296.56 183.94 285.40 183.00 275.00
C 182.52 275.09 182.00 275.00 182.00 275.00
C 178.23 277.79 170.29 274.66 166.00 276.00 C 161.71 277.34 153.00 273.34 150.00 277.00
C 147.24 281.74 149.33 290.75 147.07 296.07 C 144.82 301.40 146.81 309.41 138.00 309.00 C 129.18 308.58 132.44 299.90 131.99 294.99 C 131.54 290.09 137.59 279.91 135.00 276.00
C 129.00 276.00 123.00 276.00 117.00 276.00
C 111.13 282.80 120.14 308.58 105.99 308.99 C 91.84 309.40 101.29 283.75 102.00 276.00
C 94.44 275.55 85.76 277.05 79.00 275.00
C 70.89 272.54 70.89 263.46 79.00 261.00
C 82.26 260.01 87.41 260.54 91.00 260.00 C 94.59 259.46 101.15 261.84 104.00 260.00
C 107.64 256.64 105.35 246.61 107.00 242.00
C 98.57 240.45 70.52 247.68 73.00 233.00 C 75.48 218.32 103.38 232.88 109.89 225.89 C 116.41 218.91 107.56 193.63 122.00 194.00 C 136.44 194.38 125.09 219.23 125.00 227.00
C 133.73 227.63 143.78 228.84 144.78 219.78 C 145.77 210.72 145.51 204.63 148.93 196.93 C 152.35 189.22 165.20 195.92 162.22 203.22 C 159.24 210.52 161.38 219.54 159.00 227.00
C 166.67 227.00 174.33 227.00 182.00 227.00
C 186.18 224.08 181.83 210.33 183.00 205.00 C 184.17 199.67 182.58 187.57 183.00 182.00 C 183.42 176.43 181.53 167.32 178.69 163.31 C 175.86 159.29 172.54 151.68 168.00 150.00
C 154.98 150.00 140.91 150.03 128.00 150.00 C 115.09 149.97 100.53 150.08 88.00 150.00 C 75.47 149.92 61.19 149.24 50.22 152.22 C 39.26 155.21 34.94 165.35 31.78 173.78 C 28.62 182.20 36.63 204.94 23.00 204.00 Z"/>
</g>
<g fill="None" fill-opacity="0.0" stroke="#61A5FC" stroke-opacity="1.00" stroke-width="0.3"><path d="
M 182.00 227.00 
C 188.60 228.54 190.69 239.70 183.00 242.00
C 180.98 247.48 185.36 255.68 183.00 261.00
C 189.84 262.11 189.64 273.73 183.00 275.00
C 183.94 285.40 183.16 296.56 183.00 307.00 C 182.84 317.44 184.38 328.67 183.00 339.00
C 188.23 328.43 200.57 321.44 212.00 321.00
C 217.30 320.24 224.00 319.49 230.00 320.00
C 233.38 315.17 228.40 304.04 230.00 298.00 C 231.60 291.96 229.31 283.61 230.00 277.00 C 230.69 270.39 229.75 262.92 230.00 256.00 C 230.25 249.08 230.03 242.18 230.00 235.00 C 229.97 227.82 230.33 221.55 230.00 214.00 C 229.67 206.45 230.84 201.30 230.00 193.00 C 229.16 184.70 232.26 182.71 228.93 173.07 C 225.59 163.44 219.31 154.57 208.22 151.78 C 197.14 148.99 180.25 150.00 168.00 150.00
C 172.54 151.68 175.86 159.29 178.69 163.31 C 181.53 167.32 183.42 176.43 183.00 182.00 C 182.58 187.57 184.17 199.67 183.00 205.00 C 181.83 210.33 186.18 224.08 182.00 227.00 Z"/>
</g>
<g fill="None" fill-opacity="0.0" stroke="#000000" stroke-opacity="1.00" stroke-width="0.3"><path d="
M 104.00 260.00 
C 99.53 264.13 85.13 259.96 79.00 261.00
C 70.89 263.46 70.89 272.54 79.00 275.00
C 86.40 276.25 95.40 273.23 102.00 276.00
C 101.29 283.75 91.84 309.40 105.99 308.99 C 120.14 308.58 111.13 282.80 117.00 276.00
C 118.65 274.09 133.58 273.87 135.00 276.00
C 137.59 279.91 131.54 290.09 131.99 294.99 C 132.44 299.90 129.18 308.58 138.00 309.00 C 146.81 309.41 144.82 301.40 147.07 296.07 C 149.33 290.75 147.24 281.74 150.00 277.00
C 152.46 272.77 160.35 275.50 165.00 275.00 C 169.65 274.50 177.10 275.00 182.00 275.00
C 182.00 275.00 182.52 275.09 183.00 275.00
C 189.64 273.73 189.84 262.11 183.00 261.00
C 182.51 260.92 181.50 261.00 181.00 261.00
C 171.83 261.00 161.34 261.83 153.00 260.00
C 154.27 254.08 155.28 248.09 156.00 242.00
C 165.00 242.00 174.00 242.00 183.00 242.00
C 190.69 239.70 188.60 228.54 182.00 227.00
C 174.33 227.00 166.67 227.00 159.00 227.00
C 161.38 219.54 159.24 210.52 162.22 203.22 C 165.20 195.92 152.35 189.22 148.93 196.93 C 145.51 204.63 145.77 210.72 144.78 219.78 C 143.78 228.84 133.73 227.63 125.00 227.00
C 125.09 219.23 136.44 194.38 122.00 194.00 C 107.56 193.63 116.41 218.91 109.89 225.89 C 103.38 232.88 75.48 218.32 73.00 233.00 C 70.52 247.68 98.57 240.45 107.00 242.00
C 105.35 246.61 107.64 256.64 104.00 260.00
M 138.00 260.00 
C 136.26 261.85 121.45 262.20 120.00 260.00
C 118.40 257.56 121.75 247.11 122.78 243.78 C 123.81 240.45 137.44 242.57 141.00 242.00
C 140.03 247.99 138.97 253.98 138.00 260.00 Z"/>
</g>
<g fill="None" fill-opacity="0.0" stroke="#646261" stroke-opacity="1.00" stroke-width="0.3"><path d="
M 422.00 228.00 
C 396.80 230.29 369.30 228.97 344.00 228.00
C 355.94 229.71 370.25 229.29 383.00 229.00 C 395.75 228.71 410.07 230.47 422.00 228.00 Z"/>
</g>
<g fill="None" fill-opacity="0.0" stroke="#4BCEE2" stroke-opacity="1.00" stroke-width="0.3"><path d="
M 120.00 260.00 
C 126.00 260.00 132.00 260.00 138.00 260.00
C 138.97 253.98 140.03 247.99 141.00 242.00
C 137.44 242.57 123.81 240.45 122.78 243.78 C 121.75 247.11 118.40 257.56 120.00 260.00 Z"/>
</g>
<g fill="None" fill-opacity="0.0" stroke="#4CD0E5" stroke-opacity="1.00" stroke-width="0.3"><path d="
M 153.00 260.00 
C 161.84 261.44 173.10 257.64 181.00 261.00
C 181.50 261.00 182.51 260.92 183.00 261.00
C 185.36 255.68 180.98 247.48 183.00 242.00
C 174.00 242.00 165.00 242.00 156.00 242.00
C 155.28 248.09 154.27 254.08 153.00 260.00 Z"/>
</g>
<g fill="None" fill-opacity="0.0" stroke="#2A727D" stroke-opacity="1.00" stroke-width="0.3"><path d="
M 79.00 261.00 
C 85.13 259.96 99.53 264.13 104.00 260.00
C 101.15 261.84 94.59 259.46 91.00 260.00 C 87.41 260.54 82.26 260.01 79.00 261.00 Z"/>
</g>
<g fill="None" fill-opacity="0.0" stroke="#29717C" stroke-opacity="1.00" stroke-width="0.3"><path d="
M 138.00 260.00 
C 132.00 260.00 126.00 260.00 120.00 260.00
C 121.45 262.20 136.26 261.85 138.00 260.00 Z"/>
</g>
<g fill="None" fill-opacity="0.0" stroke="#29717C" stroke-opacity="1.00" stroke-width="0.3"><path d="
M 181.00 261.00 
C 173.10 257.64 161.84 261.44 153.00 260.00
C 161.34 261.83 171.83 261.00 181.00 261.00 Z"/>
</g>
<g fill="None" fill-opacity="0.0" stroke="#AAA5A2" stroke-opacity="1.00" stroke-width="0.3"><path d="
M 415.00 271.00 
C 424.85 269.78 435.70 271.51 445.00 270.00
C 438.71 270.34 432.30 270.00 426.00 270.00
C 422.09 270.00 418.28 270.19 415.00 271.00 Z"/>
</g>
<g fill="None" fill-opacity="0.0" stroke="#24636D" stroke-opacity="1.00" stroke-width="0.3"><path d="
M 102.00 276.00 
C 95.40 273.23 86.40 276.25 79.00 275.00
C 85.76 277.05 94.44 275.55 102.00 276.00 Z"/>
</g>
<g fill="None" fill-opacity="0.0" stroke="#23616B" stroke-opacity="1.00" stroke-width="0.3"><path d="
M 117.00 276.00 
C 123.00 276.00 129.00 276.00 135.00 276.00
C 133.58 273.87 118.65 274.09 117.00 276.00 Z"/>
</g>
<g fill="None" fill-opacity="0.0" stroke="#24646E" stroke-opacity="1.00" stroke-width="0.3"><path d="
M 150.00 277.00 
C 153.00 273.34 161.71 277.34 166.00 276.00 C 170.29 274.66 178.23 277.79 182.00 275.00
C 177.10 275.00 169.65 274.50 165.00 275.00 C 160.35 275.50 152.46 272.77 150.00 277.00 Z"/>
</g>
<g fill="None" fill-opacity="0.0" stroke="#345987" stroke-opacity="1.00" stroke-width="0.3"><path d="
M 212.00 321.00 
C 215.57 320.86 227.99 322.88 230.00 320.00
C 224.00 319.49 217.30 320.24 212.00 321.00 Z"/>
</g>
<g fill="None" fill-opacity="0.0" stroke="#74423D" stroke-opacity="1.00" stroke-width="0.3"><path d="
M 212.00 336.00 
C 236.86 333.74 263.02 336.00 288.00 336.00
C 287.75 335.75 288.00 335.00 288.00 335.00
C 263.86 335.00 235.04 331.23 212.00 336.00 Z"/>
</g>
<g fill="None" fill-opacity="0.0" stroke="#753152" stroke-opacity="1.00" stroke-width="0.3"><path d="
M 288.00 336.00 
C 288.50 336.00 289.00 336.00 289.00 336.00
C 297.22 336.00 305.82 335.26 314.00 336.00
C 306.22 334.39 296.58 335.00 288.00 335.00
C 288.00 335.00 287.75 335.75 288.00 336.00 Z"/>
</g>
<g fill="None" fill-opacity="0.0" stroke="#F98F83" stroke-opacity="1.00" stroke-width="0.3"><path d="
M 195.00 353.00 
C 193.49 369.66 194.93 387.27 195.00 404.00 C 195.07 420.73 193.29 438.37 195.00 455.00
C 196.96 463.84 203.14 471.42 213.00 472.00 C 222.86 472.58 238.61 471.16 248.00 472.00 C 257.39 472.84 273.08 467.63 275.00 479.00
C 285.06 476.11 292.01 471.39 295.78 460.78 C 299.54 450.17 294.27 433.20 297.00 422.00
C 285.54 435.15 267.15 448.70 251.25 438.75 C 235.36 428.79 219.50 416.83 220.00 396.00 C 220.50 375.17 244.72 360.04 262.00 374.00
C 272.31 366.63 287.05 367.72 297.00 375.00
C 295.18 368.18 297.81 359.26 296.67 352.33 C 295.53 345.40 292.93 341.63 289.00 336.00
C 289.00 336.00 288.50 336.00 288.00 336.00
C 263.02 336.00 236.86 333.74 212.00 336.00
C 201.93 338.09 197.08 342.94 195.00 353.00 Z"/>
</g>
<g fill="None" fill-opacity="0.0" stroke="#FD6BB4" stroke-opacity="1.00" stroke-width="0.3"><path d="
M 297.00 375.00 
C 310.77 386.42 307.54 409.91 297.00 422.00
C 294.27 433.20 299.54 450.17 295.78 460.78 C 292.01 471.39 285.06 476.11 275.00 479.00
C 275.00 482.33 275.00 485.67 275.00 489.00
C 285.92 485.58 290.07 470.87 303.00 472.00 C 315.93 473.13 328.14 468.80 331.00 455.00
C 331.52 449.24 330.46 443.07 332.00 438.00
C 333.25 433.87 334.36 432.53 339.00 432.00
C 339.00 432.00 339.00 431.50 339.00 431.00
C 339.00 420.81 338.08 410.14 339.00 400.00
C 334.89 398.64 333.30 397.28 332.00 393.00
C 328.40 381.13 332.16 365.81 331.00 353.00
C 328.92 342.93 324.06 338.08 314.00 336.00
C 305.82 335.26 297.22 336.00 289.00 336.00
C 292.93 341.63 295.53 345.40 296.67 352.33 C 297.81 359.26 295.18 368.18 297.00 375.00 Z"/>
</g>
<g fill="None" fill-opacity="0.0" stroke="#29717C" stroke-opacity="1.00" stroke-width="0.3"><path d="
M 138.00 349.00 
C 126.06 345.38 111.00 349.17 98.00 348.00 C 85.00 346.83 71.08 348.89 58.00 348.00
C 83.32 352.54 112.12 344.62 138.00 349.00 Z"/>
</g>
<g fill="None" fill-opacity="0.0" stroke="#77443E" stroke-opacity="1.00" stroke-width="0.3"><path d="
M 195.00 455.00 
C 193.29 438.37 195.07 420.73 195.00 404.00 C 194.93 387.27 193.49 369.66 195.00 353.00
C 191.83 368.32 193.91 387.69 194.00 404.00 C 194.09 420.31 191.60 439.64 195.00 455.00 Z"/>
</g>
<g fill="None" fill-opacity="0.0" stroke="#81365B" stroke-opacity="1.00" stroke-width="0.3"><path d="
M 332.00 393.00 
C 329.81 380.02 333.58 365.46 331.00 353.00
C 332.16 365.81 328.40 381.13 332.00 393.00 Z"/>
</g>
<g fill="None" fill-opacity="0.0" stroke="#205861" stroke-opacity="1.00" stroke-width="0.3"><path d="
M 147.00 374.00 
C 143.46 374.40 145.45 357.92 144.00 354.00
C 144.00 361.33 144.00 368.67 144.00 376.00
C 145.77 376.88 146.12 374.47 147.00 374.00 Z"/>
</g>
<g fill="None" fill-opacity="0.0" stroke="#000000" stroke-opacity="1.00" stroke-width="0.3"><path d="
M 297.00 422.00 
C 307.54 409.91 310.77 386.42 297.00 375.00
C 287.05 367.72 272.31 366.63 262.00 374.00
C 244.72 360.04 220.50 375.17 220.00 396.00 C 219.50 416.83 235.36 428.79 251.25 438.75 C 267.15 448.70 285.54 435.15 297.00 422.00
M 251.00 384.00 
C 255.27 385.30 264.66 399.95 269.75 389.75 C 274.85 379.56 284.30 383.25 289.25 389.75 C 294.19 396.25 290.17 407.43 284.75 412.75 C 279.33 418.07 273.80 422.37 266.92 425.92 C 260.05 429.47 253.87 422.86 247.75 418.25 C 241.63 413.64 235.89 408.64 235.01 399.99 C 234.12 391.35 240.11 380.69 251.00 384.00 Z"/>
</g>
<g fill="None" fill-opacity="0.0" stroke="#F3F0EE" stroke-opacity="1.00" stroke-width="0.3"><path d="
M 251.00 384.00 
C 240.11 380.69 234.12 391.35 235.01 399.99 C 235.89 408.64 241.63 413.64 247.75 418.25 C 253.87 422.86 260.05 429.47 266.92 425.92 C 273.80 422.37 279.33 418.07 284.75 412.75 C 290.17 407.43 294.19 396.25 289.25 389.75 C 284.30 383.25 274.85 379.56 269.75 389.75 C 264.66 399.95 255.27 385.30 251.00 384.00 Z"/>
</g>
<g fill="None" fill-opacity="0.0" stroke="#FF80AA" stroke-opacity="0.02" stroke-width="0.3"><path d="
M 339.00 431.00 
C 341.57 427.51 339.75 420.69 340.00 416.00 C 340.25 411.31 340.43 404.79 340.00 400.00
C 340.00 400.00 339.45 400.15 339.00 400.00
C 338.08 410.14 339.00 420.81 339.00 431.00 Z"/>
</g>
<g fill="None" fill-opacity="0.0" stroke="#7F365A" stroke-opacity="1.00" stroke-width="0.3"><path d="
M 331.00 455.00 
C 332.04 449.98 331.06 443.55 332.00 438.00
C 330.46 443.07 331.52 449.24 331.00 455.00 Z"/>
</g>
<g fill="#000000" fill-opacity="0.00" stroke="None">
<path d="
M 0.00 512.00 
L 266.00 512.00
C 257.19 507.21 262.38 495.29 261.00 487.00
C 236.61 484.92 192.25 496.27 182.69 465.31 C 173.14 434.34 184.25 400.20 180.00 368.00
C 172.14 370.71 165.40 380.85 157.92 383.92 C 150.43 386.99 143.72 401.96 134.33 397.67 C 124.94 393.38 132.40 371.13 130.00 363.00
C 114.82 363.18 95.80 362.76 81.00 363.00 C 66.20 363.24 49.24 364.20 37.77 356.23 C 26.30 348.26 19.29 340.78 17.02 326.98 C 14.76 313.17 15.45 292.35 16.00 278.00 C 16.55 263.65 10.66 242.70 23.00 235.00
C 23.00 224.67 23.00 214.33 23.00 204.00
C 11.57 203.21 15.93 182.36 16.93 173.93 C 17.92 165.49 22.71 154.93 30.25 148.25 C 37.79 141.57 45.81 136.72 57.00 136.00 C 68.20 135.28 82.73 134.65 95.00 135.00 C 107.27 135.35 121.43 134.77 134.00 135.00 C 146.57 135.23 160.41 134.74 173.00 135.00 C 185.59 135.26 198.21 133.79 210.00 137.00
C 208.77 115.57 211.63 87.80 210.00 67.00 C 208.37 46.20 214.74 28.21 227.75 15.75 C 240.76 3.30 244.95 3.67 263.00 0.00
L 0.00 0.00
L 0.00 512.00 Z"/>
</g>
<g fill="#000000" fill-opacity="1.00" stroke="None">
<path d="
M 23.00 204.00 
C 36.63 204.94 28.62 182.20 31.78 173.78 C 34.94 165.35 39.26 155.21 50.22 152.22 C 61.19 149.24 75.47 149.92 88.00 150.00 C 100.53 150.08 115.09 149.97 128.00 150.00 C 140.91 150.03 154.98 150.00 168.00 150.00
C 180.25 150.00 197.14 148.99 208.22 151.78 C 219.31 154.57 225.59 163.44 228.93 173.07 C 232.26 182.71 229.16 184.70 230.00 193.00 C 230.84 201.30 229.67 206.45 230.00 214.00 C 230.33 221.55 229.97 227.82 230.00 235.00 C 230.03 242.18 230.25 249.08 230.00 256.00 C 229.75 262.92 230.69 270.39 230.00 277.00 C 229.31 283.61 231.60 291.96 230.00 298.00 C 228.40 304.04 233.38 315.17 230.00 320.00
C 227.99 322.88 215.57 320.86 212.00 321.00
C 200.57 321.44 188.23 328.43 183.00 339.00
C 181.76 348.28 174.66 353.51 167.30 358.30 C 159.94 363.10 154.68 369.92 147.00 374.00
C 146.12 374.47 145.77 376.88 144.00 376.00
C 144.00 368.67 144.00 361.33 144.00 354.00
C 142.67 350.39 141.48 350.06 138.00 349.00
C 112.12 344.62 83.32 352.54 58.00 348.00
C 48.13 347.33 40.97 342.21 35.23 333.77 C 29.49 325.33 31.29 311.10 31.00 301.00 C 30.71 290.90 31.63 273.12 31.00 264.00 C 30.37 254.88 35.44 234.14 23.00 235.00
C 10.66 242.70 16.55 263.65 16.00 278.00 C 15.45 292.35 14.76 313.17 17.02 326.98 C 19.29 340.78 26.30 348.26 37.77 356.23 C 49.24 364.20 66.20 363.24 81.00 363.00 C 95.80 362.76 114.82 363.18 130.00 363.00
C 132.40 371.13 124.94 393.38 134.33 397.67 C 143.72 401.96 150.43 386.99 157.92 383.92 C 165.40 380.85 172.14 370.71 180.00 368.00
C 184.25 400.20 173.14 434.34 182.69 465.31 C 192.25 496.27 236.61 484.92 261.00 487.00
C 262.38 495.29 257.19 507.21 266.00 512.00
L 269.00 512.00
C 276.82 505.51 284.90 502.41 292.25 494.25 C 299.59 486.09 314.21 487.34 323.67 484.67 C 333.13 482.00 341.16 472.36 343.93 463.93 C 346.69 455.49 350.67 434.36 339.00 432.00
C 334.36 432.53 333.25 433.87 332.00 438.00
C 331.06 443.55 332.04 449.98 331.00 455.00
C 328.14 468.80 315.93 473.13 303.00 472.00 C 290.07 470.87 285.92 485.58 275.00 489.00
C 275.00 485.67 275.00 482.33 275.00 479.00
C 273.08 467.63 257.39 472.84 248.00 472.00 C 238.61 471.16 222.86 472.58 213.00 472.00 C 203.14 471.42 196.96 463.84 195.00 455.00
C 191.60 439.64 194.09 420.31 194.00 404.00 C 193.91 387.69 191.83 368.32 195.00 353.00
C 197.08 342.94 201.93 338.09 212.00 336.00
C 235.04 331.23 263.86 335.00 288.00 335.00
C 296.58 335.00 306.22 334.39 314.00 336.00
C 324.06 338.08 328.92 342.93 331.00 353.00
C 333.58 365.46 329.81 380.02 332.00 393.00
C 333.30 397.28 334.89 398.64 339.00 400.00
C 339.45 400.15 340.00 400.00 340.00 400.00
C 349.64 389.93 345.27 373.71 346.00 360.00 C 346.73 346.29 342.93 335.88 331.75 327.25 C 320.57 318.62 305.36 321.25 291.00 321.00 C 276.64 320.75 258.69 321.19 244.00 321.00
C 244.65 307.75 242.69 293.81 245.00 281.00
C 278.07 289.76 315.25 282.75 350.00 285.00
C 353.09 297.65 345.88 311.46 350.00 324.00 C 354.12 336.54 367.90 322.80 374.25 318.25 C 380.59 313.69 388.71 305.88 396.25 301.25 C 403.78 296.61 410.65 287.15 420.01 285.01 C 429.37 282.87 447.85 287.38 457.01 283.01 C 466.17 278.63 474.65 275.63 481.25 267.25 C 487.84 258.87 492.30 252.84 494.78 241.78 C 497.26 230.72 495.66 215.27 496.00 203.00 C 496.34 190.73 495.89 176.65 496.00 164.00 C 496.11 151.35 496.02 136.68 496.00 124.00 C 495.98 111.32 496.19 97.36 496.00 85.00 C 495.81 72.64 496.89 57.25 495.00 46.00 C 493.12 34.74 488.78 28.40 483.30 20.70 C 477.83 12.99 470.77 9.94 465.25 6.61 C 459.72 3.27 451.57 0.78 442.00 0.00
L 416.00 0.00
C 413.18 2.30 410.85 3.10 411.00 7.00
C 411.33 15.44 418.21 15.00 425.00 15.00
C 446.83 15.00 476.02 19.19 479.98 46.02 C 483.93 72.86 479.23 105.03 481.00 132.00 C 482.77 158.97 478.77 193.52 481.00 219.00 C 483.23 244.48 471.22 268.58 445.00 270.00
C 435.70 271.51 424.85 269.78 415.00 271.00
C 395.88 275.74 382.79 298.76 365.00 307.00
C 364.64 293.37 370.21 270.10 352.00 271.00 C 333.79 271.90 319.31 270.91 302.00 271.00 C 284.69 271.09 271.23 272.56 254.93 269.07 C 238.62 265.59 245.88 243.41 245.00 229.00 C 244.12 214.59 245.02 194.81 245.00 180.00 C 244.98 165.19 237.58 157.12 228.75 146.25 C 219.93 135.37 226.05 115.30 225.00 101.00 C 223.95 86.70 224.58 65.30 225.00 51.00 C 225.42 36.70 233.23 29.57 244.23 21.23 C 255.23 12.89 273.70 15.61 288.00 15.00 C 302.30 14.39 322.67 16.30 337.00 15.00 C 351.33 13.70 372.97 21.21 379.00 7.00
C 379.07 3.43 374.53 1.68 372.00 0.00
L 263.00 0.00
C 244.95 3.67 240.76 3.30 227.75 15.75 C 214.74 28.21 208.37 46.20 210.00 67.00 C 211.63 87.80 208.77 115.57 210.00 137.00
C 198.21 133.79 185.59 135.26 173.00 135.00 C 160.41 134.74 146.57 135.23 134.00 135.00 C 121.43 134.77 107.27 135.35 95.00 135.00 C 82.73 134.65 68.20 135.28 57.00 136.00 C 45.81 136.72 37.79 141.57 30.25 148.25 C 22.71 154.93 17.92 165.49 16.93 173.93 C 15.93 182.36 11.57 203.21 23.00 204.00 Z"/>
</g>
<g fill="#000000" fill-opacity="0.02" stroke="None">
<path d="
M 379.00 7.00 
C 388.00 10.87 401.58 4.10 411.00 7.00
C 410.85 3.10 413.18 2.30 416.00 0.00
L 372.00 0.00
C 374.53 1.68 379.07 3.43 379.00 7.00 Z"/>
</g>
<g fill="#000000" fill-opacity="0.01" stroke="None">
<path d="
M 340.00 400.00 
C 340.43 404.79 340.25 411.31 340.00 416.00 C 339.75 420.69 341.57 427.51 339.00 431.00
C 339.00 431.50 339.00 432.00 339.00 432.00
C 350.67 434.36 346.69 455.49 343.93 463.93 C 341.16 472.36 333.13 482.00 323.67 484.67 C 314.21 487.34 299.59 486.09 292.25 494.25 C 284.90 502.41 276.82 505.51 269.00 512.00
L 512.00 512.00
L 512.00 0.00
L 442.00 0.00
C 451.57 0.78 459.72 3.27 465.25 6.61 C 470.77 9.94 477.83 12.99 483.30 20.70 C 488.78 28.40 493.12 34.74 495.00 46.00 C 496.89 57.25 495.81 72.64 496.00 85.00 C 496.19 97.36 495.98 111.32 496.00 124.00 C 496.02 136.68 496.11 151.35 496.00 164.00 C 495.89 176.65 496.34 190.73 496.00 203.00 C 495.66 215.27 497.26 230.72 494.78 241.78 C 492.30 252.84 487.84 258.87 481.25 267.25 C 474.65 275.63 466.17 278.63 457.01 283.01 C 447.85 287.38 429.37 282.87 420.01 285.01 C 410.65 287.15 403.78 296.61 396.25 301.25 C 388.71 305.88 380.59 313.69 374.25 318.25 C 367.90 322.80 354.12 336.54 350.00 324.00 C 345.88 311.46 353.09 297.65 350.00 285.00
C 315.25 282.75 278.07 289.76 245.00 281.00
C 242.69 293.81 244.65 307.75 244.00 321.00
C 258.69 321.19 276.64 320.75 291.00 321.00 C 305.36 321.25 320.57 318.62 331.75 327.25 C 342.93 335.88 346.73 346.29 346.00 360.00 C 345.27 373.71 349.64 389.93 340.00 400.00 Z"/>
</g>
<g fill="#F5F1EF" fill-opacity="1.00" stroke="None">
<path d="
M 415.00 271.00 
C 418.28 270.19 422.09 270.00 426.00 270.00
C 434.69 267.36 437.76 257.46 442.77 249.77 C 447.78 242.09 447.10 227.69 447.00 217.00 C 446.90 206.31 447.01 191.58 447.00 180.00 C 446.99 168.42 446.95 153.80 447.00 142.00 C 447.05 130.20 446.84 116.54 447.00 105.00 C 447.16 93.46 446.63 78.76 447.00 68.00 C 447.37 57.24 447.18 43.48 442.23 35.77 C 437.27 28.06 433.81 17.67 425.00 15.00
C 418.21 15.00 411.33 15.44 411.00 7.00
C 401.58 4.10 388.00 10.87 379.00 7.00
C 372.97 21.21 351.33 13.70 337.00 15.00 C 322.67 16.30 302.30 14.39 288.00 15.00 C 273.70 15.61 255.23 12.89 244.23 21.23 C 233.23 29.57 225.42 36.70 225.00 51.00 C 224.58 65.30 223.95 86.70 225.00 101.00 C 226.05 115.30 219.93 135.37 228.75 146.25 C 237.58 157.12 244.98 165.19 245.00 180.00 C 245.02 194.81 244.12 214.59 245.00 229.00 C 245.88 243.41 238.62 265.59 254.93 269.07 C 271.23 272.56 284.69 271.09 302.00 271.00 C 319.31 270.91 333.79 271.90 352.00 271.00 C 370.21 270.10 364.64 293.37 365.00 307.00
C 382.79 298.76 395.88 275.74 415.00 271.00
M 422.00 228.00 
C 410.07 230.47 395.75 228.71 383.00 229.00 C 370.25 229.29 355.94 229.71 344.00 228.00
C 335.68 227.68 328.18 225.05 321.00 221.00
C 308.84 231.11 299.09 220.89 283.00 225.00 C 266.91 229.11 264.82 212.36 267.00 199.00 C 269.18 185.64 265.00 169.90 267.00 157.00 C 269.00 144.10 261.30 126.79 273.00 120.00
C 282.90 116.87 305.15 117.01 315.00 120.00
C 317.28 120.69 319.25 121.01 321.00 123.00
C 330.00 113.02 334.82 105.59 344.75 95.75 C 354.69 85.91 346.65 67.74 358.25 58.25 C 369.85 48.76 384.15 61.27 386.32 74.68 C 388.49 88.09 390.80 105.19 383.00 118.00
C 397.59 121.12 426.52 110.61 435.75 126.25 C 444.98 141.89 436.68 166.85 439.00 184.00 C 441.32 201.15 442.02 225.20 422.00 228.00 Z"/>
</g>
<g fill="#EAE0DB" fill-opacity="1.00" stroke="None">
<path d="
M 426.00 270.00 
C 432.30 270.00 438.71 270.34 445.00 270.00
C 471.22 268.58 483.23 244.48 481.00 219.00 C 478.77 193.52 482.77 158.97 481.00 132.00 C 479.23 105.03 483.93 72.86 479.98 46.02 C 476.02 19.19 446.83 15.00 425.00 15.00
C 433.81 17.67 437.27 28.06 442.23 35.77 C 447.18 43.48 447.37 57.24 447.00 68.00 C 446.63 78.76 447.16 93.46 447.00 105.00 C 446.84 116.54 447.05 130.20 447.00 142.00 C 446.95 153.80 446.99 168.42 447.00 180.00 C 447.01 191.58 446.90 206.31 447.00 217.00 C 447.10 227.69 447.78 242.09 442.77 249.77 C 437.76 257.46 434.69 267.36 426.00 270.00 Z"/>
</g>
<g fill="#000000" fill-opacity="1.00" stroke="None">
<path d="
M 315.00 120.00 
C 308.45 118.89 300.66 119.98 294.00 120.00 C 287.34 120.02 279.54 118.83 273.00 120.00
C 261.30 126.79 269.00 144.10 267.00 157.00 C 265.00 169.90 269.18 185.64 267.00 199.00 C 264.82 212.36 266.91 229.11 283.00 225.00 C 299.09 220.89 308.84 231.11 321.00 221.00
C 328.18 225.05 335.68 227.68 344.00 228.00
C 369.30 228.97 396.80 230.29 422.00 228.00
C 442.02 225.20 441.32 201.15 439.00 184.00 C 436.68 166.85 444.98 141.89 435.75 126.25 C 426.52 110.61 397.59 121.12 383.00 118.00
C 390.80 105.19 388.49 88.09 386.32 74.68 C 384.15 61.27 369.85 48.76 358.25 58.25 C 346.65 67.74 354.69 85.91 344.75 95.75 C 334.82 105.59 330.00 113.02 321.00 123.00
C 319.25 121.01 317.28 120.69 315.00 120.00
M 369.00 71.00 
C 377.96 86.14 373.16 106.17 365.23 120.23 C 357.30 134.29 373.03 133.53 382.00 133.00 C 390.97 132.47 402.88 134.61 414.00 133.00 C 425.12 131.39 425.46 145.39 424.00 155.00 C 422.54 164.61 425.62 178.21 424.00 187.00 C 422.38 195.79 429.04 211.85 418.97 213.97 C 408.91 216.10 397.35 212.91 387.00 214.00 C 376.65 215.09 366.54 213.25 356.00 214.00 C 345.46 214.75 339.46 212.27 329.77 208.23 C 320.08 204.19 322.02 193.70 322.00 184.00 C 321.98 174.30 322.67 161.51 322.00 152.00 C 321.33 142.49 327.60 137.54 333.25 131.25 C 338.91 124.97 342.83 120.41 348.25 114.25 C 353.68 108.10 357.99 103.09 361.77 95.77 C 365.55 88.45 366.11 77.13 369.00 71.00
M 307.00 135.00 
C 309.89 139.13 305.77 147.65 307.00 153.00 C 308.23 158.35 306.43 166.13 307.00 172.00 C 307.57 177.87 306.70 184.91 307.00 191.00 C 307.30 197.09 306.78 203.85 307.00 210.00
C 298.67 210.00 290.33 210.00 282.00 210.00
C 282.00 185.00 282.00 160.00 282.00 135.00
C 283.55 132.78 291.19 133.87 294.00 134.00 C 296.81 134.13 305.33 132.62 307.00 135.00 Z"/>
</g>
<g fill="#FDD16B" fill-opacity="1.00" stroke="None">
<path d="
M 369.00 71.00 
C 366.11 77.13 365.55 88.45 361.77 95.77 C 357.99 103.09 353.68 108.10 348.25 114.25 C 342.83 120.41 338.91 124.97 333.25 131.25 C 327.60 137.54 321.33 142.49 322.00 152.00 C 322.67 161.51 321.98 174.30 322.00 184.00 C 322.02 193.70 320.08 204.19 329.77 208.23 C 339.46 212.27 345.46 214.75 356.00 214.00 C 366.54 213.25 376.65 215.09 387.00 214.00 C 397.35 212.91 408.91 216.10 418.97 213.97 C 429.04 211.85 422.38 195.79 424.00 187.00 C 425.62 178.21 422.54 164.61 424.00 155.00 C 425.46 145.39 425.12 131.39 414.00 133.00 C 402.88 134.61 390.97 132.47 382.00 133.00 C 373.03 133.53 357.30 134.29 365.23 120.23 C 373.16 106.17 377.96 86.14 369.00 71.00 Z"/>
</g>
<g fill="#848281" fill-opacity="1.00" stroke="None">
<path d="
M 273.00 120.00 
C 279.54 118.83 287.34 120.02 294.00 120.00 C 300.66 119.98 308.45 118.89 315.00 120.00
C 305.15 117.01 282.90 116.87 273.00 120.00 Z"/>
</g>
<g fill="#426B71" fill-opacity="1.00" stroke="None">
<path d="
M 282.00 135.00 
C 290.33 135.00 298.67 135.00 307.00 135.00
C 305.33 132.62 296.81 134.13 294.00 134.00 C 291.19 133.87 283.55 132.78 282.00 135.00 Z"/>
</g>
<g fill="#8EE6F2" fill-opacity="1.00" stroke="None">
<path d="
M 307.00 135.00 
C 298.67 135.00 290.33 135.00 282.00 135.00
C 282.00 160.00 282.00 185.00 282.00 210.00
C 290.33 210.00 298.67 210.00 307.00 210.00
C 306.78 203.85 307.30 197.09 307.00 191.00 C 306.70 184.91 307.57 177.87 307.00 172.00 C 306.43 166.13 308.23 158.35 307.00 153.00 C 305.77 147.65 309.89 139.13 307.00 135.00 Z"/>
</g>
<g fill="#4DD4E9" fill-opacity="1.00" stroke="None">
<path d="
M 23.00 204.00 
C 23.00 214.33 23.00 224.67 23.00 235.00
C 35.44 234.14 30.37 254.88 31.00 264.00 C 31.63 273.12 30.71 290.90 31.00 301.00 C 31.29 311.10 29.49 325.33 35.23 333.77 C 40.97 342.21 48.13 347.33 58.00 348.00
C 71.08 348.89 85.00 346.83 98.00 348.00 C 111.00 349.17 126.06 345.38 138.00 349.00
C 141.48 350.06 142.67 350.39 144.00 354.00
C 145.45 357.92 143.46 374.40 147.00 374.00
C 154.68 369.92 159.94 363.10 167.30 358.30 C 174.66 353.51 181.76 348.28 183.00 339.00
C 184.38 328.67 182.84 317.44 183.00 307.00 C 183.16 296.56 183.94 285.40 183.00 275.00
C 182.52 275.09 182.00 275.00 182.00 275.00
C 178.23 277.79 170.29 274.66 166.00 276.00 C 161.71 277.34 153.00 273.34 150.00 277.00
C 147.24 281.74 149.33 290.75 147.07 296.07 C 144.82 301.40 146.81 309.41 138.00 309.00 C 129.18 308.58 132.44 299.90 131.99 294.99 C 131.54 290.09 137.59 279.91 135.00 276.00
C 129.00 276.00 123.00 276.00 117.00 276.00
C 111.13 282.80 120.14 308.58 105.99 308.99 C 91.84 309.40 101.29 283.75 102.00 276.00
C 94.44 275.55 85.76 277.05 79.00 275.00
C 70.89 272.54 70.89 263.46 79.00 261.00
C 82.26 260.01 87.41 260.54 91.00 260.00 C 94.59 259.46 101.15 261.84 104.00 260.00
C 107.64 256.64 105.35 246.61 107.00 242.00
C 98.57 240.45 70.52 247.68 73.00 233.00 C 75.48 218.32 103.38 232.88 109.89 225.89 C 116.41 218.91 107.56 193.63 122.00 194.00 C 136.44 194.38 125.09 219.23 125.00 227.00
C 133.73 227.63 143.78 228.84 144.78 219.78 C 145.77 210.72 145.51 204.63 148.93 196.93 C 152.35 189.22 165.20 195.92 162.22 203.22 C 159.24 210.52 161.38 219.54 159.00 227.00
C 166.67 227.00 174.33 227.00 182.00 227.00
C 186.18 224.08 181.83 210.33 183.00 205.00 C 184.17 199.67 182.58 187.57 183.00 182.00 C 183.42 176.43 181.53 167.32 178.69 163.31 C 175.86 159.29 172.54 151.68 168.00 150.00
C 154.98 150.00 140.91 150.03 128.00 150.00 C 115.09 149.97 100.53 150.08 88.00 150.00 C 75.47 149.92 61.19 149.24 50.22 152.22 C 39.26 155.21 34.94 165.35 31.78 173.78 C 28.62 182.20 36.63 204.94 23.00 204.00 Z"/>
</g>
<g fill="#61A5FC" fill-opacity="1.00" stroke="None">
<path d="
M 182.00 227.00 
C 188.60 228.54 190.69 239.70 183.00 242.00
C 180.98 247.48 185.36 255.68 183.00 261.00
C 189.84 262.11 189.64 273.73 183.00 275.00
C 183.94 285.40 183.16 296.56 183.00 307.00 C 182.84 317.44 184.38 328.67 183.00 339.00
C 188.23 328.43 200.57 321.44 212.00 321.00
C 217.30 320.24 224.00 319.49 230.00 320.00
C 233.38 315.17 228.40 304.04 230.00 298.00 C 231.60 291.96 229.31 283.61 230.00 277.00 C 230.69 270.39 229.75 262.92 230.00 256.00 C 230.25 249.08 230.03 242.18 230.00 235.00 C 229.97 227.82 230.33 221.55 230.00 214.00 C 229.67 206.45 230.84 201.30 230.00 193.00 C 229.16 184.70 232.26 182.71 228.93 173.07 C 225.59 163.44 219.31 154.57 208.22 151.78 C 197.14 148.99 180.25 150.00 168.00 150.00
C 172.54 151.68 175.86 159.29 178.69 163.31 C 181.53 167.32 183.42 176.43 183.00 182.00 C 182.58 187.57 184.17 199.67 183.00 205.00 C 181.83 210.33 186.18 224.08 182.00 227.00 Z"/>
</g>
<g fill="#000000" fill-opacity="1.00" stroke="None">
<path d="
M 104.00 260.00 
C 99.53 264.13 85.13 259.96 79.00 261.00
C 70.89 263.46 70.89 272.54 79.00 275.00
C 86.40 276.25 95.40 273.23 102.00 276.00
C 101.29 283.75 91.84 309.40 105.99 308.99 C 120.14 308.58 111.13 282.80 117.00 276.00
C 118.65 274.09 133.58 273.87 135.00 276.00
C 137.59 279.91 131.54 290.09 131.99 294.99 C 132.44 299.90 129.18 308.58 138.00 309.00 C 146.81 309.41 144.82 301.40 147.07 296.07 C 149.33 290.75 147.24 281.74 150.00 277.00
C 152.46 272.77 160.35 275.50 165.00 275.00 C 169.65 274.50 177.10 275.00 182.00 275.00
C 182.00 275.00 182.52 275.09 183.00 275.00
C 189.64 273.73 189.84 262.11 183.00 261.00
C 182.51 260.92 181.50 261.00 181.00 261.00
C 171.83 261.00 161.34 261.83 153.00 260.00
C 154.27 254.08 155.28 248.09 156.00 242.00
C 165.00 242.00 174.00 242.00 183.00 242.00
C 190.69 239.70 188.60 228.54 182.00 227.00
C 174.33 227.00 166.67 227.00 159.00 227.00
C 161.38 219.54 159.24 210.52 162.22 203.22 C 165.20 195.92 152.35 189.22 148.93 196.93 C 145.51 204.63 145.77 210.72 144.78 219.78 C 143.78 228.84 133.73 227.63 125.00 227.00
C 125.09 219.23 136.44 194.38 122.00 194.00 C 107.56 193.63 116.41 218.91 109.89 225.89 C 103.38 232.88 75.48 218.32 73.00 233.00 C 70.52 247.68 98.57 240.45 107.00 242.00
C 105.35 246.61 107.64 256.64 104.00 260.00
M 138.00 260.00 
C 136.26 261.85 121.45 262.20 120.00 260.00
C 118.40 257.56 121.75 247.11 122.78 243.78 C 123.81 240.45 137.44 242.57 141.00 242.00
C 140.03 247.99 138.97 253.98 138.00 260.00 Z"/>
</g>
<g fill="#646261" fill-opacity="1.00" stroke="None">
<path d="
M 422.00 228.00 
C 396.80 230.29 369.30 228.97 344.00 228.00
C 355.94 229.71 370.25 229.29 383.00 229.00 C 395.75 228.71 410.07 230.47 422.00 228.00 Z"/>
</g>
<g fill="#4BCEE2" fill-opacity="1.00" stroke="None">
<path d="
M 120.00 260.00 
C 126.00 260.00 132.00 260.00 138.00 260.00
C 138.97 253.98 140.03 247.99 141.00 242.00
C 137.44 242.57 123.81 240.45 122.78 243.78 C 121.75 247.11 118.40 257.56 120.00 260.00 Z"/>
</g>
<g fill="#4CD0E5" fill-opacity="1.00" stroke="None">
<path d="
M 153.00 260.00 
C 161.84 261.44 173.10 257.64 181.00 261.00
C 181.50 261.00 182.51 260.92 183.00 261.00
C 185.36 255.68 180.98 247.48 183.00 242.00
C 174.00 242.00 165.00 242.00 156.00 242.00
C 155.28 248.09 154.27 254.08 153.00 260.00 Z"/>
</g>
<g fill="#2A727D" fill-opacity="1.00" stroke="None">
<path d="
M 79.00 261.00 
C 85.13 259.96 99.53 264.13 104.00 260.00
C 101.15 261.84 94.59 259.46 91.00 260.00 C 87.41 260.54 82.26 260.01 79.00 261.00 Z"/>
</g>
<g fill="#29717C" fill-opacity="1.00" stroke="None">
<path d="
M 138.00 260.00 
C 132.00 260.00 126.00 260.00 120.00 260.00
C 121.45 262.20 136.26 261.85 138.00 260.00 Z"/>
</g>
<g fill="#29717C" fill-opacity="1.00" stroke="None">
<path d="
M 181.00 261.00 
C 173.10 257.64 161.84 261.44 153.00 260.00
C 161.34 261.83 171.83 261.00 181.00 261.00 Z"/>
</g>
<g fill="#AAA5A2" fill-opacity="1.00" stroke="None">
<path d="
M 415.00 271.00 
C 424.85 269.78 435.70 271.51 445.00 270.00
C 438.71 270.34 432.30 270.00 426.00 270.00
C 422.09 270.00 418.28 270.19 415.00 271.00 Z"/>
</g>
<g fill="#24636D" fill-opacity="1.00" stroke="None">
<path d="
M 102.00 276.00 
C 95.40 273.23 86.40 276.25 79.00 275.00
C 85.76 277.05 94.44 275.55 102.00 276.00 Z"/>
</g>
<g fill="#23616B" fill-opacity="1.00" stroke="None">
<path d="
M 117.00 276.00 
C 123.00 276.00 129.00 276.00 135.00 276.00
C 133.58 273.87 118.65 274.09 117.00 276.00 Z"/>
</g>
<g fill="#24646E" fill-opacity="1.00" stroke="None">
<path d="
M 150.00 277.00 
C 153.00 273.34 161.71 277.34 166.00 276.00 C 170.29 274.66 178.23 277.79 182.00 275.00
C 177.10 275.00 169.65 274.50 165.00 275.00 C 160.35 275.50 152.46 272.77 150.00 277.00 Z"/>
</g>
<g fill="#345987" fill-opacity="1.00" stroke="None">
<path d="
M 212.00 321.00 
C 215.57 320.86 227.99 322.88 230.00 320.00
C 224.00 319.49 217.30 320.24 212.00 321.00 Z"/>
</g>
<g fill="#74423D" fill-opacity="1.00" stroke="None">
<path d="
M 212.00 336.00 
C 236.86 333.74 263.02 336.00 288.00 336.00
C 287.75 335.75 288.00 335.00 288.00 335.00
C 263.86 335.00 235.04 331.23 212.00 336.00 Z"/>
</g>
<g fill="#753152" fill-opacity="1.00" stroke="None">
<path d="
M 288.00 336.00 
C 288.50 336.00 289.00 336.00 289.00 336.00
C 297.22 336.00 305.82 335.26 314.00 336.00
C 306.22 334.39 296.58 335.00 288.00 335.00
C 288.00 335.00 287.75 335.75 288.00 336.00 Z"/>
</g>
<g fill="#F98F83" fill-opacity="1.00" stroke="None">
<path d="
M 195.00 353.00 
C 193.49 369.66 194.93 387.27 195.00 404.00 C 195.07 420.73 193.29 438.37 195.00 455.00
C 196.96 463.84 203.14 471.42 213.00 472.00 C 222.86 472.58 238.61 471.16 248.00 472.00 C 257.39 472.84 273.08 467.63 275.00 479.00
C 285.06 476.11 292.01 471.39 295.78 460.78 C 299.54 450.17 294.27 433.20 297.00 422.00
C 285.54 435.15 267.15 448.70 251.25 438.75 C 235.36 428.79 219.50 416.83 220.00 396.00 C 220.50 375.17 244.72 360.04 262.00 374.00
C 272.31 366.63 287.05 367.72 297.00 375.00
C 295.18 368.18 297.81 359.26 296.67 352.33 C 295.53 345.40 292.93 341.63 289.00 336.00
C 289.00 336.00 288.50 336.00 288.00 336.00
C 263.02 336.00 236.86 333.74 212.00 336.00
C 201.93 338.09 197.08 342.94 195.00 353.00 Z"/>
</g>
<g fill="#FD6BB4" fill-opacity="1.00" stroke="None">
<path d="
M 297.00 375.00 
C 310.77 386.42 307.54 409.91 297.00 422.00
C 294.27 433.20 299.54 450.17 295.78 460.78 C 292.01 471.39 285.06 476.11 275.00 479.00
C 275.00 482.33 275.00 485.67 275.00 489.00
C 285.92 485.58 290.07 470.87 303.00 472.00 C 315.93 473.13 328.14 468.80 331.00 455.00
C 331.52 449.24 330.46 443.07 332.00 438.00
C 333.25 433.87 334.36 432.53 339.00 432.00
C 339.00 432.00 339.00 431.50 339.00 431.00
C 339.00 420.81 338.08 410.14 339.00 400.00
C 334.89 398.64 333.30 397.28 332.00 393.00
C 328.40 381.13 332.16 365.81 331.00 353.00
C 328.92 342.93 324.06 338.08 314.00 336.00
C 305.82 335.26 297.22 336.00 289.00 336.00
C 292.93 341.63 295.53 345.40 296.67 352.33 C 297.81 359.26 295.18 368.18 297.00 375.00 Z"/>
</g>
<g fill="#29717C" fill-opacity="1.00" stroke="None">
<path d="
M 138.00 349.00 
C 126.06 345.38 111.00 349.17 98.00 348.00 C 85.00 346.83 71.08 348.89 58.00 348.00
C 83.32 352.54 112.12 344.62 138.00 349.00 Z"/>
</g>
<g fill="#77443E" fill-opacity="1.00" stroke="None">
<path d="
M 195.00 455.00 
C 193.29 438.37 195.07 420.73 195.00 404.00 C 194.93 387.27 193.49 369.66 195.00 353.00
C 191.83 368.32 193.91 387.69 194.00 404.00 C 194.09 420.31 191.60 439.64 195.00 455.00 Z"/>
</g>
<g fill="#81365B" fill-opacity="1.00" stroke="None">
<path d="
M 332.00 393.00 
C 329.81 380.02 333.58 365.46 331.00 353.00
C 332.16 365.81 328.40 381.13 332.00 393.00 Z"/>
</g>
<g fill="#205861" fill-opacity="1.00" stroke="None">
<path d="
M 147.00 374.00 
C 143.46 374.40 145.45 357.92 144.00 354.00
C 144.00 361.33 144.00 368.67 144.00 376.00
C 145.77 376.88 146.12 374.47 147.00 374.00 Z"/>
</g>
<g fill="#000000" fill-opacity="1.00" stroke="None">
<path d="
M 297.00 422.00 
C 307.54 409.91 310.77 386.42 297.00 375.00
C 287.05 367.72 272.31 366.63 262.00 374.00
C 244.72 360.04 220.50 375.17 220.00 396.00 C 219.50 416.83 235.36 428.79 251.25 438.75 C 267.15 448.70 285.54 435.15 297.00 422.00
M 251.00 384.00 
C 255.27 385.30 264.66 399.95 269.75 389.75 C 274.85 379.56 284.30 383.25 289.25 389.75 C 294.19 396.25 290.17 407.43 284.75 412.75 C 279.33 418.07 273.80 422.37 266.92 425.92 C 260.05 429.47 253.87 422.86 247.75 418.25 C 241.63 413.64 235.89 408.64 235.01 399.99 C 234.12 391.35 240.11 380.69 251.00 384.00 Z"/>
</g>
<g fill="#F3F0EE" fill-opacity="1.00" stroke="None">
<path d="
M 251.00 384.00 
C 240.11 380.69 234.12 391.35 235.01 399.99 C 235.89 408.64 241.63 413.64 247.75 418.25 C 253.87 422.86 260.05 429.47 266.92 425.92 C 273.80 422.37 279.33 418.07 284.75 412.75 C 290.17 407.43 294.19 396.25 289.25 389.75 C 284.30 383.25 274.85 379.56 269.75 389.75 C 264.66 399.95 255.27 385.30 251.00 384.00 Z"/>
</g>
<g fill="#FF80AA" fill-opacity="0.02" stroke="None">
<path d="
M 339.00 431.00 
C 341.57 427.51 339.75 420.69 340.00 416.00 C 340.25 411.31 340.43 404.79 340.00 400.00
C 340.00 400.00 339.45 400.15 339.00 400.00
C 338.08 410.14 339.00 420.81 339.00 431.00 Z"/>
</g>
<g fill="#7F365A" fill-opacity="1.00" stroke="None">
<path d="
M 331.00 455.00 
C 332.04 449.98 331.06 443.55 332.00 438.00
C 330.46 443.07 331.52 449.24 331.00 455.00 Z"/>
</g>
</svg>