<svg xmlns="http://www.w3.org/2000/svg" xmlns:v="https://svgstorm.com"
viewBox = "0 0 512 512"
width="512"
height="512">
<g fill="None" fill-opacity="0.0" stroke="#000000" stroke-opacity="0.01" stroke-width="0.3"><path d="
M 0.00 86.00 
C 2.01 49.10 45.13 52.58 73.00 54.00
C 73.03 42.97 69.81 23.47 83.70 19.70 C 97.58 15.92 112.66 18.21 127.00 18.00 C 141.34 17.79 158.14 17.25 172.00 18.00 C 185.86 18.75 203.59 12.86 211.00 25.00
C 213.57 26.27 228.37 26.19 231.00 25.00
C 232.24 13.93 249.73 18.64 259.00 18.00 C 268.27 17.36 284.28 18.27 295.00 18.00 C 305.72 17.73 319.67 18.09 331.00 18.00 C 342.33 17.91 355.52 17.96 367.00 18.00 C 378.48 18.04 391.71 17.82 403.00 18.00 C 414.29 18.18 425.04 15.85 433.75 23.25 C 442.47 30.65 437.87 42.88 439.00 53.00
C 466.56 52.76 508.99 48.93 512.00 85.00
L 512.00 0.00
L 0.00 0.00
L 0.00 86.00 Z"/>
</g>
<g fill="None" fill-opacity="0.0" stroke="#000000" stroke-opacity="1.00" stroke-width="0.3"><path d="
M 0.00 86.00 
L 0.00 387.00
C 10.11 425.85 50.68 415.27 85.00 416.00 C 119.32 416.73 164.67 415.45 200.00 416.00
C 199.68 437.76 198.19 459.20 194.00 480.00
C 184.93 481.20 174.98 478.40 166.00 480.00 C 157.02 481.60 160.91 495.26 170.00 494.00 C 179.09 492.73 189.70 494.57 199.00 494.00 C 208.30 493.43 217.62 494.18 227.00 494.00 C 236.38 493.82 246.62 493.96 256.00 494.00 C 265.38 494.04 274.71 493.68 284.00 494.00 C 293.29 494.32 302.84 493.18 312.00 494.00 C 321.16 494.82 332.17 492.20 341.00 494.00 C 349.83 495.80 355.68 482.84 346.92 480.08 C 338.16 477.32 326.98 481.98 318.00 480.00
C 313.88 459.22 312.19 437.78 312.00 416.00
C 347.12 415.38 391.83 416.83 426.00 416.00 C 460.17 415.17 502.04 426.13 512.00 387.00
L 512.00 85.00
C 508.99 48.93 466.56 52.76 439.00 54.00
C 437.87 42.88 442.47 30.65 433.75 23.25 C 425.04 15.85 414.29 18.18 403.00 18.00 C 391.71 17.82 378.48 18.04 367.00 18.00 C 355.52 17.96 342.33 17.91 331.00 18.00 C 319.67 18.09 305.72 17.73 295.00 18.00 C 284.28 18.27 268.27 17.36 259.00 18.00 C 249.73 18.64 232.24 13.93 231.00 25.00
C 229.83 35.43 244.12 32.97 252.00 33.00 C 259.88 33.03 272.99 32.97 282.00 33.00 C 291.01 33.03 302.53 32.95 312.00 33.00 C 321.47 33.05 332.41 32.90 342.00 33.00 C 351.59 33.10 362.58 32.78 372.00 33.00 C 381.42 33.22 393.13 32.51 402.00 33.00 C 410.87 33.49 424.89 29.15 425.00 40.00 C 425.11 50.85 424.92 59.36 425.00 70.00
C 312.33 70.00 199.67 70.00 87.00 70.00
C 90.93 61.03 79.57 35.64 92.01 33.01 C 104.44 30.38 121.16 34.60 134.00 33.00 C 146.84 31.40 163.54 34.65 176.00 33.00 C 188.46 31.35 206.78 39.04 211.00 25.00
C 203.59 12.86 185.86 18.75 172.00 18.00 C 158.14 17.25 141.34 17.79 127.00 18.00 C 112.66 18.21 97.58 15.92 83.70 19.70 C 69.81 23.47 73.03 42.97 73.00 54.00
C 45.13 52.58 2.01 49.10 0.00 86.00
M 72.00 69.00 
C 72.00 75.33 72.00 81.67 72.00 88.00
C 57.79 87.08 32.24 85.51 31.07 105.07 C 29.91 124.63 31.48 143.57 31.00 163.00 C 30.52 182.43 31.22 201.62 31.00 221.00 C 30.78 240.38 31.12 259.64 31.00 279.00 C 30.88 298.36 31.09 317.65 31.00 337.00
C 25.67 337.00 20.33 337.00 15.00 337.00
C 14.63 309.47 15.49 283.71 15.00 256.00 C 14.51 228.29 15.94 203.36 15.00 175.00 C 14.06 146.64 17.01 123.91 15.00 94.00 C 12.99 64.09 48.80 66.98 72.00 69.00
M 481.00 337.00 
C 476.13 332.33 481.53 319.14 480.00 312.00 C 478.47 304.86 480.69 293.98 480.00 286.00 C 479.31 278.02 480.32 268.36 480.00 260.00 C 479.68 251.64 480.16 242.53 480.00 234.00 C 479.85 225.47 480.10 216.60 480.00 208.00 C 479.90 199.40 480.10 190.63 480.00 182.00 C 479.90 173.37 480.17 164.64 480.00 156.00 C 479.83 147.36 480.36 138.63 480.00 130.00 C 479.64 121.37 480.78 112.59 480.00 104.00
C 476.06 84.95 456.12 87.47 440.00 88.00
C 440.00 81.67 440.00 75.33 440.00 69.00
C 452.67 69.00 465.33 69.00 478.00 69.00
C 504.23 70.00 496.39 100.23 497.00 121.00 C 497.61 141.77 496.71 170.50 497.00 193.00 C 497.29 215.50 496.85 241.78 497.00 265.00 C 497.15 288.22 496.89 313.59 497.00 337.00
C 491.67 337.00 486.33 337.00 481.00 337.00
M 425.00 85.00 
C 425.00 169.00 425.00 253.00 425.00 337.00
C 312.33 337.00 199.67 337.00 87.00 337.00
C 87.00 253.00 87.00 169.00 87.00 85.00
C 199.67 85.00 312.33 85.00 425.00 85.00
M 72.00 103.00 
C 72.00 181.00 72.00 259.00 72.00 337.00
C 63.33 337.00 54.67 337.00 46.00 337.00
C 45.97 324.63 46.04 312.38 46.00 300.00 C 45.96 287.62 46.08 275.43 46.00 263.00 C 45.92 250.57 46.18 238.53 46.00 226.00 C 45.82 213.47 46.39 201.77 46.00 189.00 C 45.61 176.23 46.85 165.30 46.00 152.00 C 45.15 138.70 47.89 129.47 46.00 115.00 C 44.11 100.53 59.86 101.82 72.00 103.00
M 453.00 337.00 
C 448.67 337.00 444.33 337.00 440.00 337.00
C 440.00 259.33 440.00 181.67 440.00 104.00
C 443.15 99.50 453.66 104.27 460.00 103.00 C 466.34 101.73 466.74 113.00 466.00 119.00 C 465.26 125.00 466.34 134.31 466.00 141.00 C 465.66 147.69 466.16 156.04 466.00 163.00 C 465.84 169.96 466.07 176.88 466.00 184.00 C 465.93 191.12 466.03 198.78 466.00 206.00 C 465.97 213.22 466.01 220.75 466.00 228.00 C 465.99 235.25 466.01 242.77 466.00 250.00 C 465.99 257.23 466.00 263.76 466.00 271.00 C 466.00 278.24 466.00 285.71 466.00 293.00 C 466.00 300.29 466.00 307.69 466.00 315.00 C 466.00 322.31 466.00 329.68 466.00 337.00
C 461.67 337.00 457.33 337.00 453.00 337.00
M 497.00 352.00 
C 499.19 372.40 500.03 402.59 474.00 401.00 C 447.97 399.41 426.05 401.70 401.00 401.00 C 375.95 400.30 353.64 401.24 329.00 401.00 C 304.36 400.76 280.54 400.97 256.00 401.00 C 231.46 401.03 208.69 400.66 184.00 401.00 C 159.31 401.34 136.17 400.14 111.00 401.00 C 85.83 401.86 65.36 399.00 39.00 401.00 C 12.64 403.00 12.14 373.25 15.00 352.00
C 175.66 352.00 336.33 352.00 497.00 352.00
M 297.00 416.00 
C 298.12 437.22 298.90 458.52 303.00 479.00
C 271.67 479.00 240.33 479.00 209.00 479.00
C 213.38 458.62 213.66 437.17 215.00 416.00
C 242.33 416.00 269.67 416.00 297.00 416.00 Z"/>
</g>
<g fill="None" fill-opacity="0.0" stroke="#FCB33F" stroke-opacity="1.00" stroke-width="0.3"><path d="
M 231.00 25.00 
C 228.37 26.19 213.57 26.27 211.00 25.00
C 206.78 39.04 188.46 31.35 176.00 33.00 C 163.54 34.65 146.84 31.40 134.00 33.00 C 121.16 34.60 104.44 30.38 92.01 33.01 C 79.57 35.64 90.93 61.03 87.00 70.00
C 199.67 70.00 312.33 70.00 425.00 70.00
C 424.92 59.36 425.11 50.85 425.00 40.00 C 424.89 29.15 410.87 33.49 402.00 33.00 C 393.13 32.51 381.42 33.22 372.00 33.00 C 362.58 32.78 351.59 33.10 342.00 33.00 C 332.41 32.90 321.47 33.05 312.00 33.00 C 302.53 32.95 291.01 33.03 282.00 33.00 C 272.99 32.97 259.88 33.03 252.00 33.00 C 244.12 32.97 229.83 35.43 231.00 25.00 Z"/>
</g>
<g fill="None" fill-opacity="0.0" stroke="#586B75" stroke-opacity="1.00" stroke-width="0.3"><path d="
M 72.00 69.00 
C 48.80 66.98 12.99 64.09 15.00 94.00 C 17.01 123.91 14.06 146.64 15.00 175.00 C 15.94 203.36 14.51 228.29 15.00 256.00 C 15.49 283.71 14.63 309.47 15.00 337.00
C 20.33 337.00 25.67 337.00 31.00 337.00
C 31.09 317.65 30.88 298.36 31.00 279.00 C 31.12 259.64 30.78 240.38 31.00 221.00 C 31.22 201.62 30.52 182.43 31.00 163.00 C 31.48 143.57 29.91 124.63 31.07 105.07 C 32.24 85.51 57.79 87.08 72.00 88.00
C 72.00 81.67 72.00 75.33 72.00 69.00 Z"/>
</g>
<g fill="None" fill-opacity="0.0" stroke="#586B75" stroke-opacity="1.00" stroke-width="0.3"><path d="
M 480.00 104.00 
C 485.00 128.15 479.48 154.63 481.00 180.00 C 482.52 205.37 480.43 232.33 481.00 258.00 C 481.57 283.67 481.00 310.25 481.00 336.00
C 482.00 336.05 483.00 335.96 484.00 336.00
C 483.82 313.47 484.25 290.48 484.00 268.00 C 483.75 245.52 484.47 222.32 484.00 200.00 C 483.53 177.68 485.02 153.92 484.00 132.00 C 482.98 110.08 488.80 87.70 478.00 69.00
C 465.33 69.00 452.67 69.00 440.00 69.00
C 440.00 75.33 440.00 81.67 440.00 88.00
C 456.12 87.47 476.06 84.95 480.00 104.00 Z"/>
</g>
<g fill="None" fill-opacity="0.0" stroke="#465A61" stroke-opacity="1.00" stroke-width="0.3"><path d="
M 481.00 336.00 
C 481.00 336.50 481.00 337.00 481.00 337.00
C 486.33 337.00 491.67 337.00 497.00 337.00
C 496.89 313.59 497.15 288.22 497.00 265.00 C 496.85 241.78 497.29 215.50 497.00 193.00 C 496.71 170.50 497.61 141.77 497.00 121.00 C 496.39 100.23 504.23 70.00 478.00 69.00
C 488.80 87.70 482.98 110.08 484.00 132.00 C 485.02 153.92 483.53 177.68 484.00 200.00 C 484.47 222.32 483.75 245.52 484.00 268.00 C 484.25 290.48 483.82 313.47 484.00 336.00
C 483.00 335.96 482.00 336.05 481.00 336.00 Z"/>
</g>
<g fill="None" fill-opacity="0.0" stroke="#F3F6F7" stroke-opacity="1.00" stroke-width="0.3"><path d="
M 425.00 85.00 
C 312.33 85.00 199.67 85.00 87.00 85.00
C 87.00 169.00 87.00 253.00 87.00 337.00
C 199.67 337.00 312.33 337.00 425.00 337.00
C 425.00 253.00 425.00 169.00 425.00 85.00
M 262.00 112.00 
C 309.73 112.00 355.00 157.22 355.00 205.00
C 355.37 208.77 355.36 213.29 355.00 217.00
C 355.00 224.07 355.08 240.30 344.00 238.00
C 342.38 244.61 339.82 251.23 336.00 257.00
C 346.44 263.00 330.41 277.10 324.25 283.25 C 318.09 289.40 307.19 296.87 297.93 300.93 C 288.67 304.98 274.17 310.00 263.00 310.00
C 258.91 310.40 254.02 310.39 250.00 310.00
C 202.36 310.00 157.00 264.64 157.00 217.00
C 156.63 213.23 156.64 208.71 157.00 205.00
C 157.00 157.23 202.22 112.00 250.00 112.00
C 253.77 111.63 258.29 111.64 262.00 112.00 Z"/>
</g>
<g fill="None" fill-opacity="0.0" stroke="#C5EBFA" stroke-opacity="1.00" stroke-width="0.3"><path d="
M 72.00 103.00 
C 59.86 101.82 44.11 100.53 46.00 115.00 C 47.89 129.47 45.15 138.70 46.00 152.00 C 46.85 165.30 45.61 176.23 46.00 189.00 C 46.39 201.77 45.82 213.47 46.00 226.00 C 46.18 238.53 45.92 250.57 46.00 263.00 C 46.08 275.43 45.96 287.62 46.00 300.00 C 46.04 312.38 45.97 324.63 46.00 337.00
C 54.67 337.00 63.33 337.00 72.00 337.00
C 72.00 259.00 72.00 181.00 72.00 103.00 Z"/>
</g>
<g fill="None" fill-opacity="0.0" stroke="#95DFF5" stroke-opacity="1.00" stroke-width="0.3"><path d="
M 440.00 104.00 
C 444.33 104.00 448.67 104.00 453.00 104.00
C 453.00 181.67 453.00 259.33 453.00 337.00
C 457.33 337.00 461.67 337.00 466.00 337.00
C 466.00 329.68 466.00 322.31 466.00 315.00 C 466.00 307.69 466.00 300.29 466.00 293.00 C 466.00 285.71 466.00 278.24 466.00 271.00 C 466.00 263.76 465.99 257.23 466.00 250.00 C 466.01 242.77 465.99 235.25 466.00 228.00 C 466.01 220.75 465.97 213.22 466.00 206.00 C 466.03 198.78 465.93 191.12 466.00 184.00 C 466.07 176.88 465.84 169.96 466.00 163.00 C 466.16 156.04 465.66 147.69 466.00 141.00 C 466.34 134.31 465.26 125.00 466.00 119.00 C 466.74 113.00 466.34 101.73 460.00 103.00 C 453.66 104.27 443.15 99.50 440.00 104.00 Z"/>
</g>
<g fill="None" fill-opacity="0.0" stroke="#C7EEFD" stroke-opacity="1.00" stroke-width="0.3"><path d="
M 453.00 337.00 
C 453.00 259.33 453.00 181.67 453.00 104.00
C 448.67 104.00 444.33 104.00 440.00 104.00
C 440.00 181.67 440.00 259.33 440.00 337.00
C 444.33 337.00 448.67 337.00 453.00 337.00 Z"/>
</g>
<g fill="None" fill-opacity="0.0" stroke="#1B2124" stroke-opacity="1.00" stroke-width="0.3"><path d="
M 481.00 337.00 
C 481.00 337.00 481.00 336.50 481.00 336.00
C 481.00 310.25 481.57 283.67 481.00 258.00 C 480.43 232.33 482.52 205.37 481.00 180.00 C 479.48 154.63 485.00 128.15 480.00 104.00
C 480.78 112.59 479.64 121.37 480.00 130.00 C 480.36 138.63 479.83 147.36 480.00 156.00 C 480.17 164.64 479.90 173.37 480.00 182.00 C 480.10 190.63 479.90 199.40 480.00 208.00 C 480.10 216.60 479.85 225.47 480.00 234.00 C 480.16 242.53 479.68 251.64 480.00 260.00 C 480.32 268.36 479.31 278.02 480.00 286.00 C 480.69 293.98 478.47 304.86 480.00 312.00 C 481.53 319.14 476.13 332.33 481.00 337.00 Z"/>
</g>
<g fill="None" fill-opacity="0.0" stroke="#676868" stroke-opacity="1.00" stroke-width="0.3"><path d="
M 250.00 112.00 
C 254.00 112.00 258.00 112.00 262.00 112.00
C 258.29 111.64 253.77 111.63 250.00 112.00 Z"/>
</g>
<g fill="None" fill-opacity="0.0" stroke="#000000" stroke-opacity="1.00" stroke-width="0.3"><path d="
M 157.00 205.00 
C 157.00 209.00 157.00 213.00 157.00 217.00
C 157.00 264.64 202.36 310.00 250.00 310.00
C 254.33 310.00 258.67 310.00 263.00 310.00
C 274.17 310.00 288.67 304.98 297.93 300.93 C 307.19 296.87 318.09 289.40 324.25 283.25 C 330.41 277.10 346.44 263.00 336.00 257.00
C 326.26 251.40 321.58 266.41 314.75 271.75 C 307.92 277.09 301.11 283.74 292.31 287.31 C 283.50 290.87 272.26 295.00 262.00 295.00
C 258.18 295.37 253.79 295.46 250.00 295.00
C 245.25 294.91 241.05 293.84 237.00 293.00
C 202.78 290.67 172.64 250.17 172.00 218.00
C 171.45 213.49 171.46 208.44 172.00 204.00
C 172.80 163.97 211.09 127.00 251.00 127.00
C 254.14 126.70 257.92 126.70 261.00 127.00
C 282.40 127.00 301.16 137.16 316.00 152.00
C 329.83 165.83 339.60 184.15 340.00 204.00
C 340.50 208.16 340.39 212.93 340.00 217.00
C 340.00 222.81 335.55 236.24 344.00 238.00
C 355.08 240.30 355.00 224.07 355.00 217.00
C 355.00 213.00 355.00 209.00 355.00 205.00
C 355.00 157.22 309.73 112.00 262.00 112.00
C 258.00 112.00 254.00 112.00 250.00 112.00
C 202.22 112.00 157.00 157.23 157.00 205.00 Z"/>
</g>
<g fill="None" fill-opacity="0.0" stroke="#598E78" stroke-opacity="1.00" stroke-width="0.3"><path d="
M 251.00 127.00 
C 254.33 127.00 257.67 127.00 261.00 127.00
C 257.92 126.70 254.14 126.70 251.00 127.00 Z"/>
</g>
<g fill="None" fill-opacity="0.0" stroke="#9AF5CF" stroke-opacity="1.00" stroke-width="0.3"><path d="
M 172.00 204.00 
C 171.91 208.65 171.91 213.35 172.00 218.00
C 172.64 250.17 202.78 290.67 237.00 293.00
C 260.17 294.58 285.26 284.27 301.25 268.25 C 317.24 252.23 331.97 230.20 329.00 208.00
C 327.83 216.13 319.33 218.37 316.23 226.23 C 313.13 234.09 302.01 235.11 298.23 226.77 C 294.45 218.43 288.81 217.58 285.08 208.92 C 281.35 200.27 295.82 194.37 300.00 204.00
C 298.25 183.66 279.55 165.00 259.00 164.00
C 256.05 163.84 252.96 163.89 250.00 164.00
C 237.05 164.49 233.09 168.74 222.25 176.25 C 211.41 183.75 205.47 167.28 216.70 161.70 C 227.93 156.12 232.84 149.96 245.07 149.07 C 257.31 148.19 270.76 149.18 280.69 154.31 C 290.63 159.43 296.66 164.14 303.25 172.75 C 309.83 181.36 313.43 191.42 315.00 202.00
C 318.48 197.48 328.02 197.46 329.00 204.00
C 331.33 186.85 326.61 166.27 316.00 152.00
C 301.16 137.16 282.40 127.00 261.00 127.00
C 257.67 127.00 254.33 127.00 251.00 127.00
C 211.09 127.00 172.80 163.97 172.00 204.00
M 212.00 218.00 
C 213.04 228.56 217.66 237.81 225.75 245.25 C 233.84 252.69 243.22 258.78 255.00 258.00 C 266.78 257.22 277.77 257.99 286.75 247.75 C 295.74 237.52 308.43 250.64 297.75 258.75 C 287.08 266.86 280.99 269.38 269.00 272.00 C 257.01 274.61 243.13 272.61 232.92 268.08 C 222.72 263.54 216.52 258.15 209.25 249.75 C 201.97 241.35 198.86 230.60 197.00 220.00
C 185.31 231.34 179.64 212.43 187.25 207.25 C 194.86 202.07 196.36 186.10 207.00 189.00 C 217.64 191.90 215.86 202.75 224.75 209.25 C 233.65 215.75 218.29 231.68 212.00 218.00 Z"/>
</g>
<g fill="None" fill-opacity="0.0" stroke="#000000" stroke-opacity="1.00" stroke-width="0.3"><path d="
M 250.00 164.00 
C 253.11 163.56 255.93 163.50 259.00 164.00
C 279.55 165.00 298.25 183.66 300.00 204.00
C 295.82 194.37 281.35 200.27 285.08 208.92 C 288.81 217.58 294.45 218.43 298.23 226.77 C 302.01 235.11 313.13 234.09 316.23 226.23 C 319.33 218.37 327.83 216.13 329.00 208.00
C 328.84 206.83 328.84 205.17 329.00 204.00
C 328.02 197.46 318.48 197.48 315.00 202.00
C 313.43 191.42 309.83 181.36 303.25 172.75 C 296.66 164.14 290.63 159.43 280.69 154.31 C 270.76 149.18 257.31 148.19 245.07 149.07 C 232.84 149.96 227.93 156.12 216.70 161.70 C 205.47 167.28 211.41 183.75 222.25 176.25 C 233.09 168.74 237.05 164.49 250.00 164.00 Z"/>
</g>
<g fill="None" fill-opacity="0.0" stroke="#10EEA5" stroke-opacity="1.00" stroke-width="0.3"><path d="
M 329.00 204.00 
C 328.84 205.17 328.84 206.83 329.00 208.00
C 331.97 230.20 317.24 252.23 301.25 268.25 C 285.26 284.27 260.17 294.58 237.00 293.00
C 241.05 293.84 245.25 294.91 250.00 295.00
C 254.00 295.08 258.00 295.00 262.00 295.00
C 272.26 295.00 283.50 290.87 292.31 287.31 C 301.11 283.74 307.92 277.09 314.75 271.75 C 321.58 266.41 326.26 251.40 336.00 257.00
C 339.82 251.23 342.38 244.61 344.00 238.00
C 335.55 236.24 340.00 222.81 340.00 217.00
C 340.00 212.67 340.09 208.33 340.00 204.00
C 339.60 184.15 329.83 165.83 316.00 152.00
C 326.61 166.27 331.33 186.85 329.00 204.00 Z"/>
</g>
<g fill="None" fill-opacity="0.0" stroke="#466F5E" stroke-opacity="1.00" stroke-width="0.3"><path d="
M 250.00 164.00 
C 252.96 163.89 256.05 163.84 259.00 164.00
C 255.93 163.50 253.11 163.56 250.00 164.00 Z"/>
</g>
<g fill="None" fill-opacity="0.0" stroke="#000000" stroke-opacity="1.00" stroke-width="0.3"><path d="
M 212.00 218.00 
C 218.29 231.68 233.65 215.75 224.75 209.25 C 215.86 202.75 217.64 191.90 207.00 189.00 C 196.36 186.10 194.86 202.07 187.25 207.25 C 179.64 212.43 185.31 231.34 197.00 220.00
C 198.86 230.60 201.97 241.35 209.25 249.75 C 216.52 258.15 222.72 263.54 232.92 268.08 C 243.13 272.61 257.01 274.61 269.00 272.00 C 280.99 269.38 287.08 266.86 297.75 258.75 C 308.43 250.64 295.74 237.52 286.75 247.75 C 277.77 257.99 266.78 257.22 255.00 258.00 C 243.22 258.78 233.84 252.69 225.75 245.25 C 217.66 237.81 213.04 228.56 212.00 218.00 Z"/>
</g>
<g fill="None" fill-opacity="0.0" stroke="#4B7866" stroke-opacity="1.00" stroke-width="0.3"><path d="
M 172.00 218.00 
C 171.91 213.35 171.91 208.65 172.00 204.00
C 171.46 208.44 171.45 213.49 172.00 218.00 Z"/>
</g>
<g fill="None" fill-opacity="0.0" stroke="#007651" stroke-opacity="1.00" stroke-width="0.3"><path d="
M 340.00 217.00 
C 340.39 212.93 340.50 208.16 340.00 204.00
C 340.09 208.33 340.00 212.67 340.00 217.00 Z"/>
</g>
<g fill="None" fill-opacity="0.0" stroke="#717273" stroke-opacity="1.00" stroke-width="0.3"><path d="
M 157.00 217.00 
C 157.00 213.00 157.00 209.00 157.00 205.00
C 156.64 208.71 156.63 213.23 157.00 217.00 Z"/>
</g>
<g fill="None" fill-opacity="0.0" stroke="#737474" stroke-opacity="1.00" stroke-width="0.3"><path d="
M 355.00 217.00 
C 355.36 213.29 355.37 208.77 355.00 205.00
C 355.00 209.00 355.00 213.00 355.00 217.00 Z"/>
</g>
<g fill="None" fill-opacity="0.0" stroke="#006F4C" stroke-opacity="1.00" stroke-width="0.3"><path d="
M 262.00 295.00 
C 258.00 295.00 254.00 295.08 250.00 295.00
C 253.79 295.46 258.18 295.37 262.00 295.00 Z"/>
</g>
<g fill="None" fill-opacity="0.0" stroke="#818283" stroke-opacity="1.00" stroke-width="0.3"><path d="
M 263.00 310.00 
C 258.67 310.00 254.33 310.00 250.00 310.00
C 254.02 310.39 258.91 310.40 263.00 310.00 Z"/>
</g>
<g fill="None" fill-opacity="0.0" stroke="#D8E6EB" stroke-opacity="1.00" stroke-width="0.3"><path d="
M 497.00 352.00 
C 336.33 352.00 175.66 352.00 15.00 352.00
C 12.14 373.25 12.64 403.00 39.00 401.00 C 65.36 399.00 85.83 401.86 111.00 401.00 C 136.17 400.14 159.31 401.34 184.00 401.00 C 208.69 400.66 231.46 401.03 256.00 401.00 C 280.54 400.97 304.36 400.76 329.00 401.00 C 353.64 401.24 375.95 400.30 401.00 401.00 C 426.05 401.70 447.97 399.41 474.00 401.00 C 500.03 402.59 499.19 372.40 497.00 352.00
M 276.00 369.00 
C 285.62 372.21 278.94 387.40 269.00 384.00 C 259.06 380.60 246.20 387.34 236.33 383.67 C 226.46 380.00 232.98 365.92 243.00 369.00 C 253.02 372.08 266.07 365.69 276.00 369.00 Z"/>
</g>
<g fill="None" fill-opacity="0.0" stroke="#000000" stroke-opacity="1.00" stroke-width="0.3"><path d="
M 276.00 369.00 
C 266.07 365.69 253.02 372.08 243.00 369.00 C 232.98 365.92 226.46 380.00 236.33 383.67 C 246.20 387.34 259.06 380.60 269.00 384.00 C 278.94 387.40 285.62 372.21 276.00 369.00 Z"/>
</g>
<g fill="None" fill-opacity="0.0" stroke="#000000" stroke-opacity="0.01" stroke-width="0.3"><path d="
M 0.00 512.00 
L 512.00 512.00
L 512.00 387.00
C 502.04 426.13 460.17 415.17 426.00 416.00 C 391.83 416.83 347.12 415.38 312.00 416.00
C 312.19 437.78 313.88 459.22 318.00 480.00
C 326.98 481.98 338.16 477.32 346.92 480.08 C 355.68 482.84 349.83 495.80 341.00 494.00 C 332.17 492.20 321.16 494.82 312.00 494.00 C 302.84 493.18 293.29 494.32 284.00 494.00 C 274.71 493.68 265.38 494.04 256.00 494.00 C 246.62 493.96 236.38 493.82 227.00 494.00 C 217.62 494.18 208.30 493.43 199.00 494.00 C 189.70 494.57 179.09 492.73 170.00 494.00 C 160.91 495.26 157.02 481.60 166.00 480.00 C 174.98 478.40 184.93 481.20 194.00 480.00
C 198.19 459.20 199.68 437.76 200.00 416.00
C 164.67 415.45 119.32 416.73 85.00 416.00 C 50.68 415.27 10.11 425.85 0.00 387.00
L 0.00 512.00 Z"/>
</g>
<g fill="None" fill-opacity="0.0" stroke="#C0CED8" stroke-opacity="1.00" stroke-width="0.3"><path d="
M 297.00 416.00 
C 269.67 416.00 242.33 416.00 215.00 416.00
C 213.66 437.17 213.38 458.62 209.00 479.00
C 240.33 479.00 271.67 479.00 303.00 479.00
C 298.90 458.52 298.12 437.22 297.00 416.00 Z"/>
</g>
<g fill="#000000" fill-opacity="0.01" stroke="None">
<path d="
M 0.00 86.00 
C 2.01 49.10 45.13 52.58 73.00 54.00
C 73.03 42.97 69.81 23.47 83.70 19.70 C 97.58 15.92 112.66 18.21 127.00 18.00 C 141.34 17.79 158.14 17.25 172.00 18.00 C 185.86 18.75 203.59 12.86 211.00 25.00
C 213.57 26.27 228.37 26.19 231.00 25.00
C 232.24 13.93 249.73 18.64 259.00 18.00 C 268.27 17.36 284.28 18.27 295.00 18.00 C 305.72 17.73 319.67 18.09 331.00 18.00 C 342.33 17.91 355.52 17.96 367.00 18.00 C 378.48 18.04 391.71 17.82 403.00 18.00 C 414.29 18.18 425.04 15.85 433.75 23.25 C 442.47 30.65 437.87 42.88 439.00 53.00
C 466.56 52.76 508.99 48.93 512.00 85.00
L 512.00 0.00
L 0.00 0.00
L 0.00 86.00 Z"/>
</g>
<g fill="#000000" fill-opacity="1.00" stroke="None">
<path d="
M 0.00 86.00 
L 0.00 387.00
C 10.11 425.85 50.68 415.27 85.00 416.00 C 119.32 416.73 164.67 415.45 200.00 416.00
C 199.68 437.76 198.19 459.20 194.00 480.00
C 184.93 481.20 174.98 478.40 166.00 480.00 C 157.02 481.60 160.91 495.26 170.00 494.00 C 179.09 492.73 189.70 494.57 199.00 494.00 C 208.30 493.43 217.62 494.18 227.00 494.00 C 236.38 493.82 246.62 493.96 256.00 494.00 C 265.38 494.04 274.71 493.68 284.00 494.00 C 293.29 494.32 302.84 493.18 312.00 494.00 C 321.16 494.82 332.17 492.20 341.00 494.00 C 349.83 495.80 355.68 482.84 346.92 480.08 C 338.16 477.32 326.98 481.98 318.00 480.00
C 313.88 459.22 312.19 437.78 312.00 416.00
C 347.12 415.38 391.83 416.83 426.00 416.00 C 460.17 415.17 502.04 426.13 512.00 387.00
L 512.00 85.00
C 508.99 48.93 466.56 52.76 439.00 54.00
C 437.87 42.88 442.47 30.65 433.75 23.25 C 425.04 15.85 414.29 18.18 403.00 18.00 C 391.71 17.82 378.48 18.04 367.00 18.00 C 355.52 17.96 342.33 17.91 331.00 18.00 C 319.67 18.09 305.72 17.73 295.00 18.00 C 284.28 18.27 268.27 17.36 259.00 18.00 C 249.73 18.64 232.24 13.93 231.00 25.00
C 229.83 35.43 244.12 32.97 252.00 33.00 C 259.88 33.03 272.99 32.97 282.00 33.00 C 291.01 33.03 302.53 32.95 312.00 33.00 C 321.47 33.05 332.41 32.90 342.00 33.00 C 351.59 33.10 362.58 32.78 372.00 33.00 C 381.42 33.22 393.13 32.51 402.00 33.00 C 410.87 33.49 424.89 29.15 425.00 40.00 C 425.11 50.85 424.92 59.36 425.00 70.00
C 312.33 70.00 199.67 70.00 87.00 70.00
C 90.93 61.03 79.57 35.64 92.01 33.01 C 104.44 30.38 121.16 34.60 134.00 33.00 C 146.84 31.40 163.54 34.65 176.00 33.00 C 188.46 31.35 206.78 39.04 211.00 25.00
C 203.59 12.86 185.86 18.75 172.00 18.00 C 158.14 17.25 141.34 17.79 127.00 18.00 C 112.66 18.21 97.58 15.92 83.70 19.70 C 69.81 23.47 73.03 42.97 73.00 54.00
C 45.13 52.58 2.01 49.10 0.00 86.00
M 72.00 69.00 
C 72.00 75.33 72.00 81.67 72.00 88.00
C 57.79 87.08 32.24 85.51 31.07 105.07 C 29.91 124.63 31.48 143.57 31.00 163.00 C 30.52 182.43 31.22 201.62 31.00 221.00 C 30.78 240.38 31.12 259.64 31.00 279.00 C 30.88 298.36 31.09 317.65 31.00 337.00
C 25.67 337.00 20.33 337.00 15.00 337.00
C 14.63 309.47 15.49 283.71 15.00 256.00 C 14.51 228.29 15.94 203.36 15.00 175.00 C 14.06 146.64 17.01 123.91 15.00 94.00 C 12.99 64.09 48.80 66.98 72.00 69.00
M 481.00 337.00 
C 476.13 332.33 481.53 319.14 480.00 312.00 C 478.47 304.86 480.69 293.98 480.00 286.00 C 479.31 278.02 480.32 268.36 480.00 260.00 C 479.68 251.64 480.16 242.53 480.00 234.00 C 479.85 225.47 480.10 216.60 480.00 208.00 C 479.90 199.40 480.10 190.63 480.00 182.00 C 479.90 173.37 480.17 164.64 480.00 156.00 C 479.83 147.36 480.36 138.63 480.00 130.00 C 479.64 121.37 480.78 112.59 480.00 104.00
C 476.06 84.95 456.12 87.47 440.00 88.00
C 440.00 81.67 440.00 75.33 440.00 69.00
C 452.67 69.00 465.33 69.00 478.00 69.00
C 504.23 70.00 496.39 100.23 497.00 121.00 C 497.61 141.77 496.71 170.50 497.00 193.00 C 497.29 215.50 496.85 241.78 497.00 265.00 C 497.15 288.22 496.89 313.59 497.00 337.00
C 491.67 337.00 486.33 337.00 481.00 337.00
M 425.00 85.00 
C 425.00 169.00 425.00 253.00 425.00 337.00
C 312.33 337.00 199.67 337.00 87.00 337.00
C 87.00 253.00 87.00 169.00 87.00 85.00
C 199.67 85.00 312.33 85.00 425.00 85.00
M 72.00 103.00 
C 72.00 181.00 72.00 259.00 72.00 337.00
C 63.33 337.00 54.67 337.00 46.00 337.00
C 45.97 324.63 46.04 312.38 46.00 300.00 C 45.96 287.62 46.08 275.43 46.00 263.00 C 45.92 250.57 46.18 238.53 46.00 226.00 C 45.82 213.47 46.39 201.77 46.00 189.00 C 45.61 176.23 46.85 165.30 46.00 152.00 C 45.15 138.70 47.89 129.47 46.00 115.00 C 44.11 100.53 59.86 101.82 72.00 103.00
M 453.00 337.00 
C 448.67 337.00 444.33 337.00 440.00 337.00
C 440.00 259.33 440.00 181.67 440.00 104.00
C 443.15 99.50 453.66 104.27 460.00 103.00 C 466.34 101.73 466.74 113.00 466.00 119.00 C 465.26 125.00 466.34 134.31 466.00 141.00 C 465.66 147.69 466.16 156.04 466.00 163.00 C 465.84 169.96 466.07 176.88 466.00 184.00 C 465.93 191.12 466.03 198.78 466.00 206.00 C 465.97 213.22 466.01 220.75 466.00 228.00 C 465.99 235.25 466.01 242.77 466.00 250.00 C 465.99 257.23 466.00 263.76 466.00 271.00 C 466.00 278.24 466.00 285.71 466.00 293.00 C 466.00 300.29 466.00 307.69 466.00 315.00 C 466.00 322.31 466.00 329.68 466.00 337.00
C 461.67 337.00 457.33 337.00 453.00 337.00
M 497.00 352.00 
C 499.19 372.40 500.03 402.59 474.00 401.00 C 447.97 399.41 426.05 401.70 401.00 401.00 C 375.95 400.30 353.64 401.24 329.00 401.00 C 304.36 400.76 280.54 400.97 256.00 401.00 C 231.46 401.03 208.69 400.66 184.00 401.00 C 159.31 401.34 136.17 400.14 111.00 401.00 C 85.83 401.86 65.36 399.00 39.00 401.00 C 12.64 403.00 12.14 373.25 15.00 352.00
C 175.66 352.00 336.33 352.00 497.00 352.00
M 297.00 416.00 
C 298.12 437.22 298.90 458.52 303.00 479.00
C 271.67 479.00 240.33 479.00 209.00 479.00
C 213.38 458.62 213.66 437.17 215.00 416.00
C 242.33 416.00 269.67 416.00 297.00 416.00 Z"/>
</g>
<g fill="#FCB33F" fill-opacity="1.00" stroke="None">
<path d="
M 231.00 25.00 
C 228.37 26.19 213.57 26.27 211.00 25.00
C 206.78 39.04 188.46 31.35 176.00 33.00 C 163.54 34.65 146.84 31.40 134.00 33.00 C 121.16 34.60 104.44 30.38 92.01 33.01 C 79.57 35.64 90.93 61.03 87.00 70.00
C 199.67 70.00 312.33 70.00 425.00 70.00
C 424.92 59.36 425.11 50.85 425.00 40.00 C 424.89 29.15 410.87 33.49 402.00 33.00 C 393.13 32.51 381.42 33.22 372.00 33.00 C 362.58 32.78 351.59 33.10 342.00 33.00 C 332.41 32.90 321.47 33.05 312.00 33.00 C 302.53 32.95 291.01 33.03 282.00 33.00 C 272.99 32.97 259.88 33.03 252.00 33.00 C 244.12 32.97 229.83 35.43 231.00 25.00 Z"/>
</g>
<g fill="#586B75" fill-opacity="1.00" stroke="None">
<path d="
M 72.00 69.00 
C 48.80 66.98 12.99 64.09 15.00 94.00 C 17.01 123.91 14.06 146.64 15.00 175.00 C 15.94 203.36 14.51 228.29 15.00 256.00 C 15.49 283.71 14.63 309.47 15.00 337.00
C 20.33 337.00 25.67 337.00 31.00 337.00
C 31.09 317.65 30.88 298.36 31.00 279.00 C 31.12 259.64 30.78 240.38 31.00 221.00 C 31.22 201.62 30.52 182.43 31.00 163.00 C 31.48 143.57 29.91 124.63 31.07 105.07 C 32.24 85.51 57.79 87.08 72.00 88.00
C 72.00 81.67 72.00 75.33 72.00 69.00 Z"/>
</g>
<g fill="#586B75" fill-opacity="1.00" stroke="None">
<path d="
M 480.00 104.00 
C 485.00 128.15 479.48 154.63 481.00 180.00 C 482.52 205.37 480.43 232.33 481.00 258.00 C 481.57 283.67 481.00 310.25 481.00 336.00
C 482.00 336.05 483.00 335.96 484.00 336.00
C 483.82 313.47 484.25 290.48 484.00 268.00 C 483.75 245.52 484.47 222.32 484.00 200.00 C 483.53 177.68 485.02 153.92 484.00 132.00 C 482.98 110.08 488.80 87.70 478.00 69.00
C 465.33 69.00 452.67 69.00 440.00 69.00
C 440.00 75.33 440.00 81.67 440.00 88.00
C 456.12 87.47 476.06 84.95 480.00 104.00 Z"/>
</g>
<g fill="#465A61" fill-opacity="1.00" stroke="None">
<path d="
M 481.00 336.00 
C 481.00 336.50 481.00 337.00 481.00 337.00
C 486.33 337.00 491.67 337.00 497.00 337.00
C 496.89 313.59 497.15 288.22 497.00 265.00 C 496.85 241.78 497.29 215.50 497.00 193.00 C 496.71 170.50 497.61 141.77 497.00 121.00 C 496.39 100.23 504.23 70.00 478.00 69.00
C 488.80 87.70 482.98 110.08 484.00 132.00 C 485.02 153.92 483.53 177.68 484.00 200.00 C 484.47 222.32 483.75 245.52 484.00 268.00 C 484.25 290.48 483.82 313.47 484.00 336.00
C 483.00 335.96 482.00 336.05 481.00 336.00 Z"/>
</g>
<g fill="#F3F6F7" fill-opacity="1.00" stroke="None">
<path d="
M 425.00 85.00 
C 312.33 85.00 199.67 85.00 87.00 85.00
C 87.00 169.00 87.00 253.00 87.00 337.00
C 199.67 337.00 312.33 337.00 425.00 337.00
C 425.00 253.00 425.00 169.00 425.00 85.00
M 262.00 112.00 
C 309.73 112.00 355.00 157.22 355.00 205.00
C 355.37 208.77 355.36 213.29 355.00 217.00
C 355.00 224.07 355.08 240.30 344.00 238.00
C 342.38 244.61 339.82 251.23 336.00 257.00
C 346.44 263.00 330.41 277.10 324.25 283.25 C 318.09 289.40 307.19 296.87 297.93 300.93 C 288.67 304.98 274.17 310.00 263.00 310.00
C 258.91 310.40 254.02 310.39 250.00 310.00
C 202.36 310.00 157.00 264.64 157.00 217.00
C 156.63 213.23 156.64 208.71 157.00 205.00
C 157.00 157.23 202.22 112.00 250.00 112.00
C 253.77 111.63 258.29 111.64 262.00 112.00 Z"/>
</g>
<g fill="#C5EBFA" fill-opacity="1.00" stroke="None">
<path d="
M 72.00 103.00 
C 59.86 101.82 44.11 100.53 46.00 115.00 C 47.89 129.47 45.15 138.70 46.00 152.00 C 46.85 165.30 45.61 176.23 46.00 189.00 C 46.39 201.77 45.82 213.47 46.00 226.00 C 46.18 238.53 45.92 250.57 46.00 263.00 C 46.08 275.43 45.96 287.62 46.00 300.00 C 46.04 312.38 45.97 324.63 46.00 337.00
C 54.67 337.00 63.33 337.00 72.00 337.00
C 72.00 259.00 72.00 181.00 72.00 103.00 Z"/>
</g>
<g fill="#95DFF5" fill-opacity="1.00" stroke="None">
<path d="
M 440.00 104.00 
C 444.33 104.00 448.67 104.00 453.00 104.00
C 453.00 181.67 453.00 259.33 453.00 337.00
C 457.33 337.00 461.67 337.00 466.00 337.00
C 466.00 329.68 466.00 322.31 466.00 315.00 C 466.00 307.69 466.00 300.29 466.00 293.00 C 466.00 285.71 466.00 278.24 466.00 271.00 C 466.00 263.76 465.99 257.23 466.00 250.00 C 466.01 242.77 465.99 235.25 466.00 228.00 C 466.01 220.75 465.97 213.22 466.00 206.00 C 466.03 198.78 465.93 191.12 466.00 184.00 C 466.07 176.88 465.84 169.96 466.00 163.00 C 466.16 156.04 465.66 147.69 466.00 141.00 C 466.34 134.31 465.26 125.00 466.00 119.00 C 466.74 113.00 466.34 101.73 460.00 103.00 C 453.66 104.27 443.15 99.50 440.00 104.00 Z"/>
</g>
<g fill="#C7EEFD" fill-opacity="1.00" stroke="None">
<path d="
M 453.00 337.00 
C 453.00 259.33 453.00 181.67 453.00 104.00
C 448.67 104.00 444.33 104.00 440.00 104.00
C 440.00 181.67 440.00 259.33 440.00 337.00
C 444.33 337.00 448.67 337.00 453.00 337.00 Z"/>
</g>
<g fill="#1B2124" fill-opacity="1.00" stroke="None">
<path d="
M 481.00 337.00 
C 481.00 337.00 481.00 336.50 481.00 336.00
C 481.00 310.25 481.57 283.67 481.00 258.00 C 480.43 232.33 482.52 205.37 481.00 180.00 C 479.48 154.63 485.00 128.15 480.00 104.00
C 480.78 112.59 479.64 121.37 480.00 130.00 C 480.36 138.63 479.83 147.36 480.00 156.00 C 480.17 164.64 479.90 173.37 480.00 182.00 C 480.10 190.63 479.90 199.40 480.00 208.00 C 480.10 216.60 479.85 225.47 480.00 234.00 C 480.16 242.53 479.68 251.64 480.00 260.00 C 480.32 268.36 479.31 278.02 480.00 286.00 C 480.69 293.98 478.47 304.86 480.00 312.00 C 481.53 319.14 476.13 332.33 481.00 337.00 Z"/>
</g>
<g fill="#676868" fill-opacity="1.00" stroke="None">
<path d="
M 250.00 112.00 
C 254.00 112.00 258.00 112.00 262.00 112.00
C 258.29 111.64 253.77 111.63 250.00 112.00 Z"/>
</g>
<g fill="#000000" fill-opacity="1.00" stroke="None">
<path d="
M 157.00 205.00 
C 157.00 209.00 157.00 213.00 157.00 217.00
C 157.00 264.64 202.36 310.00 250.00 310.00
C 254.33 310.00 258.67 310.00 263.00 310.00
C 274.17 310.00 288.67 304.98 297.93 300.93 C 307.19 296.87 318.09 289.40 324.25 283.25 C 330.41 277.10 346.44 263.00 336.00 257.00
C 326.26 251.40 321.58 266.41 314.75 271.75 C 307.92 277.09 301.11 283.74 292.31 287.31 C 283.50 290.87 272.26 295.00 262.00 295.00
C 258.18 295.37 253.79 295.46 250.00 295.00
C 245.25 294.91 241.05 293.84 237.00 293.00
C 202.78 290.67 172.64 250.17 172.00 218.00
C 171.45 213.49 171.46 208.44 172.00 204.00
C 172.80 163.97 211.09 127.00 251.00 127.00
C 254.14 126.70 257.92 126.70 261.00 127.00
C 282.40 127.00 301.16 137.16 316.00 152.00
C 329.83 165.83 339.60 184.15 340.00 204.00
C 340.50 208.16 340.39 212.93 340.00 217.00
C 340.00 222.81 335.55 236.24 344.00 238.00
C 355.08 240.30 355.00 224.07 355.00 217.00
C 355.00 213.00 355.00 209.00 355.00 205.00
C 355.00 157.22 309.73 112.00 262.00 112.00
C 258.00 112.00 254.00 112.00 250.00 112.00
C 202.22 112.00 157.00 157.23 157.00 205.00 Z"/>
</g>
<g fill="#598E78" fill-opacity="1.00" stroke="None">
<path d="
M 251.00 127.00 
C 254.33 127.00 257.67 127.00 261.00 127.00
C 257.92 126.70 254.14 126.70 251.00 127.00 Z"/>
</g>
<g fill="#9AF5CF" fill-opacity="1.00" stroke="None">
<path d="
M 172.00 204.00 
C 171.91 208.65 171.91 213.35 172.00 218.00
C 172.64 250.17 202.78 290.67 237.00 293.00
C 260.17 294.58 285.26 284.27 301.25 268.25 C 317.24 252.23 331.97 230.20 329.00 208.00
C 327.83 216.13 319.33 218.37 316.23 226.23 C 313.13 234.09 302.01 235.11 298.23 226.77 C 294.45 218.43 288.81 217.58 285.08 208.92 C 281.35 200.27 295.82 194.37 300.00 204.00
C 298.25 183.66 279.55 165.00 259.00 164.00
C 256.05 163.84 252.96 163.89 250.00 164.00
C 237.05 164.49 233.09 168.74 222.25 176.25 C 211.41 183.75 205.47 167.28 216.70 161.70 C 227.93 156.12 232.84 149.96 245.07 149.07 C 257.31 148.19 270.76 149.18 280.69 154.31 C 290.63 159.43 296.66 164.14 303.25 172.75 C 309.83 181.36 313.43 191.42 315.00 202.00
C 318.48 197.48 328.02 197.46 329.00 204.00
C 331.33 186.85 326.61 166.27 316.00 152.00
C 301.16 137.16 282.40 127.00 261.00 127.00
C 257.67 127.00 254.33 127.00 251.00 127.00
C 211.09 127.00 172.80 163.97 172.00 204.00
M 212.00 218.00 
C 213.04 228.56 217.66 237.81 225.75 245.25 C 233.84 252.69 243.22 258.78 255.00 258.00 C 266.78 257.22 277.77 257.99 286.75 247.75 C 295.74 237.52 308.43 250.64 297.75 258.75 C 287.08 266.86 280.99 269.38 269.00 272.00 C 257.01 274.61 243.13 272.61 232.92 268.08 C 222.72 263.54 216.52 258.15 209.25 249.75 C 201.97 241.35 198.86 230.60 197.00 220.00
C 185.31 231.34 179.64 212.43 187.25 207.25 C 194.86 202.07 196.36 186.10 207.00 189.00 C 217.64 191.90 215.86 202.75 224.75 209.25 C 233.65 215.75 218.29 231.68 212.00 218.00 Z"/>
</g>
<g fill="#000000" fill-opacity="1.00" stroke="None">
<path d="
M 250.00 164.00 
C 253.11 163.56 255.93 163.50 259.00 164.00
C 279.55 165.00 298.25 183.66 300.00 204.00
C 295.82 194.37 281.35 200.27 285.08 208.92 C 288.81 217.58 294.45 218.43 298.23 226.77 C 302.01 235.11 313.13 234.09 316.23 226.23 C 319.33 218.37 327.83 216.13 329.00 208.00
C 328.84 206.83 328.84 205.17 329.00 204.00
C 328.02 197.46 318.48 197.48 315.00 202.00
C 313.43 191.42 309.83 181.36 303.25 172.75 C 296.66 164.14 290.63 159.43 280.69 154.31 C 270.76 149.18 257.31 148.19 245.07 149.07 C 232.84 149.96 227.93 156.12 216.70 161.70 C 205.47 167.28 211.41 183.75 222.25 176.25 C 233.09 168.74 237.05 164.49 250.00 164.00 Z"/>
</g>
<g fill="#10EEA5" fill-opacity="1.00" stroke="None">
<path d="
M 329.00 204.00 
C 328.84 205.17 328.84 206.83 329.00 208.00
C 331.97 230.20 317.24 252.23 301.25 268.25 C 285.26 284.27 260.17 294.58 237.00 293.00
C 241.05 293.84 245.25 294.91 250.00 295.00
C 254.00 295.08 258.00 295.00 262.00 295.00
C 272.26 295.00 283.50 290.87 292.31 287.31 C 301.11 283.74 307.92 277.09 314.75 271.75 C 321.58 266.41 326.26 251.40 336.00 257.00
C 339.82 251.23 342.38 244.61 344.00 238.00
C 335.55 236.24 340.00 222.81 340.00 217.00
C 340.00 212.67 340.09 208.33 340.00 204.00
C 339.60 184.15 329.83 165.83 316.00 152.00
C 326.61 166.27 331.33 186.85 329.00 204.00 Z"/>
</g>
<g fill="#466F5E" fill-opacity="1.00" stroke="None">
<path d="
M 250.00 164.00 
C 252.96 163.89 256.05 163.84 259.00 164.00
C 255.93 163.50 253.11 163.56 250.00 164.00 Z"/>
</g>
<g fill="#000000" fill-opacity="1.00" stroke="None">
<path d="
M 212.00 218.00 
C 218.29 231.68 233.65 215.75 224.75 209.25 C 215.86 202.75 217.64 191.90 207.00 189.00 C 196.36 186.10 194.86 202.07 187.25 207.25 C 179.64 212.43 185.31 231.34 197.00 220.00
C 198.86 230.60 201.97 241.35 209.25 249.75 C 216.52 258.15 222.72 263.54 232.92 268.08 C 243.13 272.61 257.01 274.61 269.00 272.00 C 280.99 269.38 287.08 266.86 297.75 258.75 C 308.43 250.64 295.74 237.52 286.75 247.75 C 277.77 257.99 266.78 257.22 255.00 258.00 C 243.22 258.78 233.84 252.69 225.75 245.25 C 217.66 237.81 213.04 228.56 212.00 218.00 Z"/>
</g>
<g fill="#4B7866" fill-opacity="1.00" stroke="None">
<path d="
M 172.00 218.00 
C 171.91 213.35 171.91 208.65 172.00 204.00
C 171.46 208.44 171.45 213.49 172.00 218.00 Z"/>
</g>
<g fill="#007651" fill-opacity="1.00" stroke="None">
<path d="
M 340.00 217.00 
C 340.39 212.93 340.50 208.16 340.00 204.00
C 340.09 208.33 340.00 212.67 340.00 217.00 Z"/>
</g>
<g fill="#717273" fill-opacity="1.00" stroke="None">
<path d="
M 157.00 217.00 
C 157.00 213.00 157.00 209.00 157.00 205.00
C 156.64 208.71 156.63 213.23 157.00 217.00 Z"/>
</g>
<g fill="#737474" fill-opacity="1.00" stroke="None">
<path d="
M 355.00 217.00 
C 355.36 213.29 355.37 208.77 355.00 205.00
C 355.00 209.00 355.00 213.00 355.00 217.00 Z"/>
</g>
<g fill="#006F4C" fill-opacity="1.00" stroke="None">
<path d="
M 262.00 295.00 
C 258.00 295.00 254.00 295.08 250.00 295.00
C 253.79 295.46 258.18 295.37 262.00 295.00 Z"/>
</g>
<g fill="#818283" fill-opacity="1.00" stroke="None">
<path d="
M 263.00 310.00 
C 258.67 310.00 254.33 310.00 250.00 310.00
C 254.02 310.39 258.91 310.40 263.00 310.00 Z"/>
</g>
<g fill="#D8E6EB" fill-opacity="1.00" stroke="None">
<path d="
M 497.00 352.00 
C 336.33 352.00 175.66 352.00 15.00 352.00
C 12.14 373.25 12.64 403.00 39.00 401.00 C 65.36 399.00 85.83 401.86 111.00 401.00 C 136.17 400.14 159.31 401.34 184.00 401.00 C 208.69 400.66 231.46 401.03 256.00 401.00 C 280.54 400.97 304.36 400.76 329.00 401.00 C 353.64 401.24 375.95 400.30 401.00 401.00 C 426.05 401.70 447.97 399.41 474.00 401.00 C 500.03 402.59 499.19 372.40 497.00 352.00
M 276.00 369.00 
C 285.62 372.21 278.94 387.40 269.00 384.00 C 259.06 380.60 246.20 387.34 236.33 383.67 C 226.46 380.00 232.98 365.92 243.00 369.00 C 253.02 372.08 266.07 365.69 276.00 369.00 Z"/>
</g>
<g fill="#000000" fill-opacity="1.00" stroke="None">
<path d="
M 276.00 369.00 
C 266.07 365.69 253.02 372.08 243.00 369.00 C 232.98 365.92 226.46 380.00 236.33 383.67 C 246.20 387.34 259.06 380.60 269.00 384.00 C 278.94 387.40 285.62 372.21 276.00 369.00 Z"/>
</g>
<g fill="#000000" fill-opacity="0.01" stroke="None">
<path d="
M 0.00 512.00 
L 512.00 512.00
L 512.00 387.00
C 502.04 426.13 460.17 415.17 426.00 416.00 C 391.83 416.83 347.12 415.38 312.00 416.00
C 312.19 437.78 313.88 459.22 318.00 480.00
C 326.98 481.98 338.16 477.32 346.92 480.08 C 355.68 482.84 349.83 495.80 341.00 494.00 C 332.17 492.20 321.16 494.82 312.00 494.00 C 302.84 493.18 293.29 494.32 284.00 494.00 C 274.71 493.68 265.38 494.04 256.00 494.00 C 246.62 493.96 236.38 493.82 227.00 494.00 C 217.62 494.18 208.30 493.43 199.00 494.00 C 189.70 494.57 179.09 492.73 170.00 494.00 C 160.91 495.26 157.02 481.60 166.00 480.00 C 174.98 478.40 184.93 481.20 194.00 480.00
C 198.19 459.20 199.68 437.76 200.00 416.00
C 164.67 415.45 119.32 416.73 85.00 416.00 C 50.68 415.27 10.11 425.85 0.00 387.00
L 0.00 512.00 Z"/>
</g>
<g fill="#C0CED8" fill-opacity="1.00" stroke="None">
<path d="
M 297.00 416.00 
C 269.67 416.00 242.33 416.00 215.00 416.00
C 213.66 437.17 213.38 458.62 209.00 479.00
C 240.33 479.00 271.67 479.00 303.00 479.00
C 298.90 458.52 298.12 437.22 297.00 416.00 Z"/>
</g>
</svg>