<svg xmlns="http://www.w3.org/2000/svg" xmlns:v="https://svgstorm.com"
viewBox = "0 0 512 512"
width="512"
height="512">
<g fill="None" fill-opacity="0.0" stroke="#000000" stroke-opacity="0.00" stroke-width="0.3"><path d="
M 0.00 512.00 
L 512.00 512.00
L 512.00 0.00
L 0.00 0.00
L 0.00 512.00
M 382.00 136.00 
C 396.05 134.73 410.89 135.94 425.00 136.00 C 439.11 136.06 453.98 134.56 468.00 136.00
C 489.40 138.20 483.65 163.66 484.00 181.00 C 484.35 198.34 483.92 224.29 484.00 243.00 C 484.08 261.71 484.14 286.23 484.00 305.00 C 483.86 323.77 484.45 349.43 484.00 367.00 C 483.55 384.57 489.76 410.10 468.00 413.00
C 446.37 415.88 422.86 412.66 401.00 413.00 C 379.14 413.34 355.78 414.97 334.00 413.00
C 335.51 429.71 335.51 449.29 334.00 466.00
C 344.46 465.05 356.52 465.17 367.00 466.00
C 384.50 467.39 396.51 483.32 394.00 501.00
C 302.00 501.00 210.00 501.00 118.00 501.00
C 117.70 488.37 120.54 475.11 133.23 469.23 C 145.92 463.35 163.78 467.01 178.00 466.00
C 178.00 448.33 178.00 430.67 178.00 413.00
C 158.52 414.75 138.57 412.34 119.00 413.00 C 99.43 413.66 79.59 413.00 60.00 413.00
C 54.82 413.00 49.13 413.68 44.00 413.00
C 22.58 410.14 28.33 385.47 28.00 368.00 C 27.67 350.53 28.04 324.59 28.00 306.00 C 27.96 287.41 27.76 263.46 28.00 245.00 C 28.24 226.54 27.34 199.99 28.00 183.00 C 28.66 166.01 21.84 138.82 43.00 136.00
C 48.45 135.27 54.50 136.00 60.00 136.00
C 65.61 136.00 71.40 135.78 77.00 136.00 C 82.60 136.22 89.57 135.46 95.00 136.00 C 100.43 136.54 107.08 134.69 112.00 136.00 C 116.92 137.31 126.07 133.22 130.00 136.00
C 123.85 70.41 189.93 11.00 252.00 11.00
C 286.89 11.00 318.96 21.34 343.75 46.25 C 368.55 71.16 382.00 100.95 382.00 136.00 Z"/>
</g>
<g fill="None" fill-opacity="0.0" stroke="#9BCEFF" stroke-opacity="0.97" stroke-width="0.3"><path d="
M 130.00 136.00 
C 133.21 170.22 142.05 200.52 167.75 225.25 C 193.46 249.98 223.26 262.00 259.00 262.00
C 198.56 256.15 149.59 200.40 148.00 140.00 C 146.41 79.60 192.92 18.63 255.00 13.00
C 254.76 11.33 252.15 12.83 252.00 11.00
C 189.93 11.00 123.85 70.41 130.00 136.00 Z"/>
</g>
<g fill="None" fill-opacity="0.0" stroke="#B5DAFE" stroke-opacity="1.00" stroke-width="0.3"><path d="
M 259.00 262.00 
C 325.93 262.00 382.02 203.29 382.00 137.00
C 382.00 136.50 382.00 136.00 382.00 136.00
C 382.00 100.95 368.55 71.16 343.75 46.25 C 318.96 21.34 286.89 11.00 252.00 11.00
C 252.15 12.83 254.76 11.33 255.00 13.00
C 192.92 18.63 146.41 79.60 148.00 140.00 C 149.59 200.40 198.56 256.15 259.00 262.00
M 304.00 126.00 
C 304.52 131.71 303.94 138.33 304.00 144.00 C 304.06 149.67 304.37 156.60 304.00 162.00 C 303.63 167.40 305.04 175.26 304.00 180.00 C 302.96 184.74 306.72 195.40 303.00 198.00
C 298.97 200.82 290.10 196.72 285.00 198.00 C 279.90 199.28 272.58 197.40 267.00 198.00 C 261.42 198.60 254.78 197.69 249.00 198.00 C 243.22 198.31 236.84 197.77 231.00 198.00
C 231.00 174.00 231.00 150.00 231.00 126.00
C 235.00 126.00 239.00 126.00 243.00 126.00
C 243.00 102.00 243.00 78.00 243.00 54.00
C 251.33 54.00 259.67 54.00 268.00 54.00
C 268.50 54.00 269.00 54.00 269.00 54.00
C 276.00 54.00 283.00 54.00 290.00 54.00
C 298.33 54.00 306.67 54.00 315.00 54.00
C 315.00 78.00 315.00 102.00 315.00 126.00
C 311.33 126.00 307.67 126.00 304.00 126.00
M 219.00 90.00 
C 221.69 101.58 218.84 115.73 220.00 128.00 C 221.16 140.27 218.16 155.11 220.00 167.00 C 221.84 178.89 215.43 195.12 222.00 205.00
C 223.54 206.10 225.29 208.16 226.00 210.00
C 233.56 213.30 243.49 208.63 252.00 210.00 C 260.51 211.37 269.84 209.50 279.00 210.00 C 288.16 210.50 296.09 210.04 306.00 210.00 C 315.91 209.96 314.80 220.71 305.00 220.00 C 295.20 219.29 287.12 219.89 278.00 220.00 C 268.88 220.11 259.53 219.01 251.00 220.00 C 242.47 220.99 232.29 216.98 225.00 221.00
C 214.12 238.75 190.57 214.61 208.00 204.00
C 206.73 202.56 210.20 194.50 209.00 191.00 C 207.80 187.50 209.55 181.44 209.00 177.00 C 208.45 172.56 209.25 168.24 209.00 163.00 C 208.75 157.76 209.17 154.13 209.00 148.00 C 208.83 141.87 209.18 142.17 209.00 134.00 C 208.82 125.83 209.25 114.21 209.00 106.00 C 208.75 97.79 210.29 98.21 209.00 91.00
C 207.04 84.79 199.93 79.38 192.00 83.00 C 184.07 86.62 176.54 74.80 185.03 73.03 C 193.51 71.25 201.39 72.60 208.22 74.78 C 215.06 76.95 217.66 84.26 219.00 90.00 Z"/>
</g>
<g fill="None" fill-opacity="0.0" stroke="#E4AF79" stroke-opacity="1.00" stroke-width="0.3"><path d="
M 243.00 126.00 
C 247.33 126.00 251.67 126.00 256.00 126.00
C 256.50 126.00 257.00 126.00 257.00 126.00
C 260.33 126.00 263.67 126.00 267.00 126.00
C 270.67 126.00 274.33 126.00 278.00 126.00
C 286.33 126.00 294.67 126.00 303.00 126.00
C 303.50 126.00 304.00 126.00 304.00 126.00
C 307.67 126.00 311.33 126.00 315.00 126.00
C 315.00 102.00 315.00 78.00 315.00 54.00
C 306.67 54.00 298.33 54.00 290.00 54.00
C 290.00 62.00 290.00 70.00 290.00 78.00
C 283.24 72.81 276.03 72.39 269.00 77.00
C 266.51 75.48 268.28 69.00 268.00 66.00 C 267.72 63.00 267.71 57.21 268.00 54.00
C 259.67 54.00 251.33 54.00 243.00 54.00
C 243.00 78.00 243.00 102.00 243.00 126.00 Z"/>
</g>
<g fill="None" fill-opacity="0.0" stroke="#E8926E" stroke-opacity="1.00" stroke-width="0.3"><path d="
M 269.00 77.00 
C 268.48 69.38 269.69 61.60 269.00 54.00
C 269.00 54.00 268.50 54.00 268.00 54.00
C 267.71 57.21 267.72 63.00 268.00 66.00 C 268.28 69.00 266.51 75.48 269.00 77.00 Z"/>
</g>
<g fill="None" fill-opacity="0.0" stroke="#F54C53" stroke-opacity="1.00" stroke-width="0.3"><path d="
M 269.00 77.00 
C 276.03 72.39 283.24 72.81 290.00 78.00
C 290.00 70.00 290.00 62.00 290.00 54.00
C 283.00 54.00 276.00 54.00 269.00 54.00
C 269.69 61.60 268.48 69.38 269.00 77.00 Z"/>
</g>
<g fill="None" fill-opacity="0.0" stroke="#7986BF" stroke-opacity="1.00" stroke-width="0.3"><path d="
M 209.00 91.00 
C 211.51 98.93 209.80 109.14 210.00 118.00 C 210.20 126.86 210.52 137.12 210.00 146.00 C 209.48 154.88 211.59 165.39 210.00 174.00 C 208.41 182.61 213.57 195.22 210.00 203.00
C 213.57 201.21 216.74 202.11 220.00 204.00
C 214.69 198.07 220.72 185.12 219.00 177.00 C 217.28 168.88 219.92 156.93 219.00 148.00 C 218.08 139.07 219.74 128.26 219.00 119.00 C 218.26 109.74 220.04 99.30 219.00 90.00
C 217.66 84.26 215.06 76.95 208.22 74.78 C 201.39 72.60 193.51 71.25 185.03 73.03 C 176.54 74.80 184.07 86.62 192.00 83.00 C 199.93 79.38 207.04 84.79 209.00 91.00 Z"/>
</g>
<g fill="None" fill-opacity="0.0" stroke="#A1BEE9" stroke-opacity="1.00" stroke-width="0.3"><path d="
M 220.00 204.00 
C 220.59 204.34 221.49 204.64 222.00 205.00
C 215.43 195.12 221.84 178.89 220.00 167.00 C 218.16 155.11 221.16 140.27 220.00 128.00 C 218.84 115.73 221.69 101.58 219.00 90.00
C 220.04 99.30 218.26 109.74 219.00 119.00 C 219.74 128.26 218.08 139.07 219.00 148.00 C 219.92 156.93 217.28 168.88 219.00 177.00 C 220.72 185.12 214.69 198.07 220.00 204.00 Z"/>
</g>
<g fill="None" fill-opacity="0.0" stroke="#8CA2D3" stroke-opacity="1.00" stroke-width="0.3"><path d="
M 208.00 204.00 
C 208.68 203.59 209.31 203.34 210.00 203.00
C 213.57 195.22 208.41 182.61 210.00 174.00 C 211.59 165.39 209.48 154.88 210.00 146.00 C 210.52 137.12 210.20 126.86 210.00 118.00 C 209.80 109.14 211.51 98.93 209.00 91.00
C 210.29 98.21 208.75 97.79 209.00 106.00 C 209.25 114.21 208.82 125.83 209.00 134.00 C 209.18 142.17 208.83 141.87 209.00 148.00 C 209.17 154.13 208.75 157.76 209.00 163.00 C 209.25 168.24 208.45 172.56 209.00 177.00 C 209.55 181.44 207.80 187.50 209.00 191.00 C 210.20 194.50 206.73 202.56 208.00 204.00 Z"/>
</g>
<g fill="None" fill-opacity="0.0" stroke="#FBD4AA" stroke-opacity="1.00" stroke-width="0.3"><path d="
M 303.00 198.00 
C 304.61 174.15 300.85 149.81 303.00 126.00
C 294.67 126.00 286.33 126.00 278.00 126.00
C 278.00 134.00 278.00 142.00 278.00 150.00
C 273.94 148.43 270.49 145.19 266.00 145.00
C 263.26 145.22 260.74 148.93 258.00 149.00
C 254.85 149.08 255.94 144.27 256.00 140.00 C 256.06 135.73 255.61 130.34 256.00 126.00
C 251.67 126.00 247.33 126.00 243.00 126.00
C 239.00 126.00 235.00 126.00 231.00 126.00
C 231.00 150.00 231.00 174.00 231.00 198.00
C 236.84 197.77 243.22 198.31 249.00 198.00 C 254.78 197.69 261.42 198.60 267.00 198.00 C 272.58 197.40 279.90 199.28 285.00 198.00 C 290.10 196.72 298.97 200.82 303.00 198.00 Z"/>
</g>
<g fill="None" fill-opacity="0.0" stroke="#CEC7BE" stroke-opacity="1.00" stroke-width="0.3"><path d="
M 258.00 149.00 
C 255.68 142.25 257.68 133.51 257.00 126.00
C 257.00 126.00 256.50 126.00 256.00 126.00
C 255.61 130.34 256.06 135.73 256.00 140.00 C 255.94 144.27 254.85 149.08 258.00 149.00 Z"/>
</g>
<g fill="None" fill-opacity="0.0" stroke="#2D92F8" stroke-opacity="1.00" stroke-width="0.3"><path d="
M 258.00 149.00 
C 260.74 148.93 263.26 145.22 266.00 145.00
C 269.51 140.09 265.44 131.56 267.00 126.00
C 263.67 126.00 260.33 126.00 257.00 126.00
C 257.68 133.51 255.68 142.25 258.00 149.00 Z"/>
</g>
<g fill="None" fill-opacity="0.0" stroke="#5CADFD" stroke-opacity="1.00" stroke-width="0.3"><path d="
M 266.00 145.00 
C 270.49 145.19 273.94 148.43 278.00 150.00
C 278.00 142.00 278.00 134.00 278.00 126.00
C 274.33 126.00 270.67 126.00 267.00 126.00
C 265.44 131.56 269.51 140.09 266.00 145.00 Z"/>
</g>
<g fill="None" fill-opacity="0.0" stroke="#CDD9E3" stroke-opacity="1.00" stroke-width="0.3"><path d="
M 303.00 198.00 
C 306.72 195.40 302.96 184.74 304.00 180.00 C 305.04 175.26 303.63 167.40 304.00 162.00 C 304.37 156.60 304.06 149.67 304.00 144.00 C 303.94 138.33 304.52 131.71 304.00 126.00
C 304.00 126.00 303.50 126.00 303.00 126.00
C 300.85 149.81 304.61 174.15 303.00 198.00 Z"/>
</g>
<g fill="None" fill-opacity="0.0" stroke="#CFCFFF" stroke-opacity="0.95" stroke-width="0.3"><path d="
M 44.00 413.00 
C 47.26 413.12 52.94 412.00 57.00 412.00
C 38.49 406.47 45.99 381.32 45.00 365.00 C 44.01 348.68 45.26 322.83 45.00 305.00 C 44.74 287.17 44.71 262.90 45.00 245.00 C 45.29 227.10 43.96 201.57 45.00 185.00 C 46.04 168.43 38.33 142.98 57.00 137.00
C 52.45 137.39 46.65 135.86 43.00 136.00
C 21.84 138.82 28.66 166.01 28.00 183.00 C 27.34 199.99 28.24 226.54 28.00 245.00 C 27.76 263.46 27.96 287.41 28.00 306.00 C 28.04 324.59 27.67 350.53 28.00 368.00 C 28.33 385.47 22.58 410.14 44.00 413.00 Z"/>
</g>
<g fill="None" fill-opacity="0.0" stroke="#D0D0FF" stroke-opacity="0.46" stroke-width="0.3"><path d="
M 57.00 137.00 
C 58.34 136.88 59.21 136.17 60.00 136.00
C 54.50 136.00 48.45 135.27 43.00 136.00
C 46.65 135.86 52.45 137.39 57.00 137.00 Z"/>
</g>
<g fill="None" fill-opacity="0.0" stroke="#E9E9FF" stroke-opacity="1.00" stroke-width="0.3"><path d="
M 57.00 137.00 
C 38.33 142.98 46.04 168.43 45.00 185.00 C 43.96 201.57 45.29 227.10 45.00 245.00 C 44.71 262.90 44.74 287.17 45.00 305.00 C 45.26 322.83 44.01 348.68 45.00 365.00 C 45.99 381.32 38.49 406.47 57.00 412.00
C 58.00 412.00 59.00 412.00 60.00 412.00
C 99.33 412.00 138.67 412.00 178.00 412.00
C 230.00 412.00 282.00 412.00 334.00 412.00
C 356.22 412.00 378.81 412.85 401.00 412.00 C 423.19 411.15 446.72 413.79 468.00 413.00
C 489.76 410.10 483.55 384.57 484.00 367.00 C 484.45 349.43 483.86 323.77 484.00 305.00 C 484.14 286.23 484.08 261.71 484.00 243.00 C 483.92 224.29 484.35 198.34 484.00 181.00 C 483.65 163.66 489.40 138.20 468.00 136.00
C 440.45 135.83 410.24 139.55 382.00 137.00
C 382.02 203.29 325.93 262.00 259.00 262.00
C 223.26 262.00 193.46 249.98 167.75 225.25 C 142.05 200.52 133.21 170.22 130.00 136.00
C 126.07 133.22 116.92 137.31 112.00 136.00 C 107.08 134.69 100.43 136.54 95.00 136.00 C 89.57 135.46 82.60 136.22 77.00 136.00 C 71.40 135.78 65.61 136.00 60.00 136.00
C 59.21 136.17 58.34 136.88 57.00 137.00
M 338.00 378.00 
C 335.33 378.00 332.67 378.00 330.00 378.00
C 305.33 378.00 280.67 378.00 256.00 378.00
C 231.33 378.00 206.67 378.00 182.00 378.00
C 157.33 378.00 132.67 378.00 108.00 378.00
C 108.00 353.33 108.00 328.67 108.00 304.00
C 116.67 304.00 125.33 304.00 134.00 304.00
C 141.33 304.00 148.67 304.00 156.00 304.00
C 164.67 304.00 173.33 304.00 182.00 304.00
C 190.67 304.00 199.33 304.00 208.00 304.00
C 215.33 304.00 222.67 304.00 230.00 304.00
C 238.67 304.00 247.33 304.00 256.00 304.00
C 264.67 304.00 273.33 304.00 282.00 304.00
C 289.33 304.00 296.67 304.00 304.00 304.00
C 312.67 304.00 321.33 304.00 330.00 304.00
C 332.67 304.00 335.33 304.00 338.00 304.00
C 344.00 304.00 350.00 304.00 356.00 304.00
C 363.33 304.00 370.67 304.00 378.00 304.00
C 386.67 304.00 395.33 304.00 404.00 304.00
C 404.00 328.67 404.00 353.33 404.00 378.00
C 382.00 378.00 360.00 378.00 338.00 378.00 Z"/>
</g>
<g fill="None" fill-opacity="0.0" stroke="#E1E1FF" stroke-opacity="0.71" stroke-width="0.3"><path d="
M 382.00 137.00 
C 410.24 139.55 440.45 135.83 468.00 136.00
C 453.98 134.56 439.11 136.06 425.00 136.00 C 410.89 135.94 396.05 134.73 382.00 136.00
C 382.00 136.00 382.00 136.50 382.00 137.00 Z"/>
</g>
<g fill="None" fill-opacity="0.0" stroke="#344169" stroke-opacity="1.00" stroke-width="0.3"><path d="
M 210.00 203.00 
C 209.31 203.34 208.68 203.59 208.00 204.00
C 190.57 214.61 214.12 238.75 225.00 221.00
C 227.18 217.44 227.49 213.90 226.00 210.00
C 225.29 208.16 223.54 206.10 222.00 205.00
C 221.49 204.64 220.59 204.34 220.00 204.00
C 216.74 202.11 213.57 201.21 210.00 203.00
M 217.00 210.00 
C 221.92 212.25 218.46 221.97 212.78 219.22 C 207.10 216.46 210.97 207.23 217.00 210.00 Z"/>
</g>
<g fill="None" fill-opacity="0.0" stroke="#7582BB" stroke-opacity="1.00" stroke-width="0.3"><path d="
M 217.00 210.00 
C 210.97 207.23 207.10 216.46 212.78 219.22 C 218.46 221.97 221.92 212.25 217.00 210.00 Z"/>
</g>
<g fill="None" fill-opacity="0.0" stroke="#7A87C0" stroke-opacity="1.00" stroke-width="0.3"><path d="
M 225.00 221.00 
C 232.29 216.98 242.47 220.99 251.00 220.00 C 259.53 219.01 268.88 220.11 278.00 220.00 C 287.12 219.89 295.20 219.29 305.00 220.00 C 314.80 220.71 315.91 209.96 306.00 210.00 C 296.09 210.04 288.16 210.50 279.00 210.00 C 269.84 209.50 260.51 211.37 252.00 210.00 C 243.49 208.63 233.56 213.30 226.00 210.00
C 227.49 213.90 227.18 217.44 225.00 221.00 Z"/>
</g>
<g fill="None" fill-opacity="0.0" stroke="#FBD4AA" stroke-opacity="1.00" stroke-width="0.3"><path d="
M 182.00 378.00 
C 182.00 353.33 182.00 328.67 182.00 304.00
C 173.33 304.00 164.67 304.00 156.00 304.00
C 156.00 312.00 156.00 320.00 156.00 328.00
C 148.76 321.81 141.46 323.68 134.00 328.00
C 134.00 320.00 134.00 312.00 134.00 304.00
C 125.33 304.00 116.67 304.00 108.00 304.00
C 108.00 328.67 108.00 353.33 108.00 378.00
C 132.67 378.00 157.33 378.00 182.00 378.00 Z"/>
</g>
<g fill="None" fill-opacity="0.0" stroke="#61AFFC" stroke-opacity="1.00" stroke-width="0.3"><path d="
M 156.00 304.00 
C 148.67 304.00 141.33 304.00 134.00 304.00
C 134.00 312.00 134.00 320.00 134.00 328.00
C 141.46 323.68 148.76 321.81 156.00 328.00
C 156.00 320.00 156.00 312.00 156.00 304.00 Z"/>
</g>
<g fill="None" fill-opacity="0.0" stroke="#E5AF79" stroke-opacity="1.00" stroke-width="0.3"><path d="
M 182.00 378.00 
C 206.67 378.00 231.33 378.00 256.00 378.00
C 256.00 353.33 256.00 328.67 256.00 304.00
C 247.33 304.00 238.67 304.00 230.00 304.00
C 230.00 312.00 230.00 320.00 230.00 328.00
C 222.76 321.81 215.46 323.68 208.00 328.00
C 208.00 320.00 208.00 312.00 208.00 304.00
C 199.33 304.00 190.67 304.00 182.00 304.00
C 182.00 328.67 182.00 353.33 182.00 378.00 Z"/>
</g>
<g fill="None" fill-opacity="0.0" stroke="#FA565C" stroke-opacity="1.00" stroke-width="0.3"><path d="
M 230.00 304.00 
C 222.67 304.00 215.33 304.00 208.00 304.00
C 208.00 312.00 208.00 320.00 208.00 328.00
C 215.46 323.68 222.76 321.81 230.00 328.00
C 230.00 320.00 230.00 312.00 230.00 304.00 Z"/>
</g>
<g fill="None" fill-opacity="0.0" stroke="#B87E45" stroke-opacity="1.00" stroke-width="0.3"><path d="
M 256.00 378.00 
C 280.67 378.00 305.33 378.00 330.00 378.00
C 330.00 353.33 330.00 328.67 330.00 304.00
C 321.33 304.00 312.67 304.00 304.00 304.00
C 304.00 312.00 304.00 320.00 304.00 328.00
C 296.41 323.07 289.62 323.07 282.00 328.00
C 282.00 320.00 282.00 312.00 282.00 304.00
C 273.33 304.00 264.67 304.00 256.00 304.00
C 256.00 328.67 256.00 353.33 256.00 378.00 Z"/>
</g>
<g fill="None" fill-opacity="0.0" stroke="#35D22E" stroke-opacity="1.00" stroke-width="0.3"><path d="
M 304.00 304.00 
C 296.67 304.00 289.33 304.00 282.00 304.00
C 282.00 312.00 282.00 320.00 282.00 328.00
C 289.62 323.07 296.41 323.07 304.00 328.00
C 304.00 320.00 304.00 312.00 304.00 304.00 Z"/>
</g>
<g fill="None" fill-opacity="0.0" stroke="#96602A" stroke-opacity="1.00" stroke-width="0.3"><path d="
M 330.00 378.00 
C 332.67 378.00 335.33 378.00 338.00 378.00
C 338.00 353.33 338.00 328.67 338.00 304.00
C 335.33 304.00 332.67 304.00 330.00 304.00
C 330.00 328.67 330.00 353.33 330.00 378.00 Z"/>
</g>
<g fill="None" fill-opacity="0.0" stroke="#AB733A" stroke-opacity="1.00" stroke-width="0.3"><path d="
M 338.00 378.00 
C 360.00 378.00 382.00 378.00 404.00 378.00
C 404.00 353.33 404.00 328.67 404.00 304.00
C 395.33 304.00 386.67 304.00 378.00 304.00
C 378.00 312.00 378.00 320.00 378.00 328.00
C 370.76 321.81 363.46 323.68 356.00 328.00
C 356.00 320.00 356.00 312.00 356.00 304.00
C 350.00 304.00 344.00 304.00 338.00 304.00
C 338.00 328.67 338.00 353.33 338.00 378.00 Z"/>
</g>
<g fill="None" fill-opacity="0.0" stroke="#FAC42E" stroke-opacity="1.00" stroke-width="0.3"><path d="
M 378.00 304.00 
C 370.67 304.00 363.33 304.00 356.00 304.00
C 356.00 312.00 356.00 320.00 356.00 328.00
C 363.46 323.68 370.76 321.81 378.00 328.00
C 378.00 320.00 378.00 312.00 378.00 304.00 Z"/>
</g>
<g fill="None" fill-opacity="0.0" stroke="#CFCFFF" stroke-opacity="0.33" stroke-width="0.3"><path d="
M 44.00 413.00 
C 49.13 413.68 54.82 413.00 60.00 413.00
C 59.96 413.00 60.00 412.00 60.00 412.00
C 59.00 412.00 58.00 412.00 57.00 412.00
C 52.94 412.00 47.26 413.12 44.00 413.00 Z"/>
</g>
<g fill="None" fill-opacity="0.0" stroke="#DEDEFF" stroke-opacity="0.56" stroke-width="0.3"><path d="
M 60.00 413.00 
C 79.59 413.00 99.43 413.66 119.00 413.00 C 138.57 412.34 158.52 414.75 178.00 413.00
C 177.96 413.00 178.00 412.00 178.00 412.00
C 138.67 412.00 99.33 412.00 60.00 412.00
C 60.00 412.00 59.96 413.00 60.00 413.00 Z"/>
</g>
<g fill="None" fill-opacity="0.0" stroke="#B1B6E0" stroke-opacity="1.00" stroke-width="0.3"><path d="
M 178.00 413.00 
C 185.20 413.65 192.77 413.00 200.00 413.00
C 244.33 413.00 288.67 413.00 333.00 413.00
C 333.50 413.00 334.00 413.00 334.00 413.00
C 334.25 412.75 334.00 412.00 334.00 412.00
C 282.00 412.00 230.00 412.00 178.00 412.00
C 178.00 412.00 177.96 413.00 178.00 413.00 Z"/>
</g>
<g fill="None" fill-opacity="0.0" stroke="#DEDEFF" stroke-opacity="0.56" stroke-width="0.3"><path d="
M 334.00 413.00 
C 355.78 414.97 379.14 413.34 401.00 413.00 C 422.86 412.66 446.37 415.88 468.00 413.00
C 446.72 413.79 423.19 411.15 401.00 412.00 C 378.81 412.85 356.22 412.00 334.00 412.00
C 334.00 412.00 334.25 412.75 334.00 413.00 Z"/>
</g>
<g fill="None" fill-opacity="0.0" stroke="#6A75AD" stroke-opacity="1.00" stroke-width="0.3"><path d="
M 178.00 466.00 
C 185.33 466.00 192.67 466.00 200.00 466.00
C 200.00 448.33 200.00 430.67 200.00 413.00
C 192.77 413.00 185.20 413.65 178.00 413.00
C 178.00 430.67 178.00 448.33 178.00 466.00 Z"/>
</g>
<g fill="None" fill-opacity="0.0" stroke="#7885BE" stroke-opacity="1.00" stroke-width="0.3"><path d="
M 200.00 466.00 
C 244.33 466.00 288.67 466.00 333.00 466.00
C 331.48 449.30 331.49 429.70 333.00 413.00
C 288.67 413.00 244.33 413.00 200.00 413.00
C 200.00 430.67 200.00 448.33 200.00 466.00 Z"/>
</g>
<g fill="None" fill-opacity="0.0" stroke="#7986C0" stroke-opacity="0.88" stroke-width="0.3"><path d="
M 333.00 466.00 
C 333.50 466.00 334.00 466.00 334.00 466.00
C 335.51 449.29 335.51 429.71 334.00 413.00
C 334.00 413.00 333.50 413.00 333.00 413.00
C 331.49 429.70 331.48 449.30 333.00 466.00 Z"/>
</g>
<g fill="None" fill-opacity="0.0" stroke="#3B4873" stroke-opacity="0.99" stroke-width="0.3"><path d="
M 367.00 466.00 
C 356.84 466.18 344.89 467.00 334.00 467.00
C 282.67 467.00 228.34 470.87 178.00 466.00
C 163.78 467.01 145.92 463.35 133.23 469.23 C 120.54 475.11 117.70 488.37 118.00 501.00
C 210.00 501.00 302.00 501.00 394.00 501.00
C 396.51 483.32 384.50 467.39 367.00 466.00 Z"/>
</g>
<g fill="None" fill-opacity="0.0" stroke="#4F5C8B" stroke-opacity="1.00" stroke-width="0.3"><path d="
M 334.00 467.00 
C 333.96 467.00 334.00 466.00 334.00 466.00
C 334.00 466.00 333.50 466.00 333.00 466.00
C 288.67 466.00 244.33 466.00 200.00 466.00
C 192.67 466.00 185.33 466.00 178.00 466.00
C 228.34 470.87 282.67 467.00 334.00 467.00 Z"/>
</g>
<g fill="None" fill-opacity="0.0" stroke="#384670" stroke-opacity="0.64" stroke-width="0.3"><path d="
M 334.00 467.00 
C 344.89 467.00 356.84 466.18 367.00 466.00
C 356.52 465.17 344.46 465.05 334.00 466.00
C 334.00 466.00 333.96 467.00 334.00 467.00 Z"/>
</g>
<g fill="#000000" fill-opacity="0.00" stroke="None">
<path d="
M 0.00 512.00 
L 512.00 512.00
L 512.00 0.00
L 0.00 0.00
L 0.00 512.00
M 382.00 136.00 
C 396.05 134.73 410.89 135.94 425.00 136.00 C 439.11 136.06 453.98 134.56 468.00 136.00
C 489.40 138.20 483.65 163.66 484.00 181.00 C 484.35 198.34 483.92 224.29 484.00 243.00 C 484.08 261.71 484.14 286.23 484.00 305.00 C 483.86 323.77 484.45 349.43 484.00 367.00 C 483.55 384.57 489.76 410.10 468.00 413.00
C 446.37 415.88 422.86 412.66 401.00 413.00 C 379.14 413.34 355.78 414.97 334.00 413.00
C 335.51 429.71 335.51 449.29 334.00 466.00
C 344.46 465.05 356.52 465.17 367.00 466.00
C 384.50 467.39 396.51 483.32 394.00 501.00
C 302.00 501.00 210.00 501.00 118.00 501.00
C 117.70 488.37 120.54 475.11 133.23 469.23 C 145.92 463.35 163.78 467.01 178.00 466.00
C 178.00 448.33 178.00 430.67 178.00 413.00
C 158.52 414.75 138.57 412.34 119.00 413.00 C 99.43 413.66 79.59 413.00 60.00 413.00
C 54.82 413.00 49.13 413.68 44.00 413.00
C 22.58 410.14 28.33 385.47 28.00 368.00 C 27.67 350.53 28.04 324.59 28.00 306.00 C 27.96 287.41 27.76 263.46 28.00 245.00 C 28.24 226.54 27.34 199.99 28.00 183.00 C 28.66 166.01 21.84 138.82 43.00 136.00
C 48.45 135.27 54.50 136.00 60.00 136.00
C 65.61 136.00 71.40 135.78 77.00 136.00 C 82.60 136.22 89.57 135.46 95.00 136.00 C 100.43 136.54 107.08 134.69 112.00 136.00 C 116.92 137.31 126.07 133.22 130.00 136.00
C 123.85 70.41 189.93 11.00 252.00 11.00
C 286.89 11.00 318.96 21.34 343.75 46.25 C 368.55 71.16 382.00 100.95 382.00 136.00 Z"/>
</g>
<g fill="#9BCEFF" fill-opacity="0.97" stroke="None">
<path d="
M 130.00 136.00 
C 133.21 170.22 142.05 200.52 167.75 225.25 C 193.46 249.98 223.26 262.00 259.00 262.00
C 198.56 256.15 149.59 200.40 148.00 140.00 C 146.41 79.60 192.92 18.63 255.00 13.00
C 254.76 11.33 252.15 12.83 252.00 11.00
C 189.93 11.00 123.85 70.41 130.00 136.00 Z"/>
</g>
<g fill="#B5DAFE" fill-opacity="1.00" stroke="None">
<path d="
M 259.00 262.00 
C 325.93 262.00 382.02 203.29 382.00 137.00
C 382.00 136.50 382.00 136.00 382.00 136.00
C 382.00 100.95 368.55 71.16 343.75 46.25 C 318.96 21.34 286.89 11.00 252.00 11.00
C 252.15 12.83 254.76 11.33 255.00 13.00
C 192.92 18.63 146.41 79.60 148.00 140.00 C 149.59 200.40 198.56 256.15 259.00 262.00
M 304.00 126.00 
C 304.52 131.71 303.94 138.33 304.00 144.00 C 304.06 149.67 304.37 156.60 304.00 162.00 C 303.63 167.40 305.04 175.26 304.00 180.00 C 302.96 184.74 306.72 195.40 303.00 198.00
C 298.97 200.82 290.10 196.72 285.00 198.00 C 279.90 199.28 272.58 197.40 267.00 198.00 C 261.42 198.60 254.78 197.69 249.00 198.00 C 243.22 198.31 236.84 197.77 231.00 198.00
C 231.00 174.00 231.00 150.00 231.00 126.00
C 235.00 126.00 239.00 126.00 243.00 126.00
C 243.00 102.00 243.00 78.00 243.00 54.00
C 251.33 54.00 259.67 54.00 268.00 54.00
C 268.50 54.00 269.00 54.00 269.00 54.00
C 276.00 54.00 283.00 54.00 290.00 54.00
C 298.33 54.00 306.67 54.00 315.00 54.00
C 315.00 78.00 315.00 102.00 315.00 126.00
C 311.33 126.00 307.67 126.00 304.00 126.00
M 219.00 90.00 
C 221.69 101.58 218.84 115.73 220.00 128.00 C 221.16 140.27 218.16 155.11 220.00 167.00 C 221.84 178.89 215.43 195.12 222.00 205.00
C 223.54 206.10 225.29 208.16 226.00 210.00
C 233.56 213.30 243.49 208.63 252.00 210.00 C 260.51 211.37 269.84 209.50 279.00 210.00 C 288.16 210.50 296.09 210.04 306.00 210.00 C 315.91 209.96 314.80 220.71 305.00 220.00 C 295.20 219.29 287.12 219.89 278.00 220.00 C 268.88 220.11 259.53 219.01 251.00 220.00 C 242.47 220.99 232.29 216.98 225.00 221.00
C 214.12 238.75 190.57 214.61 208.00 204.00
C 206.73 202.56 210.20 194.50 209.00 191.00 C 207.80 187.50 209.55 181.44 209.00 177.00 C 208.45 172.56 209.25 168.24 209.00 163.00 C 208.75 157.76 209.17 154.13 209.00 148.00 C 208.83 141.87 209.18 142.17 209.00 134.00 C 208.82 125.83 209.25 114.21 209.00 106.00 C 208.75 97.79 210.29 98.21 209.00 91.00
C 207.04 84.79 199.93 79.38 192.00 83.00 C 184.07 86.62 176.54 74.80 185.03 73.03 C 193.51 71.25 201.39 72.60 208.22 74.78 C 215.06 76.95 217.66 84.26 219.00 90.00 Z"/>
</g>
<g fill="#E4AF79" fill-opacity="1.00" stroke="None">
<path d="
M 243.00 126.00 
C 247.33 126.00 251.67 126.00 256.00 126.00
C 256.50 126.00 257.00 126.00 257.00 126.00
C 260.33 126.00 263.67 126.00 267.00 126.00
C 270.67 126.00 274.33 126.00 278.00 126.00
C 286.33 126.00 294.67 126.00 303.00 126.00
C 303.50 126.00 304.00 126.00 304.00 126.00
C 307.67 126.00 311.33 126.00 315.00 126.00
C 315.00 102.00 315.00 78.00 315.00 54.00
C 306.67 54.00 298.33 54.00 290.00 54.00
C 290.00 62.00 290.00 70.00 290.00 78.00
C 283.24 72.81 276.03 72.39 269.00 77.00
C 266.51 75.48 268.28 69.00 268.00 66.00 C 267.72 63.00 267.71 57.21 268.00 54.00
C 259.67 54.00 251.33 54.00 243.00 54.00
C 243.00 78.00 243.00 102.00 243.00 126.00 Z"/>
</g>
<g fill="#E8926E" fill-opacity="1.00" stroke="None">
<path d="
M 269.00 77.00 
C 268.48 69.38 269.69 61.60 269.00 54.00
C 269.00 54.00 268.50 54.00 268.00 54.00
C 267.71 57.21 267.72 63.00 268.00 66.00 C 268.28 69.00 266.51 75.48 269.00 77.00 Z"/>
</g>
<g fill="#F54C53" fill-opacity="1.00" stroke="None">
<path d="
M 269.00 77.00 
C 276.03 72.39 283.24 72.81 290.00 78.00
C 290.00 70.00 290.00 62.00 290.00 54.00
C 283.00 54.00 276.00 54.00 269.00 54.00
C 269.69 61.60 268.48 69.38 269.00 77.00 Z"/>
</g>
<g fill="#7986BF" fill-opacity="1.00" stroke="None">
<path d="
M 209.00 91.00 
C 211.51 98.93 209.80 109.14 210.00 118.00 C 210.20 126.86 210.52 137.12 210.00 146.00 C 209.48 154.88 211.59 165.39 210.00 174.00 C 208.41 182.61 213.57 195.22 210.00 203.00
C 213.57 201.21 216.74 202.11 220.00 204.00
C 214.69 198.07 220.72 185.12 219.00 177.00 C 217.28 168.88 219.92 156.93 219.00 148.00 C 218.08 139.07 219.74 128.26 219.00 119.00 C 218.26 109.74 220.04 99.30 219.00 90.00
C 217.66 84.26 215.06 76.95 208.22 74.78 C 201.39 72.60 193.51 71.25 185.03 73.03 C 176.54 74.80 184.07 86.62 192.00 83.00 C 199.93 79.38 207.04 84.79 209.00 91.00 Z"/>
</g>
<g fill="#A1BEE9" fill-opacity="1.00" stroke="None">
<path d="
M 220.00 204.00 
C 220.59 204.34 221.49 204.64 222.00 205.00
C 215.43 195.12 221.84 178.89 220.00 167.00 C 218.16 155.11 221.16 140.27 220.00 128.00 C 218.84 115.73 221.69 101.58 219.00 90.00
C 220.04 99.30 218.26 109.74 219.00 119.00 C 219.74 128.26 218.08 139.07 219.00 148.00 C 219.92 156.93 217.28 168.88 219.00 177.00 C 220.72 185.12 214.69 198.07 220.00 204.00 Z"/>
</g>
<g fill="#8CA2D3" fill-opacity="1.00" stroke="None">
<path d="
M 208.00 204.00 
C 208.68 203.59 209.31 203.34 210.00 203.00
C 213.57 195.22 208.41 182.61 210.00 174.00 C 211.59 165.39 209.48 154.88 210.00 146.00 C 210.52 137.12 210.20 126.86 210.00 118.00 C 209.80 109.14 211.51 98.93 209.00 91.00
C 210.29 98.21 208.75 97.79 209.00 106.00 C 209.25 114.21 208.82 125.83 209.00 134.00 C 209.18 142.17 208.83 141.87 209.00 148.00 C 209.17 154.13 208.75 157.76 209.00 163.00 C 209.25 168.24 208.45 172.56 209.00 177.00 C 209.55 181.44 207.80 187.50 209.00 191.00 C 210.20 194.50 206.73 202.56 208.00 204.00 Z"/>
</g>
<g fill="#FBD4AA" fill-opacity="1.00" stroke="None">
<path d="
M 303.00 198.00 
C 304.61 174.15 300.85 149.81 303.00 126.00
C 294.67 126.00 286.33 126.00 278.00 126.00
C 278.00 134.00 278.00 142.00 278.00 150.00
C 273.94 148.43 270.49 145.19 266.00 145.00
C 263.26 145.22 260.74 148.93 258.00 149.00
C 254.85 149.08 255.94 144.27 256.00 140.00 C 256.06 135.73 255.61 130.34 256.00 126.00
C 251.67 126.00 247.33 126.00 243.00 126.00
C 239.00 126.00 235.00 126.00 231.00 126.00
C 231.00 150.00 231.00 174.00 231.00 198.00
C 236.84 197.77 243.22 198.31 249.00 198.00 C 254.78 197.69 261.42 198.60 267.00 198.00 C 272.58 197.40 279.90 199.28 285.00 198.00 C 290.10 196.72 298.97 200.82 303.00 198.00 Z"/>
</g>
<g fill="#CEC7BE" fill-opacity="1.00" stroke="None">
<path d="
M 258.00 149.00 
C 255.68 142.25 257.68 133.51 257.00 126.00
C 257.00 126.00 256.50 126.00 256.00 126.00
C 255.61 130.34 256.06 135.73 256.00 140.00 C 255.94 144.27 254.85 149.08 258.00 149.00 Z"/>
</g>
<g fill="#2D92F8" fill-opacity="1.00" stroke="None">
<path d="
M 258.00 149.00 
C 260.74 148.93 263.26 145.22 266.00 145.00
C 269.51 140.09 265.44 131.56 267.00 126.00
C 263.67 126.00 260.33 126.00 257.00 126.00
C 257.68 133.51 255.68 142.25 258.00 149.00 Z"/>
</g>
<g fill="#5CADFD" fill-opacity="1.00" stroke="None">
<path d="
M 266.00 145.00 
C 270.49 145.19 273.94 148.43 278.00 150.00
C 278.00 142.00 278.00 134.00 278.00 126.00
C 274.33 126.00 270.67 126.00 267.00 126.00
C 265.44 131.56 269.51 140.09 266.00 145.00 Z"/>
</g>
<g fill="#CDD9E3" fill-opacity="1.00" stroke="None">
<path d="
M 303.00 198.00 
C 306.72 195.40 302.96 184.74 304.00 180.00 C 305.04 175.26 303.63 167.40 304.00 162.00 C 304.37 156.60 304.06 149.67 304.00 144.00 C 303.94 138.33 304.52 131.71 304.00 126.00
C 304.00 126.00 303.50 126.00 303.00 126.00
C 300.85 149.81 304.61 174.15 303.00 198.00 Z"/>
</g>
<g fill="#CFCFFF" fill-opacity="0.95" stroke="None">
<path d="
M 44.00 413.00 
C 47.26 413.12 52.94 412.00 57.00 412.00
C 38.49 406.47 45.99 381.32 45.00 365.00 C 44.01 348.68 45.26 322.83 45.00 305.00 C 44.74 287.17 44.71 262.90 45.00 245.00 C 45.29 227.10 43.96 201.57 45.00 185.00 C 46.04 168.43 38.33 142.98 57.00 137.00
C 52.45 137.39 46.65 135.86 43.00 136.00
C 21.84 138.82 28.66 166.01 28.00 183.00 C 27.34 199.99 28.24 226.54 28.00 245.00 C 27.76 263.46 27.96 287.41 28.00 306.00 C 28.04 324.59 27.67 350.53 28.00 368.00 C 28.33 385.47 22.58 410.14 44.00 413.00 Z"/>
</g>
<g fill="#D0D0FF" fill-opacity="0.46" stroke="None">
<path d="
M 57.00 137.00 
C 58.34 136.88 59.21 136.17 60.00 136.00
C 54.50 136.00 48.45 135.27 43.00 136.00
C 46.65 135.86 52.45 137.39 57.00 137.00 Z"/>
</g>
<g fill="#E9E9FF" fill-opacity="1.00" stroke="None">
<path d="
M 57.00 137.00 
C 38.33 142.98 46.04 168.43 45.00 185.00 C 43.96 201.57 45.29 227.10 45.00 245.00 C 44.71 262.90 44.74 287.17 45.00 305.00 C 45.26 322.83 44.01 348.68 45.00 365.00 C 45.99 381.32 38.49 406.47 57.00 412.00
C 58.00 412.00 59.00 412.00 60.00 412.00
C 99.33 412.00 138.67 412.00 178.00 412.00
C 230.00 412.00 282.00 412.00 334.00 412.00
C 356.22 412.00 378.81 412.85 401.00 412.00 C 423.19 411.15 446.72 413.79 468.00 413.00
C 489.76 410.10 483.55 384.57 484.00 367.00 C 484.45 349.43 483.86 323.77 484.00 305.00 C 484.14 286.23 484.08 261.71 484.00 243.00 C 483.92 224.29 484.35 198.34 484.00 181.00 C 483.65 163.66 489.40 138.20 468.00 136.00
C 440.45 135.83 410.24 139.55 382.00 137.00
C 382.02 203.29 325.93 262.00 259.00 262.00
C 223.26 262.00 193.46 249.98 167.75 225.25 C 142.05 200.52 133.21 170.22 130.00 136.00
C 126.07 133.22 116.92 137.31 112.00 136.00 C 107.08 134.69 100.43 136.54 95.00 136.00 C 89.57 135.46 82.60 136.22 77.00 136.00 C 71.40 135.78 65.61 136.00 60.00 136.00
C 59.21 136.17 58.34 136.88 57.00 137.00
M 338.00 378.00 
C 335.33 378.00 332.67 378.00 330.00 378.00
C 305.33 378.00 280.67 378.00 256.00 378.00
C 231.33 378.00 206.67 378.00 182.00 378.00
C 157.33 378.00 132.67 378.00 108.00 378.00
C 108.00 353.33 108.00 328.67 108.00 304.00
C 116.67 304.00 125.33 304.00 134.00 304.00
C 141.33 304.00 148.67 304.00 156.00 304.00
C 164.67 304.00 173.33 304.00 182.00 304.00
C 190.67 304.00 199.33 304.00 208.00 304.00
C 215.33 304.00 222.67 304.00 230.00 304.00
C 238.67 304.00 247.33 304.00 256.00 304.00
C 264.67 304.00 273.33 304.00 282.00 304.00
C 289.33 304.00 296.67 304.00 304.00 304.00
C 312.67 304.00 321.33 304.00 330.00 304.00
C 332.67 304.00 335.33 304.00 338.00 304.00
C 344.00 304.00 350.00 304.00 356.00 304.00
C 363.33 304.00 370.67 304.00 378.00 304.00
C 386.67 304.00 395.33 304.00 404.00 304.00
C 404.00 328.67 404.00 353.33 404.00 378.00
C 382.00 378.00 360.00 378.00 338.00 378.00 Z"/>
</g>
<g fill="#E1E1FF" fill-opacity="0.71" stroke="None">
<path d="
M 382.00 137.00 
C 410.24 139.55 440.45 135.83 468.00 136.00
C 453.98 134.56 439.11 136.06 425.00 136.00 C 410.89 135.94 396.05 134.73 382.00 136.00
C 382.00 136.00 382.00 136.50 382.00 137.00 Z"/>
</g>
<g fill="#344169" fill-opacity="1.00" stroke="None">
<path d="
M 210.00 203.00 
C 209.31 203.34 208.68 203.59 208.00 204.00
C 190.57 214.61 214.12 238.75 225.00 221.00
C 227.18 217.44 227.49 213.90 226.00 210.00
C 225.29 208.16 223.54 206.10 222.00 205.00
C 221.49 204.64 220.59 204.34 220.00 204.00
C 216.74 202.11 213.57 201.21 210.00 203.00
M 217.00 210.00 
C 221.92 212.25 218.46 221.97 212.78 219.22 C 207.10 216.46 210.97 207.23 217.00 210.00 Z"/>
</g>
<g fill="#7582BB" fill-opacity="1.00" stroke="None">
<path d="
M 217.00 210.00 
C 210.97 207.23 207.10 216.46 212.78 219.22 C 218.46 221.97 221.92 212.25 217.00 210.00 Z"/>
</g>
<g fill="#7A87C0" fill-opacity="1.00" stroke="None">
<path d="
M 225.00 221.00 
C 232.29 216.98 242.47 220.99 251.00 220.00 C 259.53 219.01 268.88 220.11 278.00 220.00 C 287.12 219.89 295.20 219.29 305.00 220.00 C 314.80 220.71 315.91 209.96 306.00 210.00 C 296.09 210.04 288.16 210.50 279.00 210.00 C 269.84 209.50 260.51 211.37 252.00 210.00 C 243.49 208.63 233.56 213.30 226.00 210.00
C 227.49 213.90 227.18 217.44 225.00 221.00 Z"/>
</g>
<g fill="#FBD4AA" fill-opacity="1.00" stroke="None">
<path d="
M 182.00 378.00 
C 182.00 353.33 182.00 328.67 182.00 304.00
C 173.33 304.00 164.67 304.00 156.00 304.00
C 156.00 312.00 156.00 320.00 156.00 328.00
C 148.76 321.81 141.46 323.68 134.00 328.00
C 134.00 320.00 134.00 312.00 134.00 304.00
C 125.33 304.00 116.67 304.00 108.00 304.00
C 108.00 328.67 108.00 353.33 108.00 378.00
C 132.67 378.00 157.33 378.00 182.00 378.00 Z"/>
</g>
<g fill="#61AFFC" fill-opacity="1.00" stroke="None">
<path d="
M 156.00 304.00 
C 148.67 304.00 141.33 304.00 134.00 304.00
C 134.00 312.00 134.00 320.00 134.00 328.00
C 141.46 323.68 148.76 321.81 156.00 328.00
C 156.00 320.00 156.00 312.00 156.00 304.00 Z"/>
</g>
<g fill="#E5AF79" fill-opacity="1.00" stroke="None">
<path d="
M 182.00 378.00 
C 206.67 378.00 231.33 378.00 256.00 378.00
C 256.00 353.33 256.00 328.67 256.00 304.00
C 247.33 304.00 238.67 304.00 230.00 304.00
C 230.00 312.00 230.00 320.00 230.00 328.00
C 222.76 321.81 215.46 323.68 208.00 328.00
C 208.00 320.00 208.00 312.00 208.00 304.00
C 199.33 304.00 190.67 304.00 182.00 304.00
C 182.00 328.67 182.00 353.33 182.00 378.00 Z"/>
</g>
<g fill="#FA565C" fill-opacity="1.00" stroke="None">
<path d="
M 230.00 304.00 
C 222.67 304.00 215.33 304.00 208.00 304.00
C 208.00 312.00 208.00 320.00 208.00 328.00
C 215.46 323.68 222.76 321.81 230.00 328.00
C 230.00 320.00 230.00 312.00 230.00 304.00 Z"/>
</g>
<g fill="#B87E45" fill-opacity="1.00" stroke="None">
<path d="
M 256.00 378.00 
C 280.67 378.00 305.33 378.00 330.00 378.00
C 330.00 353.33 330.00 328.67 330.00 304.00
C 321.33 304.00 312.67 304.00 304.00 304.00
C 304.00 312.00 304.00 320.00 304.00 328.00
C 296.41 323.07 289.62 323.07 282.00 328.00
C 282.00 320.00 282.00 312.00 282.00 304.00
C 273.33 304.00 264.67 304.00 256.00 304.00
C 256.00 328.67 256.00 353.33 256.00 378.00 Z"/>
</g>
<g fill="#35D22E" fill-opacity="1.00" stroke="None">
<path d="
M 304.00 304.00 
C 296.67 304.00 289.33 304.00 282.00 304.00
C 282.00 312.00 282.00 320.00 282.00 328.00
C 289.62 323.07 296.41 323.07 304.00 328.00
C 304.00 320.00 304.00 312.00 304.00 304.00 Z"/>
</g>
<g fill="#96602A" fill-opacity="1.00" stroke="None">
<path d="
M 330.00 378.00 
C 332.67 378.00 335.33 378.00 338.00 378.00
C 338.00 353.33 338.00 328.67 338.00 304.00
C 335.33 304.00 332.67 304.00 330.00 304.00
C 330.00 328.67 330.00 353.33 330.00 378.00 Z"/>
</g>
<g fill="#AB733A" fill-opacity="1.00" stroke="None">
<path d="
M 338.00 378.00 
C 360.00 378.00 382.00 378.00 404.00 378.00
C 404.00 353.33 404.00 328.67 404.00 304.00
C 395.33 304.00 386.67 304.00 378.00 304.00
C 378.00 312.00 378.00 320.00 378.00 328.00
C 370.76 321.81 363.46 323.68 356.00 328.00
C 356.00 320.00 356.00 312.00 356.00 304.00
C 350.00 304.00 344.00 304.00 338.00 304.00
C 338.00 328.67 338.00 353.33 338.00 378.00 Z"/>
</g>
<g fill="#FAC42E" fill-opacity="1.00" stroke="None">
<path d="
M 378.00 304.00 
C 370.67 304.00 363.33 304.00 356.00 304.00
C 356.00 312.00 356.00 320.00 356.00 328.00
C 363.46 323.68 370.76 321.81 378.00 328.00
C 378.00 320.00 378.00 312.00 378.00 304.00 Z"/>
</g>
<g fill="#CFCFFF" fill-opacity="0.33" stroke="None">
<path d="
M 44.00 413.00 
C 49.13 413.68 54.82 413.00 60.00 413.00
C 59.96 413.00 60.00 412.00 60.00 412.00
C 59.00 412.00 58.00 412.00 57.00 412.00
C 52.94 412.00 47.26 413.12 44.00 413.00 Z"/>
</g>
<g fill="#DEDEFF" fill-opacity="0.56" stroke="None">
<path d="
M 60.00 413.00 
C 79.59 413.00 99.43 413.66 119.00 413.00 C 138.57 412.34 158.52 414.75 178.00 413.00
C 177.96 413.00 178.00 412.00 178.00 412.00
C 138.67 412.00 99.33 412.00 60.00 412.00
C 60.00 412.00 59.96 413.00 60.00 413.00 Z"/>
</g>
<g fill="#B1B6E0" fill-opacity="1.00" stroke="None">
<path d="
M 178.00 413.00 
C 185.20 413.65 192.77 413.00 200.00 413.00
C 244.33 413.00 288.67 413.00 333.00 413.00
C 333.50 413.00 334.00 413.00 334.00 413.00
C 334.25 412.75 334.00 412.00 334.00 412.00
C 282.00 412.00 230.00 412.00 178.00 412.00
C 178.00 412.00 177.96 413.00 178.00 413.00 Z"/>
</g>
<g fill="#DEDEFF" fill-opacity="0.56" stroke="None">
<path d="
M 334.00 413.00 
C 355.78 414.97 379.14 413.34 401.00 413.00 C 422.86 412.66 446.37 415.88 468.00 413.00
C 446.72 413.79 423.19 411.15 401.00 412.00 C 378.81 412.85 356.22 412.00 334.00 412.00
C 334.00 412.00 334.25 412.75 334.00 413.00 Z"/>
</g>
<g fill="#6A75AD" fill-opacity="1.00" stroke="None">
<path d="
M 178.00 466.00 
C 185.33 466.00 192.67 466.00 200.00 466.00
C 200.00 448.33 200.00 430.67 200.00 413.00
C 192.77 413.00 185.20 413.65 178.00 413.00
C 178.00 430.67 178.00 448.33 178.00 466.00 Z"/>
</g>
<g fill="#7885BE" fill-opacity="1.00" stroke="None">
<path d="
M 200.00 466.00 
C 244.33 466.00 288.67 466.00 333.00 466.00
C 331.48 449.30 331.49 429.70 333.00 413.00
C 288.67 413.00 244.33 413.00 200.00 413.00
C 200.00 430.67 200.00 448.33 200.00 466.00 Z"/>
</g>
<g fill="#7986C0" fill-opacity="0.88" stroke="None">
<path d="
M 333.00 466.00 
C 333.50 466.00 334.00 466.00 334.00 466.00
C 335.51 449.29 335.51 429.71 334.00 413.00
C 334.00 413.00 333.50 413.00 333.00 413.00
C 331.49 429.70 331.48 449.30 333.00 466.00 Z"/>
</g>
<g fill="#3B4873" fill-opacity="0.99" stroke="None">
<path d="
M 367.00 466.00 
C 356.84 466.18 344.89 467.00 334.00 467.00
C 282.67 467.00 228.34 470.87 178.00 466.00
C 163.78 467.01 145.92 463.35 133.23 469.23 C 120.54 475.11 117.70 488.37 118.00 501.00
C 210.00 501.00 302.00 501.00 394.00 501.00
C 396.51 483.32 384.50 467.39 367.00 466.00 Z"/>
</g>
<g fill="#4F5C8B" fill-opacity="1.00" stroke="None">
<path d="
M 334.00 467.00 
C 333.96 467.00 334.00 466.00 334.00 466.00
C 334.00 466.00 333.50 466.00 333.00 466.00
C 288.67 466.00 244.33 466.00 200.00 466.00
C 192.67 466.00 185.33 466.00 178.00 466.00
C 228.34 470.87 282.67 467.00 334.00 467.00 Z"/>
</g>
<g fill="#384670" fill-opacity="0.64" stroke="None">
<path d="
M 334.00 467.00 
C 344.89 467.00 356.84 466.18 367.00 466.00
C 356.52 465.17 344.46 465.05 334.00 466.00
C 334.00 466.00 333.96 467.00 334.00 467.00 Z"/>
</g>
</svg>