<svg xmlns="http://www.w3.org/2000/svg" xmlns:v="https://svgstorm.com"
viewBox = "0 0 512 512"
width="512"
height="512">
<g fill="None" fill-opacity="0.0" stroke="#000000" stroke-opacity="0.00" stroke-width="0.3"><path d="
M 0.00 512.00 
L 512.00 512.00
L 512.00 0.00
L 0.00 0.00
L 0.00 512.00
M 399.00 214.00 
C 399.00 214.50 399.00 215.00 399.00 215.00
C 399.00 219.27 399.38 223.75 399.00 228.00
C 413.16 226.63 428.82 227.90 443.00 228.00 C 457.18 228.10 472.44 225.90 486.02 228.98 C 499.61 232.05 496.00 253.12 496.00 263.00
C 496.00 268.67 496.00 274.33 496.00 280.00
C 496.00 280.50 496.00 281.00 496.00 281.00
C 496.00 303.26 496.33 324.66 496.00 347.00 C 495.67 369.34 496.86 391.46 496.00 414.00 C 495.14 436.54 497.96 458.13 496.00 481.00 C 494.04 503.87 465.19 496.41 446.00 497.00 C 426.81 497.59 399.70 496.78 379.00 497.00 C 358.30 497.22 333.11 497.00 312.00 497.00
C 291.33 497.00 270.67 497.00 250.00 497.00
C 241.90 497.00 234.14 497.05 226.00 497.00 C 217.86 496.95 209.14 497.13 201.00 497.00 C 192.86 496.87 184.01 497.29 176.00 497.00 C 167.99 496.71 158.68 497.65 151.00 497.00 C 143.32 496.35 132.90 498.44 126.00 497.00 C 119.10 495.56 106.49 500.67 102.00 496.00
C 101.53 490.75 101.35 484.23 102.00 479.00
C 102.91 471.67 108.64 465.91 116.00 465.00
C 126.63 463.68 138.28 465.00 149.00 465.00
C 148.09 454.91 148.09 443.09 149.00 433.00
C 133.51 432.99 115.20 433.11 100.00 433.00 C 84.80 432.89 65.17 433.28 51.00 433.00 C 36.83 432.72 17.32 437.41 15.00 420.00
C 12.69 402.70 15.00 383.47 15.00 366.00
C 15.00 342.29 14.40 318.72 15.00 295.00 C 15.60 271.28 13.44 246.67 15.00 223.00 C 16.56 199.33 11.43 174.38 15.00 151.00
C 16.01 144.39 22.62 138.79 29.00 138.00
C 52.04 135.14 75.71 139.05 99.00 138.00 C 122.29 136.95 146.62 138.00 170.00 138.00
C 206.00 138.00 242.00 138.00 278.00 138.00
C 272.16 136.54 269.07 109.48 280.01 109.01 C 290.95 108.54 301.04 103.66 303.78 92.78 C 306.51 81.90 312.72 77.14 302.70 67.30 C 292.68 57.47 300.94 50.41 309.25 43.25 C 317.56 36.08 325.40 43.90 334.08 48.92 C 342.77 53.93 353.15 40.72 363.00 42.00
C 365.60 27.42 364.43 15.27 382.00 15.00 C 399.57 14.73 398.34 27.86 402.00 42.00
C 413.31 41.55 423.84 56.83 434.08 47.08 C 444.31 37.32 452.88 38.42 461.75 49.25 C 470.62 60.08 459.87 69.35 454.00 79.00
C 461.15 85.61 458.19 99.26 466.03 103.97 C 473.88 108.68 489.96 105.30 490.00 118.00 C 490.04 130.70 489.88 141.45 474.78 140.78 C 459.68 140.11 464.17 151.93 457.68 160.68 C 451.19 169.42 460.22 176.65 464.31 184.70 C 468.39 192.74 459.16 202.33 451.75 206.75 C 444.34 211.17 432.08 196.78 426.00 195.00
C 417.52 203.21 400.00 200.30 399.00 214.00 Z"/>
</g>
<g fill="None" fill-opacity="0.0" stroke="#FE4823" stroke-opacity="0.97" stroke-width="0.3"><path d="
M 278.00 138.00 
C 279.67 138.00 281.33 138.00 283.00 138.00
C 302.00 138.00 321.00 138.00 340.00 138.00
C 332.18 116.04 343.58 90.30 366.07 82.07 C 388.57 73.85 414.28 83.61 423.77 107.23 C 433.26 130.85 419.70 153.10 399.00 165.00
C 399.00 165.50 399.00 166.00 399.00 166.00
C 399.00 182.00 399.00 198.00 399.00 214.00
C 400.00 200.30 417.52 203.21 426.00 195.00
C 432.08 196.78 444.34 211.17 451.75 206.75 C 459.16 202.33 468.39 192.74 464.31 184.70 C 460.22 176.65 451.19 169.42 457.68 160.68 C 464.17 151.93 459.68 140.11 474.78 140.78 C 489.88 141.45 490.04 130.70 490.00 118.00 C 489.96 105.30 473.88 108.68 466.03 103.97 C 458.19 99.26 461.15 85.61 454.00 79.00
C 459.87 69.35 470.62 60.08 461.75 49.25 C 452.88 38.42 444.31 37.32 434.08 47.08 C 423.84 56.83 413.31 41.55 402.00 42.00
C 398.34 27.86 399.57 14.73 382.00 15.00 C 364.43 15.27 365.60 27.42 363.00 42.00
C 353.15 40.72 342.77 53.93 334.08 48.92 C 325.40 43.90 317.56 36.08 309.25 43.25 C 300.94 50.41 292.68 57.47 302.70 67.30 C 312.72 77.14 306.51 81.90 303.78 92.78 C 301.04 103.66 290.95 108.54 280.01 109.01 C 269.07 109.48 272.16 136.54 278.00 138.00 Z"/>
</g>
<g fill="None" fill-opacity="0.0" stroke="#000000" stroke-opacity="0.00" stroke-width="0.3"><path d="
M 340.00 138.00 
C 355.08 138.00 367.67 138.30 383.00 138.00 C 398.33 137.70 399.00 152.84 399.00 165.00
C 419.70 153.10 433.26 130.85 423.77 107.23 C 414.28 83.61 388.57 73.85 366.07 82.07 C 343.58 90.30 332.18 116.04 340.00 138.00 Z"/>
</g>
<g fill="None" fill-opacity="0.0" stroke="#008BE6" stroke-opacity="1.00" stroke-width="0.3"><path d="
M 15.00 151.00 
C 13.04 185.69 18.48 222.44 16.00 258.00 C 13.52 293.56 19.21 330.45 16.00 366.00
C 80.33 366.00 144.67 366.00 209.00 366.00
C 195.35 362.62 182.81 350.55 170.25 343.75 C 157.70 336.95 147.06 325.75 136.25 315.75 C 125.44 305.76 115.97 293.90 107.00 283.00
C 104.04 289.32 94.84 297.36 90.75 289.25 C 86.66 281.14 93.87 273.32 97.00 267.00
C 96.45 259.99 87.62 254.13 86.08 246.92 C 84.53 239.72 77.72 232.68 77.00 225.00
C 72.86 227.70 70.09 232.35 66.00 235.00
C 70.68 243.60 82.93 248.19 87.00 257.00
C 94.84 273.97 69.79 268.06 66.25 257.75 C 62.71 247.44 42.02 243.93 48.00 231.00
C 51.82 222.74 64.58 213.42 71.00 207.00
C 71.89 200.94 65.50 193.04 66.00 186.00 C 66.50 178.96 61.55 171.62 62.02 163.98 C 62.49 156.33 59.73 147.05 61.00 139.00
C 50.60 139.00 38.54 137.74 29.00 138.00
C 22.62 138.79 16.01 144.39 15.00 151.00 Z"/>
</g>
<g fill="None" fill-opacity="0.0" stroke="#0095F8" stroke-opacity="0.87" stroke-width="0.3"><path d="
M 61.00 139.00 
C 96.84 139.00 134.33 142.22 170.00 139.00
C 169.96 139.00 170.00 138.00 170.00 138.00
C 146.62 138.00 122.29 136.95 99.00 138.00 C 75.71 139.05 52.04 135.14 29.00 138.00
C 38.54 137.74 50.60 139.00 61.00 139.00 Z"/>
</g>
<g fill="None" fill-opacity="0.0" stroke="#55BBFE" stroke-opacity="0.91" stroke-width="0.3"><path d="
M 170.00 139.00 
C 188.61 140.68 208.37 138.47 227.00 139.00 C 245.63 139.53 265.25 139.72 283.00 138.00
C 281.33 138.00 279.67 138.00 278.00 138.00
C 242.00 138.00 206.00 138.00 170.00 138.00
C 170.00 138.00 169.96 139.00 170.00 139.00 Z"/>
</g>
<g fill="None" fill-opacity="0.0" stroke="#58BCFE" stroke-opacity="1.00" stroke-width="0.3"><path d="
M 170.00 139.00 
C 171.32 164.11 191.56 170.68 215.00 169.00 C 238.44 167.32 266.66 169.88 291.00 169.00 C 315.34 168.12 342.41 169.66 367.00 169.00
C 368.35 188.74 363.25 210.28 372.00 228.00
C 372.50 228.00 373.00 228.00 373.00 228.00
C 381.33 228.00 389.67 228.00 398.00 228.00
C 397.61 223.75 398.00 219.27 398.00 215.00
C 398.00 207.55 397.04 197.16 398.00 190.00 C 398.96 182.84 394.98 171.41 399.00 166.00
C 399.00 166.00 399.00 165.50 399.00 165.00
C 399.00 152.84 398.33 137.70 383.00 138.00 C 367.67 138.30 355.08 138.00 340.00 138.00
C 321.00 138.00 302.00 138.00 283.00 138.00
C 265.25 139.72 245.63 139.53 227.00 139.00 C 208.37 138.47 188.61 140.68 170.00 139.00 Z"/>
</g>
<g fill="None" fill-opacity="0.0" stroke="#029AFE" stroke-opacity="1.00" stroke-width="0.3"><path d="
M 71.00 207.00 
C 72.51 205.49 75.07 202.84 77.00 202.00
C 90.14 196.27 88.01 212.69 82.75 217.75 C 77.50 222.82 67.76 228.60 66.00 235.00
C 70.09 232.35 72.86 227.70 77.00 225.00
C 77.72 232.68 84.53 239.72 86.08 246.92 C 87.62 254.13 96.45 259.99 97.00 267.00
C 100.88 259.14 105.65 251.22 108.78 242.78 C 111.90 234.33 117.98 226.29 120.77 217.77 C 123.56 209.25 130.60 201.02 132.31 192.31 C 134.01 183.59 145.63 172.00 150.92 182.08 C 156.20 192.16 143.80 198.22 142.23 207.23 C 140.66 216.24 133.22 223.62 130.23 232.23 C 127.24 240.84 122.49 249.31 118.69 257.69 C 114.90 266.08 110.92 274.63 107.00 283.00
C 115.97 293.90 125.44 305.76 136.25 315.75 C 147.06 325.75 157.70 336.95 170.25 343.75 C 182.81 350.55 195.35 362.62 209.00 366.00
C 218.33 366.00 227.67 366.00 237.00 366.00
C 237.00 337.67 236.99 309.33 237.00 281.00
C 237.00 280.50 237.00 280.00 237.00 280.00
C 237.00 263.73 230.15 233.92 250.00 229.00
C 268.64 224.38 290.13 229.16 310.00 228.00 C 329.87 226.84 351.93 228.00 372.00 228.00
C 363.25 210.28 368.35 188.74 367.00 169.00
C 342.41 169.66 315.34 168.12 291.00 169.00 C 266.66 169.88 238.44 167.32 215.00 169.00 C 191.56 170.68 171.32 164.11 170.00 139.00
C 134.33 142.22 96.84 139.00 61.00 139.00
C 59.73 147.05 62.49 156.33 62.02 163.98 C 61.55 171.62 66.50 178.96 66.00 186.00 C 65.50 193.04 71.89 200.94 71.00 207.00
M 176.00 235.00 
C 170.35 227.23 158.10 221.87 154.00 213.00
C 152.05 208.78 157.56 192.68 165.23 202.77 C 172.90 212.87 185.73 219.42 192.75 230.25 C 199.78 241.08 176.11 253.23 171.25 261.25 C 166.39 269.27 160.22 271.72 154.25 265.75 C 148.28 259.78 160.00 253.42 162.25 249.25 C 164.50 245.08 176.00 239.65 176.00 235.00 Z"/>
</g>
<g fill="None" fill-opacity="0.0" stroke="#008BE6" stroke-opacity="0.66" stroke-width="0.3"><path d="
M 15.00 366.00 
C 15.00 365.96 16.00 366.00 16.00 366.00
C 19.21 330.45 13.52 293.56 16.00 258.00 C 18.48 222.44 13.04 185.69 15.00 151.00
C 11.43 174.38 16.56 199.33 15.00 223.00 C 13.44 246.67 15.60 271.28 15.00 295.00 C 14.40 318.72 15.00 342.29 15.00 366.00 Z"/>
</g>
<g fill="None" fill-opacity="0.0" stroke="#948BA5" stroke-opacity="1.00" stroke-width="0.3"><path d="
M 398.00 215.00 
C 398.00 214.96 399.00 215.00 399.00 215.00
C 399.00 215.00 399.00 214.50 399.00 214.00
C 399.00 198.00 399.00 182.00 399.00 166.00
C 394.98 171.41 398.96 182.84 398.00 190.00 C 397.04 197.16 398.00 207.55 398.00 215.00 Z"/>
</g>
<g fill="None" fill-opacity="0.0" stroke="#FCFEFF" stroke-opacity="1.00" stroke-width="0.3"><path d="
M 97.00 267.00 
C 93.87 273.32 86.66 281.14 90.75 289.25 C 94.84 297.36 104.04 289.32 107.00 283.00
C 110.92 274.63 114.90 266.08 118.69 257.69 C 122.49 249.31 127.24 240.84 130.23 232.23 C 133.22 223.62 140.66 216.24 142.23 207.23 C 143.80 198.22 156.20 192.16 150.92 182.08 C 145.63 172.00 134.01 183.59 132.31 192.31 C 130.60 201.02 123.56 209.25 120.77 217.77 C 117.98 226.29 111.90 234.33 108.78 242.78 C 105.65 251.22 100.88 259.14 97.00 267.00 Z"/>
</g>
<g fill="None" fill-opacity="0.0" stroke="#FDFEFE" stroke-opacity="1.00" stroke-width="0.3"><path d="
M 77.00 202.00 
C 72.18 204.53 66.80 212.76 62.75 216.75 C 58.70 220.74 50.61 226.27 48.00 231.00
C 42.02 243.93 62.71 247.44 66.25 257.75 C 69.79 268.06 94.84 273.97 87.00 257.00
C 84.94 253.27 77.82 250.08 75.75 246.25 C 73.68 242.42 65.04 238.51 66.00 235.00
C 67.76 228.60 77.50 222.82 82.75 217.75 C 88.01 212.69 90.14 196.27 77.00 202.00 Z"/>
</g>
<g fill="None" fill-opacity="0.0" stroke="#FDFEFF" stroke-opacity="1.00" stroke-width="0.3"><path d="
M 154.00 213.00 
C 156.03 216.68 163.52 219.82 165.25 223.75 C 166.98 227.68 176.00 230.78 176.00 235.00
C 176.00 239.65 164.50 245.08 162.25 249.25 C 160.00 253.42 148.28 259.78 154.25 265.75 C 160.22 271.72 166.39 269.27 171.25 261.25 C 176.11 253.23 199.78 241.08 192.75 230.25 C 185.73 219.42 172.90 212.87 165.23 202.77 C 157.56 192.68 152.05 208.78 154.00 213.00 Z"/>
</g>
<g fill="None" fill-opacity="0.0" stroke="#C5E5FA" stroke-opacity="1.00" stroke-width="0.3"><path d="
M 71.00 207.00 
C 64.58 213.42 51.82 222.74 48.00 231.00
C 50.61 226.27 58.70 220.74 62.75 216.75 C 66.80 212.76 72.18 204.53 77.00 202.00
C 75.07 202.84 72.51 205.49 71.00 207.00 Z"/>
</g>
<g fill="None" fill-opacity="0.0" stroke="#A6DBFF" stroke-opacity="1.00" stroke-width="0.3"><path d="
M 176.00 235.00 
C 176.00 230.78 166.98 227.68 165.25 223.75 C 163.52 219.82 156.03 216.68 154.00 213.00
C 158.10 221.87 170.35 227.23 176.00 235.00 Z"/>
</g>
<g fill="None" fill-opacity="0.0" stroke="#55B3F5" stroke-opacity="0.62" stroke-width="0.3"><path d="
M 398.00 228.00 
C 398.50 228.00 399.00 228.00 399.00 228.00
C 399.38 223.75 399.00 219.27 399.00 215.00
C 399.00 215.00 398.00 214.96 398.00 215.00
C 398.00 219.27 397.61 223.75 398.00 228.00 Z"/>
</g>
<g fill="None" fill-opacity="0.0" stroke="#54A7AA" stroke-opacity="1.00" stroke-width="0.3"><path d="
M 250.00 229.00 
C 251.64 228.85 253.36 229.00 255.00 229.00
C 294.33 229.00 333.67 229.00 373.00 229.00
C 372.96 229.00 373.00 228.00 373.00 228.00
C 373.00 228.00 372.50 228.00 372.00 228.00
C 351.93 228.00 329.87 226.84 310.00 228.00 C 290.13 229.16 268.64 224.38 250.00 229.00 Z"/>
</g>
<g fill="None" fill-opacity="0.0" stroke="#90BEA8" stroke-opacity="0.99" stroke-width="0.3"><path d="
M 373.00 229.00 
C 381.68 229.00 391.09 228.77 399.00 228.00
C 399.00 228.00 398.50 228.00 398.00 228.00
C 389.67 228.00 381.33 228.00 373.00 228.00
C 373.00 228.00 372.96 229.00 373.00 229.00 Z"/>
</g>
<g fill="None" fill-opacity="0.0" stroke="#FDC103" stroke-opacity="0.99" stroke-width="0.3"><path d="
M 373.00 229.00 
C 333.67 229.00 294.33 229.00 255.00 229.00
C 252.67 237.45 261.05 243.56 263.00 250.00
C 266.85 241.19 284.29 251.30 276.00 260.00
C 283.69 259.72 291.10 264.74 300.00 263.00 C 308.90 261.26 318.86 263.79 328.00 263.00 C 337.14 262.21 346.75 263.36 356.00 263.00 C 365.25 262.64 374.71 263.16 384.00 263.00 C 393.29 262.84 402.68 263.07 412.00 263.00 C 421.32 262.93 430.68 263.03 440.00 263.00 C 449.33 262.97 458.67 263.02 468.00 263.00 C 477.33 262.98 486.67 263.01 496.00 263.00
C 496.00 253.12 499.61 232.05 486.02 228.98 C 472.44 225.90 457.18 228.10 443.00 228.00 C 428.82 227.90 413.16 226.63 399.00 228.00
C 391.09 228.77 381.68 229.00 373.00 229.00
M 301.00 247.00 
C 310.03 249.42 305.14 265.59 296.00 262.00 C 286.86 258.41 290.99 244.31 301.00 247.00
M 329.00 247.00 
C 338.03 249.42 333.14 265.59 324.00 262.00 C 314.86 258.41 318.99 244.31 329.00 247.00 Z"/>
</g>
<g fill="None" fill-opacity="0.0" stroke="#E4AF01" stroke-opacity="1.00" stroke-width="0.3"><path d="
M 237.00 280.00 
C 263.74 277.58 291.14 280.91 318.00 280.00 C 344.86 279.09 372.10 280.00 399.00 280.00
C 430.89 280.00 464.26 277.13 496.00 280.00
C 496.00 274.33 496.00 268.67 496.00 263.00
C 486.67 263.01 477.33 262.98 468.00 263.00 C 458.67 263.02 449.33 262.97 440.00 263.00 C 430.68 263.03 421.32 262.93 412.00 263.00 C 402.68 263.07 393.29 262.84 384.00 263.00 C 374.71 263.16 365.25 262.64 356.00 263.00 C 346.75 263.36 337.14 262.21 328.00 263.00 C 318.86 263.79 308.90 261.26 300.00 263.00 C 291.10 264.74 283.69 259.72 276.00 260.00
C 272.08 260.15 270.51 263.68 265.93 261.07 C 261.35 258.47 264.24 254.08 263.00 250.00
C 261.05 243.56 252.67 237.45 255.00 229.00
C 253.36 229.00 251.64 228.85 250.00 229.00
C 230.15 233.92 237.00 263.73 237.00 280.00 Z"/>
</g>
<g fill="None" fill-opacity="0.0" stroke="#9CD1F5" stroke-opacity="1.00" stroke-width="0.3"><path d="
M 87.00 257.00 
C 82.93 248.19 70.68 243.60 66.00 235.00
C 65.04 238.51 73.68 242.42 75.75 246.25 C 77.82 250.08 84.94 253.27 87.00 257.00 Z"/>
</g>
<g fill="None" fill-opacity="0.0" stroke="#FEFDFA" stroke-opacity="1.00" stroke-width="0.3"><path d="
M 263.00 250.00 
C 264.24 254.08 261.35 258.47 265.93 261.07 C 270.51 263.68 272.08 260.15 276.00 260.00
C 284.29 251.30 266.85 241.19 263.00 250.00 Z"/>
</g>
<g fill="None" fill-opacity="0.0" stroke="#FFFEFB" stroke-opacity="1.00" stroke-width="0.3"><path d="
M 301.00 247.00 
C 290.99 244.31 286.86 258.41 296.00 262.00 C 305.14 265.59 310.03 249.42 301.00 247.00 Z"/>
</g>
<g fill="None" fill-opacity="0.0" stroke="#FFFEFC" stroke-opacity="1.00" stroke-width="0.3"><path d="
M 329.00 247.00 
C 318.99 244.31 314.86 258.41 324.00 262.00 C 333.14 265.59 338.03 249.42 329.00 247.00 Z"/>
</g>
<g fill="None" fill-opacity="0.0" stroke="#4F657C" stroke-opacity="1.00" stroke-width="0.3"><path d="
M 237.00 281.00 
C 263.74 283.42 291.14 280.09 318.00 281.00 C 344.87 281.91 372.10 281.00 399.00 281.00
C 398.96 281.00 399.00 280.00 399.00 280.00
C 372.10 280.00 344.86 279.09 318.00 280.00 C 291.14 280.91 263.74 277.58 237.00 280.00
C 237.00 280.00 237.00 280.50 237.00 281.00 Z"/>
</g>
<g fill="None" fill-opacity="0.0" stroke="#625E63" stroke-opacity="0.83" stroke-width="0.3"><path d="
M 399.00 281.00 
C 430.89 281.00 464.26 283.86 496.00 281.00
C 496.00 281.00 496.00 280.50 496.00 280.00
C 464.26 277.13 430.89 280.00 399.00 280.00
C 399.00 280.00 398.96 281.00 399.00 281.00 Z"/>
</g>
<g fill="None" fill-opacity="0.0" stroke="#585662" stroke-opacity="1.00" stroke-width="0.3"><path d="
M 237.00 366.00 
C 237.00 369.33 237.00 372.67 237.00 376.00
C 237.00 405.67 237.00 435.33 237.00 465.00
C 237.00 475.57 234.35 490.05 246.00 495.00
C 247.52 495.64 248.30 495.82 250.00 496.00
C 270.32 498.15 292.31 495.09 312.00 497.00
C 333.11 497.00 358.30 497.22 379.00 497.00 C 399.70 496.78 426.81 497.59 446.00 497.00 C 465.19 496.41 494.04 503.87 496.00 481.00 C 497.96 458.13 495.14 436.54 496.00 414.00 C 496.86 391.46 495.67 369.34 496.00 347.00 C 496.33 324.66 496.00 303.26 496.00 281.00
C 464.26 283.86 430.89 281.00 399.00 281.00
C 372.10 281.00 344.87 281.91 318.00 281.00 C 291.14 280.09 263.74 283.42 237.00 281.00
C 236.99 309.33 237.00 337.67 237.00 366.00
M 459.00 312.00 
C 470.11 316.10 464.75 336.55 465.00 348.00 C 465.25 359.45 466.62 378.36 465.00 391.00 C 463.38 403.64 442.41 398.47 431.00 399.00 C 419.59 399.53 400.46 398.90 388.00 399.00 C 375.54 399.10 358.40 399.30 346.00 399.00 C 333.60 398.70 314.19 399.87 303.00 399.00 C 291.81 398.13 270.37 404.05 268.03 391.97 C 265.68 379.90 268.01 360.26 268.00 349.00 C 267.99 337.74 263.00 316.06 274.00 312.00
C 287.17 307.14 304.35 312.22 319.00 311.00 C 333.65 309.78 351.06 310.97 366.00 311.00 C 380.94 311.03 398.26 309.70 413.00 311.00 C 427.74 312.30 445.75 307.11 459.00 312.00
M 345.00 424.00 
C 356.95 427.63 346.87 444.01 336.00 440.00 C 325.13 435.99 312.21 442.80 301.00 440.00 C 289.79 437.20 276.38 443.62 265.33 439.67 C 254.28 435.72 263.18 420.77 274.00 424.00 C 284.82 427.23 297.90 421.55 309.00 424.00 C 320.10 426.45 334.12 420.70 345.00 424.00
M 466.00 426.00 
C 477.84 429.59 470.99 442.87 460.00 441.00 C 449.01 439.13 438.04 441.23 427.00 441.00 C 415.96 440.77 405.11 439.75 394.00 441.00 C 382.89 442.25 376.98 429.65 389.00 426.00
C 399.86 422.71 415.08 424.94 427.00 425.00 C 438.92 425.06 455.11 422.70 466.00 426.00
M 307.00 459.00 
C 317.99 462.66 306.95 479.25 297.00 474.00 C 287.05 468.75 274.28 479.30 264.33 473.67 C 254.38 468.04 263.93 455.50 274.00 459.00 C 284.07 462.50 296.94 455.65 307.00 459.00
M 429.00 459.00 
C 439.99 462.66 428.95 479.25 419.00 474.00 C 409.05 468.75 396.28 479.30 386.33 473.67 C 376.38 468.04 385.92 455.50 396.00 459.00 C 406.08 462.50 418.94 455.65 429.00 459.00 Z"/>
</g>
<g fill="None" fill-opacity="0.0" stroke="#FA4825" stroke-opacity="1.00" stroke-width="0.3"><path d="
M 274.00 312.00 
C 288.26 308.84 301.02 317.46 313.08 322.92 C 325.13 328.39 336.44 331.73 348.23 338.77 C 360.02 345.81 372.21 346.03 384.02 339.03 C 395.84 332.02 407.06 328.72 419.08 323.08 C 431.10 317.44 444.72 308.84 459.00 312.00
C 445.75 307.11 427.74 312.30 413.00 311.00 C 398.26 309.70 380.94 311.03 366.00 311.00 C 351.06 310.97 333.65 309.78 319.00 311.00 C 304.35 312.22 287.17 307.14 274.00 312.00 Z"/>
</g>
<g fill="None" fill-opacity="0.0" stroke="#E34020" stroke-opacity="1.00" stroke-width="0.3"><path d="
M 459.00 312.00 
C 444.72 308.84 431.10 317.44 419.08 323.08 C 407.06 328.72 395.84 332.02 384.02 339.03 C 372.21 346.03 360.02 345.81 348.23 338.77 C 336.44 331.73 325.13 328.39 313.08 322.92 C 301.02 317.46 288.26 308.84 274.00 312.00
C 263.00 316.06 267.99 337.74 268.00 349.00 C 268.01 360.26 265.68 379.90 268.03 391.97 C 270.37 404.05 291.81 398.13 303.00 399.00 C 314.19 399.87 333.60 398.70 346.00 399.00 C 358.40 399.30 375.54 399.10 388.00 399.00 C 400.46 398.90 419.59 399.53 431.00 399.00 C 442.41 398.47 463.38 403.64 465.00 391.00 C 466.62 378.36 465.25 359.45 465.00 348.00 C 464.75 336.55 470.11 316.10 459.00 312.00
M 464.00 320.00 
C 464.00 343.33 464.00 366.67 464.00 390.00
C 437.81 379.13 412.42 366.02 386.00 356.00
C 410.72 342.27 438.33 332.67 464.00 320.00
M 347.00 355.00 
C 333.03 361.43 318.51 368.32 304.00 374.00
C 296.21 358.95 287.85 343.71 284.00 327.00
C 305.03 336.35 325.97 345.65 347.00 355.00
M 442.00 397.00 
C 428.03 398.94 411.68 397.86 397.00 398.00 C 382.32 398.14 365.36 398.11 351.00 398.00 C 336.64 397.89 321.88 401.74 314.00 388.00
C 327.12 379.04 341.04 376.48 355.23 368.23 C 369.42 359.98 384.98 372.51 399.07 377.93 C 413.17 383.34 427.65 391.90 442.00 397.00 Z"/>
</g>
<g fill="None" fill-opacity="0.0" stroke="#FE4722" stroke-opacity="1.00" stroke-width="0.3"><path d="
M 464.00 320.00 
C 438.33 332.67 410.72 342.27 386.00 356.00
C 412.42 366.02 437.81 379.13 464.00 390.00
C 464.00 366.67 464.00 343.33 464.00 320.00 Z"/>
</g>
<g fill="None" fill-opacity="0.0" stroke="#FE4722" stroke-opacity="1.00" stroke-width="0.3"><path d="
M 347.00 355.00 
C 325.97 345.65 305.03 336.35 284.00 327.00
C 287.85 343.71 296.21 358.95 304.00 374.00
C 318.51 368.32 333.03 361.43 347.00 355.00 Z"/>
</g>
<g fill="None" fill-opacity="0.0" stroke="#FE4722" stroke-opacity="1.00" stroke-width="0.3"><path d="
M 442.00 397.00 
C 427.65 391.90 413.17 383.34 399.07 377.93 C 384.98 372.51 369.42 359.98 355.23 368.23 C 341.04 376.48 327.12 379.04 314.00 388.00
C 321.88 401.74 336.64 397.89 351.00 398.00 C 365.36 398.11 382.32 398.14 397.00 398.00 C 411.68 397.86 428.03 398.94 442.00 397.00 Z"/>
</g>
<g fill="None" fill-opacity="0.0" stroke="#D0D3D6" stroke-opacity="0.66" stroke-width="0.3"><path d="
M 15.00 420.00 
C 14.37 403.02 17.61 383.76 16.00 366.00
C 16.00 366.00 15.00 365.96 15.00 366.00
C 15.00 383.47 12.69 402.70 15.00 420.00 Z"/>
</g>
<g fill="None" fill-opacity="0.0" stroke="#CFD2D7" stroke-opacity="1.00" stroke-width="0.3"><path d="
M 15.00 420.00 
C 17.32 437.41 36.83 432.72 51.00 433.00 C 65.17 433.28 84.80 432.89 100.00 433.00 C 115.20 433.11 133.51 432.99 149.00 433.00
C 149.50 433.00 150.00 433.00 150.00 433.00
C 178.67 433.00 207.33 433.00 236.00 433.00
C 236.67 414.16 234.67 394.01 237.00 376.00
C 237.00 372.67 237.00 369.33 237.00 366.00
C 227.67 366.00 218.33 366.00 209.00 366.00
C 144.67 366.00 80.33 366.00 16.00 366.00
C 17.61 383.76 14.37 403.02 15.00 420.00
M 211.00 392.00 
C 219.97 395.65 212.41 411.92 203.33 406.67 C 194.25 401.42 201.57 388.16 211.00 392.00 Z"/>
</g>
<g fill="None" fill-opacity="0.0" stroke="#AAB1BC" stroke-opacity="1.00" stroke-width="0.3"><path d="
M 150.00 433.00 
C 150.91 443.09 150.91 454.91 150.00 465.00
C 178.73 462.22 208.20 467.09 237.00 465.00
C 237.00 435.33 237.00 405.67 237.00 376.00
C 234.67 394.01 236.67 414.16 236.00 433.00
C 207.33 433.00 178.67 433.00 150.00 433.00 Z"/>
</g>
<g fill="None" fill-opacity="0.0" stroke="#129CFD" stroke-opacity="1.00" stroke-width="0.3"><path d="
M 211.00 392.00 
C 201.57 388.16 194.25 401.42 203.33 406.67 C 212.41 411.92 219.97 395.65 211.00 392.00 Z"/>
</g>
<g fill="None" fill-opacity="0.0" stroke="#E1E1E1" stroke-opacity="1.00" stroke-width="0.3"><path d="
M 345.00 424.00 
C 334.12 420.70 320.10 426.45 309.00 424.00 C 297.90 421.55 284.82 427.23 274.00 424.00 C 263.18 420.77 254.28 435.72 265.33 439.67 C 276.38 443.62 289.79 437.20 301.00 440.00 C 312.21 442.80 325.13 435.99 336.00 440.00 C 346.87 444.01 356.95 427.63 345.00 424.00 Z"/>
</g>
<g fill="None" fill-opacity="0.0" stroke="#9D9CA3" stroke-opacity="1.00" stroke-width="0.3"><path d="
M 389.00 426.00 
C 401.00 423.97 414.75 425.94 427.00 426.00 C 439.25 426.06 453.90 423.95 466.00 426.00
C 455.11 422.70 438.92 425.06 427.00 425.00 C 415.08 424.94 399.86 422.71 389.00 426.00 Z"/>
</g>
<g fill="None" fill-opacity="0.0" stroke="#FEFEFE" stroke-opacity="1.00" stroke-width="0.3"><path d="
M 466.00 426.00 
C 453.90 423.95 439.25 426.06 427.00 426.00 C 414.75 425.94 401.00 423.97 389.00 426.00
C 376.98 429.65 382.89 442.25 394.00 441.00 C 405.11 439.75 415.96 440.77 427.00 441.00 C 438.04 441.23 449.01 439.13 460.00 441.00 C 470.99 442.87 477.84 429.59 466.00 426.00 Z"/>
</g>
<g fill="None" fill-opacity="0.0" stroke="#A7AFBF" stroke-opacity="0.13" stroke-width="0.3"><path d="
M 149.00 465.00 
C 149.50 465.00 150.00 465.00 150.00 465.00
C 150.91 454.91 150.91 443.09 150.00 433.00
C 150.00 433.00 149.50 433.00 149.00 433.00
C 148.09 443.09 148.09 454.91 149.00 465.00 Z"/>
</g>
<g fill="None" fill-opacity="0.0" stroke="#E4E4E4" stroke-opacity="1.00" stroke-width="0.3"><path d="
M 307.00 459.00 
C 296.94 455.65 284.07 462.50 274.00 459.00 C 263.93 455.50 254.38 468.04 264.33 473.67 C 274.28 479.30 287.05 468.75 297.00 474.00 C 306.95 479.25 317.99 462.66 307.00 459.00 Z"/>
</g>
<g fill="None" fill-opacity="0.0" stroke="#E4E4E4" stroke-opacity="1.00" stroke-width="0.3"><path d="
M 429.00 459.00 
C 418.94 455.65 406.08 462.50 396.00 459.00 C 385.92 455.50 376.38 468.04 386.33 473.67 C 396.28 479.30 409.05 468.75 419.00 474.00 C 428.95 479.25 439.99 462.66 429.00 459.00 Z"/>
</g>
<g fill="None" fill-opacity="0.0" stroke="#E5E8ED" stroke-opacity="0.99" stroke-width="0.3"><path d="
M 102.00 479.00 
C 101.87 483.76 103.50 490.43 103.00 496.00
C 126.72 496.00 151.37 494.96 175.00 496.00 C 198.63 497.04 223.36 493.67 246.00 495.00
C 234.35 490.05 237.00 475.57 237.00 465.00
C 208.20 467.09 178.73 462.22 150.00 465.00
C 139.39 466.03 126.38 464.71 116.00 465.00
C 108.64 465.91 102.91 471.67 102.00 479.00 Z"/>
</g>
<g fill="None" fill-opacity="0.0" stroke="#E5E8EE" stroke-opacity="0.67" stroke-width="0.3"><path d="
M 150.00 465.00 
C 150.00 465.00 149.50 465.00 149.00 465.00
C 138.28 465.00 126.63 463.68 116.00 465.00
C 126.38 464.71 139.39 466.03 150.00 465.00 Z"/>
</g>
<g fill="None" fill-opacity="0.0" stroke="#E6E9EE" stroke-opacity="0.67" stroke-width="0.3"><path d="
M 102.00 496.00 
C 102.00 496.04 103.00 496.00 103.00 496.00
C 103.50 490.43 101.87 483.76 102.00 479.00
C 101.35 484.23 101.53 490.75 102.00 496.00 Z"/>
</g>
<g fill="None" fill-opacity="0.0" stroke="#E4E9ED" stroke-opacity="0.47" stroke-width="0.3"><path d="
M 103.00 496.00 
C 103.00 496.00 102.00 496.04 102.00 496.00
C 106.49 500.67 119.10 495.56 126.00 497.00 C 132.90 498.44 143.32 496.35 151.00 497.00 C 158.68 497.65 167.99 496.71 176.00 497.00 C 184.01 497.29 192.86 496.87 201.00 497.00 C 209.14 497.13 217.86 496.95 226.00 497.00 C 234.14 497.05 241.90 497.00 250.00 497.00
C 249.96 497.00 250.00 496.00 250.00 496.00
C 248.30 495.82 247.52 495.64 246.00 495.00
C 223.36 493.67 198.63 497.04 175.00 496.00 C 151.37 494.96 126.72 496.00 103.00 496.00 Z"/>
</g>
<g fill="None" fill-opacity="0.0" stroke="#84848F" stroke-opacity="0.72" stroke-width="0.3"><path d="
M 250.00 497.00 
C 270.67 497.00 291.33 497.00 312.00 497.00
C 292.31 495.09 270.32 498.15 250.00 496.00
C 250.00 496.00 249.96 497.00 250.00 497.00 Z"/>
</g>
<g fill="#000000" fill-opacity="0.00" stroke="None">
<path d="
M 0.00 512.00 
L 512.00 512.00
L 512.00 0.00
L 0.00 0.00
L 0.00 512.00
M 399.00 214.00 
C 399.00 214.50 399.00 215.00 399.00 215.00
C 399.00 219.27 399.38 223.75 399.00 228.00
C 413.16 226.63 428.82 227.90 443.00 228.00 C 457.18 228.10 472.44 225.90 486.02 228.98 C 499.61 232.05 496.00 253.12 496.00 263.00
C 496.00 268.67 496.00 274.33 496.00 280.00
C 496.00 280.50 496.00 281.00 496.00 281.00
C 496.00 303.26 496.33 324.66 496.00 347.00 C 495.67 369.34 496.86 391.46 496.00 414.00 C 495.14 436.54 497.96 458.13 496.00 481.00 C 494.04 503.87 465.19 496.41 446.00 497.00 C 426.81 497.59 399.70 496.78 379.00 497.00 C 358.30 497.22 333.11 497.00 312.00 497.00
C 291.33 497.00 270.67 497.00 250.00 497.00
C 241.90 497.00 234.14 497.05 226.00 497.00 C 217.86 496.95 209.14 497.13 201.00 497.00 C 192.86 496.87 184.01 497.29 176.00 497.00 C 167.99 496.71 158.68 497.65 151.00 497.00 C 143.32 496.35 132.90 498.44 126.00 497.00 C 119.10 495.56 106.49 500.67 102.00 496.00
C 101.53 490.75 101.35 484.23 102.00 479.00
C 102.91 471.67 108.64 465.91 116.00 465.00
C 126.63 463.68 138.28 465.00 149.00 465.00
C 148.09 454.91 148.09 443.09 149.00 433.00
C 133.51 432.99 115.20 433.11 100.00 433.00 C 84.80 432.89 65.17 433.28 51.00 433.00 C 36.83 432.72 17.32 437.41 15.00 420.00
C 12.69 402.70 15.00 383.47 15.00 366.00
C 15.00 342.29 14.40 318.72 15.00 295.00 C 15.60 271.28 13.44 246.67 15.00 223.00 C 16.56 199.33 11.43 174.38 15.00 151.00
C 16.01 144.39 22.62 138.79 29.00 138.00
C 52.04 135.14 75.71 139.05 99.00 138.00 C 122.29 136.95 146.62 138.00 170.00 138.00
C 206.00 138.00 242.00 138.00 278.00 138.00
C 272.16 136.54 269.07 109.48 280.01 109.01 C 290.95 108.54 301.04 103.66 303.78 92.78 C 306.51 81.90 312.72 77.14 302.70 67.30 C 292.68 57.47 300.94 50.41 309.25 43.25 C 317.56 36.08 325.40 43.90 334.08 48.92 C 342.77 53.93 353.15 40.72 363.00 42.00
C 365.60 27.42 364.43 15.27 382.00 15.00 C 399.57 14.73 398.34 27.86 402.00 42.00
C 413.31 41.55 423.84 56.83 434.08 47.08 C 444.31 37.32 452.88 38.42 461.75 49.25 C 470.62 60.08 459.87 69.35 454.00 79.00
C 461.15 85.61 458.19 99.26 466.03 103.97 C 473.88 108.68 489.96 105.30 490.00 118.00 C 490.04 130.70 489.88 141.45 474.78 140.78 C 459.68 140.11 464.17 151.93 457.68 160.68 C 451.19 169.42 460.22 176.65 464.31 184.70 C 468.39 192.74 459.16 202.33 451.75 206.75 C 444.34 211.17 432.08 196.78 426.00 195.00
C 417.52 203.21 400.00 200.30 399.00 214.00 Z"/>
</g>
<g fill="#FE4823" fill-opacity="0.97" stroke="None">
<path d="
M 278.00 138.00 
C 279.67 138.00 281.33 138.00 283.00 138.00
C 302.00 138.00 321.00 138.00 340.00 138.00
C 332.18 116.04 343.58 90.30 366.07 82.07 C 388.57 73.85 414.28 83.61 423.77 107.23 C 433.26 130.85 419.70 153.10 399.00 165.00
C 399.00 165.50 399.00 166.00 399.00 166.00
C 399.00 182.00 399.00 198.00 399.00 214.00
C 400.00 200.30 417.52 203.21 426.00 195.00
C 432.08 196.78 444.34 211.17 451.75 206.75 C 459.16 202.33 468.39 192.74 464.31 184.70 C 460.22 176.65 451.19 169.42 457.68 160.68 C 464.17 151.93 459.68 140.11 474.78 140.78 C 489.88 141.45 490.04 130.70 490.00 118.00 C 489.96 105.30 473.88 108.68 466.03 103.97 C 458.19 99.26 461.15 85.61 454.00 79.00
C 459.87 69.35 470.62 60.08 461.75 49.25 C 452.88 38.42 444.31 37.32 434.08 47.08 C 423.84 56.83 413.31 41.55 402.00 42.00
C 398.34 27.86 399.57 14.73 382.00 15.00 C 364.43 15.27 365.60 27.42 363.00 42.00
C 353.15 40.72 342.77 53.93 334.08 48.92 C 325.40 43.90 317.56 36.08 309.25 43.25 C 300.94 50.41 292.68 57.47 302.70 67.30 C 312.72 77.14 306.51 81.90 303.78 92.78 C 301.04 103.66 290.95 108.54 280.01 109.01 C 269.07 109.48 272.16 136.54 278.00 138.00 Z"/>
</g>
<g fill="#000000" fill-opacity="0.00" stroke="None">
<path d="
M 340.00 138.00 
C 355.08 138.00 367.67 138.30 383.00 138.00 C 398.33 137.70 399.00 152.84 399.00 165.00
C 419.70 153.10 433.26 130.85 423.77 107.23 C 414.28 83.61 388.57 73.85 366.07 82.07 C 343.58 90.30 332.18 116.04 340.00 138.00 Z"/>
</g>
<g fill="#008BE6" fill-opacity="1.00" stroke="None">
<path d="
M 15.00 151.00 
C 13.04 185.69 18.48 222.44 16.00 258.00 C 13.52 293.56 19.21 330.45 16.00 366.00
C 80.33 366.00 144.67 366.00 209.00 366.00
C 195.35 362.62 182.81 350.55 170.25 343.75 C 157.70 336.95 147.06 325.75 136.25 315.75 C 125.44 305.76 115.97 293.90 107.00 283.00
C 104.04 289.32 94.84 297.36 90.75 289.25 C 86.66 281.14 93.87 273.32 97.00 267.00
C 96.45 259.99 87.62 254.13 86.08 246.92 C 84.53 239.72 77.72 232.68 77.00 225.00
C 72.86 227.70 70.09 232.35 66.00 235.00
C 70.68 243.60 82.93 248.19 87.00 257.00
C 94.84 273.97 69.79 268.06 66.25 257.75 C 62.71 247.44 42.02 243.93 48.00 231.00
C 51.82 222.74 64.58 213.42 71.00 207.00
C 71.89 200.94 65.50 193.04 66.00 186.00 C 66.50 178.96 61.55 171.62 62.02 163.98 C 62.49 156.33 59.73 147.05 61.00 139.00
C 50.60 139.00 38.54 137.74 29.00 138.00
C 22.62 138.79 16.01 144.39 15.00 151.00 Z"/>
</g>
<g fill="#0095F8" fill-opacity="0.87" stroke="None">
<path d="
M 61.00 139.00 
C 96.84 139.00 134.33 142.22 170.00 139.00
C 169.96 139.00 170.00 138.00 170.00 138.00
C 146.62 138.00 122.29 136.95 99.00 138.00 C 75.71 139.05 52.04 135.14 29.00 138.00
C 38.54 137.74 50.60 139.00 61.00 139.00 Z"/>
</g>
<g fill="#55BBFE" fill-opacity="0.91" stroke="None">
<path d="
M 170.00 139.00 
C 188.61 140.68 208.37 138.47 227.00 139.00 C 245.63 139.53 265.25 139.72 283.00 138.00
C 281.33 138.00 279.67 138.00 278.00 138.00
C 242.00 138.00 206.00 138.00 170.00 138.00
C 170.00 138.00 169.96 139.00 170.00 139.00 Z"/>
</g>
<g fill="#58BCFE" fill-opacity="1.00" stroke="None">
<path d="
M 170.00 139.00 
C 171.32 164.11 191.56 170.68 215.00 169.00 C 238.44 167.32 266.66 169.88 291.00 169.00 C 315.34 168.12 342.41 169.66 367.00 169.00
C 368.35 188.74 363.25 210.28 372.00 228.00
C 372.50 228.00 373.00 228.00 373.00 228.00
C 381.33 228.00 389.67 228.00 398.00 228.00
C 397.61 223.75 398.00 219.27 398.00 215.00
C 398.00 207.55 397.04 197.16 398.00 190.00 C 398.96 182.84 394.98 171.41 399.00 166.00
C 399.00 166.00 399.00 165.50 399.00 165.00
C 399.00 152.84 398.33 137.70 383.00 138.00 C 367.67 138.30 355.08 138.00 340.00 138.00
C 321.00 138.00 302.00 138.00 283.00 138.00
C 265.25 139.72 245.63 139.53 227.00 139.00 C 208.37 138.47 188.61 140.68 170.00 139.00 Z"/>
</g>
<g fill="#029AFE" fill-opacity="1.00" stroke="None">
<path d="
M 71.00 207.00 
C 72.51 205.49 75.07 202.84 77.00 202.00
C 90.14 196.27 88.01 212.69 82.75 217.75 C 77.50 222.82 67.76 228.60 66.00 235.00
C 70.09 232.35 72.86 227.70 77.00 225.00
C 77.72 232.68 84.53 239.72 86.08 246.92 C 87.62 254.13 96.45 259.99 97.00 267.00
C 100.88 259.14 105.65 251.22 108.78 242.78 C 111.90 234.33 117.98 226.29 120.77 217.77 C 123.56 209.25 130.60 201.02 132.31 192.31 C 134.01 183.59 145.63 172.00 150.92 182.08 C 156.20 192.16 143.80 198.22 142.23 207.23 C 140.66 216.24 133.22 223.62 130.23 232.23 C 127.24 240.84 122.49 249.31 118.69 257.69 C 114.90 266.08 110.92 274.63 107.00 283.00
C 115.97 293.90 125.44 305.76 136.25 315.75 C 147.06 325.75 157.70 336.95 170.25 343.75 C 182.81 350.55 195.35 362.62 209.00 366.00
C 218.33 366.00 227.67 366.00 237.00 366.00
C 237.00 337.67 236.99 309.33 237.00 281.00
C 237.00 280.50 237.00 280.00 237.00 280.00
C 237.00 263.73 230.15 233.92 250.00 229.00
C 268.64 224.38 290.13 229.16 310.00 228.00 C 329.87 226.84 351.93 228.00 372.00 228.00
C 363.25 210.28 368.35 188.74 367.00 169.00
C 342.41 169.66 315.34 168.12 291.00 169.00 C 266.66 169.88 238.44 167.32 215.00 169.00 C 191.56 170.68 171.32 164.11 170.00 139.00
C 134.33 142.22 96.84 139.00 61.00 139.00
C 59.73 147.05 62.49 156.33 62.02 163.98 C 61.55 171.62 66.50 178.96 66.00 186.00 C 65.50 193.04 71.89 200.94 71.00 207.00
M 176.00 235.00 
C 170.35 227.23 158.10 221.87 154.00 213.00
C 152.05 208.78 157.56 192.68 165.23 202.77 C 172.90 212.87 185.73 219.42 192.75 230.25 C 199.78 241.08 176.11 253.23 171.25 261.25 C 166.39 269.27 160.22 271.72 154.25 265.75 C 148.28 259.78 160.00 253.42 162.25 249.25 C 164.50 245.08 176.00 239.65 176.00 235.00 Z"/>
</g>
<g fill="#008BE6" fill-opacity="0.66" stroke="None">
<path d="
M 15.00 366.00 
C 15.00 365.96 16.00 366.00 16.00 366.00
C 19.21 330.45 13.52 293.56 16.00 258.00 C 18.48 222.44 13.04 185.69 15.00 151.00
C 11.43 174.38 16.56 199.33 15.00 223.00 C 13.44 246.67 15.60 271.28 15.00 295.00 C 14.40 318.72 15.00 342.29 15.00 366.00 Z"/>
</g>
<g fill="#948BA5" fill-opacity="1.00" stroke="None">
<path d="
M 398.00 215.00 
C 398.00 214.96 399.00 215.00 399.00 215.00
C 399.00 215.00 399.00 214.50 399.00 214.00
C 399.00 198.00 399.00 182.00 399.00 166.00
C 394.98 171.41 398.96 182.84 398.00 190.00 C 397.04 197.16 398.00 207.55 398.00 215.00 Z"/>
</g>
<g fill="#FCFEFF" fill-opacity="1.00" stroke="None">
<path d="
M 97.00 267.00 
C 93.87 273.32 86.66 281.14 90.75 289.25 C 94.84 297.36 104.04 289.32 107.00 283.00
C 110.92 274.63 114.90 266.08 118.69 257.69 C 122.49 249.31 127.24 240.84 130.23 232.23 C 133.22 223.62 140.66 216.24 142.23 207.23 C 143.80 198.22 156.20 192.16 150.92 182.08 C 145.63 172.00 134.01 183.59 132.31 192.31 C 130.60 201.02 123.56 209.25 120.77 217.77 C 117.98 226.29 111.90 234.33 108.78 242.78 C 105.65 251.22 100.88 259.14 97.00 267.00 Z"/>
</g>
<g fill="#FDFEFE" fill-opacity="1.00" stroke="None">
<path d="
M 77.00 202.00 
C 72.18 204.53 66.80 212.76 62.75 216.75 C 58.70 220.74 50.61 226.27 48.00 231.00
C 42.02 243.93 62.71 247.44 66.25 257.75 C 69.79 268.06 94.84 273.97 87.00 257.00
C 84.94 253.27 77.82 250.08 75.75 246.25 C 73.68 242.42 65.04 238.51 66.00 235.00
C 67.76 228.60 77.50 222.82 82.75 217.75 C 88.01 212.69 90.14 196.27 77.00 202.00 Z"/>
</g>
<g fill="#FDFEFF" fill-opacity="1.00" stroke="None">
<path d="
M 154.00 213.00 
C 156.03 216.68 163.52 219.82 165.25 223.75 C 166.98 227.68 176.00 230.78 176.00 235.00
C 176.00 239.65 164.50 245.08 162.25 249.25 C 160.00 253.42 148.28 259.78 154.25 265.75 C 160.22 271.72 166.39 269.27 171.25 261.25 C 176.11 253.23 199.78 241.08 192.75 230.25 C 185.73 219.42 172.90 212.87 165.23 202.77 C 157.56 192.68 152.05 208.78 154.00 213.00 Z"/>
</g>
<g fill="#C5E5FA" fill-opacity="1.00" stroke="None">
<path d="
M 71.00 207.00 
C 64.58 213.42 51.82 222.74 48.00 231.00
C 50.61 226.27 58.70 220.74 62.75 216.75 C 66.80 212.76 72.18 204.53 77.00 202.00
C 75.07 202.84 72.51 205.49 71.00 207.00 Z"/>
</g>
<g fill="#A6DBFF" fill-opacity="1.00" stroke="None">
<path d="
M 176.00 235.00 
C 176.00 230.78 166.98 227.68 165.25 223.75 C 163.52 219.82 156.03 216.68 154.00 213.00
C 158.10 221.87 170.35 227.23 176.00 235.00 Z"/>
</g>
<g fill="#55B3F5" fill-opacity="0.62" stroke="None">
<path d="
M 398.00 228.00 
C 398.50 228.00 399.00 228.00 399.00 228.00
C 399.38 223.75 399.00 219.27 399.00 215.00
C 399.00 215.00 398.00 214.96 398.00 215.00
C 398.00 219.27 397.61 223.75 398.00 228.00 Z"/>
</g>
<g fill="#54A7AA" fill-opacity="1.00" stroke="None">
<path d="
M 250.00 229.00 
C 251.64 228.85 253.36 229.00 255.00 229.00
C 294.33 229.00 333.67 229.00 373.00 229.00
C 372.96 229.00 373.00 228.00 373.00 228.00
C 373.00 228.00 372.50 228.00 372.00 228.00
C 351.93 228.00 329.87 226.84 310.00 228.00 C 290.13 229.16 268.64 224.38 250.00 229.00 Z"/>
</g>
<g fill="#90BEA8" fill-opacity="0.99" stroke="None">
<path d="
M 373.00 229.00 
C 381.68 229.00 391.09 228.77 399.00 228.00
C 399.00 228.00 398.50 228.00 398.00 228.00
C 389.67 228.00 381.33 228.00 373.00 228.00
C 373.00 228.00 372.96 229.00 373.00 229.00 Z"/>
</g>
<g fill="#FDC103" fill-opacity="0.99" stroke="None">
<path d="
M 373.00 229.00 
C 333.67 229.00 294.33 229.00 255.00 229.00
C 252.67 237.45 261.05 243.56 263.00 250.00
C 266.85 241.19 284.29 251.30 276.00 260.00
C 283.69 259.72 291.10 264.74 300.00 263.00 C 308.90 261.26 318.86 263.79 328.00 263.00 C 337.14 262.21 346.75 263.36 356.00 263.00 C 365.25 262.64 374.71 263.16 384.00 263.00 C 393.29 262.84 402.68 263.07 412.00 263.00 C 421.32 262.93 430.68 263.03 440.00 263.00 C 449.33 262.97 458.67 263.02 468.00 263.00 C 477.33 262.98 486.67 263.01 496.00 263.00
C 496.00 253.12 499.61 232.05 486.02 228.98 C 472.44 225.90 457.18 228.10 443.00 228.00 C 428.82 227.90 413.16 226.63 399.00 228.00
C 391.09 228.77 381.68 229.00 373.00 229.00
M 301.00 247.00 
C 310.03 249.42 305.14 265.59 296.00 262.00 C 286.86 258.41 290.99 244.31 301.00 247.00
M 329.00 247.00 
C 338.03 249.42 333.14 265.59 324.00 262.00 C 314.86 258.41 318.99 244.31 329.00 247.00 Z"/>
</g>
<g fill="#E4AF01" fill-opacity="1.00" stroke="None">
<path d="
M 237.00 280.00 
C 263.74 277.58 291.14 280.91 318.00 280.00 C 344.86 279.09 372.10 280.00 399.00 280.00
C 430.89 280.00 464.26 277.13 496.00 280.00
C 496.00 274.33 496.00 268.67 496.00 263.00
C 486.67 263.01 477.33 262.98 468.00 263.00 C 458.67 263.02 449.33 262.97 440.00 263.00 C 430.68 263.03 421.32 262.93 412.00 263.00 C 402.68 263.07 393.29 262.84 384.00 263.00 C 374.71 263.16 365.25 262.64 356.00 263.00 C 346.75 263.36 337.14 262.21 328.00 263.00 C 318.86 263.79 308.90 261.26 300.00 263.00 C 291.10 264.74 283.69 259.72 276.00 260.00
C 272.08 260.15 270.51 263.68 265.93 261.07 C 261.35 258.47 264.24 254.08 263.00 250.00
C 261.05 243.56 252.67 237.45 255.00 229.00
C 253.36 229.00 251.64 228.85 250.00 229.00
C 230.15 233.92 237.00 263.73 237.00 280.00 Z"/>
</g>
<g fill="#9CD1F5" fill-opacity="1.00" stroke="None">
<path d="
M 87.00 257.00 
C 82.93 248.19 70.68 243.60 66.00 235.00
C 65.04 238.51 73.68 242.42 75.75 246.25 C 77.82 250.08 84.94 253.27 87.00 257.00 Z"/>
</g>
<g fill="#FEFDFA" fill-opacity="1.00" stroke="None">
<path d="
M 263.00 250.00 
C 264.24 254.08 261.35 258.47 265.93 261.07 C 270.51 263.68 272.08 260.15 276.00 260.00
C 284.29 251.30 266.85 241.19 263.00 250.00 Z"/>
</g>
<g fill="#FFFEFB" fill-opacity="1.00" stroke="None">
<path d="
M 301.00 247.00 
C 290.99 244.31 286.86 258.41 296.00 262.00 C 305.14 265.59 310.03 249.42 301.00 247.00 Z"/>
</g>
<g fill="#FFFEFC" fill-opacity="1.00" stroke="None">
<path d="
M 329.00 247.00 
C 318.99 244.31 314.86 258.41 324.00 262.00 C 333.14 265.59 338.03 249.42 329.00 247.00 Z"/>
</g>
<g fill="#4F657C" fill-opacity="1.00" stroke="None">
<path d="
M 237.00 281.00 
C 263.74 283.42 291.14 280.09 318.00 281.00 C 344.87 281.91 372.10 281.00 399.00 281.00
C 398.96 281.00 399.00 280.00 399.00 280.00
C 372.10 280.00 344.86 279.09 318.00 280.00 C 291.14 280.91 263.74 277.58 237.00 280.00
C 237.00 280.00 237.00 280.50 237.00 281.00 Z"/>
</g>
<g fill="#625E63" fill-opacity="0.83" stroke="None">
<path d="
M 399.00 281.00 
C 430.89 281.00 464.26 283.86 496.00 281.00
C 496.00 281.00 496.00 280.50 496.00 280.00
C 464.26 277.13 430.89 280.00 399.00 280.00
C 399.00 280.00 398.96 281.00 399.00 281.00 Z"/>
</g>
<g fill="#585662" fill-opacity="1.00" stroke="None">
<path d="
M 237.00 366.00 
C 237.00 369.33 237.00 372.67 237.00 376.00
C 237.00 405.67 237.00 435.33 237.00 465.00
C 237.00 475.57 234.35 490.05 246.00 495.00
C 247.52 495.64 248.30 495.82 250.00 496.00
C 270.32 498.15 292.31 495.09 312.00 497.00
C 333.11 497.00 358.30 497.22 379.00 497.00 C 399.70 496.78 426.81 497.59 446.00 497.00 C 465.19 496.41 494.04 503.87 496.00 481.00 C 497.96 458.13 495.14 436.54 496.00 414.00 C 496.86 391.46 495.67 369.34 496.00 347.00 C 496.33 324.66 496.00 303.26 496.00 281.00
C 464.26 283.86 430.89 281.00 399.00 281.00
C 372.10 281.00 344.87 281.91 318.00 281.00 C 291.14 280.09 263.74 283.42 237.00 281.00
C 236.99 309.33 237.00 337.67 237.00 366.00
M 459.00 312.00 
C 470.11 316.10 464.75 336.55 465.00 348.00 C 465.25 359.45 466.62 378.36 465.00 391.00 C 463.38 403.64 442.41 398.47 431.00 399.00 C 419.59 399.53 400.46 398.90 388.00 399.00 C 375.54 399.10 358.40 399.30 346.00 399.00 C 333.60 398.70 314.19 399.87 303.00 399.00 C 291.81 398.13 270.37 404.05 268.03 391.97 C 265.68 379.90 268.01 360.26 268.00 349.00 C 267.99 337.74 263.00 316.06 274.00 312.00
C 287.17 307.14 304.35 312.22 319.00 311.00 C 333.65 309.78 351.06 310.97 366.00 311.00 C 380.94 311.03 398.26 309.70 413.00 311.00 C 427.74 312.30 445.75 307.11 459.00 312.00
M 345.00 424.00 
C 356.95 427.63 346.87 444.01 336.00 440.00 C 325.13 435.99 312.21 442.80 301.00 440.00 C 289.79 437.20 276.38 443.62 265.33 439.67 C 254.28 435.72 263.18 420.77 274.00 424.00 C 284.82 427.23 297.90 421.55 309.00 424.00 C 320.10 426.45 334.12 420.70 345.00 424.00
M 466.00 426.00 
C 477.84 429.59 470.99 442.87 460.00 441.00 C 449.01 439.13 438.04 441.23 427.00 441.00 C 415.96 440.77 405.11 439.75 394.00 441.00 C 382.89 442.25 376.98 429.65 389.00 426.00
C 399.86 422.71 415.08 424.94 427.00 425.00 C 438.92 425.06 455.11 422.70 466.00 426.00
M 307.00 459.00 
C 317.99 462.66 306.95 479.25 297.00 474.00 C 287.05 468.75 274.28 479.30 264.33 473.67 C 254.38 468.04 263.93 455.50 274.00 459.00 C 284.07 462.50 296.94 455.65 307.00 459.00
M 429.00 459.00 
C 439.99 462.66 428.95 479.25 419.00 474.00 C 409.05 468.75 396.28 479.30 386.33 473.67 C 376.38 468.04 385.92 455.50 396.00 459.00 C 406.08 462.50 418.94 455.65 429.00 459.00 Z"/>
</g>
<g fill="#FA4825" fill-opacity="1.00" stroke="None">
<path d="
M 274.00 312.00 
C 288.26 308.84 301.02 317.46 313.08 322.92 C 325.13 328.39 336.44 331.73 348.23 338.77 C 360.02 345.81 372.21 346.03 384.02 339.03 C 395.84 332.02 407.06 328.72 419.08 323.08 C 431.10 317.44 444.72 308.84 459.00 312.00
C 445.75 307.11 427.74 312.30 413.00 311.00 C 398.26 309.70 380.94 311.03 366.00 311.00 C 351.06 310.97 333.65 309.78 319.00 311.00 C 304.35 312.22 287.17 307.14 274.00 312.00 Z"/>
</g>
<g fill="#E34020" fill-opacity="1.00" stroke="None">
<path d="
M 459.00 312.00 
C 444.72 308.84 431.10 317.44 419.08 323.08 C 407.06 328.72 395.84 332.02 384.02 339.03 C 372.21 346.03 360.02 345.81 348.23 338.77 C 336.44 331.73 325.13 328.39 313.08 322.92 C 301.02 317.46 288.26 308.84 274.00 312.00
C 263.00 316.06 267.99 337.74 268.00 349.00 C 268.01 360.26 265.68 379.90 268.03 391.97 C 270.37 404.05 291.81 398.13 303.00 399.00 C 314.19 399.87 333.60 398.70 346.00 399.00 C 358.40 399.30 375.54 399.10 388.00 399.00 C 400.46 398.90 419.59 399.53 431.00 399.00 C 442.41 398.47 463.38 403.64 465.00 391.00 C 466.62 378.36 465.25 359.45 465.00 348.00 C 464.75 336.55 470.11 316.10 459.00 312.00
M 464.00 320.00 
C 464.00 343.33 464.00 366.67 464.00 390.00
C 437.81 379.13 412.42 366.02 386.00 356.00
C 410.72 342.27 438.33 332.67 464.00 320.00
M 347.00 355.00 
C 333.03 361.43 318.51 368.32 304.00 374.00
C 296.21 358.95 287.85 343.71 284.00 327.00
C 305.03 336.35 325.97 345.65 347.00 355.00
M 442.00 397.00 
C 428.03 398.94 411.68 397.86 397.00 398.00 C 382.32 398.14 365.36 398.11 351.00 398.00 C 336.64 397.89 321.88 401.74 314.00 388.00
C 327.12 379.04 341.04 376.48 355.23 368.23 C 369.42 359.98 384.98 372.51 399.07 377.93 C 413.17 383.34 427.65 391.90 442.00 397.00 Z"/>
</g>
<g fill="#FE4722" fill-opacity="1.00" stroke="None">
<path d="
M 464.00 320.00 
C 438.33 332.67 410.72 342.27 386.00 356.00
C 412.42 366.02 437.81 379.13 464.00 390.00
C 464.00 366.67 464.00 343.33 464.00 320.00 Z"/>
</g>
<g fill="#FE4722" fill-opacity="1.00" stroke="None">
<path d="
M 347.00 355.00 
C 325.97 345.65 305.03 336.35 284.00 327.00
C 287.85 343.71 296.21 358.95 304.00 374.00
C 318.51 368.32 333.03 361.43 347.00 355.00 Z"/>
</g>
<g fill="#FE4722" fill-opacity="1.00" stroke="None">
<path d="
M 442.00 397.00 
C 427.65 391.90 413.17 383.34 399.07 377.93 C 384.98 372.51 369.42 359.98 355.23 368.23 C 341.04 376.48 327.12 379.04 314.00 388.00
C 321.88 401.74 336.64 397.89 351.00 398.00 C 365.36 398.11 382.32 398.14 397.00 398.00 C 411.68 397.86 428.03 398.94 442.00 397.00 Z"/>
</g>
<g fill="#D0D3D6" fill-opacity="0.66" stroke="None">
<path d="
M 15.00 420.00 
C 14.37 403.02 17.61 383.76 16.00 366.00
C 16.00 366.00 15.00 365.96 15.00 366.00
C 15.00 383.47 12.69 402.70 15.00 420.00 Z"/>
</g>
<g fill="#CFD2D7" fill-opacity="1.00" stroke="None">
<path d="
M 15.00 420.00 
C 17.32 437.41 36.83 432.72 51.00 433.00 C 65.17 433.28 84.80 432.89 100.00 433.00 C 115.20 433.11 133.51 432.99 149.00 433.00
C 149.50 433.00 150.00 433.00 150.00 433.00
C 178.67 433.00 207.33 433.00 236.00 433.00
C 236.67 414.16 234.67 394.01 237.00 376.00
C 237.00 372.67 237.00 369.33 237.00 366.00
C 227.67 366.00 218.33 366.00 209.00 366.00
C 144.67 366.00 80.33 366.00 16.00 366.00
C 17.61 383.76 14.37 403.02 15.00 420.00
M 211.00 392.00 
C 219.97 395.65 212.41 411.92 203.33 406.67 C 194.25 401.42 201.57 388.16 211.00 392.00 Z"/>
</g>
<g fill="#AAB1BC" fill-opacity="1.00" stroke="None">
<path d="
M 150.00 433.00 
C 150.91 443.09 150.91 454.91 150.00 465.00
C 178.73 462.22 208.20 467.09 237.00 465.00
C 237.00 435.33 237.00 405.67 237.00 376.00
C 234.67 394.01 236.67 414.16 236.00 433.00
C 207.33 433.00 178.67 433.00 150.00 433.00 Z"/>
</g>
<g fill="#129CFD" fill-opacity="1.00" stroke="None">
<path d="
M 211.00 392.00 
C 201.57 388.16 194.25 401.42 203.33 406.67 C 212.41 411.92 219.97 395.65 211.00 392.00 Z"/>
</g>
<g fill="#E1E1E1" fill-opacity="1.00" stroke="None">
<path d="
M 345.00 424.00 
C 334.12 420.70 320.10 426.45 309.00 424.00 C 297.90 421.55 284.82 427.23 274.00 424.00 C 263.18 420.77 254.28 435.72 265.33 439.67 C 276.38 443.62 289.79 437.20 301.00 440.00 C 312.21 442.80 325.13 435.99 336.00 440.00 C 346.87 444.01 356.95 427.63 345.00 424.00 Z"/>
</g>
<g fill="#9D9CA3" fill-opacity="1.00" stroke="None">
<path d="
M 389.00 426.00 
C 401.00 423.97 414.75 425.94 427.00 426.00 C 439.25 426.06 453.90 423.95 466.00 426.00
C 455.11 422.70 438.92 425.06 427.00 425.00 C 415.08 424.94 399.86 422.71 389.00 426.00 Z"/>
</g>
<g fill="#FEFEFE" fill-opacity="1.00" stroke="None">
<path d="
M 466.00 426.00 
C 453.90 423.95 439.25 426.06 427.00 426.00 C 414.75 425.94 401.00 423.97 389.00 426.00
C 376.98 429.65 382.89 442.25 394.00 441.00 C 405.11 439.75 415.96 440.77 427.00 441.00 C 438.04 441.23 449.01 439.13 460.00 441.00 C 470.99 442.87 477.84 429.59 466.00 426.00 Z"/>
</g>
<g fill="#A7AFBF" fill-opacity="0.13" stroke="None">
<path d="
M 149.00 465.00 
C 149.50 465.00 150.00 465.00 150.00 465.00
C 150.91 454.91 150.91 443.09 150.00 433.00
C 150.00 433.00 149.50 433.00 149.00 433.00
C 148.09 443.09 148.09 454.91 149.00 465.00 Z"/>
</g>
<g fill="#E4E4E4" fill-opacity="1.00" stroke="None">
<path d="
M 307.00 459.00 
C 296.94 455.65 284.07 462.50 274.00 459.00 C 263.93 455.50 254.38 468.04 264.33 473.67 C 274.28 479.30 287.05 468.75 297.00 474.00 C 306.95 479.25 317.99 462.66 307.00 459.00 Z"/>
</g>
<g fill="#E4E4E4" fill-opacity="1.00" stroke="None">
<path d="
M 429.00 459.00 
C 418.94 455.65 406.08 462.50 396.00 459.00 C 385.92 455.50 376.38 468.04 386.33 473.67 C 396.28 479.30 409.05 468.75 419.00 474.00 C 428.95 479.25 439.99 462.66 429.00 459.00 Z"/>
</g>
<g fill="#E5E8ED" fill-opacity="0.99" stroke="None">
<path d="
M 102.00 479.00 
C 101.87 483.76 103.50 490.43 103.00 496.00
C 126.72 496.00 151.37 494.96 175.00 496.00 C 198.63 497.04 223.36 493.67 246.00 495.00
C 234.35 490.05 237.00 475.57 237.00 465.00
C 208.20 467.09 178.73 462.22 150.00 465.00
C 139.39 466.03 126.38 464.71 116.00 465.00
C 108.64 465.91 102.91 471.67 102.00 479.00 Z"/>
</g>
<g fill="#E5E8EE" fill-opacity="0.67" stroke="None">
<path d="
M 150.00 465.00 
C 150.00 465.00 149.50 465.00 149.00 465.00
C 138.28 465.00 126.63 463.68 116.00 465.00
C 126.38 464.71 139.39 466.03 150.00 465.00 Z"/>
</g>
<g fill="#E6E9EE" fill-opacity="0.67" stroke="None">
<path d="
M 102.00 496.00 
C 102.00 496.04 103.00 496.00 103.00 496.00
C 103.50 490.43 101.87 483.76 102.00 479.00
C 101.35 484.23 101.53 490.75 102.00 496.00 Z"/>
</g>
<g fill="#E4E9ED" fill-opacity="0.47" stroke="None">
<path d="
M 103.00 496.00 
C 103.00 496.00 102.00 496.04 102.00 496.00
C 106.49 500.67 119.10 495.56 126.00 497.00 C 132.90 498.44 143.32 496.35 151.00 497.00 C 158.68 497.65 167.99 496.71 176.00 497.00 C 184.01 497.29 192.86 496.87 201.00 497.00 C 209.14 497.13 217.86 496.95 226.00 497.00 C 234.14 497.05 241.90 497.00 250.00 497.00
C 249.96 497.00 250.00 496.00 250.00 496.00
C 248.30 495.82 247.52 495.64 246.00 495.00
C 223.36 493.67 198.63 497.04 175.00 496.00 C 151.37 494.96 126.72 496.00 103.00 496.00 Z"/>
</g>
<g fill="#84848F" fill-opacity="0.72" stroke="None">
<path d="
M 250.00 497.00 
C 270.67 497.00 291.33 497.00 312.00 497.00
C 292.31 495.09 270.32 498.15 250.00 496.00
C 250.00 496.00 249.96 497.00 250.00 497.00 Z"/>
</g>
</svg>