<?xml version="1.0" encoding="UTF-8"?>
<svg version="1.1" xmlns="http://www.w3.org/2000/svg" width="512" height="512">
<path d="M0 0 C1.9787625 -0.01275828 1.9787625 -0.01275828 3.9975 -0.0257743 C7.65334305 -0.04857584 11.30854923 -0.04020862 14.96441376 -0.02663505 C18.90931819 -0.0173811 22.85409609 -0.03687026 26.79896545 -0.0526123 C34.52493369 -0.07870645 42.25066928 -0.07760947 49.97666483 -0.06657412 C56.25604196 -0.05801702 62.53535175 -0.05884543 68.81472969 -0.06637001 C70.15514121 -0.06795234 70.15514121 -0.06795234 71.52263175 -0.06956664 C73.33797345 -0.07173756 75.15331513 -0.07392434 76.96865679 -0.07612679 C93.99354582 -0.09555944 111.01830432 -0.08355619 128.04318268 -0.06134085 C142.65030581 -0.04309138 157.25717616 -0.05399109 171.86427307 -0.08564758 C188.82655661 -0.12240615 205.78868226 -0.13943327 222.75100571 -0.12623531 C224.55998708 -0.1248942 226.36896848 -0.12358522 228.17794991 -0.12230873 C229.06800261 -0.12167807 229.95805532 -0.1210474 230.87507932 -0.12039762 C237.14618287 -0.11736988 243.41716738 -0.12863289 249.68824577 -0.14555931 C257.33184224 -0.16587944 264.97508199 -0.16502227 272.61865979 -0.13692691 C276.51842209 -0.12314909 280.4175616 -0.11898047 284.3173008 -0.14087677 C287.88854458 -0.16066373 291.45861692 -0.1526721 295.02977968 -0.12268243 C296.93111031 -0.11384338 298.83250771 -0.13444877 300.73373502 -0.156151 C306.04011498 -0.08590652 310.00626039 -0.02654889 314.25473118 3.37634563 C318.76943121 8.10262317 319.31338785 12.2466901 319.33740234 18.6809082 C319.34263902 19.37782325 319.3478757 20.07473831 319.35327107 20.792772 C319.36824065 23.12176877 319.36897554 25.45054526 319.36964417 27.77958679 C319.37726771 29.45205556 319.38569554 31.12452082 319.39486694 32.79698181 C319.41679967 37.33634109 319.4256092 41.87563302 319.43069339 46.4150393 C319.43433842 49.25258382 319.44057925 52.09011074 319.44769478 54.92764854 C319.47218505 64.83126474 319.48524025 74.73482859 319.48878479 84.63847351 C319.49241969 93.8629201 319.5223129 103.08703389 319.56418937 112.31137878 C319.59890486 120.236816 319.61433345 128.16214299 319.61503083 136.08765572 C319.61582321 140.81861987 319.62454422 145.54924495 319.65302849 150.28013039 C319.67923075 154.73148147 319.68140246 159.18221286 319.66537285 163.63360596 C319.66356006 165.26378418 319.67023375 166.89399822 319.68619156 168.52409935 C319.82248493 183.35525277 319.82248493 183.35525277 315.50022984 189.23088741 C310.81360896 193.83198625 305.62248652 195.09731625 299.21070862 195.09483337 C298.39892151 195.07418823 297.5871344 195.05354309 296.75074768 195.03227234 C295.89642151 195.02661255 295.04209534 195.02095276 294.16188049 195.01512146 C291.46174015 194.99292124 288.76297961 194.94275853 286.06324768 194.89164734 C284.22081907 194.87156108 282.37836944 194.85331405 280.53590393 194.83695984 C276.04449553 194.79311052 271.55410466 194.72419986 267.06324768 194.64164734 C267.07324043 195.5048912 267.07324043 195.5048912 267.08343506 196.38557434 C267.14992493 202.38786723 267.19510489 208.39005509 267.2280426 214.3926239 C267.24310732 216.63127392 267.26356302 218.86989453 267.28956604 221.10844421 C267.32605051 224.33052336 267.34299751 227.55221145 267.35621643 230.77445984 C267.37170029 231.77155975 267.38718414 232.76865967 267.40313721 233.79597473 C267.4048076 240.72931277 266.31122295 244.96837946 261.75074768 250.39164734 C257.01332362 254.35786283 252.3674368 254.89185496 246.32350159 254.86869812 C245.67888977 254.86899017 245.03427795 254.86928223 244.37013245 254.86958313 C242.25988345 254.86820049 240.14999676 254.85269044 238.03981018 254.83695984 C236.56865125 254.8332259 235.09748983 254.83038073 233.62632751 254.8283844 C229.7695367 254.82077789 225.91289847 254.80115534 222.0561676 254.77897644 C218.1145382 254.75845347 214.17288395 254.74936893 210.23121643 254.73930359 C202.50849091 254.71790637 194.78589074 254.68380683 187.06324768 254.64164734 C187.07552147 255.78603271 187.07552147 255.78603271 187.08804321 256.95353699 C187.12084588 260.46413603 187.14095162 263.97470266 187.16090393 267.48539734 C187.17399597 268.68519226 187.18708801 269.88498718 187.20057678 271.12113953 C187.34401288 304.85730979 171.68806913 336.41187436 148.48512268 360.31742859 C123.17885252 385.45663669 89.1053715 398.39518095 53.75074768 398.95414734 C24.67691918 398.24502957 -0.55894765 389.28023902 -24.93675232 373.64164734 C-26.64184948 375.18492508 -28.32541972 376.75201484 -29.99925232 378.32914734 C-30.93897888 379.19926453 -31.87870544 380.06938171 -32.84690857 380.96586609 C-35.22723505 383.39815071 -35.22723505 383.39815071 -34.76487732 386.07914734 C-34.49159607 386.92477234 -34.21831482 387.77039734 -33.93675232 388.64164734 C-33.77270475 390.74199408 -33.67217779 392.84794906 -33.62425232 394.95414734 C-33.58686951 396.02278015 -33.54948669 397.09141296 -33.51097107 398.19242859 C-34.71686208 407.96125212 -41.42487169 413.59437508 -48.24925232 420.14164734 C-50.10185707 421.94132053 -51.95216125 423.74336531 -53.80003357 425.54789734 C-54.61770203 426.33487 -55.43537048 427.12184265 -56.27781677 427.93266296 C-58.3164429 430.00966191 -60.21084817 432.09488857 -62.10154724 434.29985046 C-66.17979297 439.00497609 -70.56123727 443.38020349 -74.98191833 447.76197815 C-76.47389475 449.24096643 -77.96252785 450.72325236 -79.45042419 452.2063446 C-83.14343386 455.88612121 -86.84192344 459.56037361 -90.54026794 463.23478699 C-93.67745535 466.35210363 -96.81248834 469.47155822 -99.94480896 472.59376526 C-101.3977314 474.04029802 -102.85367513 475.48373901 -104.30979919 476.92704773 C-109.40299911 482.0015092 -114.25812335 487.18514136 -118.93675232 492.64164734 C-121.36345697 495.27842493 -123.86011258 497.83834654 -126.37425232 500.39164734 C-127.29947693 501.36037781 -127.29947693 501.36037781 -128.24339294 502.34867859 C-134.39698472 508.58551354 -140.57430817 512.20288728 -149.42503357 512.73149109 C-161.97957198 512.2824174 -169.93625913 501.83704198 -178.24925232 493.57914734 C-179.04653748 492.80248718 -179.84382263 492.02582703 -180.66526794 491.22563171 C-186.67151776 485.25979401 -190.51346115 480.03860972 -191.18675232 471.45414734 C-189.91717713 452.09312575 -167.68612094 437.30145234 -154.68675232 424.39164734 C-151.21144153 420.94015732 -147.73791071 417.48691069 -144.26857758 414.02941132 C-142.89986972 412.66707282 -141.52806846 411.3078444 -140.15617371 409.94871521 C-135.8218709 405.63135821 -131.65554968 401.25267212 -127.66966248 396.61277771 C-122.11175076 390.29082931 -116.0234259 384.42083271 -110.09495544 378.44975281 C-108.40433723 376.74251518 -106.71911078 375.02992159 -105.03929138 373.3120575 C-102.59278867 370.81062549 -100.13008943 368.32619671 -97.66331482 365.84477234 C-96.92239594 365.08118408 -96.18147705 364.31759583 -95.41810608 363.53086853 C-89.59494213 357.7308354 -83.73672918 353.60088501 -75.31175232 353.26664734 C-71.27591122 353.45106187 -67.75181269 354.34290338 -63.93675232 355.64164734 C-58.98675232 350.69164734 -58.98675232 350.69164734 -53.93675232 345.64164734 C-55.24486945 343.02541308 -56.48995929 340.67759849 -58.03831482 338.23539734 C-71.59314 316.39196147 -79.08409678 293.33669923 -79.23191833 267.54032898 C-79.24328182 266.1727094 -79.26347589 264.80512838 -79.29344177 263.43778992 C-79.44931052 256.28611397 -79.29573199 249.5668312 -77.50028992 242.61456585 C-73.61303216 227.01802945 -74.39770174 210.8920135 -74.46097374 194.93949294 C-74.47289038 190.58662161 -74.45877697 186.23384073 -74.44664001 181.88098145 C-74.42010604 170.86367286 -74.42659517 159.84647406 -74.43675232 148.82914734 C-74.44773219 136.88405475 -74.45292003 124.93913079 -74.41945791 112.99406701 C-74.40612636 107.82923391 -74.41197933 102.66489518 -74.43282318 97.50009191 C-74.441819 94.29297972 -74.43432847 91.0860577 -74.42241096 87.87896156 C-74.42028443 86.39671303 -74.42497652 84.91443606 -74.43711662 83.43223572 C-74.54520409 69.44567507 -74.54520409 69.44567507 -69.93675232 63.64164734 C-63.6805922 58.58347533 -58.14562772 58.49267023 -50.35472107 58.54399109 C-49.13345268 58.54611351 -49.13345268 58.54611351 -47.88751221 58.54827881 C-45.29972076 58.55385417 -42.7120174 58.5664021 -40.12425232 58.57914734 C-38.36448795 58.58416552 -36.60472221 58.58872787 -34.84495544 58.59281921 C-30.54218738 58.60381553 -26.23948476 58.62106313 -21.93675232 58.64164734 C-21.94674507 57.77840347 -21.94674507 57.77840347 -21.9569397 56.89772034 C-22.02342957 50.89542744 -22.06860953 44.89323959 -22.10154724 38.89067078 C-22.11661196 36.65202076 -22.13706765 34.41340015 -22.16307068 32.17485046 C-22.19955515 28.95277132 -22.21650215 25.73108322 -22.22972107 22.50883484 C-22.24520493 21.51173492 -22.26068878 20.51463501 -22.27664185 19.48731995 C-22.27832166 12.51488343 -21.34926604 8.38556968 -16.62925625 3.017169 C-11.822126 -0.85233575 -5.87668815 -0.04984727 0 0 Z " fill="#010100" transform="translate(191.93675231933594,-0.6416473388671875)"/>
<path d="M0 0 C65.01 0 130.02 0 197 0 C198.65 4.29 200.3 8.58 202 13 C208.3849667 23.28689079 213.92243883 28.56704961 225.23046875 32.921875 C228 34 228 34 232 36 C232 52.83 232 69.66 232 87 C227.71 88.65 223.42 90.3 219 92 C207.10489857 100.13082883 202.26293027 108.82614157 197 122 C182.23064564 122.18755823 167.4614506 122.32828349 152.69114399 122.41449738 C145.8316936 122.45560699 138.9729866 122.51156914 132.11401367 122.60351562 C125.48747216 122.69230334 118.86149647 122.73835294 112.23433495 122.75901794 C109.71344074 122.77373342 107.19258591 122.80246943 104.67202187 122.84584045 C80.07507523 123.25202056 80.07507523 123.25202056 69 114 C66.37484737 112.47890237 63.68666283 111.15607368 60.9375 109.875 C60.24052002 109.54935059 59.54354004 109.22370117 58.82543945 108.88818359 C53.24090449 106.37431228 47.54523485 104.4010124 41.6875 102.625 C40.90044678 102.3863623 40.11339355 102.14772461 39.30249023 101.90185547 C30.08736191 99.25748936 21.06545537 97.87529034 11.48828125 97.796875 C10.74265427 97.79025848 9.99702728 97.78364197 9.22880554 97.77682495 C6.14335328 97.75643092 3.05883315 97.74361243 -0.02661133 97.77001953 C-9.69894965 97.83293895 -16.26289812 97.32710474 -24 91 C-26.89670884 89.76576784 -26.89670884 89.76576784 -29.5 89.1875 C-33.94409938 88.05590062 -33.94409938 88.05590062 -35 87 C-35.09333705 85.40389018 -35.11745372 83.80366572 -35.11352539 82.20483398 C-35.11344986 81.18385117 -35.11337433 80.16286835 -35.11329651 79.11094666 C-35.10813522 78.0005452 -35.10297394 76.89014374 -35.09765625 75.74609375 C-35.0962413 74.61551041 -35.09482635 73.48492706 -35.09336853 72.32008362 C-35.08775019 68.69252935 -35.07519458 65.06503576 -35.0625 61.4375 C-35.05748736 58.98502693 -35.05292405 56.5325529 -35.04882812 54.08007812 C-35.0377748 48.05336455 -35.02101884 42.02668661 -35 36 C-33.78546143 35.50862549 -33.78546143 35.50862549 -32.54638672 35.00732422 C-31.47662598 34.5692041 -30.40686523 34.13108398 -29.3046875 33.6796875 C-27.71889893 33.03362549 -27.71889893 33.03362549 -26.10107422 32.37451172 C-13.54845736 26.8107239 -7.40528956 18.35727342 -2 6 C-1.34 4.02 -0.68 2.04 0 0 Z " fill="#5AB981" transform="translate(242,35)"/>
<path d="M0 0 C17.63120558 14.10638385 30.40770847 34.61488144 33.296875 57.2734375 C35.02300924 86.12411103 27.65793094 109.13124153 8.6875 131.140625 C-5.54918291 146.43448734 -26.85124931 155.57766047 -47.51953125 156.65234375 C-73.69360919 157.43742032 -95.8915384 149.72643834 -115.2265625 131.73828125 C-131.22745584 115.81310192 -140.75872067 94.95306667 -141.08325195 72.26635742 C-141.06547198 61.23684539 -140.58345587 51.70975222 -136.703125 41.2734375 C-136.32929688 40.22285156 -135.95546875 39.17226562 -135.5703125 38.08984375 C-131.08747408 26.43743262 -124.27814885 17.23755493 -115.703125 8.2734375 C-115.07792969 7.57347656 -114.45273438 6.87351563 -113.80859375 6.15234375 C-84.95345521 -25.01120587 -32.52456544 -24.69457747 0 0 Z " fill="#6AC6DA" transform="translate(299.703125,194.7265625)"/>
<path d="M0 0 C22.98533706 19.45570016 38.34205032 46.81701296 41.17456055 76.97607422 C43.61852107 108.75043962 35.99003401 139.52911046 15.35058594 164.26074219 C-2.12563954 184.55889134 -24.08510144 199.24623627 -50.61816406 204.67089844 C-51.80043579 204.9314502 -51.80043579 204.9314502 -53.0065918 205.19726562 C-70.98889104 208.88678556 -91.10619196 208.31354958 -108.61816406 202.67089844 C-109.29588867 202.4565918 -109.97361328 202.24228516 -110.671875 202.02148438 C-137.58485956 193.27126175 -160.83552299 175.99349974 -175.61816406 151.67089844 C-176.30394531 150.54554688 -176.98972656 149.42019531 -177.69628906 148.26074219 C-181.82762531 141.16098607 -184.84948545 133.81666909 -187.49316406 126.04589844 C-187.77949707 125.211875 -188.06583008 124.37785156 -188.36083984 123.51855469 C-197.5337516 95.14485771 -193.92700747 63.03390112 -180.61816406 36.61230469 C-165.60142183 8.09894086 -141.41308172 -12.0038843 -111.00488281 -22.30175781 C-72.28469212 -34.04732892 -31.20122341 -25.62755888 0 0 Z M-143.18115234 33.99560547 C-150.13209157 42.09912993 -155.14698814 51.61469761 -158.61816406 61.67089844 C-159.20597656 63.25644531 -159.20597656 63.25644531 -159.80566406 64.87402344 C-166.66738555 86.12629972 -163.5159556 109.71427342 -153.96386719 129.55932617 C-143.18505783 150.5892937 -124.88035504 164.97412029 -102.91113281 173.03027344 C-79.71606338 180.34666105 -55.17406752 177.98141257 -33.63769531 166.94433594 C-13.94748055 156.21276916 0.77407323 138.01777764 7.74121094 116.74121094 C14.60076002 93.22985793 12.75308311 69.48256061 1.38183594 47.67089844 C-1.33049697 43.12097275 -4.40965839 38.88063992 -7.61816406 34.67089844 C-8.43027344 33.58035156 -8.43027344 33.58035156 -9.25878906 32.46777344 C-22.35809172 16.19288226 -43.46775344 5.85535025 -63.93066406 2.92089844 C-65.49107779 2.80488255 -67.05447069 2.72758823 -68.61816406 2.67089844 C-69.88402344 2.61933594 -71.14988281 2.56777344 -72.45410156 2.51464844 C-100.33590567 1.74679165 -124.52398093 13.63402688 -143.18115234 33.99560547 Z " fill="#FBBF15" transform="translate(321.6181640625,174.3291015625)"/>
<path d="M0 0 C12.55117831 9.67699249 21.61158915 23.06101329 24 39 C25.03063708 55.80731237 21.98139586 71.35054472 10.625 84.3125 C9.10224353 85.89343488 7.56148023 87.45730046 6 89 C5.37351562 89.64839844 4.74703125 90.29679687 4.1015625 90.96484375 C-5.71588215 100.43018596 -20.06723968 104.99120685 -33.5 105.375 C-49.61575147 104.87795428 -64.99518529 98.27500233 -76.10742188 86.5625 C-87.55216066 73.82484093 -91.99156234 57.93552271 -91.17480469 41.00195312 C-89.88906709 26.27702536 -81.71586548 12.84562799 -71 3 C-49.60403747 -13.10880994 -22.62793283 -15.24925908 0 0 Z " fill="#010302" transform="translate(374,49)"/>
<path d="M0 0 C1.03087738 0.00131424 1.03087738 0.00131424 2.08258057 0.00265503 C12.85031467 0.0479292 22.71814631 0.8024666 32.9375 4.375 C33.62908203 4.61105957 34.32066406 4.84711914 35.03320312 5.09033203 C60.7519273 14.06642141 82.1280355 32.88944698 94.15234375 57.390625 C106.40224826 83.8933962 107.05224174 112.37022511 97.37109375 139.71875 C87.27549279 165.46665872 68.5153664 184.8813912 43.609375 196.80859375 C17.92700358 207.76458411 -11.03880097 208.99628213 -37.19140625 198.91503906 C-48.27747297 194.38330863 -57.94536458 188.13842838 -67.0625 180.375 C-67.91199219 179.70855469 -68.76148438 179.04210937 -69.63671875 178.35546875 C-83.91474147 166.69853233 -93.14221888 148.41050542 -98.4375 131.125 C-98.68846436 130.3095874 -98.93942871 129.4941748 -99.19799805 128.65405273 C-106.59019092 103.11762069 -101.64764313 76.04120044 -89.875 52.75 C-75.71655643 27.50967044 -52.68022088 10.38103594 -25.0625 2.375 C-16.76729893 0.16358681 -8.54610538 -0.02658377 0 0 Z M-66.62548828 46.69970703 C-73.57642751 54.80323149 -78.59132408 64.31879917 -82.0625 74.375 C-82.6503125 75.96054688 -82.6503125 75.96054688 -83.25 77.578125 C-90.11172149 98.83040129 -86.96029154 122.41837498 -77.40820312 142.26342773 C-66.62939377 163.29339526 -48.32469098 177.67822185 -26.35546875 185.734375 C-3.16039932 193.05076261 21.38159654 190.68551413 42.91796875 179.6484375 C62.60818351 168.91687073 77.32973729 150.7218792 84.296875 129.4453125 C91.15642408 105.93395949 89.30874717 82.18666217 77.9375 60.375 C75.22516709 55.82507431 72.14600567 51.58474149 68.9375 47.375 C68.12539063 46.28445312 68.12539063 46.28445312 67.296875 45.171875 C54.19757235 28.89698383 33.08791062 18.55945181 12.625 15.625 C11.06458627 15.50898411 9.50119337 15.43168979 7.9375 15.375 C6.67164063 15.3234375 5.40578125 15.271875 4.1015625 15.21875 C-23.78024161 14.45089321 -47.96831687 26.33812844 -66.62548828 46.69970703 Z " fill="#020201" transform="translate(245.0625,161.625)"/>
<path d="M0 0 C101.97 0 203.94 0 309 0 C309 53.79 309 107.58 309 163 C284.6625 163.103125 260.325 163.20625 235.25 163.3125 C223.71466309 163.38078003 223.71466309 163.38078003 211.94628906 163.45043945 C202.56982422 163.47302246 202.56982422 163.47302246 198.18304443 163.47721863 C195.11303719 163.48188511 192.04346037 163.50065357 188.97357178 163.52787781 C185.05965299 163.56212822 181.1463617 163.57246479 177.23230696 163.56536138 C175.79467876 163.56684708 174.35702904 163.5767902 172.91952944 163.59607565 C170.97973442 163.62089436 169.03959466 163.61197698 167.09967041 163.60127258 C166.01195469 163.60588155 164.92423897 163.61049051 163.80356216 163.61523914 C160.08149544 162.79843502 159.04554917 161.11162196 157 158 C158.30434494 157.99857498 159.60868988 157.99714996 160.95256042 157.99568176 C173.2391557 157.9790191 185.52541947 157.93626753 197.8118391 157.86790943 C204.12859543 157.83360502 210.445109 157.80852401 216.76196289 157.80444336 C222.85704921 157.80016793 228.95158761 157.77176701 235.04650307 157.72656822 C237.37289553 157.71356919 239.69935349 157.709294 242.02577782 157.71384621 C245.28235565 157.71873482 248.53732136 157.6927348 251.79370117 157.65942383 C252.75755234 157.66804947 253.7214035 157.67667511 254.71446228 157.68556213 C259.30573224 157.60673001 261.35005392 157.49769126 265.09321594 154.63139343 C267.25134294 151.65314259 267.6609715 149.94618156 267.9375 146.3125 C268.93874218 138.91241007 271.4326403 133.02723129 277.21875 128.1171875 C283.78612703 123.58569735 289.71092841 121.75801452 297.57421875 120.7578125 C300.07202222 120.24883329 300.07202222 120.24883329 301.13345337 118.37866211 C302.2804878 115.23006371 302.26962528 112.53565496 302.29052734 109.18359375 C302.29724457 108.50668488 302.30396179 107.829776 302.31088257 107.13235474 C302.32983994 104.90066133 302.33378516 102.66926885 302.3359375 100.4375 C302.3423656 98.88338091 302.34909397 97.32926303 302.35610962 95.77514648 C302.36807568 92.5203165 302.371791 89.26559261 302.37060547 86.01074219 C302.37040199 81.84084024 302.39773628 77.67161762 302.43214989 73.50187683 C302.45438677 70.29338455 302.45844406 67.08505682 302.45738602 63.87649536 C302.45974559 62.33909762 302.46858924 60.80169558 302.48405075 59.26437378 C302.50365294 57.11456624 302.49789796 54.96623771 302.48583984 52.81640625 C302.48868988 51.59381104 302.49153992 50.37121582 302.49447632 49.11157227 C301.9055297 45.40553033 300.95075907 44.24331021 298 42 C295.47374073 41.24092925 295.47374073 41.24092925 292.75 41 C283.73390813 39.57514617 278.5681109 36.40673308 272.6953125 29.359375 C268.78630274 23.91918631 267.68260867 18.70202791 267.50390625 12.078125 C266.74875232 8.96384676 265.55812317 7.93695915 263 6 C259.98067563 5.60728015 257.32672812 5.45960817 254.30773926 5.49206543 C253.42101296 5.48582547 252.53428666 5.4795855 251.62068987 5.47315645 C248.64334211 5.45717558 245.66680726 5.46985067 242.68945312 5.48242188 C240.55744447 5.47700303 238.42543956 5.46988171 236.29344177 5.46118164 C230.49804729 5.44291725 224.70293704 5.45002878 218.90753746 5.46269798 C212.84887285 5.47280947 206.79023293 5.46343746 200.73156738 5.45715332 C190.55618917 5.44987152 180.38092701 5.45947864 170.20556641 5.47851562 C158.43346434 5.5002853 146.66163936 5.49323431 134.88954401 5.47121 C124.79094648 5.45307122 114.69243247 5.45049025 104.59382391 5.46096468 C98.5585612 5.46720796 92.52342883 5.46801227 86.48817444 5.45481873 C80.81477418 5.44328306 75.14173193 5.4512444 69.46837044 5.47439575 C67.38340411 5.47969503 65.29840777 5.47814834 63.21345329 5.46934509 C60.37264591 5.45845427 57.532994 5.47207497 54.69226074 5.49206543 C53.86230481 5.48314254 53.03234887 5.47421966 52.17724276 5.46502638 C48.56630649 5.51449568 46.43874446 5.67346426 43.49970245 7.86084747 C41.62119414 10.54032285 41.33602121 12.50739528 41 15.75 C39.83938793 23.91396351 37.17267795 29.76875135 31.11328125 35.46484375 C25.24754107 39.72590824 17.82955093 41.27517173 10.77734375 42.41015625 C8.60278983 42.92958535 8.60278983 42.92958535 7 46 C6.68049599 49.14759389 6.68049599 49.14759389 6.70947266 52.79467773 C6.70275543 53.48119415 6.69603821 54.16771057 6.68911743 54.87503052 C6.67011825 57.14462519 6.66621245 59.4139245 6.6640625 61.68359375 C6.65763632 63.26156232 6.65090809 64.83952968 6.64389038 66.41749573 C6.63191314 69.72538008 6.62821005 73.03315995 6.62939453 76.34106445 C6.62959785 80.57937228 6.60228542 84.81701051 6.56785011 89.05515957 C6.54561159 92.31426571 6.54155603 95.57320986 6.54261398 98.83238411 C6.54025381 100.39490125 6.53140684 101.95742257 6.51594925 103.51986504 C6.49634784 105.70569637 6.50210234 107.89007288 6.51416016 110.07592773 C6.51131012 111.31930405 6.50846008 112.56268036 6.50552368 113.84373474 C7.09000057 117.57447784 8.03687409 118.73854489 11 121 C13.10938065 121.68116938 13.10938065 121.68116938 15.25 121.75 C16.4875 121.8325 17.725 121.915 19 122 C16.39645656 124.60354344 13.39907127 125.71480102 10.0625 127.125 C9.11213867 127.54072266 9.11213867 127.54072266 8.14257812 127.96484375 C5.25925296 129.19579014 3.16789795 130 0 130 C0 87.1 0 44.2 0 0 Z " fill="#44AE74" transform="translate(186,15)"/>
<path d="M0 0 C3.67119051 1.56930968 6.06556588 4.56742257 8.74609375 7.44921875 C10.84155841 9.67429979 12.9985616 11.64414515 15.33203125 13.61328125 C18.99631009 16.78120359 22.00079339 19.76920898 24.14453125 24.17578125 C23.74415703 32.78382698 12.16885838 40.94718593 6.3046875 46.73828125 C5.16366463 47.87301769 4.02316605 49.00828154 2.88316345 50.14404297 C-0.10352258 53.11750748 -3.09573801 56.08533758 -6.08966064 59.05151367 C-10.87757402 63.79611125 -15.65870654 68.54751593 -20.43649483 73.30230713 C-22.09292498 74.94863695 -23.75279022 76.59144116 -25.41307068 78.23388672 C-30.24429024 83.02663418 -34.96493953 87.85547612 -39.3891449 93.03250122 C-44.12742833 98.48378298 -49.34053343 103.52974128 -54.42358398 108.65649414 C-55.84366762 110.09326347 -57.2583466 111.53539366 -58.66772461 112.98266602 C-60.71960111 115.08920852 -62.78735951 117.17891113 -64.859375 119.265625 C-65.48453506 119.91345444 -66.10969513 120.56128387 -66.75379944 121.22874451 C-70.31036401 124.76834723 -72.70246791 126.8106798 -77.98046875 126.86328125 C-79.82421875 125.88671875 -79.82421875 125.88671875 -81.48046875 124.23828125 C-82.47433594 123.28308594 -82.47433594 123.28308594 -83.48828125 122.30859375 C-84.31070313 121.50164062 -85.133125 120.6946875 -85.98046875 119.86328125 C-87.16166104 118.77331649 -88.34687919 117.68770533 -89.53515625 116.60546875 C-94.89508905 111.70868912 -94.89508905 111.70868912 -97.00390625 109.75390625 C-97.52903809 109.26954102 -98.05416992 108.78517578 -98.59521484 108.28613281 C-101.04465643 105.77021008 -101.96141164 104.26369917 -102.12939453 100.73413086 C-101.10780123 95.14935382 -96.5234658 91.69339555 -92.59765625 87.9296875 C-91.75002716 87.09291977 -90.90239807 86.25615204 -90.02908325 85.39402771 C-87.31835584 82.72343352 -84.58787016 80.07417912 -81.85546875 77.42578125 C-79.14884742 74.77681433 -76.44647511 72.12360435 -73.74612427 69.46824646 C-72.06667372 67.81958561 -70.38288758 66.1753255 -68.69406128 64.53627014 C-64.53235318 60.478687 -60.60023918 56.33838346 -56.81552124 51.92936707 C-53.15710403 47.8103547 -49.19790599 43.98076329 -45.28515625 40.10546875 C-43.89389465 38.71999337 -42.50263591 37.33451511 -41.11154366 35.94886971 C-38.69500501 33.54317274 -36.27513893 31.1408278 -33.85546875 28.73828125 C-30.95637443 25.85964886 -28.05791247 22.98039931 -25.1633606 20.09719849 C-23.36825185 18.30957127 -21.57089188 16.52420098 -19.77096558 14.74142456 C-14.7400704 9.73736346 -14.7400704 9.73736346 -10.07861328 4.39501953 C-7.03713438 0.72500135 -4.83536108 -0.84491572 0 0 Z " fill="#FDC015" transform="translate(118.98046875,369.13671875)"/>
<path d="M0 0 C12.55117831 9.67699249 21.61158915 23.06101329 24 39 C25.03063708 55.80731237 21.98139586 71.35054472 10.625 84.3125 C9.10224353 85.89343488 7.56148023 87.45730046 6 89 C5.37351562 89.64839844 4.74703125 90.29679687 4.1015625 90.96484375 C-5.71588215 100.43018596 -20.06723968 104.99120685 -33.5 105.375 C-49.61575147 104.87795428 -64.99518529 98.27500233 -76.10742188 86.5625 C-87.55216066 73.82484093 -91.99156234 57.93552271 -91.17480469 41.00195312 C-89.88906709 26.27702536 -81.71586548 12.84562799 -71 3 C-49.60403747 -13.10880994 -22.62793283 -15.24925908 0 0 Z M-64.9375 19.03125 C-73.62757829 29.36944658 -76.17880532 39.91027207 -75.19628906 53.09082031 C-74.06142242 64.12895112 -68.0601642 72.66244746 -60.2109375 80.2109375 C-50.24545542 88.27487883 -38.4609844 90.21274787 -26 89 C-18.12190259 87.42079141 -11.95729414 84.33701189 -6 79 C-5.39542969 78.49855469 -4.79085937 77.99710937 -4.16796875 77.48046875 C3.03547338 71.03032776 7.59990068 61.71570458 8.2734375 52.09375 C8.69010246 38.74590262 6.25683794 28.14604159 -3 18 C-10.52973267 10.19207524 -19.77983575 5.95268661 -30.54931641 5.70727539 C-44.81584601 5.5950169 -54.83797281 8.44303601 -64.9375 19.03125 Z " fill="#010201" transform="translate(374,49)"/>
<path d="M0 0 C9.60601985 7.04970713 14.79060069 15.14133332 18.55078125 26.421875 C19.44006 40.7669617 18.40478787 52.2381711 8.55078125 63.421875 C8.02613281 64.03933594 7.50148438 64.65679687 6.9609375 65.29296875 C0.14820116 72.7469038 -9.17500849 76.79708467 -19.17578125 77.79296875 C-31.06057111 77.99541507 -40.57841802 76.12755357 -49.88671875 68.109375 C-59.7671507 58.43745866 -64.62265788 49.35926152 -64.82421875 35.359375 C-64.87643859 23.47872519 -60.66557509 14.03579696 -52.44921875 5.421875 C-38.62492005 -7.77404649 -16.30469988 -10.50573964 0 0 Z M-44.44921875 4.421875 C-45.5411652 8.24368759 -46.04884005 10.30829259 -44.13671875 13.859375 C-42.58793122 15.64834434 -42.58793122 15.64834434 -40.44921875 15.421875 C-40.49340862 21.02751247 -40.56328092 26.63202756 -40.65673828 32.23706055 C-40.68492485 34.14289405 -40.70615091 36.04884395 -40.72021484 37.95483398 C-40.74167658 40.69835906 -40.7883424 43.44048813 -40.83984375 46.18359375 C-40.84107239 47.03273849 -40.84230103 47.88188324 -40.84356689 48.75675964 C-40.97379405 54.04316427 -41.77884876 56.40118472 -45.44921875 60.421875 C-45.62085545 64.05427313 -45.62085545 64.05427313 -44.44921875 67.421875 C-39.81841773 71.99033066 -33.92568793 70.93541877 -27.82421875 70.921875 C-26.68597656 70.95023437 -25.54773438 70.97859375 -24.375 71.0078125 C-16.7226724 71.02538386 -10.78064424 69.89456092 -4.44921875 65.421875 C0.86707019 59.99773292 2.99404433 54.6371688 3.98828125 47.109375 C3.54301423 43.35641008 2.71399854 41.74851695 0.86328125 38.546875 C-1.54640475 34.10443713 -1.54640475 34.10443713 -1.11328125 31.0625 C-0.54595214 29.55309229 0.05589489 28.0562104 0.69140625 26.57421875 C2.339536 22.44640287 2.25252174 18.63152213 0.89453125 14.35546875 C-1.34749845 9.26258232 -4.6339417 5.26932697 -9.44921875 2.421875 C-15.59884828 0.0867751 -21.54665508 0.05515871 -28.07421875 0.046875 C-29.60949219 0.01013672 -29.60949219 0.01013672 -31.17578125 -0.02734375 C-38.68328482 -0.09311306 -38.68328482 -0.09311306 -44.44921875 4.421875 Z " fill="#44AD73" transform="translate(363.44921875,60.578125)"/>
<path d="M0 0 C12.21 0 24.42 0 37 0 C37.12375 4.640625 37.2475 9.28125 37.375 14.0625 C37.42962402 15.51277588 37.48424805 16.96305176 37.54052734 18.45727539 C37.67825487 29.11931122 37.67825487 29.11931122 34.26171875 33.26171875 C27.50007462 39.50837025 19.4635524 41.63645386 10.58984375 43.32421875 C9.73519531 43.54722656 8.88054687 43.77023438 8 44 C6.61903031 46.76193938 6.87529152 48.99187388 6.87402344 52.08276367 C6.87021667 53.36136765 6.86640991 54.63997162 6.86248779 55.95732117 C6.86229393 56.64303381 6.86210007 57.32874645 6.86190033 58.03523827 C6.85848326 60.92107371 6.83711393 63.80668417 6.81666946 66.69244099 C6.77867928 72.06525344 6.74737891 77.43782894 6.74951172 82.81079102 C6.75030133 86.54817388 6.72682685 90.28473723 6.6876297 94.0219059 C6.67720208 95.44232811 6.67562183 96.8628453 6.68328094 98.28328514 C6.75046187 112.12978326 6.75046187 112.12978326 1 118 C0.67 118 0.34 118 0 118 C0 79.06 0 40.12 0 0 Z " fill="#43AC72" transform="translate(134,74)"/>
<path d="M0 0 C0 14.85 0 29.7 0 45 C-22.11 45 -44.22 45 -67 45 C-67.33 43.35 -67.66 41.7 -68 40 C-67.42032471 39.98541748 -66.84064941 39.97083496 -66.2434082 39.95581055 C-63.59912447 39.88101472 -60.95605998 39.78446102 -58.3125 39.6875 C-56.94448242 39.65366211 -56.94448242 39.65366211 -55.54882812 39.61914062 C-48.67977637 39.47007473 -48.67977637 39.47007473 -43 36 C-41.96032964 32.67744691 -41.96032964 32.67744691 -41.5625 28.875 C-40.12030044 19.95559978 -37.05529482 14.17615705 -29.9375 8.5625 C-25.44682474 5.49528407 -21.85748601 4.03917629 -16.4375 3.5625 C-12.91272448 3.27404028 -12.91272448 3.27404028 -9.9375 1.4375 C-8 0 -8 0 0 0 Z " fill="#44AE73" transform="translate(443,193)"/>
<path d="M0 0 C13.2 0 26.4 0 40 0 C40 0.66 40 1.32 40 2 C39.34 2 38.68 2 38 2 C37.731875 2.53882813 37.46375 3.07765625 37.1875 3.6328125 C36.32062047 5.36086841 35.44430877 7.08420192 34.5625 8.8046875 C34.046875 9.81789062 33.53125 10.83109375 33 11.875 C32.484375 12.88304687 31.96875 13.89109375 31.4375 14.9296875 C29.73172054 18.41860933 29.73172054 18.41860933 28 24 C22.39 24 16.78 24 11 24 C5.04296875 12.0859375 5.04296875 12.0859375 3.99755859 9.98730469 C3.09263065 8.18453586 2.16662702 6.39238471 1.23828125 4.6015625 C0 2 0 2 0 0 Z " fill="#58B57E" transform="translate(359,193)"/>
<path d="M0 0 C0.66 0 1.32 0 2 0 C2.24911983 4.26799757 2.42947331 8.53205051 2.54931641 12.80517578 C2.59930411 14.25481912 2.6673306 15.70396581 2.75439453 17.15185547 C3.45609764 29.13034026 3.45609764 29.13034026 -0.05957031 33.64453125 C-2.616652 35.7116734 -5.15011821 37.36542716 -8 39 C-9.98 40.32 -11.96 41.64 -14 43 C-14 30.79 -14 18.58 -14 6 C-9.71 4.35 -5.42 2.7 -1 1 C-0.67 0.67 -0.34 0.34 0 0 Z " fill="#57B27C" transform="translate(169,124)"/>
<path d="M0 0 C7 0 7 0 9.9375 1.625 C12 4 12 4 12.625 6.9375 C11.77785768 11.08849737 10.41521211 12.52942103 7 15 C4.69 15 2.38 15 0 15 C0 10.05 0 5.1 0 0 Z " fill="#42AA71" transform="translate(339,101)"/>
<path d="M0 0 C3.16115776 1.36983503 3.9927092 1.9890638 6 5 C2.7 8.3 -0.6 11.6 -4 15 C-5.65 13.68 -7.3 12.36 -9 11 C-7.59155282 7.78475695 -5.89655214 5.67816132 -3.375 3.25 C-2.74335938 2.63640625 -2.11171875 2.0228125 -1.4609375 1.390625 C-0.73777344 0.70226562 -0.73777344 0.70226562 0 0 Z " fill="#E1E1E4" transform="translate(149,357)"/>
<path d="M0 0 C6.0546875 -0.1953125 6.0546875 -0.1953125 8 0 C10 2 10 2 10.3125 4.5 C10.1578125 5.7375 10.1578125 5.7375 10 7 C6.3558226 9.4294516 4.28758728 9.16179575 0 9 C0 6.03 0 3.06 0 0 Z " fill="#43AB71" transform="translate(339,77)"/>
</svg>
