<svg xmlns="http://www.w3.org/2000/svg" xmlns:v="https://svgstorm.com"
viewBox = "0 0 512 512"
width="512"
height="512">
<g fill="None" fill-opacity="0.0" stroke="#000000" stroke-opacity="0.01" stroke-width="0.3"><path d="
M 0.00 512.00 
L 512.00 512.00
L 512.00 0.00
L 0.00 0.00
L 0.00 512.00
M 445.00 366.00 
C 446.47 369.47 449.52 372.15 450.00 376.00
C 465.28 372.74 468.74 392.29 475.92 403.08 C 483.11 413.86 489.41 426.15 496.25 437.75 C 503.10 449.35 513.00 462.19 509.67 476.67 C 506.35 491.16 489.31 500.20 475.78 495.22 C 462.24 490.24 456.50 477.55 450.23 465.77 C 443.96 453.99 435.75 442.43 430.23 430.77 C 424.70 419.12 409.85 406.36 418.00 395.00
C 418.64 390.94 414.09 388.84 414.00 385.00
C 391.83 391.68 366.90 391.50 345.00 384.00
C 351.05 390.06 359.12 409.73 344.78 411.78 C 330.43 413.82 315.55 411.21 301.00 412.00 C 286.45 412.79 271.68 411.60 257.00 412.00 C 242.32 412.40 227.81 411.73 213.00 412.00 C 198.19 412.27 184.04 411.67 169.00 412.00 C 153.96 412.33 140.53 411.39 125.00 412.00 C 109.47 412.61 110.71 396.01 117.92 386.92 C 125.14 377.84 128.62 367.83 134.00 358.00
C 114.60 356.96 93.19 359.38 74.00 358.00 C 54.81 356.62 35.17 362.31 17.92 354.08 C 0.68 345.84 0.71 328.13 1.00 310.00 C 1.29 291.87 0.84 269.18 1.00 250.00 C 1.16 230.82 0.85 208.53 1.00 189.00 C 1.15 169.47 0.75 148.45 1.00 129.00 C 1.25 109.55 0.50 86.91 1.00 68.00 C 1.50 49.09 -1.40 38.01 7.57 27.23 C 16.54 16.45 24.78 14.24 43.00 15.00 C 61.22 15.76 83.71 14.64 103.00 15.00 C 122.29 15.36 144.27 14.80 164.00 15.00 C 183.73 15.20 204.12 14.82 224.00 15.00 C 243.88 15.18 265.15 14.72 285.00 15.00 C 304.85 15.28 325.41 14.44 345.00 15.00 C 364.59 15.56 387.04 13.80 406.00 15.00 C 424.96 16.20 438.41 10.97 449.75 19.39 C 461.10 27.82 463.84 35.96 463.00 53.00 C 462.16 70.04 462.91 94.65 463.00 113.00 C 463.09 131.35 461.98 155.58 463.00 174.00 C 464.02 192.42 460.30 216.72 463.00 234.00 C 465.70 251.28 478.64 261.44 478.78 279.22 C 478.92 297.00 478.57 316.17 471.07 331.07 C 463.58 345.97 457.44 355.13 445.00 366.00 Z"/>
</g>
<g fill="None" fill-opacity="0.0" stroke="#000000" stroke-opacity="1.00" stroke-width="0.3"><path d="
M 445.00 366.00 
C 457.44 355.13 463.58 345.97 471.07 331.07 C 478.57 316.17 478.92 297.00 478.78 279.22 C 478.64 261.44 465.70 251.28 463.00 234.00 C 460.30 216.72 464.02 192.42 463.00 174.00 C 461.98 155.58 463.09 131.35 463.00 113.00 C 462.91 94.65 462.16 70.04 463.00 53.00 C 463.84 35.96 461.10 27.82 449.75 19.39 C 438.41 10.97 424.96 16.20 406.00 15.00 C 387.04 13.80 364.59 15.56 345.00 15.00 C 325.41 14.44 304.85 15.28 285.00 15.00 C 265.15 14.72 243.88 15.18 224.00 15.00 C 204.12 14.82 183.73 15.20 164.00 15.00 C 144.27 14.80 122.29 15.36 103.00 15.00 C 83.71 14.64 61.22 15.76 43.00 15.00 C 24.78 14.24 16.54 16.45 7.57 27.23 C -1.40 38.01 1.50 49.09 1.00 68.00 C 0.50 86.91 1.25 109.55 1.00 129.00 C 0.75 148.45 1.15 169.47 1.00 189.00 C 0.85 208.53 1.16 230.82 1.00 250.00 C 0.84 269.18 1.29 291.87 1.00 310.00 C 0.71 328.13 0.68 345.84 17.92 354.08 C 35.17 362.31 54.81 356.62 74.00 358.00 C 93.19 359.38 114.60 356.96 134.00 358.00
C 128.62 367.83 125.14 377.84 117.92 386.92 C 110.71 396.01 109.47 412.61 125.00 412.00 C 140.53 411.39 153.96 412.33 169.00 412.00 C 184.04 411.67 198.19 412.27 213.00 412.00 C 227.81 411.73 242.32 412.40 257.00 412.00 C 271.68 411.60 286.45 412.79 301.00 412.00 C 315.55 411.21 330.43 413.82 344.78 411.78 C 359.12 409.73 351.05 390.06 345.00 384.00
C 366.90 391.50 391.83 391.68 414.00 385.00
C 414.09 388.84 418.64 390.94 418.00 395.00
C 409.85 406.36 424.70 419.12 430.23 430.77 C 435.75 442.43 443.96 453.99 450.23 465.77 C 456.50 477.55 462.24 490.24 475.78 495.22 C 489.31 500.20 506.35 491.16 509.67 476.67 C 513.00 462.19 503.10 449.35 496.25 437.75 C 489.41 426.15 483.11 413.86 475.92 403.08 C 468.74 392.29 465.28 372.74 450.00 376.00
C 449.52 372.15 446.47 369.47 445.00 366.00
M 387.00 193.00 
C 382.67 193.00 378.33 193.00 374.00 193.00
C 362.69 193.00 352.25 196.14 342.00 200.00
C 335.24 194.37 331.40 185.80 323.30 181.70 C 315.20 177.60 307.12 191.38 302.00 196.00
C 289.88 190.61 278.04 184.18 265.00 181.00
C 265.93 168.41 267.37 154.25 252.00 155.00 C 236.63 155.75 228.41 155.79 213.00 155.00 C 197.59 154.21 199.01 168.32 200.00 181.00
C 190.01 185.57 177.31 186.31 168.31 193.31 C 159.30 200.30 151.37 176.13 141.78 181.78 C 132.18 187.43 126.87 196.05 119.25 203.25 C 111.62 210.44 98.96 218.55 104.00 229.00
C 106.69 232.73 116.26 237.22 117.00 242.00
C 117.48 245.10 113.81 250.10 112.08 253.08 C 110.34 256.05 108.83 262.07 107.02 265.02 C 105.22 267.98 105.12 275.92 103.00 278.00
C 99.42 281.51 88.00 278.16 83.00 279.00
C 72.49 282.19 76.80 293.97 76.00 303.00
C 56.33 303.00 36.67 303.00 17.00 303.00
C 17.13 285.64 16.83 268.37 17.00 251.00 C 17.17 233.63 16.67 216.41 17.00 199.00 C 17.33 181.59 16.32 163.37 17.00 146.00 C 17.68 128.63 15.47 111.25 17.00 94.00 C 18.53 76.75 13.44 59.32 17.33 42.33 C 21.22 25.34 44.28 31.79 59.00 31.00 C 73.72 30.21 94.79 31.37 111.00 31.00 C 127.21 30.63 146.06 31.19 163.00 31.00 C 179.94 30.81 198.74 31.15 216.00 31.00 C 233.26 30.85 250.57 31.21 268.00 31.00 C 285.43 30.79 302.34 31.40 320.00 31.00 C 337.66 30.60 355.01 31.85 373.00 31.00 C 390.99 30.15 406.33 32.90 425.00 31.00 C 443.67 29.10 449.96 42.42 448.00 60.00 C 446.04 77.58 448.93 95.45 448.00 113.00 C 447.07 130.55 448.48 147.45 448.00 165.00 C 447.52 182.55 448.36 200.42 448.00 218.00
C 430.55 204.34 409.99 193.04 387.00 193.00
M 237.00 223.00 
C 234.00 223.00 231.00 223.00 228.00 223.00
C 185.27 223.00 147.16 261.17 144.00 303.00
C 126.67 303.00 109.33 303.00 92.00 303.00
C 92.00 300.00 92.00 297.00 92.00 294.00
C 106.91 298.00 116.95 291.97 118.98 278.98 C 121.00 265.98 125.56 259.94 132.25 249.25 C 138.95 238.57 129.92 231.99 122.00 224.00
C 121.04 220.51 129.77 216.02 132.25 212.25 C 134.73 208.48 141.70 204.18 144.00 200.00
C 149.52 202.52 153.83 208.54 158.00 213.00
C 167.26 217.28 173.04 207.40 181.69 204.69 C 190.35 201.99 196.77 197.03 207.02 196.02 C 217.27 195.02 217.09 179.60 216.00 171.00
C 227.00 171.00 238.00 171.00 249.00 171.00
C 244.89 185.71 251.59 195.47 264.22 197.78 C 276.86 200.09 283.20 203.57 293.70 210.30 C 304.19 217.04 312.16 209.56 319.00 200.00
C 321.88 202.57 326.08 205.18 327.00 209.00
C 311.95 216.80 300.75 232.30 292.00 246.00
C 277.38 231.83 257.53 223.33 237.00 223.00
M 463.00 284.00 
C 463.65 288.55 463.54 293.53 463.00 298.00
C 461.77 359.58 385.69 394.15 335.77 361.23 C 285.85 328.31 286.48 253.48 336.23 221.23 C 385.98 188.98 460.67 222.84 463.00 284.00
M 237.00 239.00 
C 255.91 239.00 272.85 248.62 286.00 262.00
C 281.74 274.89 281.67 288.93 282.00 303.00
C 278.33 303.00 274.67 303.00 271.00 303.00
C 264.60 262.65 200.34 262.49 194.00 303.00
C 182.67 303.00 171.33 303.00 160.00 303.00
C 163.55 269.45 193.50 239.36 228.00 239.00
C 230.91 238.65 234.18 238.73 237.00 239.00
M 254.00 303.00 
C 239.67 303.00 225.33 303.00 211.00 303.00
C 215.95 282.93 248.84 283.36 254.00 303.00
M 286.00 319.00 
C 287.03 327.29 292.48 334.18 295.00 342.00
C 270.41 341.89 244.46 342.15 220.00 342.00 C 195.54 341.85 168.96 342.28 145.00 342.00 C 121.04 341.72 92.77 342.61 70.00 342.00 C 47.23 341.39 13.83 350.43 17.00 319.00
C 106.67 319.00 196.33 319.00 286.00 319.00
M 334.00 397.00 
C 266.33 397.00 198.67 397.00 131.00 397.00
C 135.40 384.12 141.69 380.52 147.30 367.31 C 152.92 354.09 170.97 358.14 185.00 358.00 C 199.03 357.86 217.57 358.17 232.00 358.00 C 246.43 357.84 265.00 358.30 279.00 358.00 C 293.00 357.70 308.82 355.35 316.75 367.25 C 324.68 379.15 328.03 384.91 334.00 397.00
M 433.00 376.00 
C 433.94 378.91 436.42 381.06 437.00 384.00
C 431.15 389.94 423.76 375.90 433.00 376.00
M 453.00 393.00 
C 453.13 395.95 455.88 398.03 456.00 401.00
C 449.62 404.66 443.43 408.45 437.00 412.00
C 435.63 409.31 434.35 406.69 433.00 404.00
C 439.91 400.73 446.10 395.97 453.00 393.00
M 465.00 415.00 
C 470.43 423.50 473.08 430.59 478.92 439.08 C 484.76 447.57 485.88 454.30 492.77 463.23 C 499.67 472.16 487.07 486.35 477.77 479.23 C 468.47 472.11 469.41 464.77 462.75 456.25 C 456.09 447.74 455.73 440.72 449.08 431.92 C 442.42 423.13 457.68 418.65 465.00 415.00 Z"/>
</g>
<g fill="None" fill-opacity="0.0" stroke="#E5F7FE" stroke-opacity="1.00" stroke-width="0.3"><path d="
M 83.00 279.00 
C 88.90 277.21 96.38 278.26 103.00 278.00
C 105.12 275.92 105.22 267.98 107.02 265.02 C 108.83 262.07 110.34 256.05 112.08 253.08 C 113.81 250.10 117.48 245.10 117.00 242.00
C 112.86 237.83 107.09 234.05 104.00 229.00
C 98.96 218.55 111.62 210.44 119.25 203.25 C 126.87 196.05 132.18 187.43 141.78 181.78 C 151.37 176.13 159.30 200.30 168.31 193.31 C 177.31 186.31 190.01 185.57 200.00 181.00
C 199.01 168.32 197.59 154.21 213.00 155.00 C 228.41 155.79 236.63 155.75 252.00 155.00 C 267.37 154.25 265.93 168.41 265.00 181.00
C 278.04 184.18 289.88 190.61 302.00 196.00
C 307.12 191.38 315.20 177.60 323.30 181.70 C 331.40 185.80 335.24 194.37 342.00 200.00
C 352.25 196.14 362.69 193.00 374.00 193.00
C 378.09 192.60 382.98 192.61 387.00 193.00
C 409.99 193.04 430.55 204.34 448.00 218.00
C 448.36 200.42 447.52 182.55 448.00 165.00 C 448.48 147.45 447.07 130.55 448.00 113.00 C 448.93 95.45 446.04 77.58 448.00 60.00 C 449.96 42.42 443.67 29.10 425.00 31.00 C 406.33 32.90 390.99 30.15 373.00 31.00 C 355.01 31.85 337.66 30.60 320.00 31.00 C 302.34 31.40 285.43 30.79 268.00 31.00 C 250.57 31.21 233.26 30.85 216.00 31.00 C 198.74 31.15 179.94 30.81 163.00 31.00 C 146.06 31.19 127.21 30.63 111.00 31.00 C 94.79 31.37 73.72 30.21 59.00 31.00 C 44.28 31.79 21.22 25.34 17.33 42.33 C 13.44 59.32 18.53 76.75 17.00 94.00 C 15.47 111.25 17.68 128.63 17.00 146.00 C 16.32 163.37 17.33 181.59 17.00 199.00 C 16.67 216.41 17.17 233.63 17.00 251.00 C 16.83 268.37 17.13 285.64 17.00 303.00
C 36.67 303.00 56.33 303.00 76.00 303.00
C 76.80 293.97 72.49 282.19 83.00 279.00
M 157.00 95.00 
C 161.53 89.69 166.69 84.43 172.00 80.00
C 172.62 75.21 165.46 67.07 168.33 61.33 C 171.20 55.59 171.06 49.45 176.25 45.25 C 181.43 41.05 184.40 37.86 191.02 37.02 C 197.65 36.19 206.22 36.83 211.69 40.31 C 217.17 43.78 219.63 46.51 222.92 52.08 C 226.22 57.64 226.45 66.21 226.00 73.00
C 233.51 75.88 240.03 81.06 247.25 84.75 C 254.47 88.45 262.05 93.09 269.23 96.77 C 276.41 100.45 283.04 105.42 290.23 108.77 C 297.42 112.12 304.78 120.61 311.70 114.70 C 318.62 108.78 330.83 108.57 339.00 112.00
C 347.79 99.30 358.91 87.88 367.00 75.00
C 360.77 80.61 341.55 74.67 347.93 64.93 C 354.30 55.19 366.63 62.97 376.01 58.01 C 385.38 53.05 399.39 60.41 395.00 72.00 C 390.61 83.59 401.48 94.75 391.75 103.75 C 382.02 112.76 376.30 93.78 378.00 87.00
C 374.27 94.40 367.88 99.36 363.25 106.25 C 358.61 113.13 349.62 119.09 354.77 127.23 C 359.92 135.37 356.69 146.85 352.23 154.23 C 347.77 161.61 339.66 167.11 330.93 167.93 C 322.19 168.74 312.55 165.61 306.25 158.75 C 299.94 151.89 297.68 140.60 299.00 131.00
C 271.16 117.23 244.61 100.50 217.00 86.00
C 209.30 95.39 193.78 97.37 184.00 91.00
C 176.95 97.32 169.84 104.42 163.25 111.25 C 156.65 118.08 149.04 125.03 143.25 132.25 C 137.45 139.46 126.83 145.67 122.25 153.25 C 117.67 160.83 102.29 165.36 103.34 174.68 C 104.39 184.00 108.23 198.73 98.75 206.75 C 89.27 214.77 80.87 219.27 69.33 215.67 C 57.78 212.08 52.03 204.83 49.02 193.98 C 46.02 183.13 50.42 172.11 59.08 165.08 C 67.74 158.05 81.84 156.72 92.00 162.00
C 112.69 138.97 135.65 117.54 157.00 95.00 Z"/>
</g>
<g fill="None" fill-opacity="0.0" stroke="#000000" stroke-opacity="1.00" stroke-width="0.3"><path d="
M 172.00 80.00 
C 171.39 84.65 160.15 91.85 157.00 95.00
C 135.65 117.54 112.69 138.97 92.00 162.00
C 81.84 156.72 67.74 158.05 59.08 165.08 C 50.42 172.11 46.02 183.13 49.02 193.98 C 52.03 204.83 57.78 212.08 69.33 215.67 C 80.87 219.27 89.27 214.77 98.75 206.75 C 108.23 198.73 104.39 184.00 103.34 174.68 C 102.29 165.36 117.67 160.83 122.25 153.25 C 126.83 145.67 137.45 139.46 143.25 132.25 C 149.04 125.03 156.65 118.08 163.25 111.25 C 169.84 104.42 176.95 97.32 184.00 91.00
C 193.78 97.37 209.30 95.39 217.00 86.00
C 244.61 100.50 271.16 117.23 299.00 131.00
C 297.68 140.60 299.94 151.89 306.25 158.75 C 312.55 165.61 322.19 168.74 330.93 167.93 C 339.66 167.11 347.77 161.61 352.23 154.23 C 356.69 146.85 359.92 135.37 354.77 127.23 C 349.62 119.09 358.61 113.13 363.25 106.25 C 367.88 99.36 374.27 94.40 378.00 87.00
C 376.30 93.78 382.02 112.76 391.75 103.75 C 401.48 94.75 390.61 83.59 395.00 72.00 C 399.39 60.41 385.38 53.05 376.01 58.01 C 366.63 62.97 354.30 55.19 347.93 64.93 C 341.55 74.67 360.77 80.61 367.00 75.00
C 358.91 87.88 347.79 99.30 339.00 112.00
C 330.83 108.57 318.62 108.78 311.70 114.70 C 304.78 120.61 297.42 112.12 290.23 108.77 C 283.04 105.42 276.41 100.45 269.23 96.77 C 262.05 93.09 254.47 88.45 247.25 84.75 C 240.03 81.06 233.51 75.88 226.00 73.00
C 226.45 66.21 226.22 57.64 222.92 52.08 C 219.63 46.51 217.17 43.78 211.69 40.31 C 206.22 36.83 197.65 36.19 191.02 37.02 C 184.40 37.86 181.43 41.05 176.25 45.25 C 171.06 49.45 171.20 55.59 168.33 61.33 C 165.46 67.07 172.62 75.21 172.00 80.00
M 202.00 53.00 
C 217.46 56.83 208.59 85.01 192.99 78.01 C 177.39 71.01 185.03 48.80 202.00 53.00
M 333.00 126.00 
C 347.91 130.52 339.79 157.32 323.93 151.07 C 308.06 144.83 315.47 120.68 333.00 126.00
M 82.00 175.00 
C 97.54 178.85 88.49 207.21 72.93 200.07 C 57.36 192.93 65.19 170.84 82.00 175.00 Z"/>
</g>
<g fill="None" fill-opacity="0.0" stroke="#6FD15F" stroke-opacity="1.00" stroke-width="0.3"><path d="
M 202.00 53.00 
C 185.03 48.80 177.39 71.01 192.99 78.01 C 208.59 85.01 217.46 56.83 202.00 53.00 Z"/>
</g>
<g fill="None" fill-opacity="0.0" stroke="#676F73" stroke-opacity="1.00" stroke-width="0.3"><path d="
M 157.00 95.00 
C 160.15 91.85 171.39 84.65 172.00 80.00
C 166.69 84.43 161.53 89.69 157.00 95.00 Z"/>
</g>
<g fill="None" fill-opacity="0.0" stroke="#F8D42B" stroke-opacity="1.00" stroke-width="0.3"><path d="
M 333.00 126.00 
C 315.47 120.68 308.06 144.83 323.93 151.07 C 339.79 157.32 347.91 130.52 333.00 126.00 Z"/>
</g>
<g fill="None" fill-opacity="0.0" stroke="#FCD72C" stroke-opacity="1.00" stroke-width="0.3"><path d="
M 158.00 213.00 
C 153.10 210.74 149.88 204.36 146.00 201.00
C 137.11 206.79 129.53 216.25 122.00 224.00
C 129.92 231.99 138.95 238.57 132.25 249.25 C 125.56 259.94 121.00 265.98 118.98 278.98 C 116.95 291.97 106.91 298.00 92.00 294.00
C 92.00 297.00 92.00 300.00 92.00 303.00
C 109.33 303.00 126.67 303.00 144.00 303.00
C 147.16 261.17 185.27 223.00 228.00 223.00
C 230.82 222.73 234.24 222.73 237.00 223.00
C 257.53 223.33 277.38 231.83 292.00 246.00
C 300.75 232.30 311.95 216.80 327.00 209.00
C 326.08 205.18 321.88 202.57 319.00 200.00
C 312.16 209.56 304.19 217.04 293.70 210.30 C 283.20 203.57 276.86 200.09 264.22 197.78 C 251.59 195.47 244.89 185.71 249.00 171.00
C 238.00 171.00 227.00 171.00 216.00 171.00
C 217.09 179.60 217.27 195.02 207.02 196.02 C 196.77 197.03 190.35 201.99 181.69 204.69 C 173.04 207.40 167.26 217.28 158.00 213.00 Z"/>
</g>
<g fill="None" fill-opacity="0.0" stroke="#F76659" stroke-opacity="1.00" stroke-width="0.3"><path d="
M 82.00 175.00 
C 65.19 170.84 57.36 192.93 72.93 200.07 C 88.49 207.21 97.54 178.85 82.00 175.00 Z"/>
</g>
<g fill="None" fill-opacity="0.0" stroke="#5F6669" stroke-opacity="1.00" stroke-width="0.3"><path d="
M 374.00 193.00 
C 378.33 193.00 382.67 193.00 387.00 193.00
C 382.98 192.61 378.09 192.60 374.00 193.00 Z"/>
</g>
<g fill="None" fill-opacity="0.0" stroke="#675812" stroke-opacity="1.00" stroke-width="0.3"><path d="
M 122.00 224.00 
C 129.53 216.25 137.11 206.79 146.00 201.00
C 149.88 204.36 153.10 210.74 158.00 213.00
C 153.83 208.54 149.52 202.52 144.00 200.00
C 141.70 204.18 134.73 208.48 132.25 212.25 C 129.77 216.02 121.04 220.51 122.00 224.00 Z"/>
</g>
<g fill="None" fill-opacity="0.0" stroke="#61B0F0" stroke-opacity="1.00" stroke-width="0.3"><path d="
M 463.00 298.00 
C 463.09 293.36 463.18 288.64 463.00 284.00
C 460.67 222.84 385.98 188.98 336.23 221.23 C 286.48 253.48 285.85 328.31 335.77 361.23 C 385.69 394.15 461.77 359.58 463.00 298.00
M 390.00 217.00 
C 444.39 223.57 474.20 291.83 440.70 335.70 C 407.20 379.56 339.05 374.39 314.08 323.92 C 289.10 273.46 331.04 209.87 390.00 217.00 Z"/>
</g>
<g fill="None" fill-opacity="0.0" stroke="#000000" stroke-opacity="1.00" stroke-width="0.3"><path d="
M 390.00 217.00 
C 331.04 209.87 289.10 273.46 314.08 323.92 C 339.05 374.39 407.20 379.56 440.70 335.70 C 474.20 291.83 444.39 223.57 390.00 217.00
M 388.00 233.00 
C 431.14 238.21 453.73 292.00 427.25 326.25 C 400.77 360.49 347.67 356.53 328.08 316.92 C 308.48 277.32 342.18 227.46 388.00 233.00 Z"/>
</g>
<g fill="None" fill-opacity="0.0" stroke="#847117" stroke-opacity="1.00" stroke-width="0.3"><path d="
M 228.00 223.00 
C 231.00 223.00 234.00 223.00 237.00 223.00
C 234.24 222.73 230.82 222.73 228.00 223.00 Z"/>
</g>
<g fill="None" fill-opacity="0.0" stroke="#6C7578" stroke-opacity="1.00" stroke-width="0.3"><path d="
M 117.00 242.00 
C 116.26 237.22 106.69 232.73 104.00 229.00
C 107.09 234.05 112.86 237.83 117.00 242.00 Z"/>
</g>
<g fill="None" fill-opacity="0.0" stroke="#EDF2F5" stroke-opacity="1.00" stroke-width="0.3"><path d="
M 388.00 233.00 
C 342.18 227.46 308.48 277.32 328.08 316.92 C 347.67 356.53 400.77 360.49 427.25 326.25 C 453.73 292.00 431.14 238.21 388.00 233.00 Z"/>
</g>
<g fill="None" fill-opacity="0.0" stroke="#707374" stroke-opacity="1.00" stroke-width="0.3"><path d="
M 228.00 239.00 
C 231.00 238.94 234.00 239.00 237.00 239.00
C 234.18 238.73 230.91 238.65 228.00 239.00 Z"/>
</g>
<g fill="None" fill-opacity="0.0" stroke="#ECF1F4" stroke-opacity="1.00" stroke-width="0.3"><path d="
M 237.00 239.00 
C 234.00 239.00 231.00 238.94 228.00 239.00
C 193.50 239.36 163.55 269.45 160.00 303.00
C 171.33 303.00 182.67 303.00 194.00 303.00
C 200.34 262.49 264.60 262.65 271.00 303.00
C 274.67 303.00 278.33 303.00 282.00 303.00
C 281.67 288.93 281.74 274.89 286.00 262.00
C 272.85 248.62 255.91 239.00 237.00 239.00 Z"/>
</g>
<g fill="None" fill-opacity="0.0" stroke="#5A6164" stroke-opacity="1.00" stroke-width="0.3"><path d="
M 83.00 279.00 
C 88.00 278.16 99.42 281.51 103.00 278.00
C 96.38 278.26 88.90 277.21 83.00 279.00 Z"/>
</g>
<g fill="None" fill-opacity="0.0" stroke="#366386" stroke-opacity="1.00" stroke-width="0.3"><path d="
M 463.00 298.00 
C 463.54 293.53 463.65 288.55 463.00 284.00
C 463.18 288.64 463.09 293.36 463.00 298.00 Z"/>
</g>
<g fill="None" fill-opacity="0.0" stroke="#FBD62C" stroke-opacity="1.00" stroke-width="0.3"><path d="
M 254.00 303.00 
C 248.84 283.36 215.95 282.93 211.00 303.00
C 225.33 303.00 239.67 303.00 254.00 303.00 Z"/>
</g>
<g fill="None" fill-opacity="0.0" stroke="#003647" stroke-opacity="1.00" stroke-width="0.3"><path d="
M 286.00 319.00 
C 196.33 319.00 106.67 319.00 17.00 319.00
C 13.83 350.43 47.23 341.39 70.00 342.00 C 92.77 342.61 121.04 341.72 145.00 342.00 C 168.96 342.28 195.54 341.85 220.00 342.00 C 244.46 342.15 270.41 341.89 295.00 342.00
C 292.48 334.18 287.03 327.29 286.00 319.00 Z"/>
</g>
<g fill="None" fill-opacity="0.0" stroke="#00475E" stroke-opacity="1.00" stroke-width="0.3"><path d="
M 334.00 397.00 
C 328.03 384.91 324.68 379.15 316.75 367.25 C 308.82 355.35 293.00 357.70 279.00 358.00 C 265.00 358.30 246.43 357.84 232.00 358.00 C 217.57 358.17 199.03 357.86 185.00 358.00 C 170.97 358.14 152.92 354.09 147.30 367.31 C 141.69 380.52 135.40 384.12 131.00 397.00
C 198.67 397.00 266.33 397.00 334.00 397.00 Z"/>
</g>
<g fill="None" fill-opacity="0.0" stroke="#A6C2C7" stroke-opacity="1.00" stroke-width="0.3"><path d="
M 433.00 376.00 
C 423.76 375.90 431.15 389.94 437.00 384.00
C 436.42 381.06 433.94 378.91 433.00 376.00 Z"/>
</g>
<g fill="None" fill-opacity="0.0" stroke="#D18633" stroke-opacity="1.00" stroke-width="0.3"><path d="
M 453.00 393.00 
C 446.10 395.97 439.91 400.73 433.00 404.00
C 434.35 406.69 435.63 409.31 437.00 412.00
C 443.43 408.45 449.62 404.66 456.00 401.00
C 455.88 398.03 453.13 395.95 453.00 393.00 Z"/>
</g>
<g fill="None" fill-opacity="0.0" stroke="#C67428" stroke-opacity="1.00" stroke-width="0.3"><path d="
M 465.00 415.00 
C 457.68 418.65 442.42 423.13 449.08 431.92 C 455.73 440.72 456.09 447.74 462.75 456.25 C 469.41 464.77 468.47 472.11 477.77 479.23 C 487.07 486.35 499.67 472.16 492.77 463.23 C 485.88 454.30 484.76 447.57 478.92 439.08 C 473.08 430.59 470.43 423.50 465.00 415.00 Z"/>
</g>
<g fill="#000000" fill-opacity="0.01" stroke="None">
<path d="
M 0.00 512.00 
L 512.00 512.00
L 512.00 0.00
L 0.00 0.00
L 0.00 512.00
M 445.00 366.00 
C 446.47 369.47 449.52 372.15 450.00 376.00
C 465.28 372.74 468.74 392.29 475.92 403.08 C 483.11 413.86 489.41 426.15 496.25 437.75 C 503.10 449.35 513.00 462.19 509.67 476.67 C 506.35 491.16 489.31 500.20 475.78 495.22 C 462.24 490.24 456.50 477.55 450.23 465.77 C 443.96 453.99 435.75 442.43 430.23 430.77 C 424.70 419.12 409.85 406.36 418.00 395.00
C 418.64 390.94 414.09 388.84 414.00 385.00
C 391.83 391.68 366.90 391.50 345.00 384.00
C 351.05 390.06 359.12 409.73 344.78 411.78 C 330.43 413.82 315.55 411.21 301.00 412.00 C 286.45 412.79 271.68 411.60 257.00 412.00 C 242.32 412.40 227.81 411.73 213.00 412.00 C 198.19 412.27 184.04 411.67 169.00 412.00 C 153.96 412.33 140.53 411.39 125.00 412.00 C 109.47 412.61 110.71 396.01 117.92 386.92 C 125.14 377.84 128.62 367.83 134.00 358.00
C 114.60 356.96 93.19 359.38 74.00 358.00 C 54.81 356.62 35.17 362.31 17.92 354.08 C 0.68 345.84 0.71 328.13 1.00 310.00 C 1.29 291.87 0.84 269.18 1.00 250.00 C 1.16 230.82 0.85 208.53 1.00 189.00 C 1.15 169.47 0.75 148.45 1.00 129.00 C 1.25 109.55 0.50 86.91 1.00 68.00 C 1.50 49.09 -1.40 38.01 7.57 27.23 C 16.54 16.45 24.78 14.24 43.00 15.00 C 61.22 15.76 83.71 14.64 103.00 15.00 C 122.29 15.36 144.27 14.80 164.00 15.00 C 183.73 15.20 204.12 14.82 224.00 15.00 C 243.88 15.18 265.15 14.72 285.00 15.00 C 304.85 15.28 325.41 14.44 345.00 15.00 C 364.59 15.56 387.04 13.80 406.00 15.00 C 424.96 16.20 438.41 10.97 449.75 19.39 C 461.10 27.82 463.84 35.96 463.00 53.00 C 462.16 70.04 462.91 94.65 463.00 113.00 C 463.09 131.35 461.98 155.58 463.00 174.00 C 464.02 192.42 460.30 216.72 463.00 234.00 C 465.70 251.28 478.64 261.44 478.78 279.22 C 478.92 297.00 478.57 316.17 471.07 331.07 C 463.58 345.97 457.44 355.13 445.00 366.00 Z"/>
</g>
<g fill="#000000" fill-opacity="1.00" stroke="None">
<path d="
M 445.00 366.00 
C 457.44 355.13 463.58 345.97 471.07 331.07 C 478.57 316.17 478.92 297.00 478.78 279.22 C 478.64 261.44 465.70 251.28 463.00 234.00 C 460.30 216.72 464.02 192.42 463.00 174.00 C 461.98 155.58 463.09 131.35 463.00 113.00 C 462.91 94.65 462.16 70.04 463.00 53.00 C 463.84 35.96 461.10 27.82 449.75 19.39 C 438.41 10.97 424.96 16.20 406.00 15.00 C 387.04 13.80 364.59 15.56 345.00 15.00 C 325.41 14.44 304.85 15.28 285.00 15.00 C 265.15 14.72 243.88 15.18 224.00 15.00 C 204.12 14.82 183.73 15.20 164.00 15.00 C 144.27 14.80 122.29 15.36 103.00 15.00 C 83.71 14.64 61.22 15.76 43.00 15.00 C 24.78 14.24 16.54 16.45 7.57 27.23 C -1.40 38.01 1.50 49.09 1.00 68.00 C 0.50 86.91 1.25 109.55 1.00 129.00 C 0.75 148.45 1.15 169.47 1.00 189.00 C 0.85 208.53 1.16 230.82 1.00 250.00 C 0.84 269.18 1.29 291.87 1.00 310.00 C 0.71 328.13 0.68 345.84 17.92 354.08 C 35.17 362.31 54.81 356.62 74.00 358.00 C 93.19 359.38 114.60 356.96 134.00 358.00
C 128.62 367.83 125.14 377.84 117.92 386.92 C 110.71 396.01 109.47 412.61 125.00 412.00 C 140.53 411.39 153.96 412.33 169.00 412.00 C 184.04 411.67 198.19 412.27 213.00 412.00 C 227.81 411.73 242.32 412.40 257.00 412.00 C 271.68 411.60 286.45 412.79 301.00 412.00 C 315.55 411.21 330.43 413.82 344.78 411.78 C 359.12 409.73 351.05 390.06 345.00 384.00
C 366.90 391.50 391.83 391.68 414.00 385.00
C 414.09 388.84 418.64 390.94 418.00 395.00
C 409.85 406.36 424.70 419.12 430.23 430.77 C 435.75 442.43 443.96 453.99 450.23 465.77 C 456.50 477.55 462.24 490.24 475.78 495.22 C 489.31 500.20 506.35 491.16 509.67 476.67 C 513.00 462.19 503.10 449.35 496.25 437.75 C 489.41 426.15 483.11 413.86 475.92 403.08 C 468.74 392.29 465.28 372.74 450.00 376.00
C 449.52 372.15 446.47 369.47 445.00 366.00
M 387.00 193.00 
C 382.67 193.00 378.33 193.00 374.00 193.00
C 362.69 193.00 352.25 196.14 342.00 200.00
C 335.24 194.37 331.40 185.80 323.30 181.70 C 315.20 177.60 307.12 191.38 302.00 196.00
C 289.88 190.61 278.04 184.18 265.00 181.00
C 265.93 168.41 267.37 154.25 252.00 155.00 C 236.63 155.75 228.41 155.79 213.00 155.00 C 197.59 154.21 199.01 168.32 200.00 181.00
C 190.01 185.57 177.31 186.31 168.31 193.31 C 159.30 200.30 151.37 176.13 141.78 181.78 C 132.18 187.43 126.87 196.05 119.25 203.25 C 111.62 210.44 98.96 218.55 104.00 229.00
C 106.69 232.73 116.26 237.22 117.00 242.00
C 117.48 245.10 113.81 250.10 112.08 253.08 C 110.34 256.05 108.83 262.07 107.02 265.02 C 105.22 267.98 105.12 275.92 103.00 278.00
C 99.42 281.51 88.00 278.16 83.00 279.00
C 72.49 282.19 76.80 293.97 76.00 303.00
C 56.33 303.00 36.67 303.00 17.00 303.00
C 17.13 285.64 16.83 268.37 17.00 251.00 C 17.17 233.63 16.67 216.41 17.00 199.00 C 17.33 181.59 16.32 163.37 17.00 146.00 C 17.68 128.63 15.47 111.25 17.00 94.00 C 18.53 76.75 13.44 59.32 17.33 42.33 C 21.22 25.34 44.28 31.79 59.00 31.00 C 73.72 30.21 94.79 31.37 111.00 31.00 C 127.21 30.63 146.06 31.19 163.00 31.00 C 179.94 30.81 198.74 31.15 216.00 31.00 C 233.26 30.85 250.57 31.21 268.00 31.00 C 285.43 30.79 302.34 31.40 320.00 31.00 C 337.66 30.60 355.01 31.85 373.00 31.00 C 390.99 30.15 406.33 32.90 425.00 31.00 C 443.67 29.10 449.96 42.42 448.00 60.00 C 446.04 77.58 448.93 95.45 448.00 113.00 C 447.07 130.55 448.48 147.45 448.00 165.00 C 447.52 182.55 448.36 200.42 448.00 218.00
C 430.55 204.34 409.99 193.04 387.00 193.00
M 237.00 223.00 
C 234.00 223.00 231.00 223.00 228.00 223.00
C 185.27 223.00 147.16 261.17 144.00 303.00
C 126.67 303.00 109.33 303.00 92.00 303.00
C 92.00 300.00 92.00 297.00 92.00 294.00
C 106.91 298.00 116.95 291.97 118.98 278.98 C 121.00 265.98 125.56 259.94 132.25 249.25 C 138.95 238.57 129.92 231.99 122.00 224.00
C 121.04 220.51 129.77 216.02 132.25 212.25 C 134.73 208.48 141.70 204.18 144.00 200.00
C 149.52 202.52 153.83 208.54 158.00 213.00
C 167.26 217.28 173.04 207.40 181.69 204.69 C 190.35 201.99 196.77 197.03 207.02 196.02 C 217.27 195.02 217.09 179.60 216.00 171.00
C 227.00 171.00 238.00 171.00 249.00 171.00
C 244.89 185.71 251.59 195.47 264.22 197.78 C 276.86 200.09 283.20 203.57 293.70 210.30 C 304.19 217.04 312.16 209.56 319.00 200.00
C 321.88 202.57 326.08 205.18 327.00 209.00
C 311.95 216.80 300.75 232.30 292.00 246.00
C 277.38 231.83 257.53 223.33 237.00 223.00
M 463.00 284.00 
C 463.65 288.55 463.54 293.53 463.00 298.00
C 461.77 359.58 385.69 394.15 335.77 361.23 C 285.85 328.31 286.48 253.48 336.23 221.23 C 385.98 188.98 460.67 222.84 463.00 284.00
M 237.00 239.00 
C 255.91 239.00 272.85 248.62 286.00 262.00
C 281.74 274.89 281.67 288.93 282.00 303.00
C 278.33 303.00 274.67 303.00 271.00 303.00
C 264.60 262.65 200.34 262.49 194.00 303.00
C 182.67 303.00 171.33 303.00 160.00 303.00
C 163.55 269.45 193.50 239.36 228.00 239.00
C 230.91 238.65 234.18 238.73 237.00 239.00
M 254.00 303.00 
C 239.67 303.00 225.33 303.00 211.00 303.00
C 215.95 282.93 248.84 283.36 254.00 303.00
M 286.00 319.00 
C 287.03 327.29 292.48 334.18 295.00 342.00
C 270.41 341.89 244.46 342.15 220.00 342.00 C 195.54 341.85 168.96 342.28 145.00 342.00 C 121.04 341.72 92.77 342.61 70.00 342.00 C 47.23 341.39 13.83 350.43 17.00 319.00
C 106.67 319.00 196.33 319.00 286.00 319.00
M 334.00 397.00 
C 266.33 397.00 198.67 397.00 131.00 397.00
C 135.40 384.12 141.69 380.52 147.30 367.31 C 152.92 354.09 170.97 358.14 185.00 358.00 C 199.03 357.86 217.57 358.17 232.00 358.00 C 246.43 357.84 265.00 358.30 279.00 358.00 C 293.00 357.70 308.82 355.35 316.75 367.25 C 324.68 379.15 328.03 384.91 334.00 397.00
M 433.00 376.00 
C 433.94 378.91 436.42 381.06 437.00 384.00
C 431.15 389.94 423.76 375.90 433.00 376.00
M 453.00 393.00 
C 453.13 395.95 455.88 398.03 456.00 401.00
C 449.62 404.66 443.43 408.45 437.00 412.00
C 435.63 409.31 434.35 406.69 433.00 404.00
C 439.91 400.73 446.10 395.97 453.00 393.00
M 465.00 415.00 
C 470.43 423.50 473.08 430.59 478.92 439.08 C 484.76 447.57 485.88 454.30 492.77 463.23 C 499.67 472.16 487.07 486.35 477.77 479.23 C 468.47 472.11 469.41 464.77 462.75 456.25 C 456.09 447.74 455.73 440.72 449.08 431.92 C 442.42 423.13 457.68 418.65 465.00 415.00 Z"/>
</g>
<g fill="#E5F7FE" fill-opacity="1.00" stroke="None">
<path d="
M 83.00 279.00 
C 88.90 277.21 96.38 278.26 103.00 278.00
C 105.12 275.92 105.22 267.98 107.02 265.02 C 108.83 262.07 110.34 256.05 112.08 253.08 C 113.81 250.10 117.48 245.10 117.00 242.00
C 112.86 237.83 107.09 234.05 104.00 229.00
C 98.96 218.55 111.62 210.44 119.25 203.25 C 126.87 196.05 132.18 187.43 141.78 181.78 C 151.37 176.13 159.30 200.30 168.31 193.31 C 177.31 186.31 190.01 185.57 200.00 181.00
C 199.01 168.32 197.59 154.21 213.00 155.00 C 228.41 155.79 236.63 155.75 252.00 155.00 C 267.37 154.25 265.93 168.41 265.00 181.00
C 278.04 184.18 289.88 190.61 302.00 196.00
C 307.12 191.38 315.20 177.60 323.30 181.70 C 331.40 185.80 335.24 194.37 342.00 200.00
C 352.25 196.14 362.69 193.00 374.00 193.00
C 378.09 192.60 382.98 192.61 387.00 193.00
C 409.99 193.04 430.55 204.34 448.00 218.00
C 448.36 200.42 447.52 182.55 448.00 165.00 C 448.48 147.45 447.07 130.55 448.00 113.00 C 448.93 95.45 446.04 77.58 448.00 60.00 C 449.96 42.42 443.67 29.10 425.00 31.00 C 406.33 32.90 390.99 30.15 373.00 31.00 C 355.01 31.85 337.66 30.60 320.00 31.00 C 302.34 31.40 285.43 30.79 268.00 31.00 C 250.57 31.21 233.26 30.85 216.00 31.00 C 198.74 31.15 179.94 30.81 163.00 31.00 C 146.06 31.19 127.21 30.63 111.00 31.00 C 94.79 31.37 73.72 30.21 59.00 31.00 C 44.28 31.79 21.22 25.34 17.33 42.33 C 13.44 59.32 18.53 76.75 17.00 94.00 C 15.47 111.25 17.68 128.63 17.00 146.00 C 16.32 163.37 17.33 181.59 17.00 199.00 C 16.67 216.41 17.17 233.63 17.00 251.00 C 16.83 268.37 17.13 285.64 17.00 303.00
C 36.67 303.00 56.33 303.00 76.00 303.00
C 76.80 293.97 72.49 282.19 83.00 279.00
M 157.00 95.00 
C 161.53 89.69 166.69 84.43 172.00 80.00
C 172.62 75.21 165.46 67.07 168.33 61.33 C 171.20 55.59 171.06 49.45 176.25 45.25 C 181.43 41.05 184.40 37.86 191.02 37.02 C 197.65 36.19 206.22 36.83 211.69 40.31 C 217.17 43.78 219.63 46.51 222.92 52.08 C 226.22 57.64 226.45 66.21 226.00 73.00
C 233.51 75.88 240.03 81.06 247.25 84.75 C 254.47 88.45 262.05 93.09 269.23 96.77 C 276.41 100.45 283.04 105.42 290.23 108.77 C 297.42 112.12 304.78 120.61 311.70 114.70 C 318.62 108.78 330.83 108.57 339.00 112.00
C 347.79 99.30 358.91 87.88 367.00 75.00
C 360.77 80.61 341.55 74.67 347.93 64.93 C 354.30 55.19 366.63 62.97 376.01 58.01 C 385.38 53.05 399.39 60.41 395.00 72.00 C 390.61 83.59 401.48 94.75 391.75 103.75 C 382.02 112.76 376.30 93.78 378.00 87.00
C 374.27 94.40 367.88 99.36 363.25 106.25 C 358.61 113.13 349.62 119.09 354.77 127.23 C 359.92 135.37 356.69 146.85 352.23 154.23 C 347.77 161.61 339.66 167.11 330.93 167.93 C 322.19 168.74 312.55 165.61 306.25 158.75 C 299.94 151.89 297.68 140.60 299.00 131.00
C 271.16 117.23 244.61 100.50 217.00 86.00
C 209.30 95.39 193.78 97.37 184.00 91.00
C 176.95 97.32 169.84 104.42 163.25 111.25 C 156.65 118.08 149.04 125.03 143.25 132.25 C 137.45 139.46 126.83 145.67 122.25 153.25 C 117.67 160.83 102.29 165.36 103.34 174.68 C 104.39 184.00 108.23 198.73 98.75 206.75 C 89.27 214.77 80.87 219.27 69.33 215.67 C 57.78 212.08 52.03 204.83 49.02 193.98 C 46.02 183.13 50.42 172.11 59.08 165.08 C 67.74 158.05 81.84 156.72 92.00 162.00
C 112.69 138.97 135.65 117.54 157.00 95.00 Z"/>
</g>
<g fill="#000000" fill-opacity="1.00" stroke="None">
<path d="
M 172.00 80.00 
C 171.39 84.65 160.15 91.85 157.00 95.00
C 135.65 117.54 112.69 138.97 92.00 162.00
C 81.84 156.72 67.74 158.05 59.08 165.08 C 50.42 172.11 46.02 183.13 49.02 193.98 C 52.03 204.83 57.78 212.08 69.33 215.67 C 80.87 219.27 89.27 214.77 98.75 206.75 C 108.23 198.73 104.39 184.00 103.34 174.68 C 102.29 165.36 117.67 160.83 122.25 153.25 C 126.83 145.67 137.45 139.46 143.25 132.25 C 149.04 125.03 156.65 118.08 163.25 111.25 C 169.84 104.42 176.95 97.32 184.00 91.00
C 193.78 97.37 209.30 95.39 217.00 86.00
C 244.61 100.50 271.16 117.23 299.00 131.00
C 297.68 140.60 299.94 151.89 306.25 158.75 C 312.55 165.61 322.19 168.74 330.93 167.93 C 339.66 167.11 347.77 161.61 352.23 154.23 C 356.69 146.85 359.92 135.37 354.77 127.23 C 349.62 119.09 358.61 113.13 363.25 106.25 C 367.88 99.36 374.27 94.40 378.00 87.00
C 376.30 93.78 382.02 112.76 391.75 103.75 C 401.48 94.75 390.61 83.59 395.00 72.00 C 399.39 60.41 385.38 53.05 376.01 58.01 C 366.63 62.97 354.30 55.19 347.93 64.93 C 341.55 74.67 360.77 80.61 367.00 75.00
C 358.91 87.88 347.79 99.30 339.00 112.00
C 330.83 108.57 318.62 108.78 311.70 114.70 C 304.78 120.61 297.42 112.12 290.23 108.77 C 283.04 105.42 276.41 100.45 269.23 96.77 C 262.05 93.09 254.47 88.45 247.25 84.75 C 240.03 81.06 233.51 75.88 226.00 73.00
C 226.45 66.21 226.22 57.64 222.92 52.08 C 219.63 46.51 217.17 43.78 211.69 40.31 C 206.22 36.83 197.65 36.19 191.02 37.02 C 184.40 37.86 181.43 41.05 176.25 45.25 C 171.06 49.45 171.20 55.59 168.33 61.33 C 165.46 67.07 172.62 75.21 172.00 80.00
M 202.00 53.00 
C 217.46 56.83 208.59 85.01 192.99 78.01 C 177.39 71.01 185.03 48.80 202.00 53.00
M 333.00 126.00 
C 347.91 130.52 339.79 157.32 323.93 151.07 C 308.06 144.83 315.47 120.68 333.00 126.00
M 82.00 175.00 
C 97.54 178.85 88.49 207.21 72.93 200.07 C 57.36 192.93 65.19 170.84 82.00 175.00 Z"/>
</g>
<g fill="#6FD15F" fill-opacity="1.00" stroke="None">
<path d="
M 202.00 53.00 
C 185.03 48.80 177.39 71.01 192.99 78.01 C 208.59 85.01 217.46 56.83 202.00 53.00 Z"/>
</g>
<g fill="#676F73" fill-opacity="1.00" stroke="None">
<path d="
M 157.00 95.00 
C 160.15 91.85 171.39 84.65 172.00 80.00
C 166.69 84.43 161.53 89.69 157.00 95.00 Z"/>
</g>
<g fill="#F8D42B" fill-opacity="1.00" stroke="None">
<path d="
M 333.00 126.00 
C 315.47 120.68 308.06 144.83 323.93 151.07 C 339.79 157.32 347.91 130.52 333.00 126.00 Z"/>
</g>
<g fill="#FCD72C" fill-opacity="1.00" stroke="None">
<path d="
M 158.00 213.00 
C 153.10 210.74 149.88 204.36 146.00 201.00
C 137.11 206.79 129.53 216.25 122.00 224.00
C 129.92 231.99 138.95 238.57 132.25 249.25 C 125.56 259.94 121.00 265.98 118.98 278.98 C 116.95 291.97 106.91 298.00 92.00 294.00
C 92.00 297.00 92.00 300.00 92.00 303.00
C 109.33 303.00 126.67 303.00 144.00 303.00
C 147.16 261.17 185.27 223.00 228.00 223.00
C 230.82 222.73 234.24 222.73 237.00 223.00
C 257.53 223.33 277.38 231.83 292.00 246.00
C 300.75 232.30 311.95 216.80 327.00 209.00
C 326.08 205.18 321.88 202.57 319.00 200.00
C 312.16 209.56 304.19 217.04 293.70 210.30 C 283.20 203.57 276.86 200.09 264.22 197.78 C 251.59 195.47 244.89 185.71 249.00 171.00
C 238.00 171.00 227.00 171.00 216.00 171.00
C 217.09 179.60 217.27 195.02 207.02 196.02 C 196.77 197.03 190.35 201.99 181.69 204.69 C 173.04 207.40 167.26 217.28 158.00 213.00 Z"/>
</g>
<g fill="#F76659" fill-opacity="1.00" stroke="None">
<path d="
M 82.00 175.00 
C 65.19 170.84 57.36 192.93 72.93 200.07 C 88.49 207.21 97.54 178.85 82.00 175.00 Z"/>
</g>
<g fill="#5F6669" fill-opacity="1.00" stroke="None">
<path d="
M 374.00 193.00 
C 378.33 193.00 382.67 193.00 387.00 193.00
C 382.98 192.61 378.09 192.60 374.00 193.00 Z"/>
</g>
<g fill="#675812" fill-opacity="1.00" stroke="None">
<path d="
M 122.00 224.00 
C 129.53 216.25 137.11 206.79 146.00 201.00
C 149.88 204.36 153.10 210.74 158.00 213.00
C 153.83 208.54 149.52 202.52 144.00 200.00
C 141.70 204.18 134.73 208.48 132.25 212.25 C 129.77 216.02 121.04 220.51 122.00 224.00 Z"/>
</g>
<g fill="#61B0F0" fill-opacity="1.00" stroke="None">
<path d="
M 463.00 298.00 
C 463.09 293.36 463.18 288.64 463.00 284.00
C 460.67 222.84 385.98 188.98 336.23 221.23 C 286.48 253.48 285.85 328.31 335.77 361.23 C 385.69 394.15 461.77 359.58 463.00 298.00
M 390.00 217.00 
C 444.39 223.57 474.20 291.83 440.70 335.70 C 407.20 379.56 339.05 374.39 314.08 323.92 C 289.10 273.46 331.04 209.87 390.00 217.00 Z"/>
</g>
<g fill="#000000" fill-opacity="1.00" stroke="None">
<path d="
M 390.00 217.00 
C 331.04 209.87 289.10 273.46 314.08 323.92 C 339.05 374.39 407.20 379.56 440.70 335.70 C 474.20 291.83 444.39 223.57 390.00 217.00
M 388.00 233.00 
C 431.14 238.21 453.73 292.00 427.25 326.25 C 400.77 360.49 347.67 356.53 328.08 316.92 C 308.48 277.32 342.18 227.46 388.00 233.00 Z"/>
</g>
<g fill="#847117" fill-opacity="1.00" stroke="None">
<path d="
M 228.00 223.00 
C 231.00 223.00 234.00 223.00 237.00 223.00
C 234.24 222.73 230.82 222.73 228.00 223.00 Z"/>
</g>
<g fill="#6C7578" fill-opacity="1.00" stroke="None">
<path d="
M 117.00 242.00 
C 116.26 237.22 106.69 232.73 104.00 229.00
C 107.09 234.05 112.86 237.83 117.00 242.00 Z"/>
</g>
<g fill="#EDF2F5" fill-opacity="1.00" stroke="None">
<path d="
M 388.00 233.00 
C 342.18 227.46 308.48 277.32 328.08 316.92 C 347.67 356.53 400.77 360.49 427.25 326.25 C 453.73 292.00 431.14 238.21 388.00 233.00 Z"/>
</g>
<g fill="#707374" fill-opacity="1.00" stroke="None">
<path d="
M 228.00 239.00 
C 231.00 238.94 234.00 239.00 237.00 239.00
C 234.18 238.73 230.91 238.65 228.00 239.00 Z"/>
</g>
<g fill="#ECF1F4" fill-opacity="1.00" stroke="None">
<path d="
M 237.00 239.00 
C 234.00 239.00 231.00 238.94 228.00 239.00
C 193.50 239.36 163.55 269.45 160.00 303.00
C 171.33 303.00 182.67 303.00 194.00 303.00
C 200.34 262.49 264.60 262.65 271.00 303.00
C 274.67 303.00 278.33 303.00 282.00 303.00
C 281.67 288.93 281.74 274.89 286.00 262.00
C 272.85 248.62 255.91 239.00 237.00 239.00 Z"/>
</g>
<g fill="#5A6164" fill-opacity="1.00" stroke="None">
<path d="
M 83.00 279.00 
C 88.00 278.16 99.42 281.51 103.00 278.00
C 96.38 278.26 88.90 277.21 83.00 279.00 Z"/>
</g>
<g fill="#366386" fill-opacity="1.00" stroke="None">
<path d="
M 463.00 298.00 
C 463.54 293.53 463.65 288.55 463.00 284.00
C 463.18 288.64 463.09 293.36 463.00 298.00 Z"/>
</g>
<g fill="#FBD62C" fill-opacity="1.00" stroke="None">
<path d="
M 254.00 303.00 
C 248.84 283.36 215.95 282.93 211.00 303.00
C 225.33 303.00 239.67 303.00 254.00 303.00 Z"/>
</g>
<g fill="#003647" fill-opacity="1.00" stroke="None">
<path d="
M 286.00 319.00 
C 196.33 319.00 106.67 319.00 17.00 319.00
C 13.83 350.43 47.23 341.39 70.00 342.00 C 92.77 342.61 121.04 341.72 145.00 342.00 C 168.96 342.28 195.54 341.85 220.00 342.00 C 244.46 342.15 270.41 341.89 295.00 342.00
C 292.48 334.18 287.03 327.29 286.00 319.00 Z"/>
</g>
<g fill="#00475E" fill-opacity="1.00" stroke="None">
<path d="
M 334.00 397.00 
C 328.03 384.91 324.68 379.15 316.75 367.25 C 308.82 355.35 293.00 357.70 279.00 358.00 C 265.00 358.30 246.43 357.84 232.00 358.00 C 217.57 358.17 199.03 357.86 185.00 358.00 C 170.97 358.14 152.92 354.09 147.30 367.31 C 141.69 380.52 135.40 384.12 131.00 397.00
C 198.67 397.00 266.33 397.00 334.00 397.00 Z"/>
</g>
<g fill="#A6C2C7" fill-opacity="1.00" stroke="None">
<path d="
M 433.00 376.00 
C 423.76 375.90 431.15 389.94 437.00 384.00
C 436.42 381.06 433.94 378.91 433.00 376.00 Z"/>
</g>
<g fill="#D18633" fill-opacity="1.00" stroke="None">
<path d="
M 453.00 393.00 
C 446.10 395.97 439.91 400.73 433.00 404.00
C 434.35 406.69 435.63 409.31 437.00 412.00
C 443.43 408.45 449.62 404.66 456.00 401.00
C 455.88 398.03 453.13 395.95 453.00 393.00 Z"/>
</g>
<g fill="#C67428" fill-opacity="1.00" stroke="None">
<path d="
M 465.00 415.00 
C 457.68 418.65 442.42 423.13 449.08 431.92 C 455.73 440.72 456.09 447.74 462.75 456.25 C 469.41 464.77 468.47 472.11 477.77 479.23 C 487.07 486.35 499.67 472.16 492.77 463.23 C 485.88 454.30 484.76 447.57 478.92 439.08 C 473.08 430.59 470.43 423.50 465.00 415.00 Z"/>
</g>
</svg>