<svg xmlns="http://www.w3.org/2000/svg" xmlns:v="https://svgstorm.com"
viewBox = "0 0 512 512"
width="512"
height="512">
<g fill="None" fill-opacity="0.0" stroke="#000000" stroke-opacity="0.00" stroke-width="0.3"><path d="
M 0.00 512.00 
L 512.00 512.00
L 512.00 0.00
L 0.00 0.00
L 0.00 512.00
M 137.00 66.00 
C 146.50 65.88 155.01 78.81 163.08 70.08 C 171.16 61.36 181.26 68.70 187.75 75.25 C 194.24 81.80 201.59 91.82 192.75 99.75 C 183.92 107.69 197.26 116.55 197.00 126.00
C 205.20 124.68 215.00 128.42 217.00 137.00
C 236.80 136.53 256.15 137.62 276.00 137.00 C 295.85 136.38 314.99 138.19 335.00 137.00 C 355.01 135.81 374.72 139.51 395.00 137.00 C 415.28 134.49 427.14 147.05 424.00 167.00 C 420.86 186.95 426.88 207.02 424.00 226.00 C 421.12 244.98 426.07 260.90 435.30 274.70 C 444.53 288.49 449.01 298.84 456.77 312.23 C 464.53 325.62 473.95 336.79 476.00 352.00 C 478.05 367.21 471.25 382.69 455.92 389.92 C 440.60 397.16 419.23 392.76 401.00 394.00 C 382.77 395.24 360.90 392.19 342.00 394.00 C 323.10 395.81 306.73 386.89 288.00 388.00
C 288.43 399.93 296.76 412.40 308.00 413.00 C 319.24 413.60 341.50 408.37 347.75 418.25 C 354.01 428.13 354.33 447.92 349.08 459.08 C 343.82 470.24 323.07 465.36 311.00 466.00 C 298.93 466.64 278.32 465.79 265.00 466.00 C 251.68 466.21 233.37 466.10 220.00 466.00 C 206.63 465.90 186.25 466.44 174.00 466.00 C 161.75 465.56 141.33 469.93 136.23 458.77 C 131.13 447.61 130.64 428.30 137.25 418.25 C 143.87 408.21 165.37 413.60 177.00 413.00 C 188.63 412.40 196.65 399.93 198.00 388.00
C 178.04 387.32 159.05 388.90 139.00 388.00 C 118.95 387.10 100.41 389.73 80.00 388.00 C 59.59 386.27 60.18 364.58 61.00 347.00 C 61.82 329.42 60.58 306.70 61.00 288.00 C 61.42 269.30 60.68 247.02 61.00 228.00
C 51.77 230.46 47.03 222.68 40.25 216.75 C 33.46 210.82 32.23 199.88 39.25 193.25 C 46.27 186.62 33.04 177.11 34.00 169.00
C 5.24 175.11 5.20 119.86 34.00 126.00
C 33.32 116.56 47.41 107.72 38.25 99.75 C 29.09 91.79 36.70 81.80 43.25 75.25 C 49.79 68.69 59.75 61.09 67.75 70.25 C 75.76 79.41 84.47 65.34 94.00 66.00
C 87.95 37.23 143.04 37.21 137.00 66.00 Z"/>
</g>
<g fill="None" fill-opacity="0.0" stroke="#000000" stroke-opacity="1.00" stroke-width="0.3"><path d="
M 137.00 66.00 
C 143.04 37.21 87.95 37.23 94.00 66.00
C 84.47 65.34 75.76 79.41 67.75 70.25 C 59.75 61.09 49.79 68.69 43.25 75.25 C 36.70 81.80 29.09 91.79 38.25 99.75 C 47.41 107.72 33.32 116.56 34.00 126.00
C 5.20 119.86 5.24 175.11 34.00 169.00
C 33.04 177.11 46.27 186.62 39.25 193.25 C 32.23 199.88 33.46 210.82 40.25 216.75 C 47.03 222.68 51.77 230.46 61.00 228.00
C 60.68 247.02 61.42 269.30 61.00 288.00 C 60.58 306.70 61.82 329.42 61.00 347.00 C 60.18 364.58 59.59 386.27 80.00 388.00 C 100.41 389.73 118.95 387.10 139.00 388.00 C 159.05 388.90 178.04 387.32 198.00 388.00
C 196.65 399.93 188.63 412.40 177.00 413.00 C 165.37 413.60 143.87 408.21 137.25 418.25 C 130.64 428.30 131.13 447.61 136.23 458.77 C 141.33 469.93 161.75 465.56 174.00 466.00 C 186.25 466.44 206.63 465.90 220.00 466.00 C 233.37 466.10 251.68 466.21 265.00 466.00 C 278.32 465.79 298.93 466.64 311.00 466.00 C 323.07 465.36 343.82 470.24 349.08 459.08 C 354.33 447.92 354.01 428.13 347.75 418.25 C 341.50 408.37 319.24 413.60 308.00 413.00 C 296.76 412.40 288.43 399.93 288.00 388.00
C 306.73 386.89 323.10 395.81 342.00 394.00 C 360.90 392.19 382.77 395.24 401.00 394.00 C 419.23 392.76 440.60 397.16 455.92 389.92 C 471.25 382.69 478.05 367.21 476.00 352.00 C 473.95 336.79 464.53 325.62 456.77 312.23 C 449.01 298.84 444.53 288.49 435.30 274.70 C 426.07 260.90 421.12 244.98 424.00 226.00 C 426.88 207.02 420.86 186.95 424.00 167.00 C 427.14 147.05 415.28 134.49 395.00 137.00 C 374.72 139.51 355.01 135.81 335.00 137.00 C 314.99 138.19 295.85 136.38 276.00 137.00 C 256.15 137.62 236.80 136.53 217.00 137.00
C 215.00 128.42 205.20 124.68 197.00 126.00
C 197.26 116.55 183.92 107.69 192.75 99.75 C 201.59 91.82 194.24 81.80 187.75 75.25 C 181.26 68.70 171.16 61.36 163.08 70.08 C 155.01 78.81 146.50 65.88 137.00 66.00
M 123.00 59.00 
C 118.82 74.31 133.12 77.92 143.02 81.98 C 152.93 86.03 164.65 93.03 172.00 80.00
C 176.63 81.09 178.87 86.82 183.00 89.00
C 172.14 97.64 175.45 109.24 180.32 119.68 C 185.19 130.12 188.45 143.55 204.00 140.00
C 204.00 145.00 204.00 150.00 204.00 155.00
C 188.54 150.61 185.08 164.69 180.69 174.69 C 176.31 184.70 170.42 196.65 183.00 204.00
C 180.29 208.14 175.65 210.91 173.00 215.00
C 164.91 203.28 153.52 207.50 143.31 212.31 C 133.09 217.11 118.67 220.07 123.00 236.00
C 118.00 236.00 113.00 236.00 108.00 236.00
C 112.23 220.69 98.29 216.97 88.31 212.69 C 78.32 208.42 66.18 202.07 59.00 215.00
C 54.86 212.30 52.09 207.65 48.00 205.00
C 59.58 196.66 55.16 185.66 50.68 175.32 C 46.20 164.98 42.70 150.75 27.00 155.00
C 27.00 150.00 27.00 145.00 27.00 140.00
C 42.13 143.99 46.11 129.95 49.98 119.98 C 53.84 110.00 61.30 98.30 48.00 91.00
C 49.09 86.37 54.82 84.13 57.00 80.00
C 65.91 90.91 76.78 87.21 87.23 82.23 C 97.67 77.25 111.83 75.32 108.00 59.00
C 113.00 59.00 118.00 59.00 123.00 59.00
M 410.00 155.00 
C 414.51 166.09 409.44 180.56 411.00 193.00 C 412.56 205.44 409.83 220.34 411.00 233.00
C 408.78 233.05 407.01 230.71 406.00 229.00
C 403.72 227.46 400.84 226.96 398.92 225.08 C 397.01 223.20 391.44 223.47 390.00 222.00
C 385.36 217.27 390.65 204.77 389.00 198.00 C 387.35 191.23 390.21 180.17 389.00 173.00
C 385.27 160.71 362.41 168.61 350.00 167.00 C 337.59 165.39 317.97 167.75 304.00 167.00 C 290.03 166.25 272.62 167.39 258.00 167.00 C 243.38 166.61 226.80 167.29 212.00 167.00
C 216.33 162.30 219.03 156.68 218.00 150.00
C 234.18 150.21 250.88 149.72 267.00 150.00 C 283.12 150.28 300.07 149.47 316.00 150.00 C 331.93 150.53 349.53 148.86 365.00 150.00 C 380.47 151.14 399.25 145.32 410.00 155.00
M 375.00 222.00 
C 371.68 225.74 361.82 225.06 358.25 230.25 C 354.68 235.45 349.76 238.47 347.25 244.25 C 344.73 250.02 341.03 255.60 338.08 261.08 C 335.12 266.55 331.79 271.39 328.75 276.75 C 325.70 282.10 323.15 287.56 319.70 292.70 C 316.24 297.84 313.79 304.18 310.23 309.23 C 306.66 314.28 304.86 320.29 301.08 325.08 C 297.29 329.86 295.76 337.65 292.00 342.00
C 287.23 347.52 275.51 342.86 268.00 344.00 C 260.49 345.14 250.21 343.56 242.00 344.00 C 233.79 344.44 223.44 343.90 215.00 344.00 C 206.56 344.10 197.42 344.22 189.00 344.00 C 180.58 343.78 170.13 344.65 162.00 344.00 C 153.87 343.35 143.30 345.59 136.00 344.00 C 128.70 342.41 114.90 347.90 110.00 343.00
C 105.71 338.71 110.37 328.39 109.00 322.00 C 107.63 315.61 109.82 307.24 109.00 300.00 C 108.18 292.76 109.83 286.02 109.00 278.00 C 108.17 269.98 110.39 265.25 109.00 256.00 C 107.61 246.75 117.19 250.16 123.00 250.00
C 133.27 248.73 139.04 239.34 137.00 229.00
C 144.84 228.00 151.63 223.49 159.00 221.00
C 173.44 245.01 213.00 205.38 189.00 191.00
C 189.43 187.37 192.58 184.65 193.00 181.00
C 253.67 181.00 314.33 181.00 375.00 181.00
C 378.18 183.22 375.96 196.68 376.00 201.00 C 376.04 205.32 377.84 218.80 375.00 222.00
M 94.00 229.00 
C 96.22 242.66 95.50 259.07 96.00 273.00 C 96.50 286.93 94.57 306.20 96.00 319.00 C 97.43 331.80 89.27 354.96 104.00 357.00 C 118.74 359.04 134.92 356.07 150.00 357.00 C 165.08 357.93 180.73 356.57 196.00 357.00 C 211.27 357.43 226.59 356.78 242.00 357.00 C 257.41 357.22 273.53 356.83 289.00 357.00
C 288.63 363.10 290.30 368.75 293.00 374.00
C 277.72 374.01 262.26 373.99 247.00 374.00 C 231.74 374.01 216.20 373.98 201.00 374.00 C 185.80 374.02 170.04 373.96 155.00 374.00 C 139.96 374.05 122.60 373.90 108.00 374.00 C 93.40 374.10 73.66 378.50 75.00 361.00 C 76.34 343.50 74.38 331.39 75.00 315.00 C 75.62 298.61 74.68 284.98 75.00 269.00 C 75.32 253.02 74.76 237.90 75.00 222.00
C 81.04 225.19 87.26 227.90 94.00 229.00
M 387.00 236.00 
C 405.05 239.74 410.34 259.88 418.92 274.08 C 427.51 288.27 436.93 303.49 444.77 318.23 C 452.61 332.97 469.27 350.44 460.00 368.00
C 455.94 375.69 448.43 379.68 440.00 380.00
C 422.14 382.55 401.67 381.00 383.00 381.00 C 364.33 381.00 343.78 382.54 326.00 380.00
C 296.43 378.87 301.62 346.24 314.25 330.25 C 326.89 314.26 333.20 292.67 344.92 276.92 C 356.64 261.17 362.39 230.90 387.00 236.00
M 274.00 388.00 
C 274.98 396.50 278.57 404.39 282.00 412.00
C 255.67 412.00 229.33 412.00 203.00 412.00
C 206.90 404.42 210.83 396.76 211.00 388.00
C 232.00 388.00 253.00 388.00 274.00 388.00
M 338.00 439.00 
C 338.00 442.37 339.29 449.71 337.00 452.00
C 332.51 456.49 320.68 451.64 314.00 453.00 C 307.32 454.36 297.39 452.40 290.00 453.00 C 282.61 453.60 273.69 452.75 266.00 453.00 C 258.31 453.25 249.79 452.93 242.00 453.00 C 234.21 453.07 224.63 453.06 217.00 453.00 C 209.37 452.94 200.06 453.24 193.00 453.00 C 185.94 452.76 174.86 453.57 169.00 453.00 C 163.14 452.43 148.77 455.24 147.08 450.92 C 145.40 446.59 145.48 429.52 148.00 427.00
C 152.73 422.27 164.85 427.42 172.00 426.00 C 179.15 424.58 190.09 426.68 198.00 426.00 C 205.91 425.32 214.67 426.33 223.00 426.00 C 231.33 425.67 240.41 426.23 249.00 426.00 C 257.59 425.77 265.06 426.29 274.00 426.00 C 282.94 425.71 290.47 426.52 300.00 426.00 C 309.53 425.48 314.08 427.14 325.00 426.00 C 335.92 424.86 338.00 427.48 338.00 439.00 Z"/>
</g>
<g fill="None" fill-opacity="0.0" stroke="#7E7E7E" stroke-opacity="1.00" stroke-width="0.3"><path d="
M 123.00 59.00 
C 118.00 59.00 113.00 59.00 108.00 59.00
C 111.83 75.32 97.67 77.25 87.23 82.23 C 76.78 87.21 65.91 90.91 57.00 80.00
C 54.82 84.13 49.09 86.37 48.00 91.00
C 61.30 98.30 53.84 110.00 49.98 119.98 C 46.11 129.95 42.13 143.99 27.00 140.00
C 27.00 145.00 27.00 150.00 27.00 155.00
C 42.70 150.75 46.20 164.98 50.68 175.32 C 55.16 185.66 59.58 196.66 48.00 205.00
C 52.09 207.65 54.86 212.30 59.00 215.00
C 66.18 202.07 78.32 208.42 88.31 212.69 C 98.29 216.97 112.23 220.69 108.00 236.00
C 113.00 236.00 118.00 236.00 123.00 236.00
C 118.67 220.07 133.09 217.11 143.31 212.31 C 153.52 207.50 164.91 203.28 173.00 215.00
C 175.65 210.91 180.29 208.14 183.00 204.00
C 170.42 196.65 176.31 184.70 180.69 174.69 C 185.08 164.69 188.54 150.61 204.00 155.00
C 204.00 150.00 204.00 145.00 204.00 140.00
C 188.45 143.55 185.19 130.12 180.32 119.68 C 175.45 109.24 172.14 97.64 183.00 89.00
C 178.87 86.82 176.63 81.09 172.00 80.00
C 164.65 93.03 152.93 86.03 143.02 81.98 C 133.12 77.92 118.82 74.31 123.00 59.00
M 121.00 94.00 
C 160.56 95.51 181.99 144.92 160.70 176.70 C 139.41 208.48 91.58 208.53 70.25 176.75 C 48.91 144.97 70.66 95.50 110.00 94.00
C 113.68 93.47 117.39 93.48 121.00 94.00
M 162.00 97.00 
C 167.56 99.72 162.28 111.16 155.93 107.07 C 149.57 102.99 155.68 93.91 162.00 97.00 Z"/>
</g>
<g fill="None" fill-opacity="0.0" stroke="#414141" stroke-opacity="1.00" stroke-width="0.3"><path d="
M 110.00 94.00 
C 113.63 93.86 117.37 93.86 121.00 94.00
C 117.39 93.48 113.68 93.47 110.00 94.00 Z"/>
</g>
<g fill="None" fill-opacity="0.0" stroke="#000000" stroke-opacity="1.00" stroke-width="0.3"><path d="
M 121.00 94.00 
C 117.37 93.86 113.63 93.86 110.00 94.00
C 70.66 95.50 48.91 144.97 70.25 176.75 C 91.58 208.53 139.41 208.48 160.70 176.70 C 181.99 144.92 160.56 95.51 121.00 94.00
M 120.00 108.00 
C 125.17 108.28 129.43 109.69 134.00 112.00
C 159.93 125.11 161.88 161.78 139.25 179.25 C 116.61 196.71 79.24 182.04 76.00 153.00
C 73.58 131.33 88.78 109.51 111.00 108.00
C 114.19 107.43 116.89 107.49 120.00 108.00 Z"/>
</g>
<g fill="None" fill-opacity="0.0" stroke="#AFB0B0" stroke-opacity="1.00" stroke-width="0.3"><path d="
M 162.00 97.00 
C 155.68 93.91 149.57 102.99 155.93 107.07 C 162.28 111.16 167.56 99.72 162.00 97.00 Z"/>
</g>
<g fill="None" fill-opacity="0.0" stroke="#5A5B5B" stroke-opacity="1.00" stroke-width="0.3"><path d="
M 111.00 108.00 
C 113.92 107.80 117.08 107.84 120.00 108.00
C 116.89 107.49 114.19 107.43 111.00 108.00 Z"/>
</g>
<g fill="None" fill-opacity="0.0" stroke="#B1B2B2" stroke-opacity="1.00" stroke-width="0.3"><path d="
M 76.00 153.00 
C 76.25 126.17 110.07 106.15 134.00 112.00
C 129.43 109.69 125.17 108.28 120.00 108.00
C 117.08 107.84 113.92 107.80 111.00 108.00
C 88.78 109.51 73.58 131.33 76.00 153.00 Z"/>
</g>
<g fill="None" fill-opacity="0.0" stroke="#E7E7E7" stroke-opacity="1.00" stroke-width="0.3"><path d="
M 76.00 153.00 
C 79.24 182.04 116.61 196.71 139.25 179.25 C 161.88 161.78 159.93 125.11 134.00 112.00
C 110.07 106.15 76.25 126.17 76.00 153.00 Z"/>
</g>
<g fill="None" fill-opacity="0.0" stroke="#7A8BC0" stroke-opacity="1.00" stroke-width="0.3"><path d="
M 389.00 173.00 
C 393.48 187.77 387.72 206.31 390.00 222.00
C 391.44 223.47 397.01 223.20 398.92 225.08 C 400.84 226.96 403.72 227.46 406.00 229.00
C 407.39 229.94 408.54 231.26 410.00 232.00
C 410.00 206.33 410.00 180.67 410.00 155.00
C 399.25 145.32 380.47 151.14 365.00 150.00 C 349.53 148.86 331.93 150.53 316.00 150.00 C 300.07 149.47 283.12 150.28 267.00 150.00 C 250.88 149.72 234.18 150.21 218.00 150.00
C 219.03 156.68 216.33 162.30 212.00 167.00
C 226.80 167.29 243.38 166.61 258.00 167.00 C 272.62 167.39 290.03 166.25 304.00 167.00 C 317.97 167.75 337.59 165.39 350.00 167.00 C 362.41 168.61 385.27 160.71 389.00 173.00 Z"/>
</g>
<g fill="None" fill-opacity="0.0" stroke="#3E4661" stroke-opacity="1.00" stroke-width="0.3"><path d="
M 406.00 229.00 
C 407.01 230.71 408.78 233.05 411.00 233.00
C 409.83 220.34 412.56 205.44 411.00 193.00 C 409.44 180.56 414.51 166.09 410.00 155.00
C 410.00 180.67 410.00 206.33 410.00 232.00
C 408.54 231.26 407.39 229.94 406.00 229.00 Z"/>
</g>
<g fill="None" fill-opacity="0.0" stroke="#3D4661" stroke-opacity="1.00" stroke-width="0.3"><path d="
M 390.00 222.00 
C 387.72 206.31 393.48 187.77 389.00 173.00
C 390.21 180.17 387.35 191.23 389.00 198.00 C 390.65 204.77 385.36 217.27 390.00 222.00 Z"/>
</g>
<g fill="None" fill-opacity="0.0" stroke="#E6DBE9" stroke-opacity="1.00" stroke-width="0.3"><path d="
M 123.00 250.00 
C 118.73 250.53 114.28 249.60 110.00 250.00
C 110.00 281.00 110.00 312.00 110.00 343.00
C 118.65 342.97 127.36 343.04 136.00 343.00 C 144.64 342.96 153.38 343.07 162.00 343.00 C 170.62 342.93 179.44 343.15 188.00 343.00 C 196.56 342.85 205.56 343.32 214.00 343.00 C 222.44 342.68 231.84 343.71 240.00 343.00 C 248.16 342.29 258.46 344.58 266.00 343.00 C 273.54 341.42 286.17 346.84 292.00 342.00
C 295.76 337.65 297.29 329.86 301.08 325.08 C 304.86 320.29 306.66 314.28 310.23 309.23 C 313.79 304.18 316.24 297.84 319.70 292.70 C 323.15 287.56 325.70 282.10 328.75 276.75 C 331.79 271.39 335.12 266.55 338.08 261.08 C 341.03 255.60 344.73 250.02 347.25 244.25 C 349.76 238.47 354.68 235.45 358.25 230.25 C 361.82 225.06 371.68 225.74 375.00 222.00
C 375.00 208.33 375.00 194.67 375.00 181.00
C 314.33 181.00 253.67 181.00 193.00 181.00
C 192.58 184.65 189.43 187.37 189.00 191.00
C 213.00 205.38 173.44 245.01 159.00 221.00
C 151.63 223.49 144.84 228.00 137.00 229.00
C 139.04 239.34 133.27 248.73 123.00 250.00
M 284.00 255.00 
C 273.65 261.08 273.93 267.41 261.92 272.92 C 249.91 278.43 262.02 289.69 257.68 299.68 C 253.33 309.67 239.79 314.48 230.00 311.00
C 219.50 318.93 212.46 328.49 199.77 333.77 C 187.08 339.05 169.50 331.85 163.23 319.77 C 156.96 307.69 158.41 291.00 170.25 282.25 C 182.09 273.50 191.59 266.76 193.98 252.98 C 196.36 239.19 222.66 234.94 227.00 248.00
C 237.15 245.10 243.04 234.45 252.25 229.25 C 261.46 224.05 256.98 202.83 269.22 202.22 C 281.47 201.62 290.78 187.25 300.75 194.25 C 310.71 201.26 311.97 209.46 320.75 218.25 C 329.53 227.04 314.55 236.48 311.08 246.08 C 307.61 255.68 294.35 263.90 284.00 255.00 Z"/>
</g>
<g fill="None" fill-opacity="0.0" stroke="#726D74" stroke-opacity="1.00" stroke-width="0.3"><path d="
M 375.00 222.00 
C 377.84 218.80 376.04 205.32 376.00 201.00 C 375.96 196.68 378.18 183.22 375.00 181.00
C 375.00 194.67 375.00 208.33 375.00 222.00 Z"/>
</g>
<g fill="None" fill-opacity="0.0" stroke="#000000" stroke-opacity="1.00" stroke-width="0.3"><path d="
M 284.00 255.00 
C 294.35 263.90 307.61 255.68 311.08 246.08 C 314.55 236.48 329.53 227.04 320.75 218.25 C 311.97 209.46 310.71 201.26 300.75 194.25 C 290.78 187.25 281.47 201.62 269.22 202.22 C 256.98 202.83 261.46 224.05 252.25 229.25 C 243.04 234.45 237.15 245.10 227.00 248.00
C 222.66 234.94 196.36 239.19 193.98 252.98 C 191.59 266.76 182.09 273.50 170.25 282.25 C 158.41 291.00 156.96 307.69 163.23 319.77 C 169.50 331.85 187.08 339.05 199.77 333.77 C 212.46 328.49 219.50 318.93 230.00 311.00
C 239.79 314.48 253.33 309.67 257.68 299.68 C 262.02 289.69 249.91 278.43 261.92 272.92 C 273.93 267.41 273.65 261.08 284.00 255.00
M 295.00 208.00 
C 295.60 214.55 307.82 218.80 307.92 225.08 C 308.02 231.36 296.80 237.65 296.00 244.00
C 274.48 233.26 261.24 260.55 244.00 269.00
C 242.20 265.27 238.51 262.84 237.00 259.00
C 243.90 253.43 251.64 249.27 258.08 243.08 C 264.52 236.89 275.68 233.41 273.07 222.93 C 270.47 212.44 287.80 210.49 295.00 208.00
M 215.00 254.00 
C 219.66 255.46 221.69 266.16 226.25 268.75 C 230.82 271.33 233.41 280.60 237.77 283.23 C 242.13 285.86 247.53 297.07 240.30 297.30 C 233.07 297.54 228.49 293.59 222.75 299.75 C 217.02 305.91 213.70 305.96 208.25 311.25 C 202.80 316.54 198.24 319.58 191.00 321.00 C 183.75 322.42 177.57 317.32 174.70 311.30 C 171.82 305.29 173.97 296.88 178.75 292.75 C 183.54 288.62 189.09 285.20 193.25 281.25 C 197.41 277.30 204.54 273.38 207.75 269.75 C 210.96 266.12 203.98 250.55 215.00 254.00 Z"/>
</g>
<g fill="None" fill-opacity="0.0" stroke="#A6D9E4" stroke-opacity="1.00" stroke-width="0.3"><path d="
M 295.00 208.00 
C 287.80 210.49 270.47 212.44 273.07 222.93 C 275.68 233.41 264.52 236.89 258.08 243.08 C 251.64 249.27 243.90 253.43 237.00 259.00
C 238.51 262.84 242.20 265.27 244.00 269.00
C 261.24 260.55 274.48 233.26 296.00 244.00
C 296.80 237.65 308.02 231.36 307.92 225.08 C 307.82 218.80 295.60 214.55 295.00 208.00 Z"/>
</g>
<g fill="None" fill-opacity="0.0" stroke="#7B8BC0" stroke-opacity="1.00" stroke-width="0.3"><path d="
M 94.00 229.00 
C 87.26 227.90 81.04 225.19 75.00 222.00
C 74.76 237.90 75.32 253.02 75.00 269.00 C 74.68 284.98 75.62 298.61 75.00 315.00 C 74.38 331.39 76.34 343.50 75.00 361.00 C 73.66 378.50 93.40 374.10 108.00 374.00 C 122.60 373.90 139.96 374.05 155.00 374.00 C 170.04 373.96 185.80 374.02 201.00 374.00 C 216.20 373.98 231.74 374.01 247.00 374.00 C 262.26 373.99 277.72 374.01 293.00 374.00
C 290.30 368.75 288.63 363.10 289.00 357.00
C 273.53 356.83 257.41 357.22 242.00 357.00 C 226.59 356.78 211.27 357.43 196.00 357.00 C 180.73 356.57 165.08 357.93 150.00 357.00 C 134.92 356.07 118.74 359.04 104.00 357.00 C 89.27 354.96 97.43 331.80 96.00 319.00 C 94.57 306.20 96.50 286.93 96.00 273.00 C 95.50 259.07 96.22 242.66 94.00 229.00 Z"/>
</g>
<g fill="None" fill-opacity="0.0" stroke="#F4841E" stroke-opacity="1.00" stroke-width="0.3"><path d="
M 326.00 380.00 
C 363.62 381.44 402.38 381.44 440.00 380.00
C 448.43 379.68 455.94 375.69 460.00 368.00
C 453.33 371.60 441.72 366.37 434.00 368.00 C 426.28 369.63 416.13 367.25 408.00 368.00 C 399.87 368.75 390.19 367.64 382.00 368.00 C 373.81 368.36 363.48 368.18 355.93 367.07 C 348.37 365.97 344.97 362.39 339.75 357.25 C 334.53 352.11 332.69 346.14 332.00 339.00 C 331.31 331.85 333.89 324.30 337.75 318.75 C 341.62 313.20 343.70 306.76 347.31 301.31 C 350.91 295.85 353.84 290.41 356.92 284.92 C 360.01 279.44 363.30 273.73 366.75 268.75 C 370.21 263.77 372.09 256.16 375.92 251.92 C 379.76 247.69 381.45 237.05 387.00 236.00
C 362.39 230.90 356.64 261.17 344.92 276.92 C 333.20 292.67 326.89 314.26 314.25 330.25 C 301.62 346.24 296.43 378.87 326.00 380.00 Z"/>
</g>
<g fill="None" fill-opacity="0.0" stroke="#F9A11A" stroke-opacity="1.00" stroke-width="0.3"><path d="
M 460.00 368.00 
C 469.27 350.44 452.61 332.97 444.77 318.23 C 436.93 303.49 427.51 288.27 418.92 274.08 C 410.34 259.88 405.05 239.74 387.00 236.00
C 381.45 237.05 379.76 247.69 375.92 251.92 C 372.09 256.16 370.21 263.77 366.75 268.75 C 363.30 273.73 360.01 279.44 356.92 284.92 C 353.84 290.41 350.91 295.85 347.31 301.31 C 343.70 306.76 341.62 313.20 337.75 318.75 C 333.89 324.30 331.31 331.85 332.00 339.00 C 332.69 346.14 334.53 352.11 339.75 357.25 C 344.97 362.39 348.37 365.97 355.93 367.07 C 363.48 368.18 373.81 368.36 382.00 368.00 C 390.19 367.64 399.87 368.75 408.00 368.00 C 416.13 367.25 426.28 369.63 434.00 368.00 C 441.72 366.37 453.33 371.60 460.00 368.00
M 385.00 268.00 
C 393.18 269.79 390.14 285.24 390.00 293.00 C 389.86 300.76 391.52 313.61 390.00 323.00 C 388.48 332.39 373.68 328.54 376.00 319.00 C 378.33 309.46 374.93 297.04 376.00 289.00 C 377.07 280.96 372.94 265.36 385.00 268.00
M 385.00 337.00 
C 394.23 339.02 390.91 359.14 381.00 356.00 C 371.08 352.85 375.33 334.89 385.00 337.00 Z"/>
</g>
<g fill="None" fill-opacity="0.0" stroke="#232224" stroke-opacity="1.00" stroke-width="0.3"><path d="
M 110.00 343.00 
C 110.00 312.00 110.00 281.00 110.00 250.00
C 114.28 249.60 118.73 250.53 123.00 250.00
C 117.19 250.16 107.61 246.75 109.00 256.00 C 110.39 265.25 108.17 269.98 109.00 278.00 C 109.83 286.02 108.18 292.76 109.00 300.00 C 109.82 307.24 107.63 315.61 109.00 322.00 C 110.37 328.39 105.71 338.71 110.00 343.00 Z"/>
</g>
<g fill="None" fill-opacity="0.0" stroke="#36BCC1" stroke-opacity="1.00" stroke-width="0.3"><path d="
M 215.00 254.00 
C 203.98 250.55 210.96 266.12 207.75 269.75 C 204.54 273.38 197.41 277.30 193.25 281.25 C 189.09 285.20 183.54 288.62 178.75 292.75 C 173.97 296.88 171.82 305.29 174.70 311.30 C 177.57 317.32 183.75 322.42 191.00 321.00 C 198.24 319.58 202.80 316.54 208.25 311.25 C 213.70 305.96 217.02 305.91 222.75 299.75 C 228.49 293.59 233.07 297.54 240.30 297.30 C 247.53 297.07 242.13 285.86 237.77 283.23 C 233.41 280.60 230.82 271.33 226.25 268.75 C 221.69 266.16 219.66 255.46 215.00 254.00
M 213.00 282.00 
C 221.87 284.65 214.56 297.25 208.25 299.25 C 201.93 301.25 197.88 313.08 189.33 309.67 C 180.78 306.26 187.27 295.31 193.75 292.75 C 200.23 290.20 204.82 279.55 213.00 282.00 Z"/>
</g>
<g fill="None" fill-opacity="0.0" stroke="#000000" stroke-opacity="1.00" stroke-width="0.3"><path d="
M 385.00 268.00 
C 372.94 265.36 377.07 280.96 376.00 289.00 C 374.93 297.04 378.33 309.46 376.00 319.00 C 373.68 328.54 388.48 332.39 390.00 323.00 C 391.52 313.61 389.86 300.76 390.00 293.00 C 390.14 285.24 393.18 269.79 385.00 268.00 Z"/>
</g>
<g fill="None" fill-opacity="0.0" stroke="#000000" stroke-opacity="1.00" stroke-width="0.3"><path d="
M 213.00 282.00 
C 204.82 279.55 200.23 290.20 193.75 292.75 C 187.27 295.31 180.78 306.26 189.33 309.67 C 197.88 313.08 201.93 301.25 208.25 299.25 C 214.56 297.25 221.87 284.65 213.00 282.00 Z"/>
</g>
<g fill="None" fill-opacity="0.0" stroke="#000000" stroke-opacity="1.00" stroke-width="0.3"><path d="
M 385.00 337.00 
C 375.33 334.89 371.08 352.85 381.00 356.00 C 390.91 359.14 394.23 339.02 385.00 337.00 Z"/>
</g>
<g fill="None" fill-opacity="0.0" stroke="#6B666D" stroke-opacity="1.00" stroke-width="0.3"><path d="
M 110.00 343.00 
C 114.90 347.90 128.70 342.41 136.00 344.00 C 143.30 345.59 153.87 343.35 162.00 344.00 C 170.13 344.65 180.58 343.78 189.00 344.00 C 197.42 344.22 206.56 344.10 215.00 344.00 C 223.44 343.90 233.79 344.44 242.00 344.00 C 250.21 343.56 260.49 345.14 268.00 344.00 C 275.51 342.86 287.23 347.52 292.00 342.00
C 286.17 346.84 273.54 341.42 266.00 343.00 C 258.46 344.58 248.16 342.29 240.00 343.00 C 231.84 343.71 222.44 342.68 214.00 343.00 C 205.56 343.32 196.56 342.85 188.00 343.00 C 179.44 343.15 170.62 342.93 162.00 343.00 C 153.38 343.07 144.64 342.96 136.00 343.00 C 127.36 343.04 118.65 342.97 110.00 343.00 Z"/>
</g>
<g fill="None" fill-opacity="0.0" stroke="#723D0D" stroke-opacity="1.00" stroke-width="0.3"><path d="
M 440.00 380.00 
C 402.38 381.44 363.62 381.44 326.00 380.00
C 343.78 382.54 364.33 381.00 383.00 381.00 C 401.67 381.00 422.14 382.55 440.00 380.00 Z"/>
</g>
<g fill="None" fill-opacity="0.0" stroke="#9EACD7" stroke-opacity="1.00" stroke-width="0.3"><path d="
M 274.00 388.00 
C 253.00 388.00 232.00 388.00 211.00 388.00
C 210.83 396.76 206.90 404.42 203.00 412.00
C 229.33 412.00 255.67 412.00 282.00 412.00
C 278.57 404.39 274.98 396.50 274.00 388.00 Z"/>
</g>
<g fill="None" fill-opacity="0.0" stroke="#414C72" stroke-opacity="1.00" stroke-width="0.3"><path d="
M 148.00 427.00 
C 211.00 427.00 274.00 427.00 337.00 427.00
C 337.63 430.83 335.72 435.99 338.00 439.00
C 338.00 427.48 335.92 424.86 325.00 426.00 C 314.08 427.14 309.53 425.48 300.00 426.00 C 290.47 426.52 282.94 425.71 274.00 426.00 C 265.06 426.29 257.59 425.77 249.00 426.00 C 240.41 426.23 231.33 425.67 223.00 426.00 C 214.67 426.33 205.91 425.32 198.00 426.00 C 190.09 426.68 179.15 424.58 172.00 426.00 C 164.85 427.42 152.73 422.27 148.00 427.00 Z"/>
</g>
<g fill="None" fill-opacity="0.0" stroke="#292E3E" stroke-opacity="1.00" stroke-width="0.3"><path d="
M 337.00 452.00 
C 274.00 452.00 211.00 452.00 148.00 452.00
C 148.00 447.67 148.00 443.33 148.00 439.00
C 148.00 435.00 148.00 431.00 148.00 427.00
C 145.48 429.52 145.40 446.59 147.08 450.92 C 148.77 455.24 163.14 452.43 169.00 453.00 C 174.86 453.57 185.94 452.76 193.00 453.00 C 200.06 453.24 209.37 452.94 217.00 453.00 C 224.63 453.06 234.21 453.07 242.00 453.00 C 249.79 452.93 258.31 453.25 266.00 453.00 C 273.69 452.75 282.61 453.60 290.00 453.00 C 297.39 452.40 307.32 454.36 314.00 453.00 C 320.68 451.64 332.51 456.49 337.00 452.00 Z"/>
</g>
<g fill="None" fill-opacity="0.0" stroke="#6071AA" stroke-opacity="1.00" stroke-width="0.3"><path d="
M 148.00 439.00 
C 211.00 439.00 274.00 439.00 337.00 439.00
C 337.00 443.33 337.00 447.67 337.00 452.00
C 339.29 449.71 338.00 442.37 338.00 439.00
C 335.72 435.99 337.63 430.83 337.00 427.00
C 274.00 427.00 211.00 427.00 148.00 427.00
C 148.00 431.00 148.00 435.00 148.00 439.00 Z"/>
</g>
<g fill="None" fill-opacity="0.0" stroke="#7E8CBA" stroke-opacity="1.00" stroke-width="0.3"><path d="
M 337.00 452.00 
C 337.00 447.67 337.00 443.33 337.00 439.00
C 274.00 439.00 211.00 439.00 148.00 439.00
C 148.00 443.33 148.00 447.67 148.00 452.00
C 211.00 452.00 274.00 452.00 337.00 452.00 Z"/>
</g>
<g fill="#000000" fill-opacity="0.00" stroke="None">
<path d="
M 0.00 512.00 
L 512.00 512.00
L 512.00 0.00
L 0.00 0.00
L 0.00 512.00
M 137.00 66.00 
C 146.50 65.88 155.01 78.81 163.08 70.08 C 171.16 61.36 181.26 68.70 187.75 75.25 C 194.24 81.80 201.59 91.82 192.75 99.75 C 183.92 107.69 197.26 116.55 197.00 126.00
C 205.20 124.68 215.00 128.42 217.00 137.00
C 236.80 136.53 256.15 137.62 276.00 137.00 C 295.85 136.38 314.99 138.19 335.00 137.00 C 355.01 135.81 374.72 139.51 395.00 137.00 C 415.28 134.49 427.14 147.05 424.00 167.00 C 420.86 186.95 426.88 207.02 424.00 226.00 C 421.12 244.98 426.07 260.90 435.30 274.70 C 444.53 288.49 449.01 298.84 456.77 312.23 C 464.53 325.62 473.95 336.79 476.00 352.00 C 478.05 367.21 471.25 382.69 455.92 389.92 C 440.60 397.16 419.23 392.76 401.00 394.00 C 382.77 395.24 360.90 392.19 342.00 394.00 C 323.10 395.81 306.73 386.89 288.00 388.00
C 288.43 399.93 296.76 412.40 308.00 413.00 C 319.24 413.60 341.50 408.37 347.75 418.25 C 354.01 428.13 354.33 447.92 349.08 459.08 C 343.82 470.24 323.07 465.36 311.00 466.00 C 298.93 466.64 278.32 465.79 265.00 466.00 C 251.68 466.21 233.37 466.10 220.00 466.00 C 206.63 465.90 186.25 466.44 174.00 466.00 C 161.75 465.56 141.33 469.93 136.23 458.77 C 131.13 447.61 130.64 428.30 137.25 418.25 C 143.87 408.21 165.37 413.60 177.00 413.00 C 188.63 412.40 196.65 399.93 198.00 388.00
C 178.04 387.32 159.05 388.90 139.00 388.00 C 118.95 387.10 100.41 389.73 80.00 388.00 C 59.59 386.27 60.18 364.58 61.00 347.00 C 61.82 329.42 60.58 306.70 61.00 288.00 C 61.42 269.30 60.68 247.02 61.00 228.00
C 51.77 230.46 47.03 222.68 40.25 216.75 C 33.46 210.82 32.23 199.88 39.25 193.25 C 46.27 186.62 33.04 177.11 34.00 169.00
C 5.24 175.11 5.20 119.86 34.00 126.00
C 33.32 116.56 47.41 107.72 38.25 99.75 C 29.09 91.79 36.70 81.80 43.25 75.25 C 49.79 68.69 59.75 61.09 67.75 70.25 C 75.76 79.41 84.47 65.34 94.00 66.00
C 87.95 37.23 143.04 37.21 137.00 66.00 Z"/>
</g>
<g fill="#000000" fill-opacity="1.00" stroke="None">
<path d="
M 137.00 66.00 
C 143.04 37.21 87.95 37.23 94.00 66.00
C 84.47 65.34 75.76 79.41 67.75 70.25 C 59.75 61.09 49.79 68.69 43.25 75.25 C 36.70 81.80 29.09 91.79 38.25 99.75 C 47.41 107.72 33.32 116.56 34.00 126.00
C 5.20 119.86 5.24 175.11 34.00 169.00
C 33.04 177.11 46.27 186.62 39.25 193.25 C 32.23 199.88 33.46 210.82 40.25 216.75 C 47.03 222.68 51.77 230.46 61.00 228.00
C 60.68 247.02 61.42 269.30 61.00 288.00 C 60.58 306.70 61.82 329.42 61.00 347.00 C 60.18 364.58 59.59 386.27 80.00 388.00 C 100.41 389.73 118.95 387.10 139.00 388.00 C 159.05 388.90 178.04 387.32 198.00 388.00
C 196.65 399.93 188.63 412.40 177.00 413.00 C 165.37 413.60 143.87 408.21 137.25 418.25 C 130.64 428.30 131.13 447.61 136.23 458.77 C 141.33 469.93 161.75 465.56 174.00 466.00 C 186.25 466.44 206.63 465.90 220.00 466.00 C 233.37 466.10 251.68 466.21 265.00 466.00 C 278.32 465.79 298.93 466.64 311.00 466.00 C 323.07 465.36 343.82 470.24 349.08 459.08 C 354.33 447.92 354.01 428.13 347.75 418.25 C 341.50 408.37 319.24 413.60 308.00 413.00 C 296.76 412.40 288.43 399.93 288.00 388.00
C 306.73 386.89 323.10 395.81 342.00 394.00 C 360.90 392.19 382.77 395.24 401.00 394.00 C 419.23 392.76 440.60 397.16 455.92 389.92 C 471.25 382.69 478.05 367.21 476.00 352.00 C 473.95 336.79 464.53 325.62 456.77 312.23 C 449.01 298.84 444.53 288.49 435.30 274.70 C 426.07 260.90 421.12 244.98 424.00 226.00 C 426.88 207.02 420.86 186.95 424.00 167.00 C 427.14 147.05 415.28 134.49 395.00 137.00 C 374.72 139.51 355.01 135.81 335.00 137.00 C 314.99 138.19 295.85 136.38 276.00 137.00 C 256.15 137.62 236.80 136.53 217.00 137.00
C 215.00 128.42 205.20 124.68 197.00 126.00
C 197.26 116.55 183.92 107.69 192.75 99.75 C 201.59 91.82 194.24 81.80 187.75 75.25 C 181.26 68.70 171.16 61.36 163.08 70.08 C 155.01 78.81 146.50 65.88 137.00 66.00
M 123.00 59.00 
C 118.82 74.31 133.12 77.92 143.02 81.98 C 152.93 86.03 164.65 93.03 172.00 80.00
C 176.63 81.09 178.87 86.82 183.00 89.00
C 172.14 97.64 175.45 109.24 180.32 119.68 C 185.19 130.12 188.45 143.55 204.00 140.00
C 204.00 145.00 204.00 150.00 204.00 155.00
C 188.54 150.61 185.08 164.69 180.69 174.69 C 176.31 184.70 170.42 196.65 183.00 204.00
C 180.29 208.14 175.65 210.91 173.00 215.00
C 164.91 203.28 153.52 207.50 143.31 212.31 C 133.09 217.11 118.67 220.07 123.00 236.00
C 118.00 236.00 113.00 236.00 108.00 236.00
C 112.23 220.69 98.29 216.97 88.31 212.69 C 78.32 208.42 66.18 202.07 59.00 215.00
C 54.86 212.30 52.09 207.65 48.00 205.00
C 59.58 196.66 55.16 185.66 50.68 175.32 C 46.20 164.98 42.70 150.75 27.00 155.00
C 27.00 150.00 27.00 145.00 27.00 140.00
C 42.13 143.99 46.11 129.95 49.98 119.98 C 53.84 110.00 61.30 98.30 48.00 91.00
C 49.09 86.37 54.82 84.13 57.00 80.00
C 65.91 90.91 76.78 87.21 87.23 82.23 C 97.67 77.25 111.83 75.32 108.00 59.00
C 113.00 59.00 118.00 59.00 123.00 59.00
M 410.00 155.00 
C 414.51 166.09 409.44 180.56 411.00 193.00 C 412.56 205.44 409.83 220.34 411.00 233.00
C 408.78 233.05 407.01 230.71 406.00 229.00
C 403.72 227.46 400.84 226.96 398.92 225.08 C 397.01 223.20 391.44 223.47 390.00 222.00
C 385.36 217.27 390.65 204.77 389.00 198.00 C 387.35 191.23 390.21 180.17 389.00 173.00
C 385.27 160.71 362.41 168.61 350.00 167.00 C 337.59 165.39 317.97 167.75 304.00 167.00 C 290.03 166.25 272.62 167.39 258.00 167.00 C 243.38 166.61 226.80 167.29 212.00 167.00
C 216.33 162.30 219.03 156.68 218.00 150.00
C 234.18 150.21 250.88 149.72 267.00 150.00 C 283.12 150.28 300.07 149.47 316.00 150.00 C 331.93 150.53 349.53 148.86 365.00 150.00 C 380.47 151.14 399.25 145.32 410.00 155.00
M 375.00 222.00 
C 371.68 225.74 361.82 225.06 358.25 230.25 C 354.68 235.45 349.76 238.47 347.25 244.25 C 344.73 250.02 341.03 255.60 338.08 261.08 C 335.12 266.55 331.79 271.39 328.75 276.75 C 325.70 282.10 323.15 287.56 319.70 292.70 C 316.24 297.84 313.79 304.18 310.23 309.23 C 306.66 314.28 304.86 320.29 301.08 325.08 C 297.29 329.86 295.76 337.65 292.00 342.00
C 287.23 347.52 275.51 342.86 268.00 344.00 C 260.49 345.14 250.21 343.56 242.00 344.00 C 233.79 344.44 223.44 343.90 215.00 344.00 C 206.56 344.10 197.42 344.22 189.00 344.00 C 180.58 343.78 170.13 344.65 162.00 344.00 C 153.87 343.35 143.30 345.59 136.00 344.00 C 128.70 342.41 114.90 347.90 110.00 343.00
C 105.71 338.71 110.37 328.39 109.00 322.00 C 107.63 315.61 109.82 307.24 109.00 300.00 C 108.18 292.76 109.83 286.02 109.00 278.00 C 108.17 269.98 110.39 265.25 109.00 256.00 C 107.61 246.75 117.19 250.16 123.00 250.00
C 133.27 248.73 139.04 239.34 137.00 229.00
C 144.84 228.00 151.63 223.49 159.00 221.00
C 173.44 245.01 213.00 205.38 189.00 191.00
C 189.43 187.37 192.58 184.65 193.00 181.00
C 253.67 181.00 314.33 181.00 375.00 181.00
C 378.18 183.22 375.96 196.68 376.00 201.00 C 376.04 205.32 377.84 218.80 375.00 222.00
M 94.00 229.00 
C 96.22 242.66 95.50 259.07 96.00 273.00 C 96.50 286.93 94.57 306.20 96.00 319.00 C 97.43 331.80 89.27 354.96 104.00 357.00 C 118.74 359.04 134.92 356.07 150.00 357.00 C 165.08 357.93 180.73 356.57 196.00 357.00 C 211.27 357.43 226.59 356.78 242.00 357.00 C 257.41 357.22 273.53 356.83 289.00 357.00
C 288.63 363.10 290.30 368.75 293.00 374.00
C 277.72 374.01 262.26 373.99 247.00 374.00 C 231.74 374.01 216.20 373.98 201.00 374.00 C 185.80 374.02 170.04 373.96 155.00 374.00 C 139.96 374.05 122.60 373.90 108.00 374.00 C 93.40 374.10 73.66 378.50 75.00 361.00 C 76.34 343.50 74.38 331.39 75.00 315.00 C 75.62 298.61 74.68 284.98 75.00 269.00 C 75.32 253.02 74.76 237.90 75.00 222.00
C 81.04 225.19 87.26 227.90 94.00 229.00
M 387.00 236.00 
C 405.05 239.74 410.34 259.88 418.92 274.08 C 427.51 288.27 436.93 303.49 444.77 318.23 C 452.61 332.97 469.27 350.44 460.00 368.00
C 455.94 375.69 448.43 379.68 440.00 380.00
C 422.14 382.55 401.67 381.00 383.00 381.00 C 364.33 381.00 343.78 382.54 326.00 380.00
C 296.43 378.87 301.62 346.24 314.25 330.25 C 326.89 314.26 333.20 292.67 344.92 276.92 C 356.64 261.17 362.39 230.90 387.00 236.00
M 274.00 388.00 
C 274.98 396.50 278.57 404.39 282.00 412.00
C 255.67 412.00 229.33 412.00 203.00 412.00
C 206.90 404.42 210.83 396.76 211.00 388.00
C 232.00 388.00 253.00 388.00 274.00 388.00
M 338.00 439.00 
C 338.00 442.37 339.29 449.71 337.00 452.00
C 332.51 456.49 320.68 451.64 314.00 453.00 C 307.32 454.36 297.39 452.40 290.00 453.00 C 282.61 453.60 273.69 452.75 266.00 453.00 C 258.31 453.25 249.79 452.93 242.00 453.00 C 234.21 453.07 224.63 453.06 217.00 453.00 C 209.37 452.94 200.06 453.24 193.00 453.00 C 185.94 452.76 174.86 453.57 169.00 453.00 C 163.14 452.43 148.77 455.24 147.08 450.92 C 145.40 446.59 145.48 429.52 148.00 427.00
C 152.73 422.27 164.85 427.42 172.00 426.00 C 179.15 424.58 190.09 426.68 198.00 426.00 C 205.91 425.32 214.67 426.33 223.00 426.00 C 231.33 425.67 240.41 426.23 249.00 426.00 C 257.59 425.77 265.06 426.29 274.00 426.00 C 282.94 425.71 290.47 426.52 300.00 426.00 C 309.53 425.48 314.08 427.14 325.00 426.00 C 335.92 424.86 338.00 427.48 338.00 439.00 Z"/>
</g>
<g fill="#7E7E7E" fill-opacity="1.00" stroke="None">
<path d="
M 123.00 59.00 
C 118.00 59.00 113.00 59.00 108.00 59.00
C 111.83 75.32 97.67 77.25 87.23 82.23 C 76.78 87.21 65.91 90.91 57.00 80.00
C 54.82 84.13 49.09 86.37 48.00 91.00
C 61.30 98.30 53.84 110.00 49.98 119.98 C 46.11 129.95 42.13 143.99 27.00 140.00
C 27.00 145.00 27.00 150.00 27.00 155.00
C 42.70 150.75 46.20 164.98 50.68 175.32 C 55.16 185.66 59.58 196.66 48.00 205.00
C 52.09 207.65 54.86 212.30 59.00 215.00
C 66.18 202.07 78.32 208.42 88.31 212.69 C 98.29 216.97 112.23 220.69 108.00 236.00
C 113.00 236.00 118.00 236.00 123.00 236.00
C 118.67 220.07 133.09 217.11 143.31 212.31 C 153.52 207.50 164.91 203.28 173.00 215.00
C 175.65 210.91 180.29 208.14 183.00 204.00
C 170.42 196.65 176.31 184.70 180.69 174.69 C 185.08 164.69 188.54 150.61 204.00 155.00
C 204.00 150.00 204.00 145.00 204.00 140.00
C 188.45 143.55 185.19 130.12 180.32 119.68 C 175.45 109.24 172.14 97.64 183.00 89.00
C 178.87 86.82 176.63 81.09 172.00 80.00
C 164.65 93.03 152.93 86.03 143.02 81.98 C 133.12 77.92 118.82 74.31 123.00 59.00
M 121.00 94.00 
C 160.56 95.51 181.99 144.92 160.70 176.70 C 139.41 208.48 91.58 208.53 70.25 176.75 C 48.91 144.97 70.66 95.50 110.00 94.00
C 113.68 93.47 117.39 93.48 121.00 94.00
M 162.00 97.00 
C 167.56 99.72 162.28 111.16 155.93 107.07 C 149.57 102.99 155.68 93.91 162.00 97.00 Z"/>
</g>
<g fill="#414141" fill-opacity="1.00" stroke="None">
<path d="
M 110.00 94.00 
C 113.63 93.86 117.37 93.86 121.00 94.00
C 117.39 93.48 113.68 93.47 110.00 94.00 Z"/>
</g>
<g fill="#000000" fill-opacity="1.00" stroke="None">
<path d="
M 121.00 94.00 
C 117.37 93.86 113.63 93.86 110.00 94.00
C 70.66 95.50 48.91 144.97 70.25 176.75 C 91.58 208.53 139.41 208.48 160.70 176.70 C 181.99 144.92 160.56 95.51 121.00 94.00
M 120.00 108.00 
C 125.17 108.28 129.43 109.69 134.00 112.00
C 159.93 125.11 161.88 161.78 139.25 179.25 C 116.61 196.71 79.24 182.04 76.00 153.00
C 73.58 131.33 88.78 109.51 111.00 108.00
C 114.19 107.43 116.89 107.49 120.00 108.00 Z"/>
</g>
<g fill="#AFB0B0" fill-opacity="1.00" stroke="None">
<path d="
M 162.00 97.00 
C 155.68 93.91 149.57 102.99 155.93 107.07 C 162.28 111.16 167.56 99.72 162.00 97.00 Z"/>
</g>
<g fill="#5A5B5B" fill-opacity="1.00" stroke="None">
<path d="
M 111.00 108.00 
C 113.92 107.80 117.08 107.84 120.00 108.00
C 116.89 107.49 114.19 107.43 111.00 108.00 Z"/>
</g>
<g fill="#B1B2B2" fill-opacity="1.00" stroke="None">
<path d="
M 76.00 153.00 
C 76.25 126.17 110.07 106.15 134.00 112.00
C 129.43 109.69 125.17 108.28 120.00 108.00
C 117.08 107.84 113.92 107.80 111.00 108.00
C 88.78 109.51 73.58 131.33 76.00 153.00 Z"/>
</g>
<g fill="#E7E7E7" fill-opacity="1.00" stroke="None">
<path d="
M 76.00 153.00 
C 79.24 182.04 116.61 196.71 139.25 179.25 C 161.88 161.78 159.93 125.11 134.00 112.00
C 110.07 106.15 76.25 126.17 76.00 153.00 Z"/>
</g>
<g fill="#7A8BC0" fill-opacity="1.00" stroke="None">
<path d="
M 389.00 173.00 
C 393.48 187.77 387.72 206.31 390.00 222.00
C 391.44 223.47 397.01 223.20 398.92 225.08 C 400.84 226.96 403.72 227.46 406.00 229.00
C 407.39 229.94 408.54 231.26 410.00 232.00
C 410.00 206.33 410.00 180.67 410.00 155.00
C 399.25 145.32 380.47 151.14 365.00 150.00 C 349.53 148.86 331.93 150.53 316.00 150.00 C 300.07 149.47 283.12 150.28 267.00 150.00 C 250.88 149.72 234.18 150.21 218.00 150.00
C 219.03 156.68 216.33 162.30 212.00 167.00
C 226.80 167.29 243.38 166.61 258.00 167.00 C 272.62 167.39 290.03 166.25 304.00 167.00 C 317.97 167.75 337.59 165.39 350.00 167.00 C 362.41 168.61 385.27 160.71 389.00 173.00 Z"/>
</g>
<g fill="#3E4661" fill-opacity="1.00" stroke="None">
<path d="
M 406.00 229.00 
C 407.01 230.71 408.78 233.05 411.00 233.00
C 409.83 220.34 412.56 205.44 411.00 193.00 C 409.44 180.56 414.51 166.09 410.00 155.00
C 410.00 180.67 410.00 206.33 410.00 232.00
C 408.54 231.26 407.39 229.94 406.00 229.00 Z"/>
</g>
<g fill="#3D4661" fill-opacity="1.00" stroke="None">
<path d="
M 390.00 222.00 
C 387.72 206.31 393.48 187.77 389.00 173.00
C 390.21 180.17 387.35 191.23 389.00 198.00 C 390.65 204.77 385.36 217.27 390.00 222.00 Z"/>
</g>
<g fill="#E6DBE9" fill-opacity="1.00" stroke="None">
<path d="
M 123.00 250.00 
C 118.73 250.53 114.28 249.60 110.00 250.00
C 110.00 281.00 110.00 312.00 110.00 343.00
C 118.65 342.97 127.36 343.04 136.00 343.00 C 144.64 342.96 153.38 343.07 162.00 343.00 C 170.62 342.93 179.44 343.15 188.00 343.00 C 196.56 342.85 205.56 343.32 214.00 343.00 C 222.44 342.68 231.84 343.71 240.00 343.00 C 248.16 342.29 258.46 344.58 266.00 343.00 C 273.54 341.42 286.17 346.84 292.00 342.00
C 295.76 337.65 297.29 329.86 301.08 325.08 C 304.86 320.29 306.66 314.28 310.23 309.23 C 313.79 304.18 316.24 297.84 319.70 292.70 C 323.15 287.56 325.70 282.10 328.75 276.75 C 331.79 271.39 335.12 266.55 338.08 261.08 C 341.03 255.60 344.73 250.02 347.25 244.25 C 349.76 238.47 354.68 235.45 358.25 230.25 C 361.82 225.06 371.68 225.74 375.00 222.00
C 375.00 208.33 375.00 194.67 375.00 181.00
C 314.33 181.00 253.67 181.00 193.00 181.00
C 192.58 184.65 189.43 187.37 189.00 191.00
C 213.00 205.38 173.44 245.01 159.00 221.00
C 151.63 223.49 144.84 228.00 137.00 229.00
C 139.04 239.34 133.27 248.73 123.00 250.00
M 284.00 255.00 
C 273.65 261.08 273.93 267.41 261.92 272.92 C 249.91 278.43 262.02 289.69 257.68 299.68 C 253.33 309.67 239.79 314.48 230.00 311.00
C 219.50 318.93 212.46 328.49 199.77 333.77 C 187.08 339.05 169.50 331.85 163.23 319.77 C 156.96 307.69 158.41 291.00 170.25 282.25 C 182.09 273.50 191.59 266.76 193.98 252.98 C 196.36 239.19 222.66 234.94 227.00 248.00
C 237.15 245.10 243.04 234.45 252.25 229.25 C 261.46 224.05 256.98 202.83 269.22 202.22 C 281.47 201.62 290.78 187.25 300.75 194.25 C 310.71 201.26 311.97 209.46 320.75 218.25 C 329.53 227.04 314.55 236.48 311.08 246.08 C 307.61 255.68 294.35 263.90 284.00 255.00 Z"/>
</g>
<g fill="#726D74" fill-opacity="1.00" stroke="None">
<path d="
M 375.00 222.00 
C 377.84 218.80 376.04 205.32 376.00 201.00 C 375.96 196.68 378.18 183.22 375.00 181.00
C 375.00 194.67 375.00 208.33 375.00 222.00 Z"/>
</g>
<g fill="#000000" fill-opacity="1.00" stroke="None">
<path d="
M 284.00 255.00 
C 294.35 263.90 307.61 255.68 311.08 246.08 C 314.55 236.48 329.53 227.04 320.75 218.25 C 311.97 209.46 310.71 201.26 300.75 194.25 C 290.78 187.25 281.47 201.62 269.22 202.22 C 256.98 202.83 261.46 224.05 252.25 229.25 C 243.04 234.45 237.15 245.10 227.00 248.00
C 222.66 234.94 196.36 239.19 193.98 252.98 C 191.59 266.76 182.09 273.50 170.25 282.25 C 158.41 291.00 156.96 307.69 163.23 319.77 C 169.50 331.85 187.08 339.05 199.77 333.77 C 212.46 328.49 219.50 318.93 230.00 311.00
C 239.79 314.48 253.33 309.67 257.68 299.68 C 262.02 289.69 249.91 278.43 261.92 272.92 C 273.93 267.41 273.65 261.08 284.00 255.00
M 295.00 208.00 
C 295.60 214.55 307.82 218.80 307.92 225.08 C 308.02 231.36 296.80 237.65 296.00 244.00
C 274.48 233.26 261.24 260.55 244.00 269.00
C 242.20 265.27 238.51 262.84 237.00 259.00
C 243.90 253.43 251.64 249.27 258.08 243.08 C 264.52 236.89 275.68 233.41 273.07 222.93 C 270.47 212.44 287.80 210.49 295.00 208.00
M 215.00 254.00 
C 219.66 255.46 221.69 266.16 226.25 268.75 C 230.82 271.33 233.41 280.60 237.77 283.23 C 242.13 285.86 247.53 297.07 240.30 297.30 C 233.07 297.54 228.49 293.59 222.75 299.75 C 217.02 305.91 213.70 305.96 208.25 311.25 C 202.80 316.54 198.24 319.58 191.00 321.00 C 183.75 322.42 177.57 317.32 174.70 311.30 C 171.82 305.29 173.97 296.88 178.75 292.75 C 183.54 288.62 189.09 285.20 193.25 281.25 C 197.41 277.30 204.54 273.38 207.75 269.75 C 210.96 266.12 203.98 250.55 215.00 254.00 Z"/>
</g>
<g fill="#A6D9E4" fill-opacity="1.00" stroke="None">
<path d="
M 295.00 208.00 
C 287.80 210.49 270.47 212.44 273.07 222.93 C 275.68 233.41 264.52 236.89 258.08 243.08 C 251.64 249.27 243.90 253.43 237.00 259.00
C 238.51 262.84 242.20 265.27 244.00 269.00
C 261.24 260.55 274.48 233.26 296.00 244.00
C 296.80 237.65 308.02 231.36 307.92 225.08 C 307.82 218.80 295.60 214.55 295.00 208.00 Z"/>
</g>
<g fill="#7B8BC0" fill-opacity="1.00" stroke="None">
<path d="
M 94.00 229.00 
C 87.26 227.90 81.04 225.19 75.00 222.00
C 74.76 237.90 75.32 253.02 75.00 269.00 C 74.68 284.98 75.62 298.61 75.00 315.00 C 74.38 331.39 76.34 343.50 75.00 361.00 C 73.66 378.50 93.40 374.10 108.00 374.00 C 122.60 373.90 139.96 374.05 155.00 374.00 C 170.04 373.96 185.80 374.02 201.00 374.00 C 216.20 373.98 231.74 374.01 247.00 374.00 C 262.26 373.99 277.72 374.01 293.00 374.00
C 290.30 368.75 288.63 363.10 289.00 357.00
C 273.53 356.83 257.41 357.22 242.00 357.00 C 226.59 356.78 211.27 357.43 196.00 357.00 C 180.73 356.57 165.08 357.93 150.00 357.00 C 134.92 356.07 118.74 359.04 104.00 357.00 C 89.27 354.96 97.43 331.80 96.00 319.00 C 94.57 306.20 96.50 286.93 96.00 273.00 C 95.50 259.07 96.22 242.66 94.00 229.00 Z"/>
</g>
<g fill="#F4841E" fill-opacity="1.00" stroke="None">
<path d="
M 326.00 380.00 
C 363.62 381.44 402.38 381.44 440.00 380.00
C 448.43 379.68 455.94 375.69 460.00 368.00
C 453.33 371.60 441.72 366.37 434.00 368.00 C 426.28 369.63 416.13 367.25 408.00 368.00 C 399.87 368.75 390.19 367.64 382.00 368.00 C 373.81 368.36 363.48 368.18 355.93 367.07 C 348.37 365.97 344.97 362.39 339.75 357.25 C 334.53 352.11 332.69 346.14 332.00 339.00 C 331.31 331.85 333.89 324.30 337.75 318.75 C 341.62 313.20 343.70 306.76 347.31 301.31 C 350.91 295.85 353.84 290.41 356.92 284.92 C 360.01 279.44 363.30 273.73 366.75 268.75 C 370.21 263.77 372.09 256.16 375.92 251.92 C 379.76 247.69 381.45 237.05 387.00 236.00
C 362.39 230.90 356.64 261.17 344.92 276.92 C 333.20 292.67 326.89 314.26 314.25 330.25 C 301.62 346.24 296.43 378.87 326.00 380.00 Z"/>
</g>
<g fill="#F9A11A" fill-opacity="1.00" stroke="None">
<path d="
M 460.00 368.00 
C 469.27 350.44 452.61 332.97 444.77 318.23 C 436.93 303.49 427.51 288.27 418.92 274.08 C 410.34 259.88 405.05 239.74 387.00 236.00
C 381.45 237.05 379.76 247.69 375.92 251.92 C 372.09 256.16 370.21 263.77 366.75 268.75 C 363.30 273.73 360.01 279.44 356.92 284.92 C 353.84 290.41 350.91 295.85 347.31 301.31 C 343.70 306.76 341.62 313.20 337.75 318.75 C 333.89 324.30 331.31 331.85 332.00 339.00 C 332.69 346.14 334.53 352.11 339.75 357.25 C 344.97 362.39 348.37 365.97 355.93 367.07 C 363.48 368.18 373.81 368.36 382.00 368.00 C 390.19 367.64 399.87 368.75 408.00 368.00 C 416.13 367.25 426.28 369.63 434.00 368.00 C 441.72 366.37 453.33 371.60 460.00 368.00
M 385.00 268.00 
C 393.18 269.79 390.14 285.24 390.00 293.00 C 389.86 300.76 391.52 313.61 390.00 323.00 C 388.48 332.39 373.68 328.54 376.00 319.00 C 378.33 309.46 374.93 297.04 376.00 289.00 C 377.07 280.96 372.94 265.36 385.00 268.00
M 385.00 337.00 
C 394.23 339.02 390.91 359.14 381.00 356.00 C 371.08 352.85 375.33 334.89 385.00 337.00 Z"/>
</g>
<g fill="#232224" fill-opacity="1.00" stroke="None">
<path d="
M 110.00 343.00 
C 110.00 312.00 110.00 281.00 110.00 250.00
C 114.28 249.60 118.73 250.53 123.00 250.00
C 117.19 250.16 107.61 246.75 109.00 256.00 C 110.39 265.25 108.17 269.98 109.00 278.00 C 109.83 286.02 108.18 292.76 109.00 300.00 C 109.82 307.24 107.63 315.61 109.00 322.00 C 110.37 328.39 105.71 338.71 110.00 343.00 Z"/>
</g>
<g fill="#36BCC1" fill-opacity="1.00" stroke="None">
<path d="
M 215.00 254.00 
C 203.98 250.55 210.96 266.12 207.75 269.75 C 204.54 273.38 197.41 277.30 193.25 281.25 C 189.09 285.20 183.54 288.62 178.75 292.75 C 173.97 296.88 171.82 305.29 174.70 311.30 C 177.57 317.32 183.75 322.42 191.00 321.00 C 198.24 319.58 202.80 316.54 208.25 311.25 C 213.70 305.96 217.02 305.91 222.75 299.75 C 228.49 293.59 233.07 297.54 240.30 297.30 C 247.53 297.07 242.13 285.86 237.77 283.23 C 233.41 280.60 230.82 271.33 226.25 268.75 C 221.69 266.16 219.66 255.46 215.00 254.00
M 213.00 282.00 
C 221.87 284.65 214.56 297.25 208.25 299.25 C 201.93 301.25 197.88 313.08 189.33 309.67 C 180.78 306.26 187.27 295.31 193.75 292.75 C 200.23 290.20 204.82 279.55 213.00 282.00 Z"/>
</g>
<g fill="#000000" fill-opacity="1.00" stroke="None">
<path d="
M 385.00 268.00 
C 372.94 265.36 377.07 280.96 376.00 289.00 C 374.93 297.04 378.33 309.46 376.00 319.00 C 373.68 328.54 388.48 332.39 390.00 323.00 C 391.52 313.61 389.86 300.76 390.00 293.00 C 390.14 285.24 393.18 269.79 385.00 268.00 Z"/>
</g>
<g fill="#000000" fill-opacity="1.00" stroke="None">
<path d="
M 213.00 282.00 
C 204.82 279.55 200.23 290.20 193.75 292.75 C 187.27 295.31 180.78 306.26 189.33 309.67 C 197.88 313.08 201.93 301.25 208.25 299.25 C 214.56 297.25 221.87 284.65 213.00 282.00 Z"/>
</g>
<g fill="#000000" fill-opacity="1.00" stroke="None">
<path d="
M 385.00 337.00 
C 375.33 334.89 371.08 352.85 381.00 356.00 C 390.91 359.14 394.23 339.02 385.00 337.00 Z"/>
</g>
<g fill="#6B666D" fill-opacity="1.00" stroke="None">
<path d="
M 110.00 343.00 
C 114.90 347.90 128.70 342.41 136.00 344.00 C 143.30 345.59 153.87 343.35 162.00 344.00 C 170.13 344.65 180.58 343.78 189.00 344.00 C 197.42 344.22 206.56 344.10 215.00 344.00 C 223.44 343.90 233.79 344.44 242.00 344.00 C 250.21 343.56 260.49 345.14 268.00 344.00 C 275.51 342.86 287.23 347.52 292.00 342.00
C 286.17 346.84 273.54 341.42 266.00 343.00 C 258.46 344.58 248.16 342.29 240.00 343.00 C 231.84 343.71 222.44 342.68 214.00 343.00 C 205.56 343.32 196.56 342.85 188.00 343.00 C 179.44 343.15 170.62 342.93 162.00 343.00 C 153.38 343.07 144.64 342.96 136.00 343.00 C 127.36 343.04 118.65 342.97 110.00 343.00 Z"/>
</g>
<g fill="#723D0D" fill-opacity="1.00" stroke="None">
<path d="
M 440.00 380.00 
C 402.38 381.44 363.62 381.44 326.00 380.00
C 343.78 382.54 364.33 381.00 383.00 381.00 C 401.67 381.00 422.14 382.55 440.00 380.00 Z"/>
</g>
<g fill="#9EACD7" fill-opacity="1.00" stroke="None">
<path d="
M 274.00 388.00 
C 253.00 388.00 232.00 388.00 211.00 388.00
C 210.83 396.76 206.90 404.42 203.00 412.00
C 229.33 412.00 255.67 412.00 282.00 412.00
C 278.57 404.39 274.98 396.50 274.00 388.00 Z"/>
</g>
<g fill="#414C72" fill-opacity="1.00" stroke="None">
<path d="
M 148.00 427.00 
C 211.00 427.00 274.00 427.00 337.00 427.00
C 337.63 430.83 335.72 435.99 338.00 439.00
C 338.00 427.48 335.92 424.86 325.00 426.00 C 314.08 427.14 309.53 425.48 300.00 426.00 C 290.47 426.52 282.94 425.71 274.00 426.00 C 265.06 426.29 257.59 425.77 249.00 426.00 C 240.41 426.23 231.33 425.67 223.00 426.00 C 214.67 426.33 205.91 425.32 198.00 426.00 C 190.09 426.68 179.15 424.58 172.00 426.00 C 164.85 427.42 152.73 422.27 148.00 427.00 Z"/>
</g>
<g fill="#292E3E" fill-opacity="1.00" stroke="None">
<path d="
M 337.00 452.00 
C 274.00 452.00 211.00 452.00 148.00 452.00
C 148.00 447.67 148.00 443.33 148.00 439.00
C 148.00 435.00 148.00 431.00 148.00 427.00
C 145.48 429.52 145.40 446.59 147.08 450.92 C 148.77 455.24 163.14 452.43 169.00 453.00 C 174.86 453.57 185.94 452.76 193.00 453.00 C 200.06 453.24 209.37 452.94 217.00 453.00 C 224.63 453.06 234.21 453.07 242.00 453.00 C 249.79 452.93 258.31 453.25 266.00 453.00 C 273.69 452.75 282.61 453.60 290.00 453.00 C 297.39 452.40 307.32 454.36 314.00 453.00 C 320.68 451.64 332.51 456.49 337.00 452.00 Z"/>
</g>
<g fill="#6071AA" fill-opacity="1.00" stroke="None">
<path d="
M 148.00 439.00 
C 211.00 439.00 274.00 439.00 337.00 439.00
C 337.00 443.33 337.00 447.67 337.00 452.00
C 339.29 449.71 338.00 442.37 338.00 439.00
C 335.72 435.99 337.63 430.83 337.00 427.00
C 274.00 427.00 211.00 427.00 148.00 427.00
C 148.00 431.00 148.00 435.00 148.00 439.00 Z"/>
</g>
<g fill="#7E8CBA" fill-opacity="1.00" stroke="None">
<path d="
M 337.00 452.00 
C 337.00 447.67 337.00 443.33 337.00 439.00
C 274.00 439.00 211.00 439.00 148.00 439.00
C 148.00 443.33 148.00 447.67 148.00 452.00
C 211.00 452.00 274.00 452.00 337.00 452.00 Z"/>
</g>
</svg>