<svg xmlns="http://www.w3.org/2000/svg" xmlns:v="https://svgstorm.com"
viewBox = "0 0 512 512"
width="512"
height="512">
<g fill="None" fill-opacity="0.0" stroke="#000000" stroke-opacity="0.00" stroke-width="0.3"><path d="
M 0.00 66.00 
C 13.31 49.29 43.38 56.00 64.00 56.00
C 74.61 56.00 85.42 55.76 96.00 56.00 C 106.58 56.24 117.49 55.36 128.00 56.00 C 138.51 56.64 149.67 54.53 160.00 56.00 C 170.33 57.47 183.16 52.85 193.00 56.00
C 197.74 43.34 207.04 30.73 214.00 19.00
C 218.82 10.89 223.81 1.28 234.00 0.00
L 0.00 0.00
L 0.00 66.00 Z"/>
</g>
<g fill="None" fill-opacity="0.0" stroke="#FED15B" stroke-opacity="1.00" stroke-width="0.3"><path d="
M 214.00 19.00 
C 223.70 30.88 231.66 46.83 239.00 61.00
C 237.72 61.28 235.50 60.24 235.00 62.00
C 248.23 59.55 244.61 82.39 244.00 92.00 C 243.39 101.61 246.23 120.93 244.00 131.00
C 250.48 113.44 241.22 89.70 245.00 71.00
C 254.89 85.05 261.78 101.24 271.30 115.70 C 280.82 130.15 287.16 146.60 297.30 160.70 C 307.45 174.80 315.45 198.75 293.00 206.00
C 309.72 206.00 332.78 210.81 346.25 200.25 C 359.72 189.69 348.71 170.11 340.70 159.30 C 332.68 148.50 327.30 131.60 319.00 121.00
C 318.40 120.23 317.58 119.91 317.00 119.00
C 304.20 98.94 291.64 77.27 281.00 56.00
C 271.06 36.13 259.88 9.92 240.00 0.00
L 234.00 0.00
C 223.81 1.28 218.82 10.89 214.00 19.00 Z"/>
</g>
<g fill="None" fill-opacity="0.0" stroke="#000000" stroke-opacity="0.00" stroke-width="0.3"><path d="
M 281.00 56.00 
C 324.33 56.00 367.67 56.00 411.00 56.00
C 425.40 56.00 438.47 57.08 453.00 56.00 C 467.53 54.92 475.07 62.37 474.00 77.00 C 472.93 91.63 473.99 105.45 474.00 120.00
C 474.00 120.50 474.00 121.00 474.00 121.00
C 474.00 130.82 473.99 140.13 474.00 150.00 C 474.01 159.87 473.97 170.07 474.00 180.00 C 474.03 189.93 473.93 200.06 474.00 210.00 C 474.07 219.94 473.84 230.08 474.00 240.00 C 474.16 249.92 473.65 260.16 474.00 270.00 C 474.35 279.84 473.23 290.35 474.00 300.00 C 474.77 309.65 472.29 320.78 474.00 330.00 C 475.71 339.22 470.22 351.73 474.00 360.00
C 494.76 371.45 507.23 394.32 512.00 416.00
L 512.00 0.00
L 240.00 0.00
C 259.88 9.92 271.06 36.13 281.00 56.00 Z"/>
</g>
<g fill="None" fill-opacity="0.0" stroke="#FEE177" stroke-opacity="1.00" stroke-width="0.3"><path d="
M 193.00 56.00 
C 192.87 56.35 192.35 56.95 192.00 57.00
C 181.75 77.84 169.85 99.49 157.00 119.00
C 156.46 119.82 155.44 120.39 155.00 121.00
C 143.59 136.96 141.77 150.82 129.08 167.08 C 116.39 183.34 123.28 208.50 148.00 206.00 C 172.72 203.50 195.53 206.92 220.00 206.00 C 244.47 205.08 268.56 206.00 293.00 206.00
C 315.45 198.75 307.45 174.80 297.30 160.70 C 287.16 146.60 280.82 130.15 271.30 115.70 C 261.78 101.24 254.89 85.05 245.00 71.00
C 241.22 89.70 250.48 113.44 244.00 131.00
C 239.80 142.37 226.99 134.46 229.00 124.00 C 231.01 113.54 227.62 100.51 229.00 90.00 C 230.38 79.49 225.00 67.94 235.00 62.00
C 235.50 60.24 237.72 61.28 239.00 61.00
C 231.66 46.83 223.70 30.88 214.00 19.00
C 207.04 30.73 197.74 43.34 193.00 56.00
M 239.00 148.00 
C 248.68 150.12 245.68 175.04 234.78 171.22 C 223.87 167.40 228.00 145.59 239.00 148.00 Z"/>
</g>
<g fill="None" fill-opacity="0.0" stroke="#5FB6FF" stroke-opacity="1.00" stroke-width="0.3"><path d="
M 0.00 66.00 
L 0.00 120.00
C 21.33 120.00 42.67 120.00 64.00 120.00
C 64.00 99.00 64.00 78.00 64.00 57.00
C 64.00 56.50 64.00 56.00 64.00 56.00
C 43.38 56.00 13.31 49.29 0.00 66.00 Z"/>
</g>
<g fill="None" fill-opacity="0.0" stroke="#25A6FD" stroke-opacity="0.80" stroke-width="0.3"><path d="
M 64.00 57.00 
C 84.76 58.88 107.16 57.41 128.00 57.00 C 148.84 56.59 171.42 59.96 192.00 57.00
C 192.35 56.95 192.87 56.35 193.00 56.00
C 183.16 52.85 170.33 57.47 160.00 56.00 C 149.67 54.53 138.51 56.64 128.00 56.00 C 117.49 55.36 106.58 56.24 96.00 56.00 C 85.42 55.76 74.61 56.00 64.00 56.00
C 64.00 56.00 64.00 56.50 64.00 57.00 Z"/>
</g>
<g fill="None" fill-opacity="0.0" stroke="#26A6FD" stroke-opacity="1.00" stroke-width="0.3"><path d="
M 317.00 119.00 
C 323.30 123.50 334.11 118.76 342.00 120.00 C 349.89 121.24 360.57 119.57 369.00 120.00 C 377.43 120.43 387.40 120.09 396.00 120.00 C 404.60 119.91 414.15 120.24 422.00 121.00
C 438.33 122.58 457.66 122.47 474.00 121.00
C 474.00 121.00 474.00 120.50 474.00 120.00
C 456.81 118.45 439.23 121.17 422.00 120.00
C 418.20 99.14 431.53 69.05 411.00 56.00
C 367.67 56.00 324.33 56.00 281.00 56.00
C 291.64 77.27 304.20 98.94 317.00 119.00 Z"/>
</g>
<g fill="None" fill-opacity="0.0" stroke="#0593FC" stroke-opacity="1.00" stroke-width="0.3"><path d="
M 474.00 120.00 
C 473.99 105.45 472.93 91.63 474.00 77.00 C 475.07 62.37 467.53 54.92 453.00 56.00 C 438.47 57.08 425.40 56.00 411.00 56.00
C 431.53 69.05 418.20 99.14 422.00 120.00
C 439.23 121.17 456.81 118.45 474.00 120.00 Z"/>
</g>
<g fill="None" fill-opacity="0.0" stroke="#26A6FD" stroke-opacity="1.00" stroke-width="0.3"><path d="
M 64.00 120.00 
C 73.92 120.00 85.22 120.62 95.00 120.00 C 104.78 119.38 116.73 121.65 126.00 120.00 C 135.27 118.35 149.30 124.12 157.00 119.00
C 169.85 99.49 181.75 77.84 192.00 57.00
C 171.42 59.96 148.84 56.59 128.00 57.00 C 107.16 57.41 84.76 58.88 64.00 57.00
C 64.00 78.00 64.00 99.00 64.00 120.00 Z"/>
</g>
<g fill="None" fill-opacity="0.0" stroke="#F6AC33" stroke-opacity="1.00" stroke-width="0.3"><path d="
M 244.00 131.00 
C 246.23 120.93 243.39 101.61 244.00 92.00 C 244.61 82.39 248.23 59.55 235.00 62.00
C 225.00 67.94 230.38 79.49 229.00 90.00 C 227.62 100.51 231.01 113.54 229.00 124.00 C 226.99 134.46 239.80 142.37 244.00 131.00 Z"/>
</g>
<g fill="None" fill-opacity="0.0" stroke="#95D3FE" stroke-opacity="1.00" stroke-width="0.3"><path d="
M 64.00 120.00 
C 42.67 120.00 21.33 120.00 0.00 120.00
L 0.00 121.00
C 12.72 120.68 25.27 121.43 38.00 121.00 C 50.73 120.57 64.32 121.81 77.00 121.00 C 89.68 120.19 103.59 122.73 116.00 121.00 C 128.41 119.27 143.25 124.80 155.00 121.00
C 155.44 120.39 156.46 119.82 157.00 119.00
C 149.30 124.12 135.27 118.35 126.00 120.00 C 116.73 121.65 104.78 119.38 95.00 120.00 C 85.22 120.62 73.92 120.00 64.00 120.00 Z"/>
</g>
<g fill="None" fill-opacity="0.0" stroke="#9FD8FE" stroke-opacity="1.00" stroke-width="0.3"><path d="
M 319.00 121.00 
C 329.31 124.34 342.09 119.45 353.00 121.00 C 363.91 122.55 375.77 120.21 387.00 121.00 C 398.23 121.79 410.66 120.41 422.00 121.00
C 414.15 120.24 404.60 119.91 396.00 120.00 C 387.40 120.09 377.43 120.43 369.00 120.00 C 360.57 119.57 349.89 121.24 342.00 120.00 C 334.11 118.76 323.30 123.50 317.00 119.00
C 317.58 119.91 318.40 120.23 319.00 121.00 Z"/>
</g>
<g fill="None" fill-opacity="0.0" stroke="#F2FBFF" stroke-opacity="1.00" stroke-width="0.3"><path d="
M 0.00 390.00 
C 2.66 395.08 7.06 399.26 13.00 400.00
C 24.58 400.32 37.56 398.20 50.00 399.00 C 62.44 399.80 75.44 398.63 88.00 399.00 C 100.56 399.37 113.39 398.81 126.00 399.00 C 138.61 399.19 151.38 398.86 164.00 399.00 C 176.62 399.14 189.39 398.81 202.00 399.00 C 214.61 399.19 227.45 398.65 240.00 399.00 C 252.55 399.35 265.58 398.24 278.00 399.00 C 290.42 399.76 303.87 397.34 316.00 399.00 C 328.13 400.66 342.51 395.32 354.00 399.00
C 366.02 375.79 383.97 356.45 410.00 350.00
C 413.88 349.04 417.92 348.28 422.00 348.00
C 422.00 335.67 422.00 323.33 422.00 311.00
C 405.93 311.00 388.91 313.55 373.99 308.01 C 359.07 302.47 342.77 303.96 326.00 304.00 C 309.23 304.04 291.04 303.98 274.00 304.00 C 256.96 304.02 239.11 303.98 222.00 304.00
C 222.00 311.74 223.50 322.22 221.00 329.00
C 216.93 340.02 202.45 331.18 207.00 321.00
C 197.00 321.00 187.00 321.00 177.00 321.00
C 156.45 321.00 135.51 321.52 115.00 321.00 C 94.49 320.48 72.60 322.80 53.00 320.00
C 18.62 318.69 20.83 252.18 59.00 255.00 C 97.17 257.82 138.54 255.00 177.00 255.00
C 187.00 255.00 197.00 255.00 207.00 255.00
C 207.00 250.03 206.17 244.45 211.08 242.08 C 215.99 239.72 219.40 242.66 221.00 247.00
C 223.52 253.83 222.00 264.27 222.00 272.00
C 238.95 271.96 256.06 272.06 273.00 272.00 C 289.94 271.94 308.23 272.11 325.00 272.00 C 341.77 271.89 358.17 273.78 373.22 268.22 C 388.28 262.67 405.74 265.00 422.00 265.00
C 422.00 217.00 422.00 169.00 422.00 121.00
C 410.66 120.41 398.23 121.79 387.00 121.00 C 375.77 120.21 363.91 122.55 353.00 121.00 C 342.09 119.45 329.31 124.34 319.00 121.00
C 327.30 131.60 332.68 148.50 340.70 159.30 C 348.71 170.11 359.72 189.69 346.25 200.25 C 332.78 210.81 309.72 206.00 293.00 206.00
C 268.56 206.00 244.47 205.08 220.00 206.00 C 195.53 206.92 172.72 203.50 148.00 206.00 C 123.28 208.50 116.39 183.34 129.08 167.08 C 141.77 150.82 143.59 136.96 155.00 121.00
C 143.25 124.80 128.41 119.27 116.00 121.00 C 103.59 122.73 89.68 120.19 77.00 121.00 C 64.32 121.81 50.73 120.57 38.00 121.00 C 25.27 121.43 12.72 120.68 0.00 121.00
L 0.00 390.00 Z"/>
</g>
<g fill="None" fill-opacity="0.0" stroke="#DEF5FC" stroke-opacity="1.00" stroke-width="0.3"><path d="
M 422.00 265.00 
C 436.95 265.00 432.89 276.03 433.00 288.00 C 433.11 299.97 436.51 311.00 422.00 311.00
C 422.00 323.33 422.00 335.67 422.00 348.00
C 441.46 346.67 457.70 351.01 474.00 360.00
C 470.22 351.73 475.71 339.22 474.00 330.00 C 472.29 320.78 474.77 309.65 474.00 300.00 C 473.23 290.35 474.35 279.84 474.00 270.00 C 473.65 260.16 474.16 249.92 474.00 240.00 C 473.84 230.08 474.07 219.94 474.00 210.00 C 473.93 200.06 474.03 189.93 474.00 180.00 C 473.97 170.07 474.01 159.87 474.00 150.00 C 473.99 140.13 474.00 130.82 474.00 121.00
C 457.66 122.47 438.33 122.58 422.00 121.00
C 422.00 169.00 422.00 217.00 422.00 265.00 Z"/>
</g>
<g fill="None" fill-opacity="0.0" stroke="#F6AD34" stroke-opacity="1.00" stroke-width="0.3"><path d="
M 239.00 148.00 
C 228.00 145.59 223.87 167.40 234.78 171.22 C 245.68 175.04 248.68 150.12 239.00 148.00 Z"/>
</g>
<g fill="None" fill-opacity="0.0" stroke="#FC8087" stroke-opacity="1.00" stroke-width="0.3"><path d="
M 207.00 255.00 
C 207.00 261.66 207.45 270.56 207.00 277.00 C 206.55 283.44 208.20 293.38 207.00 299.00 C 205.80 304.62 210.23 317.04 206.00 320.00
C 202.86 322.20 196.05 319.10 192.00 320.00 C 187.95 320.90 181.31 319.61 177.00 320.00
C 177.04 320.00 177.00 321.00 177.00 321.00
C 187.00 321.00 197.00 321.00 207.00 321.00
C 202.45 331.18 216.93 340.02 221.00 329.00
C 223.72 316.71 221.00 300.63 221.00 288.00 C 221.00 275.37 223.72 259.29 221.00 247.00
C 219.40 242.66 215.99 239.72 211.08 242.08 C 206.17 244.45 207.00 250.03 207.00 255.00 Z"/>
</g>
<g fill="None" fill-opacity="0.0" stroke="#F3A4AB" stroke-opacity="1.00" stroke-width="0.3"><path d="
M 221.00 329.00 
C 223.50 322.22 222.00 311.74 222.00 304.00
C 222.00 293.33 222.00 282.67 222.00 272.00
C 222.00 264.27 223.52 253.83 221.00 247.00
C 223.72 259.29 221.00 275.37 221.00 288.00 C 221.00 300.63 223.72 316.71 221.00 329.00 Z"/>
</g>
<g fill="None" fill-opacity="0.0" stroke="#FC8188" stroke-opacity="1.00" stroke-width="0.3"><path d="
M 53.00 320.00 
C 67.62 320.56 82.37 320.00 97.00 320.00
C 97.00 298.67 97.00 277.33 97.00 256.00
C 123.50 255.33 151.32 257.33 177.00 255.00
C 138.54 255.00 97.17 257.82 59.00 255.00 C 20.83 252.18 18.62 318.69 53.00 320.00 Z"/>
</g>
<g fill="None" fill-opacity="0.0" stroke="#FC4755" stroke-opacity="1.00" stroke-width="0.3"><path d="
M 97.00 320.00 
C 123.30 320.00 150.82 317.63 177.00 320.00
C 177.00 298.67 177.00 277.33 177.00 256.00
C 186.67 256.00 196.33 256.00 206.00 256.00
C 206.00 277.33 206.00 298.67 206.00 320.00
C 210.23 317.04 205.80 304.62 207.00 299.00 C 208.20 293.38 206.55 283.44 207.00 277.00 C 207.45 270.56 207.00 261.66 207.00 255.00
C 197.00 255.00 187.00 255.00 177.00 255.00
C 151.32 257.33 123.50 255.33 97.00 256.00
C 97.00 277.33 97.00 298.67 97.00 320.00 Z"/>
</g>
<g fill="None" fill-opacity="0.0" stroke="#FB2B3A" stroke-opacity="1.00" stroke-width="0.3"><path d="
M 177.00 320.00 
C 181.31 319.61 187.95 320.90 192.00 320.00 C 196.05 319.10 202.86 322.20 206.00 320.00
C 206.00 298.67 206.00 277.33 206.00 256.00
C 196.33 256.00 186.67 256.00 177.00 256.00
C 177.00 277.33 177.00 298.67 177.00 320.00 Z"/>
</g>
<g fill="None" fill-opacity="0.0" stroke="#C5D3DD" stroke-opacity="1.00" stroke-width="0.3"><path d="
M 222.00 272.00 
C 222.00 282.67 222.00 293.33 222.00 304.00
C 239.11 303.98 256.96 304.02 274.00 304.00 C 291.04 303.98 309.23 304.04 326.00 304.00 C 342.77 303.96 359.07 302.47 373.99 308.01 C 388.91 313.55 405.93 311.00 422.00 311.00
C 436.51 311.00 433.11 299.97 433.00 288.00 C 432.89 276.03 436.95 265.00 422.00 265.00
C 405.74 265.00 388.28 262.67 373.22 268.22 C 358.17 273.78 341.77 271.89 325.00 272.00 C 308.23 272.11 289.94 271.94 273.00 272.00 C 256.06 272.06 238.95 271.96 222.00 272.00 Z"/>
</g>
<g fill="None" fill-opacity="0.0" stroke="#F6BEC5" stroke-opacity="1.00" stroke-width="0.3"><path d="
M 177.00 321.00 
C 177.00 321.00 177.04 320.00 177.00 320.00
C 150.82 317.63 123.30 320.00 97.00 320.00
C 82.37 320.00 67.62 320.56 53.00 320.00
C 72.60 322.80 94.49 320.48 115.00 321.00 C 135.51 321.52 156.45 321.00 177.00 321.00 Z"/>
</g>
<g fill="None" fill-opacity="0.0" stroke="#04F2A6" stroke-opacity="0.98" stroke-width="0.3"><path d="
M 410.00 350.00 
C 415.58 353.78 424.80 357.64 431.70 361.31 C 438.59 364.97 443.00 373.01 448.77 377.23 C 454.54 381.45 457.21 395.62 463.00 397.00
C 468.28 394.15 475.40 398.34 474.00 404.00 C 472.59 409.66 470.14 412.61 467.00 417.00
C 465.96 426.91 469.54 441.09 465.67 450.67 C 461.81 460.25 458.96 468.05 453.25 476.25 C 447.53 484.44 441.98 489.44 434.30 495.30 C 426.63 501.16 417.09 504.62 410.00 509.00
C 414.51 510.12 419.86 510.91 424.00 512.00
L 425.00 512.00
C 427.28 510.46 432.79 510.28 435.00 512.00
L 436.00 512.00
C 472.68 509.77 506.20 479.24 512.00 443.00
L 512.00 416.00
C 507.23 394.32 494.76 371.45 474.00 360.00
C 457.70 351.01 441.46 346.67 422.00 348.00
C 417.92 348.28 413.88 349.04 410.00 350.00 Z"/>
</g>
<g fill="None" fill-opacity="0.0" stroke="#6CF5C2" stroke-opacity="0.99" stroke-width="0.3"><path d="
M 354.00 399.00 
C 353.83 399.33 353.35 399.95 353.00 400.00
C 333.53 444.81 364.91 497.83 410.00 509.00
C 417.09 504.62 426.63 501.16 434.30 495.30 C 441.98 489.44 447.53 484.44 453.25 476.25 C 458.96 468.05 461.81 460.25 465.67 450.67 C 469.54 441.09 465.96 426.91 467.00 417.00
C 461.87 424.18 455.36 429.90 450.75 437.75 C 446.13 445.59 438.94 450.45 435.08 459.08 C 431.23 467.71 419.98 473.28 414.25 464.75 C 408.51 456.23 400.49 453.74 395.75 446.25 C 391.01 438.75 377.15 434.86 381.98 424.98 C 386.80 415.09 398.45 427.16 403.25 432.75 C 408.05 438.35 416.90 447.01 423.00 451.00
C 435.89 432.69 449.40 414.85 463.00 397.00
C 457.21 395.62 454.54 381.45 448.77 377.23 C 443.00 373.01 438.59 364.97 431.70 361.31 C 424.80 357.64 415.58 353.78 410.00 350.00
C 383.97 356.45 366.02 375.79 354.00 399.00 Z"/>
</g>
<g fill="None" fill-opacity="0.0" stroke="#000000" stroke-opacity="0.00" stroke-width="0.3"><path d="
M 0.00 448.00 
C 2.78 444.81 5.23 443.88 9.00 443.00
C 30.32 438.04 54.45 443.52 77.00 442.00 C 99.55 440.48 123.13 442.56 146.00 442.00 C 168.87 441.44 193.01 442.00 216.00 442.00
C 241.69 442.00 272.52 437.93 297.00 443.00
C 309.55 445.60 307.00 455.94 307.00 467.00 C 307.00 478.06 309.56 488.40 297.00 491.00
C 272.44 496.09 241.69 492.00 216.00 492.00
C 193.16 492.00 169.79 492.59 147.00 492.00 C 124.21 491.41 100.59 493.56 78.00 492.00 C 55.41 490.44 30.37 495.97 9.00 491.00
C 5.27 490.13 2.73 489.10 0.00 486.00
L 0.00 512.00
L 424.00 512.00
C 419.86 510.91 414.51 510.12 410.00 509.00
C 364.91 497.83 333.53 444.81 353.00 400.00
C 325.32 403.98 296.00 398.47 268.00 400.00 C 240.00 401.53 211.10 399.89 183.00 400.00 C 154.90 400.11 126.05 401.25 98.00 400.00 C 69.95 398.75 40.81 403.45 13.00 400.00
C 7.06 399.26 2.66 395.08 0.00 390.00
L 0.00 448.00 Z"/>
</g>
<g fill="None" fill-opacity="0.0" stroke="#FDFEFE" stroke-opacity="1.00" stroke-width="0.3"><path d="
M 463.00 397.00 
C 449.40 414.85 435.89 432.69 423.00 451.00
C 416.90 447.01 408.05 438.35 403.25 432.75 C 398.45 427.16 386.80 415.09 381.98 424.98 C 377.15 434.86 391.01 438.75 395.75 446.25 C 400.49 453.74 408.51 456.23 414.25 464.75 C 419.98 473.28 431.23 467.71 435.08 459.08 C 438.94 450.45 446.13 445.59 450.75 437.75 C 455.36 429.90 461.87 424.18 467.00 417.00
C 470.14 412.61 472.59 409.66 474.00 404.00 C 475.40 398.34 468.28 394.15 463.00 397.00 Z"/>
</g>
<g fill="None" fill-opacity="0.0" stroke="#F2FBFF" stroke-opacity="0.80" stroke-width="0.3"><path d="
M 13.00 400.00 
C 40.81 403.45 69.95 398.75 98.00 400.00 C 126.05 401.25 154.90 400.11 183.00 400.00 C 211.10 399.89 240.00 401.53 268.00 400.00 C 296.00 398.47 325.32 403.98 353.00 400.00
C 353.35 399.95 353.83 399.33 354.00 399.00
C 342.51 395.32 328.13 400.66 316.00 399.00 C 303.87 397.34 290.42 399.76 278.00 399.00 C 265.58 398.24 252.55 399.35 240.00 399.00 C 227.45 398.65 214.61 399.19 202.00 399.00 C 189.39 398.81 176.62 399.14 164.00 399.00 C 151.38 398.86 138.61 399.19 126.00 399.00 C 113.39 398.81 100.56 399.37 88.00 399.00 C 75.44 398.63 62.44 399.80 50.00 399.00 C 37.56 398.20 24.58 400.32 13.00 400.00 Z"/>
</g>
<g fill="None" fill-opacity="0.0" stroke="#61F0BF" stroke-opacity="0.08" stroke-width="0.3"><path d="
M 9.00 443.00 
C 37.25 439.84 66.55 444.18 95.00 443.00 C 123.45 441.82 152.50 443.00 181.00 443.00
C 192.51 443.00 204.54 444.02 216.00 443.00
C 215.96 443.00 216.00 442.00 216.00 442.00
C 193.01 442.00 168.87 441.44 146.00 442.00 C 123.13 442.56 99.55 440.48 77.00 442.00 C 54.45 443.52 30.32 438.04 9.00 443.00 Z"/>
</g>
<g fill="None" fill-opacity="0.0" stroke="#6F7E8D" stroke-opacity="0.09" stroke-width="0.3"><path d="
M 216.00 443.00 
C 232.03 444.45 248.89 443.00 265.00 443.00
C 275.52 443.00 286.53 442.05 297.00 443.00
C 272.52 437.93 241.69 442.00 216.00 442.00
C 216.00 442.00 215.96 443.00 216.00 443.00 Z"/>
</g>
<g fill="None" fill-opacity="0.0" stroke="#6BF4C1" stroke-opacity="1.00" stroke-width="0.3"><path d="
M 0.00 448.00 
L 0.00 486.00
C 2.73 489.10 5.27 490.13 9.00 491.00
C 37.25 494.16 66.55 489.82 95.00 491.00 C 123.45 492.18 152.50 491.00 181.00 491.00
C 181.00 475.00 181.00 459.00 181.00 443.00
C 152.50 443.00 123.45 441.82 95.00 443.00 C 66.55 444.18 37.25 439.84 9.00 443.00
C 5.23 443.88 2.78 444.81 0.00 448.00 Z"/>
</g>
<g fill="None" fill-opacity="0.0" stroke="#00F1A6" stroke-opacity="1.00" stroke-width="0.3"><path d="
M 181.00 491.00 
C 192.51 491.00 204.55 489.96 216.00 491.00
C 216.00 475.00 216.00 459.00 216.00 443.00
C 204.54 444.02 192.51 443.00 181.00 443.00
C 181.00 459.00 181.00 475.00 181.00 491.00 Z"/>
</g>
<g fill="None" fill-opacity="0.0" stroke="#798B97" stroke-opacity="1.00" stroke-width="0.3"><path d="
M 216.00 491.00 
C 232.02 489.52 248.90 491.00 265.00 491.00
C 274.55 488.78 271.98 474.49 272.00 467.00 C 272.02 459.51 274.49 445.21 265.00 443.00
C 248.89 443.00 232.03 444.45 216.00 443.00
C 216.00 459.00 216.00 475.00 216.00 491.00 Z"/>
</g>
<g fill="None" fill-opacity="0.0" stroke="#596C76" stroke-opacity="0.99" stroke-width="0.3"><path d="
M 265.00 491.00 
C 275.52 491.00 286.53 491.95 297.00 491.00
C 309.56 488.40 307.00 478.06 307.00 467.00 C 307.00 455.94 309.55 445.60 297.00 443.00
C 286.53 442.05 275.52 443.00 265.00 443.00
C 274.49 445.21 272.02 459.51 272.00 467.00 C 271.98 474.49 274.55 488.78 265.00 491.00 Z"/>
</g>
<g fill="None" fill-opacity="0.0" stroke="#000000" stroke-opacity="0.00" stroke-width="0.3"><path d="
M 436.00 512.00 
L 512.00 512.00
L 512.00 443.00
C 506.20 479.24 472.68 509.77 436.00 512.00 Z"/>
</g>
<g fill="None" fill-opacity="0.0" stroke="#62EFC0" stroke-opacity="0.08" stroke-width="0.3"><path d="
M 216.00 492.00 
C 215.96 492.00 216.00 491.00 216.00 491.00
C 204.55 489.96 192.51 491.00 181.00 491.00
C 152.50 491.00 123.45 492.18 95.00 491.00 C 66.55 489.82 37.25 494.16 9.00 491.00
C 30.37 495.97 55.41 490.44 78.00 492.00 C 100.59 493.56 124.21 491.41 147.00 492.00 C 169.79 492.59 193.16 492.00 216.00 492.00 Z"/>
</g>
<g fill="None" fill-opacity="0.0" stroke="#6F7F8E" stroke-opacity="0.09" stroke-width="0.3"><path d="
M 216.00 492.00 
C 241.69 492.00 272.44 496.09 297.00 491.00
C 286.53 491.95 275.52 491.00 265.00 491.00
C 248.90 491.00 232.02 489.52 216.00 491.00
C 216.00 491.00 215.96 492.00 216.00 492.00 Z"/>
</g>
<g fill="None" fill-opacity="0.0" stroke="#2DF2B1" stroke-opacity="0.27" stroke-width="0.3"><path d="
M 425.00 512.00 
L 435.00 512.00
C 432.79 510.28 427.28 510.46 425.00 512.00 Z"/>
</g>
<g fill="#000000" fill-opacity="0.00" stroke="None">
<path d="
M 0.00 66.00 
C 13.31 49.29 43.38 56.00 64.00 56.00
C 74.61 56.00 85.42 55.76 96.00 56.00 C 106.58 56.24 117.49 55.36 128.00 56.00 C 138.51 56.64 149.67 54.53 160.00 56.00 C 170.33 57.47 183.16 52.85 193.00 56.00
C 197.74 43.34 207.04 30.73 214.00 19.00
C 218.82 10.89 223.81 1.28 234.00 0.00
L 0.00 0.00
L 0.00 66.00 Z"/>
</g>
<g fill="#FED15B" fill-opacity="1.00" stroke="None">
<path d="
M 214.00 19.00 
C 223.70 30.88 231.66 46.83 239.00 61.00
C 237.72 61.28 235.50 60.24 235.00 62.00
C 248.23 59.55 244.61 82.39 244.00 92.00 C 243.39 101.61 246.23 120.93 244.00 131.00
C 250.48 113.44 241.22 89.70 245.00 71.00
C 254.89 85.05 261.78 101.24 271.30 115.70 C 280.82 130.15 287.16 146.60 297.30 160.70 C 307.45 174.80 315.45 198.75 293.00 206.00
C 309.72 206.00 332.78 210.81 346.25 200.25 C 359.72 189.69 348.71 170.11 340.70 159.30 C 332.68 148.50 327.30 131.60 319.00 121.00
C 318.40 120.23 317.58 119.91 317.00 119.00
C 304.20 98.94 291.64 77.27 281.00 56.00
C 271.06 36.13 259.88 9.92 240.00 0.00
L 234.00 0.00
C 223.81 1.28 218.82 10.89 214.00 19.00 Z"/>
</g>
<g fill="#000000" fill-opacity="0.00" stroke="None">
<path d="
M 281.00 56.00 
C 324.33 56.00 367.67 56.00 411.00 56.00
C 425.40 56.00 438.47 57.08 453.00 56.00 C 467.53 54.92 475.07 62.37 474.00 77.00 C 472.93 91.63 473.99 105.45 474.00 120.00
C 474.00 120.50 474.00 121.00 474.00 121.00
C 474.00 130.82 473.99 140.13 474.00 150.00 C 474.01 159.87 473.97 170.07 474.00 180.00 C 474.03 189.93 473.93 200.06 474.00 210.00 C 474.07 219.94 473.84 230.08 474.00 240.00 C 474.16 249.92 473.65 260.16 474.00 270.00 C 474.35 279.84 473.23 290.35 474.00 300.00 C 474.77 309.65 472.29 320.78 474.00 330.00 C 475.71 339.22 470.22 351.73 474.00 360.00
C 494.76 371.45 507.23 394.32 512.00 416.00
L 512.00 0.00
L 240.00 0.00
C 259.88 9.92 271.06 36.13 281.00 56.00 Z"/>
</g>
<g fill="#FEE177" fill-opacity="1.00" stroke="None">
<path d="
M 193.00 56.00 
C 192.87 56.35 192.35 56.95 192.00 57.00
C 181.75 77.84 169.85 99.49 157.00 119.00
C 156.46 119.82 155.44 120.39 155.00 121.00
C 143.59 136.96 141.77 150.82 129.08 167.08 C 116.39 183.34 123.28 208.50 148.00 206.00 C 172.72 203.50 195.53 206.92 220.00 206.00 C 244.47 205.08 268.56 206.00 293.00 206.00
C 315.45 198.75 307.45 174.80 297.30 160.70 C 287.16 146.60 280.82 130.15 271.30 115.70 C 261.78 101.24 254.89 85.05 245.00 71.00
C 241.22 89.70 250.48 113.44 244.00 131.00
C 239.80 142.37 226.99 134.46 229.00 124.00 C 231.01 113.54 227.62 100.51 229.00 90.00 C 230.38 79.49 225.00 67.94 235.00 62.00
C 235.50 60.24 237.72 61.28 239.00 61.00
C 231.66 46.83 223.70 30.88 214.00 19.00
C 207.04 30.73 197.74 43.34 193.00 56.00
M 239.00 148.00 
C 248.68 150.12 245.68 175.04 234.78 171.22 C 223.87 167.40 228.00 145.59 239.00 148.00 Z"/>
</g>
<g fill="#5FB6FF" fill-opacity="1.00" stroke="None">
<path d="
M 0.00 66.00 
L 0.00 120.00
C 21.33 120.00 42.67 120.00 64.00 120.00
C 64.00 99.00 64.00 78.00 64.00 57.00
C 64.00 56.50 64.00 56.00 64.00 56.00
C 43.38 56.00 13.31 49.29 0.00 66.00 Z"/>
</g>
<g fill="#25A6FD" fill-opacity="0.80" stroke="None">
<path d="
M 64.00 57.00 
C 84.76 58.88 107.16 57.41 128.00 57.00 C 148.84 56.59 171.42 59.96 192.00 57.00
C 192.35 56.95 192.87 56.35 193.00 56.00
C 183.16 52.85 170.33 57.47 160.00 56.00 C 149.67 54.53 138.51 56.64 128.00 56.00 C 117.49 55.36 106.58 56.24 96.00 56.00 C 85.42 55.76 74.61 56.00 64.00 56.00
C 64.00 56.00 64.00 56.50 64.00 57.00 Z"/>
</g>
<g fill="#26A6FD" fill-opacity="1.00" stroke="None">
<path d="
M 317.00 119.00 
C 323.30 123.50 334.11 118.76 342.00 120.00 C 349.89 121.24 360.57 119.57 369.00 120.00 C 377.43 120.43 387.40 120.09 396.00 120.00 C 404.60 119.91 414.15 120.24 422.00 121.00
C 438.33 122.58 457.66 122.47 474.00 121.00
C 474.00 121.00 474.00 120.50 474.00 120.00
C 456.81 118.45 439.23 121.17 422.00 120.00
C 418.20 99.14 431.53 69.05 411.00 56.00
C 367.67 56.00 324.33 56.00 281.00 56.00
C 291.64 77.27 304.20 98.94 317.00 119.00 Z"/>
</g>
<g fill="#0593FC" fill-opacity="1.00" stroke="None">
<path d="
M 474.00 120.00 
C 473.99 105.45 472.93 91.63 474.00 77.00 C 475.07 62.37 467.53 54.92 453.00 56.00 C 438.47 57.08 425.40 56.00 411.00 56.00
C 431.53 69.05 418.20 99.14 422.00 120.00
C 439.23 121.17 456.81 118.45 474.00 120.00 Z"/>
</g>
<g fill="#26A6FD" fill-opacity="1.00" stroke="None">
<path d="
M 64.00 120.00 
C 73.92 120.00 85.22 120.62 95.00 120.00 C 104.78 119.38 116.73 121.65 126.00 120.00 C 135.27 118.35 149.30 124.12 157.00 119.00
C 169.85 99.49 181.75 77.84 192.00 57.00
C 171.42 59.96 148.84 56.59 128.00 57.00 C 107.16 57.41 84.76 58.88 64.00 57.00
C 64.00 78.00 64.00 99.00 64.00 120.00 Z"/>
</g>
<g fill="#F6AC33" fill-opacity="1.00" stroke="None">
<path d="
M 244.00 131.00 
C 246.23 120.93 243.39 101.61 244.00 92.00 C 244.61 82.39 248.23 59.55 235.00 62.00
C 225.00 67.94 230.38 79.49 229.00 90.00 C 227.62 100.51 231.01 113.54 229.00 124.00 C 226.99 134.46 239.80 142.37 244.00 131.00 Z"/>
</g>
<g fill="#95D3FE" fill-opacity="1.00" stroke="None">
<path d="
M 64.00 120.00 
C 42.67 120.00 21.33 120.00 0.00 120.00
L 0.00 121.00
C 12.72 120.68 25.27 121.43 38.00 121.00 C 50.73 120.57 64.32 121.81 77.00 121.00 C 89.68 120.19 103.59 122.73 116.00 121.00 C 128.41 119.27 143.25 124.80 155.00 121.00
C 155.44 120.39 156.46 119.82 157.00 119.00
C 149.30 124.12 135.27 118.35 126.00 120.00 C 116.73 121.65 104.78 119.38 95.00 120.00 C 85.22 120.62 73.92 120.00 64.00 120.00 Z"/>
</g>
<g fill="#9FD8FE" fill-opacity="1.00" stroke="None">
<path d="
M 319.00 121.00 
C 329.31 124.34 342.09 119.45 353.00 121.00 C 363.91 122.55 375.77 120.21 387.00 121.00 C 398.23 121.79 410.66 120.41 422.00 121.00
C 414.15 120.24 404.60 119.91 396.00 120.00 C 387.40 120.09 377.43 120.43 369.00 120.00 C 360.57 119.57 349.89 121.24 342.00 120.00 C 334.11 118.76 323.30 123.50 317.00 119.00
C 317.58 119.91 318.40 120.23 319.00 121.00 Z"/>
</g>
<g fill="#F2FBFF" fill-opacity="1.00" stroke="None">
<path d="
M 0.00 390.00 
C 2.66 395.08 7.06 399.26 13.00 400.00
C 24.58 400.32 37.56 398.20 50.00 399.00 C 62.44 399.80 75.44 398.63 88.00 399.00 C 100.56 399.37 113.39 398.81 126.00 399.00 C 138.61 399.19 151.38 398.86 164.00 399.00 C 176.62 399.14 189.39 398.81 202.00 399.00 C 214.61 399.19 227.45 398.65 240.00 399.00 C 252.55 399.35 265.58 398.24 278.00 399.00 C 290.42 399.76 303.87 397.34 316.00 399.00 C 328.13 400.66 342.51 395.32 354.00 399.00
C 366.02 375.79 383.97 356.45 410.00 350.00
C 413.88 349.04 417.92 348.28 422.00 348.00
C 422.00 335.67 422.00 323.33 422.00 311.00
C 405.93 311.00 388.91 313.55 373.99 308.01 C 359.07 302.47 342.77 303.96 326.00 304.00 C 309.23 304.04 291.04 303.98 274.00 304.00 C 256.96 304.02 239.11 303.98 222.00 304.00
C 222.00 311.74 223.50 322.22 221.00 329.00
C 216.93 340.02 202.45 331.18 207.00 321.00
C 197.00 321.00 187.00 321.00 177.00 321.00
C 156.45 321.00 135.51 321.52 115.00 321.00 C 94.49 320.48 72.60 322.80 53.00 320.00
C 18.62 318.69 20.83 252.18 59.00 255.00 C 97.17 257.82 138.54 255.00 177.00 255.00
C 187.00 255.00 197.00 255.00 207.00 255.00
C 207.00 250.03 206.17 244.45 211.08 242.08 C 215.99 239.72 219.40 242.66 221.00 247.00
C 223.52 253.83 222.00 264.27 222.00 272.00
C 238.95 271.96 256.06 272.06 273.00 272.00 C 289.94 271.94 308.23 272.11 325.00 272.00 C 341.77 271.89 358.17 273.78 373.22 268.22 C 388.28 262.67 405.74 265.00 422.00 265.00
C 422.00 217.00 422.00 169.00 422.00 121.00
C 410.66 120.41 398.23 121.79 387.00 121.00 C 375.77 120.21 363.91 122.55 353.00 121.00 C 342.09 119.45 329.31 124.34 319.00 121.00
C 327.30 131.60 332.68 148.50 340.70 159.30 C 348.71 170.11 359.72 189.69 346.25 200.25 C 332.78 210.81 309.72 206.00 293.00 206.00
C 268.56 206.00 244.47 205.08 220.00 206.00 C 195.53 206.92 172.72 203.50 148.00 206.00 C 123.28 208.50 116.39 183.34 129.08 167.08 C 141.77 150.82 143.59 136.96 155.00 121.00
C 143.25 124.80 128.41 119.27 116.00 121.00 C 103.59 122.73 89.68 120.19 77.00 121.00 C 64.32 121.81 50.73 120.57 38.00 121.00 C 25.27 121.43 12.72 120.68 0.00 121.00
L 0.00 390.00 Z"/>
</g>
<g fill="#DEF5FC" fill-opacity="1.00" stroke="None">
<path d="
M 422.00 265.00 
C 436.95 265.00 432.89 276.03 433.00 288.00 C 433.11 299.97 436.51 311.00 422.00 311.00
C 422.00 323.33 422.00 335.67 422.00 348.00
C 441.46 346.67 457.70 351.01 474.00 360.00
C 470.22 351.73 475.71 339.22 474.00 330.00 C 472.29 320.78 474.77 309.65 474.00 300.00 C 473.23 290.35 474.35 279.84 474.00 270.00 C 473.65 260.16 474.16 249.92 474.00 240.00 C 473.84 230.08 474.07 219.94 474.00 210.00 C 473.93 200.06 474.03 189.93 474.00 180.00 C 473.97 170.07 474.01 159.87 474.00 150.00 C 473.99 140.13 474.00 130.82 474.00 121.00
C 457.66 122.47 438.33 122.58 422.00 121.00
C 422.00 169.00 422.00 217.00 422.00 265.00 Z"/>
</g>
<g fill="#F6AD34" fill-opacity="1.00" stroke="None">
<path d="
M 239.00 148.00 
C 228.00 145.59 223.87 167.40 234.78 171.22 C 245.68 175.04 248.68 150.12 239.00 148.00 Z"/>
</g>
<g fill="#FC8087" fill-opacity="1.00" stroke="None">
<path d="
M 207.00 255.00 
C 207.00 261.66 207.45 270.56 207.00 277.00 C 206.55 283.44 208.20 293.38 207.00 299.00 C 205.80 304.62 210.23 317.04 206.00 320.00
C 202.86 322.20 196.05 319.10 192.00 320.00 C 187.95 320.90 181.31 319.61 177.00 320.00
C 177.04 320.00 177.00 321.00 177.00 321.00
C 187.00 321.00 197.00 321.00 207.00 321.00
C 202.45 331.18 216.93 340.02 221.00 329.00
C 223.72 316.71 221.00 300.63 221.00 288.00 C 221.00 275.37 223.72 259.29 221.00 247.00
C 219.40 242.66 215.99 239.72 211.08 242.08 C 206.17 244.45 207.00 250.03 207.00 255.00 Z"/>
</g>
<g fill="#F3A4AB" fill-opacity="1.00" stroke="None">
<path d="
M 221.00 329.00 
C 223.50 322.22 222.00 311.74 222.00 304.00
C 222.00 293.33 222.00 282.67 222.00 272.00
C 222.00 264.27 223.52 253.83 221.00 247.00
C 223.72 259.29 221.00 275.37 221.00 288.00 C 221.00 300.63 223.72 316.71 221.00 329.00 Z"/>
</g>
<g fill="#FC8188" fill-opacity="1.00" stroke="None">
<path d="
M 53.00 320.00 
C 67.62 320.56 82.37 320.00 97.00 320.00
C 97.00 298.67 97.00 277.33 97.00 256.00
C 123.50 255.33 151.32 257.33 177.00 255.00
C 138.54 255.00 97.17 257.82 59.00 255.00 C 20.83 252.18 18.62 318.69 53.00 320.00 Z"/>
</g>
<g fill="#FC4755" fill-opacity="1.00" stroke="None">
<path d="
M 97.00 320.00 
C 123.30 320.00 150.82 317.63 177.00 320.00
C 177.00 298.67 177.00 277.33 177.00 256.00
C 186.67 256.00 196.33 256.00 206.00 256.00
C 206.00 277.33 206.00 298.67 206.00 320.00
C 210.23 317.04 205.80 304.62 207.00 299.00 C 208.20 293.38 206.55 283.44 207.00 277.00 C 207.45 270.56 207.00 261.66 207.00 255.00
C 197.00 255.00 187.00 255.00 177.00 255.00
C 151.32 257.33 123.50 255.33 97.00 256.00
C 97.00 277.33 97.00 298.67 97.00 320.00 Z"/>
</g>
<g fill="#FB2B3A" fill-opacity="1.00" stroke="None">
<path d="
M 177.00 320.00 
C 181.31 319.61 187.95 320.90 192.00 320.00 C 196.05 319.10 202.86 322.20 206.00 320.00
C 206.00 298.67 206.00 277.33 206.00 256.00
C 196.33 256.00 186.67 256.00 177.00 256.00
C 177.00 277.33 177.00 298.67 177.00 320.00 Z"/>
</g>
<g fill="#C5D3DD" fill-opacity="1.00" stroke="None">
<path d="
M 222.00 272.00 
C 222.00 282.67 222.00 293.33 222.00 304.00
C 239.11 303.98 256.96 304.02 274.00 304.00 C 291.04 303.98 309.23 304.04 326.00 304.00 C 342.77 303.96 359.07 302.47 373.99 308.01 C 388.91 313.55 405.93 311.00 422.00 311.00
C 436.51 311.00 433.11 299.97 433.00 288.00 C 432.89 276.03 436.95 265.00 422.00 265.00
C 405.74 265.00 388.28 262.67 373.22 268.22 C 358.17 273.78 341.77 271.89 325.00 272.00 C 308.23 272.11 289.94 271.94 273.00 272.00 C 256.06 272.06 238.95 271.96 222.00 272.00 Z"/>
</g>
<g fill="#F6BEC5" fill-opacity="1.00" stroke="None">
<path d="
M 177.00 321.00 
C 177.00 321.00 177.04 320.00 177.00 320.00
C 150.82 317.63 123.30 320.00 97.00 320.00
C 82.37 320.00 67.62 320.56 53.00 320.00
C 72.60 322.80 94.49 320.48 115.00 321.00 C 135.51 321.52 156.45 321.00 177.00 321.00 Z"/>
</g>
<g fill="#04F2A6" fill-opacity="0.98" stroke="None">
<path d="
M 410.00 350.00 
C 415.58 353.78 424.80 357.64 431.70 361.31 C 438.59 364.97 443.00 373.01 448.77 377.23 C 454.54 381.45 457.21 395.62 463.00 397.00
C 468.28 394.15 475.40 398.34 474.00 404.00 C 472.59 409.66 470.14 412.61 467.00 417.00
C 465.96 426.91 469.54 441.09 465.67 450.67 C 461.81 460.25 458.96 468.05 453.25 476.25 C 447.53 484.44 441.98 489.44 434.30 495.30 C 426.63 501.16 417.09 504.62 410.00 509.00
C 414.51 510.12 419.86 510.91 424.00 512.00
L 425.00 512.00
C 427.28 510.46 432.79 510.28 435.00 512.00
L 436.00 512.00
C 472.68 509.77 506.20 479.24 512.00 443.00
L 512.00 416.00
C 507.23 394.32 494.76 371.45 474.00 360.00
C 457.70 351.01 441.46 346.67 422.00 348.00
C 417.92 348.28 413.88 349.04 410.00 350.00 Z"/>
</g>
<g fill="#6CF5C2" fill-opacity="0.99" stroke="None">
<path d="
M 354.00 399.00 
C 353.83 399.33 353.35 399.95 353.00 400.00
C 333.53 444.81 364.91 497.83 410.00 509.00
C 417.09 504.62 426.63 501.16 434.30 495.30 C 441.98 489.44 447.53 484.44 453.25 476.25 C 458.96 468.05 461.81 460.25 465.67 450.67 C 469.54 441.09 465.96 426.91 467.00 417.00
C 461.87 424.18 455.36 429.90 450.75 437.75 C 446.13 445.59 438.94 450.45 435.08 459.08 C 431.23 467.71 419.98 473.28 414.25 464.75 C 408.51 456.23 400.49 453.74 395.75 446.25 C 391.01 438.75 377.15 434.86 381.98 424.98 C 386.80 415.09 398.45 427.16 403.25 432.75 C 408.05 438.35 416.90 447.01 423.00 451.00
C 435.89 432.69 449.40 414.85 463.00 397.00
C 457.21 395.62 454.54 381.45 448.77 377.23 C 443.00 373.01 438.59 364.97 431.70 361.31 C 424.80 357.64 415.58 353.78 410.00 350.00
C 383.97 356.45 366.02 375.79 354.00 399.00 Z"/>
</g>
<g fill="#000000" fill-opacity="0.00" stroke="None">
<path d="
M 0.00 448.00 
C 2.78 444.81 5.23 443.88 9.00 443.00
C 30.32 438.04 54.45 443.52 77.00 442.00 C 99.55 440.48 123.13 442.56 146.00 442.00 C 168.87 441.44 193.01 442.00 216.00 442.00
C 241.69 442.00 272.52 437.93 297.00 443.00
C 309.55 445.60 307.00 455.94 307.00 467.00 C 307.00 478.06 309.56 488.40 297.00 491.00
C 272.44 496.09 241.69 492.00 216.00 492.00
C 193.16 492.00 169.79 492.59 147.00 492.00 C 124.21 491.41 100.59 493.56 78.00 492.00 C 55.41 490.44 30.37 495.97 9.00 491.00
C 5.27 490.13 2.73 489.10 0.00 486.00
L 0.00 512.00
L 424.00 512.00
C 419.86 510.91 414.51 510.12 410.00 509.00
C 364.91 497.83 333.53 444.81 353.00 400.00
C 325.32 403.98 296.00 398.47 268.00 400.00 C 240.00 401.53 211.10 399.89 183.00 400.00 C 154.90 400.11 126.05 401.25 98.00 400.00 C 69.95 398.75 40.81 403.45 13.00 400.00
C 7.06 399.26 2.66 395.08 0.00 390.00
L 0.00 448.00 Z"/>
</g>
<g fill="#FDFEFE" fill-opacity="1.00" stroke="None">
<path d="
M 463.00 397.00 
C 449.40 414.85 435.89 432.69 423.00 451.00
C 416.90 447.01 408.05 438.35 403.25 432.75 C 398.45 427.16 386.80 415.09 381.98 424.98 C 377.15 434.86 391.01 438.75 395.75 446.25 C 400.49 453.74 408.51 456.23 414.25 464.75 C 419.98 473.28 431.23 467.71 435.08 459.08 C 438.94 450.45 446.13 445.59 450.75 437.75 C 455.36 429.90 461.87 424.18 467.00 417.00
C 470.14 412.61 472.59 409.66 474.00 404.00 C 475.40 398.34 468.28 394.15 463.00 397.00 Z"/>
</g>
<g fill="#F2FBFF" fill-opacity="0.80" stroke="None">
<path d="
M 13.00 400.00 
C 40.81 403.45 69.95 398.75 98.00 400.00 C 126.05 401.25 154.90 400.11 183.00 400.00 C 211.10 399.89 240.00 401.53 268.00 400.00 C 296.00 398.47 325.32 403.98 353.00 400.00
C 353.35 399.95 353.83 399.33 354.00 399.00
C 342.51 395.32 328.13 400.66 316.00 399.00 C 303.87 397.34 290.42 399.76 278.00 399.00 C 265.58 398.24 252.55 399.35 240.00 399.00 C 227.45 398.65 214.61 399.19 202.00 399.00 C 189.39 398.81 176.62 399.14 164.00 399.00 C 151.38 398.86 138.61 399.19 126.00 399.00 C 113.39 398.81 100.56 399.37 88.00 399.00 C 75.44 398.63 62.44 399.80 50.00 399.00 C 37.56 398.20 24.58 400.32 13.00 400.00 Z"/>
</g>
<g fill="#61F0BF" fill-opacity="0.08" stroke="None">
<path d="
M 9.00 443.00 
C 37.25 439.84 66.55 444.18 95.00 443.00 C 123.45 441.82 152.50 443.00 181.00 443.00
C 192.51 443.00 204.54 444.02 216.00 443.00
C 215.96 443.00 216.00 442.00 216.00 442.00
C 193.01 442.00 168.87 441.44 146.00 442.00 C 123.13 442.56 99.55 440.48 77.00 442.00 C 54.45 443.52 30.32 438.04 9.00 443.00 Z"/>
</g>
<g fill="#6F7E8D" fill-opacity="0.09" stroke="None">
<path d="
M 216.00 443.00 
C 232.03 444.45 248.89 443.00 265.00 443.00
C 275.52 443.00 286.53 442.05 297.00 443.00
C 272.52 437.93 241.69 442.00 216.00 442.00
C 216.00 442.00 215.96 443.00 216.00 443.00 Z"/>
</g>
<g fill="#6BF4C1" fill-opacity="1.00" stroke="None">
<path d="
M 0.00 448.00 
L 0.00 486.00
C 2.73 489.10 5.27 490.13 9.00 491.00
C 37.25 494.16 66.55 489.82 95.00 491.00 C 123.45 492.18 152.50 491.00 181.00 491.00
C 181.00 475.00 181.00 459.00 181.00 443.00
C 152.50 443.00 123.45 441.82 95.00 443.00 C 66.55 444.18 37.25 439.84 9.00 443.00
C 5.23 443.88 2.78 444.81 0.00 448.00 Z"/>
</g>
<g fill="#00F1A6" fill-opacity="1.00" stroke="None">
<path d="
M 181.00 491.00 
C 192.51 491.00 204.55 489.96 216.00 491.00
C 216.00 475.00 216.00 459.00 216.00 443.00
C 204.54 444.02 192.51 443.00 181.00 443.00
C 181.00 459.00 181.00 475.00 181.00 491.00 Z"/>
</g>
<g fill="#798B97" fill-opacity="1.00" stroke="None">
<path d="
M 216.00 491.00 
C 232.02 489.52 248.90 491.00 265.00 491.00
C 274.55 488.78 271.98 474.49 272.00 467.00 C 272.02 459.51 274.49 445.21 265.00 443.00
C 248.89 443.00 232.03 444.45 216.00 443.00
C 216.00 459.00 216.00 475.00 216.00 491.00 Z"/>
</g>
<g fill="#596C76" fill-opacity="0.99" stroke="None">
<path d="
M 265.00 491.00 
C 275.52 491.00 286.53 491.95 297.00 491.00
C 309.56 488.40 307.00 478.06 307.00 467.00 C 307.00 455.94 309.55 445.60 297.00 443.00
C 286.53 442.05 275.52 443.00 265.00 443.00
C 274.49 445.21 272.02 459.51 272.00 467.00 C 271.98 474.49 274.55 488.78 265.00 491.00 Z"/>
</g>
<g fill="#000000" fill-opacity="0.00" stroke="None">
<path d="
M 436.00 512.00 
L 512.00 512.00
L 512.00 443.00
C 506.20 479.24 472.68 509.77 436.00 512.00 Z"/>
</g>
<g fill="#62EFC0" fill-opacity="0.08" stroke="None">
<path d="
M 216.00 492.00 
C 215.96 492.00 216.00 491.00 216.00 491.00
C 204.55 489.96 192.51 491.00 181.00 491.00
C 152.50 491.00 123.45 492.18 95.00 491.00 C 66.55 489.82 37.25 494.16 9.00 491.00
C 30.37 495.97 55.41 490.44 78.00 492.00 C 100.59 493.56 124.21 491.41 147.00 492.00 C 169.79 492.59 193.16 492.00 216.00 492.00 Z"/>
</g>
<g fill="#6F7F8E" fill-opacity="0.09" stroke="None">
<path d="
M 216.00 492.00 
C 241.69 492.00 272.44 496.09 297.00 491.00
C 286.53 491.95 275.52 491.00 265.00 491.00
C 248.90 491.00 232.02 489.52 216.00 491.00
C 216.00 491.00 215.96 492.00 216.00 492.00 Z"/>
</g>
<g fill="#2DF2B1" fill-opacity="0.27" stroke="None">
<path d="
M 425.00 512.00 
L 435.00 512.00
C 432.79 510.28 427.28 510.46 425.00 512.00 Z"/>
</g>
</svg>