<svg xmlns="http://www.w3.org/2000/svg" xmlns:v="https://svgstorm.com"
viewBox = "0 0 570 570"
width="570"
height="570">
<g fill="None" fill-opacity="0.0" stroke="#000000" stroke-opacity="1.00" stroke-width="0.3"><path d="
M 0.00 570.00 
L 570.00 570.00
L 570.00 0.00
L 0.00 0.00
L 0.00 570.00
M 194.00 54.00 
C 229.80 103.86 268.45 152.41 305.00 202.00
C 313.00 195.09 319.25 187.09 326.25 179.25 C 333.24 171.40 340.41 163.29 347.25 155.25 C 354.08 147.20 360.88 139.92 367.75 131.75 C 374.62 123.58 381.89 116.21 388.75 107.75 C 395.61 99.29 402.36 92.40 409.75 83.75 C 417.14 75.10 421.99 69.63 430.25 60.25 C 438.51 50.87 455.46 54.23 469.00 54.00 C 482.54 53.77 500.10 54.17 514.00 54.00
C 508.75 63.25 499.34 70.13 492.75 78.75 C 486.17 87.38 477.66 95.32 470.75 103.75 C 463.84 112.18 456.33 119.93 449.25 128.25 C 442.16 136.57 434.67 145.17 427.25 153.25 C 419.83 161.33 413.14 170.83 405.75 178.75 C 398.36 186.67 390.40 194.94 384.25 203.25 C 378.09 211.55 367.05 219.88 362.25 228.25 C 357.44 236.62 340.98 244.52 344.26 253.74 C 347.54 262.96 359.50 271.27 364.75 280.25 C 370.01 289.23 378.40 298.53 384.75 307.25 C 391.10 315.96 397.79 324.90 404.30 333.70 C 410.81 342.49 418.32 351.33 424.77 360.23 C 431.22 369.13 438.05 377.43 444.75 386.25 C 451.45 395.07 457.69 404.57 464.77 413.23 C 471.85 421.89 478.19 431.25 484.92 440.08 C 491.65 448.91 498.49 457.14 504.77 466.23 C 511.05 475.32 518.99 483.58 525.25 492.75 C 531.52 501.91 539.48 510.54 545.00 520.00
C 528.78 520.28 512.18 519.63 496.00 520.00 C 479.82 520.37 461.94 519.30 446.00 520.00 C 430.06 520.70 412.29 518.47 397.00 520.00 C 381.71 521.53 377.67 507.25 369.25 497.75 C 360.83 488.25 356.16 479.08 348.23 469.77 C 340.30 460.46 334.14 450.68 326.70 441.30 C 319.25 431.92 312.38 423.25 305.25 413.75 C 298.12 404.26 290.71 394.88 283.70 385.30 C 276.68 375.73 268.76 366.73 262.00 357.00
C 251.48 367.80 241.76 379.33 231.75 390.75 C 221.75 402.17 212.12 413.42 201.75 424.75 C 191.39 436.08 182.85 447.80 172.23 459.23 C 161.61 470.66 153.41 481.60 142.25 493.25 C 131.09 504.90 124.30 522.29 105.00 520.00 C 85.70 517.71 60.81 521.72 41.00 520.00
C 46.33 511.36 53.59 503.44 60.75 495.75 C 67.91 488.06 74.12 480.00 81.25 472.25 C 88.39 464.51 95.50 456.24 102.25 448.25 C 109.00 440.26 116.18 432.84 122.92 424.92 C 129.66 417.00 136.54 409.15 143.25 401.25 C 149.96 393.36 158.17 385.44 164.25 377.25 C 170.34 369.07 179.58 362.42 185.25 354.25 C 190.92 346.08 200.51 338.69 205.75 330.75 C 211.00 322.82 225.39 314.48 222.24 305.75 C 219.10 297.03 208.45 289.15 203.25 280.75 C 198.04 272.35 189.82 263.51 183.75 255.25 C 177.69 246.98 170.96 238.59 164.75 230.25 C 158.53 221.92 152.12 213.60 145.75 205.25 C 139.37 196.91 132.64 188.13 126.25 179.75 C 119.85 171.38 113.49 163.22 107.25 154.75 C 101.00 146.29 94.49 138.27 88.23 129.77 C 81.97 121.27 74.82 112.89 68.70 104.30 C 62.57 95.72 55.56 88.24 49.25 79.75 C 42.93 71.26 36.87 62.21 30.00 54.00
C 84.67 54.00 139.33 54.00 194.00 54.00 Z"/>
</g>
<g fill="None" fill-opacity="0.0" stroke="#FCFCFC" stroke-opacity="1.00" stroke-width="0.3"><path d="
M 194.00 54.00 
C 139.33 54.00 84.67 54.00 30.00 54.00
C 36.87 62.21 42.93 71.26 49.25 79.75 C 55.56 88.24 62.57 95.72 68.70 104.30 C 74.82 112.89 81.97 121.27 88.23 129.77 C 94.49 138.27 101.00 146.29 107.25 154.75 C 113.49 163.22 119.85 171.38 126.25 179.75 C 132.64 188.13 139.37 196.91 145.75 205.25 C 152.12 213.60 158.53 221.92 164.75 230.25 C 170.96 238.59 177.69 246.98 183.75 255.25 C 189.82 263.51 198.04 272.35 203.25 280.75 C 208.45 289.15 219.10 297.03 222.24 305.75 C 225.39 314.48 211.00 322.82 205.75 330.75 C 200.51 338.69 190.92 346.08 185.25 354.25 C 179.58 362.42 170.34 369.07 164.25 377.25 C 158.17 385.44 149.96 393.36 143.25 401.25 C 136.54 409.15 129.66 417.00 122.92 424.92 C 116.18 432.84 109.00 440.26 102.25 448.25 C 95.50 456.24 88.39 464.51 81.25 472.25 C 74.12 480.00 67.91 488.06 60.75 495.75 C 53.59 503.44 46.33 511.36 41.00 520.00
C 60.81 521.72 85.70 517.71 105.00 520.00 C 124.30 522.29 131.09 504.90 142.25 493.25 C 153.41 481.60 161.61 470.66 172.23 459.23 C 182.85 447.80 191.39 436.08 201.75 424.75 C 212.12 413.42 221.75 402.17 231.75 390.75 C 241.76 379.33 251.48 367.80 262.00 357.00
C 268.76 366.73 276.68 375.73 283.70 385.30 C 290.71 394.88 298.12 404.26 305.25 413.75 C 312.38 423.25 319.25 431.92 326.70 441.30 C 334.14 450.68 340.30 460.46 348.23 469.77 C 356.16 479.08 360.83 488.25 369.25 497.75 C 377.67 507.25 381.71 521.53 397.00 520.00 C 412.29 518.47 430.06 520.70 446.00 520.00 C 461.94 519.30 479.82 520.37 496.00 520.00 C 512.18 519.63 528.78 520.28 545.00 520.00
C 539.48 510.54 531.52 501.91 525.25 492.75 C 518.99 483.58 511.05 475.32 504.77 466.23 C 498.49 457.14 491.65 448.91 484.92 440.08 C 478.19 431.25 471.85 421.89 464.77 413.23 C 457.69 404.57 451.45 395.07 444.75 386.25 C 438.05 377.43 431.22 369.13 424.77 360.23 C 418.32 351.33 410.81 342.49 404.30 333.70 C 397.79 324.90 391.10 315.96 384.75 307.25 C 378.40 298.53 370.01 289.23 364.75 280.25 C 359.50 271.27 347.54 262.96 344.26 253.74 C 340.98 244.52 357.44 236.62 362.25 228.25 C 367.05 219.88 378.09 211.55 384.25 203.25 C 390.40 194.94 398.36 186.67 405.75 178.75 C 413.14 170.83 419.83 161.33 427.25 153.25 C 434.67 145.17 442.16 136.57 449.25 128.25 C 456.33 119.93 463.84 112.18 470.75 103.75 C 477.66 95.32 486.17 87.38 492.75 78.75 C 499.34 70.13 508.75 63.25 514.00 54.00
C 500.10 54.17 482.54 53.77 469.00 54.00 C 455.46 54.23 438.51 50.87 430.25 60.25 C 421.99 69.63 417.14 75.10 409.75 83.75 C 402.36 92.40 395.61 99.29 388.75 107.75 C 381.89 116.21 374.62 123.58 367.75 131.75 C 360.88 139.92 354.08 147.20 347.25 155.25 C 340.41 163.29 333.24 171.40 326.25 179.25 C 319.25 187.09 313.00 195.09 305.00 202.00
C 268.45 152.41 229.80 103.86 194.00 54.00
M 169.00 99.00 
C 177.89 103.50 181.68 117.65 189.25 124.75 C 196.82 131.85 202.10 143.68 209.25 151.75 C 216.40 159.82 222.71 169.80 229.75 178.25 C 236.79 186.70 242.87 196.59 249.77 205.23 C 256.67 213.87 262.83 222.55 269.75 231.25 C 276.67 239.95 282.83 249.46 289.77 258.23 C 296.71 267.00 303.25 276.16 309.92 285.08 C 316.59 294.01 323.72 302.76 330.25 311.75 C 336.79 320.73 344.07 329.36 350.75 338.25 C 357.43 347.13 363.57 355.84 370.30 364.70 C 377.04 373.56 384.07 382.31 390.75 391.25 C 397.44 400.19 404.31 409.09 410.92 418.08 C 417.52 427.08 424.40 435.90 431.25 444.75 C 438.10 453.60 444.85 462.70 451.00 472.00
C 433.51 472.55 408.56 475.80 399.25 460.75 C 389.94 445.70 380.93 437.73 371.70 424.30 C 362.46 410.88 353.06 400.85 343.75 388.25 C 334.43 375.66 325.89 364.62 316.70 352.30 C 307.51 339.99 297.93 328.45 288.75 316.25 C 279.57 304.05 270.46 291.88 261.23 279.77 C 252.00 267.66 242.51 255.80 233.25 243.75 C 223.98 231.71 215.41 219.90 206.08 207.92 C 196.76 195.94 187.58 183.75 178.25 171.75 C 168.91 159.76 159.92 147.39 150.70 135.30 C 141.47 123.22 131.71 111.41 123.00 99.00
C 129.51 97.67 138.82 97.35 146.00 98.00 C 153.18 98.65 162.94 95.94 169.00 99.00 Z"/>
</g>
<g fill="None" fill-opacity="0.0" stroke="#8D8D8D" stroke-opacity="1.00" stroke-width="0.3"><path d="
M 123.00 99.00 
C 130.37 99.89 138.72 97.81 146.00 99.00 C 153.28 100.19 162.08 96.72 169.00 99.00
C 162.94 95.94 153.18 98.65 146.00 98.00 C 138.82 97.35 129.51 97.67 123.00 99.00 Z"/>
</g>
<g fill="None" fill-opacity="0.0" stroke="#000000" stroke-opacity="1.00" stroke-width="0.3"><path d="
M 169.00 99.00 
C 162.08 96.72 153.28 100.19 146.00 99.00 C 138.72 97.81 130.37 99.89 123.00 99.00
C 131.71 111.41 141.47 123.22 150.70 135.30 C 159.92 147.39 168.91 159.76 178.25 171.75 C 187.58 183.75 196.76 195.94 206.08 207.92 C 215.41 219.90 223.98 231.71 233.25 243.75 C 242.51 255.80 252.00 267.66 261.23 279.77 C 270.46 291.88 279.57 304.05 288.75 316.25 C 297.93 328.45 307.51 339.99 316.70 352.30 C 325.89 364.62 334.43 375.66 343.75 388.25 C 353.06 400.85 362.46 410.88 371.70 424.30 C 380.93 437.73 389.94 445.70 399.25 460.75 C 408.56 475.80 433.51 472.55 451.00 472.00
C 444.85 462.70 438.10 453.60 431.25 444.75 C 424.40 435.90 417.52 427.08 410.92 418.08 C 404.31 409.09 397.44 400.19 390.75 391.25 C 384.07 382.31 377.04 373.56 370.30 364.70 C 363.57 355.84 357.43 347.13 350.75 338.25 C 344.07 329.36 336.79 320.73 330.25 311.75 C 323.72 302.76 316.59 294.01 309.92 285.08 C 303.25 276.16 296.71 267.00 289.77 258.23 C 282.83 249.46 276.67 239.95 269.75 231.25 C 262.83 222.55 256.67 213.87 249.77 205.23 C 242.87 196.59 236.79 186.70 229.75 178.25 C 222.71 169.80 216.40 159.82 209.25 151.75 C 202.10 143.68 196.82 131.85 189.25 124.75 C 181.68 117.65 177.89 103.50 169.00 99.00 Z"/>
</g>
<g fill="#000000" fill-opacity="1.00" stroke="None">
<path d="
M 0.00 570.00 
L 570.00 570.00
L 570.00 0.00
L 0.00 0.00
L 0.00 570.00
M 194.00 54.00 
C 229.80 103.86 268.45 152.41 305.00 202.00
C 313.00 195.09 319.25 187.09 326.25 179.25 C 333.24 171.40 340.41 163.29 347.25 155.25 C 354.08 147.20 360.88 139.92 367.75 131.75 C 374.62 123.58 381.89 116.21 388.75 107.75 C 395.61 99.29 402.36 92.40 409.75 83.75 C 417.14 75.10 421.99 69.63 430.25 60.25 C 438.51 50.87 455.46 54.23 469.00 54.00 C 482.54 53.77 500.10 54.17 514.00 54.00
C 508.75 63.25 499.34 70.13 492.75 78.75 C 486.17 87.38 477.66 95.32 470.75 103.75 C 463.84 112.18 456.33 119.93 449.25 128.25 C 442.16 136.57 434.67 145.17 427.25 153.25 C 419.83 161.33 413.14 170.83 405.75 178.75 C 398.36 186.67 390.40 194.94 384.25 203.25 C 378.09 211.55 367.05 219.88 362.25 228.25 C 357.44 236.62 340.98 244.52 344.26 253.74 C 347.54 262.96 359.50 271.27 364.75 280.25 C 370.01 289.23 378.40 298.53 384.75 307.25 C 391.10 315.96 397.79 324.90 404.30 333.70 C 410.81 342.49 418.32 351.33 424.77 360.23 C 431.22 369.13 438.05 377.43 444.75 386.25 C 451.45 395.07 457.69 404.57 464.77 413.23 C 471.85 421.89 478.19 431.25 484.92 440.08 C 491.65 448.91 498.49 457.14 504.77 466.23 C 511.05 475.32 518.99 483.58 525.25 492.75 C 531.52 501.91 539.48 510.54 545.00 520.00
C 528.78 520.28 512.18 519.63 496.00 520.00 C 479.82 520.37 461.94 519.30 446.00 520.00 C 430.06 520.70 412.29 518.47 397.00 520.00 C 381.71 521.53 377.67 507.25 369.25 497.75 C 360.83 488.25 356.16 479.08 348.23 469.77 C 340.30 460.46 334.14 450.68 326.70 441.30 C 319.25 431.92 312.38 423.25 305.25 413.75 C 298.12 404.26 290.71 394.88 283.70 385.30 C 276.68 375.73 268.76 366.73 262.00 357.00
C 251.48 367.80 241.76 379.33 231.75 390.75 C 221.75 402.17 212.12 413.42 201.75 424.75 C 191.39 436.08 182.85 447.80 172.23 459.23 C 161.61 470.66 153.41 481.60 142.25 493.25 C 131.09 504.90 124.30 522.29 105.00 520.00 C 85.70 517.71 60.81 521.72 41.00 520.00
C 46.33 511.36 53.59 503.44 60.75 495.75 C 67.91 488.06 74.12 480.00 81.25 472.25 C 88.39 464.51 95.50 456.24 102.25 448.25 C 109.00 440.26 116.18 432.84 122.92 424.92 C 129.66 417.00 136.54 409.15 143.25 401.25 C 149.96 393.36 158.17 385.44 164.25 377.25 C 170.34 369.07 179.58 362.42 185.25 354.25 C 190.92 346.08 200.51 338.69 205.75 330.75 C 211.00 322.82 225.39 314.48 222.24 305.75 C 219.10 297.03 208.45 289.15 203.25 280.75 C 198.04 272.35 189.82 263.51 183.75 255.25 C 177.69 246.98 170.96 238.59 164.75 230.25 C 158.53 221.92 152.12 213.60 145.75 205.25 C 139.37 196.91 132.64 188.13 126.25 179.75 C 119.85 171.38 113.49 163.22 107.25 154.75 C 101.00 146.29 94.49 138.27 88.23 129.77 C 81.97 121.27 74.82 112.89 68.70 104.30 C 62.57 95.72 55.56 88.24 49.25 79.75 C 42.93 71.26 36.87 62.21 30.00 54.00
C 84.67 54.00 139.33 54.00 194.00 54.00 Z"/>
</g>
<g fill="#FCFCFC" fill-opacity="1.00" stroke="None">
<path d="
M 194.00 54.00 
C 139.33 54.00 84.67 54.00 30.00 54.00
C 36.87 62.21 42.93 71.26 49.25 79.75 C 55.56 88.24 62.57 95.72 68.70 104.30 C 74.82 112.89 81.97 121.27 88.23 129.77 C 94.49 138.27 101.00 146.29 107.25 154.75 C 113.49 163.22 119.85 171.38 126.25 179.75 C 132.64 188.13 139.37 196.91 145.75 205.25 C 152.12 213.60 158.53 221.92 164.75 230.25 C 170.96 238.59 177.69 246.98 183.75 255.25 C 189.82 263.51 198.04 272.35 203.25 280.75 C 208.45 289.15 219.10 297.03 222.24 305.75 C 225.39 314.48 211.00 322.82 205.75 330.75 C 200.51 338.69 190.92 346.08 185.25 354.25 C 179.58 362.42 170.34 369.07 164.25 377.25 C 158.17 385.44 149.96 393.36 143.25 401.25 C 136.54 409.15 129.66 417.00 122.92 424.92 C 116.18 432.84 109.00 440.26 102.25 448.25 C 95.50 456.24 88.39 464.51 81.25 472.25 C 74.12 480.00 67.91 488.06 60.75 495.75 C 53.59 503.44 46.33 511.36 41.00 520.00
C 60.81 521.72 85.70 517.71 105.00 520.00 C 124.30 522.29 131.09 504.90 142.25 493.25 C 153.41 481.60 161.61 470.66 172.23 459.23 C 182.85 447.80 191.39 436.08 201.75 424.75 C 212.12 413.42 221.75 402.17 231.75 390.75 C 241.76 379.33 251.48 367.80 262.00 357.00
C 268.76 366.73 276.68 375.73 283.70 385.30 C 290.71 394.88 298.12 404.26 305.25 413.75 C 312.38 423.25 319.25 431.92 326.70 441.30 C 334.14 450.68 340.30 460.46 348.23 469.77 C 356.16 479.08 360.83 488.25 369.25 497.75 C 377.67 507.25 381.71 521.53 397.00 520.00 C 412.29 518.47 430.06 520.70 446.00 520.00 C 461.94 519.30 479.82 520.37 496.00 520.00 C 512.18 519.63 528.78 520.28 545.00 520.00
C 539.48 510.54 531.52 501.91 525.25 492.75 C 518.99 483.58 511.05 475.32 504.77 466.23 C 498.49 457.14 491.65 448.91 484.92 440.08 C 478.19 431.25 471.85 421.89 464.77 413.23 C 457.69 404.57 451.45 395.07 444.75 386.25 C 438.05 377.43 431.22 369.13 424.77 360.23 C 418.32 351.33 410.81 342.49 404.30 333.70 C 397.79 324.90 391.10 315.96 384.75 307.25 C 378.40 298.53 370.01 289.23 364.75 280.25 C 359.50 271.27 347.54 262.96 344.26 253.74 C 340.98 244.52 357.44 236.62 362.25 228.25 C 367.05 219.88 378.09 211.55 384.25 203.25 C 390.40 194.94 398.36 186.67 405.75 178.75 C 413.14 170.83 419.83 161.33 427.25 153.25 C 434.67 145.17 442.16 136.57 449.25 128.25 C 456.33 119.93 463.84 112.18 470.75 103.75 C 477.66 95.32 486.17 87.38 492.75 78.75 C 499.34 70.13 508.75 63.25 514.00 54.00
C 500.10 54.17 482.54 53.77 469.00 54.00 C 455.46 54.23 438.51 50.87 430.25 60.25 C 421.99 69.63 417.14 75.10 409.75 83.75 C 402.36 92.40 395.61 99.29 388.75 107.75 C 381.89 116.21 374.62 123.58 367.75 131.75 C 360.88 139.92 354.08 147.20 347.25 155.25 C 340.41 163.29 333.24 171.40 326.25 179.25 C 319.25 187.09 313.00 195.09 305.00 202.00
C 268.45 152.41 229.80 103.86 194.00 54.00
M 169.00 99.00 
C 177.89 103.50 181.68 117.65 189.25 124.75 C 196.82 131.85 202.10 143.68 209.25 151.75 C 216.40 159.82 222.71 169.80 229.75 178.25 C 236.79 186.70 242.87 196.59 249.77 205.23 C 256.67 213.87 262.83 222.55 269.75 231.25 C 276.67 239.95 282.83 249.46 289.77 258.23 C 296.71 267.00 303.25 276.16 309.92 285.08 C 316.59 294.01 323.72 302.76 330.25 311.75 C 336.79 320.73 344.07 329.36 350.75 338.25 C 357.43 347.13 363.57 355.84 370.30 364.70 C 377.04 373.56 384.07 382.31 390.75 391.25 C 397.44 400.19 404.31 409.09 410.92 418.08 C 417.52 427.08 424.40 435.90 431.25 444.75 C 438.10 453.60 444.85 462.70 451.00 472.00
C 433.51 472.55 408.56 475.80 399.25 460.75 C 389.94 445.70 380.93 437.73 371.70 424.30 C 362.46 410.88 353.06 400.85 343.75 388.25 C 334.43 375.66 325.89 364.62 316.70 352.30 C 307.51 339.99 297.93 328.45 288.75 316.25 C 279.57 304.05 270.46 291.88 261.23 279.77 C 252.00 267.66 242.51 255.80 233.25 243.75 C 223.98 231.71 215.41 219.90 206.08 207.92 C 196.76 195.94 187.58 183.75 178.25 171.75 C 168.91 159.76 159.92 147.39 150.70 135.30 C 141.47 123.22 131.71 111.41 123.00 99.00
C 129.51 97.67 138.82 97.35 146.00 98.00 C 153.18 98.65 162.94 95.94 169.00 99.00 Z"/>
</g>
<g fill="#8D8D8D" fill-opacity="1.00" stroke="None">
<path d="
M 123.00 99.00 
C 130.37 99.89 138.72 97.81 146.00 99.00 C 153.28 100.19 162.08 96.72 169.00 99.00
C 162.94 95.94 153.18 98.65 146.00 98.00 C 138.82 97.35 129.51 97.67 123.00 99.00 Z"/>
</g>
<g fill="#000000" fill-opacity="1.00" stroke="None">
<path d="
M 169.00 99.00 
C 162.08 96.72 153.28 100.19 146.00 99.00 C 138.72 97.81 130.37 99.89 123.00 99.00
C 131.71 111.41 141.47 123.22 150.70 135.30 C 159.92 147.39 168.91 159.76 178.25 171.75 C 187.58 183.75 196.76 195.94 206.08 207.92 C 215.41 219.90 223.98 231.71 233.25 243.75 C 242.51 255.80 252.00 267.66 261.23 279.77 C 270.46 291.88 279.57 304.05 288.75 316.25 C 297.93 328.45 307.51 339.99 316.70 352.30 C 325.89 364.62 334.43 375.66 343.75 388.25 C 353.06 400.85 362.46 410.88 371.70 424.30 C 380.93 437.73 389.94 445.70 399.25 460.75 C 408.56 475.80 433.51 472.55 451.00 472.00
C 444.85 462.70 438.10 453.60 431.25 444.75 C 424.40 435.90 417.52 427.08 410.92 418.08 C 404.31 409.09 397.44 400.19 390.75 391.25 C 384.07 382.31 377.04 373.56 370.30 364.70 C 363.57 355.84 357.43 347.13 350.75 338.25 C 344.07 329.36 336.79 320.73 330.25 311.75 C 323.72 302.76 316.59 294.01 309.92 285.08 C 303.25 276.16 296.71 267.00 289.77 258.23 C 282.83 249.46 276.67 239.95 269.75 231.25 C 262.83 222.55 256.67 213.87 249.77 205.23 C 242.87 196.59 236.79 186.70 229.75 178.25 C 222.71 169.80 216.40 159.82 209.25 151.75 C 202.10 143.68 196.82 131.85 189.25 124.75 C 181.68 117.65 177.89 103.50 169.00 99.00 Z"/>
</g>
</svg>