<svg xmlns="http://www.w3.org/2000/svg" xmlns:v="https://svgstorm.com"
viewBox = "0 0 512 512"
width="512"
height="512">
<g fill="None" fill-opacity="0.0" stroke="#000000" stroke-opacity="0.01" stroke-width="0.3"><path d="
M 0.00 246.00 
C 2.33 117.06 118.04 1.72 247.00 0.00
L 0.00 0.00
L 0.00 246.00 Z"/>
</g>
<g fill="None" fill-opacity="0.0" stroke="#000000" stroke-opacity="1.00" stroke-width="0.3"><path d="
M 0.00 246.00 
L 0.00 267.00
C 1.86 269.12 0.80 273.13 1.00 276.00
C 9.57 401.96 121.71 511.26 249.00 512.00
L 263.00 512.00
C 266.77 509.92 272.47 511.40 277.00 511.00
C 400.02 500.17 500.18 400.03 511.00 277.00
C 511.37 272.81 509.91 267.36 512.00 264.00
L 512.00 247.00
C 510.92 235.62 508.93 220.17 507.02 208.98 C 505.11 197.78 501.65 184.56 498.22 174.78 C 494.80 164.99 490.15 151.97 485.70 144.31 C 481.24 136.64 476.03 117.38 466.00 122.00
C 456.28 126.48 467.14 138.94 470.31 145.69 C 473.47 152.45 478.99 163.34 481.78 171.22 C 484.56 179.11 488.44 191.42 490.33 199.67 C 492.22 207.93 492.62 208.60 493.00 215.00 C 493.38 221.40 496.96 225.04 495.78 230.22 C 494.60 235.40 499.48 244.31 497.00 248.00
C 494.86 251.19 484.23 248.63 480.00 249.00 C 475.77 249.37 465.29 249.55 461.00 249.00 C 456.71 248.45 445.32 251.32 443.00 248.00
C 440.18 243.97 443.81 236.22 442.00 231.00 C 440.20 225.78 441.65 221.26 440.01 214.99 C 438.37 208.73 439.75 207.08 436.22 199.78 C 432.70 192.47 426.26 183.56 418.00 181.00
C 414.39 158.15 406.67 136.30 398.00 115.00
C 409.46 108.41 420.37 99.33 430.00 90.00
C 439.73 95.21 444.78 115.60 457.00 110.00
C 466.26 102.24 448.62 88.64 442.75 81.25 C 436.87 73.87 425.37 64.70 417.25 57.75 C 409.13 50.80 398.54 43.54 388.75 37.25 C 378.97 30.96 367.28 25.94 355.98 21.02 C 344.67 16.11 332.47 11.24 319.78 8.22 C 307.09 5.21 290.45 2.07 277.00 1.00
C 272.48 0.64 266.69 2.09 263.00 0.00
L 247.00 0.00
C 118.04 1.72 2.33 117.06 0.00 246.00
M 248.00 143.00 
C 243.32 146.27 231.72 141.01 226.00 142.00 C 220.28 142.99 212.73 138.53 206.78 138.22 C 200.83 137.91 193.73 135.60 187.98 134.02 C 182.22 132.45 176.64 129.92 170.93 128.07 C 165.21 126.23 159.49 123.57 154.00 121.00
C 146.79 117.63 139.95 113.80 133.00 110.00
C 154.39 65.68 193.38 20.99 245.00 16.00
C 245.57 15.99 247.72 14.03 249.00 15.00
C 248.33 57.50 250.33 101.32 248.00 143.00
M 267.00 16.00 
C 318.74 18.19 357.57 67.76 379.00 110.00
C 343.96 130.18 305.19 142.48 264.00 143.00
C 259.80 140.06 264.18 128.62 263.00 123.00 C 261.82 117.38 263.56 107.45 263.00 101.00 C 262.45 94.55 263.24 86.87 263.00 80.00 C 262.76 73.13 263.12 65.04 263.00 58.00 C 262.88 50.96 263.06 44.13 263.00 37.00 C 262.94 29.87 263.04 22.18 263.00 15.00
C 264.28 15.28 266.50 14.24 267.00 16.00
M 178.00 28.00 
C 153.64 47.80 134.21 73.26 121.00 101.00
C 110.31 96.62 102.15 87.21 93.00 80.00
C 115.68 55.62 146.84 38.82 178.00 28.00
M 391.00 101.00 
C 377.77 73.31 358.22 47.75 334.00 28.00
C 342.85 30.55 351.93 34.92 360.23 38.77 C 368.53 42.62 376.58 47.11 384.23 51.77 C 391.88 56.43 398.70 61.93 405.75 67.25 C 412.80 72.57 422.69 79.07 413.25 85.25 C 403.80 91.42 401.10 97.26 391.00 101.00
M 69.00 248.00 
C 66.76 251.20 56.27 248.63 52.00 249.00 C 47.73 249.37 37.31 249.55 33.00 249.00 C 28.69 248.45 17.33 251.32 15.00 248.00
C 11.63 243.19 17.86 233.74 16.98 227.98 C 16.09 222.21 19.02 215.04 19.93 208.93 C 20.84 202.81 21.79 196.29 23.98 189.98 C 26.16 183.66 26.22 180.39 29.32 173.32 C 32.42 166.25 31.81 165.81 35.98 156.98 C 40.14 148.14 46.32 136.82 51.30 128.30 C 56.28 119.79 54.97 123.09 60.75 114.75 C 66.53 106.42 74.39 97.96 81.00 90.00
C 92.08 98.22 101.92 108.75 114.00 115.00
C 105.34 136.28 97.61 158.11 94.00 181.00
C 68.62 192.37 70.91 224.27 69.00 248.00
M 248.00 159.00 
C 255.33 166.33 246.52 176.19 238.00 174.00 C 229.48 171.81 219.64 174.00 211.00 174.00
C 177.02 174.00 143.66 174.84 110.00 176.00
C 113.66 158.19 120.35 141.18 126.00 124.00
C 163.47 144.43 205.15 156.86 248.00 159.00
M 301.00 174.00 
C 292.35 174.00 282.53 171.80 274.00 174.00 C 265.47 176.20 256.70 166.30 264.00 159.00
C 268.50 154.50 281.73 159.44 288.00 157.00 C 294.27 154.56 303.35 154.86 310.01 153.01 C 316.67 151.15 323.71 149.41 330.22 147.22 C 336.74 145.04 343.84 143.85 350.02 141.02 C 356.21 138.20 361.88 135.62 368.07 133.07 C 374.27 130.52 379.35 125.47 386.00 124.00
C 391.64 141.15 398.33 158.15 402.00 176.00
C 368.35 175.28 334.98 173.41 301.00 174.00
M 300.00 189.00 
C 314.67 189.00 329.33 189.00 344.00 189.00
C 347.75 189.00 351.99 189.71 355.00 190.00
C 373.25 190.00 395.28 186.50 411.74 194.26 C 428.21 202.01 425.40 221.45 427.98 239.02 C 430.56 256.60 426.17 277.49 425.00 297.00 C 423.83 316.51 404.53 321.00 387.00 321.00
C 384.58 321.23 381.09 322.00 378.00 322.00
C 370.33 322.00 362.67 322.00 355.00 322.00
C 352.25 322.27 348.42 323.00 345.00 323.00
C 327.67 323.00 310.33 323.00 293.00 323.00
C 270.64 325.16 246.13 324.00 223.00 324.00
C 217.61 324.00 211.64 323.45 207.00 323.00
C 198.43 323.00 185.09 322.47 177.00 323.00 C 168.91 323.53 153.00 318.91 153.00 330.00
C 153.00 335.72 156.47 336.06 161.00 337.00
C 164.22 337.29 168.44 337.75 171.00 338.00
C 188.33 338.00 205.67 338.00 223.00 338.00
C 229.71 338.00 237.38 338.94 244.00 338.00 C 250.62 337.06 251.13 349.87 248.00 353.00
C 243.49 357.51 230.27 352.54 224.00 355.00 C 217.73 357.46 208.69 357.28 201.99 358.99 C 195.30 360.71 188.28 362.53 181.78 364.78 C 175.28 367.02 168.18 368.17 161.98 370.98 C 155.77 373.78 150.19 376.48 143.93 378.93 C 137.66 381.37 132.62 386.48 126.00 388.00
C 120.36 370.85 113.67 353.85 110.00 336.00
C 119.10 334.10 133.68 340.95 138.00 330.00
C 139.51 316.06 116.78 322.92 109.00 321.00 C 101.22 319.08 89.98 314.02 88.23 303.77 C 86.48 293.52 84.46 281.18 84.00 270.00 C 83.55 258.82 83.88 244.09 85.00 233.00 C 86.12 221.91 85.75 211.44 91.77 201.77 C 97.79 192.10 107.59 190.99 119.00 191.00 C 130.41 191.01 145.13 190.00 157.00 190.00
C 160.08 189.70 164.25 189.00 168.00 189.00
C 181.00 189.00 194.00 189.00 207.00 189.00
C 212.04 188.51 218.27 188.00 224.00 188.00
C 245.33 188.00 266.67 188.00 288.00 188.00
C 292.08 188.00 296.66 188.68 300.00 189.00
M 69.00 264.00 
C 71.83 268.05 68.13 275.79 70.00 281.00 C 71.87 286.21 70.17 290.79 71.99 297.01 C 73.81 303.22 72.24 304.93 75.78 312.22 C 79.31 319.52 85.73 328.45 94.00 331.00
C 97.61 353.85 105.33 375.69 114.00 397.00
C 101.91 403.20 92.12 413.96 81.00 422.00
C 40.45 378.67 17.13 323.01 15.00 264.00
C 17.17 260.80 27.75 263.37 32.00 263.00 C 36.25 262.63 46.70 262.45 51.00 263.00 C 55.30 263.55 66.68 260.68 69.00 264.00
M 497.00 264.00 
C 499.60 267.87 494.47 277.23 495.22 282.22 C 495.98 287.21 493.57 294.63 493.01 300.01 C 492.45 305.39 490.57 311.59 489.07 317.07 C 487.58 322.56 486.87 326.94 484.68 332.68 C 482.48 338.42 481.76 341.63 479.02 348.02 C 476.29 354.42 476.59 353.36 472.70 361.70 C 468.80 370.03 462.83 379.88 457.75 387.75 C 452.67 395.61 446.36 404.20 440.25 411.25 C 434.13 418.29 436.27 416.71 430.00 422.00
C 420.31 412.63 409.47 403.59 398.00 397.00
C 406.66 375.72 414.39 353.89 418.00 331.00
C 443.30 319.57 441.20 287.79 443.00 264.00
C 445.23 260.81 455.75 263.37 460.00 263.00 C 464.25 262.63 474.73 262.44 479.00 263.00 C 483.27 263.56 494.77 260.68 497.00 264.00
M 264.00 354.00 
C 259.21 350.65 262.31 335.94 270.00 338.00 C 277.69 340.06 286.23 338.00 294.00 338.00
C 330.32 338.00 366.01 337.19 402.00 336.00
C 398.34 353.81 391.65 370.82 386.00 388.00
C 348.38 368.23 307.81 353.88 264.00 354.00
M 245.00 496.00 
C 193.23 494.84 154.59 443.37 133.00 402.00
C 139.95 398.16 146.82 394.41 154.00 391.00
C 159.37 388.49 164.48 386.07 170.08 384.08 C 175.67 382.08 181.57 380.18 187.22 378.22 C 192.88 376.27 200.14 374.80 206.00 374.00 C 211.87 373.20 219.45 369.32 225.22 370.22 C 230.99 371.12 243.09 365.56 248.00 369.00
C 252.20 371.94 247.82 383.38 249.00 389.00 C 250.18 394.62 248.45 404.55 249.00 411.00 C 249.55 417.45 248.76 425.13 249.00 432.00 C 249.24 438.87 248.88 446.96 249.00 454.00 C 249.12 461.04 248.94 467.87 249.00 475.00 C 249.06 482.13 248.96 489.82 249.00 497.00
C 247.72 496.72 245.50 497.76 245.00 496.00
M 267.00 496.00 
C 266.40 496.03 264.30 497.96 263.00 497.00
C 263.67 454.50 261.67 410.68 264.00 369.00
C 269.03 365.48 280.62 370.90 286.67 370.33 C 292.72 369.76 301.64 373.54 308.01 373.99 C 314.38 374.44 321.46 377.94 327.68 379.32 C 333.90 380.71 339.33 383.58 345.23 385.77 C 351.13 387.96 357.08 390.42 362.70 393.31 C 368.31 396.19 373.51 398.93 379.00 402.00
C 357.45 446.23 318.75 491.11 267.00 496.00
M 121.00 411.00 
C 134.17 438.73 153.80 464.24 178.00 484.00
C 146.92 473.11 115.64 456.41 93.00 432.00
C 102.21 424.74 110.29 415.40 121.00 411.00
M 419.00 432.00 
C 396.32 456.38 365.16 473.18 334.00 484.00
C 358.28 464.19 377.76 438.69 391.00 411.00
C 401.63 415.48 409.97 424.59 419.00 432.00 Z"/>
</g>
<g fill="None" fill-opacity="0.0" stroke="#000000" stroke-opacity="0.58" stroke-width="0.3"><path d="
M 277.00 1.00 
C 276.87 0.96 277.00 0.00 277.00 0.00
L 263.00 0.00
C 266.69 2.09 272.48 0.64 277.00 1.00 Z"/>
</g>
<g fill="None" fill-opacity="0.0" stroke="#000000" stroke-opacity="0.01" stroke-width="0.3"><path d="
M 277.00 1.00 
C 290.45 2.07 307.09 5.21 319.78 8.22 C 332.47 11.24 344.67 16.11 355.98 21.02 C 367.28 25.94 378.97 30.96 388.75 37.25 C 398.54 43.54 409.13 50.80 417.25 57.75 C 425.37 64.70 436.87 73.87 442.75 81.25 C 448.62 88.64 466.26 102.24 457.00 110.00
C 461.83 111.86 461.97 119.62 466.00 122.00
C 476.03 117.38 481.24 136.64 485.70 144.31 C 490.15 151.97 494.80 164.99 498.22 174.78 C 501.65 184.56 505.11 197.78 507.02 208.98 C 508.93 220.17 510.92 235.62 512.00 247.00
L 512.00 0.00
L 277.00 0.00
C 277.00 0.00 276.87 0.96 277.00 1.00 Z"/>
</g>
<g fill="None" fill-opacity="0.0" stroke="#55707B" stroke-opacity="1.00" stroke-width="0.3"><path d="
M 245.00 16.00 
C 245.92 16.27 247.06 15.79 248.00 16.00
C 248.00 22.67 248.00 29.33 248.00 36.00
C 248.00 71.67 248.00 107.33 248.00 143.00
C 250.33 101.32 248.33 57.50 249.00 15.00
C 247.72 14.03 245.57 15.99 245.00 16.00 Z"/>
</g>
<g fill="None" fill-opacity="0.0" stroke="#55717B" stroke-opacity="1.00" stroke-width="0.3"><path d="
M 264.00 143.00 
C 264.00 100.67 264.00 58.33 264.00 16.00
C 265.00 16.00 266.00 16.00 267.00 16.00
C 266.50 14.24 264.28 15.28 263.00 15.00
C 263.04 22.18 262.94 29.87 263.00 37.00 C 263.06 44.13 262.88 50.96 263.00 58.00 C 263.12 65.04 262.76 73.13 263.00 80.00 C 263.24 86.87 262.45 94.55 263.00 101.00 C 263.56 107.45 261.82 117.38 263.00 123.00 C 264.18 128.62 259.80 140.06 264.00 143.00 Z"/>
</g>
<g fill="None" fill-opacity="0.0" stroke="#8FD6F7" stroke-opacity="1.00" stroke-width="0.3"><path d="
M 154.00 121.00 
C 176.90 85.65 210.45 53.97 248.00 36.00
C 248.00 29.33 248.00 22.67 248.00 16.00
C 247.06 15.79 245.92 16.27 245.00 16.00
C 193.38 20.99 154.39 65.68 133.00 110.00
C 139.95 113.80 146.79 117.63 154.00 121.00 Z"/>
</g>
<g fill="None" fill-opacity="0.0" stroke="#AFE2F8" stroke-opacity="1.00" stroke-width="0.3"><path d="
M 264.00 143.00 
C 305.19 142.48 343.96 130.18 379.00 110.00
C 357.57 67.76 318.74 18.19 267.00 16.00
C 266.00 16.00 265.00 16.00 264.00 16.00
C 264.00 58.33 264.00 100.67 264.00 143.00 Z"/>
</g>
<g fill="None" fill-opacity="0.0" stroke="#8DD4F5" stroke-opacity="1.00" stroke-width="0.3"><path d="
M 178.00 28.00 
C 146.84 38.82 115.68 55.62 93.00 80.00
C 102.15 87.21 110.31 96.62 121.00 101.00
C 134.21 73.26 153.64 47.80 178.00 28.00 Z"/>
</g>
<g fill="None" fill-opacity="0.0" stroke="#AEE0F4" stroke-opacity="1.00" stroke-width="0.3"><path d="
M 391.00 101.00 
C 401.10 97.26 403.80 91.42 413.25 85.25 C 422.69 79.07 412.80 72.57 405.75 67.25 C 398.70 61.93 391.88 56.43 384.23 51.77 C 376.58 47.11 368.53 42.62 360.23 38.77 C 351.93 34.92 342.85 30.55 334.00 28.00
C 358.22 47.75 377.77 73.31 391.00 101.00 Z"/>
</g>
<g fill="None" fill-opacity="0.0" stroke="#B0E3F8" stroke-opacity="1.00" stroke-width="0.3"><path d="
M 154.00 121.00 
C 159.49 123.57 165.21 126.23 170.93 128.07 C 176.64 129.92 182.22 132.45 187.98 134.02 C 193.73 135.60 200.83 137.91 206.78 138.22 C 212.73 138.53 220.28 142.99 226.00 142.00 C 231.72 141.01 243.32 146.27 248.00 143.00
C 248.00 107.33 248.00 71.67 248.00 36.00
C 210.45 53.97 176.90 85.65 154.00 121.00 Z"/>
</g>
<g fill="None" fill-opacity="0.0" stroke="#8FD6F7" stroke-opacity="1.00" stroke-width="0.3"><path d="
M 15.00 248.00 
C 33.00 248.00 51.00 248.00 69.00 248.00
C 70.91 224.27 68.62 192.37 94.00 181.00
C 97.61 158.11 105.34 136.28 114.00 115.00
C 101.92 108.75 92.08 98.22 81.00 90.00
C 74.39 97.96 66.53 106.42 60.75 114.75 C 54.97 123.09 56.28 119.79 51.30 128.30 C 46.32 136.82 40.14 148.14 35.98 156.98 C 31.81 165.81 32.42 166.25 29.32 173.32 C 26.22 180.39 26.16 183.66 23.98 189.98 C 21.79 196.29 20.84 202.81 19.93 208.93 C 19.02 215.04 16.09 222.21 16.98 227.98 C 17.86 233.74 11.63 243.19 15.00 248.00 Z"/>
</g>
<g fill="None" fill-opacity="0.0" stroke="#B0E2F7" stroke-opacity="1.00" stroke-width="0.3"><path d="
M 443.00 248.00 
C 461.00 248.00 479.00 248.00 497.00 248.00
C 499.48 244.31 494.60 235.40 495.78 230.22 C 496.96 225.04 493.38 221.40 493.00 215.00 C 492.62 208.60 492.22 207.93 490.33 199.67 C 488.44 191.42 484.56 179.11 481.78 171.22 C 478.99 163.34 473.47 152.45 470.31 145.69 C 467.14 138.94 456.28 126.48 466.00 122.00
C 461.97 119.62 461.83 111.86 457.00 110.00
C 444.78 115.60 439.73 95.21 430.00 90.00
C 420.37 99.33 409.46 108.41 398.00 115.00
C 406.67 136.30 414.39 158.15 418.00 181.00
C 426.26 183.56 432.70 192.47 436.22 199.78 C 439.75 207.08 438.37 208.73 440.01 214.99 C 441.65 221.26 440.20 225.78 442.00 231.00 C 443.81 236.22 440.18 243.97 443.00 248.00 Z"/>
</g>
<g fill="None" fill-opacity="0.0" stroke="#A7DFF6" stroke-opacity="1.00" stroke-width="0.3"><path d="
M 211.00 174.00 
C 222.54 172.88 235.73 172.75 248.00 173.00
C 248.00 168.33 248.00 163.67 248.00 159.00
C 205.15 156.86 163.47 144.43 126.00 124.00
C 120.35 141.18 113.66 158.19 110.00 176.00
C 143.66 174.84 177.02 174.00 211.00 174.00 Z"/>
</g>
<g fill="None" fill-opacity="0.0" stroke="#AFE2F6" stroke-opacity="1.00" stroke-width="0.3"><path d="
M 264.00 159.00 
C 261.81 162.13 265.64 169.48 264.00 173.00
C 276.17 173.67 289.66 171.67 301.00 174.00
C 334.98 173.41 368.35 175.28 402.00 176.00
C 398.33 158.15 391.64 141.15 386.00 124.00
C 379.35 125.47 374.27 130.52 368.07 133.07 C 361.88 135.62 356.21 138.20 350.02 141.02 C 343.84 143.85 336.74 145.04 330.22 147.22 C 323.71 149.41 316.67 151.15 310.01 153.01 C 303.35 154.86 294.27 154.56 288.00 157.00 C 281.73 159.44 268.50 154.50 264.00 159.00 Z"/>
</g>
<g fill="None" fill-opacity="0.0" stroke="#56707A" stroke-opacity="1.00" stroke-width="0.3"><path d="
M 211.00 174.00 
C 219.64 174.00 229.48 171.81 238.00 174.00 C 246.52 176.19 255.33 166.33 248.00 159.00
C 248.00 163.67 248.00 168.33 248.00 173.00
C 235.73 172.75 222.54 172.88 211.00 174.00 Z"/>
</g>
<g fill="None" fill-opacity="0.0" stroke="#57707A" stroke-opacity="1.00" stroke-width="0.3"><path d="
M 301.00 174.00 
C 289.66 171.67 276.17 173.67 264.00 173.00
C 265.64 169.48 261.81 162.13 264.00 159.00
C 256.70 166.30 265.47 176.20 274.00 174.00 C 282.53 171.80 292.35 174.00 301.00 174.00 Z"/>
</g>
<g fill="None" fill-opacity="0.0" stroke="#645A1C" stroke-opacity="1.00" stroke-width="0.3"><path d="
M 207.00 189.00 
C 212.67 189.00 218.33 189.00 224.00 189.00
C 223.96 189.00 224.00 188.00 224.00 188.00
C 218.27 188.00 212.04 188.51 207.00 189.00 Z"/>
</g>
<g fill="None" fill-opacity="0.0" stroke="#8D8028" stroke-opacity="1.00" stroke-width="0.3"><path d="
M 224.00 189.00 
C 245.33 189.00 266.67 189.00 288.00 189.00
C 287.96 189.00 288.00 188.00 288.00 188.00
C 266.67 188.00 245.33 188.00 224.00 188.00
C 224.00 188.00 223.96 189.00 224.00 189.00 Z"/>
</g>
<g fill="None" fill-opacity="0.0" stroke="#6C611E" stroke-opacity="1.00" stroke-width="0.3"><path d="
M 288.00 189.00 
C 292.00 189.00 296.00 189.00 300.00 189.00
C 296.66 188.68 292.08 188.00 288.00 188.00
C 288.00 188.00 287.96 189.00 288.00 189.00 Z"/>
</g>
<g fill="None" fill-opacity="0.0" stroke="#6B611E" stroke-opacity="1.00" stroke-width="0.3"><path d="
M 157.00 190.00 
C 160.75 190.00 164.99 189.29 168.00 189.00
C 164.25 189.00 160.08 189.70 157.00 190.00 Z"/>
</g>
<g fill="None" fill-opacity="0.0" stroke="#F2DB44" stroke-opacity="1.00" stroke-width="0.3"><path d="
M 157.00 190.00 
C 145.13 190.00 130.41 191.01 119.00 191.00 C 107.59 190.99 97.79 192.10 91.77 201.77 C 85.75 211.44 86.12 221.91 85.00 233.00 C 83.88 244.09 83.55 258.82 84.00 270.00 C 84.46 281.18 86.48 293.52 88.23 303.77 C 89.98 314.02 101.22 319.08 109.00 321.00 C 116.78 322.92 139.51 316.06 138.00 330.00
C 142.14 328.11 148.65 331.42 153.00 330.00
C 153.00 318.91 168.91 323.53 177.00 323.00 C 185.09 322.47 198.43 323.00 207.00 323.00
C 212.33 323.00 217.67 323.00 223.00 323.00
C 246.33 323.00 269.67 323.00 293.00 323.00
C 310.33 323.00 327.67 323.00 345.00 323.00
C 347.75 322.73 351.58 322.00 355.00 322.00
C 362.67 322.00 370.33 322.00 378.00 322.00
C 380.42 321.77 383.91 321.00 387.00 321.00
C 404.53 321.00 423.83 316.51 425.00 297.00 C 426.17 277.49 430.56 256.60 427.98 239.02 C 425.40 221.45 428.21 202.01 411.74 194.26 C 395.28 186.50 373.25 190.00 355.00 190.00
C 351.25 190.00 347.01 189.29 344.00 189.00
C 329.33 189.00 314.67 189.00 300.00 189.00
C 296.00 189.00 292.00 189.00 288.00 189.00
C 266.67 189.00 245.33 189.00 224.00 189.00
C 218.33 189.00 212.67 189.00 207.00 189.00
C 194.00 189.00 181.00 189.00 168.00 189.00
C 164.99 189.29 160.75 190.00 157.00 190.00
M 175.00 277.00 
C 178.98 266.41 181.97 259.70 184.98 247.98 C 187.98 236.25 192.83 231.61 194.98 217.98 C 197.12 204.34 214.86 208.36 210.02 221.02 C 205.18 233.69 203.91 239.53 200.07 250.07 C 196.24 260.62 193.67 271.15 190.07 280.07 C 186.48 289.00 185.80 305.75 174.00 304.00 C 162.20 302.25 164.76 287.63 160.07 278.93 C 155.39 270.22 153.98 259.50 149.68 249.32 C 145.38 239.15 144.13 231.44 139.22 219.78 C 134.32 208.11 152.94 204.38 154.77 217.23 C 156.60 230.08 162.02 235.74 164.93 247.07 C 167.83 258.41 172.10 265.95 175.00 277.00
M 243.00 269.00 
C 240.52 279.20 246.65 289.35 242.22 299.22 C 237.79 309.10 225.89 302.27 228.00 292.00 C 230.11 281.73 227.40 270.25 228.00 260.00 C 228.60 249.75 228.63 239.04 228.00 229.00 C 227.37 218.96 227.24 206.35 239.00 208.00 C 250.76 209.65 259.30 206.07 268.67 209.33 C 278.05 212.59 280.42 216.51 285.30 223.70 C 290.19 230.89 290.06 242.16 286.69 249.69 C 283.33 257.23 279.30 261.76 271.77 265.77 C 264.24 269.78 251.85 268.93 243.00 269.00
M 357.00 272.00 
C 356.24 267.59 358.00 258.41 358.00 253.00
C 358.00 239.56 355.34 228.70 358.00 215.00 C 360.66 201.30 376.14 211.38 373.00 224.00 C 369.86 236.62 373.00 249.37 373.00 262.00
C 373.74 269.66 374.00 278.64 374.00 287.00
C 374.00 292.96 374.72 300.18 367.92 302.92 C 361.12 305.66 357.29 297.99 354.23 293.77 C 351.17 289.55 348.20 284.90 345.23 280.77 C 342.26 276.64 338.77 271.01 335.75 267.25 C 332.72 263.49 329.95 257.01 326.75 254.25 C 323.54 251.50 320.89 241.26 317.00 241.00
C 319.65 249.11 316.35 261.47 317.00 270.00 C 317.65 278.53 318.38 290.46 316.00 298.00
C 313.48 305.97 304.37 305.82 302.00 298.00
C 298.41 286.18 300.96 268.88 301.00 256.00 C 301.04 243.12 298.30 225.71 302.00 214.00
C 306.73 199.05 318.30 215.00 322.77 222.23 C 327.24 229.46 334.25 240.13 339.92 247.08 C 345.59 254.03 350.18 266.22 357.00 272.00 Z"/>
</g>
<g fill="None" fill-opacity="0.0" stroke="#6B611E" stroke-opacity="1.00" stroke-width="0.3"><path d="
M 355.00 190.00 
C 351.99 189.71 347.75 189.00 344.00 189.00
C 347.01 189.29 351.25 190.00 355.00 190.00 Z"/>
</g>
<g fill="None" fill-opacity="0.0" stroke="#000000" stroke-opacity="1.00" stroke-width="0.3"><path d="
M 175.00 277.00 
C 172.10 265.95 167.83 258.41 164.93 247.07 C 162.02 235.74 156.60 230.08 154.77 217.23 C 152.94 204.38 134.32 208.11 139.22 219.78 C 144.13 231.44 145.38 239.15 149.68 249.32 C 153.98 259.50 155.39 270.22 160.07 278.93 C 164.76 287.63 162.20 302.25 174.00 304.00 C 185.80 305.75 186.48 289.00 190.07 280.07 C 193.67 271.15 196.24 260.62 200.07 250.07 C 203.91 239.53 205.18 233.69 210.02 221.02 C 214.86 208.36 197.12 204.34 194.98 217.98 C 192.83 231.61 187.98 236.25 184.98 247.98 C 181.97 259.70 178.98 266.41 175.00 277.00 Z"/>
</g>
<g fill="None" fill-opacity="0.0" stroke="#000000" stroke-opacity="1.00" stroke-width="0.3"><path d="
M 243.00 269.00 
C 251.85 268.93 264.24 269.78 271.77 265.77 C 279.30 261.76 283.33 257.23 286.69 249.69 C 290.06 242.16 290.19 230.89 285.30 223.70 C 280.42 216.51 278.05 212.59 268.67 209.33 C 259.30 206.07 250.76 209.65 239.00 208.00 C 227.24 206.35 227.37 218.96 228.00 229.00 C 228.63 239.04 228.60 249.75 228.00 260.00 C 227.40 270.25 230.11 281.73 228.00 292.00 C 225.89 302.27 237.79 309.10 242.22 299.22 C 246.65 289.35 240.52 279.20 243.00 269.00
M 260.00 223.00 
C 269.82 225.43 277.87 234.81 272.22 245.22 C 266.58 255.64 253.51 254.14 243.00 254.00
C 243.00 243.67 243.00 233.33 243.00 223.00
C 245.18 219.88 257.30 222.33 260.00 223.00 Z"/>
</g>
<g fill="None" fill-opacity="0.0" stroke="#000000" stroke-opacity="1.00" stroke-width="0.3"><path d="
M 302.00 214.00 
C 299.66 227.08 302.05 242.68 302.00 256.00 C 301.95 269.32 299.78 284.89 302.00 298.00
C 304.37 305.82 313.48 305.97 316.00 298.00
C 317.03 292.27 315.46 283.57 316.00 278.00 C 316.54 272.43 315.59 262.67 316.00 258.00 C 316.41 253.33 315.01 240.87 317.00 241.00
C 320.89 241.26 323.54 251.50 326.75 254.25 C 329.95 257.01 332.72 263.49 335.75 267.25 C 338.77 271.01 342.26 276.64 345.23 280.77 C 348.20 284.90 351.17 289.55 354.23 293.77 C 357.29 297.99 361.12 305.66 367.92 302.92 C 374.72 300.18 374.00 292.96 374.00 287.00
C 373.26 279.34 373.00 270.36 373.00 262.00
C 373.00 249.37 369.86 236.62 373.00 224.00 C 376.14 211.38 360.66 201.30 358.00 215.00 C 355.34 228.70 358.00 239.56 358.00 253.00
C 358.61 259.25 359.63 267.04 359.00 274.00
C 358.17 273.59 357.13 273.03 357.00 272.00
C 350.18 266.22 345.59 254.03 339.92 247.08 C 334.25 240.13 327.24 229.46 322.77 222.23 C 318.30 215.00 306.73 199.05 302.00 214.00 Z"/>
</g>
<g fill="None" fill-opacity="0.0" stroke="#6D631F" stroke-opacity="1.00" stroke-width="0.3"><path d="
M 302.00 298.00 
C 299.78 284.89 301.95 269.32 302.00 256.00 C 302.05 242.68 299.66 227.08 302.00 214.00
C 298.30 225.71 301.04 243.12 301.00 256.00 C 300.96 268.88 298.41 286.18 302.00 298.00 Z"/>
</g>
<g fill="None" fill-opacity="0.0" stroke="#5F561B" stroke-opacity="1.00" stroke-width="0.3"><path d="
M 243.00 223.00 
C 248.60 223.52 254.42 222.31 260.00 223.00
C 257.30 222.33 245.18 219.88 243.00 223.00 Z"/>
</g>
<g fill="None" fill-opacity="0.0" stroke="#F1DA44" stroke-opacity="1.00" stroke-width="0.3"><path d="
M 260.00 223.00 
C 254.42 222.31 248.60 223.52 243.00 223.00
C 243.00 233.33 243.00 243.67 243.00 254.00
C 253.51 254.14 266.58 255.64 272.22 245.22 C 277.87 234.81 269.82 225.43 260.00 223.00 Z"/>
</g>
<g fill="None" fill-opacity="0.0" stroke="#877A26" stroke-opacity="1.00" stroke-width="0.3"><path d="
M 316.00 298.00 
C 318.38 290.46 317.65 278.53 317.00 270.00 C 316.35 261.47 319.65 249.11 317.00 241.00
C 315.01 240.87 316.41 253.33 316.00 258.00 C 315.59 262.67 316.54 272.43 316.00 278.00 C 315.46 283.57 317.03 292.27 316.00 298.00 Z"/>
</g>
<g fill="None" fill-opacity="0.0" stroke="#4C7284" stroke-opacity="1.00" stroke-width="0.3"><path d="
M 69.00 248.00 
C 51.00 248.00 33.00 248.00 15.00 248.00
C 17.33 251.32 28.69 248.45 33.00 249.00 C 37.31 249.55 47.73 249.37 52.00 249.00 C 56.27 248.63 66.76 251.20 69.00 248.00 Z"/>
</g>
<g fill="None" fill-opacity="0.0" stroke="#5D7984" stroke-opacity="1.00" stroke-width="0.3"><path d="
M 497.00 248.00 
C 479.00 248.00 461.00 248.00 443.00 248.00
C 445.32 251.32 456.71 248.45 461.00 249.00 C 465.29 249.55 475.77 249.37 480.00 249.00 C 484.23 248.63 494.86 251.19 497.00 248.00 Z"/>
</g>
<g fill="None" fill-opacity="0.0" stroke="#665C1C" stroke-opacity="1.00" stroke-width="0.3"><path d="
M 357.00 272.00 
C 357.13 273.03 358.17 273.59 359.00 274.00
C 359.63 267.04 358.61 259.25 358.00 253.00
C 358.00 258.41 356.24 267.59 357.00 272.00 Z"/>
</g>
<g fill="None" fill-opacity="0.0" stroke="#70651F" stroke-opacity="1.00" stroke-width="0.3"><path d="
M 374.00 287.00 
C 374.00 278.64 373.74 269.66 373.00 262.00
C 373.00 270.36 373.26 279.34 374.00 287.00 Z"/>
</g>
<g fill="None" fill-opacity="0.0" stroke="#426473" stroke-opacity="1.00" stroke-width="0.3"><path d="
M 15.00 264.00 
C 33.00 264.00 51.00 264.00 69.00 264.00
C 66.68 260.68 55.30 263.55 51.00 263.00 C 46.70 262.45 36.25 262.63 32.00 263.00 C 27.75 263.37 17.17 260.80 15.00 264.00 Z"/>
</g>
<g fill="None" fill-opacity="0.0" stroke="#526973" stroke-opacity="1.00" stroke-width="0.3"><path d="
M 443.00 264.00 
C 461.00 264.00 479.00 264.00 497.00 264.00
C 494.77 260.68 483.27 263.56 479.00 263.00 C 474.73 262.44 464.25 262.63 460.00 263.00 C 455.75 263.37 445.23 260.81 443.00 264.00 Z"/>
</g>
<g fill="None" fill-opacity="0.0" stroke="#8FD6F7" stroke-opacity="1.00" stroke-width="0.3"><path d="
M 69.00 264.00 
C 51.00 264.00 33.00 264.00 15.00 264.00
C 17.13 323.01 40.45 378.67 81.00 422.00
C 92.12 413.96 101.91 403.20 114.00 397.00
C 105.33 375.69 97.61 353.85 94.00 331.00
C 85.73 328.45 79.31 319.52 75.78 312.22 C 72.24 304.93 73.81 303.22 71.99 297.01 C 70.17 290.79 71.87 286.21 70.00 281.00 C 68.13 275.79 71.83 268.05 69.00 264.00 Z"/>
</g>
<g fill="None" fill-opacity="0.0" stroke="#B0E2F7" stroke-opacity="1.00" stroke-width="0.3"><path d="
M 497.00 264.00 
C 479.00 264.00 461.00 264.00 443.00 264.00
C 441.20 287.79 443.30 319.57 418.00 331.00
C 414.39 353.89 406.66 375.72 398.00 397.00
C 409.47 403.59 420.31 412.63 430.00 422.00
C 436.27 416.71 434.13 418.29 440.25 411.25 C 446.36 404.20 452.67 395.61 457.75 387.75 C 462.83 379.88 468.80 370.03 472.70 361.70 C 476.59 353.36 476.29 354.42 479.02 348.02 C 481.76 341.63 482.48 338.42 484.68 332.68 C 486.87 326.94 487.58 322.56 489.07 317.07 C 490.57 311.59 492.45 305.39 493.01 300.01 C 493.57 294.63 495.98 287.21 495.22 282.22 C 494.47 277.23 499.60 267.87 497.00 264.00 Z"/>
</g>
<g fill="None" fill-opacity="0.0" stroke="#000000" stroke-opacity="0.55" stroke-width="0.3"><path d="
M 511.00 277.00 
C 511.11 276.79 512.00 277.00 512.00 277.00
L 512.00 264.00
C 509.91 267.36 511.37 272.81 511.00 277.00 Z"/>
</g>
<g fill="None" fill-opacity="0.0" stroke="#000000" stroke-opacity="0.52" stroke-width="0.3"><path d="
M 0.00 276.00 
C 0.50 276.00 1.00 276.00 1.00 276.00
C 0.80 273.13 1.86 269.12 0.00 267.00
L 0.00 276.00 Z"/>
</g>
<g fill="None" fill-opacity="0.0" stroke="#000000" stroke-opacity="0.01" stroke-width="0.3"><path d="
M 0.00 512.00 
L 249.00 512.00
C 121.71 511.26 9.57 401.96 1.00 276.00
C 1.00 276.00 0.50 276.00 0.00 276.00
L 0.00 512.00 Z"/>
</g>
<g fill="None" fill-opacity="0.0" stroke="#000000" stroke-opacity="0.01" stroke-width="0.3"><path d="
M 277.00 511.00 
C 276.79 511.11 277.00 512.00 277.00 512.00
L 512.00 512.00
L 512.00 277.00
C 512.00 277.00 511.11 276.79 511.00 277.00
C 500.18 400.03 400.02 500.17 277.00 511.00 Z"/>
</g>
<g fill="None" fill-opacity="0.0" stroke="#71661F" stroke-opacity="1.00" stroke-width="0.3"><path d="
M 378.00 322.00 
C 381.09 322.00 384.58 321.23 387.00 321.00
C 383.91 321.00 380.42 321.77 378.00 322.00 Z"/>
</g>
<g fill="None" fill-opacity="0.0" stroke="#695F1D" stroke-opacity="1.00" stroke-width="0.3"><path d="
M 345.00 323.00 
C 348.42 323.00 352.25 322.27 355.00 322.00
C 351.58 322.00 347.75 322.73 345.00 323.00 Z"/>
</g>
<g fill="None" fill-opacity="0.0" stroke="#62591C" stroke-opacity="1.00" stroke-width="0.3"><path d="
M 223.00 324.00 
C 222.96 324.00 223.00 323.00 223.00 323.00
C 217.67 323.00 212.33 323.00 207.00 323.00
C 211.64 323.45 217.61 324.00 223.00 324.00 Z"/>
</g>
<g fill="None" fill-opacity="0.0" stroke="#8C7F27" stroke-opacity="1.00" stroke-width="0.3"><path d="
M 223.00 324.00 
C 246.13 324.00 270.64 325.16 293.00 323.00
C 269.67 323.00 246.33 323.00 223.00 323.00
C 223.00 323.00 222.96 324.00 223.00 324.00 Z"/>
</g>
<g fill="None" fill-opacity="0.0" stroke="#A7DEF6" stroke-opacity="1.00" stroke-width="0.3"><path d="
M 248.00 353.00 
C 250.19 349.87 246.36 342.52 248.00 339.00
C 239.84 338.34 230.34 340.33 223.00 338.00
C 205.67 338.00 188.33 338.00 171.00 338.00
C 167.41 338.00 163.91 337.60 161.00 337.00
C 156.47 336.06 153.00 335.72 153.00 330.00
C 148.65 331.42 142.14 328.11 138.00 330.00
C 133.68 340.95 119.10 334.10 110.00 336.00
C 113.67 353.85 120.36 370.85 126.00 388.00
C 132.62 386.48 137.66 381.37 143.93 378.93 C 150.19 376.48 155.77 373.78 161.98 370.98 C 168.18 368.17 175.28 367.02 181.78 364.78 C 188.28 362.53 195.30 360.71 201.99 358.99 C 208.69 357.28 217.73 357.46 224.00 355.00 C 230.27 352.54 243.49 357.51 248.00 353.00 Z"/>
</g>
<g fill="None" fill-opacity="0.0" stroke="#AFE1F6" stroke-opacity="1.00" stroke-width="0.3"><path d="
M 294.00 338.00 
C 284.77 338.89 273.95 339.41 264.00 339.00
C 264.00 344.00 264.00 349.00 264.00 354.00
C 307.81 353.88 348.38 368.23 386.00 388.00
C 391.65 370.82 398.34 353.81 402.00 336.00
C 366.01 337.19 330.32 338.00 294.00 338.00 Z"/>
</g>
<g fill="None" fill-opacity="0.0" stroke="#526A74" stroke-opacity="1.00" stroke-width="0.3"><path d="
M 171.00 338.00 
C 168.44 337.75 164.22 337.29 161.00 337.00
C 163.91 337.60 167.41 338.00 171.00 338.00 Z"/>
</g>
<g fill="None" fill-opacity="0.0" stroke="#546D77" stroke-opacity="1.00" stroke-width="0.3"><path d="
M 248.00 353.00 
C 251.13 349.87 250.62 337.06 244.00 338.00 C 237.38 338.94 229.71 338.00 223.00 338.00
C 230.34 340.33 239.84 338.34 248.00 339.00
C 246.36 342.52 250.19 349.87 248.00 353.00 Z"/>
</g>
<g fill="None" fill-opacity="0.0" stroke="#536B75" stroke-opacity="1.00" stroke-width="0.3"><path d="
M 264.00 354.00 
C 264.00 349.00 264.00 344.00 264.00 339.00
C 273.95 339.41 284.77 338.89 294.00 338.00
C 286.23 338.00 277.69 340.06 270.00 338.00 C 262.31 335.94 259.21 350.65 264.00 354.00 Z"/>
</g>
<g fill="None" fill-opacity="0.0" stroke="#B0E3F8" stroke-opacity="1.00" stroke-width="0.3"><path d="
M 154.00 391.00 
C 176.85 426.44 210.53 457.86 248.00 476.00
C 248.00 440.33 248.00 404.67 248.00 369.00
C 243.09 365.56 230.99 371.12 225.22 370.22 C 219.45 369.32 211.87 373.20 206.00 374.00 C 200.14 374.80 192.88 376.27 187.22 378.22 C 181.57 380.18 175.67 382.08 170.08 384.08 C 164.48 386.07 159.37 388.49 154.00 391.00 Z"/>
</g>
<g fill="None" fill-opacity="0.0" stroke="#55707B" stroke-opacity="1.00" stroke-width="0.3"><path d="
M 248.00 476.00 
C 248.00 482.67 248.00 489.33 248.00 496.00
C 247.00 496.00 246.00 496.00 245.00 496.00
C 245.50 497.76 247.72 496.72 249.00 497.00
C 248.96 489.82 249.06 482.13 249.00 475.00 C 248.94 467.87 249.12 461.04 249.00 454.00 C 248.88 446.96 249.24 438.87 249.00 432.00 C 248.76 425.13 249.55 417.45 249.00 411.00 C 248.45 404.55 250.18 394.62 249.00 389.00 C 247.82 383.38 252.20 371.94 248.00 369.00
C 248.00 404.67 248.00 440.33 248.00 476.00 Z"/>
</g>
<g fill="None" fill-opacity="0.0" stroke="#55717B" stroke-opacity="1.00" stroke-width="0.3"><path d="
M 267.00 496.00 
C 266.07 495.74 264.94 496.20 264.00 496.00
C 264.00 453.67 264.00 411.33 264.00 369.00
C 261.67 410.68 263.67 454.50 263.00 497.00
C 264.30 497.96 266.40 496.03 267.00 496.00 Z"/>
</g>
<g fill="None" fill-opacity="0.0" stroke="#AFE3F8" stroke-opacity="1.00" stroke-width="0.3"><path d="
M 267.00 496.00 
C 318.75 491.11 357.45 446.23 379.00 402.00
C 373.51 398.93 368.31 396.19 362.70 393.31 C 357.08 390.42 351.13 387.96 345.23 385.77 C 339.33 383.58 333.90 380.71 327.68 379.32 C 321.46 377.94 314.38 374.44 308.01 373.99 C 301.64 373.54 292.72 369.76 286.67 370.33 C 280.62 370.90 269.03 365.48 264.00 369.00
C 264.00 411.33 264.00 453.67 264.00 496.00
C 264.94 496.20 266.07 495.74 267.00 496.00 Z"/>
</g>
<g fill="None" fill-opacity="0.0" stroke="#8FD6F7" stroke-opacity="1.00" stroke-width="0.3"><path d="
M 245.00 496.00 
C 246.00 496.00 247.00 496.00 248.00 496.00
C 248.00 489.33 248.00 482.67 248.00 476.00
C 210.53 457.86 176.85 426.44 154.00 391.00
C 146.82 394.41 139.95 398.16 133.00 402.00
C 154.59 443.37 193.23 494.84 245.00 496.00 Z"/>
</g>
<g fill="None" fill-opacity="0.0" stroke="#8DD4F5" stroke-opacity="1.00" stroke-width="0.3"><path d="
M 121.00 411.00 
C 110.29 415.40 102.21 424.74 93.00 432.00
C 115.64 456.41 146.92 473.11 178.00 484.00
C 153.80 464.24 134.17 438.73 121.00 411.00 Z"/>
</g>
<g fill="None" fill-opacity="0.0" stroke="#AEE0F5" stroke-opacity="1.00" stroke-width="0.3"><path d="
M 419.00 432.00 
C 409.97 424.59 401.63 415.48 391.00 411.00
C 377.76 438.69 358.28 464.19 334.00 484.00
C 365.16 473.18 396.32 456.38 419.00 432.00 Z"/>
</g>
<g fill="None" fill-opacity="0.0" stroke="#000000" stroke-opacity="0.58" stroke-width="0.3"><path d="
M 263.00 512.00 
L 277.00 512.00
C 277.00 512.00 276.79 511.11 277.00 511.00
C 272.47 511.40 266.77 509.92 263.00 512.00 Z"/>
</g>
<g fill="#000000" fill-opacity="0.01" stroke="None">
<path d="
M 0.00 246.00 
C 2.33 117.06 118.04 1.72 247.00 0.00
L 0.00 0.00
L 0.00 246.00 Z"/>
</g>
<g fill="#000000" fill-opacity="1.00" stroke="None">
<path d="
M 0.00 246.00 
L 0.00 267.00
C 1.86 269.12 0.80 273.13 1.00 276.00
C 9.57 401.96 121.71 511.26 249.00 512.00
L 263.00 512.00
C 266.77 509.92 272.47 511.40 277.00 511.00
C 400.02 500.17 500.18 400.03 511.00 277.00
C 511.37 272.81 509.91 267.36 512.00 264.00
L 512.00 247.00
C 510.92 235.62 508.93 220.17 507.02 208.98 C 505.11 197.78 501.65 184.56 498.22 174.78 C 494.80 164.99 490.15 151.97 485.70 144.31 C 481.24 136.64 476.03 117.38 466.00 122.00
C 456.28 126.48 467.14 138.94 470.31 145.69 C 473.47 152.45 478.99 163.34 481.78 171.22 C 484.56 179.11 488.44 191.42 490.33 199.67 C 492.22 207.93 492.62 208.60 493.00 215.00 C 493.38 221.40 496.96 225.04 495.78 230.22 C 494.60 235.40 499.48 244.31 497.00 248.00
C 494.86 251.19 484.23 248.63 480.00 249.00 C 475.77 249.37 465.29 249.55 461.00 249.00 C 456.71 248.45 445.32 251.32 443.00 248.00
C 440.18 243.97 443.81 236.22 442.00 231.00 C 440.20 225.78 441.65 221.26 440.01 214.99 C 438.37 208.73 439.75 207.08 436.22 199.78 C 432.70 192.47 426.26 183.56 418.00 181.00
C 414.39 158.15 406.67 136.30 398.00 115.00
C 409.46 108.41 420.37 99.33 430.00 90.00
C 439.73 95.21 444.78 115.60 457.00 110.00
C 466.26 102.24 448.62 88.64 442.75 81.25 C 436.87 73.87 425.37 64.70 417.25 57.75 C 409.13 50.80 398.54 43.54 388.75 37.25 C 378.97 30.96 367.28 25.94 355.98 21.02 C 344.67 16.11 332.47 11.24 319.78 8.22 C 307.09 5.21 290.45 2.07 277.00 1.00
C 272.48 0.64 266.69 2.09 263.00 0.00
L 247.00 0.00
C 118.04 1.72 2.33 117.06 0.00 246.00
M 248.00 143.00 
C 243.32 146.27 231.72 141.01 226.00 142.00 C 220.28 142.99 212.73 138.53 206.78 138.22 C 200.83 137.91 193.73 135.60 187.98 134.02 C 182.22 132.45 176.64 129.92 170.93 128.07 C 165.21 126.23 159.49 123.57 154.00 121.00
C 146.79 117.63 139.95 113.80 133.00 110.00
C 154.39 65.68 193.38 20.99 245.00 16.00
C 245.57 15.99 247.72 14.03 249.00 15.00
C 248.33 57.50 250.33 101.32 248.00 143.00
M 267.00 16.00 
C 318.74 18.19 357.57 67.76 379.00 110.00
C 343.96 130.18 305.19 142.48 264.00 143.00
C 259.80 140.06 264.18 128.62 263.00 123.00 C 261.82 117.38 263.56 107.45 263.00 101.00 C 262.45 94.55 263.24 86.87 263.00 80.00 C 262.76 73.13 263.12 65.04 263.00 58.00 C 262.88 50.96 263.06 44.13 263.00 37.00 C 262.94 29.87 263.04 22.18 263.00 15.00
C 264.28 15.28 266.50 14.24 267.00 16.00
M 178.00 28.00 
C 153.64 47.80 134.21 73.26 121.00 101.00
C 110.31 96.62 102.15 87.21 93.00 80.00
C 115.68 55.62 146.84 38.82 178.00 28.00
M 391.00 101.00 
C 377.77 73.31 358.22 47.75 334.00 28.00
C 342.85 30.55 351.93 34.92 360.23 38.77 C 368.53 42.62 376.58 47.11 384.23 51.77 C 391.88 56.43 398.70 61.93 405.75 67.25 C 412.80 72.57 422.69 79.07 413.25 85.25 C 403.80 91.42 401.10 97.26 391.00 101.00
M 69.00 248.00 
C 66.76 251.20 56.27 248.63 52.00 249.00 C 47.73 249.37 37.31 249.55 33.00 249.00 C 28.69 248.45 17.33 251.32 15.00 248.00
C 11.63 243.19 17.86 233.74 16.98 227.98 C 16.09 222.21 19.02 215.04 19.93 208.93 C 20.84 202.81 21.79 196.29 23.98 189.98 C 26.16 183.66 26.22 180.39 29.32 173.32 C 32.42 166.25 31.81 165.81 35.98 156.98 C 40.14 148.14 46.32 136.82 51.30 128.30 C 56.28 119.79 54.97 123.09 60.75 114.75 C 66.53 106.42 74.39 97.96 81.00 90.00
C 92.08 98.22 101.92 108.75 114.00 115.00
C 105.34 136.28 97.61 158.11 94.00 181.00
C 68.62 192.37 70.91 224.27 69.00 248.00
M 248.00 159.00 
C 255.33 166.33 246.52 176.19 238.00 174.00 C 229.48 171.81 219.64 174.00 211.00 174.00
C 177.02 174.00 143.66 174.84 110.00 176.00
C 113.66 158.19 120.35 141.18 126.00 124.00
C 163.47 144.43 205.15 156.86 248.00 159.00
M 301.00 174.00 
C 292.35 174.00 282.53 171.80 274.00 174.00 C 265.47 176.20 256.70 166.30 264.00 159.00
C 268.50 154.50 281.73 159.44 288.00 157.00 C 294.27 154.56 303.35 154.86 310.01 153.01 C 316.67 151.15 323.71 149.41 330.22 147.22 C 336.74 145.04 343.84 143.85 350.02 141.02 C 356.21 138.20 361.88 135.62 368.07 133.07 C 374.27 130.52 379.35 125.47 386.00 124.00
C 391.64 141.15 398.33 158.15 402.00 176.00
C 368.35 175.28 334.98 173.41 301.00 174.00
M 300.00 189.00 
C 314.67 189.00 329.33 189.00 344.00 189.00
C 347.75 189.00 351.99 189.71 355.00 190.00
C 373.25 190.00 395.28 186.50 411.74 194.26 C 428.21 202.01 425.40 221.45 427.98 239.02 C 430.56 256.60 426.17 277.49 425.00 297.00 C 423.83 316.51 404.53 321.00 387.00 321.00
C 384.58 321.23 381.09 322.00 378.00 322.00
C 370.33 322.00 362.67 322.00 355.00 322.00
C 352.25 322.27 348.42 323.00 345.00 323.00
C 327.67 323.00 310.33 323.00 293.00 323.00
C 270.64 325.16 246.13 324.00 223.00 324.00
C 217.61 324.00 211.64 323.45 207.00 323.00
C 198.43 323.00 185.09 322.47 177.00 323.00 C 168.91 323.53 153.00 318.91 153.00 330.00
C 153.00 335.72 156.47 336.06 161.00 337.00
C 164.22 337.29 168.44 337.75 171.00 338.00
C 188.33 338.00 205.67 338.00 223.00 338.00
C 229.71 338.00 237.38 338.94 244.00 338.00 C 250.62 337.06 251.13 349.87 248.00 353.00
C 243.49 357.51 230.27 352.54 224.00 355.00 C 217.73 357.46 208.69 357.28 201.99 358.99 C 195.30 360.71 188.28 362.53 181.78 364.78 C 175.28 367.02 168.18 368.17 161.98 370.98 C 155.77 373.78 150.19 376.48 143.93 378.93 C 137.66 381.37 132.62 386.48 126.00 388.00
C 120.36 370.85 113.67 353.85 110.00 336.00
C 119.10 334.10 133.68 340.95 138.00 330.00
C 139.51 316.06 116.78 322.92 109.00 321.00 C 101.22 319.08 89.98 314.02 88.23 303.77 C 86.48 293.52 84.46 281.18 84.00 270.00 C 83.55 258.82 83.88 244.09 85.00 233.00 C 86.12 221.91 85.75 211.44 91.77 201.77 C 97.79 192.10 107.59 190.99 119.00 191.00 C 130.41 191.01 145.13 190.00 157.00 190.00
C 160.08 189.70 164.25 189.00 168.00 189.00
C 181.00 189.00 194.00 189.00 207.00 189.00
C 212.04 188.51 218.27 188.00 224.00 188.00
C 245.33 188.00 266.67 188.00 288.00 188.00
C 292.08 188.00 296.66 188.68 300.00 189.00
M 69.00 264.00 
C 71.83 268.05 68.13 275.79 70.00 281.00 C 71.87 286.21 70.17 290.79 71.99 297.01 C 73.81 303.22 72.24 304.93 75.78 312.22 C 79.31 319.52 85.73 328.45 94.00 331.00
C 97.61 353.85 105.33 375.69 114.00 397.00
C 101.91 403.20 92.12 413.96 81.00 422.00
C 40.45 378.67 17.13 323.01 15.00 264.00
C 17.17 260.80 27.75 263.37 32.00 263.00 C 36.25 262.63 46.70 262.45 51.00 263.00 C 55.30 263.55 66.68 260.68 69.00 264.00
M 497.00 264.00 
C 499.60 267.87 494.47 277.23 495.22 282.22 C 495.98 287.21 493.57 294.63 493.01 300.01 C 492.45 305.39 490.57 311.59 489.07 317.07 C 487.58 322.56 486.87 326.94 484.68 332.68 C 482.48 338.42 481.76 341.63 479.02 348.02 C 476.29 354.42 476.59 353.36 472.70 361.70 C 468.80 370.03 462.83 379.88 457.75 387.75 C 452.67 395.61 446.36 404.20 440.25 411.25 C 434.13 418.29 436.27 416.71 430.00 422.00
C 420.31 412.63 409.47 403.59 398.00 397.00
C 406.66 375.72 414.39 353.89 418.00 331.00
C 443.30 319.57 441.20 287.79 443.00 264.00
C 445.23 260.81 455.75 263.37 460.00 263.00 C 464.25 262.63 474.73 262.44 479.00 263.00 C 483.27 263.56 494.77 260.68 497.00 264.00
M 264.00 354.00 
C 259.21 350.65 262.31 335.94 270.00 338.00 C 277.69 340.06 286.23 338.00 294.00 338.00
C 330.32 338.00 366.01 337.19 402.00 336.00
C 398.34 353.81 391.65 370.82 386.00 388.00
C 348.38 368.23 307.81 353.88 264.00 354.00
M 245.00 496.00 
C 193.23 494.84 154.59 443.37 133.00 402.00
C 139.95 398.16 146.82 394.41 154.00 391.00
C 159.37 388.49 164.48 386.07 170.08 384.08 C 175.67 382.08 181.57 380.18 187.22 378.22 C 192.88 376.27 200.14 374.80 206.00 374.00 C 211.87 373.20 219.45 369.32 225.22 370.22 C 230.99 371.12 243.09 365.56 248.00 369.00
C 252.20 371.94 247.82 383.38 249.00 389.00 C 250.18 394.62 248.45 404.55 249.00 411.00 C 249.55 417.45 248.76 425.13 249.00 432.00 C 249.24 438.87 248.88 446.96 249.00 454.00 C 249.12 461.04 248.94 467.87 249.00 475.00 C 249.06 482.13 248.96 489.82 249.00 497.00
C 247.72 496.72 245.50 497.76 245.00 496.00
M 267.00 496.00 
C 266.40 496.03 264.30 497.96 263.00 497.00
C 263.67 454.50 261.67 410.68 264.00 369.00
C 269.03 365.48 280.62 370.90 286.67 370.33 C 292.72 369.76 301.64 373.54 308.01 373.99 C 314.38 374.44 321.46 377.94 327.68 379.32 C 333.90 380.71 339.33 383.58 345.23 385.77 C 351.13 387.96 357.08 390.42 362.70 393.31 C 368.31 396.19 373.51 398.93 379.00 402.00
C 357.45 446.23 318.75 491.11 267.00 496.00
M 121.00 411.00 
C 134.17 438.73 153.80 464.24 178.00 484.00
C 146.92 473.11 115.64 456.41 93.00 432.00
C 102.21 424.74 110.29 415.40 121.00 411.00
M 419.00 432.00 
C 396.32 456.38 365.16 473.18 334.00 484.00
C 358.28 464.19 377.76 438.69 391.00 411.00
C 401.63 415.48 409.97 424.59 419.00 432.00 Z"/>
</g>
<g fill="#000000" fill-opacity="0.58" stroke="None">
<path d="
M 277.00 1.00 
C 276.87 0.96 277.00 0.00 277.00 0.00
L 263.00 0.00
C 266.69 2.09 272.48 0.64 277.00 1.00 Z"/>
</g>
<g fill="#000000" fill-opacity="0.01" stroke="None">
<path d="
M 277.00 1.00 
C 290.45 2.07 307.09 5.21 319.78 8.22 C 332.47 11.24 344.67 16.11 355.98 21.02 C 367.28 25.94 378.97 30.96 388.75 37.25 C 398.54 43.54 409.13 50.80 417.25 57.75 C 425.37 64.70 436.87 73.87 442.75 81.25 C 448.62 88.64 466.26 102.24 457.00 110.00
C 461.83 111.86 461.97 119.62 466.00 122.00
C 476.03 117.38 481.24 136.64 485.70 144.31 C 490.15 151.97 494.80 164.99 498.22 174.78 C 501.65 184.56 505.11 197.78 507.02 208.98 C 508.93 220.17 510.92 235.62 512.00 247.00
L 512.00 0.00
L 277.00 0.00
C 277.00 0.00 276.87 0.96 277.00 1.00 Z"/>
</g>
<g fill="#55707B" fill-opacity="1.00" stroke="None">
<path d="
M 245.00 16.00 
C 245.92 16.27 247.06 15.79 248.00 16.00
C 248.00 22.67 248.00 29.33 248.00 36.00
C 248.00 71.67 248.00 107.33 248.00 143.00
C 250.33 101.32 248.33 57.50 249.00 15.00
C 247.72 14.03 245.57 15.99 245.00 16.00 Z"/>
</g>
<g fill="#55717B" fill-opacity="1.00" stroke="None">
<path d="
M 264.00 143.00 
C 264.00 100.67 264.00 58.33 264.00 16.00
C 265.00 16.00 266.00 16.00 267.00 16.00
C 266.50 14.24 264.28 15.28 263.00 15.00
C 263.04 22.18 262.94 29.87 263.00 37.00 C 263.06 44.13 262.88 50.96 263.00 58.00 C 263.12 65.04 262.76 73.13 263.00 80.00 C 263.24 86.87 262.45 94.55 263.00 101.00 C 263.56 107.45 261.82 117.38 263.00 123.00 C 264.18 128.62 259.80 140.06 264.00 143.00 Z"/>
</g>
<g fill="#8FD6F7" fill-opacity="1.00" stroke="None">
<path d="
M 154.00 121.00 
C 176.90 85.65 210.45 53.97 248.00 36.00
C 248.00 29.33 248.00 22.67 248.00 16.00
C 247.06 15.79 245.92 16.27 245.00 16.00
C 193.38 20.99 154.39 65.68 133.00 110.00
C 139.95 113.80 146.79 117.63 154.00 121.00 Z"/>
</g>
<g fill="#AFE2F8" fill-opacity="1.00" stroke="None">
<path d="
M 264.00 143.00 
C 305.19 142.48 343.96 130.18 379.00 110.00
C 357.57 67.76 318.74 18.19 267.00 16.00
C 266.00 16.00 265.00 16.00 264.00 16.00
C 264.00 58.33 264.00 100.67 264.00 143.00 Z"/>
</g>
<g fill="#8DD4F5" fill-opacity="1.00" stroke="None">
<path d="
M 178.00 28.00 
C 146.84 38.82 115.68 55.62 93.00 80.00
C 102.15 87.21 110.31 96.62 121.00 101.00
C 134.21 73.26 153.64 47.80 178.00 28.00 Z"/>
</g>
<g fill="#AEE0F4" fill-opacity="1.00" stroke="None">
<path d="
M 391.00 101.00 
C 401.10 97.26 403.80 91.42 413.25 85.25 C 422.69 79.07 412.80 72.57 405.75 67.25 C 398.70 61.93 391.88 56.43 384.23 51.77 C 376.58 47.11 368.53 42.62 360.23 38.77 C 351.93 34.92 342.85 30.55 334.00 28.00
C 358.22 47.75 377.77 73.31 391.00 101.00 Z"/>
</g>
<g fill="#B0E3F8" fill-opacity="1.00" stroke="None">
<path d="
M 154.00 121.00 
C 159.49 123.57 165.21 126.23 170.93 128.07 C 176.64 129.92 182.22 132.45 187.98 134.02 C 193.73 135.60 200.83 137.91 206.78 138.22 C 212.73 138.53 220.28 142.99 226.00 142.00 C 231.72 141.01 243.32 146.27 248.00 143.00
C 248.00 107.33 248.00 71.67 248.00 36.00
C 210.45 53.97 176.90 85.65 154.00 121.00 Z"/>
</g>
<g fill="#8FD6F7" fill-opacity="1.00" stroke="None">
<path d="
M 15.00 248.00 
C 33.00 248.00 51.00 248.00 69.00 248.00
C 70.91 224.27 68.62 192.37 94.00 181.00
C 97.61 158.11 105.34 136.28 114.00 115.00
C 101.92 108.75 92.08 98.22 81.00 90.00
C 74.39 97.96 66.53 106.42 60.75 114.75 C 54.97 123.09 56.28 119.79 51.30 128.30 C 46.32 136.82 40.14 148.14 35.98 156.98 C 31.81 165.81 32.42 166.25 29.32 173.32 C 26.22 180.39 26.16 183.66 23.98 189.98 C 21.79 196.29 20.84 202.81 19.93 208.93 C 19.02 215.04 16.09 222.21 16.98 227.98 C 17.86 233.74 11.63 243.19 15.00 248.00 Z"/>
</g>
<g fill="#B0E2F7" fill-opacity="1.00" stroke="None">
<path d="
M 443.00 248.00 
C 461.00 248.00 479.00 248.00 497.00 248.00
C 499.48 244.31 494.60 235.40 495.78 230.22 C 496.96 225.04 493.38 221.40 493.00 215.00 C 492.62 208.60 492.22 207.93 490.33 199.67 C 488.44 191.42 484.56 179.11 481.78 171.22 C 478.99 163.34 473.47 152.45 470.31 145.69 C 467.14 138.94 456.28 126.48 466.00 122.00
C 461.97 119.62 461.83 111.86 457.00 110.00
C 444.78 115.60 439.73 95.21 430.00 90.00
C 420.37 99.33 409.46 108.41 398.00 115.00
C 406.67 136.30 414.39 158.15 418.00 181.00
C 426.26 183.56 432.70 192.47 436.22 199.78 C 439.75 207.08 438.37 208.73 440.01 214.99 C 441.65 221.26 440.20 225.78 442.00 231.00 C 443.81 236.22 440.18 243.97 443.00 248.00 Z"/>
</g>
<g fill="#A7DFF6" fill-opacity="1.00" stroke="None">
<path d="
M 211.00 174.00 
C 222.54 172.88 235.73 172.75 248.00 173.00
C 248.00 168.33 248.00 163.67 248.00 159.00
C 205.15 156.86 163.47 144.43 126.00 124.00
C 120.35 141.18 113.66 158.19 110.00 176.00
C 143.66 174.84 177.02 174.00 211.00 174.00 Z"/>
</g>
<g fill="#AFE2F6" fill-opacity="1.00" stroke="None">
<path d="
M 264.00 159.00 
C 261.81 162.13 265.64 169.48 264.00 173.00
C 276.17 173.67 289.66 171.67 301.00 174.00
C 334.98 173.41 368.35 175.28 402.00 176.00
C 398.33 158.15 391.64 141.15 386.00 124.00
C 379.35 125.47 374.27 130.52 368.07 133.07 C 361.88 135.62 356.21 138.20 350.02 141.02 C 343.84 143.85 336.74 145.04 330.22 147.22 C 323.71 149.41 316.67 151.15 310.01 153.01 C 303.35 154.86 294.27 154.56 288.00 157.00 C 281.73 159.44 268.50 154.50 264.00 159.00 Z"/>
</g>
<g fill="#56707A" fill-opacity="1.00" stroke="None">
<path d="
M 211.00 174.00 
C 219.64 174.00 229.48 171.81 238.00 174.00 C 246.52 176.19 255.33 166.33 248.00 159.00
C 248.00 163.67 248.00 168.33 248.00 173.00
C 235.73 172.75 222.54 172.88 211.00 174.00 Z"/>
</g>
<g fill="#57707A" fill-opacity="1.00" stroke="None">
<path d="
M 301.00 174.00 
C 289.66 171.67 276.17 173.67 264.00 173.00
C 265.64 169.48 261.81 162.13 264.00 159.00
C 256.70 166.30 265.47 176.20 274.00 174.00 C 282.53 171.80 292.35 174.00 301.00 174.00 Z"/>
</g>
<g fill="#645A1C" fill-opacity="1.00" stroke="None">
<path d="
M 207.00 189.00 
C 212.67 189.00 218.33 189.00 224.00 189.00
C 223.96 189.00 224.00 188.00 224.00 188.00
C 218.27 188.00 212.04 188.51 207.00 189.00 Z"/>
</g>
<g fill="#8D8028" fill-opacity="1.00" stroke="None">
<path d="
M 224.00 189.00 
C 245.33 189.00 266.67 189.00 288.00 189.00
C 287.96 189.00 288.00 188.00 288.00 188.00
C 266.67 188.00 245.33 188.00 224.00 188.00
C 224.00 188.00 223.96 189.00 224.00 189.00 Z"/>
</g>
<g fill="#6C611E" fill-opacity="1.00" stroke="None">
<path d="
M 288.00 189.00 
C 292.00 189.00 296.00 189.00 300.00 189.00
C 296.66 188.68 292.08 188.00 288.00 188.00
C 288.00 188.00 287.96 189.00 288.00 189.00 Z"/>
</g>
<g fill="#6B611E" fill-opacity="1.00" stroke="None">
<path d="
M 157.00 190.00 
C 160.75 190.00 164.99 189.29 168.00 189.00
C 164.25 189.00 160.08 189.70 157.00 190.00 Z"/>
</g>
<g fill="#F2DB44" fill-opacity="1.00" stroke="None">
<path d="
M 157.00 190.00 
C 145.13 190.00 130.41 191.01 119.00 191.00 C 107.59 190.99 97.79 192.10 91.77 201.77 C 85.75 211.44 86.12 221.91 85.00 233.00 C 83.88 244.09 83.55 258.82 84.00 270.00 C 84.46 281.18 86.48 293.52 88.23 303.77 C 89.98 314.02 101.22 319.08 109.00 321.00 C 116.78 322.92 139.51 316.06 138.00 330.00
C 142.14 328.11 148.65 331.42 153.00 330.00
C 153.00 318.91 168.91 323.53 177.00 323.00 C 185.09 322.47 198.43 323.00 207.00 323.00
C 212.33 323.00 217.67 323.00 223.00 323.00
C 246.33 323.00 269.67 323.00 293.00 323.00
C 310.33 323.00 327.67 323.00 345.00 323.00
C 347.75 322.73 351.58 322.00 355.00 322.00
C 362.67 322.00 370.33 322.00 378.00 322.00
C 380.42 321.77 383.91 321.00 387.00 321.00
C 404.53 321.00 423.83 316.51 425.00 297.00 C 426.17 277.49 430.56 256.60 427.98 239.02 C 425.40 221.45 428.21 202.01 411.74 194.26 C 395.28 186.50 373.25 190.00 355.00 190.00
C 351.25 190.00 347.01 189.29 344.00 189.00
C 329.33 189.00 314.67 189.00 300.00 189.00
C 296.00 189.00 292.00 189.00 288.00 189.00
C 266.67 189.00 245.33 189.00 224.00 189.00
C 218.33 189.00 212.67 189.00 207.00 189.00
C 194.00 189.00 181.00 189.00 168.00 189.00
C 164.99 189.29 160.75 190.00 157.00 190.00
M 175.00 277.00 
C 178.98 266.41 181.97 259.70 184.98 247.98 C 187.98 236.25 192.83 231.61 194.98 217.98 C 197.12 204.34 214.86 208.36 210.02 221.02 C 205.18 233.69 203.91 239.53 200.07 250.07 C 196.24 260.62 193.67 271.15 190.07 280.07 C 186.48 289.00 185.80 305.75 174.00 304.00 C 162.20 302.25 164.76 287.63 160.07 278.93 C 155.39 270.22 153.98 259.50 149.68 249.32 C 145.38 239.15 144.13 231.44 139.22 219.78 C 134.32 208.11 152.94 204.38 154.77 217.23 C 156.60 230.08 162.02 235.74 164.93 247.07 C 167.83 258.41 172.10 265.95 175.00 277.00
M 243.00 269.00 
C 240.52 279.20 246.65 289.35 242.22 299.22 C 237.79 309.10 225.89 302.27 228.00 292.00 C 230.11 281.73 227.40 270.25 228.00 260.00 C 228.60 249.75 228.63 239.04 228.00 229.00 C 227.37 218.96 227.24 206.35 239.00 208.00 C 250.76 209.65 259.30 206.07 268.67 209.33 C 278.05 212.59 280.42 216.51 285.30 223.70 C 290.19 230.89 290.06 242.16 286.69 249.69 C 283.33 257.23 279.30 261.76 271.77 265.77 C 264.24 269.78 251.85 268.93 243.00 269.00
M 357.00 272.00 
C 356.24 267.59 358.00 258.41 358.00 253.00
C 358.00 239.56 355.34 228.70 358.00 215.00 C 360.66 201.30 376.14 211.38 373.00 224.00 C 369.86 236.62 373.00 249.37 373.00 262.00
C 373.74 269.66 374.00 278.64 374.00 287.00
C 374.00 292.96 374.72 300.18 367.92 302.92 C 361.12 305.66 357.29 297.99 354.23 293.77 C 351.17 289.55 348.20 284.90 345.23 280.77 C 342.26 276.64 338.77 271.01 335.75 267.25 C 332.72 263.49 329.95 257.01 326.75 254.25 C 323.54 251.50 320.89 241.26 317.00 241.00
C 319.65 249.11 316.35 261.47 317.00 270.00 C 317.65 278.53 318.38 290.46 316.00 298.00
C 313.48 305.97 304.37 305.82 302.00 298.00
C 298.41 286.18 300.96 268.88 301.00 256.00 C 301.04 243.12 298.30 225.71 302.00 214.00
C 306.73 199.05 318.30 215.00 322.77 222.23 C 327.24 229.46 334.25 240.13 339.92 247.08 C 345.59 254.03 350.18 266.22 357.00 272.00 Z"/>
</g>
<g fill="#6B611E" fill-opacity="1.00" stroke="None">
<path d="
M 355.00 190.00 
C 351.99 189.71 347.75 189.00 344.00 189.00
C 347.01 189.29 351.25 190.00 355.00 190.00 Z"/>
</g>
<g fill="#000000" fill-opacity="1.00" stroke="None">
<path d="
M 175.00 277.00 
C 172.10 265.95 167.83 258.41 164.93 247.07 C 162.02 235.74 156.60 230.08 154.77 217.23 C 152.94 204.38 134.32 208.11 139.22 219.78 C 144.13 231.44 145.38 239.15 149.68 249.32 C 153.98 259.50 155.39 270.22 160.07 278.93 C 164.76 287.63 162.20 302.25 174.00 304.00 C 185.80 305.75 186.48 289.00 190.07 280.07 C 193.67 271.15 196.24 260.62 200.07 250.07 C 203.91 239.53 205.18 233.69 210.02 221.02 C 214.86 208.36 197.12 204.34 194.98 217.98 C 192.83 231.61 187.98 236.25 184.98 247.98 C 181.97 259.70 178.98 266.41 175.00 277.00 Z"/>
</g>
<g fill="#000000" fill-opacity="1.00" stroke="None">
<path d="
M 243.00 269.00 
C 251.85 268.93 264.24 269.78 271.77 265.77 C 279.30 261.76 283.33 257.23 286.69 249.69 C 290.06 242.16 290.19 230.89 285.30 223.70 C 280.42 216.51 278.05 212.59 268.67 209.33 C 259.30 206.07 250.76 209.65 239.00 208.00 C 227.24 206.35 227.37 218.96 228.00 229.00 C 228.63 239.04 228.60 249.75 228.00 260.00 C 227.40 270.25 230.11 281.73 228.00 292.00 C 225.89 302.27 237.79 309.10 242.22 299.22 C 246.65 289.35 240.52 279.20 243.00 269.00
M 260.00 223.00 
C 269.82 225.43 277.87 234.81 272.22 245.22 C 266.58 255.64 253.51 254.14 243.00 254.00
C 243.00 243.67 243.00 233.33 243.00 223.00
C 245.18 219.88 257.30 222.33 260.00 223.00 Z"/>
</g>
<g fill="#000000" fill-opacity="1.00" stroke="None">
<path d="
M 302.00 214.00 
C 299.66 227.08 302.05 242.68 302.00 256.00 C 301.95 269.32 299.78 284.89 302.00 298.00
C 304.37 305.82 313.48 305.97 316.00 298.00
C 317.03 292.27 315.46 283.57 316.00 278.00 C 316.54 272.43 315.59 262.67 316.00 258.00 C 316.41 253.33 315.01 240.87 317.00 241.00
C 320.89 241.26 323.54 251.50 326.75 254.25 C 329.95 257.01 332.72 263.49 335.75 267.25 C 338.77 271.01 342.26 276.64 345.23 280.77 C 348.20 284.90 351.17 289.55 354.23 293.77 C 357.29 297.99 361.12 305.66 367.92 302.92 C 374.72 300.18 374.00 292.96 374.00 287.00
C 373.26 279.34 373.00 270.36 373.00 262.00
C 373.00 249.37 369.86 236.62 373.00 224.00 C 376.14 211.38 360.66 201.30 358.00 215.00 C 355.34 228.70 358.00 239.56 358.00 253.00
C 358.61 259.25 359.63 267.04 359.00 274.00
C 358.17 273.59 357.13 273.03 357.00 272.00
C 350.18 266.22 345.59 254.03 339.92 247.08 C 334.25 240.13 327.24 229.46 322.77 222.23 C 318.30 215.00 306.73 199.05 302.00 214.00 Z"/>
</g>
<g fill="#6D631F" fill-opacity="1.00" stroke="None">
<path d="
M 302.00 298.00 
C 299.78 284.89 301.95 269.32 302.00 256.00 C 302.05 242.68 299.66 227.08 302.00 214.00
C 298.30 225.71 301.04 243.12 301.00 256.00 C 300.96 268.88 298.41 286.18 302.00 298.00 Z"/>
</g>
<g fill="#5F561B" fill-opacity="1.00" stroke="None">
<path d="
M 243.00 223.00 
C 248.60 223.52 254.42 222.31 260.00 223.00
C 257.30 222.33 245.18 219.88 243.00 223.00 Z"/>
</g>
<g fill="#F1DA44" fill-opacity="1.00" stroke="None">
<path d="
M 260.00 223.00 
C 254.42 222.31 248.60 223.52 243.00 223.00
C 243.00 233.33 243.00 243.67 243.00 254.00
C 253.51 254.14 266.58 255.64 272.22 245.22 C 277.87 234.81 269.82 225.43 260.00 223.00 Z"/>
</g>
<g fill="#877A26" fill-opacity="1.00" stroke="None">
<path d="
M 316.00 298.00 
C 318.38 290.46 317.65 278.53 317.00 270.00 C 316.35 261.47 319.65 249.11 317.00 241.00
C 315.01 240.87 316.41 253.33 316.00 258.00 C 315.59 262.67 316.54 272.43 316.00 278.00 C 315.46 283.57 317.03 292.27 316.00 298.00 Z"/>
</g>
<g fill="#4C7284" fill-opacity="1.00" stroke="None">
<path d="
M 69.00 248.00 
C 51.00 248.00 33.00 248.00 15.00 248.00
C 17.33 251.32 28.69 248.45 33.00 249.00 C 37.31 249.55 47.73 249.37 52.00 249.00 C 56.27 248.63 66.76 251.20 69.00 248.00 Z"/>
</g>
<g fill="#5D7984" fill-opacity="1.00" stroke="None">
<path d="
M 497.00 248.00 
C 479.00 248.00 461.00 248.00 443.00 248.00
C 445.32 251.32 456.71 248.45 461.00 249.00 C 465.29 249.55 475.77 249.37 480.00 249.00 C 484.23 248.63 494.86 251.19 497.00 248.00 Z"/>
</g>
<g fill="#665C1C" fill-opacity="1.00" stroke="None">
<path d="
M 357.00 272.00 
C 357.13 273.03 358.17 273.59 359.00 274.00
C 359.63 267.04 358.61 259.25 358.00 253.00
C 358.00 258.41 356.24 267.59 357.00 272.00 Z"/>
</g>
<g fill="#70651F" fill-opacity="1.00" stroke="None">
<path d="
M 374.00 287.00 
C 374.00 278.64 373.74 269.66 373.00 262.00
C 373.00 270.36 373.26 279.34 374.00 287.00 Z"/>
</g>
<g fill="#426473" fill-opacity="1.00" stroke="None">
<path d="
M 15.00 264.00 
C 33.00 264.00 51.00 264.00 69.00 264.00
C 66.68 260.68 55.30 263.55 51.00 263.00 C 46.70 262.45 36.25 262.63 32.00 263.00 C 27.75 263.37 17.17 260.80 15.00 264.00 Z"/>
</g>
<g fill="#526973" fill-opacity="1.00" stroke="None">
<path d="
M 443.00 264.00 
C 461.00 264.00 479.00 264.00 497.00 264.00
C 494.77 260.68 483.27 263.56 479.00 263.00 C 474.73 262.44 464.25 262.63 460.00 263.00 C 455.75 263.37 445.23 260.81 443.00 264.00 Z"/>
</g>
<g fill="#8FD6F7" fill-opacity="1.00" stroke="None">
<path d="
M 69.00 264.00 
C 51.00 264.00 33.00 264.00 15.00 264.00
C 17.13 323.01 40.45 378.67 81.00 422.00
C 92.12 413.96 101.91 403.20 114.00 397.00
C 105.33 375.69 97.61 353.85 94.00 331.00
C 85.73 328.45 79.31 319.52 75.78 312.22 C 72.24 304.93 73.81 303.22 71.99 297.01 C 70.17 290.79 71.87 286.21 70.00 281.00 C 68.13 275.79 71.83 268.05 69.00 264.00 Z"/>
</g>
<g fill="#B0E2F7" fill-opacity="1.00" stroke="None">
<path d="
M 497.00 264.00 
C 479.00 264.00 461.00 264.00 443.00 264.00
C 441.20 287.79 443.30 319.57 418.00 331.00
C 414.39 353.89 406.66 375.72 398.00 397.00
C 409.47 403.59 420.31 412.63 430.00 422.00
C 436.27 416.71 434.13 418.29 440.25 411.25 C 446.36 404.20 452.67 395.61 457.75 387.75 C 462.83 379.88 468.80 370.03 472.70 361.70 C 476.59 353.36 476.29 354.42 479.02 348.02 C 481.76 341.63 482.48 338.42 484.68 332.68 C 486.87 326.94 487.58 322.56 489.07 317.07 C 490.57 311.59 492.45 305.39 493.01 300.01 C 493.57 294.63 495.98 287.21 495.22 282.22 C 494.47 277.23 499.60 267.87 497.00 264.00 Z"/>
</g>
<g fill="#000000" fill-opacity="0.55" stroke="None">
<path d="
M 511.00 277.00 
C 511.11 276.79 512.00 277.00 512.00 277.00
L 512.00 264.00
C 509.91 267.36 511.37 272.81 511.00 277.00 Z"/>
</g>
<g fill="#000000" fill-opacity="0.52" stroke="None">
<path d="
M 0.00 276.00 
C 0.50 276.00 1.00 276.00 1.00 276.00
C 0.80 273.13 1.86 269.12 0.00 267.00
L 0.00 276.00 Z"/>
</g>
<g fill="#000000" fill-opacity="0.01" stroke="None">
<path d="
M 0.00 512.00 
L 249.00 512.00
C 121.71 511.26 9.57 401.96 1.00 276.00
C 1.00 276.00 0.50 276.00 0.00 276.00
L 0.00 512.00 Z"/>
</g>
<g fill="#000000" fill-opacity="0.01" stroke="None">
<path d="
M 277.00 511.00 
C 276.79 511.11 277.00 512.00 277.00 512.00
L 512.00 512.00
L 512.00 277.00
C 512.00 277.00 511.11 276.79 511.00 277.00
C 500.18 400.03 400.02 500.17 277.00 511.00 Z"/>
</g>
<g fill="#71661F" fill-opacity="1.00" stroke="None">
<path d="
M 378.00 322.00 
C 381.09 322.00 384.58 321.23 387.00 321.00
C 383.91 321.00 380.42 321.77 378.00 322.00 Z"/>
</g>
<g fill="#695F1D" fill-opacity="1.00" stroke="None">
<path d="
M 345.00 323.00 
C 348.42 323.00 352.25 322.27 355.00 322.00
C 351.58 322.00 347.75 322.73 345.00 323.00 Z"/>
</g>
<g fill="#62591C" fill-opacity="1.00" stroke="None">
<path d="
M 223.00 324.00 
C 222.96 324.00 223.00 323.00 223.00 323.00
C 217.67 323.00 212.33 323.00 207.00 323.00
C 211.64 323.45 217.61 324.00 223.00 324.00 Z"/>
</g>
<g fill="#8C7F27" fill-opacity="1.00" stroke="None">
<path d="
M 223.00 324.00 
C 246.13 324.00 270.64 325.16 293.00 323.00
C 269.67 323.00 246.33 323.00 223.00 323.00
C 223.00 323.00 222.96 324.00 223.00 324.00 Z"/>
</g>
<g fill="#A7DEF6" fill-opacity="1.00" stroke="None">
<path d="
M 248.00 353.00 
C 250.19 349.87 246.36 342.52 248.00 339.00
C 239.84 338.34 230.34 340.33 223.00 338.00
C 205.67 338.00 188.33 338.00 171.00 338.00
C 167.41 338.00 163.91 337.60 161.00 337.00
C 156.47 336.06 153.00 335.72 153.00 330.00
C 148.65 331.42 142.14 328.11 138.00 330.00
C 133.68 340.95 119.10 334.10 110.00 336.00
C 113.67 353.85 120.36 370.85 126.00 388.00
C 132.62 386.48 137.66 381.37 143.93 378.93 C 150.19 376.48 155.77 373.78 161.98 370.98 C 168.18 368.17 175.28 367.02 181.78 364.78 C 188.28 362.53 195.30 360.71 201.99 358.99 C 208.69 357.28 217.73 357.46 224.00 355.00 C 230.27 352.54 243.49 357.51 248.00 353.00 Z"/>
</g>
<g fill="#AFE1F6" fill-opacity="1.00" stroke="None">
<path d="
M 294.00 338.00 
C 284.77 338.89 273.95 339.41 264.00 339.00
C 264.00 344.00 264.00 349.00 264.00 354.00
C 307.81 353.88 348.38 368.23 386.00 388.00
C 391.65 370.82 398.34 353.81 402.00 336.00
C 366.01 337.19 330.32 338.00 294.00 338.00 Z"/>
</g>
<g fill="#526A74" fill-opacity="1.00" stroke="None">
<path d="
M 171.00 338.00 
C 168.44 337.75 164.22 337.29 161.00 337.00
C 163.91 337.60 167.41 338.00 171.00 338.00 Z"/>
</g>
<g fill="#546D77" fill-opacity="1.00" stroke="None">
<path d="
M 248.00 353.00 
C 251.13 349.87 250.62 337.06 244.00 338.00 C 237.38 338.94 229.71 338.00 223.00 338.00
C 230.34 340.33 239.84 338.34 248.00 339.00
C 246.36 342.52 250.19 349.87 248.00 353.00 Z"/>
</g>
<g fill="#536B75" fill-opacity="1.00" stroke="None">
<path d="
M 264.00 354.00 
C 264.00 349.00 264.00 344.00 264.00 339.00
C 273.95 339.41 284.77 338.89 294.00 338.00
C 286.23 338.00 277.69 340.06 270.00 338.00 C 262.31 335.94 259.21 350.65 264.00 354.00 Z"/>
</g>
<g fill="#B0E3F8" fill-opacity="1.00" stroke="None">
<path d="
M 154.00 391.00 
C 176.85 426.44 210.53 457.86 248.00 476.00
C 248.00 440.33 248.00 404.67 248.00 369.00
C 243.09 365.56 230.99 371.12 225.22 370.22 C 219.45 369.32 211.87 373.20 206.00 374.00 C 200.14 374.80 192.88 376.27 187.22 378.22 C 181.57 380.18 175.67 382.08 170.08 384.08 C 164.48 386.07 159.37 388.49 154.00 391.00 Z"/>
</g>
<g fill="#55707B" fill-opacity="1.00" stroke="None">
<path d="
M 248.00 476.00 
C 248.00 482.67 248.00 489.33 248.00 496.00
C 247.00 496.00 246.00 496.00 245.00 496.00
C 245.50 497.76 247.72 496.72 249.00 497.00
C 248.96 489.82 249.06 482.13 249.00 475.00 C 248.94 467.87 249.12 461.04 249.00 454.00 C 248.88 446.96 249.24 438.87 249.00 432.00 C 248.76 425.13 249.55 417.45 249.00 411.00 C 248.45 404.55 250.18 394.62 249.00 389.00 C 247.82 383.38 252.20 371.94 248.00 369.00
C 248.00 404.67 248.00 440.33 248.00 476.00 Z"/>
</g>
<g fill="#55717B" fill-opacity="1.00" stroke="None">
<path d="
M 267.00 496.00 
C 266.07 495.74 264.94 496.20 264.00 496.00
C 264.00 453.67 264.00 411.33 264.00 369.00
C 261.67 410.68 263.67 454.50 263.00 497.00
C 264.30 497.96 266.40 496.03 267.00 496.00 Z"/>
</g>
<g fill="#AFE3F8" fill-opacity="1.00" stroke="None">
<path d="
M 267.00 496.00 
C 318.75 491.11 357.45 446.23 379.00 402.00
C 373.51 398.93 368.31 396.19 362.70 393.31 C 357.08 390.42 351.13 387.96 345.23 385.77 C 339.33 383.58 333.90 380.71 327.68 379.32 C 321.46 377.94 314.38 374.44 308.01 373.99 C 301.64 373.54 292.72 369.76 286.67 370.33 C 280.62 370.90 269.03 365.48 264.00 369.00
C 264.00 411.33 264.00 453.67 264.00 496.00
C 264.94 496.20 266.07 495.74 267.00 496.00 Z"/>
</g>
<g fill="#8FD6F7" fill-opacity="1.00" stroke="None">
<path d="
M 245.00 496.00 
C 246.00 496.00 247.00 496.00 248.00 496.00
C 248.00 489.33 248.00 482.67 248.00 476.00
C 210.53 457.86 176.85 426.44 154.00 391.00
C 146.82 394.41 139.95 398.16 133.00 402.00
C 154.59 443.37 193.23 494.84 245.00 496.00 Z"/>
</g>
<g fill="#8DD4F5" fill-opacity="1.00" stroke="None">
<path d="
M 121.00 411.00 
C 110.29 415.40 102.21 424.74 93.00 432.00
C 115.64 456.41 146.92 473.11 178.00 484.00
C 153.80 464.24 134.17 438.73 121.00 411.00 Z"/>
</g>
<g fill="#AEE0F5" fill-opacity="1.00" stroke="None">
<path d="
M 419.00 432.00 
C 409.97 424.59 401.63 415.48 391.00 411.00
C 377.76 438.69 358.28 464.19 334.00 484.00
C 365.16 473.18 396.32 456.38 419.00 432.00 Z"/>
</g>
<g fill="#000000" fill-opacity="0.58" stroke="None">
<path d="
M 263.00 512.00 
L 277.00 512.00
C 277.00 512.00 276.79 511.11 277.00 511.00
C 272.47 511.40 266.77 509.92 263.00 512.00 Z"/>
</g>
</svg>