<svg xmlns="http://www.w3.org/2000/svg" xmlns:v="https://svgstorm.com"
viewBox = "0 0 512 512"
width="512"
height="512">
<g fill="None" fill-opacity="0.0" stroke="#000000" stroke-opacity="0.00" stroke-width="0.3"><path d="
M 0.00 512.00 
L 512.00 512.00
L 512.00 0.00
L 0.00 0.00
L 0.00 512.00
M 242.00 45.00 
C 232.75 48.26 222.97 52.22 213.92 55.92 C 204.87 59.63 193.75 63.48 184.98 66.98 C 176.20 70.47 164.42 75.60 156.32 78.32 C 148.23 81.04 133.25 91.53 129.08 80.92 C 124.90 70.32 142.03 68.20 149.69 64.69 C 157.36 61.19 169.61 57.07 178.23 53.23 C 186.85 49.39 198.09 46.17 207.08 42.08 C 216.06 37.98 226.81 34.89 236.00 31.00
C 234.38 9.85 266.05 2.97 274.77 22.23 C 283.49 41.49 256.76 62.00 242.00 45.00
M 395.00 96.00 
C 386.11 92.76 376.81 88.95 368.31 84.69 C 359.80 80.44 349.88 78.10 341.78 73.22 C 333.68 68.35 322.66 67.47 315.31 61.69 C 307.95 55.92 294.01 59.14 291.08 47.92 C 288.14 36.71 306.01 38.18 313.08 43.92 C 320.14 49.67 331.21 50.71 339.23 55.77 C 347.25 60.83 357.57 61.92 366.03 66.98 C 374.48 72.03 383.41 73.36 392.22 78.78 C 401.04 84.19 411.20 74.42 421.67 77.33 C 432.14 80.24 437.11 91.93 435.00 102.00 C 432.89 112.07 421.76 118.34 412.00 117.00 C 402.24 115.66 394.20 105.99 395.00 96.00
M 74.00 172.00 
C 71.09 179.42 68.34 188.36 64.08 195.08 C 59.81 201.79 61.81 214.65 51.78 216.78 C 41.74 218.90 42.68 203.53 46.93 196.93 C 51.18 190.32 54.19 180.43 57.00 173.00
C 64.94 152.02 74.35 131.71 83.00 111.00
C 65.51 96.18 86.02 68.76 105.68 78.32 C 125.34 87.88 117.10 118.49 96.00 117.00
C 89.83 135.66 80.76 153.48 74.00 172.00
M 376.00 192.00 
C 384.32 208.82 390.95 225.59 392.00 245.00
C 392.48 253.92 391.98 263.87 391.00 272.00
C 389.23 286.64 386.23 299.69 380.00 313.00
C 375.11 323.46 369.23 332.20 362.00 341.00
C 338.10 370.10 302.74 392.00 264.00 392.00
C 258.34 392.00 252.66 392.11 247.00 392.00
C 208.55 391.23 173.88 370.07 150.00 341.00
C 142.85 332.30 137.96 324.02 133.00 314.00
C 126.31 300.47 122.86 287.37 121.00 272.00
C 119.98 263.52 119.37 253.20 120.00 244.00
C 121.29 225.04 127.85 208.48 136.00 192.00
C 182.92 97.11 329.07 97.09 376.00 192.00
M 463.00 193.00 
C 467.50 203.32 471.66 214.46 476.00 225.00
C 477.37 228.32 480.62 231.75 480.00 236.00
C 501.35 233.65 509.47 264.77 490.30 274.30 C 471.13 283.84 449.76 257.24 467.00 242.00
C 465.58 236.82 462.82 232.09 461.00 227.00
C 456.94 216.27 452.53 205.50 448.00 195.00
C 444.12 186.01 436.92 169.66 433.69 161.31 C 430.47 152.95 417.34 131.23 430.03 129.03 C 442.71 126.82 443.66 149.59 448.92 158.08 C 454.19 166.56 458.79 183.36 463.00 193.00
M 47.00 276.00 
C 52.98 289.86 57.91 304.37 64.00 318.00
C 67.81 326.53 71.48 332.13 74.32 341.68 C 77.16 351.22 82.41 355.35 84.78 366.22 C 87.15 377.10 70.26 378.09 68.69 367.31 C 67.13 356.53 60.91 352.24 58.23 342.77 C 55.55 333.30 51.81 326.82 48.00 318.00
C 42.04 304.19 37.01 289.85 31.00 276.00
C 9.95 275.20 2.92 247.22 22.23 237.23 C 41.54 227.24 61.96 256.22 45.00 270.00
C 44.86 272.25 47.16 273.71 47.00 276.00
M 462.00 322.00 
C 456.88 334.73 451.37 347.69 446.00 360.00
C 441.43 370.46 437.29 381.34 433.00 392.00
C 431.77 395.06 430.66 398.10 429.00 401.00
C 446.43 415.76 425.93 443.18 406.32 433.68 C 386.72 424.18 394.86 393.47 416.00 395.00
C 416.56 393.40 416.50 390.97 418.00 390.00
C 422.04 380.08 425.98 370.01 430.00 360.00
C 435.25 346.94 440.75 334.06 446.00 321.00
C 449.03 313.45 453.05 309.08 454.77 300.77 C 456.49 292.46 470.58 291.98 469.99 301.01 C 469.40 310.04 465.15 314.18 462.00 322.00
M 117.00 416.00 
C 127.96 419.73 142.43 425.53 152.69 430.31 C 162.96 435.08 180.22 440.34 189.02 444.98 C 197.83 449.61 221.81 453.44 217.07 465.07 C 212.33 476.71 191.47 461.91 181.98 459.02 C 172.48 456.14 157.62 447.88 146.92 444.08 C 136.23 440.27 121.80 433.78 111.00 429.00
C 96.18 446.49 68.76 425.98 78.32 406.32 C 87.88 386.66 118.49 394.90 117.00 416.00
M 276.00 480.00 
C 278.35 501.35 247.23 509.47 237.70 490.30 C 228.16 471.14 254.76 449.76 270.00 467.00
C 280.33 462.76 288.71 460.02 299.08 455.08 C 309.44 450.13 318.14 448.72 329.02 443.02 C 339.91 437.33 346.46 437.78 358.68 430.68 C 370.89 423.58 379.28 438.99 365.92 443.92 C 352.57 448.86 347.91 451.98 336.31 456.31 C 324.70 460.63 317.58 464.44 306.77 468.77 C 295.97 473.10 287.03 477.14 276.00 480.00 Z"/>
</g>
<g fill="None" fill-opacity="0.0" stroke="#2B2EEA" stroke-opacity="0.93" stroke-width="0.3"><path d="
M 242.00 45.00 
C 256.76 62.00 283.49 41.49 274.77 22.23 C 266.05 2.97 234.38 9.85 236.00 31.00
C 226.81 34.89 216.06 37.98 207.08 42.08 C 198.09 46.17 186.85 49.39 178.23 53.23 C 169.61 57.07 157.36 61.19 149.69 64.69 C 142.03 68.20 124.90 70.32 129.08 80.92 C 133.25 91.53 148.23 81.04 156.32 78.32 C 164.42 75.60 176.20 70.47 184.98 66.98 C 193.75 63.48 204.87 59.63 213.92 55.92 C 222.97 52.22 232.75 48.26 242.00 45.00 Z"/>
</g>
<g fill="None" fill-opacity="0.0" stroke="#3B2CDA" stroke-opacity="0.93" stroke-width="0.3"><path d="
M 395.00 96.00 
C 394.20 105.99 402.24 115.66 412.00 117.00 C 421.76 118.34 432.89 112.07 435.00 102.00 C 437.11 91.93 432.14 80.24 421.67 77.33 C 411.20 74.42 401.04 84.19 392.22 78.78 C 383.41 73.36 374.48 72.03 366.03 66.98 C 357.57 61.92 347.25 60.83 339.23 55.77 C 331.21 50.71 320.14 49.67 313.08 43.92 C 306.01 38.18 288.14 36.71 291.08 47.92 C 294.01 59.14 307.95 55.92 315.31 61.69 C 322.66 67.47 333.68 68.35 341.78 73.22 C 349.88 78.10 359.80 80.44 368.31 84.69 C 376.81 88.95 386.11 92.76 395.00 96.00 Z"/>
</g>
<g fill="None" fill-opacity="0.0" stroke="#4E2BC7" stroke-opacity="0.94" stroke-width="0.3"><path d="
M 57.00 173.00 
C 61.11 169.72 69.22 173.41 74.00 172.00
C 80.76 153.48 89.83 135.66 96.00 117.00
C 117.10 118.49 125.34 87.88 105.68 78.32 C 86.02 68.76 65.51 96.18 83.00 111.00
C 74.35 131.71 64.94 152.02 57.00 173.00 Z"/>
</g>
<g fill="None" fill-opacity="0.0" stroke="#6528B0" stroke-opacity="0.98" stroke-width="0.3"><path d="
M 136.00 192.00 
C 137.12 194.12 148.51 191.26 153.00 192.00 C 157.49 192.74 167.55 191.92 173.00 192.00 C 178.45 192.08 186.20 192.62 192.00 192.00 C 197.80 191.38 205.99 193.19 211.00 193.00
C 238.46 181.96 274.54 181.69 302.00 193.00
C 309.07 193.04 318.18 190.86 326.00 192.00 C 333.82 193.14 343.35 190.43 351.00 192.00 C 358.65 193.57 368.98 188.97 376.00 192.00
C 329.07 97.09 182.92 97.11 136.00 192.00 Z"/>
</g>
<g fill="None" fill-opacity="0.0" stroke="#6528B0" stroke-opacity="0.91" stroke-width="0.3"><path d="
M 448.00 195.00 
C 452.48 192.38 458.53 195.62 463.00 193.00
C 458.79 183.36 454.19 166.56 448.92 158.08 C 443.66 149.59 442.71 126.82 430.03 129.03 C 417.34 131.23 430.47 152.95 433.69 161.31 C 436.92 169.66 444.12 186.01 448.00 195.00 Z"/>
</g>
<g fill="None" fill-opacity="0.0" stroke="#7526A1" stroke-opacity="0.91" stroke-width="0.3"><path d="
M 57.00 173.00 
C 54.19 180.43 51.18 190.32 46.93 196.93 C 42.68 203.53 41.74 218.90 51.78 216.78 C 61.81 214.65 59.81 201.79 64.08 195.08 C 68.34 188.36 71.09 179.42 74.00 172.00
C 69.22 173.41 61.11 169.72 57.00 173.00 Z"/>
</g>
<g fill="None" fill-opacity="0.0" stroke="#000000" stroke-opacity="0.00" stroke-width="0.3"><path d="
M 211.00 193.00 
C 201.40 196.86 195.43 200.87 186.30 206.30 C 177.18 211.74 174.97 217.10 165.75 224.75 C 156.53 232.41 167.01 243.45 174.75 233.75 C 182.49 224.05 186.94 222.01 195.70 215.70 C 204.45 209.38 211.06 206.90 221.08 203.08 C 231.09 199.26 243.80 198.19 255.00 198.00 C 266.20 197.81 279.31 199.09 289.22 202.78 C 299.13 206.47 306.84 208.20 315.23 214.77 C 323.61 221.34 329.35 222.62 336.25 232.75 C 343.15 242.88 355.74 234.23 347.25 225.75 C 338.75 217.28 335.56 212.93 326.75 207.25 C 317.95 201.57 311.21 196.79 302.00 193.00
C 274.54 181.69 238.46 181.96 211.00 193.00 Z"/>
</g>
<g fill="None" fill-opacity="0.0" stroke="#822494" stroke-opacity="0.96" stroke-width="0.3"><path d="
M 120.00 244.00 
C 122.59 247.86 132.22 243.97 137.00 245.00 C 141.78 246.03 150.49 244.50 156.00 245.00 C 161.51 245.50 168.13 244.75 174.00 245.00 C 179.87 245.25 187.02 244.81 193.00 245.00
C 192.70 246.25 191.17 246.71 191.00 248.00
C 222.31 209.88 288.78 211.46 320.00 248.00
C 320.09 248.18 320.26 245.44 319.00 245.00
C 343.33 245.00 367.67 245.00 392.00 245.00
C 390.95 225.59 384.32 208.82 376.00 192.00
C 368.98 188.97 358.65 193.57 351.00 192.00 C 343.35 190.43 333.82 193.14 326.00 192.00 C 318.18 190.86 309.07 193.04 302.00 193.00
C 311.21 196.79 317.95 201.57 326.75 207.25 C 335.56 212.93 338.75 217.28 347.25 225.75 C 355.74 234.23 343.15 242.88 336.25 232.75 C 329.35 222.62 323.61 221.34 315.23 214.77 C 306.84 208.20 299.13 206.47 289.22 202.78 C 279.31 199.09 266.20 197.81 255.00 198.00 C 243.80 198.19 231.09 199.26 221.08 203.08 C 211.06 206.90 204.45 209.38 195.70 215.70 C 186.94 222.01 182.49 224.05 174.75 233.75 C 167.01 243.45 156.53 232.41 165.75 224.75 C 174.97 217.10 177.18 211.74 186.30 206.30 C 195.43 200.87 201.40 196.86 211.00 193.00
C 205.99 193.19 197.80 191.38 192.00 192.00 C 186.20 192.62 178.45 192.08 173.00 192.00 C 167.55 191.92 157.49 192.74 153.00 192.00 C 148.51 191.26 137.12 194.12 136.00 192.00
C 127.85 208.48 121.29 225.04 120.00 244.00 Z"/>
</g>
<g fill="None" fill-opacity="0.0" stroke="#7E2498" stroke-opacity="0.92" stroke-width="0.3"><path d="
M 448.00 195.00 
C 452.53 205.50 456.94 216.27 461.00 227.00
C 464.22 223.51 473.60 228.80 476.00 225.00
C 471.66 214.46 467.50 203.32 463.00 193.00
C 458.53 195.62 452.48 192.38 448.00 195.00 Z"/>
</g>
<g fill="None" fill-opacity="0.0" stroke="#000000" stroke-opacity="0.00" stroke-width="0.3"><path d="
M 191.00 248.00 
C 181.36 259.74 196.84 263.82 202.75 254.75 C 208.66 245.68 216.92 244.48 225.23 239.23 C 233.54 233.98 245.99 233.25 256.00 233.00 C 266.01 232.75 278.80 234.61 287.23 239.77 C 295.66 244.93 302.99 245.72 309.25 254.75 C 315.51 263.78 330.31 260.06 320.00 248.00
C 288.78 211.46 222.31 209.88 191.00 248.00 Z"/>
</g>
<g fill="None" fill-opacity="0.0" stroke="#942282" stroke-opacity="0.95" stroke-width="0.3"><path d="
M 461.00 227.00 
C 462.82 232.09 465.58 236.82 467.00 242.00
C 449.76 257.24 471.13 283.84 490.30 274.30 C 509.47 264.77 501.35 233.65 480.00 236.00
C 480.62 231.75 477.37 228.32 476.00 225.00
C 473.60 228.80 464.22 223.51 461.00 227.00 Z"/>
</g>
<g fill="None" fill-opacity="0.0" stroke="#962181" stroke-opacity="0.97" stroke-width="0.3"><path d="
M 191.00 248.00 
C 191.17 246.71 192.70 246.25 193.00 245.00
C 187.02 244.81 179.87 245.25 174.00 245.00 C 168.13 244.75 161.51 245.50 156.00 245.00 C 150.49 244.50 141.78 246.03 137.00 245.00 C 132.22 243.97 122.59 247.86 120.00 244.00
C 119.37 253.20 119.98 263.52 121.00 272.00
C 125.26 274.98 134.61 270.63 140.00 272.00 C 145.39 273.37 153.11 271.33 159.00 272.00 C 164.89 272.67 171.90 271.59 178.00 272.00 C 184.10 272.41 190.84 271.58 197.00 272.00 C 203.16 272.42 210.66 270.85 216.00 273.00
C 222.41 261.13 244.08 255.01 256.00 255.00 C 267.92 254.99 289.61 261.16 296.00 273.00
C 301.24 270.89 307.96 272.41 314.00 272.00 C 320.04 271.59 326.94 272.42 333.00 272.00 C 339.06 271.58 346.10 272.71 352.00 272.00 C 357.90 271.29 365.56 273.48 371.00 272.00 C 376.44 270.52 386.62 275.06 391.00 272.00
C 391.98 263.87 392.48 253.92 392.00 245.00
C 367.67 245.00 343.33 245.00 319.00 245.00
C 320.26 245.44 320.09 248.18 320.00 248.00
C 330.31 260.06 315.51 263.78 309.25 254.75 C 302.99 245.72 295.66 244.93 287.23 239.77 C 278.80 234.61 266.01 232.75 256.00 233.00 C 245.99 233.25 233.54 233.98 225.23 239.23 C 216.92 244.48 208.66 245.68 202.75 254.75 C 196.84 263.82 181.36 259.74 191.00 248.00 Z"/>
</g>
<g fill="None" fill-opacity="0.0" stroke="#962280" stroke-opacity="0.95" stroke-width="0.3"><path d="
M 31.00 276.00 
C 35.04 276.15 43.45 274.24 47.00 276.00
C 47.16 273.71 44.86 272.25 45.00 270.00
C 61.96 256.22 41.54 227.24 22.23 237.23 C 2.92 247.22 9.95 275.20 31.00 276.00 Z"/>
</g>
<g fill="None" fill-opacity="0.0" stroke="#000000" stroke-opacity="0.00" stroke-width="0.3"><path d="
M 216.00 273.00 
C 209.10 285.79 225.73 284.67 230.25 277.25 C 234.77 269.82 248.74 267.87 256.00 268.00 C 263.26 268.13 276.83 269.19 281.23 276.77 C 285.63 284.35 303.15 286.24 296.00 273.00
C 289.61 261.16 267.92 254.99 256.00 255.00 C 244.08 255.01 222.41 261.13 216.00 273.00 Z"/>
</g>
<g fill="None" fill-opacity="0.0" stroke="#A81F6F" stroke-opacity="0.98" stroke-width="0.3"><path d="
M 216.00 273.00 
C 210.66 270.85 203.16 272.42 197.00 272.00 C 190.84 271.58 184.10 272.41 178.00 272.00 C 171.90 271.59 164.89 272.67 159.00 272.00 C 153.11 271.33 145.39 273.37 140.00 272.00 C 134.61 270.63 125.26 274.98 121.00 272.00
C 122.86 287.37 126.31 300.47 133.00 314.00
C 135.52 309.89 147.74 314.20 153.00 313.00 C 158.26 311.80 167.79 313.54 174.00 313.00 C 180.21 312.46 188.37 313.25 195.00 313.00 C 201.63 312.75 209.19 313.13 216.00 313.00 C 222.81 312.87 230.14 313.10 237.00 313.00
C 233.22 300.87 243.00 287.00 256.01 287.01 C 269.02 287.02 278.78 300.88 275.00 313.00
C 281.94 312.89 289.08 313.15 296.00 313.00 C 302.92 312.85 310.15 313.28 317.00 313.00 C 323.85 312.72 331.32 313.60 338.00 313.00 C 344.68 312.40 352.71 314.32 359.00 313.00 C 365.29 311.68 374.58 315.93 380.00 313.00
C 386.23 299.69 389.23 286.64 391.00 272.00
C 386.62 275.06 376.44 270.52 371.00 272.00 C 365.56 273.48 357.90 271.29 352.00 272.00 C 346.10 272.71 339.06 271.58 333.00 272.00 C 326.94 272.42 320.04 271.59 314.00 272.00 C 307.96 272.41 301.24 270.89 296.00 273.00
C 303.15 286.24 285.63 284.35 281.23 276.77 C 276.83 269.19 263.26 268.13 256.00 268.00 C 248.74 267.87 234.77 269.82 230.25 277.25 C 225.73 284.67 209.10 285.79 216.00 273.00 Z"/>
</g>
<g fill="None" fill-opacity="0.0" stroke="#AB1F6C" stroke-opacity="0.92" stroke-width="0.3"><path d="
M 48.00 318.00 
C 50.11 319.75 62.61 320.20 64.00 318.00
C 57.91 304.37 52.98 289.86 47.00 276.00
C 43.45 274.24 35.04 276.15 31.00 276.00
C 37.01 289.85 42.04 304.19 48.00 318.00 Z"/>
</g>
<g fill="None" fill-opacity="0.0" stroke="#000000" stroke-opacity="0.00" stroke-width="0.3"><path d="
M 237.00 313.00 
C 242.76 331.48 269.23 331.49 275.00 313.00
C 278.78 300.88 269.02 287.02 256.01 287.01 C 243.00 287.00 233.22 300.87 237.00 313.00 Z"/>
</g>
<g fill="None" fill-opacity="0.0" stroke="#B01E66" stroke-opacity="0.90" stroke-width="0.3"><path d="
M 446.00 321.00 
C 449.76 318.86 458.27 321.83 462.00 322.00
C 465.15 314.18 469.40 310.04 469.99 301.01 C 470.58 291.98 456.49 292.46 454.77 300.77 C 453.05 309.08 449.03 313.45 446.00 321.00 Z"/>
</g>
<g fill="None" fill-opacity="0.0" stroke="#B71B5D" stroke-opacity="0.99" stroke-width="0.3"><path d="
M 133.00 314.00 
C 137.96 324.02 142.85 332.30 150.00 341.00
C 152.32 336.91 164.77 341.17 170.00 340.00 C 175.23 338.83 184.67 340.50 191.00 340.00 C 197.33 339.50 206.24 340.23 213.00 340.00 C 219.76 339.77 227.04 340.08 234.00 340.00 C 240.96 339.92 249.01 340.00 256.00 340.00 C 262.99 340.00 270.10 339.91 277.00 340.00 C 283.90 340.09 291.26 339.75 298.00 340.00 C 304.74 340.25 313.68 339.46 320.00 340.00 C 326.32 340.55 335.78 338.73 341.00 340.00 C 346.22 341.27 359.64 336.83 362.00 341.00
C 369.23 332.20 375.11 323.46 380.00 313.00
C 374.58 315.93 365.29 311.68 359.00 313.00 C 352.71 314.32 344.68 312.40 338.00 313.00 C 331.32 313.60 323.85 312.72 317.00 313.00 C 310.15 313.28 302.92 312.85 296.00 313.00 C 289.08 313.15 281.94 312.89 275.00 313.00
C 269.23 331.49 242.76 331.48 237.00 313.00
C 230.14 313.10 222.81 312.87 216.00 313.00 C 209.19 313.13 201.63 312.75 195.00 313.00 C 188.37 313.25 180.21 312.46 174.00 313.00 C 167.79 313.54 158.26 311.80 153.00 313.00 C 147.74 314.20 135.52 309.89 133.00 314.00 Z"/>
</g>
<g fill="None" fill-opacity="0.0" stroke="#BF1853" stroke-opacity="0.91" stroke-width="0.3"><path d="
M 64.00 318.00 
C 62.61 320.20 50.11 319.75 48.00 318.00
C 51.81 326.82 55.55 333.30 58.23 342.77 C 60.91 352.24 67.13 356.53 68.69 367.31 C 70.26 378.09 87.15 377.10 84.78 366.22 C 82.41 355.35 77.16 351.22 74.32 341.68 C 71.48 332.13 67.81 326.53 64.00 318.00 Z"/>
</g>
<g fill="None" fill-opacity="0.0" stroke="#BD1956" stroke-opacity="0.92" stroke-width="0.3"><path d="
M 430.00 360.00 
C 434.16 357.76 441.74 362.08 446.00 360.00
C 451.37 347.69 456.88 334.73 462.00 322.00
C 458.27 321.83 449.76 318.86 446.00 321.00
C 440.75 334.06 435.25 346.94 430.00 360.00 Z"/>
</g>
<g fill="None" fill-opacity="0.0" stroke="#C4164C" stroke-opacity="0.98" stroke-width="0.3"><path d="
M 150.00 341.00 
C 173.88 370.07 208.55 391.23 247.00 392.00
C 252.30 391.59 258.75 391.49 264.00 392.00
C 302.74 392.00 338.10 370.10 362.00 341.00
C 359.64 336.83 346.22 341.27 341.00 340.00 C 335.78 338.73 326.32 340.55 320.00 340.00 C 313.68 339.46 304.74 340.25 298.00 340.00 C 291.26 339.75 283.90 340.09 277.00 340.00 C 270.10 339.91 262.99 340.00 256.00 340.00 C 249.01 340.00 240.96 339.92 234.00 340.00 C 227.04 340.08 219.76 339.77 213.00 340.00 C 206.24 340.23 197.33 339.50 191.00 340.00 C 184.67 340.50 175.23 338.83 170.00 340.00 C 164.77 341.17 152.32 336.91 150.00 341.00 Z"/>
</g>
<g fill="None" fill-opacity="0.0" stroke="#CA1444" stroke-opacity="0.92" stroke-width="0.3"><path d="
M 418.00 390.00 
C 420.37 393.79 429.86 388.52 433.00 392.00
C 437.29 381.34 441.43 370.46 446.00 360.00
C 441.74 362.08 434.16 357.76 430.00 360.00
C 425.98 370.01 422.04 380.08 418.00 390.00 Z"/>
</g>
<g fill="None" fill-opacity="0.0" stroke="#D90E31" stroke-opacity="0.95" stroke-width="0.3"><path d="
M 433.00 392.00 
C 429.86 388.52 420.37 393.79 418.00 390.00
C 416.50 390.97 416.56 393.40 416.00 395.00
C 394.86 393.47 386.72 424.18 406.32 433.68 C 425.93 443.18 446.43 415.76 429.00 401.00
C 430.66 398.10 431.77 395.06 433.00 392.00 Z"/>
</g>
<g fill="None" fill-opacity="0.0" stroke="#D0113D" stroke-opacity="0.83" stroke-width="0.3"><path d="
M 247.00 392.00 
C 252.66 392.11 258.34 392.00 264.00 392.00
C 258.75 391.49 252.30 391.59 247.00 392.00 Z"/>
</g>
<g fill="None" fill-opacity="0.0" stroke="#E00C29" stroke-opacity="0.93" stroke-width="0.3"><path d="
M 117.00 416.00 
C 118.49 394.90 87.88 386.66 78.32 406.32 C 68.76 425.98 96.18 446.49 111.00 429.00
C 121.80 433.78 136.23 440.27 146.92 444.08 C 157.62 447.88 172.48 456.14 181.98 459.02 C 191.47 461.91 212.33 476.71 217.07 465.07 C 221.81 453.44 197.83 449.61 189.02 444.98 C 180.22 440.34 162.96 435.08 152.69 430.31 C 142.43 425.53 127.96 419.73 117.00 416.00 Z"/>
</g>
<g fill="None" fill-opacity="0.0" stroke="#ED0618" stroke-opacity="0.93" stroke-width="0.3"><path d="
M 276.00 480.00 
C 287.03 477.14 295.97 473.10 306.77 468.77 C 317.58 464.44 324.70 460.63 336.31 456.31 C 347.91 451.98 352.57 448.86 365.92 443.92 C 379.28 438.99 370.89 423.58 358.68 430.68 C 346.46 437.78 339.91 437.33 329.02 443.02 C 318.14 448.72 309.44 450.13 299.08 455.08 C 288.71 460.02 280.33 462.76 270.00 467.00
C 254.76 449.76 228.16 471.14 237.70 490.30 C 247.23 509.47 278.35 501.35 276.00 480.00 Z"/>
</g>
<g fill="#000000" fill-opacity="0.00" stroke="None">
<path d="
M 0.00 512.00 
L 512.00 512.00
L 512.00 0.00
L 0.00 0.00
L 0.00 512.00
M 242.00 45.00 
C 232.75 48.26 222.97 52.22 213.92 55.92 C 204.87 59.63 193.75 63.48 184.98 66.98 C 176.20 70.47 164.42 75.60 156.32 78.32 C 148.23 81.04 133.25 91.53 129.08 80.92 C 124.90 70.32 142.03 68.20 149.69 64.69 C 157.36 61.19 169.61 57.07 178.23 53.23 C 186.85 49.39 198.09 46.17 207.08 42.08 C 216.06 37.98 226.81 34.89 236.00 31.00
C 234.38 9.85 266.05 2.97 274.77 22.23 C 283.49 41.49 256.76 62.00 242.00 45.00
M 395.00 96.00 
C 386.11 92.76 376.81 88.95 368.31 84.69 C 359.80 80.44 349.88 78.10 341.78 73.22 C 333.68 68.35 322.66 67.47 315.31 61.69 C 307.95 55.92 294.01 59.14 291.08 47.92 C 288.14 36.71 306.01 38.18 313.08 43.92 C 320.14 49.67 331.21 50.71 339.23 55.77 C 347.25 60.83 357.57 61.92 366.03 66.98 C 374.48 72.03 383.41 73.36 392.22 78.78 C 401.04 84.19 411.20 74.42 421.67 77.33 C 432.14 80.24 437.11 91.93 435.00 102.00 C 432.89 112.07 421.76 118.34 412.00 117.00 C 402.24 115.66 394.20 105.99 395.00 96.00
M 74.00 172.00 
C 71.09 179.42 68.34 188.36 64.08 195.08 C 59.81 201.79 61.81 214.65 51.78 216.78 C 41.74 218.90 42.68 203.53 46.93 196.93 C 51.18 190.32 54.19 180.43 57.00 173.00
C 64.94 152.02 74.35 131.71 83.00 111.00
C 65.51 96.18 86.02 68.76 105.68 78.32 C 125.34 87.88 117.10 118.49 96.00 117.00
C 89.83 135.66 80.76 153.48 74.00 172.00
M 376.00 192.00 
C 384.32 208.82 390.95 225.59 392.00 245.00
C 392.48 253.92 391.98 263.87 391.00 272.00
C 389.23 286.64 386.23 299.69 380.00 313.00
C 375.11 323.46 369.23 332.20 362.00 341.00
C 338.10 370.10 302.74 392.00 264.00 392.00
C 258.34 392.00 252.66 392.11 247.00 392.00
C 208.55 391.23 173.88 370.07 150.00 341.00
C 142.85 332.30 137.96 324.02 133.00 314.00
C 126.31 300.47 122.86 287.37 121.00 272.00
C 119.98 263.52 119.37 253.20 120.00 244.00
C 121.29 225.04 127.85 208.48 136.00 192.00
C 182.92 97.11 329.07 97.09 376.00 192.00
M 463.00 193.00 
C 467.50 203.32 471.66 214.46 476.00 225.00
C 477.37 228.32 480.62 231.75 480.00 236.00
C 501.35 233.65 509.47 264.77 490.30 274.30 C 471.13 283.84 449.76 257.24 467.00 242.00
C 465.58 236.82 462.82 232.09 461.00 227.00
C 456.94 216.27 452.53 205.50 448.00 195.00
C 444.12 186.01 436.92 169.66 433.69 161.31 C 430.47 152.95 417.34 131.23 430.03 129.03 C 442.71 126.82 443.66 149.59 448.92 158.08 C 454.19 166.56 458.79 183.36 463.00 193.00
M 47.00 276.00 
C 52.98 289.86 57.91 304.37 64.00 318.00
C 67.81 326.53 71.48 332.13 74.32 341.68 C 77.16 351.22 82.41 355.35 84.78 366.22 C 87.15 377.10 70.26 378.09 68.69 367.31 C 67.13 356.53 60.91 352.24 58.23 342.77 C 55.55 333.30 51.81 326.82 48.00 318.00
C 42.04 304.19 37.01 289.85 31.00 276.00
C 9.95 275.20 2.92 247.22 22.23 237.23 C 41.54 227.24 61.96 256.22 45.00 270.00
C 44.86 272.25 47.16 273.71 47.00 276.00
M 462.00 322.00 
C 456.88 334.73 451.37 347.69 446.00 360.00
C 441.43 370.46 437.29 381.34 433.00 392.00
C 431.77 395.06 430.66 398.10 429.00 401.00
C 446.43 415.76 425.93 443.18 406.32 433.68 C 386.72 424.18 394.86 393.47 416.00 395.00
C 416.56 393.40 416.50 390.97 418.00 390.00
C 422.04 380.08 425.98 370.01 430.00 360.00
C 435.25 346.94 440.75 334.06 446.00 321.00
C 449.03 313.45 453.05 309.08 454.77 300.77 C 456.49 292.46 470.58 291.98 469.99 301.01 C 469.40 310.04 465.15 314.18 462.00 322.00
M 117.00 416.00 
C 127.96 419.73 142.43 425.53 152.69 430.31 C 162.96 435.08 180.22 440.34 189.02 444.98 C 197.83 449.61 221.81 453.44 217.07 465.07 C 212.33 476.71 191.47 461.91 181.98 459.02 C 172.48 456.14 157.62 447.88 146.92 444.08 C 136.23 440.27 121.80 433.78 111.00 429.00
C 96.18 446.49 68.76 425.98 78.32 406.32 C 87.88 386.66 118.49 394.90 117.00 416.00
M 276.00 480.00 
C 278.35 501.35 247.23 509.47 237.70 490.30 C 228.16 471.14 254.76 449.76 270.00 467.00
C 280.33 462.76 288.71 460.02 299.08 455.08 C 309.44 450.13 318.14 448.72 329.02 443.02 C 339.91 437.33 346.46 437.78 358.68 430.68 C 370.89 423.58 379.28 438.99 365.92 443.92 C 352.57 448.86 347.91 451.98 336.31 456.31 C 324.70 460.63 317.58 464.44 306.77 468.77 C 295.97 473.10 287.03 477.14 276.00 480.00 Z"/>
</g>
<g fill="#2B2EEA" fill-opacity="0.93" stroke="None">
<path d="
M 242.00 45.00 
C 256.76 62.00 283.49 41.49 274.77 22.23 C 266.05 2.97 234.38 9.85 236.00 31.00
C 226.81 34.89 216.06 37.98 207.08 42.08 C 198.09 46.17 186.85 49.39 178.23 53.23 C 169.61 57.07 157.36 61.19 149.69 64.69 C 142.03 68.20 124.90 70.32 129.08 80.92 C 133.25 91.53 148.23 81.04 156.32 78.32 C 164.42 75.60 176.20 70.47 184.98 66.98 C 193.75 63.48 204.87 59.63 213.92 55.92 C 222.97 52.22 232.75 48.26 242.00 45.00 Z"/>
</g>
<g fill="#3B2CDA" fill-opacity="0.93" stroke="None">
<path d="
M 395.00 96.00 
C 394.20 105.99 402.24 115.66 412.00 117.00 C 421.76 118.34 432.89 112.07 435.00 102.00 C 437.11 91.93 432.14 80.24 421.67 77.33 C 411.20 74.42 401.04 84.19 392.22 78.78 C 383.41 73.36 374.48 72.03 366.03 66.98 C 357.57 61.92 347.25 60.83 339.23 55.77 C 331.21 50.71 320.14 49.67 313.08 43.92 C 306.01 38.18 288.14 36.71 291.08 47.92 C 294.01 59.14 307.95 55.92 315.31 61.69 C 322.66 67.47 333.68 68.35 341.78 73.22 C 349.88 78.10 359.80 80.44 368.31 84.69 C 376.81 88.95 386.11 92.76 395.00 96.00 Z"/>
</g>
<g fill="#4E2BC7" fill-opacity="0.94" stroke="None">
<path d="
M 57.00 173.00 
C 61.11 169.72 69.22 173.41 74.00 172.00
C 80.76 153.48 89.83 135.66 96.00 117.00
C 117.10 118.49 125.34 87.88 105.68 78.32 C 86.02 68.76 65.51 96.18 83.00 111.00
C 74.35 131.71 64.94 152.02 57.00 173.00 Z"/>
</g>
<g fill="#6528B0" fill-opacity="0.98" stroke="None">
<path d="
M 136.00 192.00 
C 137.12 194.12 148.51 191.26 153.00 192.00 C 157.49 192.74 167.55 191.92 173.00 192.00 C 178.45 192.08 186.20 192.62 192.00 192.00 C 197.80 191.38 205.99 193.19 211.00 193.00
C 238.46 181.96 274.54 181.69 302.00 193.00
C 309.07 193.04 318.18 190.86 326.00 192.00 C 333.82 193.14 343.35 190.43 351.00 192.00 C 358.65 193.57 368.98 188.97 376.00 192.00
C 329.07 97.09 182.92 97.11 136.00 192.00 Z"/>
</g>
<g fill="#6528B0" fill-opacity="0.91" stroke="None">
<path d="
M 448.00 195.00 
C 452.48 192.38 458.53 195.62 463.00 193.00
C 458.79 183.36 454.19 166.56 448.92 158.08 C 443.66 149.59 442.71 126.82 430.03 129.03 C 417.34 131.23 430.47 152.95 433.69 161.31 C 436.92 169.66 444.12 186.01 448.00 195.00 Z"/>
</g>
<g fill="#7526A1" fill-opacity="0.91" stroke="None">
<path d="
M 57.00 173.00 
C 54.19 180.43 51.18 190.32 46.93 196.93 C 42.68 203.53 41.74 218.90 51.78 216.78 C 61.81 214.65 59.81 201.79 64.08 195.08 C 68.34 188.36 71.09 179.42 74.00 172.00
C 69.22 173.41 61.11 169.72 57.00 173.00 Z"/>
</g>
<g fill="#000000" fill-opacity="0.00" stroke="None">
<path d="
M 211.00 193.00 
C 201.40 196.86 195.43 200.87 186.30 206.30 C 177.18 211.74 174.97 217.10 165.75 224.75 C 156.53 232.41 167.01 243.45 174.75 233.75 C 182.49 224.05 186.94 222.01 195.70 215.70 C 204.45 209.38 211.06 206.90 221.08 203.08 C 231.09 199.26 243.80 198.19 255.00 198.00 C 266.20 197.81 279.31 199.09 289.22 202.78 C 299.13 206.47 306.84 208.20 315.23 214.77 C 323.61 221.34 329.35 222.62 336.25 232.75 C 343.15 242.88 355.74 234.23 347.25 225.75 C 338.75 217.28 335.56 212.93 326.75 207.25 C 317.95 201.57 311.21 196.79 302.00 193.00
C 274.54 181.69 238.46 181.96 211.00 193.00 Z"/>
</g>
<g fill="#822494" fill-opacity="0.96" stroke="None">
<path d="
M 120.00 244.00 
C 122.59 247.86 132.22 243.97 137.00 245.00 C 141.78 246.03 150.49 244.50 156.00 245.00 C 161.51 245.50 168.13 244.75 174.00 245.00 C 179.87 245.25 187.02 244.81 193.00 245.00
C 192.70 246.25 191.17 246.71 191.00 248.00
C 222.31 209.88 288.78 211.46 320.00 248.00
C 320.09 248.18 320.26 245.44 319.00 245.00
C 343.33 245.00 367.67 245.00 392.00 245.00
C 390.95 225.59 384.32 208.82 376.00 192.00
C 368.98 188.97 358.65 193.57 351.00 192.00 C 343.35 190.43 333.82 193.14 326.00 192.00 C 318.18 190.86 309.07 193.04 302.00 193.00
C 311.21 196.79 317.95 201.57 326.75 207.25 C 335.56 212.93 338.75 217.28 347.25 225.75 C 355.74 234.23 343.15 242.88 336.25 232.75 C 329.35 222.62 323.61 221.34 315.23 214.77 C 306.84 208.20 299.13 206.47 289.22 202.78 C 279.31 199.09 266.20 197.81 255.00 198.00 C 243.80 198.19 231.09 199.26 221.08 203.08 C 211.06 206.90 204.45 209.38 195.70 215.70 C 186.94 222.01 182.49 224.05 174.75 233.75 C 167.01 243.45 156.53 232.41 165.75 224.75 C 174.97 217.10 177.18 211.74 186.30 206.30 C 195.43 200.87 201.40 196.86 211.00 193.00
C 205.99 193.19 197.80 191.38 192.00 192.00 C 186.20 192.62 178.45 192.08 173.00 192.00 C 167.55 191.92 157.49 192.74 153.00 192.00 C 148.51 191.26 137.12 194.12 136.00 192.00
C 127.85 208.48 121.29 225.04 120.00 244.00 Z"/>
</g>
<g fill="#7E2498" fill-opacity="0.92" stroke="None">
<path d="
M 448.00 195.00 
C 452.53 205.50 456.94 216.27 461.00 227.00
C 464.22 223.51 473.60 228.80 476.00 225.00
C 471.66 214.46 467.50 203.32 463.00 193.00
C 458.53 195.62 452.48 192.38 448.00 195.00 Z"/>
</g>
<g fill="#000000" fill-opacity="0.00" stroke="None">
<path d="
M 191.00 248.00 
C 181.36 259.74 196.84 263.82 202.75 254.75 C 208.66 245.68 216.92 244.48 225.23 239.23 C 233.54 233.98 245.99 233.25 256.00 233.00 C 266.01 232.75 278.80 234.61 287.23 239.77 C 295.66 244.93 302.99 245.72 309.25 254.75 C 315.51 263.78 330.31 260.06 320.00 248.00
C 288.78 211.46 222.31 209.88 191.00 248.00 Z"/>
</g>
<g fill="#942282" fill-opacity="0.95" stroke="None">
<path d="
M 461.00 227.00 
C 462.82 232.09 465.58 236.82 467.00 242.00
C 449.76 257.24 471.13 283.84 490.30 274.30 C 509.47 264.77 501.35 233.65 480.00 236.00
C 480.62 231.75 477.37 228.32 476.00 225.00
C 473.60 228.80 464.22 223.51 461.00 227.00 Z"/>
</g>
<g fill="#962181" fill-opacity="0.97" stroke="None">
<path d="
M 191.00 248.00 
C 191.17 246.71 192.70 246.25 193.00 245.00
C 187.02 244.81 179.87 245.25 174.00 245.00 C 168.13 244.75 161.51 245.50 156.00 245.00 C 150.49 244.50 141.78 246.03 137.00 245.00 C 132.22 243.97 122.59 247.86 120.00 244.00
C 119.37 253.20 119.98 263.52 121.00 272.00
C 125.26 274.98 134.61 270.63 140.00 272.00 C 145.39 273.37 153.11 271.33 159.00 272.00 C 164.89 272.67 171.90 271.59 178.00 272.00 C 184.10 272.41 190.84 271.58 197.00 272.00 C 203.16 272.42 210.66 270.85 216.00 273.00
C 222.41 261.13 244.08 255.01 256.00 255.00 C 267.92 254.99 289.61 261.16 296.00 273.00
C 301.24 270.89 307.96 272.41 314.00 272.00 C 320.04 271.59 326.94 272.42 333.00 272.00 C 339.06 271.58 346.10 272.71 352.00 272.00 C 357.90 271.29 365.56 273.48 371.00 272.00 C 376.44 270.52 386.62 275.06 391.00 272.00
C 391.98 263.87 392.48 253.92 392.00 245.00
C 367.67 245.00 343.33 245.00 319.00 245.00
C 320.26 245.44 320.09 248.18 320.00 248.00
C 330.31 260.06 315.51 263.78 309.25 254.75 C 302.99 245.72 295.66 244.93 287.23 239.77 C 278.80 234.61 266.01 232.75 256.00 233.00 C 245.99 233.25 233.54 233.98 225.23 239.23 C 216.92 244.48 208.66 245.68 202.75 254.75 C 196.84 263.82 181.36 259.74 191.00 248.00 Z"/>
</g>
<g fill="#962280" fill-opacity="0.95" stroke="None">
<path d="
M 31.00 276.00 
C 35.04 276.15 43.45 274.24 47.00 276.00
C 47.16 273.71 44.86 272.25 45.00 270.00
C 61.96 256.22 41.54 227.24 22.23 237.23 C 2.92 247.22 9.95 275.20 31.00 276.00 Z"/>
</g>
<g fill="#000000" fill-opacity="0.00" stroke="None">
<path d="
M 216.00 273.00 
C 209.10 285.79 225.73 284.67 230.25 277.25 C 234.77 269.82 248.74 267.87 256.00 268.00 C 263.26 268.13 276.83 269.19 281.23 276.77 C 285.63 284.35 303.15 286.24 296.00 273.00
C 289.61 261.16 267.92 254.99 256.00 255.00 C 244.08 255.01 222.41 261.13 216.00 273.00 Z"/>
</g>
<g fill="#A81F6F" fill-opacity="0.98" stroke="None">
<path d="
M 216.00 273.00 
C 210.66 270.85 203.16 272.42 197.00 272.00 C 190.84 271.58 184.10 272.41 178.00 272.00 C 171.90 271.59 164.89 272.67 159.00 272.00 C 153.11 271.33 145.39 273.37 140.00 272.00 C 134.61 270.63 125.26 274.98 121.00 272.00
C 122.86 287.37 126.31 300.47 133.00 314.00
C 135.52 309.89 147.74 314.20 153.00 313.00 C 158.26 311.80 167.79 313.54 174.00 313.00 C 180.21 312.46 188.37 313.25 195.00 313.00 C 201.63 312.75 209.19 313.13 216.00 313.00 C 222.81 312.87 230.14 313.10 237.00 313.00
C 233.22 300.87 243.00 287.00 256.01 287.01 C 269.02 287.02 278.78 300.88 275.00 313.00
C 281.94 312.89 289.08 313.15 296.00 313.00 C 302.92 312.85 310.15 313.28 317.00 313.00 C 323.85 312.72 331.32 313.60 338.00 313.00 C 344.68 312.40 352.71 314.32 359.00 313.00 C 365.29 311.68 374.58 315.93 380.00 313.00
C 386.23 299.69 389.23 286.64 391.00 272.00
C 386.62 275.06 376.44 270.52 371.00 272.00 C 365.56 273.48 357.90 271.29 352.00 272.00 C 346.10 272.71 339.06 271.58 333.00 272.00 C 326.94 272.42 320.04 271.59 314.00 272.00 C 307.96 272.41 301.24 270.89 296.00 273.00
C 303.15 286.24 285.63 284.35 281.23 276.77 C 276.83 269.19 263.26 268.13 256.00 268.00 C 248.74 267.87 234.77 269.82 230.25 277.25 C 225.73 284.67 209.10 285.79 216.00 273.00 Z"/>
</g>
<g fill="#AB1F6C" fill-opacity="0.92" stroke="None">
<path d="
M 48.00 318.00 
C 50.11 319.75 62.61 320.20 64.00 318.00
C 57.91 304.37 52.98 289.86 47.00 276.00
C 43.45 274.24 35.04 276.15 31.00 276.00
C 37.01 289.85 42.04 304.19 48.00 318.00 Z"/>
</g>
<g fill="#000000" fill-opacity="0.00" stroke="None">
<path d="
M 237.00 313.00 
C 242.76 331.48 269.23 331.49 275.00 313.00
C 278.78 300.88 269.02 287.02 256.01 287.01 C 243.00 287.00 233.22 300.87 237.00 313.00 Z"/>
</g>
<g fill="#B01E66" fill-opacity="0.90" stroke="None">
<path d="
M 446.00 321.00 
C 449.76 318.86 458.27 321.83 462.00 322.00
C 465.15 314.18 469.40 310.04 469.99 301.01 C 470.58 291.98 456.49 292.46 454.77 300.77 C 453.05 309.08 449.03 313.45 446.00 321.00 Z"/>
</g>
<g fill="#B71B5D" fill-opacity="0.99" stroke="None">
<path d="
M 133.00 314.00 
C 137.96 324.02 142.85 332.30 150.00 341.00
C 152.32 336.91 164.77 341.17 170.00 340.00 C 175.23 338.83 184.67 340.50 191.00 340.00 C 197.33 339.50 206.24 340.23 213.00 340.00 C 219.76 339.77 227.04 340.08 234.00 340.00 C 240.96 339.92 249.01 340.00 256.00 340.00 C 262.99 340.00 270.10 339.91 277.00 340.00 C 283.90 340.09 291.26 339.75 298.00 340.00 C 304.74 340.25 313.68 339.46 320.00 340.00 C 326.32 340.55 335.78 338.73 341.00 340.00 C 346.22 341.27 359.64 336.83 362.00 341.00
C 369.23 332.20 375.11 323.46 380.00 313.00
C 374.58 315.93 365.29 311.68 359.00 313.00 C 352.71 314.32 344.68 312.40 338.00 313.00 C 331.32 313.60 323.85 312.72 317.00 313.00 C 310.15 313.28 302.92 312.85 296.00 313.00 C 289.08 313.15 281.94 312.89 275.00 313.00
C 269.23 331.49 242.76 331.48 237.00 313.00
C 230.14 313.10 222.81 312.87 216.00 313.00 C 209.19 313.13 201.63 312.75 195.00 313.00 C 188.37 313.25 180.21 312.46 174.00 313.00 C 167.79 313.54 158.26 311.80 153.00 313.00 C 147.74 314.20 135.52 309.89 133.00 314.00 Z"/>
</g>
<g fill="#BF1853" fill-opacity="0.91" stroke="None">
<path d="
M 64.00 318.00 
C 62.61 320.20 50.11 319.75 48.00 318.00
C 51.81 326.82 55.55 333.30 58.23 342.77 C 60.91 352.24 67.13 356.53 68.69 367.31 C 70.26 378.09 87.15 377.10 84.78 366.22 C 82.41 355.35 77.16 351.22 74.32 341.68 C 71.48 332.13 67.81 326.53 64.00 318.00 Z"/>
</g>
<g fill="#BD1956" fill-opacity="0.92" stroke="None">
<path d="
M 430.00 360.00 
C 434.16 357.76 441.74 362.08 446.00 360.00
C 451.37 347.69 456.88 334.73 462.00 322.00
C 458.27 321.83 449.76 318.86 446.00 321.00
C 440.75 334.06 435.25 346.94 430.00 360.00 Z"/>
</g>
<g fill="#C4164C" fill-opacity="0.98" stroke="None">
<path d="
M 150.00 341.00 
C 173.88 370.07 208.55 391.23 247.00 392.00
C 252.30 391.59 258.75 391.49 264.00 392.00
C 302.74 392.00 338.10 370.10 362.00 341.00
C 359.64 336.83 346.22 341.27 341.00 340.00 C 335.78 338.73 326.32 340.55 320.00 340.00 C 313.68 339.46 304.74 340.25 298.00 340.00 C 291.26 339.75 283.90 340.09 277.00 340.00 C 270.10 339.91 262.99 340.00 256.00 340.00 C 249.01 340.00 240.96 339.92 234.00 340.00 C 227.04 340.08 219.76 339.77 213.00 340.00 C 206.24 340.23 197.33 339.50 191.00 340.00 C 184.67 340.50 175.23 338.83 170.00 340.00 C 164.77 341.17 152.32 336.91 150.00 341.00 Z"/>
</g>
<g fill="#CA1444" fill-opacity="0.92" stroke="None">
<path d="
M 418.00 390.00 
C 420.37 393.79 429.86 388.52 433.00 392.00
C 437.29 381.34 441.43 370.46 446.00 360.00
C 441.74 362.08 434.16 357.76 430.00 360.00
C 425.98 370.01 422.04 380.08 418.00 390.00 Z"/>
</g>
<g fill="#D90E31" fill-opacity="0.95" stroke="None">
<path d="
M 433.00 392.00 
C 429.86 388.52 420.37 393.79 418.00 390.00
C 416.50 390.97 416.56 393.40 416.00 395.00
C 394.86 393.47 386.72 424.18 406.32 433.68 C 425.93 443.18 446.43 415.76 429.00 401.00
C 430.66 398.10 431.77 395.06 433.00 392.00 Z"/>
</g>
<g fill="#D0113D" fill-opacity="0.83" stroke="None">
<path d="
M 247.00 392.00 
C 252.66 392.11 258.34 392.00 264.00 392.00
C 258.75 391.49 252.30 391.59 247.00 392.00 Z"/>
</g>
<g fill="#E00C29" fill-opacity="0.93" stroke="None">
<path d="
M 117.00 416.00 
C 118.49 394.90 87.88 386.66 78.32 406.32 C 68.76 425.98 96.18 446.49 111.00 429.00
C 121.80 433.78 136.23 440.27 146.92 444.08 C 157.62 447.88 172.48 456.14 181.98 459.02 C 191.47 461.91 212.33 476.71 217.07 465.07 C 221.81 453.44 197.83 449.61 189.02 444.98 C 180.22 440.34 162.96 435.08 152.69 430.31 C 142.43 425.53 127.96 419.73 117.00 416.00 Z"/>
</g>
<g fill="#ED0618" fill-opacity="0.93" stroke="None">
<path d="
M 276.00 480.00 
C 287.03 477.14 295.97 473.10 306.77 468.77 C 317.58 464.44 324.70 460.63 336.31 456.31 C 347.91 451.98 352.57 448.86 365.92 443.92 C 379.28 438.99 370.89 423.58 358.68 430.68 C 346.46 437.78 339.91 437.33 329.02 443.02 C 318.14 448.72 309.44 450.13 299.08 455.08 C 288.71 460.02 280.33 462.76 270.00 467.00
C 254.76 449.76 228.16 471.14 237.70 490.30 C 247.23 509.47 278.35 501.35 276.00 480.00 Z"/>
</g>
</svg>